<?xml version="1.0" encoding="UTF-8" standalone="no"?>
<svg
   viewBox="0 0 84.999998 108"
   width="85"
   height="108"
   version="1.1"
   id="svg998"
   sodipodi:docname="xrail.svg"
   inkscape:version="1.2.2 (b0a8486541, 2022-12-01)"
   xmlns:inkscape="http://www.inkscape.org/namespaces/inkscape"
   xmlns:sodipodi="http://sodipodi.sourceforge.net/DTD/sodipodi-0.dtd"
   xmlns="http://www.w3.org/2000/svg"
   xmlns:svg="http://www.w3.org/2000/svg">
  <sodipodi:namedview
     id="namedview1000"
     pagecolor="#ffffff"
     bordercolor="#666666"
     borderopacity="1.0"
     inkscape:showpageshadow="2"
     inkscape:pageopacity="0.0"
     inkscape:pagecheckerboard="0"
     inkscape:deskcolor="#d1d1d1"
     showgrid="false"
     inkscape:zoom="9.6592241"
     inkscape:cx="103.2174"
     inkscape:cy="53.006328"
     inkscape:window-width="5054"
     inkscape:window-height="1371"
     inkscape:window-x="66"
     inkscape:window-y="32"
     inkscape:window-maximized="1"
     inkscape:current-layer="g978" />
  <desc
     id="desc2">xrail.dxf - scale = 1.000000, origin = (0.000000, 0.000000), method = manual</desc>
  <defs
     id="defs16">
    <marker
       id="DistanceX"
       orient="auto"
       refX="0"
       refY="0"
       style="overflow:visible">
      <path
         d="M 3,-3 -3,3 M 0,-5 V 5"
         style="stroke:#000000;stroke-width:0.5"
         id="path4" />
    </marker>
    <pattern
       id="Hatch"
       patternUnits="userSpaceOnUse"
       width="8"
       height="8"
       x="0"
       y="0">
      <path
         d="M8 4 l-4,4"
         stroke="#000000"
         stroke-width="0.25"
         linecap="square"
         id="path7" />
      <path
         d="M6 2 l-4,4"
         stroke="#000000"
         stroke-width="0.25"
         linecap="square"
         id="path9" />
      <path
         d="M4 0 l-4,4"
         stroke="#000000"
         stroke-width="0.25"
         linecap="square"
         id="path11" />
    </pattern>
    <symbol
       id="*MODEL_SPACE" />
    <symbol
       id="*PAPER_SPACE" />
  </defs>
  <g
     inkscape:groupmode="layer"
     inkscape:label="0"
     id="g18" />
  <g
     inkscape:groupmode="layer"
     inkscape:label="SECTION_CUTTING_LINE"
     id="g20" />
  <g
     inkscape:groupmode="layer"
     inkscape:label="DETAIL_VIEW_BORDER"
     id="g22" />
  <g
     inkscape:groupmode="layer"
     inkscape:label="DETAIL_VIEW_PARENT_BORDER"
     id="g24" />
  <g
     inkscape:groupmode="layer"
     inkscape:label="TEXT"
     id="g26" />
  <g
     inkscape:groupmode="layer"
     inkscape:label="SKETCHED_GEOMETRY"
     id="g28" />
  <g
     inkscape:groupmode="layer"
     inkscape:label="VIRTUAL_SHARPS"
     id="g30" />
  <g
     inkscape:groupmode="layer"
     inkscape:label="CENTERLINES"
     id="g32" />
  <g
     inkscape:groupmode="layer"
     inkscape:label="CENTERMARKS"
     id="g34" />
  <g
     inkscape:groupmode="layer"
     inkscape:label="TABLES"
     id="g36" />
  <g
     inkscape:groupmode="layer"
     inkscape:label="IMAGES"
     id="g38" />
  <g
     inkscape:groupmode="layer"
     inkscape:label="ANNOTATION_LINES"
     id="g40" />
  <g
     inkscape:groupmode="layer"
     inkscape:label="ANNOTATION_TEXT"
     id="g42" />
  <g
     inkscape:groupmode="layer"
     inkscape:label="SIDE_THREAD_SYMBOLS"
     id="g44" />
  <g
     inkscape:groupmode="layer"
     inkscape:label="SIDE_THREAD_SYMBOLS_HIDDEN"
     id="g46" />
  <g
     inkscape:groupmode="layer"
     inkscape:label="SURFACE_THREAD_SYMBOLS"
     id="g48" />
  <g
     inkscape:groupmode="layer"
     inkscape:label="SURFACE_THREAD_SYMBOLS_ON_"
     id="g50" />
  <g
     inkscape:groupmode="layer"
     inkscape:label="SURFACE_THREAD_SYMBOLS_HID"
     id="g52" />
  <g
     inkscape:groupmode="layer"
     inkscape:label="BLIND_THREAD_SYMBOLS"
     id="g54" />
  <g
     inkscape:groupmode="layer"
     inkscape:label="BLIND_THREAD_SYMBOLS_HIDDE"
     id="g56" />
  <g
     inkscape:groupmode="layer"
     inkscape:label="EXPLODE_LINES"
     id="g58" />
  <g
     inkscape:groupmode="layer"
     inkscape:label="HIDDEN_EXPLODE_LINES"
     id="g60" />
  <g
     inkscape:groupmode="layer"
     inkscape:label="BREAK_LINES"
     id="g62" />
  <g
     inkscape:groupmode="layer"
     inkscape:label="SHEETMETAL_BEND_LINES_UP"
     id="g64" />
  <g
     inkscape:groupmode="layer"
     inkscape:label="SHEETMETAL_BEND_LINES_DOWN"
     id="g66" />
  <g
     inkscape:groupmode="layer"
     inkscape:label="SHEETMETAL_BEND_TANGENT_LI"
     id="g68" />
  <g
     inkscape:groupmode="layer"
     inkscape:label="SHEETMETAL_CUT_LINES"
     id="g70" />
  <g
     inkscape:groupmode="layer"
     inkscape:label="SHEETMETAL_CBORE_CSINK_UP"
     id="g72" />
  <g
     inkscape:groupmode="layer"
     inkscape:label="SHEETMETAL_CBORE_CSINK_DOW"
     id="g74" />
  <g
     inkscape:groupmode="layer"
     inkscape:label="SHEETMETAL_FORM_TEAR"
     id="g76" />
  <g
     inkscape:groupmode="layer"
     inkscape:label="SHEETMETAL_FORM_UP"
     id="g78" />
  <g
     inkscape:groupmode="layer"
     inkscape:label="SHEETMETAL_FORM_DOWN"
     id="g80" />
  <g
     inkscape:groupmode="layer"
     inkscape:label="SHEETMETAL_FORM_CENTERMARK"
     id="g82" />
  <g
     inkscape:groupmode="layer"
     inkscape:label="REGION_ASSOC_POINTS"
     id="g84" />
  <g
     inkscape:groupmode="layer"
     inkscape:label="PATTERN_CENTERLINES"
     id="g86" />
  <g
     inkscape:groupmode="layer"
     inkscape:label="HIDDEN"
     id="g88" />
  <g
     inkscape:groupmode="layer"
     inkscape:label="VISIBLE"
     id="g978">
    <path
       style="fill:#000000;fill-opacity:1;stroke:#000000;stroke-width:1"
       d="M 2.3278666,90.936285 13.329711,101.95819 c 0.931777,0.9334 2.19558,1.45789 3.513303,1.45743 l 10.931103,-5.2e-4 2.3e-5,0.1259 c 2.1e-5,0.13694 0.111249,0.24838 0.24845,0.24828 h 0.9938 c 0.137152,10e-5 0.248381,-0.11134 0.248315,-0.24828 l -6e-5,-0.49735 h 0.99386 v 0.49735 c -2e-6,0.13694 0.111226,0.24838 0.24845,0.24828 h 0.993668 c 0.137261,10e-5 0.248489,-0.11134 0.24845,-0.24828 l -4e-5,-0.49735 h 0.993861 l -2.4e-5,0.49735 c -2.6e-5,0.13694 0.111202,0.24838 0.248449,0.24828 h 0.993669 c 0.137237,10e-5 0.248465,-0.11134 0.24845,-0.24828 l -1.6e-5,-0.49735 h 0.99386 l -4.7e-5,0.49735 c -5e-5,0.13694 0.111178,0.24838 0.248449,0.24828 h 0.993666 c 0.137216,10e-5 0.248445,-0.11134 0.24845,-0.24828 l 1e-5,-0.1259 h 13.912209 l 4.2e-5,0.1259 c 3.9e-5,0.13694 0.111267,0.24838 0.248449,0.24828 h 0.993798 c 0.137173,10e-5 0.248402,-0.11134 0.248449,-0.24828 l 5.3e-5,-0.49735 h 0.993597 l 1.6e-5,0.49735 c 1.6e-5,0.13694 0.111247,0.24838 0.248452,0.24828 h 0.993798 c 0.137147,10e-5 0.248378,-0.11134 0.248317,-0.24828 l -5.5e-5,-0.49735 h 0.993861 l -8e-6,0.49735 c -8e-6,0.13694 0.111223,0.24838 0.248426,0.24828 h 0.993745 c 0.137202,10e-5 0.248431,-0.11134 0.248423,-0.24828 l -6e-6,-0.49735 h 0.993756 l -5e-6,0.49735 c -6e-6,0.13694 0.111223,0.24838 0.248436,0.24828 h 0.993734 c 0.137206,10e-5 0.248434,-0.11134 0.248437,-0.24828 l 5e-6,-0.1259 h 17.327066 l 3.977443,3.9859 c 0.135828,0.13624 0.356047,0.13624 0.491874,0 l 2.813735,-2.81889 c 0.06523,-0.0654 0.101874,-0.15407 0.101879,-0.24702 v -1.82314 c -8e-6,-0.0921 -0.0367,-0.1808 -0.101989,-0.24576 l -3.951308,-3.955966 c -0.0653,-0.06496 -0.101995,-0.153654 -0.10199,-0.245771 v -2.211941 c -2e-6,-0.659619 -0.261742,-1.292741 -0.727645,-1.759914 l -1.909543,-1.912876 c -0.09701,-0.09718 -0.254312,-0.09718 -0.351329,0 l -0.08784,0.08691 -0.70267,-0.70337 0.08782,-0.08724 c 0.09703,-0.09751 0.09703,-0.255124 0,-0.352515 l -0.702672,-0.7037 c -0.09702,-0.09735 -0.254318,-0.09735 -0.351333,0 l -0.08783,0.08708 -0.70267,-0.70337 0.08782,-0.08742 c 0.09701,-0.09769 0.09701,-0.255284 0,-0.352502 l -0.702676,-0.703712 c -0.09702,-0.09754 -0.254318,-0.09754 -0.35134,0 l -0.08782,0.08726 -0.702696,-0.70337 0.08784,-0.08759 c 0.09703,-0.09787 0.09703,-0.255479 0,-0.352515 l -0.702675,-0.7037 c -0.09702,-0.09771 -0.254324,-0.09771 -0.351343,0 l -0.08784,0.08743 -0.70267,-0.70337 0.08784,-0.08908 c 0.09702,-0.09672 0.09702,-0.254333 0,-0.351198 l -0.702685,-0.705016 c -0.09701,-0.09656 -0.254313,-0.09656 -0.35133,0 l -0.08784,0.08892 -0.70267,-0.70337 0.08783,-0.08925 c 0.09703,-0.09689 0.09703,-0.254504 0,-0.351197 l -1.90955,-1.91419 C 67.316568,81.98338 67.211871,81.730125 67.211876,81.465935 v -6.472177 c 2e-6,-0.136946 -0.111226,-0.248392 -0.248439,-0.248274 l -0.124209,1.19e-4 v -0.995782 l 0.124209,-5.3e-5 c 0.137213,-5.3e-5 0.248441,-0.111499 0.248439,-0.249591 v -0.994399 c 2e-6,-0.138106 -0.111226,-0.249552 -0.248439,-0.249591 l -0.124209,-4e-5 v -0.995782 l 0.124209,1.05e-4 c 0.137213,1.06e-4 0.248441,-0.11134 0.248439,-0.248273 V 70.01648 c 2e-6,-0.137947 -0.111226,-0.249393 -0.248439,-0.249591 l -0.124209,-1.97e-4 v -0.995783 l 0.124209,2.51e-4 c 0.137203,2.5e-4 0.248426,-0.11118 0.248439,-0.248261 v -0.99573 c -1.3e-5,-0.137792 -0.111236,-0.249222 -0.248439,-0.249577 l -0.124209,-2.64e-4 v -0.995782 l 0.124209,5.27e-4 c 0.137213,5.27e-4 0.248441,-0.111038 0.248439,-0.248274 v -24.06699 c 2e-6,-0.137329 -0.111226,-0.248775 -0.248439,-0.248274 l -0.124209,5.27e-4 V 40.72328 l 0.124209,-5.27e-4 c 0.137213,-5.27e-4 0.248441,-0.111881 0.248439,-0.249591 v -0.995717 c 2e-6,-0.13717 -0.111226,-0.248616 -0.248439,-0.248274 l -0.124209,2.64e-4 v -0.995782 l 0.124209,-2.64e-4 c 0.137213,-2.63e-4 0.248441,-0.111722 0.248439,-0.249591 v -0.995716 c 2e-6,-0.137012 -0.111226,-0.248458 -0.248439,-0.248274 l -0.124209,1.84e-4 V 35.74421 l 0.124209,-1.18e-4 c 0.137213,-1.19e-4 0.248441,-0.111565 0.248439,-0.249591 v -0.995717 c 2e-6,-0.136854 -0.111226,-0.2483 -0.248439,-0.248274 l -0.124209,2.7e-5 v -0.995782 l 0.124209,3.9e-5 c 0.137213,4e-5 0.248441,-0.111406 0.248439,-0.248274 v -6.472269 c 2e-6,-0.264273 0.1047,-0.517519 0.291056,-0.703699 l 1.909535,-1.914194 c 0.09703,-0.09677 0.09703,-0.254385 0,-0.351198 l -0.08783,-0.08917 0.70267,-0.70337 0.08784,0.08753 c 0.09702,0.0978 0.254315,0.0978 0.35133,0 l 0.702685,-0.703699 c 0.09702,-0.09695 0.09702,-0.254556 0,-0.351198 l -0.08784,-0.08848 0.70267,-0.70416 0.08784,0.08801 c 0.09702,0.09723 0.25432,0.09723 0.351343,0 l 0.702675,-0.703966 c 0.09702,-0.09726 0.09702,-0.254861 0,-0.352116 l -0.08784,-0.08803 0.702696,-0.703896 0.08782,0.08797 c 0.09702,0.09718 0.254321,0.09718 0.35134,0 l 0.702676,-0.704099 c 0.09702,-0.09717 0.09702,-0.254771 0,-0.351984 l -0.08782,-0.08799 0.70267,-0.704161 0.08783,0.08819 c 0.09701,0.09714 0.254316,0.09714 0.351333,0 l 0.702672,-0.704098 c 0.09703,-0.09721 0.09703,-0.254812 0,-0.351983 l -0.08782,-0.08795 0.70267,-0.70416 0.08784,0.08801 c 0.09702,0.09723 0.254315,0.09723 0.351329,0 l 1.909543,-1.913145 c 0.465903,-0.466865 0.727645,-1.099988 0.727645,-1.76018 V 9.9360006 c 0,-0.092464 0.03669,-0.1811529 0.10199,-0.2465536 l 3.951308,-3.9550443 c 0.0653,-0.065427 0.101984,-0.1541158 0.101989,-0.2465536 V 3.6644427 c -5e-6,-0.09238 -0.03665,-0.1810174 -0.101879,-0.2463626 l -2.81372,-2.81922565 c -0.135827,-0.13604767 -0.356046,-0.13604767 -0.491874,0 l -3.977443,3.98519445 -4.248226,-1.05e-5 c -0.137203,-1.03e-5 -0.248428,0.1114338 -0.248434,0.2489311 l -7e-6,0.1243661 h -0.99373 l 3e-6,-0.1243661 c 3e-6,-0.1374973 -0.111223,-0.2489414 -0.248436,-0.2489311 h -0.993732 c -0.137208,-1.03e-5 -0.248434,0.1114338 -0.248436,0.2489311 l -5e-6,0.1243661 h -0.99373 V 4.8329695 c 0,-0.1374973 -0.111225,-0.2489414 -0.248436,-0.2489311 h -0.993732 c -0.13721,-1.03e-5 -0.248436,0.1114338 -0.248439,0.2489311 v 0.1243661 h -0.993729 l -2e-6,-0.1243661 c -3e-6,-0.1374973 -0.111229,-0.2489414 -0.248437,-0.2489311 h -0.993734 c -0.137211,-1.03e-5 -0.248436,0.1114338 -0.248434,0.2489311 V 4.9573356 H 63.9574 l -5e-6,-0.1243661 c -5e-6,-0.1374973 -0.111231,-0.2489414 -0.248436,-0.2489311 h -0.993735 c -0.137213,-1.03e-5 -0.248438,0.1114338 -0.248436,0.2489311 l 5e-6,0.1243661 h -0.993755 l 5e-6,-0.1243661 c 5e-6,-0.1374973 -0.11122,-0.2489414 -0.248423,-0.2489311 h -0.993747 c -0.137203,-1.03e-5 -0.248429,0.1114338 -0.248424,0.2489311 l 8e-6,0.1243661 h -0.993755 l 3e-6,-0.1243661 c 2e-6,-0.1374973 -0.111223,-0.2489414 -0.248437,-0.2489311 h -0.993731 c -0.137208,-1.03e-5 -0.248434,0.1114338 -0.248439,0.2489311 l -3e-6,0.1243661 h -0.993729 l 3e-6,-0.1243661 c 0,-0.1374983 -0.111229,-0.2489427 -0.248439,-0.2489311 h -0.993735 c -0.137208,-1.03e-5 -0.248433,0.1114338 -0.248436,0.2489311 v 0.1243661 h -0.993834 l 5e-5,-0.1243661 c 5.2e-5,-0.1374983 -0.111176,-0.2489427 -0.248318,-0.2489311 h -0.745348 c -0.274432,-1.13e-5 -0.496889,0.2228753 -0.496902,0.4978608 v 1.4934482 c 1.3e-5,0.274941 0.22247,0.4978261 0.496902,0.4978595 l 1.813551,3.43e-5 v 2.0410902 l -2.541071,2.5458876 c -0.186383,0.186779 -0.439144,0.291678 -0.702741,0.291622 h -4.542886 c -0.263565,5.5e-5 -0.516324,-0.104844 -0.702739,-0.291622 L 43.809453,9.1143314 V 7.0732412 l 1.813451,-3.43e-5 c 0.274461,-3.48e-5 0.496917,-0.2229195 0.496899,-0.4978595 V 5.0818992 c 1.8e-5,-0.2749844 -0.222436,-0.4978708 -0.496899,-0.4978608 h -0.745219 c -0.137242,-1.03e-5 -0.248468,0.1114338 -0.24845,0.2489311 l 2.1e-5,0.1243661 h -0.99386 l 4.2e-5,-0.1243661 C 43.63548,4.6954722 43.524254,4.5840281 43.386989,4.5840384 H 42.39332 c -0.137219,-1.03e-5 -0.248444,0.1114338 -0.24845,0.2489311 l -2e-6,0.1243661 H 41.15127 l -6.6e-5,-0.1243661 C 41.151139,4.6954722 41.039913,4.5840281 40.902755,4.5840384 h -0.9938 c -0.137195,-1.03e-5 -0.248421,0.1114338 -0.24845,0.2489311 l -2.6e-5,0.1243661 h -0.993597 l -4.3e-5,-0.1243661 C 38.666797,4.6954722 38.555572,4.5840281 38.41839,4.5840384 h -0.706921 c -1.317718,-1.08e-5 -2.581519,0.5244862 -3.513306,1.4581084 l -2.635042,2.6401389 c -0.09704,0.097194 -0.09704,0.2547967 0,0.3519826 l 0.08784,0.087966 -0.702802,0.7041603 -0.08778,-0.088028 c -0.09698,-0.097247 -0.254281,-0.097247 -0.351303,0 l -0.70261,0.7039664 c -0.09708,0.09724 -0.09708,0.254842 0,0.351984 l 0.08788,0.08819 -0.702802,0.703897 -0.08782,-0.08798 c -0.09702,-0.09721 -0.254326,-0.09721 -0.351306,0 l -0.702738,0.704098 c -0.097,0.09715 -0.097,0.254751 0,0.351983 l 0.08779,0.08801 -0.702538,0.703897 -0.08787,-0.08794 c -0.09706,-0.09716 -0.254365,-0.09716 -0.351435,0 l -0.702608,0.704098 c -0.09704,0.09719 -0.09704,0.254795 0,0.351984 l 0.08784,0.08797 -0.702801,0.70416 -0.08778,-0.08803 c -0.09698,-0.09725 -0.254277,-0.09725 -0.351304,0 l -0.702608,0.703967 c -0.09708,0.09723 -0.09708,0.254836 0,0.351983 l 0.08788,0.08819 -0.702801,0.703897 -0.08782,-0.08799 c -0.09702,-0.09721 -0.25432,-0.09721 -0.351304,0 L 13.043735,27.237609 c -0.09697,0.09698 -0.09697,0.254596 0,0.351197 l 0.08777,0.08896 -0.702539,0.70337 -0.08783,-0.08732 c -0.09704,-0.09759 -0.254337,-0.09759 -0.351304,0 l -0.70274,0.703699 c -0.09702,0.09716 -0.09702,0.254767 0,0.352515 l 0.08781,0.08747 -0.702538,0.70337 -0.08788,-0.08714 c -0.09708,-0.09742 -0.254379,-0.09742 -0.351436,0 l -0.7026074,0.703713 c -0.097041,0.09734 -0.097041,0.254928 0,0.352501 l 0.08785,0.0873 -0.7028014,0.70337 -0.087788,-0.08696 c -0.09699,-0.09723 -0.2542898,-0.09723 -0.351304,0 L 7.773648,32.517362 c -0.096969,0.09751 -0.096969,0.255123 0,0.352515 l 0.087761,0.08712 -0.7025385,0.706004 -0.087831,-0.08942 c -0.097033,-0.09706 -0.2543324,-0.09706 -0.351304,0 L 6.0169958,34.27728 c -0.097012,0.09768 -0.097012,0.255295 0,0.352515 l 0.087804,0.08695 -0.7025385,0.706004 -0.087873,-0.08925 c -0.097075,-0.09689 -0.2543752,-0.09689 -0.3514354,0 L 2.3279093,37.973366 C 1.3961465,38.907552 0.87266211,40.173795 0.87261473,41.49451 l -4.404e-5,0.722206 -0.12411505,-5.27e-4 C 0.61123348,42.215662 0.50000497,42.327108 0.500006,42.464463 v 0.995716 c -1.03e-6,0.137526 0.11122748,0.248972 0.24844964,0.249591 l 0.49694426,5.27e-4 v 0.993148 l -0.49694426,5.27e-4 C 0.61123348,44.704499 0.50000497,44.81605 0.500006,44.953563 v 0.995716 c -1.03e-6,0.137368 0.11122748,0.248814 0.24844964,0.248274 l 0.49694426,-5.27e-4 v 0.995782 l -0.49694426,5.27e-4 c -0.13722216,5.27e-4 -0.24845067,0.11192 -0.24844964,0.249591 v 0.99573 c 1.349e-5,0.137212 0.11123775,0.248642 0.24844964,0.24826 l 0.49694426,-2.63e-4 v 0.995782 l -0.49694426,2.64e-4 C 0.61124375,49.682962 0.50001949,49.794458 0.500006,49.932276 v 0.99573 c -1.03e-6,0.137065 0.11122748,0.248511 0.24844964,0.248274 l 0.49694426,-2.37e-4 v 0.995782 l -0.49694426,1.71e-4 C 0.61123348,52.172167 0.50000497,52.283613 0.500006,52.421587 v 0.995717 c -1.03e-6,0.136907 0.11122748,0.248352 0.24844964,0.248273 l 0.12411505,-7.9e-5 V 75.243415 L 0.74845564,75.24327 C 0.61123348,75.243125 0.50000497,75.354571 0.500006,75.491544 v 0.995716 c -1.03e-6,0.137908 0.11122748,0.249354 0.24844964,0.249591 l 0.49694426,2.37e-4 v 0.995783 L 0.74845564,77.732607 C 0.61123348,77.732344 0.50000497,77.84375 0.500006,77.980881 v 0.995716 c -1.03e-6,0.13775 0.11122748,0.249196 0.24844964,0.249591 l 0.49694426,5.27e-4 v 0.995783 L 0.74845564,80.221971 C 0.61123348,80.221444 0.50000497,80.332956 0.500006,80.470245 v 0.995716 c -1.03e-6,0.137592 0.11122748,0.249038 0.24844964,0.249591 l 0.49694426,5.27e-4 v 0.995782 L 0.74845564,82.711334 C 0.61123348,82.710807 0.50000497,82.822161 0.500006,82.959608 v 0.995716 c -1.03e-6,0.137434 0.11122748,0.24888 0.24844964,0.248274 l 0.49694426,-5.27e-4 v 0.995783 L 0.74845564,85.19938 C 0.61124375,85.199907 0.50001949,85.311364 0.500006,85.448958 v 0.99573 c 1.349e-5,0.137278 0.11123775,0.248708 0.24844964,0.24826 l 0.12411505,-5.26e-4 4.404e-5,0.722126 c 4.042e-5,1.320644 0.52352537,2.586898 1.45533737,3.520512"
       id="path510"
       sodipodi:nodetypes="ccccccccccccccccccccccccccccccccccccccccccccccccccccccccccccccccccccccccccccccccccccccccccccccccccccccccccccccccccccccccccccccccccccccccccccccccccccccccccccccccccccccccccccccccccccccccccccccccccccccccccccccccccccccccccccccccccccccccccccccccccccccccccccccccccccccccccccccccccccccccccccccccccccccccccccccccccccccccccccccccccccccccccccccccccccccccccccccccccccccccccccccccccccccccccccccccccccccccc" />
  </g>
  <g
     inkscape:groupmode="layer"
     inkscape:label="MODELSKETCH_VISIBLE"
     id="g980" />
  <g
     inkscape:groupmode="layer"
     inkscape:label="MODELSKETCH_POINT"
     id="g982" />
  <g
     inkscape:groupmode="layer"
     inkscape:label="MODELSKETCH_CONSTRUCTION"
     id="g984" />
  <g
     inkscape:groupmode="layer"
     inkscape:label="HIDDEN_BASE_VIEW"
     id="g986" />
  <g
     inkscape:groupmode="layer"
     inkscape:label="TANGENT_LINES"
     id="g988" />
  <g
     inkscape:groupmode="layer"
     inkscape:label="TANGENT_HIDDEN"
     id="g990" />
  <g
     inkscape:groupmode="layer"
     inkscape:label="INVISIBLE_LINES"
     id="g992" />
  <g
     inkscape:groupmode="layer"
     inkscape:label="VIEW_HATCHES"
     id="g994" />
  <g
     inkscape:groupmode="layer"
     inkscape:label="SECTION_JOG_LINES"
     id="g996" />
</svg>
