<?xml version="1.0" encoding="UTF-8" standalone="no"?>
<svg
   viewBox="0 0 50 90.000002"
   width="50"
   height="90"
   version="1.1"
   id="svg734"
   sodipodi:docname="rail.svg"
   inkscape:version="1.2.2 (b0a8486541, 2022-12-01)"
   xmlns:inkscape="http://www.inkscape.org/namespaces/inkscape"
   xmlns:sodipodi="http://sodipodi.sourceforge.net/DTD/sodipodi-0.dtd"
   xmlns="http://www.w3.org/2000/svg"
   xmlns:svg="http://www.w3.org/2000/svg">
  <sodipodi:namedview
     id="namedview736"
     pagecolor="#ffffff"
     bordercolor="#666666"
     borderopacity="1.0"
     inkscape:showpageshadow="2"
     inkscape:pageopacity="0.0"
     inkscape:pagecheckerboard="0"
     inkscape:deskcolor="#d1d1d1"
     showgrid="false"
     inkscape:zoom="1.4142136"
     inkscape:cx="254.91199"
     inkscape:cy="276.8323"
     inkscape:window-width="1944"
     inkscape:window-height="1230"
     inkscape:window-x="622"
     inkscape:window-y="60"
     inkscape:window-maximized="0"
     inkscape:current-layer="g714" />
  <desc
     id="desc2">Y-rail (30-) - Y-rail (v7).dxf - scale = 1.000000, origin = (0.000000, 0.000000), method = manual</desc>
  <defs
     id="defs16" />
  <g
     inkscape:groupmode="layer"
     inkscape:label="VISIBLE"
     id="g714">
    <path
       id="path166"
       style="fill:#000000;fill-opacity:1;stroke:#000000;stroke-width:0.0999999;stroke-dasharray:none"
       d="m 43.868836,0.05 c -0.08944,0 -0.17892,0.03448794 -0.24716,0.10275257 L 39.375603,4.4017521 h -2.28119 c -0.137866,-2.54e-5 -0.249738,0.1119114 -0.249738,0.2499109 v 0.124439 h -0.99844 V 4.651663 c -3e-6,-0.1379995 -0.111872,-0.2499363 -0.249738,-0.2499109 h -0.99844 C 34.460191,4.4017283 34.348316,4.5136645 34.348319,4.651663 V 4.776102 H 33.349882 V 4.651663 c -6e-6,-0.1379985 -0.111881,-0.2499347 -0.249741,-0.2499109 H 32.101703 C 31.963832,4.4017283 31.85196,4.5136645 31.851963,4.651663 V 4.776102 H 30.853525 V 4.651663 c 6e-6,-0.1379985 -0.111883,-0.2499347 -0.24974,-0.2499109 H 29.605347 C 29.46749,4.4017283 29.356119,4.5136645 29.356124,4.651663 V 4.776102 H 28.357169 V 4.651663 c 3e-6,-0.1379985 -0.111354,-0.2499347 -0.249223,-0.2499109 h -0.99844 C 26.971643,4.4017283 26.859771,4.5136645 26.859768,4.651663 V 4.776102 H 25.861329 V 4.651663 C 25.861328,4.5136648 25.749456,4.4017285 25.61159,4.4017521 H 24.613151 C 24.475286,4.4017285 24.363414,4.5136648 24.363412,4.651663 V 4.776102 H 23.364973 V 4.651663 c -2e-6,-0.1379985 -0.111875,-0.2499347 -0.249739,-0.2499109 H 22.116795 C 21.978928,4.4017283 21.867056,4.5136645 21.867056,4.651663 V 4.776102 H 20.868617 V 4.651663 c -5e-6,-0.1379985 -0.111877,-0.2499347 -0.249739,-0.2499109 h -1.747139 c -0.275726,-2.38e-5 -0.499471,0.2238487 -0.499478,0.4998215 v 1.4886217 c 7e-6,0.2758605 0.223752,0.4993486 0.499478,0.4993052 h 1.821958 V 8.9378393 L 17.838212,11.795807 H 12.466249 L 9.6107642,8.9378393 V 6.8895005 h 1.8219578 c 0.275665,4.34e-5 0.499516,-0.2234447 0.499478,-0.4993052 V 4.9015736 C 11.932238,4.6256008 11.708387,4.4017283 11.432722,4.4017521 H 8.9853854 C 8.853014,4.4017283 8.7260787,4.4542279 8.6324486,4.5478778 L 1.8869216,11.298567 C 0.95068006,12.2355 0.42464045,13.506228 0.42460819,14.831396 v 6.807488 l -0.1248694,-5.29e-4 C 0.16184775,21.6378 0.04998788,21.749347 0.05000001,21.887233 v 0.999643 c -1.213e-5,0.13797 0.11184774,0.249535 0.24973878,0.248878 l 0.49947756,-5.29e-4 v 0.999127 l -0.49947756,5.29e-4 c -0.13789001,5.81e-4 -0.24974946,0.112385 -0.24973878,0.250427 v 0.999643 c -1.068e-5,0.137813 0.11184877,0.249378 0.24973878,0.248878 L 0.79921635,25.6333 v 0.999644 l -0.49947756,5.28e-4 c -0.13789001,5.29e-4 -0.24974946,0.112233 -0.24973878,0.250429 v 0.999125 c -1.068e-5,0.137656 0.11184877,0.249143 0.24973878,0.248879 h 0.49947756 v 0.999127 l -0.49947756,5.29e-4 c -0.13789001,2.64e-4 -0.24974946,0.112076 -0.24973878,0.250428 v 0.999125 c -1.068e-5,0.137501 0.11184877,0.249583 0.24973878,0.249395 l 0.49947756,-5.29e-4 v 0.999643 H 0.29973879 c -0.13789001,1.27e-4 -0.24974946,0.111918 -0.24973878,0.250426 v 0.999127 c -1.068e-5,0.137345 0.11184877,0.249427 0.24973878,0.249395 h 0.49947756 v 0.999128 H 0.29973879 c -0.13789001,-2.9e-5 -0.24974946,0.111534 -0.24973878,0.248876 v 0.999643 c -1.068e-5,0.138511 0.11184877,0.250304 0.24973878,0.250429 h 0.1248694 v 18.484619 h -0.1248694 c -0.13789001,4.2e-5 -0.24974946,0.111836 -0.24973878,0.250428 v 0.998094 c -1.068e-5,0.138585 0.11184877,0.250376 0.24973878,0.250426 h 0.49947756 v 0.999643 l -0.49947756,-5.29e-4 c -0.13789001,-2.51e-4 -0.24974946,0.111968 -0.24973878,0.249395 v 0.999127 c -1.068e-5,0.138426 0.11184877,0.25022 0.24973878,0.250426 h 0.49947756 v 0.999643 L 0.29973879,59.10739 c -0.13789207,-2.64e-4 -0.24975237,0.111818 -0.24973878,0.249395 v 0.999128 c -1.359e-5,0.138275 0.11184671,0.250161 0.24973878,0.250425 h 0.49947756 v 0.999643 l -0.49947756,-5.28e-4 c -0.13789207,-5.29e-4 -0.24975237,0.11114 -0.24973878,0.248876 v 0.999643 c -1.359e-5,0.13812 0.11184671,0.2499 0.24973878,0.250429 l 0.49947756,5.28e-4 v 0.999128 l -0.49947756,-5.29e-4 c -0.13789207,-5.29e-4 -0.24975237,0.1115 -0.24973878,0.249395 v 0.999125 c -1.359e-5,0.13796 0.11184671,0.249408 0.24973878,0.248879 l 0.49947756,-5.29e-4 v 0.999643 l -0.49947756,5.29e-4 c -0.13788176,5.29e-4 -0.24973778,0.112383 -0.24973878,0.250426 v 0.999127 c 1e-6,0.137805 0.11185702,0.249924 0.24973878,0.249395 l 0.1248694,-5.29e-4 v 6.807487 c 3.506e-5,1.325091 0.52607446,2.595773 1.46231341,3.532314 l 6.745527,6.751206 c 0.09363,0.09331 0.2205654,0.145688 0.3529368,0.145608 h 2.4473366 c 0.275669,8e-5 0.499522,-0.22328 0.499478,-0.499307 v -1.488621 c 4.4e-5,-0.276065 -0.223809,-0.49994 -0.499478,-0.499821 H 9.6107642 V 80.799 l 2.8554848,-2.85745 h 5.371963 l 2.855485,2.85745 v 2.048855 h -1.821958 c -0.27573,-1.19e-4 -0.499477,0.223756 -0.499478,0.499821 v 1.488621 c 10e-7,0.276027 0.223748,0.499387 0.499478,0.499307 h 1.747139 c 0.137864,8e-5 0.249737,-0.111486 0.249739,-0.248879 V 84.96022 h 0.998439 v 0.126505 c -3e-6,0.137393 0.11187,0.248959 0.249739,0.248879 h 0.998439 c 0.137866,8e-5 0.24974,-0.111486 0.249739,-0.248879 V 84.96022 h 0.998439 v 0.126505 c -1e-6,0.137393 0.111872,0.248959 0.249739,0.248879 h 0.998439 c 0.137868,8e-5 0.249741,-0.111486 0.249739,-0.248879 V 84.96022 h 0.998439 v 0.126505 c 0,0.137393 0.111873,0.248959 0.249738,0.248879 h 0.99844 c 0.137871,8e-5 0.249228,-0.111486 0.249223,-0.248879 V 84.96022 h 0.998955 v 0.126505 c -8e-6,0.137393 0.111363,0.248959 0.249223,0.248879 h 0.998438 c 0.13786,8e-5 0.249748,-0.111486 0.24974,-0.248879 V 84.96022 h 0.998438 v 0.126505 c -6e-6,0.137393 0.111867,0.248959 0.24974,0.248879 h 0.998438 c 0.137863,8e-5 0.249738,-0.111486 0.249741,-0.248879 V 84.96022 h 0.998437 v 0.126505 c -5e-6,0.137393 0.11187,0.248959 0.249738,0.248879 h 0.99844 c 0.137866,8.2e-5 0.249738,-0.111486 0.249738,-0.248879 V 84.96022 h 0.99844 v 0.126505 c -3e-6,0.137393 0.111872,0.248961 0.249738,0.248879 h 2.28119 l 4.246073,4.248999 c 0.136479,0.136982 0.357841,0.136982 0.49432,0 l 3.566002,-3.567425 c 0.749019,-0.75005 1.169749,-1.766481 1.169746,-2.825953 v -0.834931 c 0,-1.695538 -1.069318,-3.206575 -2.667665,-3.76983 L 33.89167,74.255947 C 31.494146,73.411142 29.890169,71.144328 29.890172,68.600943 V 61.8549 c 3e-6,-0.137736 -0.11187,-0.249817 -0.249738,-0.249394 l -0.12487,5.28e-4 v -0.999127 l 0.12487,-5.29e-4 c 0.137868,-2.64e-4 0.249741,-0.11215 0.249738,-0.250426 v -0.999127 c 3e-6,-0.137578 -0.11187,-0.249659 -0.249738,-0.249395 l -0.12487,5.29e-4 v -0.999643 h 0.12487 c 0.137866,-2.06e-4 0.249738,-0.112 0.249738,-0.250426 v -0.999128 c 0,-0.137426 -0.111872,-0.249508 -0.249738,-0.249394 h -0.12487 V 55.61024 h 0.12487 c 0.137866,-5e-5 0.249738,-0.111843 0.249738,-0.250425 v -0.998094 c 0,-0.138593 -0.111872,-0.250386 -0.249738,-0.250429 h -0.12487 v -0.999643 l 0.12487,5.29e-4 c 0.137866,1.06e-4 0.249738,-0.111976 0.249738,-0.249395 v -0.999125 c 0,-0.138436 -0.111872,-0.25023 -0.249738,-0.250428 l -0.12487,-5.29e-4 v -0.999127 l 0.12487,5.29e-4 c 0.137866,2.61e-4 0.249738,-0.111823 0.249738,-0.249395 V 39.372763 c 0,-0.137654 -0.111872,-0.249141 -0.249738,-0.248876 h -0.12487 v -0.999128 h 0.12487 c 0.137866,-2.64e-4 0.249738,-0.112589 0.249738,-0.250944 v -0.999127 c 0,-0.137498 -0.111872,-0.249062 -0.249738,-0.248877 h -0.12487 v -0.999127 l 0.12487,-5.29e-4 c 0.137866,-1.24e-4 0.249738,-0.111918 0.249738,-0.250428 v -0.999128 c 0,-0.137342 -0.111872,-0.248906 -0.249738,-0.248877 h -0.12487 v -0.999643 h 0.12487 c 0.137866,3.2e-5 0.249738,-0.111534 0.249738,-0.248879 v -0.999127 c 0,-0.138508 -0.111872,-0.250815 -0.249738,-0.250942 h -0.12487 v -0.999127 h 0.12487 c 0.137866,1.88e-4 0.249738,-0.111379 0.249738,-0.248879 v -0.999643 c 0,-0.138352 -0.111872,-0.250162 -0.249738,-0.250426 h -0.12487 v -0.999643 l 0.12487,5.29e-4 c 0.137866,2.64e-4 0.249738,-0.111738 0.249738,-0.249395 V 21.13648 c 0,-2.543394 1.603977,-4.810278 4.001498,-5.655006 l 12.292409,-4.330582 c 1.598347,-0.56307 2.667668,-2.0741086 2.667665,-3.7698317 V 6.5466474 c 3e-6,-1.05995 -0.420724,-2.0763811 -1.169746,-2.8259539 L 44.115996,0.15275257 C 44.047756,0.08448794 43.958274,0.05 43.868836,0.05 Z"
       sodipodi:nodetypes="scccsccsccsccsccsccsccsccsccsccsccsccsccsccccccccccccccccccccccccccccccccccccccccccccccccccccccccccccccccccccccccccccccccccccccccccsscccccccccccccccccssccsccsccsccsccsccsccsccsccsccsccsccsccsccscccccssccscccccccccccssccccssccccssccccssccccssccccssccccssccccssccccssccssccs" />
  </g>
</svg>
