<?xml version="1.0" encoding="UTF-8" standalone="no"?>
<svg
   fill="#afb1b3"
   height="400"
   width="220"
   version="1.1"
   id="Capa_1"
   viewBox="0 0 7.54655 13.721"
   xml:space="preserve"
   sodipodi:docname="cell-phone.svg"
   inkscape:version="1.2.2 (b0a8486541, 2022-12-01)"
   xmlns:inkscape="http://www.inkscape.org/namespaces/inkscape"
   xmlns:sodipodi="http://sodipodi.sourceforge.net/DTD/sodipodi-0.dtd"
   xmlns="http://www.w3.org/2000/svg"
   xmlns:svg="http://www.w3.org/2000/svg"><defs
   id="defs110" /><sodipodi:namedview
   id="namedview108"
   pagecolor="#ffffff"
   bordercolor="#666666"
   borderopacity="1.0"
   inkscape:showpageshadow="2"
   inkscape:pageopacity="0.0"
   inkscape:pagecheckerboard="0"
   inkscape:deskcolor="#d1d1d1"
   showgrid="false"
   inkscape:zoom="1.28375"
   inkscape:cx="-34.274586"
   inkscape:cy="403.11587"
   inkscape:window-width="2222"
   inkscape:window-height="1276"
   inkscape:window-x="2098"
   inkscape:window-y="120"
   inkscape:window-maximized="0"
   inkscape:current-layer="Capa_1" />
<rect
   style="opacity:1;fill:#ffffff;stroke:none;stroke-width:0.343025;stroke-linecap:round;stroke-linejoin:round;fill-opacity:1"
   id="rect301"
   width="6.5812712"
   height="9.4015303"
   x="0.52118111"
   y="1.3865376" /><g
   id="g105"
   transform="matrix(0.48562098,0,0,0.5,-2.8899306,0)"
   style="fill:#afb1b3;fill-opacity:1">
	<path
   d="M 19.494,0 H 7.948 C 6.843,0 5.951,0.896 5.951,1.999 v 23.446 c 0,1.102 0.892,1.997 1.997,1.997 h 11.546 c 1.103,0 1.997,-0.895 1.997,-1.997 V 1.999 C 21.491,0.896 20.597,0 19.494,0 Z m -8.622,1.214 h 5.7 c 0.144,0 0.261,0.215 0.261,0.481 0,0.266 -0.117,0.482 -0.261,0.482 h -5.7 c -0.145,0 -0.26,-0.216 -0.26,-0.482 0,-0.266 0.115,-0.481 0.26,-0.481 z m 2.85,24.255 c -0.703,0 -1.275,-0.572 -1.275,-1.276 0,-0.704 0.572,-1.274 1.275,-1.274 0.701,0 1.273,0.57 1.273,1.274 0,0.704 -0.572,1.276 -1.273,1.276 z M 19.995,21.1 H 7.448 V 3.373 h 12.547 z"
   id="path73"
   style="fill:#afb1b3;fill-opacity:1" />
	<g
   id="g75"
   style="fill:#afb1b3;fill-opacity:1">
	</g>
	<g
   id="g77"
   style="fill:#afb1b3;fill-opacity:1">
	</g>
	<g
   id="g79"
   style="fill:#afb1b3;fill-opacity:1">
	</g>
	<g
   id="g81"
   style="fill:#afb1b3;fill-opacity:1">
	</g>
	<g
   id="g83"
   style="fill:#afb1b3;fill-opacity:1">
	</g>
	<g
   id="g85"
   style="fill:#afb1b3;fill-opacity:1">
	</g>
	<g
   id="g87"
   style="fill:#afb1b3;fill-opacity:1">
	</g>
	<g
   id="g89"
   style="fill:#afb1b3;fill-opacity:1">
	</g>
	<g
   id="g91"
   style="fill:#afb1b3;fill-opacity:1">
	</g>
	<g
   id="g93"
   style="fill:#afb1b3;fill-opacity:1">
	</g>
	<g
   id="g95"
   style="fill:#afb1b3;fill-opacity:1">
	</g>
	<g
   id="g97"
   style="fill:#afb1b3;fill-opacity:1">
	</g>
	<g
   id="g99"
   style="fill:#afb1b3;fill-opacity:1">
	</g>
	<g
   id="g101"
   style="fill:#afb1b3;fill-opacity:1">
	</g>
	<g
   id="g103"
   style="fill:#afb1b3;fill-opacity:1">
	</g>
</g>
</svg>
