<?xml version="1.0" encoding="UTF-8" standalone="no"?>
<svg
   height="24"
   width="24"
   viewBox="0 0 960 768"
   version="1.1"
   id="svg32725"
   sodipodi:docname="holeprobe24.svg"
   inkscape:version="1.2.2 (b0a8486541, 2022-12-01)"
   xmlns:inkscape="http://www.inkscape.org/namespaces/inkscape"
   xmlns:sodipodi="http://sodipodi.sourceforge.net/DTD/sodipodi-0.dtd"
   xmlns="http://www.w3.org/2000/svg"
   xmlns:svg="http://www.w3.org/2000/svg">
  <defs
     id="defs32729" />
  <sodipodi:namedview
     id="namedview32727"
     pagecolor="#ffffff"
     bordercolor="#666666"
     borderopacity="1.0"
     inkscape:showpageshadow="2"
     inkscape:pageopacity="0.0"
     inkscape:pagecheckerboard="0"
     inkscape:deskcolor="#d1d1d1"
     showgrid="false"
     inkscape:zoom="32.09375"
     inkscape:cx="12.915287"
     inkscape:cy="5.5929893"
     inkscape:window-width="2030"
     inkscape:window-height="1322"
     inkscape:window-x="2015"
     inkscape:window-y="78"
     inkscape:window-maximized="0"
     inkscape:current-layer="svg32725" />
  <!--! Font Awesome Free 6.4.2 by @fontawesome - https://fontawesome.com License - https://fontawesome.com/license (Commercial License) Copyright 2023 Fonticons, Inc. -->
  <text
     xml:space="preserve"
     style="font-style:normal;font-variant:normal;font-weight:bold;font-stretch:normal;font-size:408.402px;line-height:1.25;font-family:sans-serif;-inkscape-font-specification:'sans-serif Bold';fill:#afb1b3;fill-opacity:1;stroke:none;stroke-width:10.2101"
     x="-37.490051"
     y="223.717"
     id="text35489"
     transform="scale(0.82702013,1.2091604)"><tspan
       sodipodi:role="line"
       id="tspan35487"
       style="font-style:normal;font-variant:normal;font-weight:bold;font-stretch:normal;font-family:sans-serif;-inkscape-font-specification:'sans-serif Bold';fill:#afb1b3;fill-opacity:1;stroke-width:10.2101"
       x="-37.490051"
       y="223.717">HOLE</tspan></text>
  <g
     id="g5096"
     transform="matrix(0.67197701,0,0,0.67197701,546.94173,-12609.581)"
     style="display:inline" />
  <g
     id="g5098"
     transform="matrix(0.67197701,0,0,0.67197701,546.94173,-12609.581)"
     style="display:inline" />
  <g
     id="g5100"
     transform="matrix(0.67197701,0,0,0.67197701,546.94173,-12609.581)"
     style="display:inline" />
  <g
     id="g5102"
     transform="matrix(0.67197701,0,0,0.67197701,546.94173,-12609.581)"
     style="display:inline" />
  <g
     id="g5104"
     transform="matrix(0.67197701,0,0,0.67197701,546.94173,-12609.581)"
     style="display:inline" />
  <g
     id="g5106"
     transform="matrix(0.67197701,0,0,0.67197701,546.94173,-12609.581)"
     style="display:inline" />
  <g
     id="g5108"
     transform="matrix(0.67197701,0,0,0.67197701,546.94173,-12609.581)"
     style="display:inline" />
  <g
     id="g5110"
     transform="matrix(0.67197701,0,0,0.67197701,546.94173,-12609.581)"
     style="display:inline" />
  <g
     id="g5112"
     transform="matrix(0.67197701,0,0,0.67197701,546.94173,-12609.581)"
     style="display:inline" />
  <g
     id="g5114"
     transform="matrix(0.67197701,0,0,0.67197701,546.94173,-12609.581)"
     style="display:inline" />
  <g
     id="g5116"
     transform="matrix(0.67197701,0,0,0.67197701,546.94173,-12609.581)"
     style="display:inline" />
  <g
     id="g5118"
     transform="matrix(0.67197701,0,0,0.67197701,546.94173,-12609.581)"
     style="display:inline" />
  <g
     id="g5120"
     transform="matrix(0.67197701,0,0,0.67197701,546.94173,-12609.581)"
     style="display:inline" />
  <g
     id="g5122"
     transform="matrix(0.67197701,0,0,0.67197701,546.94173,-12609.581)"
     style="display:inline" />
  <g
     id="g5124"
     transform="matrix(0.67197701,0,0,0.67197701,546.94173,-12609.581)"
     style="display:inline" />
  <path
     d="m 480.0001,323.99989 c 18.66794,0 33.75001,15.08207 33.75001,33.75001 v 36.59769 c 84.79689,14.13275 151.7696,81.10546 165.90234,165.90235 h 36.5977 c 18.66794,0 33.75001,15.08207 33.75001,33.75001 0,18.66793 -15.08207,33.75 -33.75001,33.75 h -36.5977 C 665.51971,712.54684 598.547,779.51955 513.75011,793.6523 v 36.59769 c 0,18.66794 -15.08207,33.75001 -33.75001,33.75001 -18.66794,0 -33.75,-15.08207 -33.75,-33.75001 V 793.6523 C 361.4532,779.51955 294.4805,712.54684 280.34775,627.74995 h -36.59769 c -18.66794,0 -33.75001,-15.08207 -33.75001,-33.75 0,-18.66794 15.08207,-33.75001 33.75001,-33.75001 h 36.59769 C 294.4805,475.45305 361.4532,408.48034 446.2501,394.34759 V 357.7499 c 0,-18.66794 15.08206,-33.75001 33.75,-33.75001 z M 345.00008,593.99995 a 135.00003,135.00003 0 1 0 270.00005,0 135.00003,135.00003 0 1 0 -270.00005,0 z M 480.0001,509.62493 a 84.375017,84.375017 0 1 1 0,168.75003 84.375017,84.375017 0 1 1 0,-168.75003 z"
     id="path45806"
     style="fill:#afb1b3;fill-opacity:1;stroke-width:1.05469" />
</svg>
