<?xml version="1.0" encoding="UTF-8" standalone="no"?>
<svg
   height="32"
   width="32"
   viewBox="0 0 1280 1024"
   version="1.1"
   id="svg32725"
   sodipodi:docname="holeprobe32.svg"
   inkscape:version="1.2.2 (b0a8486541, 2022-12-01)"
   xmlns:inkscape="http://www.inkscape.org/namespaces/inkscape"
   xmlns:sodipodi="http://sodipodi.sourceforge.net/DTD/sodipodi-0.dtd"
   xmlns="http://www.w3.org/2000/svg"
   xmlns:svg="http://www.w3.org/2000/svg">
  <defs
     id="defs32729" />
  <sodipodi:namedview
     id="namedview32727"
     pagecolor="#ffffff"
     bordercolor="#666666"
     borderopacity="1.0"
     inkscape:showpageshadow="2"
     inkscape:pageopacity="0.0"
     inkscape:pagecheckerboard="0"
     inkscape:deskcolor="#d1d1d1"
     showgrid="false"
     inkscape:zoom="32.09375"
     inkscape:cx="12.915287"
     inkscape:cy="5.5929893"
     inkscape:window-width="2030"
     inkscape:window-height="1322"
     inkscape:window-x="2015"
     inkscape:window-y="78"
     inkscape:window-maximized="0"
     inkscape:current-layer="svg32725" />
  <!--! Font Awesome Free 6.4.2 by @fontawesome - https://fontawesome.com License - https://fontawesome.com/license (Commercial License) Copyright 2023 Fonticons, Inc. -->
  <text
     xml:space="preserve"
     style="font-style:normal;font-variant:normal;font-weight:bold;font-stretch:normal;font-size:544.536px;line-height:1.25;font-family:sans-serif;-inkscape-font-specification:'sans-serif Bold';fill:#353a40;fill-opacity:1;stroke:none;stroke-width:13.6135"
     x="-49.986702"
     y="298.2894"
     id="text35489"
     transform="scale(0.82701988,1.2091608)"><tspan
       sodipodi:role="line"
       id="tspan35487"
       style="font-style:normal;font-variant:normal;font-weight:bold;font-stretch:normal;font-family:sans-serif;-inkscape-font-specification:'sans-serif Bold';fill:#353a40;fill-opacity:1;stroke-width:13.6135"
       x="-49.986702"
       y="298.2894">HOLE</tspan></text>
  <g
     id="g5096"
     transform="matrix(0.89596862,0,0,0.89596917,729.25505,-16812.771)"
     style="display:inline" />
  <g
     id="g5098"
     transform="matrix(0.89596862,0,0,0.89596917,729.25505,-16812.771)"
     style="display:inline" />
  <g
     id="g5100"
     transform="matrix(0.89596862,0,0,0.89596917,729.25505,-16812.771)"
     style="display:inline" />
  <g
     id="g5102"
     transform="matrix(0.89596862,0,0,0.89596917,729.25505,-16812.771)"
     style="display:inline" />
  <g
     id="g5104"
     transform="matrix(0.89596862,0,0,0.89596917,729.25505,-16812.771)"
     style="display:inline" />
  <g
     id="g5106"
     transform="matrix(0.89596862,0,0,0.89596917,729.25505,-16812.771)"
     style="display:inline" />
  <g
     id="g5108"
     transform="matrix(0.89596862,0,0,0.89596917,729.25505,-16812.771)"
     style="display:inline" />
  <g
     id="g5110"
     transform="matrix(0.89596862,0,0,0.89596917,729.25505,-16812.771)"
     style="display:inline" />
  <g
     id="g5112"
     transform="matrix(0.89596862,0,0,0.89596917,729.25505,-16812.771)"
     style="display:inline" />
  <g
     id="g5114"
     transform="matrix(0.89596862,0,0,0.89596917,729.25505,-16812.771)"
     style="display:inline" />
  <g
     id="g5116"
     transform="matrix(0.89596862,0,0,0.89596917,729.25505,-16812.771)"
     style="display:inline" />
  <g
     id="g5118"
     transform="matrix(0.89596862,0,0,0.89596917,729.25505,-16812.771)"
     style="display:inline" />
  <g
     id="g5120"
     transform="matrix(0.89596862,0,0,0.89596917,729.25505,-16812.771)"
     style="display:inline" />
  <g
     id="g5122"
     transform="matrix(0.89596862,0,0,0.89596917,729.25505,-16812.771)"
     style="display:inline" />
  <g
     id="g5124"
     transform="matrix(0.89596862,0,0,0.89596917,729.25505,-16812.771)"
     style="display:inline" />
  <path
     d="m 639.99962,432.00003 c 24.89057,0 44.99998,20.10942 44.99998,45 v 48.79691 c 113.06243,18.84366 202.3593,108.1406 221.20294,221.20309 h 48.79689 c 24.89057,0 44.99998,20.10942 44.99998,45.00001 0,24.89056 -20.10941,44.99999 -44.99998,44.99999 H 906.20254 C 887.3589,950.06253 798.06203,1039.3594 684.9996,1058.2031 v 48.797 c 0,24.8905 -20.10941,44.9999 -44.99998,44.9999 -24.89057,0 -44.99996,-20.1094 -44.99996,-44.9999 v -48.797 C 481.93722,1039.3594 392.64035,950.06253 373.7967,837.00003 h -48.79688 c -24.89056,0 -44.99997,-20.10943 -44.99997,-44.99999 0,-24.89059 20.10941,-45.00001 44.99997,-45.00001 H 373.7967 C 392.64035,633.93754 481.93722,544.6406 594.99966,525.79694 v -48.79691 c 0,-24.89058 20.10939,-45 44.99996,-45 z M 459.99974,792.00004 a 179.99989,180 0 1 0 359.99977,0 179.99989,180 0 1 0 -359.99977,0 z m 179.99988,-112.5 a 112.49993,112.5 0 1 1 0,224.99999 112.49993,112.5 0 1 1 0,-224.99999 z"
     id="path45806"
     style="fill:#353a40;fill-opacity:1;stroke-width:1.40625" />
</svg>
