<?xml version="1.0" encoding="UTF-8" standalone="no"?>
<svg
   height="32"
   width="32"
   viewBox="0 0 1280 1024"
   version="1.1"
   id="svg32725"
   sodipodi:docname="xyprobe32.svg"
   inkscape:version="1.2.2 (b0a8486541, 2022-12-01)"
   xmlns:inkscape="http://www.inkscape.org/namespaces/inkscape"
   xmlns:sodipodi="http://sodipodi.sourceforge.net/DTD/sodipodi-0.dtd"
   xmlns="http://www.w3.org/2000/svg"
   xmlns:svg="http://www.w3.org/2000/svg">
  <defs
     id="defs32729" />
  <sodipodi:namedview
     id="namedview32727"
     pagecolor="#ffffff"
     bordercolor="#666666"
     borderopacity="1.0"
     inkscape:showpageshadow="2"
     inkscape:pageopacity="0.0"
     inkscape:pagecheckerboard="0"
     inkscape:deskcolor="#d1d1d1"
     showgrid="false"
     inkscape:zoom="32.09375"
     inkscape:cx="12.915287"
     inkscape:cy="8.0856865"
     inkscape:window-width="2030"
     inkscape:window-height="1322"
     inkscape:window-x="2015"
     inkscape:window-y="78"
     inkscape:window-maximized="0"
     inkscape:current-layer="svg32725" />
  <!--! Font Awesome Free 6.4.2 by @fontawesome - https://fontawesome.com License - https://fontawesome.com/license (Commercial License) Copyright 2023 Fonticons, Inc. -->
  <text
     xml:space="preserve"
     style="font-style:normal;font-variant:normal;font-weight:bold;font-stretch:normal;font-size:625.188px;line-height:1.25;font-family:sans-serif;-inkscape-font-specification:'sans-serif Bold';fill:#afb1b3;fill-opacity:1;stroke:none;stroke-width:15.6297"
     x="187.86078"
     y="334.2272"
     id="text35489"
     transform="scale(0.9495099,1.0531749)"><tspan
       sodipodi:role="line"
       id="tspan35487"
       style="font-style:normal;font-variant:normal;font-weight:bold;font-stretch:normal;font-family:sans-serif;-inkscape-font-specification:'sans-serif Bold';fill:#afb1b3;fill-opacity:1;stroke-width:15.6297"
       x="187.86078"
       y="334.2272">XY</tspan></text>
  <g
     id="g5096"
     transform="matrix(0.89596751,0,0,0.89596912,723.56953,-16812.769)"
     style="display:inline" />
  <g
     id="g5098"
     transform="matrix(0.89596751,0,0,0.89596912,723.56953,-16812.769)"
     style="display:inline" />
  <g
     id="g5100"
     transform="matrix(0.89596751,0,0,0.89596912,723.56953,-16812.769)"
     style="display:inline" />
  <g
     id="g5102"
     transform="matrix(0.89596751,0,0,0.89596912,723.56953,-16812.769)"
     style="display:inline" />
  <g
     id="g5104"
     transform="matrix(0.89596751,0,0,0.89596912,723.56953,-16812.769)"
     style="display:inline" />
  <g
     id="g5106"
     transform="matrix(0.89596751,0,0,0.89596912,723.56953,-16812.769)"
     style="display:inline" />
  <g
     id="g5108"
     transform="matrix(0.89596751,0,0,0.89596912,723.56953,-16812.769)"
     style="display:inline" />
  <g
     id="g5110"
     transform="matrix(0.89596751,0,0,0.89596912,723.56953,-16812.769)"
     style="display:inline" />
  <g
     id="g5112"
     transform="matrix(0.89596751,0,0,0.89596912,723.56953,-16812.769)"
     style="display:inline" />
  <g
     id="g5114"
     transform="matrix(0.89596751,0,0,0.89596912,723.56953,-16812.769)"
     style="display:inline" />
  <g
     id="g5116"
     transform="matrix(0.89596751,0,0,0.89596912,723.56953,-16812.769)"
     style="display:inline" />
  <g
     id="g5118"
     transform="matrix(0.89596751,0,0,0.89596912,723.56953,-16812.769)"
     style="display:inline" />
  <g
     id="g5120"
     transform="matrix(0.89596751,0,0,0.89596912,723.56953,-16812.769)"
     style="display:inline" />
  <g
     id="g5122"
     transform="matrix(0.89596751,0,0,0.89596912,723.56953,-16812.769)"
     style="display:inline" />
  <g
     id="g5124"
     transform="matrix(0.89596751,0,0,0.89596912,723.56953,-16812.769)"
     style="display:inline" />
  <path
     d="m 634.31421,432.00002 c 24.8905,0 44.99989,20.10941 44.99989,45 v 48.79692 c 113.06232,18.84367 202.35909,108.14058 221.20272,221.20307 h 48.79685 c 24.89051,0 44.99991,20.10941 44.99991,45 0,24.89057 -20.1094,45 -44.99991,45 H 900.51682 C 881.67319,950.0625 792.37642,1039.3594 679.3141,1058.2031 V 1107 c 0,24.8906 -20.10939,45 -44.99989,45 -24.89052,0 -44.99991,-20.1094 -44.99991,-45 v -48.7969 C 476.25198,1039.3594 386.9552,950.0625 368.11158,837.00001 h -48.79687 c -24.89049,0 -44.99989,-20.10943 -44.99989,-45 0,-24.89059 20.1094,-45 44.99989,-45 h 48.79687 C 386.9552,633.93752 476.25198,544.64061 589.3143,525.79694 v -48.79692 c 0,-24.89059 20.10939,-45 44.99991,-45 z M 454.31459,792.00001 a 179.99967,179.99999 0 1 0 359.99923,0 179.99967,179.99999 0 1 0 -359.99923,0 z m 179.99962,-112.5 a 112.49979,112.5 0 1 1 0,224.99999 112.49979,112.5 0 1 1 0,-224.99999 z"
     id="path45806"
     style="fill:#afb1b3;fill-opacity:1;stroke-width:1.40625" />
</svg>
