<svg width="32px" height="32px" version="1.1" viewBox="0 0 640 512" xmlns="http://www.w3.org/2000/svg">
  <text transform="scale(.94951 1.0532)" x="126.423" y="167.11374" fill="#afb1b3" font-family="sans-serif" font-size="312.59px" font-weight="bold" stroke-width="7.8149" style="line-height:1.25" xml:space="preserve"><tspan x="126.423" y="167.11374" fill="#afb1b3" font-family="sans-serif" font-weight="bold" stroke-width="7.8149">XY</tspan></text>
  <path d="m320 216c12.445 0 22.5 10.055 22.5 22.5v24.398c56.531 9.4218 101.18 54.07 110.6 110.6h24.398c12.445 0 22.5 10.055 22.5 22.5s-10.055 22.5-22.5 22.5h-24.398c-9.4218 56.531-54.07 101.18-110.6 110.6v24.398c0 12.445-10.055 22.5-22.5 22.5s-22.5-10.055-22.5-22.5v-24.398c-56.531-9.4218-101.18-54.07-110.6-110.6h-24.398c-12.445 0-22.5-10.055-22.5-22.5s10.055-22.5 22.5-22.5h24.398c9.4218-56.531 54.07-101.18 110.6-110.6v-24.398c0-12.445 10.055-22.5 22.5-22.5zm-90 180a90 90 0 1 0 180 0 90 90 0 1 0-180 0zm90-56.25a56.25 56.25 0 1 1 0 112.5 56.25 56.25 0 1 1 0-112.5z" fill="#afb1b3" stroke-width=".70312"/>
</svg>
