<?xml version="1.0" encoding="UTF-8" standalone="no"?>
<svg
   height="24"
   width="24"
   viewBox="0 0 960 768"
   version="1.1"
   id="svg32725"
   sodipodi:docname="xyprobe24.svg"
   inkscape:version="1.2.2 (b0a8486541, 2022-12-01)"
   xmlns:inkscape="http://www.inkscape.org/namespaces/inkscape"
   xmlns:sodipodi="http://sodipodi.sourceforge.net/DTD/sodipodi-0.dtd"
   xmlns="http://www.w3.org/2000/svg"
   xmlns:svg="http://www.w3.org/2000/svg">
  <defs
     id="defs32729" />
  <sodipodi:namedview
     id="namedview32727"
     pagecolor="#ffffff"
     bordercolor="#666666"
     borderopacity="1.0"
     inkscape:showpageshadow="2"
     inkscape:pageopacity="0.0"
     inkscape:pagecheckerboard="0"
     inkscape:deskcolor="#d1d1d1"
     showgrid="false"
     inkscape:zoom="32.09375"
     inkscape:cx="12.915287"
     inkscape:cy="8.0856865"
     inkscape:window-width="2030"
     inkscape:window-height="1322"
     inkscape:window-x="2015"
     inkscape:window-y="78"
     inkscape:window-maximized="0"
     inkscape:current-layer="svg32725" />
  <!--! Font Awesome Free 6.4.2 by @fontawesome - https://fontawesome.com License - https://fontawesome.com/license (Commercial License) Copyright 2023 Fonticons, Inc. -->
  <text
     xml:space="preserve"
     style="font-style:normal;font-variant:normal;font-weight:bold;font-stretch:normal;font-size:468.891px;line-height:1.25;font-family:sans-serif;-inkscape-font-specification:'sans-serif Bold';fill:#afb1b3;fill-opacity:1;stroke:none;stroke-width:11.7223"
     x="131.85934"
     y="250.6701"
     id="text35489"
     transform="scale(0.9495099,1.0531749)"><tspan
       sodipodi:role="line"
       id="tspan35487"
       style="font-style:normal;font-variant:normal;font-weight:bold;font-stretch:normal;font-family:sans-serif;-inkscape-font-specification:'sans-serif Bold';fill:#afb1b3;fill-opacity:1;stroke-width:11.7223"
       x="131.85934"
       y="250.6701">XY</tspan></text>
  <g
     id="g5096"
     transform="matrix(0.67197563,0,0,0.67197684,534.09712,-12609.577)"
     style="display:inline" />
  <g
     id="g5098"
     transform="matrix(0.67197563,0,0,0.67197684,534.09712,-12609.577)"
     style="display:inline" />
  <g
     id="g5100"
     transform="matrix(0.67197563,0,0,0.67197684,534.09712,-12609.577)"
     style="display:inline" />
  <g
     id="g5102"
     transform="matrix(0.67197563,0,0,0.67197684,534.09712,-12609.577)"
     style="display:inline" />
  <g
     id="g5104"
     transform="matrix(0.67197563,0,0,0.67197684,534.09712,-12609.577)"
     style="display:inline" />
  <g
     id="g5106"
     transform="matrix(0.67197563,0,0,0.67197684,534.09712,-12609.577)"
     style="display:inline" />
  <g
     id="g5108"
     transform="matrix(0.67197563,0,0,0.67197684,534.09712,-12609.577)"
     style="display:inline" />
  <g
     id="g5110"
     transform="matrix(0.67197563,0,0,0.67197684,534.09712,-12609.577)"
     style="display:inline" />
  <g
     id="g5112"
     transform="matrix(0.67197563,0,0,0.67197684,534.09712,-12609.577)"
     style="display:inline" />
  <g
     id="g5114"
     transform="matrix(0.67197563,0,0,0.67197684,534.09712,-12609.577)"
     style="display:inline" />
  <g
     id="g5116"
     transform="matrix(0.67197563,0,0,0.67197684,534.09712,-12609.577)"
     style="display:inline" />
  <g
     id="g5118"
     transform="matrix(0.67197563,0,0,0.67197684,534.09712,-12609.577)"
     style="display:inline" />
  <g
     id="g5120"
     transform="matrix(0.67197563,0,0,0.67197684,534.09712,-12609.577)"
     style="display:inline" />
  <g
     id="g5122"
     transform="matrix(0.67197563,0,0,0.67197684,534.09712,-12609.577)"
     style="display:inline" />
  <g
     id="g5124"
     transform="matrix(0.67197563,0,0,0.67197684,534.09712,-12609.577)"
     style="display:inline" />
  <path
     d="m 467.15563,323.9997 c 18.66788,0 33.74992,15.08206 33.74992,33.75 v 36.59769 c 84.79674,14.13275 151.76932,81.10543 165.90204,165.9023 h 36.59764 c 18.66788,0 33.74993,15.08206 33.74993,33.75 0,18.66793 -15.08205,33.75 -33.74993,33.75 h -36.59764 c -14.13272,84.79687 -81.1053,151.76955 -165.90204,165.9023 v 36.59768 c 0,18.66794 -15.08204,33.75 -33.74992,33.75 -18.66789,0 -33.74993,-15.08206 -33.74993,-33.75 V 793.65199 C 348.60896,779.51924 281.63638,712.54656 267.50366,627.74969 h -36.59765 c -18.66787,0 -33.74992,-15.08207 -33.74992,-33.75 0,-18.66794 15.08205,-33.75 33.74992,-33.75 h 36.59765 c 14.13272,-84.79687 81.1053,-151.76955 165.90204,-165.9023 V 357.7497 c 0,-18.66794 15.08204,-33.75 33.74993,-33.75 z M 332.15592,593.99969 a 134.99975,134.99999 0 1 0 269.99942,0 134.99975,134.99999 0 1 0 -269.99942,0 z m 134.99971,-84.375 a 84.374843,84.374995 0 1 1 0,168.74999 84.374843,84.374995 0 1 1 0,-168.74999 z"
     id="path45806"
     style="fill:#afb1b3;fill-opacity:1;stroke-width:1.05469" />
</svg>
