<?xml version="1.0" encoding="UTF-8" standalone="no"?>
<svg
   height="32"
   width="32"
   viewBox="0 0 1280 1024"
   version="1.1"
   id="svg32725"
   sodipodi:docname="xyzprobe32.svg"
   inkscape:version="1.2.2 (b0a8486541, 2022-12-01)"
   xmlns:inkscape="http://www.inkscape.org/namespaces/inkscape"
   xmlns:sodipodi="http://sodipodi.sourceforge.net/DTD/sodipodi-0.dtd"
   xmlns="http://www.w3.org/2000/svg"
   xmlns:svg="http://www.w3.org/2000/svg">
  <defs
     id="defs32729" />
  <sodipodi:namedview
     id="namedview32727"
     pagecolor="#ffffff"
     bordercolor="#666666"
     borderopacity="1.0"
     inkscape:showpageshadow="2"
     inkscape:pageopacity="0.0"
     inkscape:pagecheckerboard="0"
     inkscape:deskcolor="#d1d1d1"
     showgrid="false"
     inkscape:zoom="32.09375"
     inkscape:cx="12.915287"
     inkscape:cy="8.0856865"
     inkscape:window-width="2030"
     inkscape:window-height="1322"
     inkscape:window-x="2015"
     inkscape:window-y="78"
     inkscape:window-maximized="0"
     inkscape:current-layer="svg32725" />
  <!--! Font Awesome Free 6.4.2 by @fontawesome - https://fontawesome.com License - https://fontawesome.com/license (Commercial License) Copyright 2023 Fonticons, Inc. -->
  <text
     xml:space="preserve"
     style="font-style:normal;font-variant:normal;font-weight:bold;font-stretch:normal;font-size:625.188px;line-height:1.25;font-family:sans-serif;-inkscape-font-specification:'sans-serif Bold';fill:#565656;fill-opacity:1;stroke:none;stroke-width:15.6297"
     x="-11.90545"
     y="334.22739"
     id="text35489"
     transform="scale(0.94951081,1.0531739)"><tspan
       sodipodi:role="line"
       id="tspan35487"
       style="font-style:normal;font-variant:normal;font-weight:bold;font-stretch:normal;font-family:sans-serif;-inkscape-font-specification:'sans-serif Bold';fill:#565656;fill-opacity:1;stroke-width:15.6297"
       x="-11.90545"
       y="334.22739">XYZ</tspan></text>
  <g
     id="g5096"
     transform="matrix(0.89597054,0,0,0.89597035,729.2566,-16812.794)"
     style="display:inline" />
  <g
     id="g5098"
     transform="matrix(0.89597054,0,0,0.89597035,729.2566,-16812.794)"
     style="display:inline" />
  <g
     id="g5100"
     transform="matrix(0.89597054,0,0,0.89597035,729.2566,-16812.794)"
     style="display:inline" />
  <g
     id="g5102"
     transform="matrix(0.89597054,0,0,0.89597035,729.2566,-16812.794)"
     style="display:inline" />
  <g
     id="g5104"
     transform="matrix(0.89597054,0,0,0.89597035,729.2566,-16812.794)"
     style="display:inline" />
  <g
     id="g5106"
     transform="matrix(0.89597054,0,0,0.89597035,729.2566,-16812.794)"
     style="display:inline" />
  <g
     id="g5108"
     transform="matrix(0.89597054,0,0,0.89597035,729.2566,-16812.794)"
     style="display:inline" />
  <g
     id="g5110"
     transform="matrix(0.89597054,0,0,0.89597035,729.2566,-16812.794)"
     style="display:inline" />
  <g
     id="g5112"
     transform="matrix(0.89597054,0,0,0.89597035,729.2566,-16812.794)"
     style="display:inline" />
  <g
     id="g5114"
     transform="matrix(0.89597054,0,0,0.89597035,729.2566,-16812.794)"
     style="display:inline" />
  <g
     id="g5116"
     transform="matrix(0.89597054,0,0,0.89597035,729.2566,-16812.794)"
     style="display:inline" />
  <g
     id="g5118"
     transform="matrix(0.89597054,0,0,0.89597035,729.2566,-16812.794)"
     style="display:inline" />
  <g
     id="g5120"
     transform="matrix(0.89597054,0,0,0.89597035,729.2566,-16812.794)"
     style="display:inline" />
  <g
     id="g5122"
     transform="matrix(0.89597054,0,0,0.89597035,729.2566,-16812.794)"
     style="display:inline" />
  <g
     id="g5124"
     transform="matrix(0.89597054,0,0,0.89597035,729.2566,-16812.794)"
     style="display:inline" />
  <path
     d="m 640.00099,431.99997 c 24.89061,0 45.00007,20.10944 45.00007,45.00005 v 48.79699 c 113.06267,18.84369 202.35973,108.14071 221.20341,221.20338 h 48.79699 c 24.89062,0 45.00004,20.10943 45.00004,45.00004 0,24.89061 -20.10942,45.00006 -45.00004,45.00006 H 906.20447 C 887.36079,950.06315 798.06373,1039.3602 685.00106,1058.2039 v 48.797 c 0,24.8906 -20.10946,45 -45.00007,45 -24.89062,0 -45.00007,-20.1094 -45.00007,-45 v -48.797 C 481.93824,1039.3602 392.64119,950.06315 373.79749,837.00049 H 325.0005 c -24.89062,0 -45.00007,-20.10945 -45.00007,-45.00006 0,-24.89061 20.10945,-45.00004 45.00007,-45.00004 h 48.79699 C 392.64119,633.93772 481.93824,544.6407 595.00092,525.79701 v -48.79699 c 0,-24.89061 20.10945,-45.00005 45.00007,-45.00005 z M 460.00071,792.00043 a 180.00027,180.00023 0 1 0 360.00055,0 180.00027,180.00023 0 1 0 -360.00055,0 z M 640.00099,679.50029 a 112.50017,112.50015 0 1 1 0,225.00029 112.50017,112.50015 0 1 1 0,-225.00029 z"
     id="path45806"
     style="fill:#565656;fill-opacity:1;stroke-width:1.40625" />
</svg>
