<?xml version="1.0" encoding="UTF-8" standalone="no"?>
<svg
   height="24"
   width="24"
   viewBox="0 0 960 768"
   version="1.1"
   id="svg32725"
   sodipodi:docname="xyzprobe24.svg"
   inkscape:version="1.2.2 (b0a8486541, 2022-12-01)"
   xmlns:inkscape="http://www.inkscape.org/namespaces/inkscape"
   xmlns:sodipodi="http://sodipodi.sourceforge.net/DTD/sodipodi-0.dtd"
   xmlns="http://www.w3.org/2000/svg"
   xmlns:svg="http://www.w3.org/2000/svg">
  <defs
     id="defs32729" />
  <sodipodi:namedview
     id="namedview32727"
     pagecolor="#ffffff"
     bordercolor="#666666"
     borderopacity="1.0"
     inkscape:showpageshadow="2"
     inkscape:pageopacity="0.0"
     inkscape:pagecheckerboard="0"
     inkscape:deskcolor="#d1d1d1"
     showgrid="false"
     inkscape:zoom="32.09375"
     inkscape:cx="12.915287"
     inkscape:cy="8.0856865"
     inkscape:window-width="2030"
     inkscape:window-height="1322"
     inkscape:window-x="2015"
     inkscape:window-y="78"
     inkscape:window-maximized="0"
     inkscape:current-layer="svg32725" />
  <!--! Font Awesome Free 6.4.2 by @fontawesome - https://fontawesome.com License - https://fontawesome.com/license (Commercial License) Copyright 2023 Fonticons, Inc. -->
  <text
     xml:space="preserve"
     style="font-style:normal;font-variant:normal;font-weight:bold;font-stretch:normal;font-size:468.891px;line-height:1.25;font-family:sans-serif;-inkscape-font-specification:'sans-serif Bold';fill:#afb1b3;fill-opacity:1;stroke:none;stroke-width:11.7223"
     x="-8.9290838"
     y="250.67062"
     id="text35489"
     transform="scale(0.94951072,1.053174)"><tspan
       sodipodi:role="line"
       id="tspan35487"
       style="font-style:normal;font-variant:normal;font-weight:bold;font-stretch:normal;font-family:sans-serif;-inkscape-font-specification:'sans-serif Bold';fill:#afb1b3;fill-opacity:1;stroke-width:11.7223"
       x="-8.9290838"
       y="250.67062">XYZ</tspan></text>
  <g
     id="g5096"
     transform="matrix(0.67197743,0,0,0.67197743,546.94206,-12609.589)"
     style="display:inline" />
  <g
     id="g5098"
     transform="matrix(0.67197743,0,0,0.67197743,546.94206,-12609.589)"
     style="display:inline" />
  <g
     id="g5100"
     transform="matrix(0.67197743,0,0,0.67197743,546.94206,-12609.589)"
     style="display:inline" />
  <g
     id="g5102"
     transform="matrix(0.67197743,0,0,0.67197743,546.94206,-12609.589)"
     style="display:inline" />
  <g
     id="g5104"
     transform="matrix(0.67197743,0,0,0.67197743,546.94206,-12609.589)"
     style="display:inline" />
  <g
     id="g5106"
     transform="matrix(0.67197743,0,0,0.67197743,546.94206,-12609.589)"
     style="display:inline" />
  <g
     id="g5108"
     transform="matrix(0.67197743,0,0,0.67197743,546.94206,-12609.589)"
     style="display:inline" />
  <g
     id="g5110"
     transform="matrix(0.67197743,0,0,0.67197743,546.94206,-12609.589)"
     style="display:inline" />
  <g
     id="g5112"
     transform="matrix(0.67197743,0,0,0.67197743,546.94206,-12609.589)"
     style="display:inline" />
  <g
     id="g5114"
     transform="matrix(0.67197743,0,0,0.67197743,546.94206,-12609.589)"
     style="display:inline" />
  <g
     id="g5116"
     transform="matrix(0.67197743,0,0,0.67197743,546.94206,-12609.589)"
     style="display:inline" />
  <g
     id="g5118"
     transform="matrix(0.67197743,0,0,0.67197743,546.94206,-12609.589)"
     style="display:inline" />
  <g
     id="g5120"
     transform="matrix(0.67197743,0,0,0.67197743,546.94206,-12609.589)"
     style="display:inline" />
  <g
     id="g5122"
     transform="matrix(0.67197743,0,0,0.67197743,546.94206,-12609.589)"
     style="display:inline" />
  <g
     id="g5124"
     transform="matrix(0.67197743,0,0,0.67197743,546.94206,-12609.589)"
     style="display:inline" />
  <path
     d="m 480.0004,324.00006 c 18.66795,0 33.75003,15.08208 33.75003,33.75003 v 36.59772 c 84.79694,14.13276 151.76969,81.1055 165.90244,165.90245 h 36.59772 c 18.66795,0 33.75003,15.08207 33.75003,33.75002 0,18.66795 -15.08208,33.75003 -33.75003,33.75003 H 679.65287 C 665.52012,712.54726 598.54737,779.52 513.75043,793.65276 v 36.59772 c 0,18.66795 -15.08208,33.75003 -33.75003,33.75003 -18.66795,0 -33.75003,-15.08208 -33.75003,-33.75003 V 793.65276 C 361.45342,779.52 294.48068,712.54726 280.34792,627.75031 H 243.7502 c -18.66795,0 -33.75003,-15.08208 -33.75003,-33.75003 0,-18.66795 15.08208,-33.75002 33.75003,-33.75002 h 36.59772 c 14.13276,-84.79695 81.1055,-151.76969 165.90245,-165.90245 v -36.59772 c 0,-18.66795 15.08208,-33.75003 33.75003,-33.75003 z M 345.00029,594.00028 a 135.00011,135.00011 0 1 0 270.00022,0 135.00011,135.00011 0 1 0 -270.00022,0 z M 480.0004,509.62521 a 84.37507,84.37507 0 1 1 0,168.75014 84.37507,84.37507 0 1 1 0,-168.75014 z"
     id="path45806"
     style="fill:#afb1b3;fill-opacity:1;stroke-width:1.05469" />
</svg>
