<?xml version="1.0" encoding="UTF-8" standalone="no"?>
<svg
   height="24"
   width="24"
   viewBox="0 0 960 768"
   version="1.1"
   id="svg32725"
   sodipodi:docname="zprobe24.svg"
   inkscape:version="1.2.2 (b0a8486541, 2022-12-01)"
   xmlns:inkscape="http://www.inkscape.org/namespaces/inkscape"
   xmlns:sodipodi="http://sodipodi.sourceforge.net/DTD/sodipodi-0.dtd"
   xmlns="http://www.w3.org/2000/svg"
   xmlns:svg="http://www.w3.org/2000/svg">
  <defs
     id="defs32729" />
  <sodipodi:namedview
     id="namedview32727"
     pagecolor="#ffffff"
     bordercolor="#666666"
     borderopacity="1.0"
     inkscape:showpageshadow="2"
     inkscape:pageopacity="0.0"
     inkscape:pagecheckerboard="0"
     inkscape:deskcolor="#d1d1d1"
     showgrid="false"
     inkscape:zoom="32.09375"
     inkscape:cx="12.915287"
     inkscape:cy="10.578384"
     inkscape:window-width="2030"
     inkscape:window-height="1322"
     inkscape:window-x="2015"
     inkscape:window-y="78"
     inkscape:window-maximized="0"
     inkscape:current-layer="svg32725" />
  <!--! Font Awesome Free 6.4.2 by @fontawesome - https://fontawesome.com License - https://fontawesome.com/license (Commercial License) Copyright 2023 Fonticons, Inc. -->
  <text
     xml:space="preserve"
     style="font-style:normal;font-variant:normal;font-weight:bold;font-stretch:normal;font-size:468.891px;line-height:1.25;font-family:sans-serif;-inkscape-font-specification:'sans-serif Bold';fill:#afb1b3;fill-opacity:1;stroke:none;stroke-width:11.7223"
     x="336.51007"
     y="250.67036"
     id="text35489"
     transform="scale(0.94951054,1.0531742)"><tspan
       sodipodi:role="line"
       id="tspan35487"
       style="font-style:normal;font-variant:normal;font-weight:bold;font-stretch:normal;font-family:sans-serif;-inkscape-font-specification:'sans-serif Bold';fill:#afb1b3;fill-opacity:1;stroke-width:11.7223"
       x="336.51007"
       y="250.67036">Z</tspan></text>
  <g
     id="g5096"
     transform="matrix(0.44798458,0,0,0.44798458,364.62774,-8406.3854)"
     style="display:inline" />
  <g
     id="g5098"
     transform="matrix(0.44798458,0,0,0.44798458,364.62774,-8406.3854)"
     style="display:inline" />
  <g
     id="g5100"
     transform="matrix(0.44798458,0,0,0.44798458,364.62774,-8406.3854)"
     style="display:inline" />
  <g
     id="g5102"
     transform="matrix(0.44798458,0,0,0.44798458,364.62774,-8406.3854)"
     style="display:inline" />
  <g
     id="g5104"
     transform="matrix(0.44798458,0,0,0.44798458,364.62774,-8406.3854)"
     style="display:inline" />
  <g
     id="g5106"
     transform="matrix(0.44798458,0,0,0.44798458,364.62774,-8406.3854)"
     style="display:inline" />
  <g
     id="g5108"
     transform="matrix(0.44798458,0,0,0.44798458,364.62774,-8406.3854)"
     style="display:inline" />
  <g
     id="g5110"
     transform="matrix(0.44798458,0,0,0.44798458,364.62774,-8406.3854)"
     style="display:inline" />
  <g
     id="g5112"
     transform="matrix(0.44798458,0,0,0.44798458,364.62774,-8406.3854)"
     style="display:inline" />
  <g
     id="g5114"
     transform="matrix(0.44798458,0,0,0.44798458,364.62774,-8406.3854)"
     style="display:inline" />
  <g
     id="g5116"
     transform="matrix(0.44798458,0,0,0.44798458,364.62774,-8406.3854)"
     style="display:inline" />
  <g
     id="g5118"
     transform="matrix(0.44798458,0,0,0.44798458,364.62774,-8406.3854)"
     style="display:inline" />
  <g
     id="g5120"
     transform="matrix(0.44798458,0,0,0.44798458,364.62774,-8406.3854)"
     style="display:inline" />
  <g
     id="g5122"
     transform="matrix(0.44798458,0,0,0.44798458,364.62774,-8406.3854)"
     style="display:inline" />
  <g
     id="g5124"
     transform="matrix(0.44798458,0,0,0.44798458,364.62774,-8406.3854)"
     style="display:inline" />
  <path
     d="m 482,323.99978 c 18.66793,0 33.75,15.08207 33.75,33.75001 v 36.5977 c 84.79687,14.13275 151.76957,81.10546 165.90231,165.90236 H 718.25 c 18.66793,0 33.75,15.08207 33.75,33.75001 0,18.66794 -15.08207,33.75001 -33.75,33.75001 H 681.65231 C 667.51957,712.54677 600.54687,779.51948 515.75,793.65223 v 36.5977 c 0,18.66794 -15.08207,33.75001 -33.75,33.75001 -18.66793,0 -33.75,-15.08207 -33.75,-33.75001 v -36.5977 C 363.45313,779.51948 296.48044,712.54677 282.34769,627.74987 H 245.75 c -18.66793,0 -33.75,-15.08207 -33.75,-33.75001 0,-18.66794 15.08207,-33.75001 33.75,-33.75001 h 36.59769 C 296.48044,475.45295 363.45313,408.48024 448.25,394.34749 v -36.5977 c 0,-18.66794 15.08207,-33.75001 33.75,-33.75001 z M 347,593.99986 a 135,135.00004 0 1 0 270,0 135,135.00004 0 1 0 -270,0 z m 135,-84.37502 a 84.375,84.375025 0 1 1 0,168.75005 84.375,84.375025 0 1 1 0,-168.75005 z"
     id="path45806"
     style="fill:#afb1b3;fill-opacity:1;stroke-width:1.05469" />
</svg>
