<?xml version="1.0" encoding="UTF-8" standalone="no"?>
<svg
   viewBox="0 0 16 16"
   version="1.1"
   id="svg252"
   width="16"
   height="16"
   xmlns="http://www.w3.org/2000/svg"
   xmlns:svg="http://www.w3.org/2000/svg">
  <defs
     id="defs256" />
  <!--!Font Awesome Free 6.6.0 by @fontawesome - https://fontawesome.com License - https://fontawesome.com/license/free Copyright 2024 Fonticons, Inc.-->
  <path
     d="m 15,2 c 0,0.553125 -0.446875,1 -1,1 H 7 C 6.446875,3 6,2.553125 6,2 6,1.446875 6.446875,1 7,1 h 7 c 0.553125,0 1,0.446875 1,1 z m 0,8 c 0,0.553125 -0.446875,1 -1,1 H 7 C 6.446875,11 6,10.553125 6,10 6,9.446875 6.446875,9 7,9 h 7 c 0.553125,0 1,0.446875 1,1 z M 1,6 C 1,5.446875 1.446875,5 2,5 h 12 c 0.553125,0 1,0.446875 1,1 0,0.553125 -0.446875,1 -1,1 H 2 C 1.446875,7 1,6.553125 1,6 Z m 14,8 c 0,0.553125 -0.446875,1 -1,1 H 2 C 1.446875,15 1,14.553125 1,14 1,13.446875 1.446875,13 2,13 h 12 c 0.553125,0 1,0.446875 1,1 z"
     id="path250"
     style="fill:#565656;fill-opacity:1;stroke-width:0.03125" />
  <rect
     style="fill:#565656;fill-opacity:0;stroke-width:0.348238;stroke-linecap:round;stroke-linejoin:round"
     id="rect1711"
     width="16"
     height="16"
     x="0"
     y="0" />
</svg>
