<?xml version="1.0" encoding="UTF-8" standalone="no"?>
<svg
   viewBox="0 0 16 16"
   version="1.1"
   id="svg252"
   width="16"
   height="16"
   xmlns="http://www.w3.org/2000/svg"
   xmlns:svg="http://www.w3.org/2000/svg">
  <defs
     id="defs256" />
  <!--!Font Awesome Free 6.6.0 by @fontawesome - https://fontawesome.com License - https://fontawesome.com/license/free Copyright 2024 Fonticons, Inc.-->
  <path
     d="M 1,2 C 1,2.553125 1.446875,3 2,3 H 9 C 9.553125,3 10,2.553125 10,2 10,1.446875 9.553125,1 9,1 H 2 C 1.446875,1 1,1.446875 1,2 Z m 0,8 c 0,0.553125 0.446875,1 1,1 h 7 c 0.553125,0 1,-0.446875 1,-1 C 10,9.446875 9.553125,9 9,9 H 2 C 1.446875,9 1,9.446875 1,10 Z M 15,6 C 15,5.446875 14.553125,5 14,5 H 2 C 1.446875,5 1,5.446875 1,6 1,6.553125 1.446875,7 2,7 h 12 c 0.553125,0 1,-0.446875 1,-1 z M 1,14 c 0,0.553125 0.446875,1 1,1 h 12 c 0.553125,0 1,-0.446875 1,-1 0,-0.553125 -0.446875,-1 -1,-1 H 2 c -0.553125,0 -1,0.446875 -1,1 z"
     id="path250"
     style="fill:#565656;fill-opacity:1;stroke-width:0.03125" />
  <rect
     style="fill:#565656;fill-opacity:0;stroke-width:0.348238;stroke-linecap:round;stroke-linejoin:round"
     id="rect1711"
     width="16"
     height="16"
     x="0"
     y="0" />
</svg>
