<?xml version="1.0" encoding="UTF-8" standalone="no"?>
<svg
   viewBox="0 0 24 24"
   version="1.1"
   id="svg252"
   width="24"
   height="24"
   xmlns="http://www.w3.org/2000/svg"
   xmlns:svg="http://www.w3.org/2000/svg">
  <defs
     id="defs256" />
  <!--!Font Awesome Free 6.6.0 by @fontawesome - https://fontawesome.com License - https://fontawesome.com/license/free Copyright 2024 Fonticons, Inc.-->
  <path
     d="m 22.5,3 c 0,0.8296875 -0.670313,1.5 -1.5,1.5 H 10.5 C 9.6703125,4.5 9,3.8296875 9,3 9,2.1703125 9.6703125,1.5 10.5,1.5 H 21 c 0.829687,0 1.5,0.6703125 1.5,1.5 z m 0,12 c 0,0.829687 -0.670313,1.5 -1.5,1.5 H 10.5 C 9.6703125,16.5 9,15.829687 9,15 9,14.170313 9.6703125,13.5 10.5,13.5 H 21 c 0.829687,0 1.5,0.670313 1.5,1.5 z M 1.5,9 C 1.5,8.1703125 2.1703125,7.5 3,7.5 h 18 c 0.829687,0 1.5,0.6703125 1.5,1.5 0,0.8296875 -0.670313,1.5 -1.5,1.5 H 3 C 2.1703125,10.5 1.5,9.8296875 1.5,9 Z m 21,12 c 0,0.829687 -0.670313,1.5 -1.5,1.5 H 3 C 2.1703125,22.5 1.5,21.829687 1.5,21 1.5,20.170313 2.1703125,19.5 3,19.5 h 18 c 0.829687,0 1.5,0.670313 1.5,1.5 z"
     id="path250"
     style="fill:#afb1b3;fill-opacity:1;stroke-width:0.046875" />
  <rect
     style="fill:#afb1b3;fill-opacity:0;stroke-width:0.522357;stroke-linecap:round;stroke-linejoin:round"
     id="rect1711"
     width="24"
     height="24"
     x="0"
     y="0" />
</svg>
