<?xml version="1.0" encoding="UTF-8" standalone="no"?>
<svg
   viewBox="0 0 16 16"
   version="1.1"
   id="svg6519"
   width="16"
   height="16"
   xmlns="http://www.w3.org/2000/svg"
   xmlns:svg="http://www.w3.org/2000/svg">
  <defs
     id="defs6523" />
  <!--!Font Awesome Free 6.6.0 by @fontawesome - https://fontawesome.com License - https://fontawesome.com/license/free Copyright 2024 Fonticons, Inc.-->
  <path
     d="M 12,2 C 12,1.446875 11.553125,1 11,1 H 5 C 4.446875,1 4,1.446875 4,2 4,2.553125 4.446875,3 5,3 h 6 c 0.553125,0 1,-0.446875 1,-1 z m 3,4 C 15,5.446875 14.553125,5 14,5 H 2 C 1.446875,5 1,5.446875 1,6 1,6.553125 1.446875,7 2,7 h 12 c 0.553125,0 1,-0.446875 1,-1 z M 1,14 c 0,0.553125 0.446875,1 1,1 h 12 c 0.553125,0 1,-0.446875 1,-1 0,-0.553125 -0.446875,-1 -1,-1 H 2 C 1.446875,13 1,13.446875 1,14 Z M 12,10 C 12,9.446875 11.553125,9 11,9 H 5 c -0.553125,0 -1,0.446875 -1,1 0,0.553125 0.446875,1 1,1 h 6 c 0.553125,0 1,-0.446875 1,-1 z"
     id="path6517"
     style="fill:#565656;fill-opacity:1;stroke-width:0.03125" />
  <rect
     style="opacity:0;fill:#565656;fill-opacity:1;stroke-width:0.285449;stroke-linecap:round;stroke-linejoin:round"
     id="rect7731"
     width="16"
     height="16"
     x="0"
     y="0" />
</svg>
