<?xml version="1.0" encoding="UTF-8" standalone="no"?>
<svg
   viewBox="0 0 24 24"
   version="1.1"
   id="svg6519"
   width="24"
   height="24"
   xmlns="http://www.w3.org/2000/svg"
   xmlns:svg="http://www.w3.org/2000/svg">
  <defs
     id="defs6523" />
  <!--!Font Awesome Free 6.6.0 by @fontawesome - https://fontawesome.com License - https://fontawesome.com/license/free Copyright 2024 Fonticons, Inc.-->
  <path
     d="M 18,3 C 18,2.1703125 17.329687,1.5 16.5,1.5 h -9 C 6.6703125,1.5 6,2.1703125 6,3 6,3.8296875 6.6703125,4.5 7.5,4.5 h 9 C 17.329687,4.5 18,3.8296875 18,3 Z m 4.5,6 C 22.5,8.1703125 21.829687,7.5 21,7.5 H 3 C 2.1703125,7.5 1.5,8.1703125 1.5,9 c 0,0.8296875 0.6703125,1.5 1.5,1.5 h 18 c 0.829687,0 1.5,-0.6703125 1.5,-1.5 z m -21,12 c 0,0.829687 0.6703125,1.5 1.5,1.5 h 18 c 0.829687,0 1.5,-0.670313 1.5,-1.5 0,-0.829687 -0.670313,-1.5 -1.5,-1.5 H 3 C 2.1703125,19.5 1.5,20.170313 1.5,21 Z M 18,15 c 0,-0.829687 -0.670313,-1.5 -1.5,-1.5 h -9 C 6.6703125,13.5 6,14.170313 6,15 c 0,0.829687 0.6703125,1.5 1.5,1.5 h 9 c 0.829687,0 1.5,-0.670313 1.5,-1.5 z"
     id="path6517"
     style="fill:#565656;fill-opacity:1;stroke-width:0.046875" />
  <rect
     style="opacity:0;fill:#565656;fill-opacity:1;stroke-width:0.428173;stroke-linecap:round;stroke-linejoin:round"
     id="rect7731"
     width="24"
     height="24"
     x="0"
     y="0" />
</svg>
