<?xml version="1.0" encoding="UTF-8" standalone="no"?>
<svg
   viewBox="0 0 16 16"
   version="1.1"
   id="svg1076"
   width="16"
   height="16"
   xmlns="http://www.w3.org/2000/svg"
   xmlns:svg="http://www.w3.org/2000/svg">
  <defs
     id="defs1080" />
  <!-- Font Awesome Free 5.15.2 by @fontawesome - https://fontawesome.com License - https://fontawesome.com/license/free (Icons: CC BY 4.0, Fonts: SIL OFL 1.1, Code: MIT License) -->
  <path
     d="m 15.6,12.917372 h -2 V 4.5536211 c 0,-0.6815 -0.53825,-1.23625 -1.2,-1.23625 H 9.6 v 1.6 H 12 v 9.6000009 h 3.6 c 0.221,0 0.4,-0.179 0.4,-0.4 v -0.8 c 0,-0.221 -0.179,-0.4 -0.4,-0.4 z M 7.806,1.7426212 3.006,2.9861211 C 2.64975,3.0783711 2.4,3.4098711 2.4,3.7903711 v 9.1270009 h -2 c -0.221,0 -0.4,0.179 -0.4,0.4 v 0.8 c 0,0.221 0.179,0.4 0.4,0.4 H 8.8 V 2.5468712 c 0,-0.5395 -0.489,-0.9352501 -0.994,-0.80425 z M 6.6,8.9173711 c -0.33125,0 -0.6,-0.35825 -0.6,-0.8 0,-0.44175 0.26875,-0.8 0.6,-0.8 0.33125,0 0.6,0.35825 0.6,0.8 0,0.44175 -0.26875,0.8 -0.6,0.8 z"
     id="path1074"
     style="fill:#353a40;fill-opacity:1;stroke-width:1" />
</svg>
