<?xml version="1.0" encoding="UTF-8" standalone="no"?>
<svg
   viewBox="0 0 24 24"
   version="1.1"
   id="svg839"
   width="24"
   height="24"
   xmlns="http://www.w3.org/2000/svg"
   xmlns:svg="http://www.w3.org/2000/svg">
  <defs
     id="defs843" />
  <g
     id="g837">
    <path
       id="rect847"
       style="fill:#fffffc;fill-opacity:1;fill-rule:evenodd;stroke-width:4.40315;stroke-linecap:round;paint-order:markers fill stroke"
       d="M 4.2770305,3.3964653 H 15.638515 l 3.361485,4 V 20 H 4.2770305 Z" />
    <path
       fill="none"
       d="M0 0h24v24H0z"
       id="path833" />
    <path
       d="M15 4H5v16h14V8h-4V4zM3 2.992C3 2.444 3.447 2 3.999 2H16l5 5v13.993A1 1 0 0 1 20.007 22H3.993A1 1 0 0 1 3 21.008V2.992zM11 11V8h2v3h3v2h-3v3h-2v-3H8v-2h3z"
       id="path835"
       style="fill:#afb1b3;fill-opacity:1" />
  </g>
</svg>
