<?xml version="1.0" encoding="UTF-8" standalone="no"?>
<svg
   width="24"
   height="24"
   fill="#000000"
   viewBox="0 0 256 256"
   version="1.1"
   id="svg4"
   xmlns="http://www.w3.org/2000/svg"
   xmlns:svg="http://www.w3.org/2000/svg">
  <defs
     id="defs8" />
  <path
     d="M167.39,196.94a8,8,0,0,1-1.73,8.72l-32,32a8,8,0,0,1-11.32,0l-32-32A8,8,0,0,1,96,192h24V64H96a8,8,0,0,1-5.66-13.66l32-32a8,8,0,0,1,11.32,0l32,32A8,8,0,0,1,160,64H136V192h24A8,8,0,0,1,167.39,196.94Z"
     id="path2" />
</svg>
