<?xml version="1.0" encoding="UTF-8" standalone="no"?>
<svg
   viewBox="0 0 32 32"
   version="1.1"
   id="svg839"
   width="32"
   height="32"
   xmlns="http://www.w3.org/2000/svg"
   xmlns:svg="http://www.w3.org/2000/svg">
  <defs
     id="defs843" />
  <g
     id="g837"
     transform="scale(1.3333333)"
     style="stroke-width:0.749993">
    <path
       fill="none"
       d="M 0,0 H 24 V 24 H 0 Z"
       id="path833"
       style="stroke-width:0.91856" />
    <path
       d="m 18.031,16.617 4.283,4.282 -1.415,1.415 -4.282,-4.283 A 8.96,8.96 0 0 1 11,20 C 6.032,20 2,15.968 2,11 2,6.032 6.032,2 11,2 c 4.968,0 9,4.032 9,9 a 8.96,8.96 0 0 1 -1.969,5.617 z M 10,10 H 7 v 2 h 3 v 3 h 2 v -3 h 3 V 10 H 12 V 7 h -2 z"
       id="path835"
       style="fill:#353a40;stroke-width:0.749993" />
  </g>
</svg>
