<?xml version="1.0" encoding="UTF-8" standalone="no"?>
<svg
   viewBox="0 0 16 16"
   version="1.1"
   id="svg839"
   width="16"
   height="16"
   xmlns="http://www.w3.org/2000/svg"
   xmlns:svg="http://www.w3.org/2000/svg">
  <defs
     id="defs843" />
  <g
     id="g837">
    <g
       id="g870"
       transform="scale(0.66666667)"
       style="stroke-width:1.5;">
      <path
         id="path865"
         style="fill:#fffffd;fill-opacity:1;stroke-width:6.60472;stroke-linecap:round;paint-order:markers fill stroke"
         d="M 19.770082,10.887374 A 8.7356176,8.3841848 0 0 1 11.034465,19.271559 8.7356176,8.3841848 0 0 1 2.2988472,10.887374 8.7356176,8.3841848 0 0 1 11.034465,2.5031891 8.7356176,8.3841848 0 0 1 19.770082,10.887374 Z" />
      <path
         fill="none"
         d="M 0,0 H 24 V 24 H 0 Z"
         id="path833"
         style="stroke-width:1.125;" />
      <path
         d="m 18.031,16.617 4.283,4.282 -1.415,1.415 -4.282,-4.283 C 15.023738,19.308221 13.042001,20.002905 11,20 6.032,20 2,15.968 2,11 2,6.032 6.032,2 11,2 c 4.968,0 9,4.032 9,9 0.0029,2.042001 -0.691779,4.023738 -1.969,5.617 z M 16.025,15.875 C 17.294113,14.569886 18.002867,12.820429 18,11 18,7.132 14.867,4 11,4 7.132,4 4,7.132 4,11 c 0,3.867 3.132,7 7,7 1.820429,0.0029 3.569886,-0.705887 4.875,-1.975 z"
         id="path835"
         style="stroke-width:1.5;fill-opacity:1;fill-rule:evenodd;fill:#afb1b3;stroke:none;stroke-opacity:1" />
    </g>
  </g>
</svg>
