<svg version="1.1" viewBox="0 0 16 16" width="32" height="32" xmlns="http://www.w3.org/2000/svg">
  <g fill="#ff970b" stroke="#353a40" stroke-width=".5">
    <path transform="matrix(.98667 0 0 .98668 -23.583 -305.62)" d="m25.039 319.7c-0.25511 0.25496-0.3985 0.60109-0.3985 0.96156 0 0.36054 0.14339 0.70674 0.3985 0.96152l0.4263 0.42645-1.1922 1.1915c-0.16306 0.16376-0.16376 0.42865 0 0.59178l1.7578 1.7584c0.07822 0.0783 0.18502 0.1221 0.29578 0.1221 0.11099 0 0.21778-0.0438 0.296-0.12283l1.1915-1.1915 0.42457 0.42442c0.25492 0.25496 0.60127 0.39831 0.96156 0.39831 0.36054 0 0.70674-0.14335 0.96174-0.39831l2.1235-2.1237-5.1235-5.1222-2.1231 2.1225z"/>
    <path transform="matrix(.98667 0 0 .98668 -23.583 -305.62)" d="m39.747 311.97-1.7579-1.7584c-0.16358-0.16376-0.42924-0.16376-0.59215 0l-1.1913 1.1911-0.42512-0.4246c-0.53122-0.53122-1.3914-0.53122-1.9232-5.2e-4l-2.123 2.1236 5.1229 5.1236 2.1237-2.1237c0.53063-0.53121 0.53063-1.3921-6.99e-4 -1.9232l-0.42438-0.42523 1.1911-1.191c0.16361-0.16361 0.16361-0.42854 0-0.59164z"/>
    <path transform="matrix(.98667 0 0 .98668 -23.583 -305.62)" d="m31.111 313.72c-0.35576-0.35576-0.9321-0.35576-1.2878 0-0.35576 0.35576-0.35576 0.93203 0 1.2878l5.123 5.123c0.17796 0.17784 0.41089 0.26676 0.64382 0.26676 0.23308 0 0.46601-0.0889 0.644-0.26676 0.35576-0.35577 0.35576-0.93203 0-1.2878l-5.1231-5.123z"/>
    <path transform="matrix(.98667 0 0 .98668 -23.583 -305.62)" d="m29.078 315.66c-0.35576-0.35576-0.9321-0.35576-1.2878 0-0.35576 0.35576-0.35576 0.93203 0 1.2878l5.123 5.123c0.17796 0.17784 0.41089 0.26676 0.64382 0.26676 0.23308 0 0.46601-0.0889 0.644-0.26676 0.35576-0.35577 0.35576-0.93203 0-1.2878l-5.1231-5.123z"/>
  </g>
</svg>
