<?xml version="1.0" encoding="UTF-8"?>
<svg version="1.1" width="24px" height="24px"  viewBox="0 0 16 16" xml:space="preserve" xmlns="http://www.w3.org/2000/svg">
    <path d="m5.1913 15.934-0.20983-0.065541-1.0366-0.57969-1.2654-6.05e-4 -0.25524-0.15563-0.25525-0.15564-0.084513-0.30434-0.084516-0.30434v-12.007l0.083575-0.30094 0.083572-0.30094 0.40183-0.26329 0.5956-0.038224 0.5956-0.038181v1.7181l0.54433 0.54433h2.1133l0.54433-0.54433v-1.697h1.4409v1.0566l0.54433 0.54433h3.7142l0.54433-0.54433v-1.0784l0.75006 0.1028 0.36267 0.23763 0.16714 0.60188v12.007l-0.08451 0.30434-0.08452 0.30434-0.51049 0.31127-2.1501 6.05e-4 -1.044 0.68041-2.6055 0.01519-2.6055 0.01513zm-0.36142-2.6974 0.21104-0.21104v-0.75682l-0.21104-0.21104-0.21104-0.21104h-0.75682l-0.42207 0.42208v0.75682l0.42207 0.42207h0.75682zm3.6822 0 0.21103-0.21104v-7.9612l-0.42207-0.42207h-1.8775l-0.42207 0.42207v7.9612l0.42207 0.42207h1.8775zm4.1625 0 0.21104-0.21104v-0.75682l-0.42207-0.42208h-0.75682l-0.42207 0.42208v0.75682l0.42207 0.42207h0.75682zm-7.8447-2.4014 0.21104-0.21104v-0.75682l-0.42207-0.42208h-0.75682l-0.42207 0.42208v0.75682l0.42207 0.42207h0.75682zm7.8447 0 0.21104-0.21104v-0.75682l-0.42207-0.42208h-0.75682l-0.42207 0.42208v0.75682l0.42207 0.42207h0.75682zm-7.8447-2.4014 0.21104-0.21104v-0.75682l-0.21104-0.21104-0.21104-0.21104h-0.75682l-0.42207 0.42208v0.75682l0.21104 0.21104 0.21104 0.21104h0.75682zm7.8447 0 0.21104-0.21104v-0.75682l-0.42207-0.42208h-0.75682l-0.42207 0.42208v0.75682l0.21104 0.21104 0.21104 0.21104h0.75682zm-7.8447-2.4015 0.21104-0.21103v-0.75682l-0.42207-0.42207h-0.75682l-0.42207 0.42207v0.75682l0.21104 0.21103 0.21104 0.21104h0.75682zm7.8447 0 0.21104-0.21103v-0.75682l-0.42207-0.42207h-0.75682l-0.42207 0.42207v0.75682l0.21104 0.21103 0.21104 0.21104h0.75682zm-8.114-3.151-0.1601-0.1601v-2.4014l0.3202-0.32019h1.2808l0.32019 0.32019v2.4014l-0.16009 0.1601-0.1601 0.1601h-1.2808zm4.6428-0.64039-0.1601-0.16009v-1.7611l0.32019-0.32019h2.8817l0.32019 0.32019v1.7611l-0.32019 0.32019h-2.8817z"
          fill="#afb1b3"/></svg>

