<svg version="1.1" viewBox="0 0 16 16" width="24" height="24" xmlns="http://www.w3.org/2000/svg">
  <g fill="#353a40">
    <path transform="matrix(.032456 0 0 .032456 -.00062872 -.0012)" d="m24.18 329.49c-6.937 6.933-10.836 16.345-10.836 26.147 0 9.804 3.899 19.218 10.836 26.146l11.592 11.596-32.42 32.4c-4.434 4.453-4.453 11.656 0 16.092l47.799 47.815c2.127 2.128 5.031 3.32 8.043 3.32 3.018 0 5.922-1.192 8.049-3.34l32.4-32.4 11.545 11.541c6.932 6.933 16.35 10.831 26.147 10.831 9.804 0 19.218-3.898 26.152-10.831l57.744-57.748-139.32-139.28-57.731 57.716z"/>
    <path transform="matrix(.032456 0 0 .032456 -.00062872 -.0012)" d="m489.66 51.155-47.801-47.815c-4.448-4.453-11.672-4.453-16.102 0l-32.393 32.388-11.56-11.546c-14.445-14.445-37.836-14.445-52.295-0.014l-57.729 57.745 139.3 139.32 57.748-57.748c14.429-14.445 14.429-37.855-0.019-52.296l-11.54-11.563 32.388-32.387c4.449-4.449 4.449-11.653 0-16.088z"/>
    <path transform="matrix(.032456 0 0 .032456 -.00062872 -.0012)" d="m254.83 98.859c-9.674-9.674-25.346-9.674-35.018 0-9.674 9.674-9.674 25.344 0 35.018l139.31 139.31c4.839 4.836 11.173 7.254 17.507 7.254 6.338 0 12.672-2.418 17.512-7.254 9.674-9.674 9.674-25.344 0-35.018l-139.31-139.31z"/>
    <path transform="matrix(.032456 0 0 .032456 -.00062872 -.0012)" d="m256.51 273.36-34.533 34.562-36.886-36.886 34.552-34.551c9.674-9.655 9.674-25.339 0-35.013-9.675-9.674-25.345-9.674-35.019 0l-34.547 34.546-16.205-16.2c-9.672-9.674-25.344-9.674-35.018 0-9.668 9.674-9.668 25.344 0 35.014l33.662 33.661c0.02 0.019 0.02 0.035 0.036 0.05 0.015 0.02 0.031 0.02 0.046 0.03l105.56 105.56c4.838 4.839 11.172 7.254 17.511 7.254 6.334 0 12.672-2.414 17.508-7.254 9.675-9.674 9.675-25.34 0-35.014l-16.188-16.188 34.533-34.562c9.674-9.674 9.674-25.362 0-35.018-9.671-9.668-25.372-9.668-35.015 6e-3z"/>
  </g>
</svg>
