<?xml version="1.0" encoding="UTF-8" standalone="no"?>
<!-- Generator: Adobe Illustrator 19.0.0, SVG Export Plug-In . SVG Version: 6.00 Build 0)  -->

<svg
   xmlns:dc="http://purl.org/dc/elements/1.1/"
   xmlns:cc="http://creativecommons.org/ns#"
   xmlns:rdf="http://www.w3.org/1999/02/22-rdf-syntax-ns#"
   xmlns:svg="http://www.w3.org/2000/svg"
   xmlns="http://www.w3.org/2000/svg"
   xmlns:sodipodi="http://sodipodi.sourceforge.net/DTD/sodipodi-0.dtd"
   xmlns:inkscape="http://www.inkscape.org/namespaces/inkscape"
   version="1.1"
   id="Layer_1"
   x="0px"
   y="0px"
   viewBox="0 0 24.000002 24.000002"
   xml:space="preserve"
   inkscape:version="0.91 r13725"
   sodipodi:docname="door24.svg"
   width="24"
   height="24"><metadata
     id="metadata49"><rdf:RDF><cc:Work
         rdf:about=""><dc:format>image/svg+xml</dc:format><dc:type
           rdf:resource="http://purl.org/dc/dcmitype/StillImage" /><dc:title /></cc:Work></rdf:RDF></metadata><defs
     id="defs47" /><sodipodi:namedview
     pagecolor="#ffffff"
     bordercolor="#666666"
     borderopacity="1"
     objecttolerance="10"
     gridtolerance="10"
     guidetolerance="10"
     inkscape:pageopacity="0"
     inkscape:pageshadow="2"
     inkscape:window-width="1111"
     inkscape:window-height="654"
     id="namedview45"
     showgrid="false"
     inkscape:zoom="7.2602824"
     inkscape:cx="-17.471788"
     inkscape:cy="17.838237"
     inkscape:window-x="0"
     inkscape:window-y="0"
     inkscape:window-maximized="0"
     inkscape:current-layer="Layer_1" /><g
     id="g3"
     style="fill:#41818f;fill-opacity:1"
     transform="matrix(0.04687465,0,0,0.04687489,0.05756604,-2.6162889e-5)"><g
       id="g5"
       style="fill:#41818f;fill-opacity:1"><path
         d="m 450.88,53.36 c -4.364,-4.363 -10.282,-6.814 -16.455,-6.814 -0.002,0 -0.005,0 -0.006,0 l -23.267,0.008 0,23.273 0,23.273 0,325.81 0,23.273 0,23.273 23.273,0 c 12.853,0 23.273,-10.42 23.273,-23.273 l 0,-372.364 C 457.697,63.645 455.246,57.725 450.88,53.36 Z"
         id="path7"
         style="fill:#41818f;fill-opacity:1"
         inkscape:connector-curvature="0" /></g></g><g
     id="g9"
     style="fill:#41818f;fill-opacity:1"
     transform="matrix(0.04687465,0,0,0.04687489,0.05756604,-2.6162889e-5)"><g
       id="g11"
       style="fill:#41818f;fill-opacity:1"><path
         d="M 356.292,5.443 C 351.021,1.021 344.065,-0.844 337.289,0.356 L 73.531,46.929 C 62.41,48.892 54.303,58.555 54.303,69.847 l 0,372.336 c 0,11.293 8.108,20.958 19.229,22.919 l 263.758,46.545 c 1.347,0.237 2.698,0.354 4.043,0.354 5.429,0 10.737,-1.901 14.96,-5.444 5.271,-4.422 8.313,-10.948 8.313,-17.828 l 0,-4.824 0,-18.449 0,-23.273 0,-23.273 0,-325.798 0,-23.273 0,-23.273 0,-23.293 c 0,-6.879 -3.042,-13.406 -8.314,-17.83 z m -91.589,282.534 c -4.327,4.33 -10.333,6.811 -16.46,6.811 -6.128,0 -12.117,-2.482 -16.462,-6.813 -4.329,-4.341 -6.811,-10.33 -6.811,-16.46 0,-6.128 2.482,-12.119 6.811,-16.46 4.344,-4.33 10.333,-6.813 16.462,-6.813 6.127,0 12.133,2.482 16.46,6.813 4.329,4.343 6.813,10.332 6.813,16.46 -0.001,6.131 -2.485,12.12 -6.813,16.462 z"
         id="path13"
         style="fill:#41818f;fill-opacity:1"
         inkscape:connector-curvature="0" /></g></g><g
     id="g15"
     transform="matrix(0.04687465,0,0,0.04687489,0.95755873,-2.6162889e-5)" /><g
     id="g17"
     transform="matrix(0.04687465,0,0,0.04687489,0.95755873,-2.6162889e-5)" /><g
     id="g19"
     transform="matrix(0.04687465,0,0,0.04687489,0.95755873,-2.6162889e-5)" /><g
     id="g21"
     transform="matrix(0.04687465,0,0,0.04687489,0.95755873,-2.6162889e-5)" /><g
     id="g23"
     transform="matrix(0.04687465,0,0,0.04687489,0.95755873,-2.6162889e-5)" /><g
     id="g25"
     transform="matrix(0.04687465,0,0,0.04687489,0.95755873,-2.6162889e-5)" /><g
     id="g27"
     transform="matrix(0.04687465,0,0,0.04687489,0.95755873,-2.6162889e-5)" /><g
     id="g29"
     transform="matrix(0.04687465,0,0,0.04687489,0.95755873,-2.6162889e-5)" /><g
     id="g31"
     transform="matrix(0.04687465,0,0,0.04687489,0.95755873,-2.6162889e-5)" /><g
     id="g33"
     transform="matrix(0.04687465,0,0,0.04687489,0.95755873,-2.6162889e-5)" /><g
     id="g35"
     transform="matrix(0.04687465,0,0,0.04687489,0.95755873,-2.6162889e-5)" /><g
     id="g37"
     transform="matrix(0.04687465,0,0,0.04687489,0.95755873,-2.6162889e-5)" /><g
     id="g39"
     transform="matrix(0.04687465,0,0,0.04687489,0.95755873,-2.6162889e-5)" /><g
     id="g41"
     transform="matrix(0.04687465,0,0,0.04687489,0.95755873,-2.6162889e-5)" /><g
     id="g43"
     transform="matrix(0.04687465,0,0,0.04687489,0.95755873,-2.6162889e-5)" /></svg>
