<?xml version="1.0" encoding="UTF-8" standalone="no"?>
<!-- Generator: Adobe Illustrator 19.0.0, SVG Export Plug-In . SVG Version: 6.00 Build 0)  -->

<svg
   xmlns:dc="http://purl.org/dc/elements/1.1/"
   xmlns:cc="http://creativecommons.org/ns#"
   xmlns:rdf="http://www.w3.org/1999/02/22-rdf-syntax-ns#"
   xmlns:svg="http://www.w3.org/2000/svg"
   xmlns="http://www.w3.org/2000/svg"
   xmlns:sodipodi="http://sodipodi.sourceforge.net/DTD/sodipodi-0.dtd"
   xmlns:inkscape="http://www.inkscape.org/namespaces/inkscape"
   version="1.1"
   id="Capa_1"
   x="0px"
   y="0px"
   viewBox="0 0 448 448"
   style="enable-background:new 0 0 448 448;"
   xml:space="preserve"
   sodipodi:docname="fast-forward.svg"
   inkscape:version="0.92.3 (2405546, 2018-03-11)"><metadata
   id="metadata49"><rdf:RDF><cc:Work
       rdf:about=""><dc:format>image/svg+xml</dc:format><dc:type
         rdf:resource="http://purl.org/dc/dcmitype/StillImage" /><dc:title /></cc:Work></rdf:RDF></metadata><defs
   id="defs47" /><sodipodi:namedview
   pagecolor="#ffffff"
   bordercolor="#666666"
   borderopacity="1"
   objecttolerance="10"
   gridtolerance="10"
   guidetolerance="10"
   inkscape:pageopacity="0"
   inkscape:pageshadow="2"
   inkscape:window-width="1042"
   inkscape:window-height="450"
   id="namedview45"
   showgrid="false"
   inkscape:zoom="0.52678571"
   inkscape:cx="-181.28814"
   inkscape:cy="224"
   inkscape:window-x="1934"
   inkscape:window-y="954"
   inkscape:window-maximized="0"
   inkscape:current-layer="Capa_1" />
<g
   id="g6"
   style="fill:#353a40">
	<g
   id="g4"
   style="fill:#353a40">
		<path
   d="M250.4,211.873l-224-192c-4.704-4.096-11.36-5.024-17.088-2.4C3.648,20.065,0,25.761,0,32.001v384    c0,6.24,3.648,11.936,9.312,14.528c2.144,0.992,4.416,1.472,6.688,1.472c3.744,0,7.456-1.312,10.4-3.84l224-192    c3.584-3.04,5.6-7.488,5.6-12.16S253.984,214.881,250.4,211.873z"
   id="path2"
   style="fill:#353a40" />
	</g>
</g>
<g
   id="g12"
   style="fill:#353a40">
	<g
   id="g10"
   style="fill:#353a40">
		<path
   d="M442.4,211.873l-224-192c-4.704-4.096-11.36-5.024-17.088-2.4C195.648,20.065,192,25.761,192,32.001v87.648l79.2,67.872    c10.688,9.12,16.8,22.4,16.8,36.48s-6.144,27.392-16.832,36.512L192,328.353v87.648c0,6.24,3.648,11.936,9.312,14.528    c2.144,0.992,4.416,1.472,6.688,1.472c3.744,0,7.456-1.312,10.4-3.84l224-192c3.584-3.04,5.6-7.488,5.6-12.16    S445.984,214.881,442.4,211.873z"
   id="path8"
   style="fill:#353a40" />
	</g>
</g>
<g
   id="g14">
</g>
<g
   id="g16">
</g>
<g
   id="g18">
</g>
<g
   id="g20">
</g>
<g
   id="g22">
</g>
<g
   id="g24">
</g>
<g
   id="g26">
</g>
<g
   id="g28">
</g>
<g
   id="g30">
</g>
<g
   id="g32">
</g>
<g
   id="g34">
</g>
<g
   id="g36">
</g>
<g
   id="g38">
</g>
<g
   id="g40">
</g>
<g
   id="g42">
</g>
</svg>