<?xml version="1.0" encoding="UTF-8" standalone="no"?>
<!-- Generator: Adobe Illustrator 18.1.1, SVG Export Plug-In . SVG Version: 6.00 Build 0)  -->

<svg
   xmlns:dc="http://purl.org/dc/elements/1.1/"
   xmlns:cc="http://creativecommons.org/ns#"
   xmlns:rdf="http://www.w3.org/1999/02/22-rdf-syntax-ns#"
   xmlns:svg="http://www.w3.org/2000/svg"
   xmlns="http://www.w3.org/2000/svg"
   xmlns:sodipodi="http://sodipodi.sourceforge.net/DTD/sodipodi-0.dtd"
   xmlns:inkscape="http://www.inkscape.org/namespaces/inkscape"
   version="1.1"
   id="Capa_1"
   x="0px"
   y="0px"
   viewBox="0 0 75.721 75.721"
   style="enable-background:new 0 0 75.721 75.721;"
   xml:space="preserve"
   inkscape:version="0.91 r13725"
   sodipodi:docname="firmware.svg"
   inkscape:export-filename="/Users/zefal/Development/Universal-G-Code-Sender/ugs-platform/ugs-platform-ugscore/src/main/resources/resources/icons/firmware32.png"
   inkscape:export-xdpi="38.034363"
   inkscape:export-ydpi="38.034363"><metadata
     id="metadata83"><rdf:RDF><cc:Work
         rdf:about=""><dc:format>image/svg+xml</dc:format><dc:type
           rdf:resource="http://purl.org/dc/dcmitype/StillImage" /></cc:Work></rdf:RDF></metadata><defs
     id="defs81" /><sodipodi:namedview
     pagecolor="#ffffff"
     bordercolor="#666666"
     borderopacity="1"
     objecttolerance="10"
     gridtolerance="10"
     guidetolerance="10"
     inkscape:pageopacity="0"
     inkscape:pageshadow="2"
     inkscape:window-width="832"
     inkscape:window-height="629"
     id="namedview79"
     showgrid="false"
     inkscape:zoom="3.1167047"
     inkscape:cx="37.8605"
     inkscape:cy="37.8605"
     inkscape:window-x="0"
     inkscape:window-y="0"
     inkscape:window-maximized="0"
     inkscape:current-layer="Capa_1" /><g
     id="g3"><g
       id="g5"><polygon
         style="fill:#010002;"
         points="59.334,16.404 59.302,16.386 16.42,16.386 16.388,16.404 16.388,59.311 16.42,59.332     59.302,59.332 59.334,59.311   "
         id="polygon7" /><g
         id="g9"><path
           style="fill:#010002;"
           d="M65.475,23.959h7.68c1.417,0,2.566-1.149,2.566-2.559s-1.145-2.562-2.566-2.562h-7.68     c-1.417,0-2.562,1.145-2.562,2.559C62.913,22.81,64.058,23.959,65.475,23.959z"
           id="path11" /><path
           style="fill:#010002;"
           d="M73.152,29.806h-7.68c-1.414,0-2.559,1.152-2.559,2.562c0,1.41,1.145,2.562,2.562,2.562h7.68     c1.417,0,2.566-1.149,2.566-2.562C75.721,30.955,74.573,29.806,73.152,29.806z"
           id="path13" /><path
           style="fill:#010002;"
           d="M73.152,40.783h-7.68c-1.417,0-2.562,1.149-2.562,2.562c0,1.417,1.145,2.566,2.562,2.566h7.68     c1.417,0,2.566-1.149,2.566-2.566C75.718,41.935,74.573,40.783,73.152,40.783z"
           id="path15" /><path
           style="fill:#010002;"
           d="M73.152,51.763h-7.68c-1.414,0-2.559,1.145-2.559,2.559s1.145,2.562,2.562,2.562h7.68     c1.417,0,2.566-1.149,2.566-2.562S74.573,51.763,73.152,51.763z"
           id="path17" /></g><g
         id="g19"><path
           style="fill:#010002;"
           d="M23.957,10.248v-7.68c0-1.417-1.145-2.562-2.559-2.562c-1.417,0-2.566,1.145-2.566,2.562v7.68     c0,1.417,1.149,2.562,2.566,2.562C22.812,12.807,23.957,11.662,23.957,10.248z"
           id="path21" /><path
           style="fill:#010002;"
           d="M29.812,2.564v7.68c0,1.417,1.149,2.562,2.562,2.562s2.559-1.145,2.559-2.562v-7.68     c0-1.417-1.145-2.562-2.559-2.562S29.812,1.151,29.812,2.564z"
           id="path23" /><path
           style="fill:#010002;"
           d="M40.788,2.564v7.68c0,1.417,1.145,2.562,2.559,2.562s2.566-1.145,2.566-2.562v-7.68     c0-1.417-1.152-2.562-2.566-2.562C41.933,0.002,40.788,1.151,40.788,2.564z"
           id="path25" /><path
           style="fill:#010002;"
           d="M51.764,2.564v7.68c0,1.417,1.145,2.562,2.559,2.562c1.417,0,2.566-1.145,2.566-2.562v-7.68     c0-1.417-1.149-2.562-2.566-2.562C52.91-0.002,51.764,1.151,51.764,2.564z"
           id="path27" /></g><g
         id="g29"><path
           style="fill:#010002;"
           d="M23.957,73.157v-7.68c0-1.417-1.145-2.566-2.559-2.566c-1.417,0-2.566,1.145-2.566,2.566v7.68     c0,1.417,1.149,2.559,2.566,2.559C22.812,75.716,23.957,74.571,23.957,73.157z"
           id="path31" /><path
           style="fill:#010002;"
           d="M29.812,65.473v7.68c0,1.417,1.149,2.566,2.562,2.566s2.559-1.145,2.559-2.566v-7.68     c0-1.417-1.145-2.562-2.559-2.562S29.812,64.056,29.812,65.473z"
           id="path33" /><path
           style="fill:#010002;"
           d="M40.788,65.473v7.68c0,1.417,1.145,2.566,2.559,2.566s2.566-1.145,2.566-2.566v-7.68     c0-1.417-1.152-2.562-2.566-2.562C41.933,62.911,40.788,64.056,40.788,65.473z"
           id="path35" /><path
           style="fill:#010002;"
           d="M51.764,65.473v7.68c0,1.417,1.145,2.566,2.559,2.566c1.417,0,2.566-1.145,2.566-2.566v-7.68     c-0.004-1.417-1.152-2.562-2.566-2.562S51.764,64.056,51.764,65.473z"
           id="path37" /></g><g
         id="g39"><path
           style="fill:#010002;"
           d="M2.57,23.959h7.68c1.414,0,2.559-1.152,2.559-2.562s-1.145-2.562-2.562-2.562h-7.68     C1.149,18.834,0,19.983,0,21.396C0,22.81,1.149,23.959,2.57,23.959z"
           id="path41" /><path
           style="fill:#010002;"
           d="M10.246,29.806h-7.68C1.149,29.806,0,30.955,0,32.365c0,1.41,1.145,2.562,2.566,2.562h7.68     c1.417,0,2.562-1.149,2.562-2.562C12.809,30.952,11.663,29.806,10.246,29.806z"
           id="path43" /><path
           style="fill:#010002;"
           d="M10.246,40.783h-7.68C1.149,40.783,0,41.932,0,43.345c0,1.417,1.145,2.566,2.566,2.566h7.68     c1.417,0,2.562-1.149,2.562-2.566C12.809,41.935,11.663,40.783,10.246,40.783z"
           id="path45" /><path
           style="fill:#010002;"
           d="M10.246,51.763h-7.68C1.149,51.763,0,52.908,0,54.322s1.145,2.562,2.566,2.562h7.68     c1.417-0.004,2.562-1.152,2.562-2.562S11.663,51.763,10.246,51.763z"
           id="path47" /></g></g></g><g
     id="g49" /><g
     id="g51" /><g
     id="g53" /><g
     id="g55" /><g
     id="g57" /><g
     id="g59" /><g
     id="g61" /><g
     id="g63" /><g
     id="g65" /><g
     id="g67" /><g
     id="g69" /><g
     id="g71" /><g
     id="g73" /><g
     id="g75" /><g
     id="g77" /></svg>