<?xml version="1.0" encoding="UTF-8" standalone="no"?>
<!-- Generator: Adobe Illustrator 18.1.1, SVG Export Plug-In . SVG Version: 6.00 Build 0)  -->

<svg
   xmlns:dc="http://purl.org/dc/elements/1.1/"
   xmlns:cc="http://creativecommons.org/ns#"
   xmlns:rdf="http://www.w3.org/1999/02/22-rdf-syntax-ns#"
   xmlns:svg="http://www.w3.org/2000/svg"
   xmlns="http://www.w3.org/2000/svg"
   xmlns:sodipodi="http://sodipodi.sourceforge.net/DTD/sodipodi-0.dtd"
   xmlns:inkscape="http://www.inkscape.org/namespaces/inkscape"
   version="1.1"
   id="Capa_1"
   x="0px"
   y="0px"
   viewBox="0 0 24 24"
   xml:space="preserve"
   inkscape:version="0.91 r13725"
   sodipodi:docname="firmware24.svg"
   inkscape:export-filename="/Users/zefal/Development/Universal-G-Code-Sender/ugs-platform/ugs-platform-ugscore/src/main/resources/resources/icons/firmware.png"
   inkscape:export-xdpi="19.017181"
   inkscape:export-ydpi="19.017181"
   width="24"
   height="24"><metadata
     id="metadata83"><rdf:RDF><cc:Work
         rdf:about=""><dc:format>image/svg+xml</dc:format><dc:type
           rdf:resource="http://purl.org/dc/dcmitype/StillImage" /><dc:title /></cc:Work></rdf:RDF></metadata><defs
     id="defs81" /><sodipodi:namedview
     pagecolor="#ffffff"
     bordercolor="#666666"
     borderopacity="1"
     objecttolerance="10"
     gridtolerance="10"
     guidetolerance="10"
     inkscape:pageopacity="0"
     inkscape:pageshadow="2"
     inkscape:window-width="1205"
     inkscape:window-height="778"
     id="namedview79"
     showgrid="false"
     inkscape:zoom="8.2480116"
     inkscape:cx="-18.50751"
     inkscape:cy="20.176778"
     inkscape:window-x="0"
     inkscape:window-y="0"
     inkscape:window-maximized="0"
     inkscape:current-layer="Capa_1" /><g
     id="g3"
     style="fill:#0ac9f1;fill-opacity:1"
     transform="matrix(0.31695302,0,0,0.3169499,0,8.6990619e-4)"><g
       id="g5"
       style="fill:#0ac9f1;fill-opacity:1"><polygon
         style="fill:#0ac9f1;fill-opacity:1"
         points="59.334,16.404 59.302,16.386 16.42,16.386 16.388,16.404 16.388,59.311 16.42,59.332 59.302,59.332 59.334,59.311 "
         id="polygon7" /><g
         id="g9"
         style="fill:#0ac9f1;fill-opacity:1"><path
           style="fill:#0ac9f1;fill-opacity:1"
           d="m 65.475,23.959 7.68,0 c 1.417,0 2.566,-1.149 2.566,-2.559 0,-1.41 -1.145,-2.562 -2.566,-2.562 l -7.68,0 c -1.417,0 -2.562,1.145 -2.562,2.559 0,1.413 1.145,2.562 2.562,2.562 z"
           id="path11"
           inkscape:connector-curvature="0" /><path
           style="fill:#0ac9f1;fill-opacity:1"
           d="m 73.152,29.806 -7.68,0 c -1.414,0 -2.559,1.152 -2.559,2.562 0,1.41 1.145,2.562 2.562,2.562 l 7.68,0 c 1.417,0 2.566,-1.149 2.566,-2.562 0,-1.413 -1.148,-2.562 -2.569,-2.562 z"
           id="path13"
           inkscape:connector-curvature="0" /><path
           style="fill:#0ac9f1;fill-opacity:1"
           d="m 73.152,40.783 -7.68,0 c -1.417,0 -2.562,1.149 -2.562,2.562 0,1.417 1.145,2.566 2.562,2.566 l 7.68,0 c 1.417,0 2.566,-1.149 2.566,-2.566 0,-1.41 -1.145,-2.562 -2.566,-2.562 z"
           id="path15"
           inkscape:connector-curvature="0" /><path
           style="fill:#0ac9f1;fill-opacity:1"
           d="m 73.152,51.763 -7.68,0 c -1.414,0 -2.559,1.145 -2.559,2.559 0,1.414 1.145,2.562 2.562,2.562 l 7.68,0 c 1.417,0 2.566,-1.149 2.566,-2.562 0,-1.413 -1.148,-2.559 -2.569,-2.559 z"
           id="path17"
           inkscape:connector-curvature="0" /></g><g
         id="g19"
         style="fill:#0ac9f1;fill-opacity:1"><path
           style="fill:#0ac9f1;fill-opacity:1"
           d="m 23.957,10.248 0,-7.68 c 0,-1.417 -1.145,-2.562 -2.559,-2.562 -1.417,0 -2.566,1.145 -2.566,2.562 l 0,7.68 c 0,1.417 1.149,2.562 2.566,2.562 1.414,-0.003 2.559,-1.148 2.559,-2.562 z"
           id="path21"
           inkscape:connector-curvature="0" /><path
           style="fill:#0ac9f1;fill-opacity:1"
           d="m 29.812,2.564 0,7.68 c 0,1.417 1.149,2.562 2.562,2.562 1.413,0 2.559,-1.145 2.559,-2.562 l 0,-7.68 c 0,-1.417 -1.145,-2.562 -2.559,-2.562 -1.414,0 -2.562,1.149 -2.562,2.562 z"
           id="path23"
           inkscape:connector-curvature="0" /><path
           style="fill:#0ac9f1;fill-opacity:1"
           d="m 40.788,2.564 0,7.68 c 0,1.417 1.145,2.562 2.559,2.562 1.414,0 2.566,-1.145 2.566,-2.562 l 0,-7.68 c 0,-1.417 -1.152,-2.562 -2.566,-2.562 -1.414,0 -2.559,1.149 -2.559,2.562 z"
           id="path25"
           inkscape:connector-curvature="0" /><path
           style="fill:#0ac9f1;fill-opacity:1"
           d="m 51.764,2.564 0,7.68 c 0,1.417 1.145,2.562 2.559,2.562 1.417,0 2.566,-1.145 2.566,-2.562 l 0,-7.68 c 0,-1.417 -1.149,-2.562 -2.566,-2.562 -1.413,-0.004 -2.559,1.149 -2.559,2.562 z"
           id="path27"
           inkscape:connector-curvature="0" /></g><g
         id="g29"
         style="fill:#0ac9f1;fill-opacity:1"><path
           style="fill:#0ac9f1;fill-opacity:1"
           d="m 23.957,73.157 0,-7.68 c 0,-1.417 -1.145,-2.566 -2.559,-2.566 -1.417,0 -2.566,1.145 -2.566,2.566 l 0,7.68 c 0,1.417 1.149,2.559 2.566,2.559 1.414,0 2.559,-1.145 2.559,-2.559 z"
           id="path31"
           inkscape:connector-curvature="0" /><path
           style="fill:#0ac9f1;fill-opacity:1"
           d="m 29.812,65.473 0,7.68 c 0,1.417 1.149,2.566 2.562,2.566 1.413,0 2.559,-1.145 2.559,-2.566 l 0,-7.68 c 0,-1.417 -1.145,-2.562 -2.559,-2.562 -1.414,0 -2.562,1.145 -2.562,2.562 z"
           id="path33"
           inkscape:connector-curvature="0" /><path
           style="fill:#0ac9f1;fill-opacity:1"
           d="m 40.788,65.473 0,7.68 c 0,1.417 1.145,2.566 2.559,2.566 1.414,0 2.566,-1.145 2.566,-2.566 l 0,-7.68 c 0,-1.417 -1.152,-2.562 -2.566,-2.562 -1.414,0 -2.559,1.145 -2.559,2.562 z"
           id="path35"
           inkscape:connector-curvature="0" /><path
           style="fill:#0ac9f1;fill-opacity:1"
           d="m 51.764,65.473 0,7.68 c 0,1.417 1.145,2.566 2.559,2.566 1.417,0 2.566,-1.145 2.566,-2.566 l 0,-7.68 c -0.004,-1.417 -1.152,-2.562 -2.566,-2.562 -1.414,0 -2.559,1.145 -2.559,2.562 z"
           id="path37"
           inkscape:connector-curvature="0" /></g><g
         id="g39"
         style="fill:#0ac9f1;fill-opacity:1"><path
           style="fill:#0ac9f1;fill-opacity:1"
           d="m 2.57,23.959 7.68,0 c 1.414,0 2.559,-1.152 2.559,-2.562 0,-1.41 -1.145,-2.562 -2.562,-2.562 l -7.68,0 C 1.149,18.834 0,19.983 0,21.396 c 0,1.414 1.149,2.563 2.57,2.563 z"
           id="path41"
           inkscape:connector-curvature="0" /><path
           style="fill:#0ac9f1;fill-opacity:1"
           d="m 10.246,29.806 -7.68,0 C 1.149,29.806 0,30.955 0,32.365 c 0,1.41 1.145,2.562 2.566,2.562 l 7.68,0 c 1.417,0 2.562,-1.149 2.562,-2.562 10e-4,-1.413 -1.145,-2.559 -2.562,-2.559 z"
           id="path43"
           inkscape:connector-curvature="0" /><path
           style="fill:#0ac9f1;fill-opacity:1"
           d="m 10.246,40.783 -7.68,0 C 1.149,40.783 0,41.932 0,43.345 c 0,1.417 1.145,2.566 2.566,2.566 l 7.68,0 c 1.417,0 2.562,-1.149 2.562,-2.566 10e-4,-1.41 -1.145,-2.562 -2.562,-2.562 z"
           id="path45"
           inkscape:connector-curvature="0" /><path
           style="fill:#0ac9f1;fill-opacity:1"
           d="m 10.246,51.763 -7.68,0 C 1.149,51.763 0,52.908 0,54.322 c 0,1.414 1.145,2.562 2.566,2.562 l 7.68,0 c 1.417,-0.004 2.562,-1.152 2.562,-2.562 0,-1.41 -1.145,-2.559 -2.562,-2.559 z"
           id="path47"
           inkscape:connector-curvature="0" /></g></g></g><g
     id="g49"
     transform="matrix(0.31695302,0,0,0.3169499,0,8.6990619e-4)"
     style="fill:#0ac9f1;fill-opacity:1" /><g
     id="g51"
     transform="matrix(0.31695302,0,0,0.3169499,0,8.6990619e-4)"
     style="fill:#0ac9f1;fill-opacity:1" /><g
     id="g53"
     transform="matrix(0.31695302,0,0,0.3169499,0,8.6990619e-4)"
     style="fill:#0ac9f1;fill-opacity:1" /><g
     id="g55"
     transform="matrix(0.31695302,0,0,0.3169499,0,8.6990619e-4)"
     style="fill:#0ac9f1;fill-opacity:1" /><g
     id="g57"
     transform="matrix(0.31695302,0,0,0.3169499,0,8.6990619e-4)"
     style="fill:#0ac9f1;fill-opacity:1" /><g
     id="g59"
     transform="matrix(0.31695302,0,0,0.3169499,0,8.6990619e-4)"
     style="fill:#0ac9f1;fill-opacity:1" /><g
     id="g61"
     transform="matrix(0.31695302,0,0,0.3169499,0,8.6990619e-4)"
     style="fill:#0ac9f1;fill-opacity:1" /><g
     id="g63"
     transform="matrix(0.31695302,0,0,0.3169499,0,8.6990619e-4)"
     style="fill:#0ac9f1;fill-opacity:1" /><g
     id="g65"
     transform="matrix(0.31695302,0,0,0.3169499,0,8.6990619e-4)"
     style="fill:#0ac9f1;fill-opacity:1" /><g
     id="g67"
     transform="matrix(0.31695302,0,0,0.3169499,0,8.6990619e-4)"
     style="fill:#0ac9f1;fill-opacity:1" /><g
     id="g69"
     transform="matrix(0.31695302,0,0,0.3169499,0,8.6990619e-4)"
     style="fill:#0ac9f1;fill-opacity:1" /><g
     id="g71"
     transform="matrix(0.31695302,0,0,0.3169499,0,8.6990619e-4)"
     style="fill:#0ac9f1;fill-opacity:1" /><g
     id="g73"
     transform="matrix(0.31695302,0,0,0.3169499,0,8.6990619e-4)"
     style="fill:#0ac9f1;fill-opacity:1" /><g
     id="g75"
     transform="matrix(0.31695302,0,0,0.3169499,0,8.6990619e-4)"
     style="fill:#0ac9f1;fill-opacity:1" /><g
     id="g77"
     transform="matrix(0.31695302,0,0,0.3169499,0,8.6990619e-4)"
     style="fill:#0ac9f1;fill-opacity:1" /></svg>
