<?xml version="1.0" encoding="UTF-8" standalone="no"?>
<!-- Generator: Adobe Illustrator 19.0.0, SVG Export Plug-In . SVG Version: 6.00 Build 0)  -->

<svg
   version="1.1"
   id="Layer_1"
   x="0px"
   y="0px"
   viewBox="0 0 24 24"
   xml:space="preserve"
   inkscape:version="1.2.2 (b0a8486541, 2022-12-01)"
   sodipodi:docname="hint24.svg"
   inkscape:export-filename="/Users/zefal/Development/Universal-G-Code-Sender/ugs-platform/ugs-platform-plugin-setup-wizard/src/main/resources/icons/information32.png"
   inkscape:export-xdpi="6.7499948"
   inkscape:export-ydpi="6.7499948"
   width="24"
   height="24"
   xmlns:inkscape="http://www.inkscape.org/namespaces/inkscape"
   xmlns:sodipodi="http://sodipodi.sourceforge.net/DTD/sodipodi-0.dtd"
   xmlns="http://www.w3.org/2000/svg"
   xmlns:svg="http://www.w3.org/2000/svg"
   xmlns:rdf="http://www.w3.org/1999/02/22-rdf-syntax-ns#"
   xmlns:cc="http://creativecommons.org/ns#"
   xmlns:dc="http://purl.org/dc/elements/1.1/"><metadata
     id="metadata43"><rdf:RDF><cc:Work
         rdf:about=""><dc:format>image/svg+xml</dc:format><dc:type
           rdf:resource="http://purl.org/dc/dcmitype/StillImage" /></cc:Work></rdf:RDF></metadata><defs
     id="defs41" /><sodipodi:namedview
     pagecolor="#ffffff"
     bordercolor="#666666"
     borderopacity="1"
     objecttolerance="10"
     gridtolerance="10"
     guidetolerance="10"
     inkscape:pageopacity="0"
     inkscape:pageshadow="2"
     inkscape:window-width="1894"
     inkscape:window-height="1157"
     id="namedview39"
     showgrid="false"
     inkscape:zoom="3.11"
     inkscape:cx="193.08682"
     inkscape:cy="-55.62701"
     inkscape:window-x="70"
     inkscape:window-y="27"
     inkscape:window-maximized="0"
     inkscape:current-layer="Layer_1"
     inkscape:showpageshadow="2"
     inkscape:pagecheckerboard="0"
     inkscape:deskcolor="#d1d1d1" /><g
     id="g3"
     style="fill:#2f5d67;fill-opacity:1"
     transform="scale(0.05624996)"><path
       style="fill:#2f5d67;fill-opacity:1"
       d="M 213.338,0 C 95.509,0 0,95.497 0,213.325 c 0,117.854 95.509,213.342 213.338,213.342 117.82,0 213.329,-95.488 213.329,-213.342 C 426.667,95.497 331.157,0 213.338,0 Z m -0.005,99.49 c 14.793,0 26.786,11.994 26.786,26.786 0,14.792 -11.998,26.782 -26.786,26.782 -14.788,0 -26.786,-11.994 -26.786,-26.782 0,-14.792 11.994,-26.786 26.786,-26.786 z m 46.874,227.691 H 166.46 v -40.183 h 20.087 V 206.64 H 166.46 v -40.18 h 73.664 v 40.179 80.358 h 20.087 v 40.183 h -0.004 z"
       id="path5" /><polygon
       style="fill:#2f5d67;fill-opacity:1"
       points="394.466,325.918 325.935,394.449 419.55,419.529 "
       id="polygon7" /></g><g
     id="g9"
     transform="scale(1.5)" /><g
     id="g11"
     transform="scale(1.5)" /><g
     id="g13"
     transform="scale(1.5)" /><g
     id="g15"
     transform="scale(1.5)" /><g
     id="g17"
     transform="scale(1.5)" /><g
     id="g19"
     transform="scale(1.5)" /><g
     id="g21"
     transform="scale(1.5)" /><g
     id="g23"
     transform="scale(1.5)" /><g
     id="g25"
     transform="scale(1.5)" /><g
     id="g27"
     transform="scale(1.5)" /><g
     id="g29"
     transform="scale(1.5)" /><g
     id="g31"
     transform="scale(1.5)" /><g
     id="g33"
     transform="scale(1.5)" /><g
     id="g35"
     transform="scale(1.5)" /><g
     id="g37"
     transform="scale(1.5)" /></svg>
