<svg version="1.1" viewBox="0 0 16 16" width="32" height="32" xmlns="http://www.w3.org/2000/svg">
  <path transform="matrix(.03476 0 0 .03476 1.9378e-5 -.0665)" d="m230.15 120.94-164.16 135.34c0 0.191-0.048 0.472-0.144 0.855-0.094 0.38-0.144 0.656-0.144 0.852v137.04c0 4.948 1.809 9.236 5.426 12.847 3.616 3.613 7.898 5.431 12.847 5.431h109.63v-109.64h73.097v109.64h109.63c4.948 0 9.236-1.814 12.847-5.435 3.617-3.607 5.432-7.898 5.432-12.847v-137.04c0-0.76-0.104-1.334-0.288-1.707l-164.17-135.34z" fill="#565656"/>
  <path transform="matrix(.03476 0 0 .03476 1.9378e-5 -.0665)" d="m457.12 225.44-62.522-51.962v-116.49c0-2.663-0.856-4.853-2.574-6.567-1.704-1.712-3.894-2.568-6.563-2.568h-54.816c-2.666 0-4.855 0.856-6.57 2.568-1.711 1.714-2.566 3.905-2.566 6.567v55.673l-69.662-58.245c-6.084-4.949-13.318-7.423-21.694-7.423-8.375 0-15.608 2.474-21.698 7.423l-205.28 171.02c-1.903 1.52-2.946 3.566-3.14 6.136-0.193 2.568 0.472 4.811 1.997 6.713l17.701 21.128c1.525 1.712 3.521 2.759 5.996 3.142 2.285 0.192 4.57-0.476 6.855-1.998l197.57-164.74 197.57 164.74c1.526 1.328 3.521 1.991 5.996 1.991h0.858c2.471-0.376 4.463-1.43 5.996-3.138l17.703-21.125c1.522-1.906 2.189-4.145 1.991-6.716-0.195-2.563-1.242-4.609-3.141-6.132z" fill="#565656"/>
</svg>
