<svg version="1.1" viewBox="0 0 16 16" width="32" height="32" xmlns="http://www.w3.org/2000/svg">
  <path transform="matrix(.032863 0 0 .032863 .26251 0)" d="m393.9 214.85h-8.891v-72.198c0-76.962-61.075-141.25-137.41-142.62-2.084-0.038-6.254-0.038-8.338 0-76.337 1.371-137.41 65.662-137.41 142.62v1.603c0 16.182 13.118 29.3 29.3 29.3s29.299-13.118 29.299-29.3v-1.603c0-45.845 37.257-83.752 82.98-83.752s82.981 37.907 82.981 83.752v72.198h-233.45c-13.702 0-24.878 14.139-24.878 31.602v208.7c0 17.44 11.176 31.712 24.878 31.712h300.94c13.703 0 24.878-14.271 24.878-31.712v-208.7c1e-3 -17.463-11.175-31.6-24.878-31.6zm-122.28 135.74v63.062c0 7.222-6.046 13.332-13.273 13.332h-29.841c-7.228 0-13.273-6.11-13.273-13.332v-63.062c-7.009-6.9-11.09-16.44-11.09-26.993 0-19.999 15.459-37.185 35.115-37.977 2.083-0.085 6.255-0.085 8.337 0 19.656 0.792 35.115 17.978 35.115 37.977 0 10.551-4.08 20.092-11.09 26.993z" fill="#353a40"/>
</svg>
