<?xml version="1.0" encoding="UTF-8" standalone="no"?>
<!-- Generator: Adobe Illustrator 16.0.0, SVG Export Plug-In . SVG Version: 6.00 Build 0)  -->

<svg
   xmlns:dc="http://purl.org/dc/elements/1.1/"
   xmlns:cc="http://creativecommons.org/ns#"
   xmlns:rdf="http://www.w3.org/1999/02/22-rdf-syntax-ns#"
   xmlns:svg="http://www.w3.org/2000/svg"
   xmlns="http://www.w3.org/2000/svg"
   xmlns:sodipodi="http://sodipodi.sourceforge.net/DTD/sodipodi-0.dtd"
   xmlns:inkscape="http://www.inkscape.org/namespaces/inkscape"
   version="1.1"
   id="Layer_1"
   x="0px"
   y="0px"
   width="32"
   height="32"
   viewBox="0 0 32 32"
   enable-background="new 0 0 24 24"
   xml:space="preserve"
   inkscape:version="0.91 r13725"
   sodipodi:docname="macro32.svg"><metadata
     id="metadata13"><rdf:RDF><cc:Work
         rdf:about=""><dc:format>image/svg+xml</dc:format><dc:type
           rdf:resource="http://purl.org/dc/dcmitype/StillImage" /><dc:title></dc:title></cc:Work></rdf:RDF></metadata><defs
     id="defs11" /><sodipodi:namedview
     pagecolor="#ffffff"
     bordercolor="#666666"
     borderopacity="1"
     objecttolerance="10"
     gridtolerance="10"
     guidetolerance="10"
     inkscape:pageopacity="0"
     inkscape:pageshadow="2"
     inkscape:window-width="1015"
     inkscape:window-height="625"
     id="namedview9"
     showgrid="false"
     inkscape:zoom="9.8333333"
     inkscape:cx="13.322034"
     inkscape:cy="12"
     inkscape:window-x="0"
     inkscape:window-y="0"
     inkscape:window-maximized="0"
     inkscape:current-layer="Layer_1" /><path
     inkscape:connector-curvature="0"
     id="path5"
     d="m 19.597963,4.6999978e-5 -6.779983,0 C 11.121985,4.6999978e-5 9.747322,1.3747101 9.747322,3.0707065 l 0,6.7799836 c 0,1.6959939 1.374663,3.0706579 3.070658,3.0706579 l 6.779983,0 c 1.695995,0 3.071992,-1.374664 3.071992,-3.0706579 l 0,-6.7799836 C 22.668623,1.3747101 21.293958,4.6999978e-5 19.597963,4.6999978e-5 Z M 13.624645,10.544021 l -1.33333,0 0,-3.94399 1.33333,0 0,3.94399 z M 13.112646,5.2920338 c -0.759998,0 -1.374663,-0.6146647 -1.374663,-1.3746631 0,-0.7599984 0.614665,-1.3746631 1.374663,-1.3746631 0.758665,0 1.374664,0.6146647 1.374664,1.3746631 0,0.7599984 -0.614666,1.3746631 -1.374664,1.3746631 z m 2.67866,5.2519872 -1.33333,0 0,-3.94399 1.33333,0 0,3.94399 z m 2.166661,0 -1.33333,0 0,-3.94399 1.33333,0 0,3.94399 z m 2.166661,0 -1.333329,0 0,-3.94399 1.333329,0 0,3.94399 z m -0.82133,-5.2519872 c -0.759999,0 -1.374664,-0.6146647 -1.374664,-1.3746631 0,-0.7599984 0.614665,-1.3746631 1.374664,-1.3746631 0.758664,0 1.374663,0.6146647 1.374663,1.3746631 0,0.7599984 -0.615999,1.3746631 -1.374663,1.3746631 z"
     style="fill:#41818f;fill-opacity:1;fill-rule:evenodd;stroke:#41818f;stroke-width:0pt;stroke-opacity:1" /><path
     inkscape:connector-curvature="0"
     id="path7"
     d="m 29.45527,27.470645 c 0.008,-0.044 -0.0094,-0.08266 -0.0094,-0.12666 0,-0.04134 0.0094,-0.084 0.0094,-0.12534 0,-0.665332 -0.618664,-1.218663 -1.379995,-1.213329 l -0.219999,0 0,-1.910662 0.03466,0 0.0054,-0.543999 c 0.02134,-1.997328 0.05466,-5.013321 -2.005328,-7.095983 -1.351997,-1.366663 -3.365325,-2.058662 -5.985319,-2.058662 l 0,0.0134 c -0.10134,-0.0146 -0.201334,-0.04266 -0.306666,-0.04266 l -6.779983,0 c -0.076,0 -0.147999,0.024 -0.222666,0.03066 -2.69072,0.0054 -4.7507141,0.709325 -6.1227106,2.097322 -1.5279962,1.545331 -1.9026618,3.58799 -1.9853284,5.347987 l -0.048,0.036 0,4.125323 -0.1933336,0 c -0.7826645,0 -1.4119964,0.543999 -1.4119964,1.211997 l 0,0.02 c -0.016,0.076 -0.032,0.15066 -0.032,0.226666 l 0,1.470663 c 0,0.538664 0.5093321,0.973329 1.1373306,0.973329 0.6213317,0 1.1386638,-0.434665 1.1386638,-0.973329 l 0,-0.510665 1.8493284,-0.0066 0,0.517333 c 0,0.531998 0.5066656,0.966663 1.1279972,0.966663 0.6279985,0 1.1373304,-0.434665 1.1373304,-0.966663 l -0.008,-1.475997 c 0.008,-0.044 -0.00934,-0.08266 -0.00934,-0.12666 0,-0.04134 0.00934,-0.08266 0.00934,-0.124 0,-0.659998 -0.6293316,-1.209329 -1.4053296,-1.202663 l -0.2266661,0 0,-4.06399 c 0.062668,-1.232071 0.292,-2.472068 1.0986647,-3.288067 0.2946659,-0.297331 0.6919978,-0.519997 1.1399966,-0.706664 -0.02267,0.201333 -0.04533,0.402667 -0.04533,0.611999 l 0,9.251976 c 0.0013,2.314661 1.375997,4.190657 3.071993,4.190657 l 6.779983,0 c 1.695994,0 3.071991,-1.875996 3.071991,-4.190657 l 0,-9.251976 c 0,-0.214666 -0.024,-0.42 -0.04666,-0.625331 0.426665,0.17866 0.80533,0.393331 1.086664,0.678664 0.78933,0.797331 1.027998,2.010662 1.094663,3.227992 l -0.0106,0.008 0,4.158657 -0.189339,0 c -0.76933,0 -1.387997,0.547997 -1.387997,1.222663 l 0,0.02 c -0.0146,0.07734 -0.03066,0.152 -0.03066,0.229332 l 0,1.482662 c 0,0.542667 0.501333,0.981332 1.117332,0.981332 0.610664,0 1.118663,-0.438665 1.118663,-0.981332 l 0,-0.515998 1.815994,-0.0066 0,0.522664 c 0,0.535999 0.497333,0.974664 1.107998,0.974664 0.615999,0 1.11733,-0.438665 1.11733,-0.974664 z"
     style="fill:#41818f;fill-opacity:1;fill-rule:evenodd;stroke:#41818f;stroke-width:0pt;stroke-opacity:1"
     sodipodi:nodetypes="cssccccccccsscccccsscssssccssccsscccccscsssscccccsscssssccsscc" /></svg>
