<?xml version="1.0" encoding="UTF-8" standalone="no"?>
<!-- Generator: Adobe Illustrator 16.0.0, SVG Export Plug-In . SVG Version: 6.00 Build 0)  -->

<svg
   xmlns:dc="http://purl.org/dc/elements/1.1/"
   xmlns:cc="http://creativecommons.org/ns#"
   xmlns:rdf="http://www.w3.org/1999/02/22-rdf-syntax-ns#"
   xmlns:svg="http://www.w3.org/2000/svg"
   xmlns="http://www.w3.org/2000/svg"
   xmlns:sodipodi="http://sodipodi.sourceforge.net/DTD/sodipodi-0.dtd"
   xmlns:inkscape="http://www.inkscape.org/namespaces/inkscape"
   version="1.1"
   id="Layer_1"
   x="0px"
   y="0px"
   width="16"
   height="16"
   viewBox="0 0 16 16"
   enable-background="new 0 0 24 24"
   xml:space="preserve"
   inkscape:version="0.91 r13725"
   sodipodi:docname="macro.svg"><metadata
     id="metadata13"><rdf:RDF><cc:Work
         rdf:about=""><dc:format>image/svg+xml</dc:format><dc:type
           rdf:resource="http://purl.org/dc/dcmitype/StillImage" /><dc:title></dc:title></cc:Work></rdf:RDF></metadata><defs
     id="defs11" /><sodipodi:namedview
     pagecolor="#ffffff"
     bordercolor="#666666"
     borderopacity="1"
     objecttolerance="10"
     gridtolerance="10"
     guidetolerance="10"
     inkscape:pageopacity="0"
     inkscape:pageshadow="2"
     inkscape:window-width="1015"
     inkscape:window-height="625"
     id="namedview9"
     showgrid="false"
     inkscape:zoom="9.8333333"
     inkscape:cx="5.1864406"
     inkscape:cy="12"
     inkscape:window-x="0"
     inkscape:window-y="0"
     inkscape:window-maximized="0"
     inkscape:current-layer="Layer_1" /><path
     inkscape:connector-curvature="0"
     id="path5"
     d="m 9.900002,8.3333317e-6 -3.3899987,0 C 5.6620037,8.3333317e-6 4.9746707,0.68734138 4.9746707,1.535341 l 0,3.3899986 c 0,0.8479997 0.687333,1.5353327 1.5353326,1.5353327 l 3.3899987,0 c 0.847999,0 1.535999,-0.687333 1.535999,-1.5353327 l 0,-3.3899986 C 11.435335,0.68734138 10.748001,8.3333317e-6 9.900002,8.3333317e-6 Z M 6.9133365,5.2720061 l -0.6666664,0 0,-1.9719991 0.6666664,0 0,1.9719991 z M 6.6573366,2.6460072 c -0.3799998,0 -0.687333,-0.3073332 -0.687333,-0.687333 0,-0.3799999 0.3073332,-0.6873331 0.687333,-0.6873331 0.3793332,0 0.6873331,0.3073332 0.6873331,0.6873331 0,0.3799998 -0.3073332,0.687333 -0.6873331,0.687333 z m 1.3393328,2.6259989 -0.6666664,0 0,-1.9719991 0.6666664,0 0,1.9719991 z m 1.0833329,0 -0.6666664,0 0,-1.9719991 0.6666664,0 0,1.9719991 z m 1.0833327,0 -0.6666662,0 0,-1.9719991 0.6666662,0 0,1.9719991 z M 9.7526691,2.6460072 c -0.3800003,0 -0.6873335,-0.3073332 -0.6873335,-0.687333 0,-0.3799999 0.3073332,-0.6873331 0.6873335,-0.6873331 0.3793329,0 0.6873329,0.3073332 0.6873329,0.6873331 0,0.3799998 -0.308,0.687333 -0.6873329,0.687333 z"
     style="fill:#41818f;fill-opacity:1;fill-rule:evenodd;stroke:#41818f;stroke-width:0pt;stroke-opacity:1" /><path
     inkscape:connector-curvature="0"
     id="path7"
     d="m 14.828666,13.735336 c 0.004,-0.022 -0.0047,-0.04133 -0.0047,-0.06333 0,-0.02067 0.0047,-0.042 0.0047,-0.06267 0,-0.332667 -0.309333,-0.609333 -0.689999,-0.606666 l -0.11,0 0,-0.955333 0.01733,0 0.0027,-0.272 c 0.01067,-0.998666 0.02733,-2.5066659 -1.002666,-3.5479988 -0.676,-0.683333 -1.682666,-1.0293329 -2.992666,-1.0293329 l 0,0.00667 c -0.05067,-0.00733 -0.100667,-0.021333 -0.153333,-0.021333 l -3.3899987,0 c -0.038,0 -0.074,0.012 -0.1113332,0.015333 C 5.0533373,7.2013387 4.0233377,7.5533385 3.337338,8.2473382 2.5733383,9.0200046 2.3860051,10.041337 2.3446717,10.921337 l -0.024,0.018 0,2.062666 -0.096667,0 c -0.3913331,0 -0.7059997,0.272 -0.7059997,0.606 l 0,0.01 c -0.008,0.038 -0.016,0.07533 -0.016,0.113333 l 0,0.735333 c 0,0.269333 0.2546666,0.486666 0.5686665,0.486666 0.3106665,0 0.5693331,-0.217333 0.5693331,-0.486666 l 0,-0.255333 0.9246662,-0.0033 0,0.258667 c 0,0.266 0.2533333,0.483333 0.5639998,0.483333 0.3139999,0 0.5686664,-0.217333 0.5686664,-0.483333 l -0.004,-0.738 c 0.004,-0.022 -0.00467,-0.04133 -0.00467,-0.06333 0,-0.02067 0.00467,-0.04133 0.00467,-0.062 0,-0.33 -0.3146665,-0.604666 -0.7026663,-0.601333 l -0.1133333,0 0,-2.031999 C 3.9086711,10.354004 4.0233377,9.7340043 4.4266709,9.3260044 4.5740042,9.1773378 4.7726707,9.0660046 4.9966706,8.9726713 4.9853373,9.0733379 4.974004,9.1740045 4.974004,9.2786711 l 0,4.6259979 c 6.667e-4,1.157333 0.6879997,2.095333 1.5359993,2.095333 l 3.3899987,0 c 0.847999,0 1.535999,-0.938 1.535999,-2.095333 l 0,-4.6259979 c 0,-0.1073333 -0.012,-0.2099999 -0.02333,-0.3126665 0.213333,0.089333 0.402666,0.1966666 0.543333,0.3393332 0.394666,0.3986665 0.514,1.0053332 0.547333,1.6139992 l -0.0053,0.004 0,2.079333 -0.09467,0 c -0.384666,0 -0.694,0.273999 -0.694,0.611333 l 0,0.01 c -0.0073,0.03867 -0.01533,0.076 -0.01533,0.114666 l 0,0.741333 c 0,0.271334 0.250667,0.490667 0.558667,0.490667 0.305333,0 0.559333,-0.219333 0.559333,-0.490667 l 0,-0.258 0.907999,-0.0033 0,0.261333 c 0,0.268 0.248667,0.487333 0.554,0.487333 0.308,0 0.558666,-0.219333 0.558666,-0.487333 z"
     style="fill:#41818f;fill-opacity:1;fill-rule:evenodd;stroke:#41818f;stroke-width:0pt;stroke-opacity:1"
     sodipodi:nodetypes="cssccccccccsscccccsscssssccssccsscccccscsssscccccsscssssccsscc" /></svg>
