<?xml version="1.0" encoding="UTF-8" standalone="no"?>
<svg
   xmlns:dc="http://purl.org/dc/elements/1.1/"
   xmlns:cc="http://creativecommons.org/ns#"
   xmlns:rdf="http://www.w3.org/1999/02/22-rdf-syntax-ns#"
   xmlns:svg="http://www.w3.org/2000/svg"
   xmlns="http://www.w3.org/2000/svg"
   xmlns:sodipodi="http://sodipodi.sourceforge.net/DTD/sodipodi-0.dtd"
   xmlns:inkscape="http://www.inkscape.org/namespaces/inkscape"
   enable-background="new 0 0 24 24"
   height="24"
   viewBox="0 0 1.125 1.125"
   width="24"
   version="1.1"
   id="svg850"
   sodipodi:docname="mirror24.svg"
   inkscape:version="1.0.1 (c497b03c, 2020-09-10)">
  <metadata
     id="metadata856">
    <rdf:RDF>
      <cc:Work
         rdf:about="">
        <dc:format>image/svg+xml</dc:format>
        <dc:type
           rdf:resource="http://purl.org/dc/dcmitype/StillImage" />
        <dc:title></dc:title>
      </cc:Work>
    </rdf:RDF>
  </metadata>
  <defs
     id="defs854" />
  <sodipodi:namedview
     pagecolor="#ffffff"
     bordercolor="#666666"
     borderopacity="1"
     objecttolerance="10"
     gridtolerance="10"
     guidetolerance="10"
     inkscape:pageopacity="0"
     inkscape:pageshadow="2"
     inkscape:window-width="1343"
     inkscape:window-height="819"
     id="namedview852"
     showgrid="false"
     inkscape:zoom="6.7521728"
     inkscape:cx="32.206705"
     inkscape:cy="16.383006"
     inkscape:window-x="1320"
     inkscape:window-y="66"
     inkscape:window-maximized="0"
     inkscape:current-layer="svg850" />
  <path
     d="m 0.56250023,0.42137843 c -0.025922,0 -0.046875,0.021 -0.046875,0.046875 V 1.0307537 c 0,0.025875 0.0209531,0.046875 0.046875,0.046875 0.025922,0 0.046875,-0.021 0.046875,-0.046875 V 0.46825345 c 0,-0.025875 -0.0209531,-0.046875 -0.046875,-0.046875 z"
     id="path842"
     style="fill:#41818f;fill-opacity:1;stroke:none;stroke-width:0.046875;stroke-opacity:1" />
  <path
     d="m 1.0223442,0.39512842 -0.29676578,0.2968595 c -6.0938e-4,5.1562e-4 -0.004454,0.003891 -0.005016,0.004453 -0.01125,0.0111555 -0.0174375,0.0258281 -0.0174375,0.0413438 0,0.014532 0.005297,0.0284532 0.0154688,0.0398438 L 1.0228594,1.1053322 c 0.010829,0.012 0.027047,0.019172 0.043547,0.019172 0.032297,0 0.058594,-0.026297 0.058594,-0.058594 V 0.43309749 c 0,-0.0477657 -0.059297,-0.0827813 -0.1026562,-0.0379691 z"
     id="path844"
     style="fill:#41818f;fill-opacity:1;stroke:none;stroke-width:0.046875;stroke-opacity:1" />
  <path
     d="M 0.10448442,0.3970503 C 0.10392192,0.39639405 0.10050042,0.3924563 0.09984382,0.3918473 0.08868754,0.38064404 0.07401565,0.37450341 0.05859377,0.37450341 0.02629689,0.37450341 0,0.4008003 0,0.43309719 V 1.0659099 c 0,0.032297 0.02629689,0.058594 0.05859377,0.058594 0.01650001,0 0.03271877,-0.00717 0.04312502,-0.01875 L 0.40687516,0.77711295 c 0.009704,-0.010875 0.015,-0.0247968 0.015,-0.0393282 0,-0.0155157 -0.006188,-0.0301875 -0.0205781,-0.0440625 z"
     id="path846"
     style="fill:#41818f;fill-opacity:1;stroke:none;stroke-width:0.046875;stroke-opacity:1" />
  <path
     d="m 0.93750038,0.29247213 v -0.2578126 c 0,-0.01420306 -0.008579,-0.02704689 -0.0217032,-0.03248439 -0.013125,-0.00548438 -0.0282656,-0.002437502 -0.038297,0.00764063 L 0.79157837,0.09573768 C 0.71287514,0.03461265 0.6160783,-4.9673647e-4 0.51562513,-4.9673647e-4 c -0.1371095,0 -0.26559385,0.0620625265 -0.35250014,0.17034381647 -0.0162188,0.0201563 -0.012984,0.0496875 0.007218,0.0659063 0.02025,0.0162657 0.0497345,0.013032 0.0658593,-0.007218 0.0690477,-0.0859695 0.17090722,-0.13528205 0.27942289,-0.13528205 0.0755157,0 0.14850006,0.02517189 0.2092032,0.0692344 L 0.61968775,0.26762837 c -0.0100785,0.0100305 -0.013032,0.0251718 -0.007641,0.038297 0.005438,0.013125 0.0182343,0.0217031 0.0324843,0.0217031 h 0.2578126 c 0.0194063,0 0.0351563,-0.01575 0.0351567,-0.0351563 z"
     id="path848"
     style="fill:#41818f;fill-opacity:1;stroke:none;stroke-width:0.046875;stroke-opacity:1" />
</svg>
