<?xml version="1.0" encoding="UTF-8" standalone="no"?>
<!-- Generator: Adobe Illustrator 16.0.0, SVG Export Plug-In . SVG Version: 6.00 Build 0)  -->

<svg
   xmlns:dc="http://purl.org/dc/elements/1.1/"
   xmlns:cc="http://creativecommons.org/ns#"
   xmlns:rdf="http://www.w3.org/1999/02/22-rdf-syntax-ns#"
   xmlns:svg="http://www.w3.org/2000/svg"
   xmlns="http://www.w3.org/2000/svg"
   xmlns:sodipodi="http://sodipodi.sourceforge.net/DTD/sodipodi-0.dtd"
   xmlns:inkscape="http://www.inkscape.org/namespaces/inkscape"
   version="1.1"
   id="Capa_1"
   x="0px"
   y="0px"
   width="32"
   height="32"
   viewBox="0 0 32 31.999999"
   xml:space="preserve"
   inkscape:version="0.91 r13725"
   sodipodi:docname="open32.svg"
   inkscape:export-filename="/Users/zefal/Development/Universal-G-Code-Sender/ugs-platform/ugs-platform-ugscore/src/main/resources/resources/icons/open32.png"
   inkscape:export-xdpi="5.3685269"
   inkscape:export-ydpi="5.3685269"><metadata
     id="metadata45"><rdf:RDF><cc:Work
         rdf:about=""><dc:format>image/svg+xml</dc:format><dc:type
           rdf:resource="http://purl.org/dc/dcmitype/StillImage" /><dc:title></dc:title></cc:Work></rdf:RDF></metadata><defs
     id="defs43" /><sodipodi:namedview
     pagecolor="#ffffff"
     bordercolor="#666666"
     borderopacity="1"
     objecttolerance="10"
     gridtolerance="10"
     guidetolerance="10"
     inkscape:pageopacity="0"
     inkscape:pageshadow="2"
     inkscape:window-width="1007"
     inkscape:window-height="699"
     id="namedview41"
     showgrid="false"
     inkscape:zoom="6.56"
     inkscape:cx="7.230582"
     inkscape:cy="14.550736"
     inkscape:window-x="0"
     inkscape:window-y="0"
     inkscape:window-maximized="0"
     inkscape:current-layer="Capa_1"
     showborder="true" /><g
     id="g3"
     style="fill:#353a40;fill-opacity:1"
     transform="matrix(0.05965019,0,0,0.05964898,0,0.01084851)"><g
       id="g5"
       style="fill:#353a40;fill-opacity:1"><path
         d="m 144.752,263.52 c 19.603,-9.038 38.354,-13.559 56.243,-13.559 l 237.548,0 0,-45.683 c 0,-17.511 -6.283,-32.555 -18.85,-45.118 -12.565,-12.562 -27.596,-18.842 -45.11,-18.842 l -155.317,0 0,-9.136 c 0,-17.511 -6.28,-32.548 -18.842,-45.107 -12.563,-12.562 -27.6,-18.846 -45.111,-18.846 l -91.36,0 c -17.511,0 -32.548,6.283 -45.111,18.846 C 6.279,98.635 0,113.672 0,131.183 l 0,274.084 c 0,0.764 0.049,1.955 0.144,3.576 0.094,1.615 0.144,2.807 0.144,3.566 L 1.714,410.705 97.93,297.637 c 11.61,-13.706 27.218,-25.081 46.822,-34.117 z"
         id="path7"
         style="fill:#353a40;fill-opacity:1"
         inkscape:connector-curvature="0" /><path
         d="m 528.898,290.214 c -5.041,-2.478 -10.797,-3.72 -17.272,-3.72 l -310.631,0 c -12.562,0 -26.219,3.381 -40.968,10.14 -14.75,6.766 -26.219,14.986 -34.401,24.701 l -95.93,113.059 c -5.902,6.662 -8.853,12.945 -8.853,18.849 0,5.708 2.523,9.802 7.566,12.272 5.043,2.478 10.8,3.716 17.273,3.716 l 310.64,0 c 12.56,0 26.21,-3.381 40.963,-10.136 14.75,-6.756 26.214,-14.989 34.399,-24.701 l 95.931,-113.059 c 5.899,-6.663 8.846,-12.939 8.846,-18.849 0.004,-5.707 -2.515,-9.797 -7.563,-12.272 z"
         id="path9"
         style="fill:#353a40;fill-opacity:1"
         inkscape:connector-curvature="0" /></g></g><g
     id="g11"
     transform="matrix(0.02982509,0,0,0.02982448,0,16.005432)" /><g
     id="g13"
     transform="matrix(0.02982509,0,0,0.02982448,0,16.005432)" /><g
     id="g15"
     transform="matrix(0.02982509,0,0,0.02982448,0,16.005432)" /><g
     id="g17"
     transform="matrix(0.02982509,0,0,0.02982448,0,16.005432)" /><g
     id="g19"
     transform="matrix(0.02982509,0,0,0.02982448,0,16.005432)" /><g
     id="g21"
     transform="matrix(0.02982509,0,0,0.02982448,0,16.005432)" /><g
     id="g23"
     transform="matrix(0.02982509,0,0,0.02982448,0,16.005432)" /><g
     id="g25"
     transform="matrix(0.02982509,0,0,0.02982448,0,16.005432)" /><g
     id="g27"
     transform="matrix(0.02982509,0,0,0.02982448,0,16.005432)" /><g
     id="g29"
     transform="matrix(0.02982509,0,0,0.02982448,0,16.005432)" /><g
     id="g31"
     transform="matrix(0.02982509,0,0,0.02982448,0,16.005432)" /><g
     id="g33"
     transform="matrix(0.02982509,0,0,0.02982448,0,16.005432)" /><g
     id="g35"
     transform="matrix(0.02982509,0,0,0.02982448,0,16.005432)" /><g
     id="g37"
     transform="matrix(0.02982509,0,0,0.02982448,0,16.005432)" /><g
     id="g39"
     transform="matrix(0.02982509,0,0,0.02982448,0,16.005432)" /></svg>
