<?xml version="1.0" encoding="UTF-8" standalone="no"?>
<!-- Generator: Adobe Illustrator 16.0.0, SVG Export Plug-In . SVG Version: 6.00 Build 0)  -->

<svg
   xmlns:dc="http://purl.org/dc/elements/1.1/"
   xmlns:cc="http://creativecommons.org/ns#"
   xmlns:rdf="http://www.w3.org/1999/02/22-rdf-syntax-ns#"
   xmlns:svg="http://www.w3.org/2000/svg"
   xmlns="http://www.w3.org/2000/svg"
   xmlns:sodipodi="http://sodipodi.sourceforge.net/DTD/sodipodi-0.dtd"
   xmlns:inkscape="http://www.inkscape.org/namespaces/inkscape"
   version="1.1"
   id="Capa_1"
   x="0px"
   y="0px"
   width="536.461px"
   height="536.46px"
   viewBox="0 0 536.461 536.46"
   style="enable-background:new 0 0 536.461 536.46;"
   xml:space="preserve"
   inkscape:version="0.91 r13725"
   sodipodi:docname="open.svg"
   inkscape:export-filename="/Users/zefal/Development/Universal-G-Code-Sender/ugs-platform/ugs-platform-ugscore/src/main/resources/resources/icons/open32.png"
   inkscape:export-xdpi="5.3685269"
   inkscape:export-ydpi="5.3685269"><metadata
     id="metadata45"><rdf:RDF><cc:Work
         rdf:about=""><dc:format>image/svg+xml</dc:format><dc:type
           rdf:resource="http://purl.org/dc/dcmitype/StillImage" /></cc:Work></rdf:RDF></metadata><defs
     id="defs43" /><sodipodi:namedview
     pagecolor="#ffffff"
     bordercolor="#666666"
     borderopacity="1"
     objecttolerance="10"
     gridtolerance="10"
     guidetolerance="10"
     inkscape:pageopacity="0"
     inkscape:pageshadow="2"
     inkscape:window-width="1007"
     inkscape:window-height="699"
     id="namedview41"
     showgrid="false"
     inkscape:zoom="0.43992095"
     inkscape:cx="268.2305"
     inkscape:cy="268.23001"
     inkscape:window-x="0"
     inkscape:window-y="0"
     inkscape:window-maximized="0"
     inkscape:current-layer="Capa_1" /><g
     id="g3"
     style="fill:#353a40;fill-opacity:1"><g
       id="g5"
       style="fill:#353a40;fill-opacity:1"><path
         d="M144.752,263.52c19.603-9.038,38.354-13.559,56.243-13.559h237.548v-45.683c0-17.511-6.283-32.555-18.85-45.118    c-12.565-12.562-27.596-18.842-45.11-18.842H219.266v-9.136c0-17.511-6.28-32.548-18.842-45.107    c-12.563-12.562-27.6-18.846-45.111-18.846h-91.36c-17.511,0-32.548,6.283-45.111,18.846C6.279,98.635,0,113.672,0,131.183    v274.084c0,0.764,0.049,1.955,0.144,3.576c0.094,1.615,0.144,2.807,0.144,3.566l1.426-1.704L97.93,297.637    C109.54,283.931,125.148,272.556,144.752,263.52z"
         id="path7"
         style="fill:#353a40;fill-opacity:1" /><path
         d="M528.898,290.214c-5.041-2.478-10.797-3.72-17.272-3.72H200.995c-12.562,0-26.219,3.381-40.968,10.14    c-14.75,6.766-26.219,14.986-34.401,24.701l-95.93,113.059c-5.902,6.662-8.853,12.945-8.853,18.849    c0,5.708,2.523,9.802,7.566,12.272c5.043,2.478,10.8,3.716,17.273,3.716h310.64c12.56,0,26.21-3.381,40.963-10.136    c14.75-6.756,26.214-14.989,34.399-24.701l95.931-113.059c5.899-6.663,8.846-12.939,8.846-18.849    C536.465,296.779,533.946,292.689,528.898,290.214z"
         id="path9"
         style="fill:#353a40;fill-opacity:1" /></g></g><g
     id="g11" /><g
     id="g13" /><g
     id="g15" /><g
     id="g17" /><g
     id="g19" /><g
     id="g21" /><g
     id="g23" /><g
     id="g25" /><g
     id="g27" /><g
     id="g29" /><g
     id="g31" /><g
     id="g33" /><g
     id="g35" /><g
     id="g37" /><g
     id="g39" /></svg>