<?xml version="1.0" encoding="UTF-8" standalone="no"?>
<!-- Generator: Adobe Illustrator 18.0.0, SVG Export Plug-In . SVG Version: 6.00 Build 0)  -->

<svg
   xmlns:dc="http://purl.org/dc/elements/1.1/"
   xmlns:cc="http://creativecommons.org/ns#"
   xmlns:rdf="http://www.w3.org/1999/02/22-rdf-syntax-ns#"
   xmlns:svg="http://www.w3.org/2000/svg"
   xmlns="http://www.w3.org/2000/svg"
   xmlns:sodipodi="http://sodipodi.sourceforge.net/DTD/sodipodi-0.dtd"
   xmlns:inkscape="http://www.inkscape.org/namespaces/inkscape"
   version="1.1"
   id="Capa_1"
   x="0px"
   y="0px"
   viewBox="0 0 24 24"
   xml:space="preserve"
   sodipodi:docname="outline24.svg"
   inkscape:version="0.91 r13725"
   width="24"
   height="24"><metadata
     id="metadata1717"><rdf:RDF><cc:Work
         rdf:about=""><dc:format>image/svg+xml</dc:format><dc:type
           rdf:resource="http://purl.org/dc/dcmitype/StillImage" /><dc:title></dc:title></cc:Work></rdf:RDF></metadata><defs
     id="defs1715" /><sodipodi:namedview
     pagecolor="#ffffff"
     bordercolor="#666666"
     borderopacity="1"
     objecttolerance="10"
     gridtolerance="10"
     guidetolerance="10"
     inkscape:pageopacity="0"
     inkscape:pageshadow="2"
     inkscape:window-width="1097"
     inkscape:window-height="761"
     id="namedview1713"
     showgrid="false"
     inkscape:zoom="9.7643585"
     inkscape:cx="-0.50093323"
     inkscape:cy="16.084722"
     inkscape:window-x="0"
     inkscape:window-y="0"
     inkscape:window-maximized="0"
     inkscape:current-layer="Capa_1" /><path
     inkscape:connector-curvature="0"
     id="path1678"
     d="m 14.273016,24 c -0.881858,1.62e-4 -1.727111,-0.555071 -2.055353,-1.349979 L 9.3051779,15.594667 c -0.049536,-0.119925 -0.1503838,-0.191515 -0.269899,-0.191515 -0.048403,0 -0.097293,0.01215 -0.145374,0.03621 l -2.9978991,1.498989 c -0.3053737,0.152647 -0.6651313,0.233455 -1.0405657,0.233455 -0.6465455,0 -1.2626263,-0.228202 -1.690505,-0.62602 L 0.89919797,14.442102 C 0.21434948,13.805253 -0.07906467,12.65592 0.21669291,11.768566 L 0.753501,10.158223 C 0.98267273,9.4705451 1.5652181,9.0261821 2.2376222,9.0261821 c 0.3417374,0 0.6820202,0.11418 0.9842424,0.3302625 l 2.0753941,1.4845264 c 0.076606,0.05495 0.1522423,0.06635 0.2021817,0.06635 l 0,0 c 0.115959,0 0.2203636,-0.05673 0.286303,-0.155718 0.00322,-0.0049 0.00654,-0.0098 0.00995,-0.01455 L 7.3460667,8.5239596 C 5.9392788,7.7295356 5.0204101,6.2147066 5.0204101,4.5540205 5.0204101,2.04299 7.0634001,2.36271e-8 9.5745112,2.36271e-8 11.696208,2.36271e-8 13.483764,1.458586 13.987117,3.425617 l 5.204687,-2.3889301 c 0.273132,-0.12541345 0.586991,-0.19167671 0.907961,-0.19167671 0.696403,0 1.362344,0.29446471 1.781495,0.78747481 l 0.659556,0.7761615 c 0.331555,0.3901415 0.48913,0.885899 0.443635,1.3955555 -0.04549,0.5098995 -0.288403,0.969858 -0.683959,1.2952725 l -3.775919,3.1051321 c -0.321536,0.2645655 -0.645495,0.9077175 -0.666749,1.323555 l -0.07587,1.4954344 c -0.0036,0.07112 0.01215,0.128805 0.04452,0.162748 0.03564,0.03765 0.09132,0.04557 0.13155,0.04557 0.01425,0 0.02949,-9.7e-4 0.04509,-0.0029 l 0.626183,-0.0787 c 0.300282,-0.03782 0.654546,-0.365656 0.715231,-0.66198 l 0.14376,-0.7023028 c 0.178748,-0.8720806 0.920889,-1.4810506 1.804929,-1.4810506 0.161213,0 0.322991,0.021015 0.480728,0.062625 l 0.777698,0.2051715 c 0.985938,0.260202 1.647271,1.2893746 1.473777,2.2943839 l -0.662463,3.841615 c -0.163152,0.945698 -1.036122,1.784729 -1.987637,1.910142 l -4.369293,0.576243 c -0.116445,0.01527 -0.182061,0.07596 -0.216566,0.124125 -0.03459,0.04824 -0.07095,0.12978 -0.04824,0.245091 l 0.12525,0.633293 c 0.04614,0.233293 0.30093,0.429819 0.544001,0.406384 l 2.611959,-0.242989 c 0.05874,-0.0054 0.11862,-0.0083 0.177697,-0.0083 0.987152,0 1.814869,0.73899 1.925414,1.719111 l 0.07208,0.640807 c 0.11499,1.021658 -0.614464,2.001132 -1.62602,2.183516 l -5.942702,1.072191 C 14.513097,23.989414 14.393259,24 14.273016,24 Z M 9.0353597,13.872405 c 0.738101,0 1.3993533,0.446706 1.6847673,1.138101 l 2.912566,7.055353 c 0.09026,0.218828 0.383515,0.403556 0.640323,0.403475 0.02925,0 0.05778,-0.0024 0.08428,-0.0072 l 5.942707,-1.072323 c 0.226424,-0.04096 0.402344,-0.277253 0.376565,-0.505859 l -0.07217,-0.640726 c -0.02359,-0.210102 -0.224889,-0.378344 -0.440082,-0.358142 l -2.611959,0.24299 c -0.05915,0.0055 -0.119595,0.0082 -0.179394,0.0082 -0.959676,0 -1.82303,-0.705779 -2.00808,-1.64186 l -0.12534,-0.633373 c -0.100605,-0.509414 0.0081,-1.018586 0.3061,-1.434182 0.29802,-0.415596 0.745617,-0.681697 1.260365,-0.749494 l 4.369293,-0.576243 c 0.292605,-0.03855 0.62901,-0.36194 0.679191,-0.652767 l 0.662385,-3.841536 c 0.03976,-0.230222 -0.129765,-0.494303 -0.355869,-0.553859 L 21.383401,9.8478387 c -0.0303,-0.0081 -0.06077,-0.01215 -0.09018,-0.01215 -0.125745,0 -0.268848,0.07968 -0.305212,0.2576163 l -0.14376,0.702222 c -0.194183,0.947718 -1.064324,1.753051 -2.024081,1.873777 l -0.626263,0.0787 c -0.07863,0.0098 -0.157899,0.01485 -0.235797,0.01485 -0.480647,0 -0.921375,-0.185292 -1.241132,-0.521697 -0.324201,-0.341167 -0.488887,-0.800884 -0.463675,-1.294945 l 0.07588,-1.4954344 c 0.04307,-0.8461425 0.568888,-1.890021 1.223191,-2.428203 L 21.328295,3.917368 c 0.102795,-0.08445 0.126465,-0.192243 0.13164,-0.24897 0.0051,-0.05664 6.47e-4,-0.166869 -0.08558,-0.2681205 L 20.714795,2.6239537 C 20.58881,2.4757522 20.341704,2.3760344 20.099925,2.3760344 c -0.102135,0 -0.195231,0.018101 -0.269494,0.052121 l -6.147879,2.8218656 c -0.23701,0.108765 -0.513051,0.089205 -0.732445,-0.051315 -0.219475,-0.140685 -0.352081,-0.383595 -0.352081,-0.644283 0,-1.6670703 -1.356282,-3.0233532 -3.0233531,-3.0233532 -1.6670708,0 -3.0232729,1.3562829 -3.0232729,3.0233532 0,1.3355971 0.8950304,2.5289701 2.1766466,2.9022226 0.2370101,0.069015 0.426101,0.2480805 0.5080404,0.4808895 0.081939,0.2328885 0.046383,0.490989 -0.095192,0.69309 L 7.0541072,11.609374 c -0.3501414,0.519354 -0.9305051,0.829091 -1.5543436,0.829091 -8.07e-5,0 -8.07e-5,0 -1.615e-4,0 -0.3928889,-8.1e-5 -0.7707476,-0.12186 -1.0926869,-0.35208 l -2.0755556,-1.48493 c -0.040888,-0.02918 -0.069171,-0.03927 -0.083232,-0.04275 -0.00937,0.0111 -0.026343,0.03588 -0.042263,0.08347 l -0.5368086,1.610423 c -0.104646,0.313858 0.030465,0.843232 0.2728081,1.068687 l 2.2617374,2.103516 c 0.141171,0.1314 0.3956365,0.216241 0.6479192,0.216241 0.1370505,0 0.2634344,-0.02553 0.3561213,-0.07184 l 2.9978182,-1.49907 c 0.2625454,-0.131152 0.5417375,-0.197737 0.829899,-0.197737 z"
     style="fill:#41818f;fill-opacity:1" /><g
     id="g1682"
     transform="matrix(0.08080808,0,0,0.08080808,0.07762219,2.3627106e-8)" /><g
     id="g1684"
     transform="matrix(0.08080808,0,0,0.08080808,0.07762219,2.3627106e-8)" /><g
     id="g1686"
     transform="matrix(0.08080808,0,0,0.08080808,0.07762219,2.3627106e-8)" /><g
     id="g1688"
     transform="matrix(0.08080808,0,0,0.08080808,0.07762219,2.3627106e-8)" /><g
     id="g1690"
     transform="matrix(0.08080808,0,0,0.08080808,0.07762219,2.3627106e-8)" /><g
     id="g1692"
     transform="matrix(0.08080808,0,0,0.08080808,0.07762219,2.3627106e-8)" /><g
     id="g1694"
     transform="matrix(0.08080808,0,0,0.08080808,0.07762219,2.3627106e-8)" /><g
     id="g1696"
     transform="matrix(0.08080808,0,0,0.08080808,0.07762219,2.3627106e-8)" /><g
     id="g1698"
     transform="matrix(0.08080808,0,0,0.08080808,0.07762219,2.3627106e-8)" /><g
     id="g1700"
     transform="matrix(0.08080808,0,0,0.08080808,0.07762219,2.3627106e-8)" /><g
     id="g1702"
     transform="matrix(0.08080808,0,0,0.08080808,0.07762219,2.3627106e-8)" /><g
     id="g1704"
     transform="matrix(0.08080808,0,0,0.08080808,0.07762219,2.3627106e-8)" /><g
     id="g1706"
     transform="matrix(0.08080808,0,0,0.08080808,0.07762219,2.3627106e-8)" /><g
     id="g1708"
     transform="matrix(0.08080808,0,0,0.08080808,0.07762219,2.3627106e-8)" /><g
     id="g1710"
     transform="matrix(0.08080808,0,0,0.08080808,0.07762219,2.3627106e-8)" /></svg>
