<?xml version="1.0" encoding="UTF-8" standalone="no"?>
<!-- Generator: Adobe Illustrator 18.0.0, SVG Export Plug-In . SVG Version: 6.00 Build 0)  -->

<svg
   xmlns:dc="http://purl.org/dc/elements/1.1/"
   xmlns:cc="http://creativecommons.org/ns#"
   xmlns:rdf="http://www.w3.org/1999/02/22-rdf-syntax-ns#"
   xmlns:svg="http://www.w3.org/2000/svg"
   xmlns="http://www.w3.org/2000/svg"
   xmlns:sodipodi="http://sodipodi.sourceforge.net/DTD/sodipodi-0.dtd"
   xmlns:inkscape="http://www.inkscape.org/namespaces/inkscape"
   version="1.1"
   id="Capa_1"
   x="0px"
   y="0px"
   viewBox="0 0 297 297"
   style="enable-background:new 0 0 297 297;"
   xml:space="preserve"
   sodipodi:docname="outline.svg"
   inkscape:version="0.92.4 (5da689c313, 2019-01-14)"><metadata
   id="metadata1717"><rdf:RDF><cc:Work
       rdf:about=""><dc:format>image/svg+xml</dc:format><dc:type
         rdf:resource="http://purl.org/dc/dcmitype/StillImage" /></cc:Work></rdf:RDF></metadata><defs
   id="defs1715">
	
</defs><sodipodi:namedview
   pagecolor="#ffffff"
   bordercolor="#666666"
   borderopacity="1"
   objecttolerance="10"
   gridtolerance="10"
   guidetolerance="10"
   inkscape:pageopacity="0"
   inkscape:pageshadow="2"
   inkscape:window-width="1097"
   inkscape:window-height="761"
   id="namedview1713"
   showgrid="false"
   inkscape:zoom="0.79461279"
   inkscape:cx="-5.0338983"
   inkscape:cy="148.5"
   inkscape:window-x="0"
   inkscape:window-y="0"
   inkscape:window-maximized="0"
   inkscape:current-layer="Capa_1" />
<path
   inkscape:connector-curvature="0"
   id="path1678"
   d="m 175.668,297 c -10.913,0.002 -21.373,-6.869 -25.435,-16.706 l -36.042,-87.31 c -0.613,-1.484 -1.861,-2.37 -3.34,-2.37 -0.599,0 -1.204,0.15 -1.799,0.448 l -37.099,18.55 c -3.779,1.889 -8.231,2.889 -12.877,2.889 -8.001,0 -15.625,-2.824 -20.92,-7.747 L 10.167,178.721 C 1.692,170.84 -1.939,156.617 1.721,145.636 l 6.643,-19.928 c 2.836,-8.51 10.045,-14.009 18.366,-14.009 4.229,0 8.44,1.413 12.18,4.087 l 25.683,18.371 c 0.948,0.68 1.884,0.821 2.502,0.821 v 0 c 1.435,0 2.727,-0.702 3.543,-1.927 0.04,-0.061 0.081,-0.121 0.123,-0.18 L 89.947,105.484 C 72.538,95.653 61.167,76.907 61.167,56.356 61.167,25.282 86.449,0 117.524,0 143.78,0 165.901,18.05 172.13,42.392 l 64.408,-29.563 c 3.38,-1.552 7.264,-2.372 11.236,-2.372 8.618,0 16.859,3.644 22.046,9.745 l 8.162,9.605 c 4.103,4.828 6.053,10.963 5.49,17.27 -0.563,6.31 -3.569,12.002 -8.464,16.029 l -46.727,38.426 c -3.979,3.274 -7.988,11.233 -8.251,16.379 l -0.939,18.506 c -0.045,0.88 0.151,1.594 0.551,2.014 0.441,0.466 1.13,0.564 1.628,0.564 0.177,0 0.365,-0.012 0.558,-0.036 l 7.749,-0.974 c 3.716,-0.468 8.1,-4.525 8.851,-8.192 l 1.779,-8.691 c 2.212,-10.792 11.396,-18.328 22.336,-18.328 1.995,0 3.997,0.26 5.949,0.775 l 9.624,2.539 c 12.201,3.22 20.385,15.956 18.238,28.393 l -8.198,47.54 c -2.019,11.703 -12.822,22.086 -24.597,23.638 l -54.07,7.131 c -1.441,0.189 -2.253,0.94 -2.68,1.536 -0.428,0.597 -0.878,1.606 -0.597,3.033 l 1.55,7.837 c 0.571,2.887 3.724,5.319 6.732,5.029 l 32.323,-3.007 c 0.727,-0.067 1.468,-0.103 2.199,-0.103 12.216,0 22.459,9.145 23.827,21.274 l 0.892,7.93 c 1.423,12.643 -7.604,24.764 -20.122,27.021 l -73.541,13.27 c -1.433,0.259 -2.916,0.39 -4.404,0.39 z M 110.852,171.671 c 9.134,0 17.317,5.528 20.849,14.084 l 36.043,87.31 c 1.117,2.708 4.746,4.994 7.924,4.993 0.362,0 0.715,-0.03 1.043,-0.089 l 73.541,-13.27 c 2.802,-0.507 4.979,-3.431 4.66,-6.26 l -0.893,-7.929 c -0.292,-2.6 -2.783,-4.682 -5.446,-4.432 l -32.323,3.007 c -0.732,0.068 -1.48,0.103 -2.22,0.103 -11.876,0 -22.56,-8.734 -24.85,-20.318 l -1.551,-7.838 c -1.245,-6.304 0.1,-12.605 3.788,-17.748 3.688,-5.143 9.227,-8.436 15.597,-9.275 l 54.07,-7.131 c 3.621,-0.477 7.784,-4.479 8.405,-8.078 l 8.197,-47.539 c 0.492,-2.85 -1.606,-6.118 -4.404,-6.855 l -9.623,-2.539 c -0.375,-0.1 -0.752,-0.15 -1.116,-0.15 -1.556,0 -3.327,0.986 -3.777,3.188 l -1.779,8.69 c -2.403,11.728 -13.171,21.694 -25.048,23.188 l -7.75,0.974 c -0.973,0.121 -1.954,0.184 -2.918,0.184 -5.948,0 -11.402,-2.293 -15.359,-6.456 -4.012,-4.222 -6.05,-9.911 -5.738,-16.025 l 0.939,-18.506 c 0.533,-10.471 7.04,-23.389 15.137,-30.049 l 46.727,-38.427 c 1.272,-1.045 1.565,-2.379 1.629,-3.081 0.063,-0.701 0.008,-2.065 -1.059,-3.318 l -8.162,-9.607 c -1.559,-1.834 -4.617,-3.068 -7.609,-3.068 -1.264,0 -2.416,0.224 -3.335,0.645 l -76.08,34.92 c -2.933,1.346 -6.349,1.104 -9.064,-0.635 -2.716,-1.741 -4.357,-4.747 -4.357,-7.973 0,-20.63 -16.784,-37.414 -37.414,-37.414 -20.63,0 -37.413,16.784 -37.413,37.414 0,16.528 11.076,31.296 26.936,35.915 2.933,0.854 5.273,3.07 6.287,5.951 1.014,2.882 0.574,6.076 -1.178,8.577 l -25.824,36.862 c -4.333,6.427 -11.515,10.26 -19.235,10.26 -0.001,0 -0.001,0 -0.002,0 -4.862,-10e-4 -9.538,-1.508 -13.522,-4.357 L 27.89,131.193 c -0.506,-0.361 -0.856,-0.486 -1.03,-0.529 -0.116,0.138 -0.326,0.444 -0.523,1.033 l -6.643,19.929 c -1.295,3.884 0.377,10.435 3.376,13.225 l 27.989,26.031 c 1.747,1.626 4.896,2.676 8.018,2.676 1.696,0 3.26,-0.316 4.407,-0.889 l 37.098,-18.551 c 3.249,-1.623 6.704,-2.447 10.27,-2.447 z"
   style="fill:#353a40;fill-opacity:1" />
<g
   id="g1682">
</g>
<g
   id="g1684">
</g>
<g
   id="g1686">
</g>
<g
   id="g1688">
</g>
<g
   id="g1690">
</g>
<g
   id="g1692">
</g>
<g
   id="g1694">
</g>
<g
   id="g1696">
</g>
<g
   id="g1698">
</g>
<g
   id="g1700">
</g>
<g
   id="g1702">
</g>
<g
   id="g1704">
</g>
<g
   id="g1706">
</g>
<g
   id="g1708">
</g>
<g
   id="g1710">
</g>
</svg>
