<?xml version="1.0" encoding="UTF-8" standalone="no"?>
<!-- Generator: Adobe Illustrator 18.0.0, SVG Export Plug-In . SVG Version: 6.00 Build 0)  -->

<svg
   xmlns:dc="http://purl.org/dc/elements/1.1/"
   xmlns:cc="http://creativecommons.org/ns#"
   xmlns:rdf="http://www.w3.org/1999/02/22-rdf-syntax-ns#"
   xmlns:svg="http://www.w3.org/2000/svg"
   xmlns="http://www.w3.org/2000/svg"
   xmlns:sodipodi="http://sodipodi.sourceforge.net/DTD/sodipodi-0.dtd"
   xmlns:inkscape="http://www.inkscape.org/namespaces/inkscape"
   version="1.1"
   id="Capa_1"
   x="0px"
   y="0px"
   viewBox="0 0 16 16"
   xml:space="preserve"
   sodipodi:docname="outline.svg"
   inkscape:version="0.91 r13725"
   width="16"
   height="16"><metadata
     id="metadata1717"><rdf:RDF><cc:Work
         rdf:about=""><dc:format>image/svg+xml</dc:format><dc:type
           rdf:resource="http://purl.org/dc/dcmitype/StillImage" /><dc:title></dc:title></cc:Work></rdf:RDF></metadata><defs
     id="defs1715" /><sodipodi:namedview
     pagecolor="#ffffff"
     bordercolor="#666666"
     borderopacity="1"
     objecttolerance="10"
     gridtolerance="10"
     guidetolerance="10"
     inkscape:pageopacity="0"
     inkscape:pageshadow="2"
     inkscape:window-width="1097"
     inkscape:window-height="761"
     id="namedview1713"
     showgrid="false"
     inkscape:zoom="9.7643585"
     inkscape:cx="-0.50093323"
     inkscape:cy="16.084722"
     inkscape:window-x="0"
     inkscape:window-y="0"
     inkscape:window-maximized="0"
     inkscape:current-layer="Capa_1" /><path
     inkscape:connector-curvature="0"
     id="path1678"
     d="M 9.549344,16 C 8.9614383,16.000108 8.3979366,15.629953 8.1791084,15.100014 L 6.2374518,10.396445 c -0.033024,-0.07995 -0.1002559,-0.127677 -0.1799327,-0.127677 -0.032269,0 -0.064862,0.0081 -0.096916,0.02414 l -1.9985993,0.999326 c -0.2035825,0.101765 -0.4434209,0.155637 -0.6937105,0.155637 -0.4310303,0 -0.8417508,-0.152135 -1.1270033,-0.417347 L 0.6334653,9.6280678 C 0.17689965,9.2035021 -0.01870978,8.4372799 0.17846194,7.8457109 L 0.53633399,6.7721486 C 0.68911514,6.3136974 1.0774787,6.017455 1.5257481,6.017455 c 0.2278249,0 0.4546801,0.076121 0.6561616,0.2201751 l 1.383596,0.9896835 c 0.051071,0.036633 0.1014949,0.044229 0.1347878,0.044229 l 0,0 c 0.077306,0 0.1469091,-0.037818 0.1908687,-0.1038114 0.00215,-0.00329 0.00436,-0.00652 0.00663,-0.0097 L 4.9313777,5.6826402 C 3.9935191,5.153024 3.38094,4.1431385 3.38094,3.0360139 3.38094,1.3619937 4.7429333,4.3650265e-7 6.4170073,4.3650265e-7 7.831472,4.3650265e-7 9.0231757,0.97239101 9.3587447,2.2837445 L 12.828536,0.69112501 c 0.182088,-0.0836094 0.391327,-0.12778451 0.605307,-0.12778451 0.464269,0 0.908229,0.19630977 1.187663,0.5249832 l 0.439704,0.517441 c 0.221037,0.2600943 0.326087,0.5905994 0.295757,0.9303704 -0.03033,0.3399327 -0.192269,0.6465724 -0.455973,0.8635152 l -2.517279,2.0700875 c -0.214357,0.1763771 -0.43033,0.6051448 -0.444499,0.8823704 l -0.05058,0.9969562 c -0.0024,0.047407 0.0081,0.085872 0.02968,0.1084983 0.02376,0.025104 0.06088,0.030384 0.0877,0.030384 0.0095,0 0.01966,-6.465e-4 0.03006,-0.00194 l 0.417455,-0.052471 c 0.200188,-0.025212 0.436364,-0.2437711 0.476821,-0.4413199 l 0.09584,-0.468202 c 0.119165,-0.5813872 0.613926,-0.987367 1.203286,-0.987367 0.107475,0 0.215327,0.014007 0.320485,0.041751 l 0.518465,0.1367812 c 0.657292,0.173468 1.098181,0.8595825 0.982518,1.5295892 L 15.609304,9.8058455 C 15.500536,10.43631 14.918556,10.995664 14.284213,11.079273 l -2.912862,0.384162 c -0.07763,0.01018 -0.121374,0.05064 -0.144377,0.08275 -0.02306,0.03216 -0.0473,0.08652 -0.03216,0.163394 l 0.0835,0.422195 c 0.03076,0.155529 0.20062,0.286546 0.362667,0.270923 l 1.741306,-0.161993 c 0.03916,-0.0036 0.07908,-0.0055 0.118465,-0.0055 0.658101,0 1.209912,0.49266 1.283609,1.146074 l 0.04805,0.427205 c 0.07666,0.681105 -0.409643,1.334088 -1.084013,1.455677 L 9.7865966,15.97899 C 9.7093979,15.992943 9.6295057,16 9.549344,16 Z M 6.057573,9.2482698 c 0.4920673,0 0.9329024,0.2978047 1.1231784,0.7587342 l 1.9417105,4.703569 c 0.060175,0.145885 0.2556768,0.269037 0.4268821,0.268983 0.019502,0 0.038519,-0.0016 0.056189,-0.0048 l 3.961805,-0.714882 c 0.150949,-0.02731 0.268229,-0.184835 0.251043,-0.337239 l -0.04811,-0.427151 c -0.01573,-0.140068 -0.149926,-0.252229 -0.293388,-0.238761 l -1.741306,0.161993 c -0.03943,0.0037 -0.07973,0.0055 -0.119596,0.0055 -0.639784,0 -1.215353,-0.470519 -1.33872,-1.094573 l -0.08356,-0.422249 c -0.06707,-0.339609 0.0054,-0.679057 0.204067,-0.956121 0.19868,-0.277064 0.497078,-0.454465 0.840243,-0.499663 l 2.912862,-0.384162 c 0.19507,-0.0257 0.41934,-0.2412928 0.452794,-0.4351783 l 0.44159,-2.5610236 C 15.071769,6.9177647 14.958745,6.7417109 14.808011,6.7020072 L 14.2896,6.565226 c -0.0202,-0.00539 -0.04051,-0.00808 -0.06012,-0.00808 -0.08383,0 -0.179232,0.053118 -0.203475,0.1717441 l -0.09584,0.4681482 C 13.80071,7.8288497 13.220616,8.3657386 12.580778,8.4462234 l -0.417509,0.052471 c -0.05242,0.00652 -0.105266,0.00991 -0.157198,0.00991 -0.320431,0 -0.61425,-0.1235286 -0.827421,-0.347798 C 10.962516,7.9333607 10.852725,7.6268826 10.869533,7.2975088 l 0.05059,-0.9969562 c 0.02871,-0.5640943 0.379259,-1.2600135 0.815461,-1.6188013 l 2.517279,-2.0701414 c 0.06853,-0.056296 0.08431,-0.1281617 0.08776,-0.1659798 0.0034,-0.037764 4.31e-4,-0.1112458 -0.05705,-0.1787475 l -0.43971,-0.5175488 c -0.08399,-0.098801 -0.248727,-0.1652795 -0.409913,-0.1652795 -0.06809,0 -0.130154,0.012067 -0.179663,0.034747 L 9.1557009,3.5000139 C 8.9976942,3.5725257 8.8136673,3.5594886 8.6674046,3.4658051 8.5210881,3.3720139 8.4326841,3.2100745 8.4326841,3.0362833 c 0,-1.1113805 -0.9041885,-2.0155691 -2.015569,-2.0155691 -1.1113805,0 -2.0155152,0.9041886 -2.0155152,2.0155691 0,0.8903973 0.5966869,1.6859798 1.4510977,1.9348148 0.1580067,0.046007 0.2840673,0.1653872 0.3386936,0.3205926 0.054626,0.1552592 0.030922,0.3273266 -0.063461,0.4620606 L 4.736738,7.7395829 C 4.5033104,8.0858186 4.1164013,8.2923102 3.700509,8.2923102 c -5.38e-5,0 -5.38e-5,0 -1.077e-4,0 C 3.4384754,8.2922563 3.1865696,8.2110711 2.9719434,8.0575897 L 1.5882397,7.0676368 c -0.027259,-0.019448 -0.046114,-0.026182 -0.055488,-0.028498 -0.00625,0.00743 -0.017562,0.023919 -0.028175,0.05565 L 1.1467043,8.1684045 c -0.069764,0.209239 0.02031,0.5621548 0.1818721,0.7124579 l 1.5078249,1.4023436 c 0.094114,0.0876 0.2637576,0.144161 0.4319461,0.144161 0.091367,0 0.1756229,-0.01702 0.2374142,-0.04789 L 5.504307,9.3800947 C 5.6793373,9.2926604 5.8654653,9.2482698 6.057573,9.2482698 Z"
     style="fill:#353a40;fill-opacity:1" /><g
     id="g1682"
     transform="matrix(0.05387205,0,0,0.05387205,0.08574813,4.3650265e-7)" /><g
     id="g1684"
     transform="matrix(0.05387205,0,0,0.05387205,0.08574813,4.3650265e-7)" /><g
     id="g1686"
     transform="matrix(0.05387205,0,0,0.05387205,0.08574813,4.3650265e-7)" /><g
     id="g1688"
     transform="matrix(0.05387205,0,0,0.05387205,0.08574813,4.3650265e-7)" /><g
     id="g1690"
     transform="matrix(0.05387205,0,0,0.05387205,0.08574813,4.3650265e-7)" /><g
     id="g1692"
     transform="matrix(0.05387205,0,0,0.05387205,0.08574813,4.3650265e-7)" /><g
     id="g1694"
     transform="matrix(0.05387205,0,0,0.05387205,0.08574813,4.3650265e-7)" /><g
     id="g1696"
     transform="matrix(0.05387205,0,0,0.05387205,0.08574813,4.3650265e-7)" /><g
     id="g1698"
     transform="matrix(0.05387205,0,0,0.05387205,0.08574813,4.3650265e-7)" /><g
     id="g1700"
     transform="matrix(0.05387205,0,0,0.05387205,0.08574813,4.3650265e-7)" /><g
     id="g1702"
     transform="matrix(0.05387205,0,0,0.05387205,0.08574813,4.3650265e-7)" /><g
     id="g1704"
     transform="matrix(0.05387205,0,0,0.05387205,0.08574813,4.3650265e-7)" /><g
     id="g1706"
     transform="matrix(0.05387205,0,0,0.05387205,0.08574813,4.3650265e-7)" /><g
     id="g1708"
     transform="matrix(0.05387205,0,0,0.05387205,0.08574813,4.3650265e-7)" /><g
     id="g1710"
     transform="matrix(0.05387205,0,0,0.05387205,0.08574813,4.3650265e-7)" /></svg>
