<?xml version="1.0" encoding="UTF-8" standalone="no"?>
<!-- Generator: Adobe Illustrator 18.0.0, SVG Export Plug-In . SVG Version: 6.00 Build 0)  -->

<svg
   xmlns:dc="http://purl.org/dc/elements/1.1/"
   xmlns:cc="http://creativecommons.org/ns#"
   xmlns:rdf="http://www.w3.org/1999/02/22-rdf-syntax-ns#"
   xmlns:svg="http://www.w3.org/2000/svg"
   xmlns="http://www.w3.org/2000/svg"
   xmlns:sodipodi="http://sodipodi.sourceforge.net/DTD/sodipodi-0.dtd"
   xmlns:inkscape="http://www.inkscape.org/namespaces/inkscape"
   version="1.1"
   id="Capa_1"
   x="0px"
   y="0px"
   viewBox="0 0 32 32"
   xml:space="preserve"
   sodipodi:docname="outline32.svg"
   inkscape:version="0.91 r13725"
   width="32"
   height="32"><metadata
     id="metadata1717"><rdf:RDF><cc:Work
         rdf:about=""><dc:format>image/svg+xml</dc:format><dc:type
           rdf:resource="http://purl.org/dc/dcmitype/StillImage" /><dc:title></dc:title></cc:Work></rdf:RDF></metadata><defs
     id="defs1715" /><sodipodi:namedview
     pagecolor="#ffffff"
     bordercolor="#666666"
     borderopacity="1"
     objecttolerance="10"
     gridtolerance="10"
     guidetolerance="10"
     inkscape:pageopacity="0"
     inkscape:pageshadow="2"
     inkscape:window-width="1097"
     inkscape:window-height="761"
     id="namedview1713"
     showgrid="false"
     inkscape:zoom="9.7643585"
     inkscape:cx="7.6921293"
     inkscape:cy="16.084722"
     inkscape:window-x="0"
     inkscape:window-y="0"
     inkscape:window-maximized="0"
     inkscape:current-layer="Capa_1" /><path
     inkscape:connector-curvature="0"
     id="path1678"
     d="m 18.996688,32 c -1.175811,2.16e-4 -2.302815,-0.740095 -2.740471,-1.799972 l -3.883313,-9.407139 c -0.06605,-0.1599 -0.200512,-0.255353 -0.359865,-0.255353 -0.06454,0 -0.129724,0.0162 -0.193832,0.04828 l -3.9971993,1.998652 c -0.4071649,0.203529 -0.8868417,0.311273 -1.3874209,0.311273 -0.8620607,0 -1.6835017,-0.304269 -2.2540067,-0.834693 L 1.1649306,19.256136 C 0.25179931,18.407004 -0.13941956,16.87456 0.25492388,15.691421 L 0.970668,13.544297 c 0.3055623,-0.916904 1.0822895,-1.509388 1.9788283,-1.509388 0.4556498,0 0.9093602,0.15224 1.3123232,0.440351 l 2.7671921,1.979368 c 0.1021413,0.07327 0.2029897,0.08847 0.2695756,0.08847 l 0,0 c 0.154612,0 0.2938181,-0.07564 0.3817373,-0.207624 0.00429,-0.0065 0.00872,-0.01307 0.013267,-0.0194 L 9.7607556,11.36528 C 7.8850384,10.306048 6.6598801,8.286276 6.6598801,6.072028 6.6598801,2.7239867 9.3838668,3.5440619e-8 12.732015,3.5440619e-8 15.560944,3.5440619e-8 17.944352,1.9447814 18.615489,4.5674894 l 6.939583,-3.1852402 c 0.364176,-0.1672178 0.782655,-0.2555689 1.210615,-0.2555689 0.928537,0 1.816458,0.3926196 2.375326,1.0499664 l 0.879408,1.0348827 c 0.442074,0.520188 0.652174,1.1811986 0.591514,1.86074 -0.06065,0.6798666 -0.384538,1.293144 -0.911946,1.7270293 l -5.034558,4.1401773 c -0.428715,0.352753 -0.86066,1.210289 -0.888999,1.76474 l -0.10116,1.993912 c -0.0048,0.09483 0.0162,0.17174 0.05936,0.216997 0.04752,0.0502 0.12176,0.06076 0.1754,0.06076 0.019,0 0.03932,-0.0013 0.06012,-0.0039 l 0.834911,-0.104934 c 0.400376,-0.05043 0.872728,-0.487541 0.953641,-0.88264 l 0.19168,-0.936404 c 0.238331,-1.162773 1.227852,-1.974733 2.406572,-1.974733 0.214951,0 0.430655,0.02801 0.640971,0.08349 l 1.03693,0.273562 c 1.314584,0.346936 2.196362,1.719166 1.965036,3.059178 l -0.883284,5.122154 c -0.217536,1.26093 -1.381496,2.379638 -2.650182,2.546856 l -5.825724,0.768324 c -0.15526,0.02036 -0.242748,0.10128 -0.288755,0.1655 -0.04612,0.06432 -0.0946,0.17304 -0.06432,0.326788 l 0.167,0.84439 c 0.06152,0.311058 0.40124,0.573092 0.725335,0.541846 l 3.482612,-0.323986 c 0.07832,-0.0072 0.15816,-0.01107 0.236929,-0.01107 1.316203,0 2.419825,0.98532 2.567219,2.292148 l 0.09611,0.854409 c 0.15332,1.362211 -0.819285,2.668176 -2.168026,2.911355 L 19.4712,31.957853 C 19.316796,31.985885 19.157012,32 18.996688,32 Z M 12.013146,18.49654 c 0.984135,0 1.865805,0.595608 2.246357,1.517468 l 3.883421,9.407137 c 0.120347,0.291771 0.511353,0.538075 0.853764,0.537967 0.039,0 0.07704,-0.0032 0.112373,-0.0096 l 7.92361,-1.429764 c 0.301898,-0.05461 0.536458,-0.369671 0.502086,-0.674479 l -0.09623,-0.854301 c -0.03145,-0.280136 -0.299852,-0.504459 -0.586776,-0.477523 l -3.482612,0.323987 c -0.07887,0.0073 -0.15946,0.01093 -0.239192,0.01093 -1.279568,0 -2.430707,-0.941038 -2.67744,-2.189146 l -0.16712,-0.844498 c -0.13414,-0.679218 0.0108,-1.358114 0.408133,-1.912242 0.39736,-0.554128 0.994156,-0.90893 1.680487,-0.999326 l 5.825724,-0.768324 c 0.39014,-0.0514 0.83868,-0.482586 0.905588,-0.870356 l 0.88318,-5.122048 c 0.05301,-0.306962 -0.17302,-0.65907 -0.474492,-0.738478 l -1.03681,-0.273495 c -0.0404,-0.0108 -0.08103,-0.0162 -0.12024,-0.0162 -0.16766,0 -0.358464,0.10624 -0.406949,0.343488 l -0.19168,0.936296 c -0.258911,1.263624 -1.419099,2.337401 -2.698775,2.498369 l -0.835017,0.104934 c -0.10484,0.01307 -0.210532,0.0198 -0.314396,0.0198 -0.640863,0 -1.2285,-0.247056 -1.654843,-0.695596 -0.432268,-0.45489 -0.651849,-1.067846 -0.618233,-1.726594 l 0.101173,-1.993912 c 0.05743,-1.12819 0.758518,-2.520028 1.630922,-3.2376036 l 5.034564,-4.140276 c 0.13706,-0.1126 0.16862,-0.256324 0.17552,-0.33196 0.0068,-0.07552 8.62e-4,-0.222492 -0.114107,-0.3574934 L 27.585727,3.4986054 c -0.16798,-0.1976027 -0.497455,-0.33056 -0.819827,-0.33056 -0.13618,0 -0.260308,0.024133 -0.359325,0.069493 l -8.197172,3.762488 C 17.893389,7.1450467 17.525335,7.11896 17.232809,6.9316 16.940176,6.74402 16.763368,6.42014 16.763368,6.072556 c 0,-2.22276 -1.808376,-4.0311376 -4.031137,-4.0311376 -2.222762,0 -4.031031,1.8083776 -4.031031,4.0311376 0,1.780796 1.1933739,3.37196 2.902195,3.8696307 0.316014,0.092026 0.568135,0.3307733 0.677388,0.6411853 0.109252,0.310519 0.06184,0.654652 -0.126923,0.92412 l -2.7823837,3.971665 c -0.4668552,0.692472 -1.2406735,1.105455 -2.0724582,1.105455 -1.076e-4,0 -1.076e-4,0 -2.153e-4,0 -0.5238519,-1.08e-4 -1.0276635,-0.16248 -1.4569159,-0.46944 L 3.0744795,14.135265 c -0.054517,-0.03891 -0.092228,-0.05236 -0.110976,-0.057 -0.012493,0.0148 -0.035124,0.04784 -0.056351,0.111294 L 2.191408,16.336797 c -0.139528,0.418478 0.04062,1.12431 0.3637441,1.424916 l 3.0156499,2.804688 c 0.188228,0.1752 0.5275153,0.288322 0.8638923,0.288322 0.182734,0 0.3512458,-0.03404 0.4748284,-0.09579 l 3.9970913,-1.99876 c 0.35006,-0.174869 0.722316,-0.263649 1.106532,-0.263649 z"
     style="fill:#353a40;fill-opacity:1" /><g
     id="g1682"
     transform="matrix(0.10774411,0,0,0.10774411,0.06949625,3.5440621e-8)" /><g
     id="g1684"
     transform="matrix(0.10774411,0,0,0.10774411,0.06949625,3.5440621e-8)" /><g
     id="g1686"
     transform="matrix(0.10774411,0,0,0.10774411,0.06949625,3.5440621e-8)" /><g
     id="g1688"
     transform="matrix(0.10774411,0,0,0.10774411,0.06949625,3.5440621e-8)" /><g
     id="g1690"
     transform="matrix(0.10774411,0,0,0.10774411,0.06949625,3.5440621e-8)" /><g
     id="g1692"
     transform="matrix(0.10774411,0,0,0.10774411,0.06949625,3.5440621e-8)" /><g
     id="g1694"
     transform="matrix(0.10774411,0,0,0.10774411,0.06949625,3.5440621e-8)" /><g
     id="g1696"
     transform="matrix(0.10774411,0,0,0.10774411,0.06949625,3.5440621e-8)" /><g
     id="g1698"
     transform="matrix(0.10774411,0,0,0.10774411,0.06949625,3.5440621e-8)" /><g
     id="g1700"
     transform="matrix(0.10774411,0,0,0.10774411,0.06949625,3.5440621e-8)" /><g
     id="g1702"
     transform="matrix(0.10774411,0,0,0.10774411,0.06949625,3.5440621e-8)" /><g
     id="g1704"
     transform="matrix(0.10774411,0,0,0.10774411,0.06949625,3.5440621e-8)" /><g
     id="g1706"
     transform="matrix(0.10774411,0,0,0.10774411,0.06949625,3.5440621e-8)" /><g
     id="g1708"
     transform="matrix(0.10774411,0,0,0.10774411,0.06949625,3.5440621e-8)" /><g
     id="g1710"
     transform="matrix(0.10774411,0,0,0.10774411,0.06949625,3.5440621e-8)" /></svg>
