<svg version="1.1" viewBox="0 0 16 16" width="24" height="24" xmlns="http://www.w3.org/2000/svg">
 <g fill="#565656">
  <path transform="matrix(.22835 0 0 .22835 -.28087 0)" d="m65.094 32.195h-6.982-0.934c-2.064 0-3.738 1.674-3.738 3.745v0.406c0 2.073 1.674 3.748 3.741 3.748h6.989 0.924c2.068 0 3.747-1.682 3.747-3.748l-4e-3 -0.411c4e-3 -2.066-1.675-3.74-3.743-3.74z"/>
  <path transform="matrix(.22835 0 0 .22835 -.28087 0)" d="m65.098 22.852h-1.649v-18.118c0-2.604-2.13-4.734-4.735-4.734h-31.239c-2.604 0-4.734 2.131-4.734 4.734v12.999c-6.301 3.562-12.8 7.283-12.814 7.292-3.528 1.452-8.697 6.137-8.697 17.2 0 0.988 0.065 1.9 0.156 2.781 0.029 0.258 0.061 0.506 0.096 0.755 0.091 0.647 0.205 1.266 0.341 1.854 0.049 0.21 0.087 0.429 0.14 0.63 0.183 0.68 0.395 1.318 0.633 1.925 0.12 0.301 0.25 0.575 0.381 0.857 0.14 0.297 0.281 0.589 0.432 0.862 0.175 0.329 0.35 0.646 0.542 0.947 0.046 0.07 0.096 0.134 0.143 0.205 4.556 6.887 12.961 6.918 12.961 6.918h5.686v5.379c0 2.601 2.13 4.731 4.734 4.731h31.238c2.605 0 4.735-2.131 4.735-4.731v-6.561h0.722v-4e-3h0.921c2.071 0 3.75-1.675 3.746-3.746l4e-3 -0.408c-4e-3 -2.068-1.679-3.738-3.747-3.738h-0.924-6.059-0.934c-2.068 0-3.738 1.674-3.738 3.741v0.415c0 2.062 1.674 3.743 3.741 3.743h2.974v2.534h-34.12v-33.991c1.714-1.087 3.301-2.133 4.206-2.834 4.585-3.546 8.937-6.37 9.526-8.931 0.767-3.323-1.784-6.123-6.209-3.824-1.394 0.724-4.255 2.311-7.523 4.146v-8.378l34.12 5e-3v15.343h-2.043v4e-3h-0.929c-2.069 0-3.748 1.674-3.748 3.747v0.406c0 2.072 1.679 3.742 3.743 3.742h0.929 6.059 0.931c2.066 0 3.741-1.674 3.741-3.742v-0.417c4e-3 -2.059-1.67-3.738-3.739-3.738zm-22.008 40.124c1.312 0 2.37 1.059 2.37 2.368 0 1.312-1.059 2.367-2.37 2.367-1.307 0-2.363-1.058-2.363-2.367 2e-3 -1.305 1.061-2.368 2.363-2.368zm5.003-58.418h-9.996c-0.314 0-0.574-0.255-0.574-0.57 0-0.32 0.26-0.575 0.574-0.575h9.996c0.314 0 0.57 0.254 0.57 0.575 0 0.314-0.256 0.57-0.57 0.57z"/>
  <path transform="matrix(.22835 0 0 .22835 -.28087 0)" d="m65.094 41.538h-0.924-6.992c-2.064 0-3.743 1.679-3.743 3.746v0.41c0 2.069 1.675 3.743 3.743 3.743h0.929 6.059 0.926c2.071 0 3.741-1.674 3.746-3.743v-0.41c-1e-3 -2.067-1.671-3.746-3.744-3.746z"/>
 </g>
</svg>
