<?xml version="1.0" encoding="UTF-8" standalone="no"?>
<!-- Generator: Adobe Illustrator 19.0.0, SVG Export Plug-In . SVG Version: 6.00 Build 0)  -->

<svg
   xmlns:dc="http://purl.org/dc/elements/1.1/"
   xmlns:cc="http://creativecommons.org/ns#"
   xmlns:rdf="http://www.w3.org/1999/02/22-rdf-syntax-ns#"
   xmlns:svg="http://www.w3.org/2000/svg"
   xmlns="http://www.w3.org/2000/svg"
   xmlns:sodipodi="http://sodipodi.sourceforge.net/DTD/sodipodi-0.dtd"
   xmlns:inkscape="http://www.inkscape.org/namespaces/inkscape"
   version="1.1"
   id="Capa_1"
   x="0px"
   y="0px"
   viewBox="0 0 16 16"
   xml:space="preserve"
   inkscape:version="0.91 r13725"
   sodipodi:docname="refresh.svg"
   width="16"
   height="16"><metadata
     id="metadata49"><rdf:RDF><cc:Work
         rdf:about=""><dc:format>image/svg+xml</dc:format><dc:type
           rdf:resource="http://purl.org/dc/dcmitype/StillImage" /><dc:title></dc:title></cc:Work></rdf:RDF></metadata><defs
     id="defs47" /><sodipodi:namedview
     pagecolor="#ffffff"
     bordercolor="#666666"
     borderopacity="1"
     objecttolerance="10"
     gridtolerance="10"
     guidetolerance="10"
     inkscape:pageopacity="0"
     inkscape:pageshadow="2"
     inkscape:window-width="1117"
     inkscape:window-height="811"
     id="namedview45"
     showgrid="false"
     inkscape:zoom="25.547051"
     inkscape:cx="9.772761"
     inkscape:cy="7.7315023"
     inkscape:window-x="0"
     inkscape:window-y="0"
     inkscape:window-maximized="0"
     inkscape:current-layer="Capa_1" /><g
     id="g3"
     transform="matrix(0.03125,0,0,0.03125,2.4723065e-4,0)"
     style="fill:#0ac9f1;fill-opacity:1"><g
       id="g5"
       style="fill:#0ac9f1;fill-opacity:1"><path
         d="M 463.702,162.655 442.491,14.164 C 440.747,1.99 425.784,-3.069 417.032,5.683 L 386.138,36.577 C 346.411,12.612 301.309,0 254.932,0 115.464,0 3.491,109.16 0.005,248.511 c -0.19,7.617 5.347,14.15 12.876,15.234 l 59.941,8.569 c 8.936,1.304 17.249,-5.712 17.125,-15.058 C 88.704,165.286 162.986,90 254.932,90 c 22.265,0 44.267,4.526 64.6,13.183 l -29.78,29.78 c -8.697,8.697 -3.761,23.706 8.481,25.459 l 148.491,21.211 c 9.784,1.475 18.381,-7.034 16.978,-16.978 z"
         id="path7"
         inkscape:connector-curvature="0"
         style="fill:#0ac9f1;fill-opacity:1" /></g></g><g
     id="g9"
     transform="matrix(0.03125,0,0,0.03125,2.4723065e-4,0)"
     style="fill:#0ac9f1;fill-opacity:1"><g
       id="g11"
       style="fill:#0ac9f1;fill-opacity:1"><path
         d="m 499.117,249.412 -59.897,-8.555 c -7.738,-0.98 -17.124,5.651 -17.124,16.143 0,90.981 -74.019,165 -165,165 -22.148,0 -44.048,-4.482 -64.306,-13.052 l 28.828,-28.828 c 8.697,-8.697 3.761,-23.706 -8.481,-25.459 L 64.646,333.435 c -9.753,-1.393 -18.39,6.971 -16.978,16.978 l 21.21,148.492 c 1.746,12.187 16.696,17.212 25.459,8.481 l 31.641,-31.626 c 39.536,23.745 84.609,36.24 131.118,36.24 138.794,0 250.752,-108.618 254.897,-247.28 0.22,-7.632 -5.317,-14.224 -12.876,-15.308 z"
         id="path13"
         inkscape:connector-curvature="0"
         style="fill:#0ac9f1;fill-opacity:1" /></g></g><g
     id="g15"
     transform="matrix(0.03125,0,0,0.03125,2.4723065e-4,0)"
     style="fill:#0ac9f1;fill-opacity:1" /><g
     id="g17"
     transform="matrix(0.03125,0,0,0.03125,2.4723065e-4,0)"
     style="fill:#0ac9f1;fill-opacity:1" /><g
     id="g19"
     transform="matrix(0.03125,0,0,0.03125,2.4723065e-4,0)"
     style="fill:#0ac9f1;fill-opacity:1" /><g
     id="g21"
     transform="matrix(0.03125,0,0,0.03125,2.4723065e-4,0)"
     style="fill:#0ac9f1;fill-opacity:1" /><g
     id="g23"
     transform="matrix(0.03125,0,0,0.03125,2.4723065e-4,0)"
     style="fill:#0ac9f1;fill-opacity:1" /><g
     id="g25"
     transform="matrix(0.03125,0,0,0.03125,2.4723065e-4,0)"
     style="fill:#0ac9f1;fill-opacity:1" /><g
     id="g27"
     transform="matrix(0.03125,0,0,0.03125,2.4723065e-4,0)"
     style="fill:#0ac9f1;fill-opacity:1" /><g
     id="g29"
     transform="matrix(0.03125,0,0,0.03125,2.4723065e-4,0)"
     style="fill:#0ac9f1;fill-opacity:1" /><g
     id="g31"
     transform="matrix(0.03125,0,0,0.03125,2.4723065e-4,0)"
     style="fill:#0ac9f1;fill-opacity:1" /><g
     id="g33"
     transform="matrix(0.03125,0,0,0.03125,2.4723065e-4,0)"
     style="fill:#0ac9f1;fill-opacity:1" /><g
     id="g35"
     transform="matrix(0.03125,0,0,0.03125,2.4723065e-4,0)"
     style="fill:#0ac9f1;fill-opacity:1" /><g
     id="g37"
     transform="matrix(0.03125,0,0,0.03125,2.4723065e-4,0)"
     style="fill:#0ac9f1;fill-opacity:1" /><g
     id="g39"
     transform="matrix(0.03125,0,0,0.03125,2.4723065e-4,0)"
     style="fill:#0ac9f1;fill-opacity:1" /><g
     id="g41"
     transform="matrix(0.03125,0,0,0.03125,2.4723065e-4,0)"
     style="fill:#0ac9f1;fill-opacity:1" /><g
     id="g43"
     transform="matrix(0.03125,0,0,0.03125,2.4723065e-4,0)"
     style="fill:#0ac9f1;fill-opacity:1" /></svg>
