<?xml version="1.0" encoding="UTF-8"?>
<svg width="16" height="16" version="1.1" viewBox="0 0 16 16" xmlns="http://www.w3.org/2000/svg">
 <g transform="translate(0 -161.17)" display="none">
  <rect y="-6.925e-5" width="177.17" height="177.17" fill="#565656" opacity=".573" stroke="#565656"/>
 </g>
 <g transform="matrix(.10328 0 0 .10328 -1.5595 -91.539)">
  <g transform="translate(-14.981 -9.1155)">
   <text x="30.080488" y="1021.2425" fill="#565656" font-family="opensans" font-size="28.94px" letter-spacing="0px" stroke-width=".72351px" word-spacing="0px" style="line-height:0%" xml:space="preserve"><tspan x="30.080488" y="1021.2425" fill="#565656" font-family="sans-serif" font-size="135.66px" font-weight="bold" stroke-width=".72351px">C</tspan></text>
   <rect x="30.08" y="895.44" width="154.92" height="154.92" fill="none"/>
   <g transform="matrix(1.895 0 0 2.1524 -3693.4 426.67)" fill="#565656" stroke-width="1px">
    <path d="m2026.5 231.23h10.031q4.1016 0 7.0313 2.9531 2.9531 2.9531 2.9531 7.0312v25.031q0 4.0547-2.9531 7.0312-2.9297 2.9531-7.0313 2.9531h-10.031q-4.1016 0-7.0547-2.9297-2.9297-2.9531-2.9297-7.0547v-25.031q0-4.1016 2.9297-7.0312 2.9531-2.9531 7.0547-2.9531zm0.1171 35.789q0.375 2.0859 1.5938 3.1406 1.2422 1.0547 3.3047 1.0547 2.0859 0 3.539-1.4766 1.4766-1.4766 1.4766-3.4922v-16.992zm9.8204-26.648q-1.0313-4.125-4.9219-4.125-2.0625 0-3.5391 1.4766-1.4765 1.4531-1.4765 3.4922v17.016z" fill="#565656"/>
   </g>
  </g>
 </g>
</svg>
