<?xml version="1.0" encoding="UTF-8"?>
<svg width="16px" height="16px" fill="#565656" version="1.1" viewBox="0 -960 960 960" xmlns="http://www.w3.org/2000/svg">
 <path d="m360-800.04c-12.667 0-24.643 2.888-35.977 8.5547-11.333 5.6667-20.674 13.438-28.008 23.438l-215.98 288.05 215.98 288.05c7.3333 10 16.674 17.771 28.008 23.438 11.333 5.6667 23.31 8.5547 35.977 8.5547h440.04c22 0 40.818-7.888 56.484-23.555 15.667-15.667 23.438-34.484 23.438-56.484v-480c0-22-7.7708-40.818-23.438-56.484-15.667-15.667-34.484-23.555-56.484-23.555h-440.04zm95.977 160.08 104.06 103.95 103.95-103.95 56.016 56.016-103.95 103.95 103.95 103.95-56.016 56.016-103.95-103.95-104.06 103.95-56.016-56.016 104.06-103.95-104.06-103.95 56.016-56.016z"/>
</svg>
