<svg version="1.1" viewBox="0 0 16 16" width="16" height="16" xmlns="http://www.w3.org/2000/svg">
 <path transform="scale(.036485)" d="m421.12 134.19c-11.608-27.03-27.217-50.347-46.819-69.949-19.606-19.603-42.922-35.209-69.953-46.822-27.028-11.613-55.384-17.415-85.078-17.415-27.978 0-55.052 5.277-81.227 15.843-26.169 10.564-49.438 25.457-69.805 44.683l-37.12-36.835c-5.711-5.901-12.275-7.232-19.701-3.999-7.615 3.24-11.422 8.857-11.422 16.85v127.91c0 4.948 1.809 9.231 5.426 12.847 3.619 3.617 7.902 5.426 12.85 5.426h127.91c7.996 0 13.61-3.807 16.846-11.421 3.234-7.423 1.903-13.988-3.999-19.701l-39.115-39.398c13.328-12.563 28.553-22.222 45.683-28.98 17.131-6.757 35.021-10.138 53.675-10.138 19.793 0 38.687 3.858 56.674 11.563 17.99 7.71 33.544 18.131 46.679 31.265 13.134 13.131 23.555 28.69 31.265 46.679 7.703 17.987 11.56 36.875 11.56 56.674 0 19.798-3.856 38.686-11.56 56.672-7.71 17.987-18.131 33.544-31.265 46.679-13.135 13.134-28.695 23.558-46.679 31.265-17.987 7.707-36.881 11.561-56.674 11.561-22.651 0-44.064-4.949-64.241-14.843-20.174-9.894-37.209-23.883-51.104-41.973-1.331-1.902-3.521-3.046-6.567-3.429-2.856 0-5.236 0.855-7.139 2.566l-39.114 39.402c-1.521 1.53-2.33 3.478-2.426 5.853-0.094 2.385 0.527 4.524 1.858 6.427 20.749 25.125 45.871 44.587 75.373 58.382 29.502 13.798 60.625 20.701 93.362 20.701 29.694 0 58.05-5.808 85.078-17.416 27.031-11.607 50.34-27.22 69.949-46.821 19.605-19.609 35.211-42.921 46.822-69.949s17.411-55.392 17.411-85.08c1e-3 -29.698-5.803-58.047-17.41-85.076z" fill="#353a40"/>
</svg>
