<?xml version="1.0" encoding="UTF-8" standalone="no"?>
<svg
   xmlns:dc="http://purl.org/dc/elements/1.1/"
   xmlns:cc="http://creativecommons.org/ns#"
   xmlns:rdf="http://www.w3.org/1999/02/22-rdf-syntax-ns#"
   xmlns:svg="http://www.w3.org/2000/svg"
   xmlns="http://www.w3.org/2000/svg"
   xmlns:sodipodi="http://sodipodi.sourceforge.net/DTD/sodipodi-0.dtd"
   xmlns:inkscape="http://www.inkscape.org/namespaces/inkscape"
   sodipodi:docname="rotate180.svg"
   inkscape:version="1.0beta1 (32d4812, 2019-09-19)"
   id="svg8"
   version="1.1"
   viewBox="0 0 4.2333332 4.2333332"
   height="16"
   width="16">
  <defs
     id="defs2" />
  <sodipodi:namedview
     inkscape:window-maximized="0"
     inkscape:window-y="23"
     inkscape:window-x="53"
     inkscape:window-height="1209"
     inkscape:window-width="1600"
     units="px"
     showgrid="false"
     inkscape:document-rotation="0"
     inkscape:current-layer="layer1"
     inkscape:document-units="mm"
     inkscape:cy="7.0894042"
     inkscape:cx="8.4244218"
     inkscape:zoom="21.14609"
     inkscape:pageshadow="2"
     inkscape:pageopacity="0.0"
     borderopacity="1.0"
     bordercolor="#666666"
     pagecolor="#ffffff"
     id="base" />
  <metadata
     id="metadata5">
    <rdf:RDF>
      <cc:Work
         rdf:about="">
        <dc:format>image/svg+xml</dc:format>
        <dc:type
           rdf:resource="http://purl.org/dc/dcmitype/StillImage" />
        <dc:title />
      </cc:Work>
    </rdf:RDF>
  </metadata>
  <g
     style="display:none"
     inkscape:label="Base"
     id="layer2"
     inkscape:groupmode="layer">
    <ellipse
       ry="1.6814088"
       rx="1.675761"
       cy="2.115422"
       cx="2.1162765"
       id="path906"
       style="fill:none;stroke:#41818f;stroke-width:0.353771;stroke-linecap:round;stroke-linejoin:round;stroke-miterlimit:4;stroke-dasharray:0.353771, 0.707541;stroke-dashoffset:0.424525;stroke-opacity:1" />
  </g>
  <g
     id="layer1"
     inkscape:groupmode="layer"
     inkscape:label="Layer 1">
    <path
       style="color:#41818f;font-style:normal;font-variant:normal;font-weight:normal;font-stretch:normal;font-size:medium;line-height:normal;font-family:sans-serif;font-variant-ligatures:normal;font-variant-position:normal;font-variant-caps:normal;font-variant-numeric:normal;font-variant-alternates:normal;font-variant-east-asian:normal;font-feature-settings:normal;font-variation-settings:normal;text-indent:0;text-align:start;text-decoration:none;text-decoration-line:none;text-decoration-style:solid;text-decoration-color:#41818f;letter-spacing:normal;word-spacing:normal;text-transform:none;writing-mode:lr-tb;direction:ltr;text-orientation:mixed;dominant-baseline:auto;baseline-shift:baseline;text-anchor:start;white-space:normal;shape-padding:0;shape-margin:0;inline-size:0;clip-rule:nonzero;display:inline;overflow:visible;visibility:visible;opacity:1;isolation:auto;mix-blend-mode:normal;color-interpolation:sRGB;color-interpolation-filters:linearRGB;solid-color:#41818f;solid-opacity:1;vector-effect:none;fill:#41818f;fill-opacity:1;fill-rule:nonzero;stroke:none;stroke-width:0.353772;stroke-linecap:round;stroke-linejoin:round;stroke-miterlimit:4;stroke-dasharray:0.353772, 0.707541;stroke-dashoffset:0.424524;stroke-opacity:1;color-rendering:auto;image-rendering:auto;shape-rendering:auto;text-rendering:auto;enable-background:accumulate;stop-color:#41818f;stop-opacity:1"
       d="m 1.5820312,0.34765625 c -0.021904,-7.6596e-4 -0.043759,0.002545 -0.064453,0.009766 l -0.035156,0.0117187 c -0.00262,5.9168e-4 -0.00522,0.001243 -0.00781,0.001953 l -0.076172,0.03125 c -0.00131,6.3494e-4 -0.00261,0.001286 -0.00391,0.001953 -0.079652,0.033881 -0.1574454,0.071527 -0.2324218,0.1171875 -0.083914,0.0510073 -0.1102173,0.16060437 -0.058594,0.24414062 0.05094,0.0827259 0.1590658,0.10888536 0.2421875,0.0585938 0.059326,-0.0361293 0.1224748,-0.0680437 0.1875,-0.0957031 l 0.068359,-0.0273437 0.029297,-0.009766 C 1.7237741,0.6602943 1.7736941,0.55957852 1.7421875,0.46679688 1.7184498,0.39787755 1.6548654,0.35057696 1.5820312,0.34765625 Z M 0.74414062,0.9765625 C 0.68609164,0.9757648 0.63134645,1.0035023 0.59765625,1.0507812 l -0.015625,0.021484 c -0.001366,0.00257 -0.002669,0.00518 -0.003906,0.00781 l -0.0449219,0.068359 c -6.6709e-4,0.00129 -0.001318,0.0026 -0.001953,0.00391 -0.0466232,0.076985 -0.0861185,0.1572577 -0.12109375,0.2402343 -6.6709e-4,0.00129 -0.001318,0.0026 -0.001953,0.00391 l -0.001953,0.00195 c -0.0352299,0.090602 0.009255,0.1926554 0.0996094,0.2285156 0.0900611,0.035448 0.19188878,-0.00807 0.22851562,-0.097656 l 0.001953,-0.00195 v -0.00195 c 0.0275581,-0.064847 0.0592891,-0.1271328 0.0957031,-0.1875 l 0.001953,-0.00195 0.0390625,-0.0625 0.0136719,-0.017578 C 0.9426712,1.176006 0.92345216,1.0659333 0.84375,1.0097656 0.8146727,0.98887137 0.779939,0.97729348 0.74414062,0.9765625 Z m -0.30664062,1 c -0.098376,0.00167 -0.17648687,0.083286 -0.17382812,0.1816406 l 0.001953,0.048828 c -5.751e-5,0.0026 -5.751e-5,0.00521 0,0.00781 l 0.007813,0.085937 c -3.235e-5,0.00195 -3.235e-5,0.00391 0,0.00586 0.008282,0.078165 0.0203718,0.1584104 0.0410156,0.2402344 0.0235967,0.095023 0.11989531,0.1528025 0.21484376,0.1289062 C 0.6243202,2.6521845 0.68209933,2.5558859 0.65820312,2.4609375 0.64335314,2.402078 0.6320965,2.3392154 0.625,2.2734375 v -0.00391 L 0.619141,2.1933555 V 2.1484375 C 0.61641077,2.0508317 0.53510768,1.9738997 0.4375,1.9765625 Z m 3.2285156,0.5839844 c -0.071117,0.00308 -0.1334594,0.048489 -0.1582031,0.1152343 -0.018943,0.050756 -0.044903,0.1030138 -0.074219,0.1582032 l -0.035156,0.0625 -0.037109,0.058594 c -0.052696,0.082009 -0.029112,0.1911934 0.052734,0.2441407 0.082517,0.052331 0.1918334,0.027844 0.2441406,-0.054688 l 0.041016,-0.0625 c 0.00134,-0.00193 0.00264,-0.00388 0.00391,-0.00586 l 0.041016,-0.072266 c 6.671e-4,-0.00129 0.00132,-0.0026 0.00195,-0.00391 0.032646,-0.061459 0.066458,-0.1280447 0.09375,-0.2011719 0.033335,-0.091683 -0.013851,-0.1930469 -0.1054688,-0.2265625 -0.02179,-0.00838 -0.045023,-0.012362 -0.068359,-0.011719 z M 0.76953125,2.9628906 c -0.033306,0.00281 -0.065134,0.015 -0.0917969,0.035156 -0.078331,0.060026 -0.0923953,0.1725396 -0.03125,0.25 l 0.0371094,0.046875 c 0.001294,6.671e-4 0.002596,0.00132 0.003906,0.00195 0.0681877,0.082415 0.14371172,0.1613041 0.22851562,0.2324219 0.0745774,0.062092 0.18525603,0.052506 0.24804693,-0.021484 C 1.2261547,3.433235 1.2165683,3.3225564 1.1425781,3.2597656 1.0784258,3.2059665 1.0186797,3.1431615 0.96289062,3.0761719 l -0.003906,-0.00391 -0.0332031,-0.042969 c -0.0373628,-0.047317 -0.0962532,-0.072346 -0.15625,-0.066406 z M 3.0058594,3.3632812 c -0.033861,-2.336e-4 -0.067077,0.00926 -0.095703,0.027344 l -0.021484,0.013672 C 2.827771,3.4411839 2.7647048,3.474164 2.6992188,3.5019531 l -0.068359,0.027344 c -0.091113,0.031932 -0.1397906,0.1310255 -0.109375,0.2226562 0.031112,0.092915 0.1318277,0.1428347 0.2246094,0.1113281 L 2.75,3.8613281 c 0.00262,-5.917e-4 0.00522,-0.00124 0.00781,-0.00195 l 0.076172,-0.029297 c 0.00131,-6.349e-4 0.00261,-0.00129 0.00391,-0.00195 0.082786,-0.03513 0.1635051,-0.076265 0.2402344,-0.1230469 6.561e-4,-6.459e-4 0.00131,-0.0013 0.00195,-0.00195 l 0.021484,-0.013672 C 3.1846179,3.6364295 3.2083328,3.5257597 3.1542969,3.4433594 3.1215478,3.3932774 3.0656983,3.363148 3.0058594,3.3632812 Z"
       id="path859"
       inkscape:connector-curvature="0"
       sodipodi:nodetypes="ccccccccccccccccccccccccccccccccccccccccccccccccccccccccccccccccccccccccccccccccccccccccccc" />
    <path
       id="path906-6-7"
       style="display:inline;fill:none;stroke:#41818f;stroke-width:0.354;stroke-linecap:round;stroke-linejoin:round;stroke-miterlimit:4;stroke-dasharray:none;stroke-dashoffset:0.424798;stroke-opacity:1"
       transform="rotate(-90)"
       sodipodi:type="arc"
       sodipodi:cx="-2.1154218"
       sodipodi:cy="2.1162772"
       sodipodi:rx="1.675761"
       sodipodi:ry="1.6814088"
       sodipodi:start="0"
       sodipodi:end="3.1415927"
       sodipodi:open="true"
       sodipodi:arc-type="arc"
       d="m -0.43966079,2.1162772 a 1.675761,1.6814088 0 0 1 -0.83788051,1.4561427 1.675761,1.6814088 0 0 1 -1.675761,0 1.675761,1.6814088 0 0 1 -0.8378805,-1.4561428" />
    <path
       style="fill:none;stroke:#41818f;stroke-width:0.264583;stroke-linecap:round;stroke-linejoin:miter;stroke-miterlimit:4;stroke-dasharray:none;stroke-opacity:1"
       d="M 2.2007681,3.4282573 1.8603514,3.715393 2.0550958,4.0909539"
       id="path861"
       inkscape:connector-curvature="0"
       sodipodi:nodetypes="ccc" />
    <g
       aria-label="180"
       id="text865"
       style="font-size:1.23472000000000004px;line-height:1.25;font-family:sans-serif;stroke-width:0.264583;fill:#41818f;fill-opacity:1">
      <path
         d="M 1.544253,2.5524812 H 0.94497971 V 2.3957296 H 1.1342874 V 1.9212547 H 0.94497971 V 1.7747523 q 0.0434081,0 0.0831989,-0.00482 0.039791,-0.00543 0.066318,-0.018087 0.03135,-0.015072 0.047025,-0.039188 0.015675,-0.024116 0.018087,-0.060289 H 1.3591656 V 2.3957296 H 1.544253 Z"
         style="font-style:normal;font-variant:normal;font-weight:bold;font-stretch:normal;font-family:sans-serif;-inkscape-font-specification:'sans-serif Bold';stroke-width:0.264583;fill:#41818f;fill-opacity:1"
         id="path2000" />
      <path
         d="m 2.4805421,2.3016787 q 0,0.1193723 -0.1018885,0.1953365 -0.1012856,0.075964 -0.2785355,0.075964 -0.099477,0 -0.170618,-0.020498 -0.071141,-0.020498 -0.1175637,-0.056672 -0.04582,-0.035571 -0.068127,-0.083199 -0.021704,-0.047628 -0.021704,-0.1024915 0,-0.067524 0.039188,-0.1193723 0.039791,-0.052452 0.1368562,-0.091639 v -0.00362 Q 1.819774,2.0593166 1.7829977,2.0044536 1.7462214,1.9495906 1.7462214,1.8772437 q 0,-0.1067117 0.098874,-0.1748383 0.098874,-0.068127 0.2574343,-0.068127 0.1663978,0 0.2604488,0.062098 0.094654,0.061495 0.094654,0.1645891 0,0.063906 -0.039791,0.1139464 -0.039791,0.05004 -0.1217839,0.085007 v 0.00362 q 0.094051,0.03557 0.1392677,0.09586 0.045217,0.060289 0.045217,0.1422822 z M 2.2315483,1.8868899 q 0,-0.04582 -0.03557,-0.07295 -0.034968,-0.02713 -0.093448,-0.02713 -0.021704,0 -0.044614,0.00543 -0.022307,0.00543 -0.040997,0.015675 -0.017484,0.010249 -0.028939,0.02713 -0.011455,0.016278 -0.011455,0.037379 0,0.03557 0.019895,0.055466 0.020498,0.019895 0.066318,0.039791 0.016881,0.00723 0.04582,0.018087 0.029542,0.010249 0.071141,0.023513 0.027733,-0.032556 0.039791,-0.05848 0.012058,-0.025924 0.012058,-0.063906 z m 0.01869,0.4250379 q 0,-0.043408 -0.021704,-0.065715 -0.021704,-0.022307 -0.089228,-0.051246 -0.019895,-0.00904 -0.057878,-0.022307 -0.037982,-0.013264 -0.063906,-0.02291 -0.025924,0.023513 -0.047025,0.057275 -0.020498,0.033159 -0.020498,0.074758 0,0.062701 0.044614,0.1000798 0.045217,0.036776 0.1175637,0.036776 0.019293,0 0.045217,-0.00543 0.025924,-0.00603 0.044614,-0.018087 0.021704,-0.013867 0.034968,-0.032556 0.013264,-0.01869 0.013264,-0.050643 z"
         style="font-style:normal;font-variant:normal;font-weight:bold;font-stretch:normal;font-family:sans-serif;-inkscape-font-specification:'sans-serif Bold';stroke-width:0.264583;fill:#41818f;fill-opacity:1"
         id="path2002" />
      <path
         d="m 3.3505133,2.1033277 q 0,0.1133434 -0.020498,0.2031741 -0.020498,0.089228 -0.063906,0.1465024 -0.044614,0.05848 -0.1145492,0.088625 -0.069935,0.029542 -0.1724267,0.029542 -0.1006828,0 -0.1718238,-0.030145 Q 2.7361678,2.5108817 2.6921567,2.4517984 2.6475428,2.3927152 2.6276474,2.305296 2.6077521,2.217274 2.6077521,2.1039306 q 0,-0.1169608 0.020498,-0.2031742 0.020498,-0.086213 0.065112,-0.1458995 0.044614,-0.059083 0.115755,-0.088625 0.071141,-0.029542 0.1700152,-0.029542 0.1030943,0 0.1730296,0.030747 0.069935,0.030145 0.1145492,0.090434 0.044011,0.059083 0.063906,0.1458996 0.019895,0.086213 0.019895,0.1995568 z m -0.2333187,0 q 0,-0.1627805 -0.031953,-0.23151 -0.031953,-0.069333 -0.1061087,-0.069333 -0.074156,0 -0.1061088,0.069333 -0.031953,0.068729 -0.031953,0.2327157 0,0.1597661 0.032556,0.2303043 0.032556,0.070538 0.1055059,0.070538 0.07295,0 0.1055058,-0.070538 0.032556,-0.070538 0.032556,-0.23151 z"
         style="font-style:normal;font-variant:normal;font-weight:bold;font-stretch:normal;font-family:sans-serif;-inkscape-font-specification:'sans-serif Bold';stroke-width:0.264583;fill:#41818f;fill-opacity:1"
         id="path2004" />
    </g>
  </g>
</svg>
