<?xml version="1.0" encoding="UTF-8" standalone="no"?>
<svg
   xmlns:dc="http://purl.org/dc/elements/1.1/"
   xmlns:cc="http://creativecommons.org/ns#"
   xmlns:rdf="http://www.w3.org/1999/02/22-rdf-syntax-ns#"
   xmlns:svg="http://www.w3.org/2000/svg"
   xmlns="http://www.w3.org/2000/svg"
   xmlns:sodipodi="http://sodipodi.sourceforge.net/DTD/sodipodi-0.dtd"
   xmlns:inkscape="http://www.inkscape.org/namespaces/inkscape"
   height="24"
   viewBox="0 0 24 24"
   width="24"
   id="svg2"
   version="1.1"
   inkscape:version="0.91 r13725"
   sodipodi:docname="save24.svg"
   style="fill:#000000">
  <metadata
     id="metadata12">
    <rdf:RDF>
      <cc:Work
         rdf:about="">
        <dc:format>image/svg+xml</dc:format>
        <dc:type
           rdf:resource="http://purl.org/dc/dcmitype/StillImage" />
        <dc:title></dc:title>
      </cc:Work>
    </rdf:RDF>
  </metadata>
  <defs
     id="defs10" />
  <sodipodi:namedview
     pagecolor="#ffffff"
     bordercolor="#666666"
     borderopacity="1"
     objecttolerance="10"
     gridtolerance="10"
     guidetolerance="10"
     inkscape:pageopacity="0"
     inkscape:pageshadow="2"
     inkscape:window-width="1139"
     inkscape:window-height="612"
     id="namedview8"
     showgrid="false"
     inkscape:zoom="9.8333333"
     inkscape:cx="4.779661"
     inkscape:cy="12"
     inkscape:window-x="0"
     inkscape:window-y="0"
     inkscape:window-maximized="0"
     inkscape:current-layer="svg2" />
  <path
     d="M 0,-8 32,-8 32,24 0,24 0,-8 Z"
     id="path4"
     inkscape:connector-curvature="0"
     style="fill:none" />
  <path
     d="M 18.666666,0 2.6666666,0 C 1.1866666,0 0,1.2 0,2.666666 L 0,21.333334 C 0,22.8 1.1866666,24 2.6666666,24 L 21.333334,24 C 22.8,24 24,22.8 24,21.333334 l 0,-16 L 18.666666,0 Z m 2.666668,21.333334 -18.6666674,0 0,-18.666668 14.8933334,0 3.773334,3.773334 0,14.893334 z M 12,12 c -2.2133333,0 -3.9999998,1.786666 -3.9999998,4 0,2.213334 1.7866666,4 3.9999998,4 2.213333,0 4,-1.786666 4,-4 0,-2.213334 -1.786667,-4 -4,-4 z m -8,-8 12,0 0,5.3333338 -12,0 z"
     id="path6"
     style="fill:#353a40;fill-opacity:1"
     inkscape:connector-curvature="0" />
</svg>
