<?xml version="1.0" encoding="UTF-8" standalone="no"?>
<svg
   xmlns:dc="http://purl.org/dc/elements/1.1/"
   xmlns:cc="http://creativecommons.org/ns#"
   xmlns:rdf="http://www.w3.org/1999/02/22-rdf-syntax-ns#"
   xmlns:svg="http://www.w3.org/2000/svg"
   xmlns="http://www.w3.org/2000/svg"
   xmlns:sodipodi="http://sodipodi.sourceforge.net/DTD/sodipodi-0.dtd"
   xmlns:inkscape="http://www.inkscape.org/namespaces/inkscape"
   height="32"
   viewBox="0 0 32 32"
   width="32"
   id="svg2"
   version="1.1"
   inkscape:version="0.91 r13725"
   sodipodi:docname="save32.svg"
   style="fill:#000000">
  <metadata
     id="metadata12">
    <rdf:RDF>
      <cc:Work
         rdf:about="">
        <dc:format>image/svg+xml</dc:format>
        <dc:type
           rdf:resource="http://purl.org/dc/dcmitype/StillImage" />
        <dc:title></dc:title>
      </cc:Work>
    </rdf:RDF>
  </metadata>
  <defs
     id="defs10" />
  <sodipodi:namedview
     pagecolor="#ffffff"
     bordercolor="#666666"
     borderopacity="1"
     objecttolerance="10"
     gridtolerance="10"
     guidetolerance="10"
     inkscape:pageopacity="0"
     inkscape:pageshadow="2"
     inkscape:window-width="1139"
     inkscape:window-height="612"
     id="namedview8"
     showgrid="false"
     inkscape:zoom="9.8333333"
     inkscape:cx="4.779661"
     inkscape:cy="12"
     inkscape:window-x="0"
     inkscape:window-y="0"
     inkscape:window-maximized="0"
     inkscape:current-layer="svg2" />
  <path
     d="M 0,0 32,0 32,32 0,32 0,0 Z"
     id="path4"
     inkscape:connector-curvature="0"
     style="fill:none" />
  <path
     d="M 24.888888,0 3.5555555,0 C 1.5822221,0 0,1.6 0,3.5555547 L 0,28.444445 C 0,30.4 1.5822221,32 3.5555555,32 L 28.444445,32 C 30.4,32 32,30.4 32,28.444445 L 32,7.111112 24.888888,0 Z m 3.555557,28.444445 -24.8888895,0 0,-24.8888903 19.8577775,0 5.031112,5.031112 0,19.8577783 z M 16,16 c -2.951111,0 -5.333333,2.382221 -5.333333,5.333333 0,2.951112 2.382222,5.333334 5.333333,5.333334 2.951111,0 5.333333,-2.382222 5.333333,-5.333334 C 21.333333,18.382221 18.951111,16 16,16 Z M 5.3333333,5.3333333 l 15.9999997,0 0,7.1111117 -15.9999997,0 z"
     id="path6"
     style="fill:#353a40;fill-opacity:1"
     inkscape:connector-curvature="0" />
</svg>
