<?xml version="1.0" encoding="UTF-8" standalone="no"?>
<svg
   xmlns:dc="http://purl.org/dc/elements/1.1/"
   xmlns:cc="http://creativecommons.org/ns#"
   xmlns:rdf="http://www.w3.org/1999/02/22-rdf-syntax-ns#"
   xmlns:svg="http://www.w3.org/2000/svg"
   xmlns="http://www.w3.org/2000/svg"
   xmlns:sodipodi="http://sodipodi.sourceforge.net/DTD/sodipodi-0.dtd"
   xmlns:inkscape="http://www.inkscape.org/namespaces/inkscape"
   height="16"
   viewBox="0 0 16 16"
   width="16"
   id="svg2"
   version="1.1"
   inkscape:version="0.91 r13725"
   sodipodi:docname="save.svg"
   style="fill:#000000">
  <metadata
     id="metadata12">
    <rdf:RDF>
      <cc:Work
         rdf:about="">
        <dc:format>image/svg+xml</dc:format>
        <dc:type
           rdf:resource="http://purl.org/dc/dcmitype/StillImage" />
        <dc:title></dc:title>
      </cc:Work>
    </rdf:RDF>
  </metadata>
  <defs
     id="defs10" />
  <sodipodi:namedview
     pagecolor="#ffffff"
     bordercolor="#666666"
     borderopacity="1"
     objecttolerance="10"
     gridtolerance="10"
     guidetolerance="10"
     inkscape:pageopacity="0"
     inkscape:pageshadow="2"
     inkscape:window-width="1139"
     inkscape:window-height="612"
     id="namedview8"
     showgrid="false"
     inkscape:zoom="9.8333333"
     inkscape:cx="4.779661"
     inkscape:cy="12"
     inkscape:window-x="0"
     inkscape:window-y="0"
     inkscape:window-maximized="0"
     inkscape:current-layer="svg2" />
  <path
     d="m 0,-16 32,0 0,32 -32,0 0,-32 z"
     id="path4"
     inkscape:connector-curvature="0"
     style="fill:none" />
  <path
     d="M 12.444444,0 1.7777777,0 C 0.79111107,0 0,0.8 0,1.7777773 L 0,14.222223 C 0,15.2 0.79111107,16 1.7777777,16 L 14.222223,16 C 15.2,16 16,15.2 16,14.222223 L 16,3.555556 12.444444,0 Z m 1.777779,14.222223 -12.4444453,0 0,-12.4444457 9.9288893,0 2.515556,2.5155557 0,9.92889 z M 8,8 c -1.4755555,0 -2.6666665,1.191111 -2.6666665,2.666667 0,1.475556 1.191111,2.666666 2.6666665,2.666666 1.4755553,0 2.666667,-1.19111 2.666667,-2.666666 C 10.666667,9.191111 9.4755553,8 8,8 Z m -5.3333333,-5.333333 8.0000003,0 0,3.555556 -8.0000003,0 z"
     id="path6"
     style="fill:#353a40;fill-opacity:1"
     inkscape:connector-curvature="0" />
</svg>
