<?xml version="1.0" encoding="UTF-8" standalone="no"?>
<!-- Generator: Adobe Illustrator 16.0.0, SVG Export Plug-In . SVG Version: 6.00 Build 0)  -->

<svg
   xmlns:dc="http://purl.org/dc/elements/1.1/"
   xmlns:cc="http://creativecommons.org/ns#"
   xmlns:rdf="http://www.w3.org/1999/02/22-rdf-syntax-ns#"
   xmlns:svg="http://www.w3.org/2000/svg"
   xmlns="http://www.w3.org/2000/svg"
   xmlns:sodipodi="http://sodipodi.sourceforge.net/DTD/sodipodi-0.dtd"
   xmlns:inkscape="http://www.inkscape.org/namespaces/inkscape"
   version="1.1"
   id="Capa_1"
   x="0px"
   y="0px"
   width="32"
   height="32"
   viewBox="0 0 32 32"
   xml:space="preserve"
   inkscape:version="0.91 r13725"
   sodipodi:docname="serialport32.svg"
   inkscape:export-filename="/Users/zefal/Development/Universal-G-Code-Sender/ugs-platform/ugs-platform-ugscore/src/main/resources/resources/icons/serialport.png"
   inkscape:export-xdpi="1.5582072"
   inkscape:export-ydpi="1.5582072"><metadata
     id="metadata41"><rdf:RDF><cc:Work
         rdf:about=""><dc:format>image/svg+xml</dc:format><dc:type
           rdf:resource="http://purl.org/dc/dcmitype/StillImage" /><dc:title /></cc:Work></rdf:RDF></metadata><defs
     id="defs39" /><sodipodi:namedview
     pagecolor="#ffffff"
     bordercolor="#666666"
     borderopacity="1"
     objecttolerance="10"
     gridtolerance="10"
     guidetolerance="10"
     inkscape:pageopacity="0"
     inkscape:pageshadow="2"
     inkscape:window-width="927"
     inkscape:window-height="703"
     id="namedview37"
     showgrid="false"
     inkscape:zoom="5.8982004"
     inkscape:cx="11.123579"
     inkscape:cy="2.7179792"
     inkscape:window-x="0"
     inkscape:window-y="0"
     inkscape:window-maximized="0"
     inkscape:current-layer="Capa_1" /><g
     id="g3"
     style="fill:#0ac9f1;fill-opacity:1"
     transform="matrix(0.03462682,0,0,0.03462682,0.09149396,9.061772e-6)"><path
       d="m 350.27,388.938 c 0.399,-50.8 -41.5,-93.8 -92.2,-94.8 -52.9,-1.101 -96.1,41.5 -96.1,94.1 0,41.801 27.4,76.801 65,89.101 l 0,35.8 c 0,22 10.3,42.7 27.9,55.9 l 181.2,136.5 c -46.5,13.399 -80.5,56.3 -80.5,107.1 0,61.6 49.9,111.5 111.5,111.5 61.6,0 111.5,-49.9 111.5,-111.5 0,-51.3 -34.699,-94.5 -81.9,-107.5 l 0,-52.6 166.4,-115.601 c 18.801,-13.1 30.1,-34.6 30.1,-57.5 l 0,-49.5 19,0 c 27.602,0 50,-22.399 50,-50 l 0,-81.2 c 0,-27.6 -22.398,-50 -50,-50 l -96.2,0 c -27.6,0 -50,22.4 -50,50 l 0,81.2 c 0,27.601 22.4,50 50,50 l 19,0 0,55.7 -138.301,96 0,-366.3 48.9,0 c 35,0 56.6,-38.301 38.5,-68.301 L 509.87,24.138 c -19.301,-32 -65.6,-32.2 -85.3,-0.5 l -76.2,123 c -18.6,30 3,68.7 38.3,68.7 l 51.9,0 0,419.1 -153.3,-115.399 0,-41.7 c 37.399,-12.201 64.7,-47.001 65,-88.401 z"
       id="path5"
       style="fill:#0ac9f1;fill-opacity:1"
       inkscape:connector-curvature="0" /></g><g
     id="g7"
     transform="matrix(0.03462682,0,0,0.03462682,-2.6085056,9.061772e-6)"
     style="fill:#0ac9f1;fill-opacity:1" /><g
     id="g9"
     transform="matrix(0.03462682,0,0,0.03462682,-2.6085056,9.061772e-6)"
     style="fill:#0ac9f1;fill-opacity:1" /><g
     id="g11"
     transform="matrix(0.03462682,0,0,0.03462682,-2.6085056,9.061772e-6)"
     style="fill:#0ac9f1;fill-opacity:1" /><g
     id="g13"
     transform="matrix(0.03462682,0,0,0.03462682,-2.6085056,9.061772e-6)"
     style="fill:#0ac9f1;fill-opacity:1" /><g
     id="g15"
     transform="matrix(0.03462682,0,0,0.03462682,-2.6085056,9.061772e-6)"
     style="fill:#0ac9f1;fill-opacity:1" /><g
     id="g17"
     transform="matrix(0.03462682,0,0,0.03462682,-2.6085056,9.061772e-6)"
     style="fill:#0ac9f1;fill-opacity:1" /><g
     id="g19"
     transform="matrix(0.03462682,0,0,0.03462682,-2.6085056,9.061772e-6)"
     style="fill:#0ac9f1;fill-opacity:1" /><g
     id="g21"
     transform="matrix(0.03462682,0,0,0.03462682,-2.6085056,9.061772e-6)"
     style="fill:#0ac9f1;fill-opacity:1" /><g
     id="g23"
     transform="matrix(0.03462682,0,0,0.03462682,-2.6085056,9.061772e-6)"
     style="fill:#0ac9f1;fill-opacity:1" /><g
     id="g25"
     transform="matrix(0.03462682,0,0,0.03462682,-2.6085056,9.061772e-6)"
     style="fill:#0ac9f1;fill-opacity:1" /><g
     id="g27"
     transform="matrix(0.03462682,0,0,0.03462682,-2.6085056,9.061772e-6)"
     style="fill:#0ac9f1;fill-opacity:1" /><g
     id="g29"
     transform="matrix(0.03462682,0,0,0.03462682,-2.6085056,9.061772e-6)"
     style="fill:#0ac9f1;fill-opacity:1" /><g
     id="g31"
     transform="matrix(0.03462682,0,0,0.03462682,-2.6085056,9.061772e-6)"
     style="fill:#0ac9f1;fill-opacity:1" /><g
     id="g33"
     transform="matrix(0.03462682,0,0,0.03462682,-2.6085056,9.061772e-6)"
     style="fill:#0ac9f1;fill-opacity:1" /><g
     id="g35"
     transform="matrix(0.03462682,0,0,0.03462682,-2.6085056,9.061772e-6)"
     style="fill:#0ac9f1;fill-opacity:1" /></svg>
