<?xml version="1.0" encoding="UTF-8" standalone="no"?>
<!-- Generator: Adobe Illustrator 16.0.0, SVG Export Plug-In . SVG Version: 6.00 Build 0)  -->

<svg
   xmlns:dc="http://purl.org/dc/elements/1.1/"
   xmlns:cc="http://creativecommons.org/ns#"
   xmlns:rdf="http://www.w3.org/1999/02/22-rdf-syntax-ns#"
   xmlns:svg="http://www.w3.org/2000/svg"
   xmlns="http://www.w3.org/2000/svg"
   xmlns:sodipodi="http://sodipodi.sourceforge.net/DTD/sodipodi-0.dtd"
   xmlns:inkscape="http://www.inkscape.org/namespaces/inkscape"
   version="1.1"
   id="Capa_1"
   x="0px"
   y="0px"
   width="924.139px"
   height="924.138px"
   viewBox="0 0 924.139 924.138"
   style="enable-background:new 0 0 924.139 924.138;"
   xml:space="preserve"
   inkscape:version="0.91 r13725"
   sodipodi:docname="serialport.svg"
   inkscape:export-filename="/Users/zefal/Development/Universal-G-Code-Sender/ugs-platform/ugs-platform-ugscore/src/main/resources/resources/icons/serialport32.png"
   inkscape:export-xdpi="3.1164176"
   inkscape:export-ydpi="3.1164176"><metadata
     id="metadata41"><rdf:RDF><cc:Work
         rdf:about=""><dc:format>image/svg+xml</dc:format><dc:type
           rdf:resource="http://purl.org/dc/dcmitype/StillImage" /></cc:Work></rdf:RDF></metadata><defs
     id="defs39" /><sodipodi:namedview
     pagecolor="#ffffff"
     bordercolor="#666666"
     borderopacity="1"
     objecttolerance="10"
     gridtolerance="10"
     guidetolerance="10"
     inkscape:pageopacity="0"
     inkscape:pageshadow="2"
     inkscape:window-width="927"
     inkscape:window-height="703"
     id="namedview37"
     showgrid="false"
     inkscape:zoom="0.25537312"
     inkscape:cx="462.06949"
     inkscape:cy="462.069"
     inkscape:window-x="0"
     inkscape:window-y="0"
     inkscape:window-maximized="0"
     inkscape:current-layer="Capa_1" /><g
     id="g3"><path
       d="M350.27,388.938c0.399-50.8-41.5-93.8-92.2-94.8c-52.9-1.101-96.1,41.5-96.1,94.1c0,41.801,27.4,76.801,65,89.101v35.8   c0,22,10.3,42.7,27.9,55.9l181.2,136.5c-46.5,13.399-80.5,56.3-80.5,107.1c0,61.6,49.9,111.5,111.5,111.5   c61.6,0,111.5-49.9,111.5-111.5c0-51.3-34.699-94.5-81.9-107.5v-52.6l166.4-115.601c18.801-13.1,30.1-34.6,30.1-57.5v-49.5h19   c27.602,0,50-22.399,50-50v-81.2c0-27.6-22.398-50-50-50H615.97c-27.6,0-50,22.4-50,50v81.2c0,27.601,22.4,50,50,50h19v55.7   l-138.301,96v-366.3h48.9c35,0,56.6-38.301,38.5-68.301L509.87,24.138c-19.301-32-65.6-32.2-85.3-0.5l-76.2,123   c-18.6,30,3,68.7,38.3,68.7h51.9v419.1l-153.3-115.399v-41.7C322.669,465.138,349.97,430.338,350.27,388.938z"
       id="path5" /></g><g
     id="g7" /><g
     id="g9" /><g
     id="g11" /><g
     id="g13" /><g
     id="g15" /><g
     id="g17" /><g
     id="g19" /><g
     id="g21" /><g
     id="g23" /><g
     id="g25" /><g
     id="g27" /><g
     id="g29" /><g
     id="g31" /><g
     id="g33" /><g
     id="g35" /></svg>