<?xml version="1.0" encoding="UTF-8" standalone="no"?>
<svg
   xmlns:dc="http://purl.org/dc/elements/1.1/"
   xmlns:cc="http://creativecommons.org/ns#"
   xmlns:rdf="http://www.w3.org/1999/02/22-rdf-syntax-ns#"
   xmlns:svg="http://www.w3.org/2000/svg"
   xmlns="http://www.w3.org/2000/svg"
   xmlns:sodipodi="http://sodipodi.sourceforge.net/DTD/sodipodi-0.dtd"
   xmlns:inkscape="http://www.inkscape.org/namespaces/inkscape"
   height="24"
   viewBox="0 0 18 18"
   width="24"
   version="1.1"
   id="svg844"
   sodipodi:docname="translate24.svg"
   inkscape:version="1.0.1 (c497b03c, 2020-09-10)">
  <metadata
     id="metadata850">
    <rdf:RDF>
      <cc:Work
         rdf:about="">
        <dc:format>image/svg+xml</dc:format>
        <dc:type
           rdf:resource="http://purl.org/dc/dcmitype/StillImage" />
        <dc:title></dc:title>
      </cc:Work>
    </rdf:RDF>
  </metadata>
  <defs
     id="defs848" />
  <sodipodi:namedview
     pagecolor="#ffffff"
     bordercolor="#666666"
     borderopacity="1"
     objecttolerance="10"
     gridtolerance="10"
     guidetolerance="10"
     inkscape:pageopacity="0"
     inkscape:pageshadow="2"
     inkscape:window-width="1262"
     inkscape:window-height="690"
     id="namedview846"
     showgrid="false"
     units="px"
     inkscape:zoom="18.789793"
     inkscape:cx="7.1189881"
     inkscape:cy="6.380101"
     inkscape:window-x="0"
     inkscape:window-y="23"
     inkscape:window-maximized="0"
     inkscape:current-layer="svg844" />
  <path
     d="M 5.5546873,2.109375 C 5.5546873,0.94619746 6.5008848,0 7.6640622,0 H 15.890625 C 17.053801,0 18,0.94619746 18,2.109375 v 8.226562 c 0,1.163178 -0.946199,2.109375 -2.109375,2.109375 h -3.375 v 1.40625 h -1.40625 v -1.40625 H 7.6640622 c -1.1631774,0 -2.1093749,-0.946197 -2.1093749,-2.109375 V 6.9609373 H 4.1835936 v -1.40625 h 1.3710937 z m 1.4062501,8.226562 c 0,0.38768 0.315445,0.703125 0.7031248,0.703125 h 8.2265628 c 0.387679,0 0.703125,-0.315445 0.703125,-0.703125 V 2.109375 c 0,-0.3876801 -0.315446,-0.703125 -0.703125,-0.703125 H 7.6640622 c -0.3876798,0 -0.7031248,0.3154449 -0.7031248,0.703125 z M 1.40625,15.1875 H 0 v 1.40625 C 0,17.370345 0.62965391,18 1.40625,18 H 2.7773436 V 16.59375 H 1.40625 Z m 6.9960935,1.40625 H 6.9960936 V 18 h 1.4062499 z m -2.8124999,0 h -1.40625 V 18 h 1.40625 z M 0,6.9609373 V 8.3671872 H 1.40625 V 6.9609373 h 1.3710936 v -1.40625 H 1.40625 C 0.62965391,5.5546873 0,6.1843414 0,6.9609373 Z M 1.40625,9.7031247 H 0 v 1.4062503 h 1.40625 z m 0,2.7421873 H 0 v 1.40625 h 1.40625 z m 9.703125,4.148438 H 9.738281 V 18 h 1.371094 c 0.776596,0 1.40625,-0.629655 1.40625,-1.40625 V 15.1875 h -1.40625 z M 9.8085935,5.4140623 h -1.40625 v 4.2187499 h 4.2187495 v -1.40625 h -1.818099 l 2.508727,-2.5087281 -0.9944,-0.9942627 -2.5087275,2.5085907 z m 0,0"
     id="path842"
     style="fill:#41818f;fill-opacity:1;stroke-width:0.0351562" />
</svg>
