<?xml version="1.0" encoding="UTF-8" standalone="no"?>
<svg
   viewBox="0 0 16 16"
   version="1.1"
   id="svg832"
   sodipodi:docname="download.svg"
   width="16"
   height="16"
   inkscape:version="1.1-dev (0486c1a, 2020-10-10)"
   xmlns:inkscape="http://www.inkscape.org/namespaces/inkscape"
   xmlns:sodipodi="http://sodipodi.sourceforge.net/DTD/sodipodi-0.dtd"
   xmlns="http://www.w3.org/2000/svg"
   xmlns:svg="http://www.w3.org/2000/svg">
  <defs
     id="defs836" />
  <sodipodi:namedview
     pagecolor="#ffffff"
     bordercolor="#666666"
     borderopacity="1"
     objecttolerance="10"
     gridtolerance="10"
     guidetolerance="10"
     inkscape:pageopacity="0"
     inkscape:pageshadow="2"
     inkscape:window-width="1787"
     inkscape:window-height="1187"
     id="namedview834"
     showgrid="false"
     width="16px"
     inkscape:zoom="2.947377"
     inkscape:cx="83.972969"
     inkscape:cy="-63.615886"
     inkscape:window-x="0"
     inkscape:window-y="25"
     inkscape:window-maximized="0"
     inkscape:current-layer="svg832" />
  <!--! Font Awesome Pro 6.1.1 by @fontawesome - https://fontawesome.com License - https://fontawesome.com/license (Commercial License) Copyright 2022 Fonticons, Inc. -->
  <path
     d="M 13.999969,3.9999998 H 9.9999795 V 0 Z M 9.9999795,4.9999997 h 3.9999895 v 9.4999993 c 0,0.828437 -0.671561,1.5 -1.499996,1.5 H 3.4999962 C 2.6715608,15.999999 2,15.328124 2,14.499999 V 1.4999999 C 2,0.67156247 2.6715608,0 3.4999962,0 h 5.4999859 l 1.25e-4,3.9999998 c -1.25e-4,0.5531248 0.4467488,0.9999999 0.9998724,0.9999999 z M 9.9687296,9.2187495 8.7499827,10.440624 V 7.2499996 c 0,-0.4140624 -0.3359366,-0.75 -0.7499981,-0.75 -0.4140614,0 -0.749998,0.3374998 -0.749998,0.75 V 10.440624 L 6.0031148,9.2187495 C 5.8843651,9.0718743 5.6937405,8.9999995 5.499991,8.9999995 c -0.1937495,0 -0.383749,0.071875 -0.5303111,0.21875 -0.292968,0.2929683 -0.292968,0.7674996 0,1.0606245 l 2.4999936,2.5 c 0.292968,0.292969 0.767498,0.292969 1.0606223,0 l 2.4999932,-2.5 c 0.292968,-0.2929683 0.292968,-0.7674996 0,-1.0606245 -0.292968,-0.2931248 -0.76781,-0.2906252 -1.0615594,0 z"
     id="path830"
     style="fill:#353a40;fill-opacity:1;stroke-width:1" />
</svg>
