<?xml version="1.0" encoding="UTF-8" standalone="no"?>
<svg
   viewBox="0 0 24 24"
   version="1.1"
   id="svg832"
   sodipodi:docname="foldertree24.svg"
   inkscape:version="1.1-dev (0486c1a, 2020-10-10)"
   width="24"
   height="24"
   xmlns:inkscape="http://www.inkscape.org/namespaces/inkscape"
   xmlns:sodipodi="http://sodipodi.sourceforge.net/DTD/sodipodi-0.dtd"
   xmlns="http://www.w3.org/2000/svg"
   xmlns:svg="http://www.w3.org/2000/svg">
  <defs
     id="defs836" />
  <sodipodi:namedview
     pagecolor="#ffffff"
     bordercolor="#666666"
     borderopacity="1"
     objecttolerance="10"
     gridtolerance="10"
     guidetolerance="10"
     inkscape:pageopacity="0"
     inkscape:pageshadow="2"
     inkscape:window-width="1525"
     inkscape:window-height="956"
     id="namedview834"
     showgrid="false"
     inkscape:zoom="23.57841"
     inkscape:cx="11.302713"
     inkscape:cy="11.875271"
     inkscape:window-x="284"
     inkscape:window-y="156"
     inkscape:window-maximized="0"
     inkscape:current-layer="svg832"
     width="16px" />
  <!--! Font Awesome Pro 6.1.1 by @fontawesome - https://fontawesome.com License - https://fontawesome.com/license (Commercial License) Copyright 2022 Fonticons, Inc. -->
  <path
     d="M 22.666666,2.5333126 H 18 L 16.666667,1.2 H 13.333334 C 12.599167,1.2 12,1.7991574 12,2.5333126 v 6.6665627 c 0,0.7341547 0.599167,1.3333117 1.333334,1.3333117 h 9.333332 C 23.400834,10.533187 24,9.93403 24,9.1998753 V 3.8666251 C 24,3.1324698 23.4,2.5333126 22.666666,2.5333126 Z m 0,11.9998134 H 18 L 16.666667,13.199814 H 13.333334 C 12.599167,13.199814 12,13.79897 12,14.533126 v 6.666562 c 0,0.734155 0.599167,1.333312 1.333334,1.333312 h 9.333332 C 23.400834,22.533 24,21.933843 24,21.199688 v -5.333249 c 0,-0.733322 -0.6,-1.333313 -1.333334,-1.333313 z M 2.6666667,1.8666563 C 2.6666667,1.4968704 2.37,1.2 2,1.2 H 0.66666668 C 0.296875,1.2 0,1.4968704 0,1.8666563 V 18.533062 c 0,0.734156 0.59916668,1.333313 1.3333334,1.333313 H 10.666667 V 17.199751 H 2.6666667 V 7.8665626 H 10.666667 V 5.1999377 H 2.6666667 Z"
     id="path830"
     style="fill:#353a40;fill-opacity:1;stroke-width:1" />
</svg>
