<?xml version="1.0" encoding="UTF-8" standalone="no"?>
<svg
   viewBox="0 0 16 16"
   version="1.1"
   id="svg832"
   sodipodi:docname="foldertree.svg"
   inkscape:version="1.1-dev (0486c1a, 2020-10-10)"
   width="16"
   height="16"
   xmlns:inkscape="http://www.inkscape.org/namespaces/inkscape"
   xmlns:sodipodi="http://sodipodi.sourceforge.net/DTD/sodipodi-0.dtd"
   xmlns="http://www.w3.org/2000/svg"
   xmlns:svg="http://www.w3.org/2000/svg">
  <defs
     id="defs836" />
  <sodipodi:namedview
     pagecolor="#ffffff"
     bordercolor="#666666"
     borderopacity="1"
     objecttolerance="10"
     gridtolerance="10"
     guidetolerance="10"
     inkscape:pageopacity="0"
     inkscape:pageshadow="2"
     inkscape:window-width="1525"
     inkscape:window-height="956"
     id="namedview834"
     showgrid="false"
     inkscape:zoom="23.57841"
     inkscape:cx="10.539303"
     inkscape:cy="10.60292"
     inkscape:window-x="284"
     inkscape:window-y="156"
     inkscape:window-maximized="0"
     inkscape:current-layer="svg832"
     width="16px" />
  <!--! Font Awesome Pro 6.1.1 by @fontawesome - https://fontawesome.com License - https://fontawesome.com/license (Commercial License) Copyright 2022 Fonticons, Inc. -->
  <path
     d="M 15.111112,1.788889 H 12.000001 L 11.111112,0.9 H 8.8888896 c -0.4894445,0 -0.888889,0.3994445 -0.888889,0.888889 v 4.4444448 c 0,0.4894444 0.3994445,0.8888889 0.888889,0.8888889 h 6.2222224 c 0.489445,0 0.888889,-0.3994445 0.888889,-0.8888889 V 2.6777779 c 0,-0.4894445 -0.4,-0.8888889 -0.888889,-0.8888889 z m 0,8.000001 H 12.000001 L 11.111112,8.900001 H 8.8888896 c -0.4894445,0 -0.888889,0.399444 -0.888889,0.888889 v 4.444444 c 0,0.489445 0.3994445,0.888889 0.888889,0.888889 h 6.2222224 c 0.489445,0 0.888889,-0.399444 0.888889,-0.888889 v -3.555555 c 0,-0.488889 -0.4,-0.888889 -0.888889,-0.888889 z M 1.7777779,1.3444445 C 1.7777779,1.0979167 1.5800001,0.9 1.3333334,0.9 H 0.44444448 C 0.19791668,0.9 0,1.0979167 0,1.3444445 V 12.455556 c 0,0.489445 0.39944448,0.888889 0.88888896,0.888889 H 7.1111117 V 11.566668 H 1.7777779 V 5.3444448 H 7.1111117 V 3.5666669 H 1.7777779 Z"
     id="path830"
     style="fill:#353a40;fill-opacity:1;stroke-width:1" />
</svg>
