<?xml version="1.0" encoding="UTF-8" standalone="no"?>
<svg
   viewBox="0 0 16 16"
   version="1.1"
   id="svg832"
   sodipodi:docname="upload.svg"
   width="16"
   height="16"
   inkscape:version="1.1-dev (0486c1a, 2020-10-10)"
   xmlns:inkscape="http://www.inkscape.org/namespaces/inkscape"
   xmlns:sodipodi="http://sodipodi.sourceforge.net/DTD/sodipodi-0.dtd"
   xmlns="http://www.w3.org/2000/svg"
   xmlns:svg="http://www.w3.org/2000/svg">
  <defs
     id="defs836" />
  <sodipodi:namedview
     pagecolor="#ffffff"
     bordercolor="#666666"
     borderopacity="1"
     objecttolerance="10"
     gridtolerance="10"
     guidetolerance="10"
     inkscape:pageopacity="0"
     inkscape:pageshadow="2"
     inkscape:window-width="1382"
     inkscape:window-height="1009"
     id="namedview834"
     showgrid="false"
     width="16px"
     inkscape:zoom="4.1691988"
     inkscape:cx="28.782509"
     inkscape:cy="32.020541"
     inkscape:window-x="83"
     inkscape:window-y="98"
     inkscape:window-maximized="0"
     inkscape:current-layer="svg832" />
  <!--! Font Awesome Pro 6.1.1 by @fontawesome - https://fontawesome.com License - https://fontawesome.com/license (Commercial License) Copyright 2022 Fonticons, Inc. -->
  <path
     d="m 10,0 v 4 h 4 z M 9,4 V 0 H 3.5 C 2.6715625,0 2,0.6715625 2,1.5 v 13 C 2,15.328125 2.6715625,16 3.5,16 h 9 C 13.328438,16 14,15.328438 14,14.5 V 5 H 10.028125 C 9.446875,5 9,4.553125 9,4 Z m 2.003125,6.753125 C 10.884375,10.928125 10.69375,11 10.5,11 10.30625,11 10.11625,10.92675 9.9696875,10.780281 L 8.75,9.559375 V 12.75 C 8.75,13.164063 8.4140625,13.5 8,13.5 7.5859375,13.5 7.25,13.164063 7.25,12.75 V 9.559375 l -1.2196875,1.219687 c -0.2929687,0.292969 -0.7675,0.292969 -1.060625,0 -0.293125,-0.292968 -0.2929687,-0.7675 0,-1.0606245 l 2.5,-2.5 c 0.2929687,-0.2929688 0.7675,-0.2929688 1.060625,0 l 2.5000005,2.5 C 11.321875,10.0125 11.321875,10.4875 11.003125,10.753125 Z"
     id="path830"
     style="fill:#353a40;fill-opacity:1;stroke-width:1" />
</svg>
