<svg version="1.1" viewBox="0 0 16 16" xmlns="http://www.w3.org/2000/svg">
 <g fill="#565656">
  <path transform="matrix(.029188 0 0 .029188 0 .39994)" d="m537.47 120.34c-7.139-7.139-15.753-10.709-25.841-10.709h-475.08c-10.088 0-18.699 3.571-25.837 10.709-7.137 7.138-10.708 15.752-10.708 25.837v255.82c0 10.089 3.571 18.698 10.708 25.837 7.139 7.139 15.749 10.712 25.837 10.712h475.08c10.088 0 18.702-3.573 25.841-10.712 7.135-7.139 10.708-15.748 10.708-25.837v-255.82c0-10.085-3.573-18.699-10.708-25.837zm-25.841 281.65h-475.08v-255.82h475.08v255.82z"/>
  <path transform="matrix(.029188 0 0 .029188 0 .39994)" d="m77.657 365.44h27.408c3.046 0 4.569-1.526 4.569-4.568v-27.408c0-3.039-1.52-4.568-4.569-4.568h-27.408c-3.044 0-4.568 1.529-4.568 4.568v27.408c0 3.042 1.524 4.568 4.568 4.568z"/>
  <path transform="matrix(.029188 0 0 .029188 0 .39994)" d="m77.657 292.36h63.954c3.045 0 4.57-1.53 4.57-4.572v-27.41c0-3.045-1.525-4.565-4.57-4.568h-63.954c-3.044 0-4.568 1.523-4.568 4.568v27.41c0 3.042 1.524 4.572 4.568 4.572z"/>
  <path transform="matrix(.029188 0 0 .029188 0 .39994)" d="m77.657 219.27h27.408c3.046 0 4.569-1.525 4.569-4.57v-27.406c0-3.046-1.52-4.565-4.569-4.57h-27.408c-3.044 0-4.568 1.524-4.568 4.57v27.406c0 3.045 1.524 4.57 4.568 4.57z"/>
  <path transform="matrix(.029188 0 0 .029188 0 .39994)" d="m397.43 328.9h-246.68c-3.046 0-4.57 1.526-4.57 4.572v27.404c0 3.039 1.524 4.572 4.57 4.572h246.67c3.046 0 4.572-1.526 4.572-4.572v-27.404c1e-3 -3.045-1.525-4.572-4.563-4.572z"/>
  <path transform="matrix(.029188 0 0 .029188 0 .39994)" d="m182.72 287.79c0 3.042 1.523 4.572 4.565 4.572h27.412c3.044 0 4.565-1.53 4.565-4.572v-27.41c0-3.045-1.518-4.565-4.565-4.568h-27.412c-3.042 0-4.565 1.523-4.565 4.568v27.41z"/>
  <path transform="matrix(.029188 0 0 .029188 0 .39994)" d="m150.75 219.27h27.406c3.046 0 4.57-1.525 4.57-4.57v-27.406c0-3.046-1.524-4.565-4.57-4.57h-27.406c-3.046 0-4.57 1.524-4.57 4.57v27.406c0 3.045 1.525 4.57 4.57 4.57z"/>
  <path transform="matrix(.029188 0 0 .029188 0 .39994)" d="m255.81 287.79c0 3.042 1.524 4.572 4.568 4.572h27.408c3.046 0 4.572-1.53 4.572-4.572v-27.41c0-3.045-1.526-4.565-4.572-4.568h-27.408c-3.044 0-4.568 1.523-4.568 4.568v27.41z"/>
  <path transform="matrix(.029188 0 0 .029188 0 .39994)" d="m223.84 219.27h27.406c3.046 0 4.57-1.525 4.57-4.57v-27.406c0-3.046-1.521-4.565-4.57-4.57h-27.406c-3.046 0-4.57 1.524-4.57 4.57v27.406c0 3.045 1.524 4.57 4.57 4.57z"/>
  <path transform="matrix(.029188 0 0 .029188 0 .39994)" d="m328.9 287.79c0 3.042 1.525 4.572 4.564 4.572h27.412c3.045 0 4.564-1.53 4.564-4.572v-27.41c0-3.045-1.52-4.565-4.564-4.568h-27.412c-3.039 0-4.564 1.523-4.564 4.568v27.41z"/>
  <path transform="matrix(.029188 0 0 .029188 0 .39994)" d="m470.51 328.9h-27.404c-3.046 0-4.572 1.526-4.572 4.572v27.404c0 3.039 1.526 4.572 4.572 4.572h27.404c3.046 0 4.572-1.526 4.572-4.572v-27.404c0-3.045-1.523-4.572-4.572-4.572z"/>
  <path transform="matrix(.029188 0 0 .029188 0 .39994)" d="m296.93 219.27h27.411c3.046 0 4.565-1.525 4.565-4.57v-27.406c0-3.046-1.52-4.565-4.565-4.57h-27.411c-3.046 0-4.565 1.524-4.565 4.57v27.406c-1e-3 3.045 1.519 4.57 4.565 4.57z"/>
  <path transform="matrix(.029188 0 0 .029188 0 .39994)" d="m370.02 219.27h27.404c3.046 0 4.572-1.525 4.572-4.57v-27.406c0-3.046-1.526-4.565-4.572-4.57h-27.404c-3.046 0-4.572 1.524-4.572 4.57v27.406c-1e-3 3.045 1.526 4.57 4.572 4.57z"/>
  <path transform="matrix(.029188 0 0 .029188 0 .39994)" d="m401.99 287.79c0 3.042 1.522 4.572 4.568 4.572h63.953c3.046 0 4.572-1.53 4.572-4.572v-100.5c0-3.046-1.522-4.565-4.572-4.57h-27.404c-3.046 0-4.572 1.524-4.572 4.57v68.52h-31.976c-3.046 0-4.568 1.523-4.568 4.568v27.41z"/>
 </g>
</svg>
