<?xml version="1.0" encoding="UTF-8" standalone="no"?>
<!-- Generator: Adobe Illustrator 16.0.0, SVG Export Plug-In . SVG Version: 6.00 Build 0)  -->

<svg
   xmlns:dc="http://purl.org/dc/elements/1.1/"
   xmlns:cc="http://creativecommons.org/ns#"
   xmlns:rdf="http://www.w3.org/1999/02/22-rdf-syntax-ns#"
   xmlns:svg="http://www.w3.org/2000/svg"
   xmlns="http://www.w3.org/2000/svg"
   xmlns:sodipodi="http://sodipodi.sourceforge.net/DTD/sodipodi-0.dtd"
   xmlns:inkscape="http://www.inkscape.org/namespaces/inkscape"
   version="1.1"
   id="Capa_1"
   x="0px"
   y="0px"
   width="16"
   height="16"
   viewBox="0 0 15.999999 15.999999"
   xml:space="preserve"
   inkscape:version="0.91 r13725"
   sodipodi:docname="keyboard.svg"><metadata
     id="metadata69"><rdf:RDF><cc:Work
         rdf:about=""><dc:format>image/svg+xml</dc:format><dc:type
           rdf:resource="http://purl.org/dc/dcmitype/StillImage" /><dc:title /></cc:Work></rdf:RDF></metadata><defs
     id="defs67" /><sodipodi:namedview
     pagecolor="#ffffff"
     bordercolor="#666666"
     borderopacity="1"
     objecttolerance="10"
     gridtolerance="10"
     guidetolerance="10"
     inkscape:pageopacity="0"
     inkscape:pageshadow="2"
     inkscape:window-width="1043"
     inkscape:window-height="592"
     id="namedview65"
     showgrid="false"
     inkscape:zoom="5.9833618"
     inkscape:cx="-24.237953"
     inkscape:cy="4.1145633"
     inkscape:window-x="0"
     inkscape:window-y="0"
     inkscape:window-maximized="0"
     inkscape:current-layer="Capa_1" /><g
     id="g3"
     transform="matrix(0.0291877,0,0,0.0291877,0,0.3999369)"
     style="fill:#353a40;fill-opacity:1"><g
       id="g5"
       style="fill:#353a40;fill-opacity:1"><path
         d="m 537.468,120.342 c -7.139,-7.139 -15.753,-10.709 -25.841,-10.709 l -475.082,0 c -10.088,0 -18.699,3.571 -25.837,10.709 C 3.571,127.48 0,136.094 0,146.179 l 0,255.815 c 0,10.089 3.571,18.698 10.708,25.837 7.139,7.139 15.749,10.712 25.837,10.712 l 475.082,0 c 10.088,0 18.702,-3.573 25.841,-10.712 7.135,-7.139 10.708,-15.748 10.708,-25.837 l 0,-255.815 c 0,-10.085 -3.573,-18.699 -10.708,-25.837 z m -25.841,281.652 -475.082,0 0,-255.815 475.082,0 0,255.815 z"
         id="path7"
         inkscape:connector-curvature="0"
         style="fill:#353a40;fill-opacity:1" /><path
         d="m 77.657,365.445 27.408,0 c 3.046,0 4.569,-1.526 4.569,-4.568 l 0,-27.408 c 0,-3.039 -1.52,-4.568 -4.569,-4.568 l -27.408,0 c -3.044,0 -4.568,1.529 -4.568,4.568 l 0,27.408 c 0,3.042 1.524,4.568 4.568,4.568 z"
         id="path9"
         inkscape:connector-curvature="0"
         style="fill:#353a40;fill-opacity:1" /><path
         d="m 77.657,292.362 63.954,0 c 3.045,0 4.57,-1.53 4.57,-4.572 l 0,-27.41 c 0,-3.045 -1.525,-4.565 -4.57,-4.568 l -63.954,0 c -3.044,0 -4.568,1.523 -4.568,4.568 l 0,27.41 c 0,3.042 1.524,4.572 4.568,4.572 z"
         id="path11"
         inkscape:connector-curvature="0"
         style="fill:#353a40;fill-opacity:1" /><path
         d="m 77.657,219.268 27.408,0 c 3.046,0 4.569,-1.525 4.569,-4.57 l 0,-27.406 c 0,-3.046 -1.52,-4.565 -4.569,-4.57 l -27.408,0 c -3.044,0 -4.568,1.524 -4.568,4.57 l 0,27.406 c 0,3.045 1.524,4.57 4.568,4.57 z"
         id="path13"
         inkscape:connector-curvature="0"
         style="fill:#353a40;fill-opacity:1" /><path
         d="m 397.43,328.903 -246.679,0 c -3.046,0 -4.57,1.526 -4.57,4.572 l 0,27.404 c 0,3.039 1.524,4.572 4.57,4.572 l 246.67,0 c 3.046,0 4.572,-1.526 4.572,-4.572 l 0,-27.404 c 0.001,-3.045 -1.525,-4.572 -4.563,-4.572 z"
         id="path15"
         inkscape:connector-curvature="0"
         style="fill:#353a40;fill-opacity:1" /><path
         d="m 182.725,287.79 c 0,3.042 1.523,4.572 4.565,4.572 l 27.412,0 c 3.044,0 4.565,-1.53 4.565,-4.572 l 0,-27.41 c 0,-3.045 -1.518,-4.565 -4.565,-4.568 l -27.412,0 c -3.042,0 -4.565,1.523 -4.565,4.568 l 0,27.41 z"
         id="path17"
         inkscape:connector-curvature="0"
         style="fill:#353a40;fill-opacity:1" /><path
         d="m 150.751,219.268 27.406,0 c 3.046,0 4.57,-1.525 4.57,-4.57 l 0,-27.406 c 0,-3.046 -1.524,-4.565 -4.57,-4.57 l -27.406,0 c -3.046,0 -4.57,1.524 -4.57,4.57 l 0,27.406 c 0,3.045 1.525,4.57 4.57,4.57 z"
         id="path19"
         inkscape:connector-curvature="0"
         style="fill:#353a40;fill-opacity:1" /><path
         d="m 255.813,287.79 c 0,3.042 1.524,4.572 4.568,4.572 l 27.408,0 c 3.046,0 4.572,-1.53 4.572,-4.572 l 0,-27.41 c 0,-3.045 -1.526,-4.565 -4.572,-4.568 l -27.408,0 c -3.044,0 -4.568,1.523 -4.568,4.568 l 0,27.41 z"
         id="path21"
         inkscape:connector-curvature="0"
         style="fill:#353a40;fill-opacity:1" /><path
         d="m 223.837,219.268 27.406,0 c 3.046,0 4.57,-1.525 4.57,-4.57 l 0,-27.406 c 0,-3.046 -1.521,-4.565 -4.57,-4.57 l -27.406,0 c -3.046,0 -4.57,1.524 -4.57,4.57 l 0,27.406 c 0,3.045 1.524,4.57 4.57,4.57 z"
         id="path23"
         inkscape:connector-curvature="0"
         style="fill:#353a40;fill-opacity:1" /><path
         d="m 328.904,287.79 c 0,3.042 1.525,4.572 4.564,4.572 l 27.412,0 c 3.045,0 4.564,-1.53 4.564,-4.572 l 0,-27.41 c 0,-3.045 -1.52,-4.565 -4.564,-4.568 l -27.412,0 c -3.039,0 -4.564,1.523 -4.564,4.568 l 0,27.41 z"
         id="path25"
         inkscape:connector-curvature="0"
         style="fill:#353a40;fill-opacity:1" /><path
         d="m 470.513,328.903 -27.404,0 c -3.046,0 -4.572,1.526 -4.572,4.572 l 0,27.404 c 0,3.039 1.526,4.572 4.572,4.572 l 27.404,0 c 3.046,0 4.572,-1.526 4.572,-4.572 l 0,-27.404 c 0,-3.045 -1.523,-4.572 -4.572,-4.572 z"
         id="path27"
         inkscape:connector-curvature="0"
         style="fill:#353a40;fill-opacity:1" /><path
         d="m 296.928,219.268 27.411,0 c 3.046,0 4.565,-1.525 4.565,-4.57 l 0,-27.406 c 0,-3.046 -1.52,-4.565 -4.565,-4.57 l -27.411,0 c -3.046,0 -4.565,1.524 -4.565,4.57 l 0,27.406 c -10e-4,3.045 1.519,4.57 4.565,4.57 z"
         id="path29"
         inkscape:connector-curvature="0"
         style="fill:#353a40;fill-opacity:1" /><path
         d="m 370.018,219.268 27.404,0 c 3.046,0 4.572,-1.525 4.572,-4.57 l 0,-27.406 c 0,-3.046 -1.526,-4.565 -4.572,-4.57 l -27.404,0 c -3.046,0 -4.572,1.524 -4.572,4.57 l 0,27.406 c -0.001,3.045 1.526,4.57 4.572,4.57 z"
         id="path31"
         inkscape:connector-curvature="0"
         style="fill:#353a40;fill-opacity:1" /><path
         d="m 401.991,287.79 c 0,3.042 1.522,4.572 4.568,4.572 l 63.953,0 c 3.046,0 4.572,-1.53 4.572,-4.572 l 0,-100.498 c 0,-3.046 -1.522,-4.565 -4.572,-4.57 l -27.404,0 c -3.046,0 -4.572,1.524 -4.572,4.57 l 0,68.52 -31.976,0 c -3.046,0 -4.568,1.523 -4.568,4.568 l 0,27.41 z"
         id="path33"
         inkscape:connector-curvature="0"
         style="fill:#353a40;fill-opacity:1" /></g></g><g
     id="g35"
     transform="matrix(0.0291877,0,0,0.0291877,0,0.3999369)"
     style="fill:#353a40;fill-opacity:1" /><g
     id="g37"
     transform="matrix(0.0291877,0,0,0.0291877,0,0.3999369)"
     style="fill:#353a40;fill-opacity:1" /><g
     id="g39"
     transform="matrix(0.0291877,0,0,0.0291877,0,0.3999369)"
     style="fill:#353a40;fill-opacity:1" /><g
     id="g41"
     transform="matrix(0.0291877,0,0,0.0291877,0,0.3999369)"
     style="fill:#353a40;fill-opacity:1" /><g
     id="g43"
     transform="matrix(0.0291877,0,0,0.0291877,0,0.3999369)"
     style="fill:#353a40;fill-opacity:1" /><g
     id="g45"
     transform="matrix(0.0291877,0,0,0.0291877,0,0.3999369)"
     style="fill:#353a40;fill-opacity:1" /><g
     id="g47"
     transform="matrix(0.0291877,0,0,0.0291877,0,0.3999369)"
     style="fill:#353a40;fill-opacity:1" /><g
     id="g49"
     transform="matrix(0.0291877,0,0,0.0291877,0,0.3999369)"
     style="fill:#353a40;fill-opacity:1" /><g
     id="g51"
     transform="matrix(0.0291877,0,0,0.0291877,0,0.3999369)"
     style="fill:#353a40;fill-opacity:1" /><g
     id="g53"
     transform="matrix(0.0291877,0,0,0.0291877,0,0.3999369)"
     style="fill:#353a40;fill-opacity:1" /><g
     id="g55"
     transform="matrix(0.0291877,0,0,0.0291877,0,0.3999369)"
     style="fill:#353a40;fill-opacity:1" /><g
     id="g57"
     transform="matrix(0.0291877,0,0,0.0291877,0,0.3999369)"
     style="fill:#353a40;fill-opacity:1" /><g
     id="g59"
     transform="matrix(0.0291877,0,0,0.0291877,0,0.3999369)"
     style="fill:#353a40;fill-opacity:1" /><g
     id="g61"
     transform="matrix(0.0291877,0,0,0.0291877,0,0.3999369)"
     style="fill:#353a40;fill-opacity:1" /><g
     id="g63"
     transform="matrix(0.0291877,0,0,0.0291877,0,0.3999369)"
     style="fill:#353a40;fill-opacity:1" /></svg>
