<?xml version="1.0" encoding="UTF-8" standalone="no"?>
<!-- Generator: Adobe Illustrator 19.0.0, SVG Export Plug-In . SVG Version: 6.00 Build 0)  -->

<svg
   xmlns:dc="http://purl.org/dc/elements/1.1/"
   xmlns:cc="http://creativecommons.org/ns#"
   xmlns:rdf="http://www.w3.org/1999/02/22-rdf-syntax-ns#"
   xmlns:svg="http://www.w3.org/2000/svg"
   xmlns="http://www.w3.org/2000/svg"
   xmlns:sodipodi="http://sodipodi.sourceforge.net/DTD/sodipodi-0.dtd"
   xmlns:inkscape="http://www.inkscape.org/namespaces/inkscape"
   version="1.1"
   id="Layer_1"
   x="0px"
   y="0px"
   viewBox="0 0 492.004 492.004"
   style="enable-background:new 0 0 492.004 492.004;"
   xml:space="preserve"
   inkscape:version="0.91 r13725"
   sodipodi:docname="ypos.svg"
   inkscape:export-filename="/Users/zefal/Development/Universal-G-Code-Sender/ugs-platform/ugs-platform-plugin-jog/src/main/resources/icons/ypos.png"
   inkscape:export-xdpi="2.9268055"
   inkscape:export-ydpi="2.9268055"><metadata
     id="metadata43"><rdf:RDF><cc:Work
         rdf:about=""><dc:format>image/svg+xml</dc:format><dc:type
           rdf:resource="http://purl.org/dc/dcmitype/StillImage" /></cc:Work></rdf:RDF></metadata><defs
     id="defs41" /><sodipodi:namedview
     pagecolor="#ffffff"
     bordercolor="#666666"
     borderopacity="1"
     objecttolerance="10"
     gridtolerance="10"
     guidetolerance="10"
     inkscape:pageopacity="0"
     inkscape:pageshadow="2"
     inkscape:window-width="981"
     inkscape:window-height="584"
     id="namedview39"
     showgrid="false"
     inkscape:zoom="0.4796709"
     inkscape:cx="152.18768"
     inkscape:cy="246.002"
     inkscape:window-x="312"
     inkscape:window-y="77"
     inkscape:window-maximized="0"
     inkscape:current-layer="Layer_1" /><g
     id="g3"
     style="fill:#05d4ff;fill-opacity:1"
     transform="matrix(0,-1,1,0,3.4242799e-5,492.00403)"><g
       id="g5"
       style="fill:#05d4ff;fill-opacity:1"><path
         d="M 382.678,226.804 163.73,7.86 C 158.666,2.792 151.906,0 144.698,0 137.49,0 130.73,2.792 125.666,7.86 l -16.124,16.12 c -10.492,10.504 -10.492,27.576 0,38.064 L 293.398,245.9 109.338,429.96 c -5.064,5.068 -7.86,11.824 -7.86,19.028 0,7.212 2.796,13.968 7.86,19.04 l 16.124,16.116 c 5.068,5.068 11.824,7.86 19.032,7.86 7.208,0 13.968,-2.792 19.032,-7.86 L 382.678,265 c 5.076,-5.084 7.864,-11.872 7.848,-19.088 0.016,-7.244 -2.772,-14.028 -7.848,-19.108 z"
         id="path7"
         style="fill:#05d4ff;fill-opacity:1"
         inkscape:connector-curvature="0" /></g></g><g
     id="g9" /><g
     id="g11" /><g
     id="g13" /><g
     id="g15" /><g
     id="g17" /><g
     id="g19" /><g
     id="g21" /><g
     id="g23" /><g
     id="g25" /><g
     id="g27" /><g
     id="g29" /><g
     id="g31" /><g
     id="g33" /><g
     id="g35" /><g
     id="g37" /></svg>