<?xml version="1.0" encoding="iso-8859-1"?>
<!-- Generator: Adobe Illustrator 19.0.0, SVG Export Plug-In . SVG Version: 6.00 Build 0)  -->
<svg version="1.1" id="Layer_1" xmlns="http://www.w3.org/2000/svg" xmlns:xlink="http://www.w3.org/1999/xlink" x="0px" y="0px"
	 viewBox="0 0 492 492" style="enable-background:new 0 0 492 492;" xml:space="preserve">
<g>
	<g>
		<path d="M359.096,213.36l-16.12-16.124c-5.064-5.064-11.816-7.852-19.024-7.852c-7.208,0-14.012,2.788-19.08,7.852l-20.432,20.388
			V27.056C284.44,12.224,272.468,0,257.632,0h-0.104h-22.704c-14.836,0-27.264,12.224-27.264,27.056v191.736l-21.336-21.52
			c-5.068-5.064-11.732-7.852-18.932-7.852c-7.208,0-13.916,2.788-18.98,7.852l-16.1,16.12
			c-10.488,10.492-10.476,27.564,0.012,38.052l94.324,94.332c5.064,5.06,11.828,7.852,19.092,7.852h0.068
			c7.212,0,13.968-2.792,19.032-7.852l94.356-94.356c5.064-5.072,7.852-11.828,7.852-19.036
			C366.948,225.184,364.16,218.428,359.096,213.36z"/>
	</g>
</g>
<g>
	<g>
		<path d="M453.348,149.908H418.94c-14.724,0-26.88,12.424-26.88,27.148v22.796c0,13.556,11.532,24.804,23.064,26.644v188.628
			H76.872V226.528c11.532-1.764,23.064-13.052,23.064-26.676v-22.796c0-14.724-12.172-27.148-26.9-27.148H38.444
			C17.248,149.908,0,167.14,0,188.328v265.1C0,474.62,17.248,492,38.444,492h414.904C474.544,492,492,474.62,492,453.428v-265.1
			C492,167.136,474.544,149.908,453.348,149.908z"/>
	</g>
</g>
<g>
</g>
<g>
</g>
<g>
</g>
<g>
</g>
<g>
</g>
<g>
</g>
<g>
</g>
<g>
</g>
<g>
</g>
<g>
</g>
<g>
</g>
<g>
</g>
<g>
</g>
<g>
</g>
<g>
</g>
</svg>
