  0
SECTION
  2
HEADER
  9
$ACADVER
  1
AC1009
  9
$DWGCODEPAGE
  3
ansi_1252
  9
$INSBASE
 10
0.0
 20
0.0
 30
0.0
  9
$EXTMIN
 10
482.3022
 20
54.355
 30
0.0
  9
$EXTMAX
 10
593.1218
 20
165.1746
 30
0.0
  9
$LIMMIN
 10
0.0
 20
0.0
  9
$LIMMAX
 10
12.0
 20
9.0
  9
$ORTHOMODE
 70
     0
  9
$REGENMODE
 70
     1
  9
$FILLMODE
 70
     1
  9
$QTEXTMODE
 70
     0
  9
$MIRRTEXT
 70
     1
  9
$DRAGMODE
 70
     2
  9
$LTSCALE
 40
1.0
  9
$OSMODE
 70
    37
  9
$ATTMODE
 70
     1
  9
$TEXTSIZE
 40
0.2
  9
$TRACEWID
 40
0.05
  9
$TEXTSTYLE
  7
STANDARD
  9
$CLAYER
  8
0
  9
$CELTYPE
  6
BYLAYER
  9
$CECOLOR
 62
   256
  9
$DIMSCALE
 40
1.0
  9
$DIMASZ
 40
0.18
  9
$DIMEXO
 40
0.0625
  9
$DIMDLI
 40
0.38
  9
$DIMRND
 40
0.0
  9
$DIMDLE
 40
0.0
  9
$DIMEXE
 40
0.18
  9
$DIMTP
 40
0.0
  9
$DIMTM
 40
0.0
  9
$DIMTXT
 40
0.18
  9
$DIMCEN
 40
0.09
  9
$DIMTSZ
 40
0.0
  9
$DIMTOL
 70
     0
  9
$DIMLIM
 70
     0
  9
$DIMTIH
 70
     1
  9
$DIMTOH
 70
     1
  9
$DIMSE1
 70
     0
  9
$DIMSE2
 70
     0
  9
$DIMTAD
 70
     0
  9
$DIMZIN
 70
     0
  9
$DIMBLK
  1

  9
$DIMASO
 70
     1
  9
$DIMSHO
 70
     1
  9
$DIMPOST
  1

  9
$DIMAPOST
  1

  9
$DIMALT
 70
     0
  9
$DIMALTD
 70
     2
  9
$DIMALTF
 40
25.4
  9
$DIMLFAC
 40
1.0
  9
$DIMTOFL
 70
     0
  9
$DIMTVP
 40
0.0
  9
$DIMTIX
 70
     0
  9
$DIMSOXD
 70
     0
  9
$DIMSAH
 70
     0
  9
$DIMBLK1
  1

  9
$DIMBLK2
  1

  9
$DIMSTYLE
  2
STANDARD
  9
$DIMCLRD
 70
     0
  9
$DIMCLRE
 70
     0
  9
$DIMCLRT
 70
     0
  9
$DIMTFAC
 40
1.0
  9
$DIMGAP
 40
0.09
  9
$LUNITS
 70
     2
  9
$LUPREC
 70
     4
  9
$SKETCHINC
 40
0.1
  9
$FILLETRAD
 40
0.5
  9
$AUNITS
 70
     0
  9
$AUPREC
 70
     0
  9
$MENU
  1
.
  9
$ELEVATION
 40
0.0
  9
$PELEVATION
 40
0.0
  9
$THICKNESS
 40
0.0
  9
$LIMCHECK
 70
     0
  9
$CHAMFERA
 40
0.0
  9
$CHAMFERB
 40
0.0
  9
$SKPOLY
 70
     0
  9
$TDCREATE
 40
2460852.662323843
  9
$TDUPDATE
 40
2460852.662324583
  9
$TDINDWG
 40
0.0000000116
  9
$TDUSRTIMER
 40
0.0000000116
  9
$USRTIMER
 70
     1
  9
$ANGBASE
 50
0.0
  9
$ANGDIR
 70
     0
  9
$PDMODE
 70
     0
  9
$PDSIZE
 40
0.0
  9
$PLINEWID
 40
0.0
  9
$COORDS
 70
     1
  9
$SPLFRAME
 70
     0
  9
$SPLINETYPE
 70
     6
  9
$SPLINESEGS
 70
     8
  9
$ATTDIA
 70
     0
  9
$ATTREQ
 70
     1
  9
$HANDLING
 70
     1
  9
$HANDSEED
  5
519
  9
$SURFTAB1
 70
     6
  9
$SURFTAB2
 70
     6
  9
$SURFTYPE
 70
     6
  9
$SURFU
 70
     6
  9
$SURFV
 70
     6
  9
$UCSNAME
  2

  9
$UCSORG
 10
0.0
 20
0.0
 30
0.0
  9
$UCSXDIR
 10
1.0
 20
0.0
 30
0.0
  9
$UCSYDIR
 10
0.0
 20
1.0
 30
0.0
  9
$PUCSNAME
  2

  9
$PUCSORG
 10
0.0
 20
0.0
 30
0.0
  9
$PUCSXDIR
 10
1.0
 20
0.0
 30
0.0
  9
$PUCSYDIR
 10
0.0
 20
1.0
 30
0.0
  9
$USERI1
 70
     0
  9
$USERI2
 70
     0
  9
$USERI3
 70
     0
  9
$USERI4
 70
     0
  9
$USERI5
 70
     0
  9
$USERR1
 40
0.0
  9
$USERR2
 40
0.0
  9
$USERR3
 40
0.0
  9
$USERR4
 40
0.0
  9
$USERR5
 40
0.0
  9
$WORLDVIEW
 70
     1
  9
$SHADEDGE
 70
     3
  9
$SHADEDIF
 70
    70
  9
$TILEMODE
 70
     1
  9
$MAXACTVP
 70
    64
  9
$PLIMCHECK
 70
     0
  9
$PEXTMIN
 10
1.000000000000000E+20
 20
1.000000000000000E+20
 30
1.000000000000000E+20
  9
$PEXTMAX
 10
-1.000000000000000E+20
 20
-1.000000000000000E+20
 30
-1.000000000000000E+20
  9
$PLIMMIN
 10
0.0
 20
0.0
  9
$PLIMMAX
 10
12.0
 20
9.0
  9
$UNITMODE
 70
     0
  9
$VISRETAIN
 70
     1
  9
$PLINEGEN
 70
     0
  9
$PSLTSCALE
 70
     1
  0
ENDSEC
  0
SECTION
  2
TABLES
  0
TABLE
  2
VPORT
 70
     1
  0
VPORT
  2
*ACTIVE
 70
     0
 10
0.0
 20
0.0
 11
1.0
 21
1.0
 12
10.42990654205607
 22
4.5
 13
0.0
 23
0.0
 14
0.5
 24
0.5
 15
0.5
 25
0.5
 16
0.0
 26
0.0
 36
1.0
 17
0.0
 27
0.0
 37
0.0
 40
9.0
 41
1.972972972850329
 42
50.0
 43
0.0
 44
0.0
 50
0.0
 51
0.0
 71
     0
 72
   100
 73
     1
 74
     3
 75
     0
 76
     0
 77
     0
 78
     0
  0
ENDTAB
  0
TABLE
  2
LTYPE
 70
     1
  0
LTYPE
  2
CONTINUOUS
 70
     0
  3
Solid line
 72
    65
 73
     0
 40
0.0
  0
ENDTAB
  0
TABLE
  2
LAYER
 70
     2
  0
LAYER
  2
0
 70
     0
 62
     7
  6
CONTINUOUS
  0
LAYER
  2
LAYER_1
 70
     0
 62
     7
  6
CONTINUOUS
  0
ENDTAB
  0
TABLE
  2
STYLE
 70
     1
  0
STYLE
  2
STANDARD
 70
     0
 40
0.0
 41
1.0
 50
0.0
 71
     0
 42
0.2
  3
txt
  4

  0
ENDTAB
  0
TABLE
  2
VIEW
 70
     0
  0
ENDTAB
  0
TABLE
  2
UCS
 70
     0
  0
ENDTAB
  0
TABLE
  2
APPID
 70
     2
  0
APPID
  2
ACAD
 70
     0
  0
APPID
  2
ODA
 70
     0
  0
ENDTAB
  0
TABLE
  2
DIMSTYLE
 70
     1
  0
DIMSTYLE
  2
STANDARD
 70
     0
  3

  4

  5

  6

  7

 40
1.0
 41
0.18
 42
0.0625
 43
0.38
 44
0.18
 45
0.0
 46
0.0
 47
0.0
 48
0.0
140
0.18
141
0.09
142
0.0
143
25.4
144
1.0
145
0.0
146
1.0
147
0.09
 71
     0
 72
     0
 73
     1
 74
     1
 75
     0
 76
     0
 77
     0
 78
     0
170
     0
171
     2
172
     0
173
     0
174
     0
175
     0
176
     0
177
     0
178
     0
  0
ENDTAB
  0
ENDSEC
  0
SECTION
  2
BLOCKS
  0
BLOCK
  8
0
  2
$MODEL_SPACE
 70
     0
 10
0.0
 20
0.0
 30
0.0
  3
$MODEL_SPACE
  1

  0
ENDBLK
  5
21
  8
0
  0
BLOCK
 67
     1
  8
0
  2
$PAPER_SPACE
 70
     0
 10
0.0
 20
0.0
 30
0.0
  3
$PAPER_SPACE
  1

  0
ENDBLK
  5
1D
 67
     1
  8
0
  0
ENDSEC
  0
SECTION
  2
ENTITIES
  0
POLYLINE
  5
6C
  8
LAYER_1
 62
   250
 66
     1
 10
0.0
 20
0.0
 30
0.0
 70
     1
  0
VERTEX
  5
88
  8
LAYER_1
 62
   250
 10
537.712
 20
135.7822
 30
0.0
  0
VERTEX
  5
89
  8
LAYER_1
 62
   250
 10
532.6362570559776
 20
135.282282954363
 30
0.0
  0
VERTEX
  5
8A
  8
LAYER_1
 62
   250
 10
527.7555720667845
 20
133.8017433491592
 30
0.0
  0
VERTEX
  5
8B
  8
LAYER_1
 62
   250
 10
523.2575070194358
 20
131.3974774911202
 30
0.0
  0
VERTEX
  5
8C
  8
LAYER_1
 62
   250
 10
519.3149200311572
 20
128.1618799688429
 30
0.0
  0
VERTEX
  5
8D
  8
LAYER_1
 62
   250
 10
516.0793225088797
 20
124.2192929805642
 30
0.0
  0
VERTEX
  5
8E
  8
LAYER_1
 62
   250
 10
513.6750566508408
 20
119.7212279332155
 30
0.0
  0
VERTEX
  5
8F
  8
LAYER_1
 62
   250
 10
512.194517045637
 20
114.8405429440224
 30
0.0
  0
VERTEX
  5
90
  8
LAYER_1
 62
   250
 10
511.6946
 20
109.7648
 30
0.0
  0
VERTEX
  5
91
  8
LAYER_1
 62
   250
 10
512.194517045637
 20
104.6890570559776
 30
0.0
  0
VERTEX
  5
92
  8
LAYER_1
 62
   250
 10
513.6750566508408
 20
99.80837206678451
 30
0.0
  0
VERTEX
  5
93
  8
LAYER_1
 62
   250
 10
516.0793225088797
 20
95.3103070194358
 30
0.0
  0
VERTEX
  5
94
  8
LAYER_1
 62
   250
 10
519.3149200311572
 20
91.36772003115712
 30
0.0
  0
VERTEX
  5
95
  8
LAYER_1
 62
   250
 10
523.2575070194358
 20
88.13212250887975
 30
0.0
  0
VERTEX
  5
96
  8
LAYER_1
 62
   250
 10
527.7555720667846
 20
85.72785665084083
 30
0.0
  0
VERTEX
  5
97
  8
LAYER_1
 62
   250
 10
532.6362570559776
 20
84.24731704563699
 30
0.0
  0
VERTEX
  5
98
  8
LAYER_1
 62
   250
 10
537.712
 20
83.7474
 30
0.0
  0
VERTEX
  5
99
  8
LAYER_1
 62
   250
 10
542.7877429440224
 20
84.24731704563699
 30
0.0
  0
VERTEX
  5
9A
  8
LAYER_1
 62
   250
 10
547.6684279332155
 20
85.72785665084086
 30
0.0
  0
VERTEX
  5
9B
  8
LAYER_1
 62
   250
 10
552.1664929805643
 20
88.13212250887977
 30
0.0
  0
VERTEX
  5
9C
  8
LAYER_1
 62
   250
 10
556.1090799688429
 20
91.36772003115715
 30
0.0
  0
VERTEX
  5
9D
  8
LAYER_1
 62
   250
 10
559.3446774911203
 20
95.31030701943584
 30
0.0
  0
VERTEX
  5
9E
  8
LAYER_1
 62
   250
 10
561.7489433491592
 20
99.80837206678456
 30
0.0
  0
VERTEX
  5
9F
  8
LAYER_1
 62
   250
 10
563.229482954363
 20
104.6890570559776
 30
0.0
  0
VERTEX
  5
A0
  8
LAYER_1
 62
   250
 10
563.7293999999999
 20
109.7648000000001
 30
0.0
  0
VERTEX
  5
A1
  8
LAYER_1
 62
   250
 10
563.229482954363
 20
114.8405429440225
 30
0.0
  0
VERTEX
  5
A2
  8
LAYER_1
 62
   250
 10
561.7489433491592
 20
119.7212279332155
 30
0.0
  0
VERTEX
  5
A3
  8
LAYER_1
 62
   250
 10
559.3446774911201
 20
124.2192929805643
 30
0.0
  0
VERTEX
  5
A4
  8
LAYER_1
 62
   250
 10
556.1090799688428
 20
128.1618799688429
 30
0.0
  0
VERTEX
  5
A5
  8
LAYER_1
 62
   250
 10
552.1664929805642
 20
131.3974774911203
 30
0.0
  0
VERTEX
  5
A6
  8
LAYER_1
 62
   250
 10
547.6684279332154
 20
133.8017433491592
 30
0.0
  0
VERTEX
  5
A7
  8
LAYER_1
 62
   250
 10
542.7877429440223
 20
135.282282954363
 30
0.0
  0
SEQEND
  5
504
  8
LAYER_1
 62
   250
  0
POLYLINE
  5
6D
  8
LAYER_1
 62
   250
 66
     1
 10
0.0
 20
0.0
 30
0.0
 70
     1
  0
VERTEX
  5
A8
  8
LAYER_1
 62
   250
 10
537.712
 20
165.1246
 30
0.0
  0
VERTEX
  5
A9
  8
LAYER_1
 62
   250
 10
526.9118387912515
 20
164.0608769660668
 30
0.0
  0
VERTEX
  5
AA
  8
LAYER_1
 62
   250
 10
516.526721720955
 20
160.9105861439183
 30
0.0
  0
VERTEX
  5
AB
  8
LAYER_1
 62
   250
 10
506.9557430140814
 20
155.7947914431464
 30
0.0
  0
VERTEX
  5
AC
  8
LAYER_1
 62
   250
 10
498.5667100148689
 20
148.910089985131
 30
0.0
  0
VERTEX
  5
AD
  8
LAYER_1
 62
   250
 10
491.6820085568535
 20
140.5210569859186
 30
0.0
  0
VERTEX
  5
AE
  8
LAYER_1
 62
   250
 10
486.5662138560817
 20
130.9500782790449
 30
0.0
  0
VERTEX
  5
AF
  8
LAYER_1
 62
   250
 10
483.4159230339332
 20
120.5649612087485
 30
0.0
  0
VERTEX
  5
B0
  8
LAYER_1
 62
   250
 10
482.3522
 20
109.7648
 30
0.0
  0
VERTEX
  5
B1
  8
LAYER_1
 62
   250
 10
483.4159230339332
 20
98.96463879125155
 30
0.0
  0
VERTEX
  5
B2
  8
LAYER_1
 62
   250
 10
486.5662138560817
 20
88.5795217209551
 30
0.0
  0
VERTEX
  5
B3
  8
LAYER_1
 62
   250
 10
491.6820085568535
 20
79.00854301408143
 30
0.0
  0
VERTEX
  5
B4
  8
LAYER_1
 62
   250
 10
498.5667100148689
 20
70.61951001486896
 30
0.0
  0
VERTEX
  5
B5
  8
LAYER_1
 62
   250
 10
506.9557430140814
 20
63.73480855685354
 30
0.0
  0
VERTEX
  5
B6
  8
LAYER_1
 62
   250
 10
516.5267217209552
 20
58.61901385608166
 30
0.0
  0
VERTEX
  5
B7
  8
LAYER_1
 62
   250
 10
526.9118387912515
 20
55.46872303393323
 30
0.0
  0
VERTEX
  5
B8
  8
LAYER_1
 62
   250
 10
537.712
 20
54.40499999999999
 30
0.0
  0
VERTEX
  5
B9
  8
LAYER_1
 62
   250
 10
548.5121612087485
 20
55.46872303393325
 30
0.0
  0
VERTEX
  5
BA
  8
LAYER_1
 62
   250
 10
558.8972782790449
 20
58.61901385608169
 30
0.0
  0
VERTEX
  5
BB
  8
LAYER_1
 62
   250
 10
568.4682569859186
 20
63.73480855685359
 30
0.0
  0
VERTEX
  5
BC
  8
LAYER_1
 62
   250
 10
576.857289985131
 20
70.61951001486904
 30
0.0
  0
VERTEX
  5
BD
  8
LAYER_1
 62
   250
 10
583.7419914431465
 20
79.0085430140815
 30
0.0
  0
VERTEX
  5
BE
  8
LAYER_1
 62
   250
 10
588.8577861439184
 20
88.5795217209552
 30
0.0
  0
VERTEX
  5
BF
  8
LAYER_1
 62
   250
 10
592.0080769660667
 20
98.96463879125166
 30
0.0
  0
VERTEX
  5
C0
  8
LAYER_1
 62
   250
 10
593.0717999999999
 20
109.7648000000001
 30
0.0
  0
VERTEX
  5
C1
  8
LAYER_1
 62
   250
 10
592.0080769660667
 20
120.5649612087486
 30
0.0
  0
VERTEX
  5
C2
  8
LAYER_1
 62
   250
 10
588.8577861439182
 20
130.950078279045
 30
0.0
  0
VERTEX
  5
C3
  8
LAYER_1
 62
   250
 10
583.7419914431464
 20
140.5210569859187
 30
0.0
  0
VERTEX
  5
C4
  8
LAYER_1
 62
   250
 10
576.8572899851309
 20
148.9100899851312
 30
0.0
  0
VERTEX
  5
C5
  8
LAYER_1
 62
   250
 10
568.4682569859184
 20
155.7947914431466
 30
0.0
  0
VERTEX
  5
C6
  8
LAYER_1
 62
   250
 10
558.8972782790447
 20
160.9105861439184
 30
0.0
  0
VERTEX
  5
C7
  8
LAYER_1
 62
   250
 10
548.5121612087482
 20
164.0608769660668
 30
0.0
  0
SEQEND
  5
505
  8
LAYER_1
 62
   250
  0
POLYLINE
  5
6E
  8
LAYER_1
 62
   250
 66
     1
 10
0.0
 20
0.0
 30
0.0
 70
     1
  0
VERTEX
  5
C8
  8
LAYER_1
 62
   250
 10
531.6973
 20
118.697
 30
0.0
  0
VERTEX
  5
C9
  8
LAYER_1
 62
   250
 10
532.5372
 20
118.4848
 30
0.0
  0
VERTEX
  5
CA
  8
LAYER_1
 62
   250
 10
532.4649
 20
118.2345
 30
0.0
  0
VERTEX
  5
CB
  8
LAYER_1
 62
   250
 10
532.3795
 20
117.9996
 30
0.0
  0
VERTEX
  5
CC
  8
LAYER_1
 62
   250
 10
532.2809
 20
117.7801
 30
0.0
  0
VERTEX
  5
CD
  8
LAYER_1
 62
   250
 10
532.1693
 20
117.576
 30
0.0
  0
VERTEX
  5
CE
  8
LAYER_1
 62
   250
 10
532.0445
 20
117.3873
 30
0.0
  0
VERTEX
  5
CF
  8
LAYER_1
 62
   250
 10
531.9065
 20
117.2138
 30
0.0
  0
VERTEX
  5
D0
  8
LAYER_1
 62
   250
 10
531.7555
 20
117.0556
 30
0.0
  0
VERTEX
  5
D1
  8
LAYER_1
 62
   250
 10
531.5913
 20
116.9126
 30
0.0
  0
VERTEX
  5
D2
  8
LAYER_1
 62
   250
 10
531.4158
 20
116.7857
 30
0.0
  0
VERTEX
  5
D3
  8
LAYER_1
 62
   250
 10
531.2308
 20
116.6756
 30
0.0
  0
VERTEX
  5
D4
  8
LAYER_1
 62
   250
 10
531.0362
 20
116.5824
 30
0.0
  0
VERTEX
  5
D5
  8
LAYER_1
 62
   250
 10
530.8321
 20
116.5061
 30
0.0
  0
VERTEX
  5
D6
  8
LAYER_1
 62
   250
 10
530.6184
 20
116.4468
 30
0.0
  0
VERTEX
  5
D7
  8
LAYER_1
 62
   250
 10
530.3953
 20
116.4044
 30
0.0
  0
VERTEX
  5
D8
  8
LAYER_1
 62
   250
 10
530.1625
 20
116.3789
 30
0.0
  0
VERTEX
  5
D9
  8
LAYER_1
 62
   250
 10
529.9203
 20
116.3704
 30
0.0
  0
VERTEX
  5
DA
  8
LAYER_1
 62
   250
 10
529.671
 20
116.3769
 30
0.0
  0
VERTEX
  5
DB
  8
LAYER_1
 62
   250
 10
529.4335
 20
116.3964
 30
0.0
  0
VERTEX
  5
DC
  8
LAYER_1
 62
   250
 10
529.208
 20
116.4289
 30
0.0
  0
VERTEX
  5
DD
  8
LAYER_1
 62
   250
 10
528.9943
 20
116.4745
 30
0.0
  0
VERTEX
  5
DE
  8
LAYER_1
 62
   250
 10
528.7925
 20
116.5331
 30
0.0
  0
VERTEX
  5
DF
  8
LAYER_1
 62
   250
 10
528.6025
 20
116.6048
 30
0.0
  0
VERTEX
  5
E0
  8
LAYER_1
 62
   250
 10
528.4245
 20
116.6895
 30
0.0
  0
VERTEX
  5
E1
  8
LAYER_1
 62
   250
 10
528.2583
 20
116.7874
 30
0.0
  0
VERTEX
  5
E2
  8
LAYER_1
 62
   250
 10
528.1029
 20
116.8971
 30
0.0
  0
VERTEX
  5
E3
  8
LAYER_1
 62
   250
 10
527.9571
 20
117.0186
 30
0.0
  0
VERTEX
  5
E4
  8
LAYER_1
 62
   250
 10
527.821
 20
117.1518
 30
0.0
  0
VERTEX
  5
E5
  8
LAYER_1
 62
   250
 10
527.6945
 20
117.2967
 30
0.0
  0
VERTEX
  5
E6
  8
LAYER_1
 62
   250
 10
527.5776
 20
117.4532
 30
0.0
  0
VERTEX
  5
E7
  8
LAYER_1
 62
   250
 10
527.4703
 20
117.6214
 30
0.0
  0
VERTEX
  5
E8
  8
LAYER_1
 62
   250
 10
527.3725
 20
117.8013
 30
0.0
  0
VERTEX
  5
E9
  8
LAYER_1
 62
   250
 10
527.2843
 20
117.9927
 30
0.0
  0
VERTEX
  5
EA
  8
LAYER_1
 62
   250
 10
527.206
 20
118.1922
 30
0.0
  0
VERTEX
  5
EB
  8
LAYER_1
 62
   250
 10
527.1382
 20
118.3953
 30
0.0
  0
VERTEX
  5
EC
  8
LAYER_1
 62
   250
 10
527.0807
 20
118.6018
 30
0.0
  0
VERTEX
  5
ED
  8
LAYER_1
 62
   250
 10
527.0336
 20
118.8119
 30
0.0
  0
VERTEX
  5
EE
  8
LAYER_1
 62
   250
 10
526.997
 20
119.0256
 30
0.0
  0
VERTEX
  5
EF
  8
LAYER_1
 62
   250
 10
526.9708
 20
119.243
 30
0.0
  0
VERTEX
  5
F0
  8
LAYER_1
 62
   250
 10
526.955
 20
119.464
 30
0.0
  0
VERTEX
  5
F1
  8
LAYER_1
 62
   250
 10
526.9498
 20
119.6887
 30
0.0
  0
VERTEX
  5
F2
  8
LAYER_1
 62
   250
 10
526.9557
 20
119.9317
 30
0.0
  0
VERTEX
  5
F3
  8
LAYER_1
 62
   250
 10
526.9733
 20
120.1669
 30
0.0
  0
VERTEX
  5
F4
  8
LAYER_1
 62
   250
 10
527.0027
 20
120.3942
 30
0.0
  0
VERTEX
  5
F5
  8
LAYER_1
 62
   250
 10
527.0439
 20
120.6136
 30
0.0
  0
VERTEX
  5
F6
  8
LAYER_1
 62
   250
 10
527.097
 20
120.8252
 30
0.0
  0
VERTEX
  5
F7
  8
LAYER_1
 62
   250
 10
527.1618
 20
121.0288
 30
0.0
  0
VERTEX
  5
F8
  8
LAYER_1
 62
   250
 10
527.2385
 20
121.2247
 30
0.0
  0
VERTEX
  5
F9
  8
LAYER_1
 62
   250
 10
527.327
 20
121.4126
 30
0.0
  0
VERTEX
  5
FA
  8
LAYER_1
 62
   250
 10
527.4265
 20
121.5911
 30
0.0
  0
VERTEX
  5
FB
  8
LAYER_1
 62
   250
 10
527.5359
 20
121.7585
 30
0.0
  0
VERTEX
  5
FC
  8
LAYER_1
 62
   250
 10
527.6553
 20
121.9149
 30
0.0
  0
VERTEX
  5
FD
  8
LAYER_1
 62
   250
 10
527.7846
 20
122.0602
 30
0.0
  0
VERTEX
  5
FE
  8
LAYER_1
 62
   250
 10
527.9238
 20
122.1945
 30
0.0
  0
VERTEX
  5
FF
  8
LAYER_1
 62
   250
 10
528.073
 20
122.3177
 30
0.0
  0
VERTEX
  5
100
  8
LAYER_1
 62
   250
 10
528.2321
 20
122.4299
 30
0.0
  0
VERTEX
  5
101
  8
LAYER_1
 62
   250
 10
528.4012
 20
122.531
 30
0.0
  0
VERTEX
  5
102
  8
LAYER_1
 62
   250
 10
528.5774
 20
122.6206
 30
0.0
  0
VERTEX
  5
103
  8
LAYER_1
 62
   250
 10
528.7581
 20
122.6982
 30
0.0
  0
VERTEX
  5
104
  8
LAYER_1
 62
   250
 10
528.9431
 20
122.7638
 30
0.0
  0
VERTEX
  5
105
  8
LAYER_1
 62
   250
 10
529.1326
 20
122.8174
 30
0.0
  0
VERTEX
  5
106
  8
LAYER_1
 62
   250
 10
529.3263
 20
122.8591
 30
0.0
  0
VERTEX
  5
107
  8
LAYER_1
 62
   250
 10
529.5244
 20
122.8888
 30
0.0
  0
VERTEX
  5
108
  8
LAYER_1
 62
   250
 10
529.7269
 20
122.9067
 30
0.0
  0
VERTEX
  5
109
  8
LAYER_1
 62
   250
 10
529.9336
 20
122.9126
 30
0.0
  0
VERTEX
  5
10A
  8
LAYER_1
 62
   250
 10
530.1664
 20
122.9051
 30
0.0
  0
VERTEX
  5
10B
  8
LAYER_1
 62
   250
 10
530.3897
 20
122.8825
 30
0.0
  0
VERTEX
  5
10C
  8
LAYER_1
 62
   250
 10
530.6035
 20
122.8448
 30
0.0
  0
VERTEX
  5
10D
  8
LAYER_1
 62
   250
 10
530.8077
 20
122.792
 30
0.0
  0
VERTEX
  5
10E
  8
LAYER_1
 62
   250
 10
531.0024
 20
122.724
 30
0.0
  0
VERTEX
  5
10F
  8
LAYER_1
 62
   250
 10
531.1876
 20
122.641
 30
0.0
  0
VERTEX
  5
110
  8
LAYER_1
 62
   250
 10
531.3633
 20
122.5427
 30
0.0
  0
VERTEX
  5
111
  8
LAYER_1
 62
   250
 10
531.5294
 20
122.4293
 30
0.0
  0
VERTEX
  5
112
  8
LAYER_1
 62
   250
 10
531.6851
 20
122.3022
 30
0.0
  0
VERTEX
  5
113
  8
LAYER_1
 62
   250
 10
531.8286
 20
122.163
 30
0.0
  0
VERTEX
  5
114
  8
LAYER_1
 62
   250
 10
531.9597
 20
122.0115
 30
0.0
  0
VERTEX
  5
115
  8
LAYER_1
 62
   250
 10
532.0786
 20
121.8479
 30
0.0
  0
VERTEX
  5
116
  8
LAYER_1
 62
   250
 10
532.1852
 20
121.672
 30
0.0
  0
VERTEX
  5
117
  8
LAYER_1
 62
   250
 10
532.2795
 20
121.4839
 30
0.0
  0
VERTEX
  5
118
  8
LAYER_1
 62
   250
 10
532.3614
 20
121.2835
 30
0.0
  0
VERTEX
  5
119
  8
LAYER_1
 62
   250
 10
532.4311
 20
121.0708
 30
0.0
  0
VERTEX
  5
11A
  8
LAYER_1
 62
   250
 10
531.6089
 20
120.8763
 30
0.0
  0
VERTEX
  5
11B
  8
LAYER_1
 62
   250
 10
531.551
 20
121.0429
 30
0.0
  0
VERTEX
  5
11C
  8
LAYER_1
 62
   250
 10
531.4869
 20
121.1978
 30
0.0
  0
VERTEX
  5
11D
  8
LAYER_1
 62
   250
 10
531.4164
 20
121.3411
 30
0.0
  0
VERTEX
  5
11E
  8
LAYER_1
 62
   250
 10
531.3397
 20
121.4727
 30
0.0
  0
VERTEX
  5
11F
  8
LAYER_1
 62
   250
 10
531.2567
 20
121.5925
 30
0.0
  0
VERTEX
  5
120
  8
LAYER_1
 62
   250
 10
531.1676
 20
121.7005
 30
0.0
  0
VERTEX
  5
121
  8
LAYER_1
 62
   250
 10
531.0723
 20
121.7968
 30
0.0
  0
VERTEX
  5
122
  8
LAYER_1
 62
   250
 10
530.9709
 20
121.8812
 30
0.0
  0
VERTEX
  5
123
  8
LAYER_1
 62
   250
 10
530.8631
 20
121.9552
 30
0.0
  0
VERTEX
  5
124
  8
LAYER_1
 62
   250
 10
530.7485
 20
122.0194
 30
0.0
  0
VERTEX
  5
125
  8
LAYER_1
 62
   250
 10
530.6272
 20
122.0736
 30
0.0
  0
VERTEX
  5
126
  8
LAYER_1
 62
   250
 10
530.4991
 20
122.1179
 30
0.0
  0
VERTEX
  5
127
  8
LAYER_1
 62
   250
 10
530.3642
 20
122.1523
 30
0.0
  0
VERTEX
  5
128
  8
LAYER_1
 62
   250
 10
530.2225
 20
122.1769
 30
0.0
  0
VERTEX
  5
129
  8
LAYER_1
 62
   250
 10
530.0741
 20
122.1916
 30
0.0
  0
VERTEX
  5
12A
  8
LAYER_1
 62
   250
 10
529.9189
 20
122.1965
 30
0.0
  0
VERTEX
  5
12B
  8
LAYER_1
 62
   250
 10
529.7408
 20
122.191
 30
0.0
  0
VERTEX
  5
12C
  8
LAYER_1
 62
   250
 10
529.57
 20
122.1747
 30
0.0
  0
VERTEX
  5
12D
  8
LAYER_1
 62
   250
 10
529.4066
 20
122.1474
 30
0.0
  0
VERTEX
  5
12E
  8
LAYER_1
 62
   250
 10
529.2507
 20
122.1092
 30
0.0
  0
VERTEX
  5
12F
  8
LAYER_1
 62
   250
 10
529.1022
 20
122.0601
 30
0.0
  0
VERTEX
  5
130
  8
LAYER_1
 62
   250
 10
528.9612
 20
122.0001
 30
0.0
  0
VERTEX
  5
131
  8
LAYER_1
 62
   250
 10
528.8277
 20
121.9291
 30
0.0
  0
VERTEX
  5
132
  8
LAYER_1
 62
   250
 10
528.7018
 20
121.8473
 30
0.0
  0
VERTEX
  5
133
  8
LAYER_1
 62
   250
 10
528.5842
 20
121.7562
 30
0.0
  0
VERTEX
  5
134
  8
LAYER_1
 62
   250
 10
528.4756
 20
121.6575
 30
0.0
  0
VERTEX
  5
135
  8
LAYER_1
 62
   250
 10
528.376
 20
121.5513
 30
0.0
  0
VERTEX
  5
136
  8
LAYER_1
 62
   250
 10
528.2856
 20
121.4377
 30
0.0
  0
VERTEX
  5
137
  8
LAYER_1
 62
   250
 10
528.2042
 20
121.3165
 30
0.0
  0
VERTEX
  5
138
  8
LAYER_1
 62
   250
 10
528.132
 20
121.188
 30
0.0
  0
VERTEX
  5
139
  8
LAYER_1
 62
   250
 10
528.069
 20
121.052
 30
0.0
  0
VERTEX
  5
13A
  8
LAYER_1
 62
   250
 10
528.0152
 20
120.9087
 30
0.0
  0
VERTEX
  5
13B
  8
LAYER_1
 62
   250
 10
527.9281
 20
120.6114
 30
0.0
  0
VERTEX
  5
13C
  8
LAYER_1
 62
   250
 10
527.8659
 20
120.3098
 30
0.0
  0
VERTEX
  5
13D
  8
LAYER_1
 62
   250
 10
527.8286
 20
120.0036
 30
0.0
  0
VERTEX
  5
13E
  8
LAYER_1
 62
   250
 10
527.8162
 20
119.6931
 30
0.0
  0
VERTEX
  5
13F
  8
LAYER_1
 62
   250
 10
527.8308
 20
119.3025
 30
0.0
  0
VERTEX
  5
140
  8
LAYER_1
 62
   250
 10
527.8748
 20
118.9374
 30
0.0
  0
VERTEX
  5
141
  8
LAYER_1
 62
   250
 10
527.948
 20
118.598
 30
0.0
  0
VERTEX
  5
142
  8
LAYER_1
 62
   250
 10
528.0505
 20
118.2844
 30
0.0
  0
VERTEX
  5
143
  8
LAYER_1
 62
   250
 10
528.1131
 20
118.1384
 30
0.0
  0
VERTEX
  5
144
  8
LAYER_1
 62
   250
 10
528.1839
 20
118.002
 30
0.0
  0
VERTEX
  5
145
  8
LAYER_1
 62
   250
 10
528.2629
 20
117.8753
 30
0.0
  0
VERTEX
  5
146
  8
LAYER_1
 62
   250
 10
528.35
 20
117.7581
 30
0.0
  0
VERTEX
  5
147
  8
LAYER_1
 62
   250
 10
528.4452
 20
117.6504
 30
0.0
  0
VERTEX
  5
148
  8
LAYER_1
 62
   250
 10
528.5486
 20
117.5522
 30
0.0
  0
VERTEX
  5
149
  8
LAYER_1
 62
   250
 10
528.6602
 20
117.4635
 30
0.0
  0
VERTEX
  5
14A
  8
LAYER_1
 62
   250
 10
528.7799
 20
117.3842
 30
0.0
  0
VERTEX
  5
14B
  8
LAYER_1
 62
   250
 10
529.0324
 20
117.2537
 30
0.0
  0
VERTEX
  5
14C
  8
LAYER_1
 62
   250
 10
529.295
 20
117.1607
 30
0.0
  0
VERTEX
  5
14D
  8
LAYER_1
 62
   250
 10
529.5679
 20
117.105
 30
0.0
  0
VERTEX
  5
14E
  8
LAYER_1
 62
   250
 10
529.8511
 20
117.0865
 30
0.0
  0
VERTEX
  5
14F
  8
LAYER_1
 62
   250
 10
530.0234
 20
117.0929
 30
0.0
  0
VERTEX
  5
150
  8
LAYER_1
 62
   250
 10
530.1888
 20
117.1119
 30
0.0
  0
VERTEX
  5
151
  8
LAYER_1
 62
   250
 10
530.3473
 20
117.1436
 30
0.0
  0
VERTEX
  5
152
  8
LAYER_1
 62
   250
 10
530.4991
 20
117.188
 30
0.0
  0
VERTEX
  5
153
  8
LAYER_1
 62
   250
 10
530.644
 20
117.245
 30
0.0
  0
VERTEX
  5
154
  8
LAYER_1
 62
   250
 10
530.7823
 20
117.3147
 30
0.0
  0
VERTEX
  5
155
  8
LAYER_1
 62
   250
 10
530.9138
 20
117.3969
 30
0.0
  0
VERTEX
  5
156
  8
LAYER_1
 62
   250
 10
531.0387
 20
117.4917
 30
0.0
  0
VERTEX
  5
157
  8
LAYER_1
 62
   250
 10
531.1554
 20
117.5994
 30
0.0
  0
VERTEX
  5
158
  8
LAYER_1
 62
   250
 10
531.2622
 20
117.7194
 30
0.0
  0
VERTEX
  5
159
  8
LAYER_1
 62
   250
 10
531.3593
 20
117.8516
 30
0.0
  0
VERTEX
  5
15A
  8
LAYER_1
 62
   250
 10
531.4465
 20
117.996
 30
0.0
  0
VERTEX
  5
15B
  8
LAYER_1
 62
   250
 10
531.5239
 20
118.1527
 30
0.0
  0
VERTEX
  5
15C
  8
LAYER_1
 62
   250
 10
531.5915
 20
118.3218
 30
0.0
  0
VERTEX
  5
15D
  8
LAYER_1
 62
   250
 10
531.6493
 20
118.5032
 30
0.0
  0
VERTEX
  5
15E
  8
LAYER_1
 62
   250
 10
531.6973
 20
118.697
 30
0.0
  0
SEQEND
  5
506
  8
LAYER_1
 62
   250
  0
POLYLINE
  5
6F
  8
LAYER_1
 62
   250
 66
     1
 10
0.0
 20
0.0
 30
0.0
 70
     1
  0
VERTEX
  5
15F
  8
LAYER_1
 62
   250
 10
533.4758
 20
121.9224
 30
0.0
  0
VERTEX
  5
160
  8
LAYER_1
 62
   250
 10
533.4758
 20
122.8065
 30
0.0
  0
VERTEX
  5
161
  8
LAYER_1
 62
   250
 10
534.2538
 20
122.8065
 30
0.0
  0
VERTEX
  5
162
  8
LAYER_1
 62
   250
 10
534.2538
 20
121.9224
 30
0.0
  0
VERTEX
  5
163
  8
LAYER_1
 62
   250
 10
533.4758
 20
121.9224
 30
0.0
  0
SEQEND
  5
507
  8
LAYER_1
 62
   250
  0
POLYLINE
  5
70
  8
LAYER_1
 62
   250
 66
     1
 10
0.0
 20
0.0
 30
0.0
 70
     1
  0
VERTEX
  5
164
  8
LAYER_1
 62
   250
 10
533.4758
 20
116.4765
 30
0.0
  0
VERTEX
  5
165
  8
LAYER_1
 62
   250
 10
533.4758
 20
121.0649
 30
0.0
  0
VERTEX
  5
166
  8
LAYER_1
 62
   250
 10
534.2538
 20
121.0649
 30
0.0
  0
VERTEX
  5
167
  8
LAYER_1
 62
   250
 10
534.2538
 20
116.4765
 30
0.0
  0
VERTEX
  5
168
  8
LAYER_1
 62
   250
 10
533.4758
 20
116.4765
 30
0.0
  0
SEQEND
  5
508
  8
LAYER_1
 62
   250
  0
POLYLINE
  5
71
  8
LAYER_1
 62
   250
 66
     1
 10
0.0
 20
0.0
 30
0.0
 70
     1
  0
VERTEX
  5
169
  8
LAYER_1
 62
   250
 10
535.4311
 20
116.4765
 30
0.0
  0
VERTEX
  5
16A
  8
LAYER_1
 62
   250
 10
535.4311
 20
121.0649
 30
0.0
  0
VERTEX
  5
16B
  8
LAYER_1
 62
   250
 10
536.1295
 20
121.0649
 30
0.0
  0
VERTEX
  5
16C
  8
LAYER_1
 62
   250
 10
536.1295
 20
120.362
 30
0.0
  0
VERTEX
  5
16D
  8
LAYER_1
 62
   250
 10
536.2607
 20
120.5855
 30
0.0
  0
VERTEX
  5
16E
  8
LAYER_1
 62
   250
 10
536.387
 20
120.7674
 30
0.0
  0
VERTEX
  5
16F
  8
LAYER_1
 62
   250
 10
536.5083
 20
120.9076
 30
0.0
  0
VERTEX
  5
170
  8
LAYER_1
 62
   250
 10
536.6246
 20
121.0059
 30
0.0
  0
VERTEX
  5
171
  8
LAYER_1
 62
   250
 10
536.7412
 20
121.0745
 30
0.0
  0
VERTEX
  5
172
  8
LAYER_1
 62
   250
 10
536.8633
 20
121.1233
 30
0.0
  0
VERTEX
  5
173
  8
LAYER_1
 62
   250
 10
536.9909
 20
121.1524
 30
0.0
  0
VERTEX
  5
174
  8
LAYER_1
 62
   250
 10
537.1241
 20
121.1621
 30
0.0
  0
VERTEX
  5
175
  8
LAYER_1
 62
   250
 10
537.3216
 20
121.1467
 30
0.0
  0
VERTEX
  5
176
  8
LAYER_1
 62
   250
 10
537.5208
 20
121.1004
 30
0.0
  0
VERTEX
  5
177
  8
LAYER_1
 62
   250
 10
537.7216
 20
121.0235
 30
0.0
  0
VERTEX
  5
178
  8
LAYER_1
 62
   250
 10
537.9242
 20
120.9161
 30
0.0
  0
VERTEX
  5
179
  8
LAYER_1
 62
   250
 10
537.6471
 20
120.1985
 30
0.0
  0
VERTEX
  5
17A
  8
LAYER_1
 62
   250
 10
537.5057
 20
120.2681
 30
0.0
  0
VERTEX
  5
17B
  8
LAYER_1
 62
   250
 10
537.3642
 20
120.3178
 30
0.0
  0
VERTEX
  5
17C
  8
LAYER_1
 62
   250
 10
537.2228
 20
120.3477
 30
0.0
  0
VERTEX
  5
17D
  8
LAYER_1
 62
   250
 10
537.0813
 20
120.3576
 30
0.0
  0
VERTEX
  5
17E
  8
LAYER_1
 62
   250
 10
536.9576
 20
120.348
 30
0.0
  0
VERTEX
  5
17F
  8
LAYER_1
 62
   250
 10
536.8404
 20
120.3191
 30
0.0
  0
VERTEX
  5
180
  8
LAYER_1
 62
   250
 10
536.7299
 20
120.2712
 30
0.0
  0
VERTEX
  5
181
  8
LAYER_1
 62
   250
 10
536.626
 20
120.2044
 30
0.0
  0
VERTEX
  5
182
  8
LAYER_1
 62
   250
 10
536.5326
 20
120.1207
 30
0.0
  0
VERTEX
  5
183
  8
LAYER_1
 62
   250
 10
536.4536
 20
120.022
 30
0.0
  0
VERTEX
  5
184
  8
LAYER_1
 62
   250
 10
536.389
 20
119.9085
 30
0.0
  0
VERTEX
  5
185
  8
LAYER_1
 62
   250
 10
536.3387
 20
119.78
 30
0.0
  0
VERTEX
  5
186
  8
LAYER_1
 62
   250
 10
536.2818
 20
119.5684
 30
0.0
  0
VERTEX
  5
187
  8
LAYER_1
 62
   250
 10
536.2413
 20
119.3468
 30
0.0
  0
VERTEX
  5
188
  8
LAYER_1
 62
   250
 10
536.217
 20
119.1153
 30
0.0
  0
VERTEX
  5
189
  8
LAYER_1
 62
   250
 10
536.209
 20
118.8738
 30
0.0
  0
VERTEX
  5
18A
  8
LAYER_1
 62
   250
 10
536.209
 20
116.4765
 30
0.0
  0
VERTEX
  5
18B
  8
LAYER_1
 62
   250
 10
535.4311
 20
116.4765
 30
0.0
  0
SEQEND
  5
509
  8
LAYER_1
 62
   250
  0
POLYLINE
  5
72
  8
LAYER_1
 62
   250
 66
     1
 10
0.0
 20
0.0
 30
0.0
 70
     1
  0
VERTEX
  5
18C
  8
LAYER_1
 62
   250
 10
541.3809
 20
118.1563
 30
0.0
  0
VERTEX
  5
18D
  8
LAYER_1
 62
   250
 10
542.1412
 20
118.0502
 30
0.0
  0
VERTEX
  5
18E
  8
LAYER_1
 62
   250
 10
542.1037
 20
117.8594
 30
0.0
  0
VERTEX
  5
18F
  8
LAYER_1
 62
   250
 10
542.0541
 20
117.6794
 30
0.0
  0
VERTEX
  5
190
  8
LAYER_1
 62
   250
 10
541.9925
 20
117.51
 30
0.0
  0
VERTEX
  5
191
  8
LAYER_1
 62
   250
 10
541.9187
 20
117.3514
 30
0.0
  0
VERTEX
  5
192
  8
LAYER_1
 62
   250
 10
541.8328
 20
117.2034
 30
0.0
  0
VERTEX
  5
193
  8
LAYER_1
 62
   250
 10
541.7347
 20
117.0659
 30
0.0
  0
VERTEX
  5
194
  8
LAYER_1
 62
   250
 10
541.6243
 20
116.9391
 30
0.0
  0
VERTEX
  5
195
  8
LAYER_1
 62
   250
 10
541.5017
 20
116.8228
 30
0.0
  0
VERTEX
  5
196
  8
LAYER_1
 62
   250
 10
541.3692
 20
116.7187
 30
0.0
  0
VERTEX
  5
197
  8
LAYER_1
 62
   250
 10
541.2293
 20
116.6285
 30
0.0
  0
VERTEX
  5
198
  8
LAYER_1
 62
   250
 10
541.0821
 20
116.5523
 30
0.0
  0
VERTEX
  5
199
  8
LAYER_1
 62
   250
 10
540.9274
 20
116.49
 30
0.0
  0
VERTEX
  5
19A
  8
LAYER_1
 62
   250
 10
540.7655
 20
116.4415
 30
0.0
  0
VERTEX
  5
19B
  8
LAYER_1
 62
   250
 10
540.5962
 20
116.4069
 30
0.0
  0
VERTEX
  5
19C
  8
LAYER_1
 62
   250
 10
540.4197
 20
116.3862
 30
0.0
  0
VERTEX
  5
19D
  8
LAYER_1
 62
   250
 10
540.236
 20
116.3793
 30
0.0
  0
VERTEX
  5
19E
  8
LAYER_1
 62
   250
 10
540.0069
 20
116.3889
 30
0.0
  0
VERTEX
  5
19F
  8
LAYER_1
 62
   250
 10
539.7893
 20
116.4177
 30
0.0
  0
VERTEX
  5
1A0
  8
LAYER_1
 62
   250
 10
539.5832
 20
116.4657
 30
0.0
  0
VERTEX
  5
1A1
  8
LAYER_1
 62
   250
 10
539.3886
 20
116.5329
 30
0.0
  0
VERTEX
  5
1A2
  8
LAYER_1
 62
   250
 10
539.2055
 20
116.6193
 30
0.0
  0
VERTEX
  5
1A3
  8
LAYER_1
 62
   250
 10
539.034
 20
116.7249
 30
0.0
  0
VERTEX
  5
1A4
  8
LAYER_1
 62
   250
 10
538.8741
 20
116.8497
 30
0.0
  0
VERTEX
  5
1A5
  8
LAYER_1
 62
   250
 10
538.7257
 20
116.9937
 30
0.0
  0
VERTEX
  5
1A6
  8
LAYER_1
 62
   250
 10
538.5916
 20
117.1556
 30
0.0
  0
VERTEX
  5
1A7
  8
LAYER_1
 62
   250
 10
538.4754
 20
117.3341
 30
0.0
  0
VERTEX
  5
1A8
  8
LAYER_1
 62
   250
 10
538.3771
 20
117.5291
 30
0.0
  0
VERTEX
  5
1A9
  8
LAYER_1
 62
   250
 10
538.2968
 20
117.7408
 30
0.0
  0
VERTEX
  5
1AA
  8
LAYER_1
 62
   250
 10
538.2343
 20
117.969
 30
0.0
  0
VERTEX
  5
1AB
  8
LAYER_1
 62
   250
 10
538.1897
 20
118.2137
 30
0.0
  0
VERTEX
  5
1AC
  8
LAYER_1
 62
   250
 10
538.1629
 20
118.4751
 30
0.0
  0
VERTEX
  5
1AD
  8
LAYER_1
 62
   250
 10
538.154
 20
118.753
 30
0.0
  0
VERTEX
  5
1AE
  8
LAYER_1
 62
   250
 10
538.1694
 20
119.1125
 30
0.0
  0
VERTEX
  5
1AF
  8
LAYER_1
 62
   250
 10
538.2157
 20
119.4485
 30
0.0
  0
VERTEX
  5
1B0
  8
LAYER_1
 62
   250
 10
538.2926
 20
119.7613
 30
0.0
  0
VERTEX
  5
1B1
  8
LAYER_1
 62
   250
 10
538.4001
 20
120.0511
 30
0.0
  0
VERTEX
  5
1B2
  8
LAYER_1
 62
   250
 10
538.4655
 20
120.1855
 30
0.0
  0
VERTEX
  5
1B3
  8
LAYER_1
 62
   250
 10
538.5388
 20
120.3113
 30
0.0
  0
VERTEX
  5
1B4
  8
LAYER_1
 62
   250
 10
538.6203
 20
120.4285
 30
0.0
  0
VERTEX
  5
1B5
  8
LAYER_1
 62
   250
 10
538.7097
 20
120.537
 30
0.0
  0
VERTEX
  5
1B6
  8
LAYER_1
 62
   250
 10
538.8073
 20
120.6368
 30
0.0
  0
VERTEX
  5
1B7
  8
LAYER_1
 62
   250
 10
538.9129
 20
120.7279
 30
0.0
  0
VERTEX
  5
1B8
  8
LAYER_1
 62
   250
 10
539.0267
 20
120.8101
 30
0.0
  0
VERTEX
  5
1B9
  8
LAYER_1
 62
   250
 10
539.1486
 20
120.8836
 30
0.0
  0
VERTEX
  5
1BA
  8
LAYER_1
 62
   250
 10
539.405
 20
121.0055
 30
0.0
  0
VERTEX
  5
1BB
  8
LAYER_1
 62
   250
 10
539.6726
 20
121.0925
 30
0.0
  0
VERTEX
  5
1BC
  8
LAYER_1
 62
   250
 10
539.9515
 20
121.1447
 30
0.0
  0
VERTEX
  5
1BD
  8
LAYER_1
 62
   250
 10
540.2419
 20
121.1621
 30
0.0
  0
VERTEX
  5
1BE
  8
LAYER_1
 62
   250
 10
540.424
 20
121.1562
 30
0.0
  0
VERTEX
  5
1BF
  8
LAYER_1
 62
   250
 10
540.5977
 20
121.1386
 30
0.0
  0
VERTEX
  5
1C0
  8
LAYER_1
 62
   250
 10
540.763
 20
121.1092
 30
0.0
  0
VERTEX
  5
1C1
  8
LAYER_1
 62
   250
 10
540.9199
 20
121.068
 30
0.0
  0
VERTEX
  5
1C2
  8
LAYER_1
 62
   250
 10
541.0683
 20
121.015
 30
0.0
  0
VERTEX
  5
1C3
  8
LAYER_1
 62
   250
 10
541.2081
 20
120.9502
 30
0.0
  0
VERTEX
  5
1C4
  8
LAYER_1
 62
   250
 10
541.3394
 20
120.8735
 30
0.0
  0
VERTEX
  5
1C5
  8
LAYER_1
 62
   250
 10
541.462
 20
120.7849
 30
0.0
  0
VERTEX
  5
1C6
  8
LAYER_1
 62
   250
 10
541.5755
 20
120.6855
 30
0.0
  0
VERTEX
  5
1C7
  8
LAYER_1
 62
   250
 10
541.6783
 20
120.5761
 30
0.0
  0
VERTEX
  5
1C8
  8
LAYER_1
 62
   250
 10
541.7704
 20
120.4568
 30
0.0
  0
VERTEX
  5
1C9
  8
LAYER_1
 62
   250
 10
541.8519
 20
120.3276
 30
0.0
  0
VERTEX
  5
1CA
  8
LAYER_1
 62
   250
 10
541.9227
 20
120.1885
 30
0.0
  0
VERTEX
  5
1CB
  8
LAYER_1
 62
   250
 10
541.9827
 20
120.0396
 30
0.0
  0
VERTEX
  5
1CC
  8
LAYER_1
 62
   250
 10
542.032
 20
119.8808
 30
0.0
  0
VERTEX
  5
1CD
  8
LAYER_1
 62
   250
 10
542.0705
 20
119.7122
 30
0.0
  0
VERTEX
  5
1CE
  8
LAYER_1
 62
   250
 10
541.319
 20
119.5973
 30
0.0
  0
VERTEX
  5
1CF
  8
LAYER_1
 62
   250
 10
541.2546
 20
119.8139
 30
0.0
  0
VERTEX
  5
1D0
  8
LAYER_1
 62
   250
 10
541.1695
 20
120.002
 30
0.0
  0
VERTEX
  5
1D1
  8
LAYER_1
 62
   250
 10
541.0633
 20
120.1615
 30
0.0
  0
VERTEX
  5
1D2
  8
LAYER_1
 62
   250
 10
540.9359
 20
120.2928
 30
0.0
  0
VERTEX
  5
1D3
  8
LAYER_1
 62
   250
 10
540.7917
 20
120.3944
 30
0.0
  0
VERTEX
  5
1D4
  8
LAYER_1
 62
   250
 10
540.6331
 20
120.4672
 30
0.0
  0
VERTEX
  5
1D5
  8
LAYER_1
 62
   250
 10
540.4602
 20
120.511
 30
0.0
  0
VERTEX
  5
1D6
  8
LAYER_1
 62
   250
 10
540.2729
 20
120.5256
 30
0.0
  0
VERTEX
  5
1D7
  8
LAYER_1
 62
   250
 10
540.1294
 20
120.519
 30
0.0
  0
VERTEX
  5
1D8
  8
LAYER_1
 62
   250
 10
539.9927
 20
120.4994
 30
0.0
  0
VERTEX
  5
1D9
  8
LAYER_1
 62
   250
 10
539.8629
 20
120.4665
 30
0.0
  0
VERTEX
  5
1DA
  8
LAYER_1
 62
   250
 10
539.74
 20
120.4206
 30
0.0
  0
VERTEX
  5
1DB
  8
LAYER_1
 62
   250
 10
539.624
 20
120.3615
 30
0.0
  0
VERTEX
  5
1DC
  8
LAYER_1
 62
   250
 10
539.5147
 20
120.2894
 30
0.0
  0
VERTEX
  5
1DD
  8
LAYER_1
 62
   250
 10
539.4123
 20
120.204
 30
0.0
  0
VERTEX
  5
1DE
  8
LAYER_1
 62
   250
 10
539.3166
 20
120.1056
 30
0.0
  0
VERTEX
  5
1DF
  8
LAYER_1
 62
   250
 10
539.2306
 20
119.9925
 30
0.0
  0
VERTEX
  5
1E0
  8
LAYER_1
 62
   250
 10
539.1561
 20
119.8644
 30
0.0
  0
VERTEX
  5
1E1
  8
LAYER_1
 62
   250
 10
539.093
 20
119.721
 30
0.0
  0
VERTEX
  5
1E2
  8
LAYER_1
 62
   250
 10
539.0414
 20
119.5625
 30
0.0
  0
VERTEX
  5
1E3
  8
LAYER_1
 62
   250
 10
539.0013
 20
119.3887
 30
0.0
  0
VERTEX
  5
1E4
  8
LAYER_1
 62
   250
 10
538.9726
 20
119.1995
 30
0.0
  0
VERTEX
  5
1E5
  8
LAYER_1
 62
   250
 10
538.9554
 20
118.995
 30
0.0
  0
VERTEX
  5
1E6
  8
LAYER_1
 62
   250
 10
538.9497
 20
118.7751
 30
0.0
  0
VERTEX
  5
1E7
  8
LAYER_1
 62
   250
 10
538.9552
 20
118.5521
 30
0.0
  0
VERTEX
  5
1E8
  8
LAYER_1
 62
   250
 10
538.9718
 20
118.3449
 30
0.0
  0
VERTEX
  5
1E9
  8
LAYER_1
 62
   250
 10
538.9994
 20
118.1536
 30
0.0
  0
VERTEX
  5
1EA
  8
LAYER_1
 62
   250
 10
539.0381
 20
117.9781
 30
0.0
  0
VERTEX
  5
1EB
  8
LAYER_1
 62
   250
 10
539.0878
 20
117.8185
 30
0.0
  0
VERTEX
  5
1EC
  8
LAYER_1
 62
   250
 10
539.1486
 20
117.6746
 30
0.0
  0
VERTEX
  5
1ED
  8
LAYER_1
 62
   250
 10
539.2204
 20
117.5466
 30
0.0
  0
VERTEX
  5
1EE
  8
LAYER_1
 62
   250
 10
539.3033
 20
117.4343
 30
0.0
  0
VERTEX
  5
1EF
  8
LAYER_1
 62
   250
 10
539.3956
 20
117.3364
 30
0.0
  0
VERTEX
  5
1F0
  8
LAYER_1
 62
   250
 10
539.4945
 20
117.2514
 30
0.0
  0
VERTEX
  5
1F1
  8
LAYER_1
 62
   250
 10
539.6001
 20
117.1795
 30
0.0
  0
VERTEX
  5
1F2
  8
LAYER_1
 62
   250
 10
539.7122
 20
117.1206
 30
0.0
  0
VERTEX
  5
1F3
  8
LAYER_1
 62
   250
 10
539.831
 20
117.0748
 30
0.0
  0
VERTEX
  5
1F4
  8
LAYER_1
 62
   250
 10
539.9564
 20
117.042
 30
0.0
  0
VERTEX
  5
1F5
  8
LAYER_1
 62
   250
 10
540.0885
 20
117.0224
 30
0.0
  0
VERTEX
  5
1F6
  8
LAYER_1
 62
   250
 10
540.2272
 20
117.0158
 30
0.0
  0
VERTEX
  5
1F7
  8
LAYER_1
 62
   250
 10
540.4474
 20
117.0332
 30
0.0
  0
VERTEX
  5
1F8
  8
LAYER_1
 62
   250
 10
540.6483
 20
117.0856
 30
0.0
  0
VERTEX
  5
1F9
  8
LAYER_1
 62
   250
 10
540.7414
 20
117.1249
 30
0.0
  0
VERTEX
  5
1FA
  8
LAYER_1
 62
   250
 10
540.8298
 20
117.173
 30
0.0
  0
VERTEX
  5
1FB
  8
LAYER_1
 62
   250
 10
540.9132
 20
117.23
 30
0.0
  0
VERTEX
  5
1FC
  8
LAYER_1
 62
   250
 10
540.9919
 20
117.2957
 30
0.0
  0
VERTEX
  5
1FD
  8
LAYER_1
 62
   250
 10
541.0652
 20
117.3701
 30
0.0
  0
VERTEX
  5
1FE
  8
LAYER_1
 62
   250
 10
541.1314
 20
117.454
 30
0.0
  0
VERTEX
  5
1FF
  8
LAYER_1
 62
   250
 10
541.1906
 20
117.5474
 30
0.0
  0
VERTEX
  5
200
  8
LAYER_1
 62
   250
 10
541.2428
 20
117.6503
 30
0.0
  0
VERTEX
  5
201
  8
LAYER_1
 62
   250
 10
541.3259
 20
117.8844
 30
0.0
  0
VERTEX
  5
202
  8
LAYER_1
 62
   250
 10
541.3809
 20
118.1563
 30
0.0
  0
SEQEND
  5
50A
  8
LAYER_1
 62
   250
  0
POLYLINE
  5
73
  8
LAYER_1
 62
   250
 66
     1
 10
0.0
 20
0.0
 30
0.0
 70
     1
  0
VERTEX
  5
203
  8
LAYER_1
 62
   250
 10
542.7866
 20
116.4765
 30
0.0
  0
VERTEX
  5
204
  8
LAYER_1
 62
   250
 10
542.7866
 20
122.8065
 30
0.0
  0
VERTEX
  5
205
  8
LAYER_1
 62
   250
 10
543.5646
 20
122.8065
 30
0.0
  0
VERTEX
  5
206
  8
LAYER_1
 62
   250
 10
543.5646
 20
116.4765
 30
0.0
  0
VERTEX
  5
207
  8
LAYER_1
 62
   250
 10
542.7866
 20
116.4765
 30
0.0
  0
SEQEND
  5
50B
  8
LAYER_1
 62
   250
  0
POLYLINE
  5
74
  8
LAYER_1
 62
   250
 66
     1
 10
0.0
 20
0.0
 30
0.0
 70
     1
  0
VERTEX
  5
208
  8
LAYER_1
 62
   250
 10
547.898
 20
117.9618
 30
0.0
  0
VERTEX
  5
209
  8
LAYER_1
 62
   250
 10
548.7025
 20
117.8557
 30
0.0
  0
VERTEX
  5
20A
  8
LAYER_1
 62
   250
 10
548.6504
 20
117.6854
 30
0.0
  0
VERTEX
  5
20B
  8
LAYER_1
 62
   250
 10
548.5882
 20
117.5248
 30
0.0
  0
VERTEX
  5
20C
  8
LAYER_1
 62
   250
 10
548.5157
 20
117.3739
 30
0.0
  0
VERTEX
  5
20D
  8
LAYER_1
 62
   250
 10
548.4331
 20
117.2328
 30
0.0
  0
VERTEX
  5
20E
  8
LAYER_1
 62
   250
 10
548.3403
 20
117.1015
 30
0.0
  0
VERTEX
  5
20F
  8
LAYER_1
 62
   250
 10
548.2374
 20
116.98
 30
0.0
  0
VERTEX
  5
210
  8
LAYER_1
 62
   250
 10
548.1243
 20
116.8684
 30
0.0
  0
VERTEX
  5
211
  8
LAYER_1
 62
   250
 10
548.0012
 20
116.7668
 30
0.0
  0
VERTEX
  5
212
  8
LAYER_1
 62
   250
 10
547.8686
 20
116.6761
 30
0.0
  0
VERTEX
  5
213
  8
LAYER_1
 62
   250
 10
547.7271
 20
116.5975
 30
0.0
  0
VERTEX
  5
214
  8
LAYER_1
 62
   250
 10
547.5767
 20
116.5309
 30
0.0
  0
VERTEX
  5
215
  8
LAYER_1
 62
   250
 10
547.4175
 20
116.4763
 30
0.0
  0
VERTEX
  5
216
  8
LAYER_1
 62
   250
 10
547.2494
 20
116.4339
 30
0.0
  0
VERTEX
  5
217
  8
LAYER_1
 62
   250
 10
547.0723
 20
116.4036
 30
0.0
  0
VERTEX
  5
218
  8
LAYER_1
 62
   250
 10
546.8863
 20
116.3854
 30
0.0
  0
VERTEX
  5
219
  8
LAYER_1
 62
   250
 10
546.6913
 20
116.3793
 30
0.0
  0
VERTEX
  5
21A
  8
LAYER_1
 62
   250
 10
546.4469
 20
116.389
 30
0.0
  0
VERTEX
  5
21B
  8
LAYER_1
 62
   250
 10
546.2155
 20
116.418
 30
0.0
  0
VERTEX
  5
21C
  8
LAYER_1
 62
   250
 10
545.9971
 20
116.4663
 30
0.0
  0
VERTEX
  5
21D
  8
LAYER_1
 62
   250
 10
545.7917
 20
116.534
 30
0.0
  0
VERTEX
  5
21E
  8
LAYER_1
 62
   250
 10
545.5993
 20
116.621
 30
0.0
  0
VERTEX
  5
21F
  8
LAYER_1
 62
   250
 10
545.4199
 20
116.7273
 30
0.0
  0
VERTEX
  5
220
  8
LAYER_1
 62
   250
 10
545.2534
 20
116.853
 30
0.0
  0
VERTEX
  5
221
  8
LAYER_1
 62
   250
 10
545.0999
 20
116.9981
 30
0.0
  0
VERTEX
  5
222
  8
LAYER_1
 62
   250
 10
544.9621
 20
117.1601
 30
0.0
  0
VERTEX
  5
223
  8
LAYER_1
 62
   250
 10
544.8427
 20
117.3379
 30
0.0
  0
VERTEX
  5
224
  8
LAYER_1
 62
   250
 10
544.7417
 20
117.5313
 30
0.0
  0
VERTEX
  5
225
  8
LAYER_1
 62
   250
 10
544.659
 20
117.7404
 30
0.0
  0
VERTEX
  5
226
  8
LAYER_1
 62
   250
 10
544.5947
 20
117.9651
 30
0.0
  0
VERTEX
  5
227
  8
LAYER_1
 62
   250
 10
544.5487
 20
118.2053
 30
0.0
  0
VERTEX
  5
228
  8
LAYER_1
 62
   250
 10
544.5212
 20
118.4611
 30
0.0
  0
VERTEX
  5
229
  8
LAYER_1
 62
   250
 10
544.512
 20
118.7324
 30
0.0
  0
VERTEX
  5
22A
  8
LAYER_1
 62
   250
 10
544.5213
 20
119.0128
 30
0.0
  0
VERTEX
  5
22B
  8
LAYER_1
 62
   250
 10
544.5491
 20
119.2772
 30
0.0
  0
VERTEX
  5
22C
  8
LAYER_1
 62
   250
 10
544.5954
 20
119.5254
 30
0.0
  0
VERTEX
  5
22D
  8
LAYER_1
 62
   250
 10
544.6603
 20
119.7576
 30
0.0
  0
VERTEX
  5
22E
  8
LAYER_1
 62
   250
 10
544.7438
 20
119.9735
 30
0.0
  0
VERTEX
  5
22F
  8
LAYER_1
 62
   250
 10
544.8458
 20
120.1733
 30
0.0
  0
VERTEX
  5
230
  8
LAYER_1
 62
   250
 10
544.9665
 20
120.3568
 30
0.0
  0
VERTEX
  5
231
  8
LAYER_1
 62
   250
 10
545.1058
 20
120.5241
 30
0.0
  0
VERTEX
  5
232
  8
LAYER_1
 62
   250
 10
545.26
 20
120.6738
 30
0.0
  0
VERTEX
  5
233
  8
LAYER_1
 62
   250
 10
545.4252
 20
120.8034
 30
0.0
  0
VERTEX
  5
234
  8
LAYER_1
 62
   250
 10
545.6015
 20
120.9131
 30
0.0
  0
VERTEX
  5
235
  8
LAYER_1
 62
   250
 10
545.7888
 20
121.0028
 30
0.0
  0
VERTEX
  5
236
  8
LAYER_1
 62
   250
 10
545.9871
 20
121.0725
 30
0.0
  0
VERTEX
  5
237
  8
LAYER_1
 62
   250
 10
546.1965
 20
121.1223
 30
0.0
  0
VERTEX
  5
238
  8
LAYER_1
 62
   250
 10
546.417
 20
121.1522
 30
0.0
  0
VERTEX
  5
239
  8
LAYER_1
 62
   250
 10
546.6485
 20
121.1621
 30
0.0
  0
VERTEX
  5
23A
  8
LAYER_1
 62
   250
 10
546.8726
 20
121.1524
 30
0.0
  0
VERTEX
  5
23B
  8
LAYER_1
 62
   250
 10
547.0861
 20
121.1231
 30
0.0
  0
VERTEX
  5
23C
  8
LAYER_1
 62
   250
 10
547.2892
 20
121.0744
 30
0.0
  0
VERTEX
  5
23D
  8
LAYER_1
 62
   250
 10
547.4818
 20
121.0061
 30
0.0
  0
VERTEX
  5
23E
  8
LAYER_1
 62
   250
 10
547.6638
 20
120.9183
 30
0.0
  0
VERTEX
  5
23F
  8
LAYER_1
 62
   250
 10
547.8354
 20
120.8109
 30
0.0
  0
VERTEX
  5
240
  8
LAYER_1
 62
   250
 10
547.9965
 20
120.684
 30
0.0
  0
VERTEX
  5
241
  8
LAYER_1
 62
   250
 10
548.1471
 20
120.5374
 30
0.0
  0
VERTEX
  5
242
  8
LAYER_1
 62
   250
 10
548.2834
 20
120.3731
 30
0.0
  0
VERTEX
  5
243
  8
LAYER_1
 62
   250
 10
548.4015
 20
120.1929
 30
0.0
  0
VERTEX
  5
244
  8
LAYER_1
 62
   250
 10
548.5015
 20
119.9968
 30
0.0
  0
VERTEX
  5
245
  8
LAYER_1
 62
   250
 10
548.5834
 20
119.7848
 30
0.0
  0
VERTEX
  5
246
  8
LAYER_1
 62
   250
 10
548.6471
 20
119.5569
 30
0.0
  0
VERTEX
  5
247
  8
LAYER_1
 62
   250
 10
548.6927
 20
119.3132
 30
0.0
  0
VERTEX
  5
248
  8
LAYER_1
 62
   250
 10
548.72
 20
119.0536
 30
0.0
  0
VERTEX
  5
249
  8
LAYER_1
 62
   250
 10
548.7291
 20
118.7781
 30
0.0
  0
VERTEX
  5
24A
  8
LAYER_1
 62
   250
 10
548.7247
 20
118.5718
 30
0.0
  0
VERTEX
  5
24B
  8
LAYER_1
 62
   250
 10
545.3077
 20
118.5718
 30
0.0
  0
VERTEX
  5
24C
  8
LAYER_1
 62
   250
 10
545.324
 20
118.3888
 30
0.0
  0
VERTEX
  5
24D
  8
LAYER_1
 62
   250
 10
545.3509
 20
118.2168
 30
0.0
  0
VERTEX
  5
24E
  8
LAYER_1
 62
   250
 10
545.3883
 20
118.0558
 30
0.0
  0
VERTEX
  5
24F
  8
LAYER_1
 62
   250
 10
545.4363
 20
117.9058
 30
0.0
  0
VERTEX
  5
250
  8
LAYER_1
 62
   250
 10
545.4949
 20
117.7668
 30
0.0
  0
VERTEX
  5
251
  8
LAYER_1
 62
   250
 10
545.5642
 20
117.639
 30
0.0
  0
VERTEX
  5
252
  8
LAYER_1
 62
   250
 10
545.6442
 20
117.5222
 30
0.0
  0
VERTEX
  5
253
  8
LAYER_1
 62
   250
 10
545.735
 20
117.4166
 30
0.0
  0
VERTEX
  5
254
  8
LAYER_1
 62
   250
 10
545.8336
 20
117.3228
 30
0.0
  0
VERTEX
  5
255
  8
LAYER_1
 62
   250
 10
545.9383
 20
117.2415
 30
0.0
  0
VERTEX
  5
256
  8
LAYER_1
 62
   250
 10
546.049
 20
117.1726
 30
0.0
  0
VERTEX
  5
257
  8
LAYER_1
 62
   250
 10
546.1656
 20
117.1162
 30
0.0
  0
VERTEX
  5
258
  8
LAYER_1
 62
   250
 10
546.2882
 20
117.0723
 30
0.0
  0
VERTEX
  5
259
  8
LAYER_1
 62
   250
 10
546.4167
 20
117.0409
 30
0.0
  0
VERTEX
  5
25A
  8
LAYER_1
 62
   250
 10
546.5511
 20
117.0221
 30
0.0
  0
VERTEX
  5
25B
  8
LAYER_1
 62
   250
 10
546.6913
 20
117.0158
 30
0.0
  0
VERTEX
  5
25C
  8
LAYER_1
 62
   250
 10
546.8968
 20
117.0299
 30
0.0
  0
VERTEX
  5
25D
  8
LAYER_1
 62
   250
 10
547.0867
 20
117.0721
 30
0.0
  0
VERTEX
  5
25E
  8
LAYER_1
 62
   250
 10
547.2609
 20
117.1426
 30
0.0
  0
VERTEX
  5
25F
  8
LAYER_1
 62
   250
 10
547.4192
 20
117.2412
 30
0.0
  0
VERTEX
  5
260
  8
LAYER_1
 62
   250
 10
547.5626
 20
117.3708
 30
0.0
  0
VERTEX
  5
261
  8
LAYER_1
 62
   250
 10
547.6901
 20
117.5341
 30
0.0
  0
VERTEX
  5
262
  8
LAYER_1
 62
   250
 10
547.8019
 20
117.7311
 30
0.0
  0
VERTEX
  5
263
  8
LAYER_1
 62
   250
 10
547.898
 20
117.9618
 30
0.0
  0
SEQEND
  5
50C
  8
LAYER_1
 62
   250
  0
POLYLINE
  5
75
  8
LAYER_1
 62
   250
 66
     1
 10
0.0
 20
0.0
 30
0.0
 70
     1
  0
VERTEX
  5
264
  8
LAYER_1
 62
   250
 10
545.3519
 20
119.2083
 30
0.0
  0
VERTEX
  5
265
  8
LAYER_1
 62
   250
 10
547.9069
 20
119.2083
 30
0.0
  0
VERTEX
  5
266
  8
LAYER_1
 62
   250
 10
547.8694
 20
119.4797
 30
0.0
  0
VERTEX
  5
267
  8
LAYER_1
 62
   250
 10
547.8078
 20
119.7147
 30
0.0
  0
VERTEX
  5
268
  8
LAYER_1
 62
   250
 10
547.7225
 20
119.9135
 30
0.0
  0
VERTEX
  5
269
  8
LAYER_1
 62
   250
 10
547.6137
 20
120.0762
 30
0.0
  0
VERTEX
  5
26A
  8
LAYER_1
 62
   250
 10
547.5179
 20
120.1814
 30
0.0
  0
VERTEX
  5
26B
  8
LAYER_1
 62
   250
 10
547.4151
 20
120.2726
 30
0.0
  0
VERTEX
  5
26C
  8
LAYER_1
 62
   250
 10
547.3053
 20
120.3498
 30
0.0
  0
VERTEX
  5
26D
  8
LAYER_1
 62
   250
 10
547.1886
 20
120.4131
 30
0.0
  0
VERTEX
  5
26E
  8
LAYER_1
 62
   250
 10
547.065
 20
120.4623
 30
0.0
  0
VERTEX
  5
26F
  8
LAYER_1
 62
   250
 10
546.9345
 20
120.4974
 30
0.0
  0
VERTEX
  5
270
  8
LAYER_1
 62
   250
 10
546.7971
 20
120.5186
 30
0.0
  0
VERTEX
  5
271
  8
LAYER_1
 62
   250
 10
546.653
 20
120.5256
 30
0.0
  0
VERTEX
  5
272
  8
LAYER_1
 62
   250
 10
546.522
 20
120.52
 30
0.0
  0
VERTEX
  5
273
  8
LAYER_1
 62
   250
 10
546.3963
 20
120.5032
 30
0.0
  0
VERTEX
  5
274
  8
LAYER_1
 62
   250
 10
546.276
 20
120.4752
 30
0.0
  0
VERTEX
  5
275
  8
LAYER_1
 62
   250
 10
546.161
 20
120.4361
 30
0.0
  0
VERTEX
  5
276
  8
LAYER_1
 62
   250
 10
546.0514
 20
120.3857
 30
0.0
  0
VERTEX
  5
277
  8
LAYER_1
 62
   250
 10
545.947
 20
120.3242
 30
0.0
  0
VERTEX
  5
278
  8
LAYER_1
 62
   250
 10
545.8479
 20
120.2514
 30
0.0
  0
VERTEX
  5
279
  8
LAYER_1
 62
   250
 10
545.7541
 20
120.1675
 30
0.0
  0
VERTEX
  5
27A
  8
LAYER_1
 62
   250
 10
545.6685
 20
120.0742
 30
0.0
  0
VERTEX
  5
27B
  8
LAYER_1
 62
   250
 10
545.5931
 20
119.9733
 30
0.0
  0
VERTEX
  5
27C
  8
LAYER_1
 62
   250
 10
545.5277
 20
119.8648
 30
0.0
  0
VERTEX
  5
27D
  8
LAYER_1
 62
   250
 10
545.4723
 20
119.7487
 30
0.0
  0
VERTEX
  5
27E
  8
LAYER_1
 62
   250
 10
545.4271
 20
119.625
 30
0.0
  0
VERTEX
  5
27F
  8
LAYER_1
 62
   250
 10
545.3919
 20
119.4937
 30
0.0
  0
VERTEX
  5
280
  8
LAYER_1
 62
   250
 10
545.3669
 20
119.3548
 30
0.0
  0
VERTEX
  5
281
  8
LAYER_1
 62
   250
 10
545.3519
 20
119.2083
 30
0.0
  0
SEQEND
  5
50D
  8
LAYER_1
 62
   250
  0
POLYLINE
  5
76
  8
LAYER_1
 62
   250
 66
     1
 10
0.0
 20
0.0
 30
0.0
 70
     1
  0
VERTEX
  5
282
  8
LAYER_1
 62
   250
 10
531.9876
 20
106.5998
 30
0.0
  0
VERTEX
  5
283
  8
LAYER_1
 62
   250
 10
531.9876
 20
112.1872
 30
0.0
  0
VERTEX
  5
284
  8
LAYER_1
 62
   250
 10
529.9011
 20
112.1872
 30
0.0
  0
VERTEX
  5
285
  8
LAYER_1
 62
   250
 10
529.9011
 20
112.9298
 30
0.0
  0
VERTEX
  5
286
  8
LAYER_1
 62
   250
 10
534.9139
 20
112.9298
 30
0.0
  0
VERTEX
  5
287
  8
LAYER_1
 62
   250
 10
534.9139
 20
112.1872
 30
0.0
  0
VERTEX
  5
288
  8
LAYER_1
 62
   250
 10
532.8274
 20
112.1872
 30
0.0
  0
VERTEX
  5
289
  8
LAYER_1
 62
   250
 10
532.8274
 20
106.5998
 30
0.0
  0
VERTEX
  5
28A
  8
LAYER_1
 62
   250
 10
531.9876
 20
106.5998
 30
0.0
  0
SEQEND
  5
50E
  8
LAYER_1
 62
   250
  0
POLYLINE
  5
77
  8
LAYER_1
 62
   250
 66
     1
 10
0.0
 20
0.0
 30
0.0
 70
     1
  0
VERTEX
  5
28B
  8
LAYER_1
 62
   250
 10
537.8313
 20
108.0851
 30
0.0
  0
VERTEX
  5
28C
  8
LAYER_1
 62
   250
 10
538.6358
 20
107.979
 30
0.0
  0
VERTEX
  5
28D
  8
LAYER_1
 62
   250
 10
538.5837
 20
107.8087
 30
0.0
  0
VERTEX
  5
28E
  8
LAYER_1
 62
   250
 10
538.5215
 20
107.6481
 30
0.0
  0
VERTEX
  5
28F
  8
LAYER_1
 62
   250
 10
538.449
 20
107.4972
 30
0.0
  0
VERTEX
  5
290
  8
LAYER_1
 62
   250
 10
538.3664
 20
107.3561
 30
0.0
  0
VERTEX
  5
291
  8
LAYER_1
 62
   250
 10
538.2736
 20
107.2248
 30
0.0
  0
VERTEX
  5
292
  8
LAYER_1
 62
   250
 10
538.1707
 20
107.1033
 30
0.0
  0
VERTEX
  5
293
  8
LAYER_1
 62
   250
 10
538.0576
 20
106.9917
 30
0.0
  0
VERTEX
  5
294
  8
LAYER_1
 62
   250
 10
537.9345
 20
106.8901
 30
0.0
  0
VERTEX
  5
295
  8
LAYER_1
 62
   250
 10
537.8019
 20
106.7994
 30
0.0
  0
VERTEX
  5
296
  8
LAYER_1
 62
   250
 10
537.6604
 20
106.7208
 30
0.0
  0
VERTEX
  5
297
  8
LAYER_1
 62
   250
 10
537.51
 20
106.6542
 30
0.0
  0
VERTEX
  5
298
  8
LAYER_1
 62
   250
 10
537.3508
 20
106.5996
 30
0.0
  0
VERTEX
  5
299
  8
LAYER_1
 62
   250
 10
537.1827
 20
106.5572
 30
0.0
  0
VERTEX
  5
29A
  8
LAYER_1
 62
   250
 10
537.0056
 20
106.5269
 30
0.0
  0
VERTEX
  5
29B
  8
LAYER_1
 62
   250
 10
536.8196
 20
106.5087
 30
0.0
  0
VERTEX
  5
29C
  8
LAYER_1
 62
   250
 10
536.6246
 20
106.5026
 30
0.0
  0
VERTEX
  5
29D
  8
LAYER_1
 62
   250
 10
536.3802
 20
106.5123
 30
0.0
  0
VERTEX
  5
29E
  8
LAYER_1
 62
   250
 10
536.1488
 20
106.5413
 30
0.0
  0
VERTEX
  5
29F
  8
LAYER_1
 62
   250
 10
535.9304
 20
106.5896
 30
0.0
  0
VERTEX
  5
2A0
  8
LAYER_1
 62
   250
 10
535.725
 20
106.6573
 30
0.0
  0
VERTEX
  5
2A1
  8
LAYER_1
 62
   250
 10
535.5326
 20
106.7443
 30
0.0
  0
VERTEX
  5
2A2
  8
LAYER_1
 62
   250
 10
535.3532
 20
106.8506
 30
0.0
  0
VERTEX
  5
2A3
  8
LAYER_1
 62
   250
 10
535.1867
 20
106.9763
 30
0.0
  0
VERTEX
  5
2A4
  8
LAYER_1
 62
   250
 10
535.0332
 20
107.1214
 30
0.0
  0
VERTEX
  5
2A5
  8
LAYER_1
 62
   250
 10
534.8954
 20
107.2834
 30
0.0
  0
VERTEX
  5
2A6
  8
LAYER_1
 62
   250
 10
534.776
 20
107.4612
 30
0.0
  0
VERTEX
  5
2A7
  8
LAYER_1
 62
   250
 10
534.675
 20
107.6546
 30
0.0
  0
VERTEX
  5
2A8
  8
LAYER_1
 62
   250
 10
534.5923
 20
107.8637
 30
0.0
  0
VERTEX
  5
2A9
  8
LAYER_1
 62
   250
 10
534.528
 20
108.0884
 30
0.0
  0
VERTEX
  5
2AA
  8
LAYER_1
 62
   250
 10
534.482
 20
108.3286
 30
0.0
  0
VERTEX
  5
2AB
  8
LAYER_1
 62
   250
 10
534.4545
 20
108.5844
 30
0.0
  0
VERTEX
  5
2AC
  8
LAYER_1
 62
   250
 10
534.4453
 20
108.8557
 30
0.0
  0
VERTEX
  5
2AD
  8
LAYER_1
 62
   250
 10
534.4546
 20
109.1361
 30
0.0
  0
VERTEX
  5
2AE
  8
LAYER_1
 62
   250
 10
534.4824
 20
109.4005
 30
0.0
  0
VERTEX
  5
2AF
  8
LAYER_1
 62
   250
 10
534.5287
 20
109.6487
 30
0.0
  0
VERTEX
  5
2B0
  8
LAYER_1
 62
   250
 10
534.5936
 20
109.8809
 30
0.0
  0
VERTEX
  5
2B1
  8
LAYER_1
 62
   250
 10
534.6771
 20
110.0968
 30
0.0
  0
VERTEX
  5
2B2
  8
LAYER_1
 62
   250
 10
534.7791
 20
110.2966
 30
0.0
  0
VERTEX
  5
2B3
  8
LAYER_1
 62
   250
 10
534.8998
 20
110.4801
 30
0.0
  0
VERTEX
  5
2B4
  8
LAYER_1
 62
   250
 10
535.0391
 20
110.6474
 30
0.0
  0
VERTEX
  5
2B5
  8
LAYER_1
 62
   250
 10
535.1933
 20
110.7971
 30
0.0
  0
VERTEX
  5
2B6
  8
LAYER_1
 62
   250
 10
535.3585
 20
110.9267
 30
0.0
  0
VERTEX
  5
2B7
  8
LAYER_1
 62
   250
 10
535.5348
 20
111.0364
 30
0.0
  0
VERTEX
  5
2B8
  8
LAYER_1
 62
   250
 10
535.7221
 20
111.1261
 30
0.0
  0
VERTEX
  5
2B9
  8
LAYER_1
 62
   250
 10
535.9204
 20
111.1958
 30
0.0
  0
VERTEX
  5
2BA
  8
LAYER_1
 62
   250
 10
536.1298
 20
111.2456
 30
0.0
  0
VERTEX
  5
2BB
  8
LAYER_1
 62
   250
 10
536.3503
 20
111.2755
 30
0.0
  0
VERTEX
  5
2BC
  8
LAYER_1
 62
   250
 10
536.5818
 20
111.2854
 30
0.0
  0
VERTEX
  5
2BD
  8
LAYER_1
 62
   250
 10
536.8059
 20
111.2757
 30
0.0
  0
VERTEX
  5
2BE
  8
LAYER_1
 62
   250
 10
537.0194
 20
111.2464
 30
0.0
  0
VERTEX
  5
2BF
  8
LAYER_1
 62
   250
 10
537.2225
 20
111.1977
 30
0.0
  0
VERTEX
  5
2C0
  8
LAYER_1
 62
   250
 10
537.4151
 20
111.1294
 30
0.0
  0
VERTEX
  5
2C1
  8
LAYER_1
 62
   250
 10
537.5971
 20
111.0416
 30
0.0
  0
VERTEX
  5
2C2
  8
LAYER_1
 62
   250
 10
537.7687
 20
110.9342
 30
0.0
  0
VERTEX
  5
2C3
  8
LAYER_1
 62
   250
 10
537.9298
 20
110.8073
 30
0.0
  0
VERTEX
  5
2C4
  8
LAYER_1
 62
   250
 10
538.0804
 20
110.6607
 30
0.0
  0
VERTEX
  5
2C5
  8
LAYER_1
 62
   250
 10
538.2167
 20
110.4964
 30
0.0
  0
VERTEX
  5
2C6
  8
LAYER_1
 62
   250
 10
538.3348
 20
110.3162
 30
0.0
  0
VERTEX
  5
2C7
  8
LAYER_1
 62
   250
 10
538.4348
 20
110.1201
 30
0.0
  0
VERTEX
  5
2C8
  8
LAYER_1
 62
   250
 10
538.5167
 20
109.9081
 30
0.0
  0
VERTEX
  5
2C9
  8
LAYER_1
 62
   250
 10
538.5804
 20
109.6802
 30
0.0
  0
VERTEX
  5
2CA
  8
LAYER_1
 62
   250
 10
538.626
 20
109.4365
 30
0.0
  0
VERTEX
  5
2CB
  8
LAYER_1
 62
   250
 10
538.6533
 20
109.1769
 30
0.0
  0
VERTEX
  5
2CC
  8
LAYER_1
 62
   250
 10
538.6624
 20
108.9014
 30
0.0
  0
VERTEX
  5
2CD
  8
LAYER_1
 62
   250
 10
538.658
 20
108.6951
 30
0.0
  0
VERTEX
  5
2CE
  8
LAYER_1
 62
   250
 10
535.241
 20
108.6951
 30
0.0
  0
VERTEX
  5
2CF
  8
LAYER_1
 62
   250
 10
535.2573
 20
108.5121
 30
0.0
  0
VERTEX
  5
2D0
  8
LAYER_1
 62
   250
 10
535.2842
 20
108.3401
 30
0.0
  0
VERTEX
  5
2D1
  8
LAYER_1
 62
   250
 10
535.3216
 20
108.1791
 30
0.0
  0
VERTEX
  5
2D2
  8
LAYER_1
 62
   250
 10
535.3696
 20
108.0291
 30
0.0
  0
VERTEX
  5
2D3
  8
LAYER_1
 62
   250
 10
535.4282
 20
107.8901
 30
0.0
  0
VERTEX
  5
2D4
  8
LAYER_1
 62
   250
 10
535.4975
 20
107.7623
 30
0.0
  0
VERTEX
  5
2D5
  8
LAYER_1
 62
   250
 10
535.5775
 20
107.6455
 30
0.0
  0
VERTEX
  5
2D6
  8
LAYER_1
 62
   250
 10
535.6683
 20
107.5399
 30
0.0
  0
VERTEX
  5
2D7
  8
LAYER_1
 62
   250
 10
535.7669
 20
107.4461
 30
0.0
  0
VERTEX
  5
2D8
  8
LAYER_1
 62
   250
 10
535.8716
 20
107.3648
 30
0.0
  0
VERTEX
  5
2D9
  8
LAYER_1
 62
   250
 10
535.9823
 20
107.2959
 30
0.0
  0
VERTEX
  5
2DA
  8
LAYER_1
 62
   250
 10
536.0989
 20
107.2395
 30
0.0
  0
VERTEX
  5
2DB
  8
LAYER_1
 62
   250
 10
536.2215
 20
107.1956
 30
0.0
  0
VERTEX
  5
2DC
  8
LAYER_1
 62
   250
 10
536.35
 20
107.1642
 30
0.0
  0
VERTEX
  5
2DD
  8
LAYER_1
 62
   250
 10
536.4844
 20
107.1454
 30
0.0
  0
VERTEX
  5
2DE
  8
LAYER_1
 62
   250
 10
536.6246
 20
107.1391
 30
0.0
  0
VERTEX
  5
2DF
  8
LAYER_1
 62
   250
 10
536.8301
 20
107.1532
 30
0.0
  0
VERTEX
  5
2E0
  8
LAYER_1
 62
   250
 10
537.02
 20
107.1954
 30
0.0
  0
VERTEX
  5
2E1
  8
LAYER_1
 62
   250
 10
537.1942
 20
107.2659
 30
0.0
  0
VERTEX
  5
2E2
  8
LAYER_1
 62
   250
 10
537.3525
 20
107.3645
 30
0.0
  0
VERTEX
  5
2E3
  8
LAYER_1
 62
   250
 10
537.4959
 20
107.4941
 30
0.0
  0
VERTEX
  5
2E4
  8
LAYER_1
 62
   250
 10
537.6234
 20
107.6574
 30
0.0
  0
VERTEX
  5
2E5
  8
LAYER_1
 62
   250
 10
537.7352
 20
107.8544
 30
0.0
  0
VERTEX
  5
2E6
  8
LAYER_1
 62
   250
 10
537.8313
 20
108.0851
 30
0.0
  0
SEQEND
  5
50F
  8
LAYER_1
 62
   250
  0
POLYLINE
  5
78
  8
LAYER_1
 62
   250
 66
     1
 10
0.0
 20
0.0
 30
0.0
 70
     1
  0
VERTEX
  5
2E7
  8
LAYER_1
 62
   250
 10
535.2852
 20
109.3316
 30
0.0
  0
VERTEX
  5
2E8
  8
LAYER_1
 62
   250
 10
537.8402
 20
109.3316
 30
0.0
  0
VERTEX
  5
2E9
  8
LAYER_1
 62
   250
 10
537.8027
 20
109.603
 30
0.0
  0
VERTEX
  5
2EA
  8
LAYER_1
 62
   250
 10
537.7411
 20
109.838
 30
0.0
  0
VERTEX
  5
2EB
  8
LAYER_1
 62
   250
 10
537.6558
 20
110.0368
 30
0.0
  0
VERTEX
  5
2EC
  8
LAYER_1
 62
   250
 10
537.547
 20
110.1995
 30
0.0
  0
VERTEX
  5
2ED
  8
LAYER_1
 62
   250
 10
537.4512
 20
110.3047
 30
0.0
  0
VERTEX
  5
2EE
  8
LAYER_1
 62
   250
 10
537.3484
 20
110.3959
 30
0.0
  0
VERTEX
  5
2EF
  8
LAYER_1
 62
   250
 10
537.2386
 20
110.4731
 30
0.0
  0
VERTEX
  5
2F0
  8
LAYER_1
 62
   250
 10
537.1219
 20
110.5364
 30
0.0
  0
VERTEX
  5
2F1
  8
LAYER_1
 62
   250
 10
536.9983
 20
110.5856
 30
0.0
  0
VERTEX
  5
2F2
  8
LAYER_1
 62
   250
 10
536.8678
 20
110.6207
 30
0.0
  0
VERTEX
  5
2F3
  8
LAYER_1
 62
   250
 10
536.7304
 20
110.6419
 30
0.0
  0
VERTEX
  5
2F4
  8
LAYER_1
 62
   250
 10
536.5863
 20
110.6489
 30
0.0
  0
VERTEX
  5
2F5
  8
LAYER_1
 62
   250
 10
536.4553
 20
110.6433
 30
0.0
  0
VERTEX
  5
2F6
  8
LAYER_1
 62
   250
 10
536.3296
 20
110.6265
 30
0.0
  0
VERTEX
  5
2F7
  8
LAYER_1
 62
   250
 10
536.2093
 20
110.5985
 30
0.0
  0
VERTEX
  5
2F8
  8
LAYER_1
 62
   250
 10
536.0943
 20
110.5594
 30
0.0
  0
VERTEX
  5
2F9
  8
LAYER_1
 62
   250
 10
535.9847
 20
110.509
 30
0.0
  0
VERTEX
  5
2FA
  8
LAYER_1
 62
   250
 10
535.8803
 20
110.4475
 30
0.0
  0
VERTEX
  5
2FB
  8
LAYER_1
 62
   250
 10
535.7812
 20
110.3747
 30
0.0
  0
VERTEX
  5
2FC
  8
LAYER_1
 62
   250
 10
535.6874
 20
110.2908
 30
0.0
  0
VERTEX
  5
2FD
  8
LAYER_1
 62
   250
 10
535.6018
 20
110.1975
 30
0.0
  0
VERTEX
  5
2FE
  8
LAYER_1
 62
   250
 10
535.5264
 20
110.0966
 30
0.0
  0
VERTEX
  5
2FF
  8
LAYER_1
 62
   250
 10
535.461
 20
109.9881
 30
0.0
  0
VERTEX
  5
300
  8
LAYER_1
 62
   250
 10
535.4056
 20
109.872
 30
0.0
  0
VERTEX
  5
301
  8
LAYER_1
 62
   250
 10
535.3604
 20
109.7483
 30
0.0
  0
VERTEX
  5
302
  8
LAYER_1
 62
   250
 10
535.3252
 20
109.617
 30
0.0
  0
VERTEX
  5
303
  8
LAYER_1
 62
   250
 10
535.3002
 20
109.4781
 30
0.0
  0
VERTEX
  5
304
  8
LAYER_1
 62
   250
 10
535.2852
 20
109.3316
 30
0.0
  0
SEQEND
  5
510
  8
LAYER_1
 62
   250
  0
POLYLINE
  5
79
  8
LAYER_1
 62
   250
 66
     1
 10
0.0
 20
0.0
 30
0.0
 70
     1
  0
VERTEX
  5
305
  8
LAYER_1
 62
   250
 10
539.3093
 20
107.9701
 30
0.0
  0
VERTEX
  5
306
  8
LAYER_1
 62
   250
 10
540.0784
 20
108.0939
 30
0.0
  0
VERTEX
  5
307
  8
LAYER_1
 62
   250
 10
540.1251
 20
107.8764
 30
0.0
  0
VERTEX
  5
308
  8
LAYER_1
 62
   250
 10
540.2009
 20
107.6859
 30
0.0
  0
VERTEX
  5
309
  8
LAYER_1
 62
   250
 10
540.3057
 20
107.5222
 30
0.0
  0
VERTEX
  5
30A
  8
LAYER_1
 62
   250
 10
540.4394
 20
107.3852
 30
0.0
  0
VERTEX
  5
30B
  8
LAYER_1
 62
   250
 10
540.5172
 20
107.3277
 30
0.0
  0
VERTEX
  5
30C
  8
LAYER_1
 62
   250
 10
540.6024
 20
107.2777
 30
0.0
  0
VERTEX
  5
30D
  8
LAYER_1
 62
   250
 10
540.695
 20
107.2354
 30
0.0
  0
VERTEX
  5
30E
  8
LAYER_1
 62
   250
 10
540.7949
 20
107.2008
 30
0.0
  0
VERTEX
  5
30F
  8
LAYER_1
 62
   250
 10
541.0167
 20
107.1545
 30
0.0
  0
VERTEX
  5
310
  8
LAYER_1
 62
   250
 10
541.2675
 20
107.1391
 30
0.0
  0
VERTEX
  5
311
  8
LAYER_1
 62
   250
 10
541.5187
 20
107.1527
 30
0.0
  0
VERTEX
  5
312
  8
LAYER_1
 62
   250
 10
541.7352
 20
107.1934
 30
0.0
  0
VERTEX
  5
313
  8
LAYER_1
 62
   250
 10
541.9171
 20
107.2616
 30
0.0
  0
VERTEX
  5
314
  8
LAYER_1
 62
   250
 10
542.0646
 20
107.3572
 30
0.0
  0
VERTEX
  5
315
  8
LAYER_1
 62
   250
 10
542.1779
 20
107.4704
 30
0.0
  0
VERTEX
  5
316
  8
LAYER_1
 62
   250
 10
542.259
 20
107.5935
 30
0.0
  0
VERTEX
  5
317
  8
LAYER_1
 62
   250
 10
542.3077
 20
107.7262
 30
0.0
  0
VERTEX
  5
318
  8
LAYER_1
 62
   250
 10
542.324
 20
107.8685
 30
0.0
  0
VERTEX
  5
319
  8
LAYER_1
 62
   250
 10
542.3094
 20
107.9931
 30
0.0
  0
VERTEX
  5
31A
  8
LAYER_1
 62
   250
 10
542.2656
 20
108.1037
 30
0.0
  0
VERTEX
  5
31B
  8
LAYER_1
 62
   250
 10
542.1928
 20
108.2002
 30
0.0
  0
VERTEX
  5
31C
  8
LAYER_1
 62
   250
 10
542.0912
 20
108.2825
 30
0.0
  0
VERTEX
  5
31D
  8
LAYER_1
 62
   250
 10
541.2955
 20
108.5462
 30
0.0
  0
VERTEX
  5
31E
  8
LAYER_1
 62
   250
 10
540.9017
 20
108.6498
 30
0.0
  0
VERTEX
  5
31F
  8
LAYER_1
 62
   250
 10
540.5735
 20
108.7463
 30
0.0
  0
VERTEX
  5
320
  8
LAYER_1
 62
   250
 10
540.3104
 20
108.8355
 30
0.0
  0
VERTEX
  5
321
  8
LAYER_1
 62
   250
 10
540.1123
 20
108.9176
 30
0.0
  0
VERTEX
  5
322
  8
LAYER_1
 62
   250
 10
539.9576
 20
109.0044
 30
0.0
  0
VERTEX
  5
323
  8
LAYER_1
 62
   250
 10
539.8228
 20
109.1058
 30
0.0
  0
VERTEX
  5
324
  8
LAYER_1
 62
   250
 10
539.7079
 20
109.2222
 30
0.0
  0
VERTEX
  5
325
  8
LAYER_1
 62
   250
 10
539.6128
 20
109.3537
 30
0.0
  0
VERTEX
  5
326
  8
LAYER_1
 62
   250
 10
539.5382
 20
109.4957
 30
0.0
  0
VERTEX
  5
327
  8
LAYER_1
 62
   250
 10
539.4848
 20
109.6453
 30
0.0
  0
VERTEX
  5
328
  8
LAYER_1
 62
   250
 10
539.4526
 20
109.8023
 30
0.0
  0
VERTEX
  5
329
  8
LAYER_1
 62
   250
 10
539.4419
 20
109.9667
 30
0.0
  0
VERTEX
  5
32A
  8
LAYER_1
 62
   250
 10
539.4507
 20
110.1173
 30
0.0
  0
VERTEX
  5
32B
  8
LAYER_1
 62
   250
 10
539.4771
 20
110.2619
 30
0.0
  0
VERTEX
  5
32C
  8
LAYER_1
 62
   250
 10
539.5208
 20
110.4008
 30
0.0
  0
VERTEX
  5
32D
  8
LAYER_1
 62
   250
 10
539.5819
 20
110.534
 30
0.0
  0
VERTEX
  5
32E
  8
LAYER_1
 62
   250
 10
539.6587
 20
110.6588
 30
0.0
  0
VERTEX
  5
32F
  8
LAYER_1
 62
   250
 10
539.7478
 20
110.7727
 30
0.0
  0
VERTEX
  5
330
  8
LAYER_1
 62
   250
 10
539.8494
 20
110.8754
 30
0.0
  0
VERTEX
  5
331
  8
LAYER_1
 62
   250
 10
539.9635
 20
110.9672
 30
0.0
  0
VERTEX
  5
332
  8
LAYER_1
 62
   250
 10
540.4571
 20
111.1926
 30
0.0
  0
VERTEX
  5
333
  8
LAYER_1
 62
   250
 10
541.1275
 20
111.2854
 30
0.0
  0
VERTEX
  5
334
  8
LAYER_1
 62
   250
 10
541.3889
 20
111.2757
 30
0.0
  0
VERTEX
  5
335
  8
LAYER_1
 62
   250
 10
541.6337
 20
111.2466
 30
0.0
  0
VERTEX
  5
336
  8
LAYER_1
 62
   250
 10
541.8619
 20
111.1978
 30
0.0
  0
VERTEX
  5
337
  8
LAYER_1
 62
   250
 10
542.0735
 20
111.1292
 30
0.0
  0
VERTEX
  5
338
  8
LAYER_1
 62
   250
 10
542.2644
 20
111.0447
 30
0.0
  0
VERTEX
  5
339
  8
LAYER_1
 62
   250
 10
542.4284
 20
110.9461
 30
0.0
  0
VERTEX
  5
33A
  8
LAYER_1
 62
   250
 10
542.5656
 20
110.8337
 30
0.0
  0
VERTEX
  5
33B
  8
LAYER_1
 62
   250
 10
542.6761
 20
110.7078
 30
0.0
  0
VERTEX
  5
33C
  8
LAYER_1
 62
   250
 10
542.765
 20
110.563
 30
0.0
  0
VERTEX
  5
33D
  8
LAYER_1
 62
   250
 10
542.8393
 20
110.396
 30
0.0
  0
VERTEX
  5
33E
  8
LAYER_1
 62
   250
 10
542.8987
 20
110.2066
 30
0.0
  0
VERTEX
  5
33F
  8
LAYER_1
 62
   250
 10
542.9428
 20
109.9947
 30
0.0
  0
VERTEX
  5
340
  8
LAYER_1
 62
   250
 10
542.1825
 20
109.8886
 30
0.0
  0
VERTEX
  5
341
  8
LAYER_1
 62
   250
 10
542.1447
 20
110.0579
 30
0.0
  0
VERTEX
  5
342
  8
LAYER_1
 62
   250
 10
542.0821
 20
110.2078
 30
0.0
  0
VERTEX
  5
343
  8
LAYER_1
 62
   250
 10
541.995
 20
110.338
 30
0.0
  0
VERTEX
  5
344
  8
LAYER_1
 62
   250
 10
541.8834
 20
110.4485
 30
0.0
  0
VERTEX
  5
345
  8
LAYER_1
 62
   250
 10
541.7469
 20
110.5364
 30
0.0
  0
VERTEX
  5
346
  8
LAYER_1
 62
   250
 10
541.5849
 20
110.599
 30
0.0
  0
VERTEX
  5
347
  8
LAYER_1
 62
   250
 10
541.3971
 20
110.6364
 30
0.0
  0
VERTEX
  5
348
  8
LAYER_1
 62
   250
 10
541.1835
 20
110.6489
 30
0.0
  0
VERTEX
  5
349
  8
LAYER_1
 62
   250
 10
540.936
 20
110.6378
 30
0.0
  0
VERTEX
  5
34A
  8
LAYER_1
 62
   250
 10
540.7264
 20
110.6047
 30
0.0
  0
VERTEX
  5
34B
  8
LAYER_1
 62
   250
 10
540.5548
 20
110.5494
 30
0.0
  0
VERTEX
  5
34C
  8
LAYER_1
 62
   250
 10
540.4217
 20
110.4721
 30
0.0
  0
VERTEX
  5
34D
  8
LAYER_1
 62
   250
 10
540.322
 20
110.3798
 30
0.0
  0
VERTEX
  5
34E
  8
LAYER_1
 62
   250
 10
540.2506
 20
110.28
 30
0.0
  0
VERTEX
  5
34F
  8
LAYER_1
 62
   250
 10
540.2077
 20
110.1727
 30
0.0
  0
VERTEX
  5
350
  8
LAYER_1
 62
   250
 10
540.1933
 20
110.058
 30
0.0
  0
VERTEX
  5
351
  8
LAYER_1
 62
   250
 10
540.2876
 20
109.7854
 30
0.0
  0
VERTEX
  5
352
  8
LAYER_1
 62
   250
 10
540.5853
 20
109.5791
 30
0.0
  0
VERTEX
  5
353
  8
LAYER_1
 62
   250
 10
541.2704
 20
109.3802
 30
0.0
  0
VERTEX
  5
354
  8
LAYER_1
 62
   250
 10
542.4198
 20
109.0207
 30
0.0
  0
VERTEX
  5
355
  8
LAYER_1
 62
   250
 10
542.5745
 20
108.9429
 30
0.0
  0
VERTEX
  5
356
  8
LAYER_1
 62
   250
 10
542.7115
 20
108.8489
 30
0.0
  0
VERTEX
  5
357
  8
LAYER_1
 62
   250
 10
542.8308
 20
108.7391
 30
0.0
  0
VERTEX
  5
358
  8
LAYER_1
 62
   250
 10
542.9325
 20
108.614
 30
0.0
  0
VERTEX
  5
359
  8
LAYER_1
 62
   250
 10
543.0146
 20
108.4722
 30
0.0
  0
VERTEX
  5
35A
  8
LAYER_1
 62
   250
 10
543.073
 20
108.3143
 30
0.0
  0
VERTEX
  5
35B
  8
LAYER_1
 62
   250
 10
543.108
 20
108.1401
 30
0.0
  0
VERTEX
  5
35C
  8
LAYER_1
 62
   250
 10
543.1196
 20
107.9495
 30
0.0
  0
VERTEX
  5
35D
  8
LAYER_1
 62
   250
 10
543.1055
 20
107.7588
 30
0.0
  0
VERTEX
  5
35E
  8
LAYER_1
 62
   250
 10
543.0631
 20
107.5737
 30
0.0
  0
VERTEX
  5
35F
  8
LAYER_1
 62
   250
 10
542.9922
 20
107.3942
 30
0.0
  0
VERTEX
  5
360
  8
LAYER_1
 62
   250
 10
542.8927
 20
107.2201
 30
0.0
  0
VERTEX
  5
361
  8
LAYER_1
 62
   250
 10
542.7665
 20
107.0585
 30
0.0
  0
VERTEX
  5
362
  8
LAYER_1
 62
   250
 10
542.6154
 20
106.9162
 30
0.0
  0
VERTEX
  5
363
  8
LAYER_1
 62
   250
 10
542.4394
 20
106.7933
 30
0.0
  0
VERTEX
  5
364
  8
LAYER_1
 62
   250
 10
542.2385
 20
106.6897
 30
0.0
  0
VERTEX
  5
365
  8
LAYER_1
 62
   250
 10
542.0172
 20
106.6076
 30
0.0
  0
VERTEX
  5
366
  8
LAYER_1
 62
   250
 10
541.7821
 20
106.5492
 30
0.0
  0
VERTEX
  5
367
  8
LAYER_1
 62
   250
 10
541.5332
 20
106.5142
 30
0.0
  0
VERTEX
  5
368
  8
LAYER_1
 62
   250
 10
541.2704
 20
106.5026
 30
0.0
  0
VERTEX
  5
369
  8
LAYER_1
 62
   250
 10
541.0538
 20
106.5084
 30
0.0
  0
VERTEX
  5
36A
  8
LAYER_1
 62
   250
 10
540.8503
 20
106.5258
 30
0.0
  0
VERTEX
  5
36B
  8
LAYER_1
 62
   250
 10
540.66
 20
106.5547
 30
0.0
  0
VERTEX
  5
36C
  8
LAYER_1
 62
   250
 10
540.4829
 20
106.5952
 30
0.0
  0
VERTEX
  5
36D
  8
LAYER_1
 62
   250
 10
540.3191
 20
106.6472
 30
0.0
  0
VERTEX
  5
36E
  8
LAYER_1
 62
   250
 10
540.1685
 20
106.7108
 30
0.0
  0
VERTEX
  5
36F
  8
LAYER_1
 62
   250
 10
540.0313
 20
106.7859
 30
0.0
  0
VERTEX
  5
370
  8
LAYER_1
 62
   250
 10
539.9075
 20
106.8724
 30
0.0
  0
VERTEX
  5
371
  8
LAYER_1
 62
   250
 10
539.7957
 20
106.9707
 30
0.0
  0
VERTEX
  5
372
  8
LAYER_1
 62
   250
 10
539.6945
 20
107.0802
 30
0.0
  0
VERTEX
  5
373
  8
LAYER_1
 62
   250
 10
539.6039
 20
107.2007
 30
0.0
  0
VERTEX
  5
374
  8
LAYER_1
 62
   250
 10
539.5238
 20
107.3323
 30
0.0
  0
VERTEX
  5
375
  8
LAYER_1
 62
   250
 10
539.4544
 20
107.475
 30
0.0
  0
VERTEX
  5
376
  8
LAYER_1
 62
   250
 10
539.3955
 20
107.6289
 30
0.0
  0
VERTEX
  5
377
  8
LAYER_1
 62
   250
 10
539.3471
 20
107.7939
 30
0.0
  0
VERTEX
  5
378
  8
LAYER_1
 62
   250
 10
539.3093
 20
107.9701
 30
0.0
  0
SEQEND
  5
511
  8
LAYER_1
 62
   250
  0
POLYLINE
  5
7A
  8
LAYER_1
 62
   250
 66
     1
 10
0.0
 20
0.0
 30
0.0
 70
     1
  0
VERTEX
  5
379
  8
LAYER_1
 62
   250
 10
545.7277
 20
107.2938
 30
0.0
  0
VERTEX
  5
37A
  8
LAYER_1
 62
   250
 10
545.8338
 20
106.6072
 30
0.0
  0
VERTEX
  5
37B
  8
LAYER_1
 62
   250
 10
545.2488
 20
106.5379
 30
0.0
  0
VERTEX
  5
37C
  8
LAYER_1
 62
   250
 10
545.0496
 20
106.5462
 30
0.0
  0
VERTEX
  5
37D
  8
LAYER_1
 62
   250
 10
544.874
 20
106.5712
 30
0.0
  0
VERTEX
  5
37E
  8
LAYER_1
 62
   250
 10
544.7219
 20
106.6131
 30
0.0
  0
VERTEX
  5
37F
  8
LAYER_1
 62
   250
 10
544.5931
 20
106.672
 30
0.0
  0
VERTEX
  5
380
  8
LAYER_1
 62
   250
 10
544.4856
 20
106.7444
 30
0.0
  0
VERTEX
  5
381
  8
LAYER_1
 62
   250
 10
544.3953
 20
106.8271
 30
0.0
  0
VERTEX
  5
382
  8
LAYER_1
 62
   250
 10
544.3221
 20
106.9203
 30
0.0
  0
VERTEX
  5
383
  8
LAYER_1
 62
   250
 10
544.266
 20
107.0242
 30
0.0
  0
VERTEX
  5
384
  8
LAYER_1
 62
   250
 10
544.2245
 20
107.1637
 30
0.0
  0
VERTEX
  5
385
  8
LAYER_1
 62
   250
 10
544.1951
 20
107.3634
 30
0.0
  0
VERTEX
  5
386
  8
LAYER_1
 62
   250
 10
544.1775
 20
107.6234
 30
0.0
  0
VERTEX
  5
387
  8
LAYER_1
 62
   250
 10
544.1717
 20
107.9436
 30
0.0
  0
VERTEX
  5
388
  8
LAYER_1
 62
   250
 10
544.1717
 20
110.587
 30
0.0
  0
VERTEX
  5
389
  8
LAYER_1
 62
   250
 10
543.5971
 20
110.587
 30
0.0
  0
VERTEX
  5
38A
  8
LAYER_1
 62
   250
 10
543.5971
 20
111.1882
 30
0.0
  0
VERTEX
  5
38B
  8
LAYER_1
 62
   250
 10
544.1717
 20
111.1882
 30
0.0
  0
VERTEX
  5
38C
  8
LAYER_1
 62
   250
 10
544.1717
 20
112.3227
 30
0.0
  0
VERTEX
  5
38D
  8
LAYER_1
 62
   250
 10
544.9497
 20
112.7898
 30
0.0
  0
VERTEX
  5
38E
  8
LAYER_1
 62
   250
 10
544.9497
 20
111.1882
 30
0.0
  0
VERTEX
  5
38F
  8
LAYER_1
 62
   250
 10
545.7277
 20
111.1882
 30
0.0
  0
VERTEX
  5
390
  8
LAYER_1
 62
   250
 10
545.7277
 20
110.587
 30
0.0
  0
VERTEX
  5
391
  8
LAYER_1
 62
   250
 10
544.9497
 20
110.587
 30
0.0
  0
VERTEX
  5
392
  8
LAYER_1
 62
   250
 10
544.9497
 20
107.8994
 30
0.0
  0
VERTEX
  5
393
  8
LAYER_1
 62
   250
 10
544.991
 20
107.4706
 30
0.0
  0
VERTEX
  5
394
  8
LAYER_1
 62
   250
 10
545.1236
 20
107.3189
 30
0.0
  0
VERTEX
  5
395
  8
LAYER_1
 62
   250
 10
545.3888
 20
107.2629
 30
0.0
  0
VERTEX
  5
396
  8
LAYER_1
 62
   250
 10
545.7277
 20
107.2938
 30
0.0
  0
SEQEND
  5
512
  8
LAYER_1
 62
   250
  0
POLYLINE
  5
7B
  8
LAYER_1
 62
   250
 66
     1
 10
0.0
 20
0.0
 30
0.0
 70
     1
  0
VERTEX
  5
397
  8
LAYER_1
 62
   250
 10
524.6666
 20
99.8468
 30
0.0
  0
VERTEX
  5
398
  8
LAYER_1
 62
   250
 10
524.681
 20
100.3802
 30
0.0
  0
VERTEX
  5
399
  8
LAYER_1
 62
   250
 10
524.7241
 20
100.8597
 30
0.0
  0
VERTEX
  5
39A
  8
LAYER_1
 62
   250
 10
524.7959
 20
101.2846
 30
0.0
  0
VERTEX
  5
39B
  8
LAYER_1
 62
   250
 10
524.8965
 20
101.6548
 30
0.0
  0
VERTEX
  5
39C
  8
LAYER_1
 62
   250
 10
524.958
 20
101.8217
 30
0.0
  0
VERTEX
  5
39D
  8
LAYER_1
 62
   250
 10
525.0264
 20
101.9786
 30
0.0
  0
VERTEX
  5
39E
  8
LAYER_1
 62
   250
 10
525.1017
 20
102.1256
 30
0.0
  0
VERTEX
  5
39F
  8
LAYER_1
 62
   250
 10
525.184
 20
102.2626
 30
0.0
  0
VERTEX
  5
3A0
  8
LAYER_1
 62
   250
 10
525.2733
 20
102.3897
 30
0.0
  0
VERTEX
  5
3A1
  8
LAYER_1
 62
   250
 10
525.3695
 20
102.5068
 30
0.0
  0
VERTEX
  5
3A2
  8
LAYER_1
 62
   250
 10
525.4728
 20
102.614
 30
0.0
  0
VERTEX
  5
3A3
  8
LAYER_1
 62
   250
 10
525.5831
 20
102.7113
 30
0.0
  0
VERTEX
  5
3A4
  8
LAYER_1
 62
   250
 10
525.7001
 20
102.7978
 30
0.0
  0
VERTEX
  5
3A5
  8
LAYER_1
 62
   250
 10
525.8246
 20
102.8726
 30
0.0
  0
VERTEX
  5
3A6
  8
LAYER_1
 62
   250
 10
525.9564
 20
102.9359
 30
0.0
  0
VERTEX
  5
3A7
  8
LAYER_1
 62
   250
 10
526.0957
 20
102.9877
 30
0.0
  0
VERTEX
  5
3A8
  8
LAYER_1
 62
   250
 10
526.2424
 20
103.0279
 30
0.0
  0
VERTEX
  5
3A9
  8
LAYER_1
 62
   250
 10
526.3964
 20
103.0566
 30
0.0
  0
VERTEX
  5
3AA
  8
LAYER_1
 62
   250
 10
526.5578
 20
103.0739
 30
0.0
  0
VERTEX
  5
3AB
  8
LAYER_1
 62
   250
 10
526.7265
 20
103.0796
 30
0.0
  0
VERTEX
  5
3AC
  8
LAYER_1
 62
   250
 10
526.973
 20
103.0669
 30
0.0
  0
VERTEX
  5
3AD
  8
LAYER_1
 62
   250
 10
527.2041
 20
103.0286
 30
0.0
  0
VERTEX
  5
3AE
  8
LAYER_1
 62
   250
 10
527.42
 20
102.9646
 30
0.0
  0
VERTEX
  5
3AF
  8
LAYER_1
 62
   250
 10
527.6209
 20
102.8748
 30
0.0
  0
VERTEX
  5
3B0
  8
LAYER_1
 62
   250
 10
527.8049
 20
102.7607
 30
0.0
  0
VERTEX
  5
3B1
  8
LAYER_1
 62
   250
 10
527.972
 20
102.624
 30
0.0
  0
VERTEX
  5
3B2
  8
LAYER_1
 62
   250
 10
528.1219
 20
102.4645
 30
0.0
  0
VERTEX
  5
3B3
  8
LAYER_1
 62
   250
 10
528.2545
 20
102.2825
 30
0.0
  0
VERTEX
  5
3B4
  8
LAYER_1
 62
   250
 10
528.3716
 20
102.0795
 30
0.0
  0
VERTEX
  5
3B5
  8
LAYER_1
 62
   250
 10
528.4755
 20
101.855
 30
0.0
  0
VERTEX
  5
3B6
  8
LAYER_1
 62
   250
 10
528.5661
 20
101.6093
 30
0.0
  0
VERTEX
  5
3B7
  8
LAYER_1
 62
   250
 10
528.6435
 20
101.3424
 30
0.0
  0
VERTEX
  5
3B8
  8
LAYER_1
 62
   250
 10
528.7062
 20
101.0408
 30
0.0
  0
VERTEX
  5
3B9
  8
LAYER_1
 62
   250
 10
528.7509
 20
100.6908
 30
0.0
  0
VERTEX
  5
3BA
  8
LAYER_1
 62
   250
 10
528.7775
 20
100.2927
 30
0.0
  0
VERTEX
  5
3BB
  8
LAYER_1
 62
   250
 10
528.7864
 20
99.8468
 30
0.0
  0
VERTEX
  5
3BC
  8
LAYER_1
 62
   250
 10
528.7721
 20
99.3164
 30
0.0
  0
VERTEX
  5
3BD
  8
LAYER_1
 62
   250
 10
528.7291
 20
98.8393
 30
0.0
  0
VERTEX
  5
3BE
  8
LAYER_1
 62
   250
 10
528.6577
 20
98.4159
 30
0.0
  0
VERTEX
  5
3BF
  8
LAYER_1
 62
   250
 10
528.558
 20
98.0463
 30
0.0
  0
VERTEX
  5
3C0
  8
LAYER_1
 62
   250
 10
528.4975
 20
97.8794
 30
0.0
  0
VERTEX
  5
3C1
  8
LAYER_1
 62
   250
 10
528.4299
 20
97.7225
 30
0.0
  0
VERTEX
  5
3C2
  8
LAYER_1
 62
   250
 10
528.3551
 20
97.5754
 30
0.0
  0
VERTEX
  5
3C3
  8
LAYER_1
 62
   250
 10
528.2731
 20
97.4383
 30
0.0
  0
VERTEX
  5
3C4
  8
LAYER_1
 62
   250
 10
528.1841
 20
97.311
 30
0.0
  0
VERTEX
  5
3C5
  8
LAYER_1
 62
   250
 10
528.0879
 20
97.1936
 30
0.0
  0
VERTEX
  5
3C6
  8
LAYER_1
 62
   250
 10
527.9847
 20
97.0861
 30
0.0
  0
VERTEX
  5
3C7
  8
LAYER_1
 62
   250
 10
527.8744
 20
96.9883
 30
0.0
  0
VERTEX
  5
3C8
  8
LAYER_1
 62
   250
 10
527.7573
 20
96.9013
 30
0.0
  0
VERTEX
  5
3C9
  8
LAYER_1
 62
   250
 10
527.6327
 20
96.8259
 30
0.0
  0
VERTEX
  5
3CA
  8
LAYER_1
 62
   250
 10
527.5004
 20
96.7621
 30
0.0
  0
VERTEX
  5
3CB
  8
LAYER_1
 62
   250
 10
527.3607
 20
96.7098
 30
0.0
  0
VERTEX
  5
3CC
  8
LAYER_1
 62
   250
 10
527.2134
 20
96.6692
 30
0.0
  0
VERTEX
  5
3CD
  8
LAYER_1
 62
   250
 10
527.0586
 20
96.6402
 30
0.0
  0
VERTEX
  5
3CE
  8
LAYER_1
 62
   250
 10
526.8963
 20
96.6228
 30
0.0
  0
VERTEX
  5
3CF
  8
LAYER_1
 62
   250
 10
526.7265
 20
96.617
 30
0.0
  0
VERTEX
  5
3D0
  8
LAYER_1
 62
   250
 10
526.5044
 20
96.6272
 30
0.0
  0
VERTEX
  5
3D1
  8
LAYER_1
 62
   250
 10
526.2945
 20
96.6576
 30
0.0
  0
VERTEX
  5
3D2
  8
LAYER_1
 62
   250
 10
526.0967
 20
96.7085
 30
0.0
  0
VERTEX
  5
3D3
  8
LAYER_1
 62
   250
 10
525.9112
 20
96.7796
 30
0.0
  0
VERTEX
  5
3D4
  8
LAYER_1
 62
   250
 10
525.7378
 20
96.8712
 30
0.0
  0
VERTEX
  5
3D5
  8
LAYER_1
 62
   250
 10
525.5768
 20
96.9831
 30
0.0
  0
VERTEX
  5
3D6
  8
LAYER_1
 62
   250
 10
525.4279
 20
97.1155
 30
0.0
  0
VERTEX
  5
3D7
  8
LAYER_1
 62
   250
 10
525.2914
 20
97.2683
 30
0.0
  0
VERTEX
  5
3D8
  8
LAYER_1
 62
   250
 10
525.1448
 20
97.4826
 30
0.0
  0
VERTEX
  5
3D9
  8
LAYER_1
 62
   250
 10
525.0179
 20
97.7278
 30
0.0
  0
VERTEX
  5
3DA
  8
LAYER_1
 62
   250
 10
524.9105
 20
98.0037
 30
0.0
  0
VERTEX
  5
3DB
  8
LAYER_1
 62
   250
 10
524.8226
 20
98.3106
 30
0.0
  0
VERTEX
  5
3DC
  8
LAYER_1
 62
   250
 10
524.7543
 20
98.6483
 30
0.0
  0
VERTEX
  5
3DD
  8
LAYER_1
 62
   250
 10
524.7056
 20
99.0169
 30
0.0
  0
VERTEX
  5
3DE
  8
LAYER_1
 62
   250
 10
524.6763
 20
99.4164
 30
0.0
  0
VERTEX
  5
3DF
  8
LAYER_1
 62
   250
 10
524.6666
 20
99.8468
 30
0.0
  0
SEQEND
  5
513
  8
LAYER_1
 62
   250
  0
POLYLINE
  5
7C
  8
LAYER_1
 62
   250
 66
     1
 10
0.0
 20
0.0
 30
0.0
 70
     1
  0
VERTEX
  5
3E0
  8
LAYER_1
 62
   250
 10
525.4623
 20
99.8439
 30
0.0
  0
VERTEX
  5
3E1
  8
LAYER_1
 62
   250
 10
525.468
 20
99.4696
 30
0.0
  0
VERTEX
  5
3E2
  8
LAYER_1
 62
   250
 10
525.485
 20
99.1281
 30
0.0
  0
VERTEX
  5
3E3
  8
LAYER_1
 62
   250
 10
525.5133
 20
98.8194
 30
0.0
  0
VERTEX
  5
3E4
  8
LAYER_1
 62
   250
 10
525.5531
 20
98.5434
 30
0.0
  0
VERTEX
  5
3E5
  8
LAYER_1
 62
   250
 10
525.6042
 20
98.3002
 30
0.0
  0
VERTEX
  5
3E6
  8
LAYER_1
 62
   250
 10
525.6668
 20
98.0899
 30
0.0
  0
VERTEX
  5
3E7
  8
LAYER_1
 62
   250
 10
525.7408
 20
97.9124
 30
0.0
  0
VERTEX
  5
3E8
  8
LAYER_1
 62
   250
 10
525.8262
 20
97.7678
 30
0.0
  0
VERTEX
  5
3E9
  8
LAYER_1
 62
   250
 10
525.9201
 20
97.6471
 30
0.0
  0
VERTEX
  5
3EA
  8
LAYER_1
 62
   250
 10
526.0193
 20
97.5426
 30
0.0
  0
VERTEX
  5
3EB
  8
LAYER_1
 62
   250
 10
526.1239
 20
97.4542
 30
0.0
  0
VERTEX
  5
3EC
  8
LAYER_1
 62
   250
 10
526.2338
 20
97.3819
 30
0.0
  0
VERTEX
  5
3ED
  8
LAYER_1
 62
   250
 10
526.3491
 20
97.3257
 30
0.0
  0
VERTEX
  5
3EE
  8
LAYER_1
 62
   250
 10
526.4696
 20
97.2856
 30
0.0
  0
VERTEX
  5
3EF
  8
LAYER_1
 62
   250
 10
526.5954
 20
97.2615
 30
0.0
  0
VERTEX
  5
3F0
  8
LAYER_1
 62
   250
 10
526.7265
 20
97.2535
 30
0.0
  0
VERTEX
  5
3F1
  8
LAYER_1
 62
   250
 10
526.8576
 20
97.2616
 30
0.0
  0
VERTEX
  5
3F2
  8
LAYER_1
 62
   250
 10
526.9834
 20
97.2858
 30
0.0
  0
VERTEX
  5
3F3
  8
LAYER_1
 62
   250
 10
527.104
 20
97.3262
 30
0.0
  0
VERTEX
  5
3F4
  8
LAYER_1
 62
   250
 10
527.2192
 20
97.3826
 30
0.0
  0
VERTEX
  5
3F5
  8
LAYER_1
 62
   250
 10
527.3291
 20
97.4552
 30
0.0
  0
VERTEX
  5
3F6
  8
LAYER_1
 62
   250
 10
527.4337
 20
97.5438
 30
0.0
  0
VERTEX
  5
3F7
  8
LAYER_1
 62
   250
 10
527.5329
 20
97.6485
 30
0.0
  0
VERTEX
  5
3F8
  8
LAYER_1
 62
   250
 10
527.6268
 20
97.7693
 30
0.0
  0
VERTEX
  5
3F9
  8
LAYER_1
 62
   250
 10
527.7122
 20
97.9148
 30
0.0
  0
VERTEX
  5
3FA
  8
LAYER_1
 62
   250
 10
527.7862
 20
98.0928
 30
0.0
  0
VERTEX
  5
3FB
  8
LAYER_1
 62
   250
 10
527.8488
 20
98.3033
 30
0.0
  0
VERTEX
  5
3FC
  8
LAYER_1
 62
   250
 10
527.9
 20
98.5464
 30
0.0
  0
VERTEX
  5
3FD
  8
LAYER_1
 62
   250
 10
527.9397
 20
98.8219
 30
0.0
  0
VERTEX
  5
3FE
  8
LAYER_1
 62
   250
 10
527.9681
 20
99.13
 30
0.0
  0
VERTEX
  5
3FF
  8
LAYER_1
 62
   250
 10
527.9851
 20
99.4707
 30
0.0
  0
VERTEX
  5
400
  8
LAYER_1
 62
   250
 10
527.9908
 20
99.8439
 30
0.0
  0
VERTEX
  5
401
  8
LAYER_1
 62
   250
 10
527.9851
 20
100.2182
 30
0.0
  0
VERTEX
  5
402
  8
LAYER_1
 62
   250
 10
527.9681
 20
100.5597
 30
0.0
  0
VERTEX
  5
403
  8
LAYER_1
 62
   250
 10
527.9397
 20
100.8684
 30
0.0
  0
VERTEX
  5
404
  8
LAYER_1
 62
   250
 10
527.9
 20
101.1444
 30
0.0
  0
VERTEX
  5
405
  8
LAYER_1
 62
   250
 10
527.8488
 20
101.3876
 30
0.0
  0
VERTEX
  5
406
  8
LAYER_1
 62
   250
 10
527.7862
 20
101.5979
 30
0.0
  0
VERTEX
  5
407
  8
LAYER_1
 62
   250
 10
527.7122
 20
101.7754
 30
0.0
  0
VERTEX
  5
408
  8
LAYER_1
 62
   250
 10
527.6268
 20
101.92
 30
0.0
  0
VERTEX
  5
409
  8
LAYER_1
 62
   250
 10
527.5333
 20
102.0407
 30
0.0
  0
VERTEX
  5
40A
  8
LAYER_1
 62
   250
 10
527.434
 20
102.1452
 30
0.0
  0
VERTEX
  5
40B
  8
LAYER_1
 62
   250
 10
527.3289
 20
102.2336
 30
0.0
  0
VERTEX
  5
40C
  8
LAYER_1
 62
   250
 10
527.2181
 20
102.3059
 30
0.0
  0
VERTEX
  5
40D
  8
LAYER_1
 62
   250
 10
527.1016
 20
102.3621
 30
0.0
  0
VERTEX
  5
40E
  8
LAYER_1
 62
   250
 10
526.9793
 20
102.4022
 30
0.0
  0
VERTEX
  5
40F
  8
LAYER_1
 62
   250
 10
526.8513
 20
102.4263
 30
0.0
  0
VERTEX
  5
410
  8
LAYER_1
 62
   250
 10
526.7177
 20
102.4343
 30
0.0
  0
VERTEX
  5
411
  8
LAYER_1
 62
   250
 10
526.5873
 20
102.4272
 30
0.0
  0
VERTEX
  5
412
  8
LAYER_1
 62
   250
 10
526.4635
 20
102.4059
 30
0.0
  0
VERTEX
  5
413
  8
LAYER_1
 62
   250
 10
526.3464
 20
102.3703
 30
0.0
  0
VERTEX
  5
414
  8
LAYER_1
 62
   250
 10
526.236
 20
102.3206
 30
0.0
  0
VERTEX
  5
415
  8
LAYER_1
 62
   250
 10
526.1323
 20
102.2568
 30
0.0
  0
VERTEX
  5
416
  8
LAYER_1
 62
   250
 10
526.0353
 20
102.1788
 30
0.0
  0
VERTEX
  5
417
  8
LAYER_1
 62
   250
 10
525.9451
 20
102.0866
 30
0.0
  0
VERTEX
  5
418
  8
LAYER_1
 62
   250
 10
525.8616
 20
101.9804
 30
0.0
  0
VERTEX
  5
419
  8
LAYER_1
 62
   250
 10
525.7679
 20
101.8208
 30
0.0
  0
VERTEX
  5
41A
  8
LAYER_1
 62
   250
 10
525.6867
 20
101.6304
 30
0.0
  0
VERTEX
  5
41B
  8
LAYER_1
 62
   250
 10
525.6181
 20
101.4093
 30
0.0
  0
VERTEX
  5
41C
  8
LAYER_1
 62
   250
 10
525.5619
 20
101.1575
 30
0.0
  0
VERTEX
  5
41D
  8
LAYER_1
 62
   250
 10
525.5183
 20
100.875
 30
0.0
  0
VERTEX
  5
41E
  8
LAYER_1
 62
   250
 10
525.4872
 20
100.5619
 30
0.0
  0
VERTEX
  5
41F
  8
LAYER_1
 62
   250
 10
525.4685
 20
100.2182
 30
0.0
  0
VERTEX
  5
420
  8
LAYER_1
 62
   250
 10
525.4623
 20
99.8439
 30
0.0
  0
SEQEND
  5
514
  8
LAYER_1
 62
   250
  0
POLYLINE
  5
7D
  8
LAYER_1
 62
   250
 66
     1
 10
0.0
 20
0.0
 30
0.0
 70
     1
  0
VERTEX
  5
421
  8
LAYER_1
 62
   250
 10
530.0168
 20
96.7231
 30
0.0
  0
VERTEX
  5
422
  8
LAYER_1
 62
   250
 10
530.0168
 20
97.6072
 30
0.0
  0
VERTEX
  5
423
  8
LAYER_1
 62
   250
 10
530.9009
 20
97.6072
 30
0.0
  0
VERTEX
  5
424
  8
LAYER_1
 62
   250
 10
530.9009
 20
96.7231
 30
0.0
  0
VERTEX
  5
425
  8
LAYER_1
 62
   250
 10
530.0168
 20
96.7231
 30
0.0
  0
SEQEND
  5
515
  8
LAYER_1
 62
   250
  0
POLYLINE
  5
7E
  8
LAYER_1
 62
   250
 66
     1
 10
0.0
 20
0.0
 30
0.0
 70
     1
  0
VERTEX
  5
426
  8
LAYER_1
 62
   250
 10
534.9574
 20
96.7231
 30
0.0
  0
VERTEX
  5
427
  8
LAYER_1
 62
   250
 10
534.1794
 20
96.7231
 30
0.0
  0
VERTEX
  5
428
  8
LAYER_1
 62
   250
 10
534.1794
 20
101.6769
 30
0.0
  0
VERTEX
  5
429
  8
LAYER_1
 62
   250
 10
533.4427
 20
101.1406
 30
0.0
  0
VERTEX
  5
42A
  8
LAYER_1
 62
   250
 10
532.6234
 20
100.7398
 30
0.0
  0
VERTEX
  5
42B
  8
LAYER_1
 62
   250
 10
532.6234
 20
101.4912
 30
0.0
  0
VERTEX
  5
42C
  8
LAYER_1
 62
   250
 10
532.9392
 20
101.652
 30
0.0
  0
VERTEX
  5
42D
  8
LAYER_1
 62
   250
 10
533.2345
 20
101.8294
 30
0.0
  0
VERTEX
  5
42E
  8
LAYER_1
 62
   250
 10
533.5094
 20
102.0234
 30
0.0
  0
VERTEX
  5
42F
  8
LAYER_1
 62
   250
 10
533.7639
 20
102.2339
 30
0.0
  0
VERTEX
  5
430
  8
LAYER_1
 62
   250
 10
533.9904
 20
102.4499
 30
0.0
  0
VERTEX
  5
431
  8
LAYER_1
 62
   250
 10
534.1814
 20
102.6628
 30
0.0
  0
VERTEX
  5
432
  8
LAYER_1
 62
   250
 10
534.3368
 20
102.8727
 30
0.0
  0
VERTEX
  5
433
  8
LAYER_1
 62
   250
 10
534.4564
 20
103.0796
 30
0.0
  0
VERTEX
  5
434
  8
LAYER_1
 62
   250
 10
534.9574
 20
103.0796
 30
0.0
  0
VERTEX
  5
435
  8
LAYER_1
 62
   250
 10
534.9574
 20
96.7231
 30
0.0
  0
SEQEND
  5
516
  8
LAYER_1
 62
   250
  0
POLYLINE
  5
7F
  8
LAYER_1
 62
   250
 66
     1
 10
0.0
 20
0.0
 30
0.0
 70
     1
  0
VERTEX
  5
436
  8
LAYER_1
 62
   250
 10
537.1691
 20
96.7231
 30
0.0
  0
VERTEX
  5
437
  8
LAYER_1
 62
   250
 10
537.1691
 20
101.3115
 30
0.0
  0
VERTEX
  5
438
  8
LAYER_1
 62
   250
 10
537.8675
 20
101.3115
 30
0.0
  0
VERTEX
  5
439
  8
LAYER_1
 62
   250
 10
537.8675
 20
100.6631
 30
0.0
  0
VERTEX
  5
43A
  8
LAYER_1
 62
   250
 10
537.9838
 20
100.823
 30
0.0
  0
VERTEX
  5
43B
  8
LAYER_1
 62
   250
 10
538.1182
 20
100.9667
 30
0.0
  0
VERTEX
  5
43C
  8
LAYER_1
 62
   250
 10
538.2705
 20
101.0937
 30
0.0
  0
VERTEX
  5
43D
  8
LAYER_1
 62
   250
 10
538.4407
 20
101.2039
 30
0.0
  0
VERTEX
  5
43E
  8
LAYER_1
 62
   250
 10
538.6258
 20
101.2937
 30
0.0
  0
VERTEX
  5
43F
  8
LAYER_1
 62
   250
 10
538.8232
 20
101.3577
 30
0.0
  0
VERTEX
  5
440
  8
LAYER_1
 62
   250
 10
539.0331
 20
101.396
 30
0.0
  0
VERTEX
  5
441
  8
LAYER_1
 62
   250
 10
539.2555
 20
101.4087
 30
0.0
  0
VERTEX
  5
442
  8
LAYER_1
 62
   250
 10
539.4983
 20
101.3955
 30
0.0
  0
VERTEX
  5
443
  8
LAYER_1
 62
   250
 10
539.7184
 20
101.3559
 30
0.0
  0
VERTEX
  5
444
  8
LAYER_1
 62
   250
 10
539.9155
 20
101.29
 30
0.0
  0
VERTEX
  5
445
  8
LAYER_1
 62
   250
 10
540.0895
 20
101.198
 30
0.0
  0
VERTEX
  5
446
  8
LAYER_1
 62
   250
 10
540.24
 20
101.0817
 30
0.0
  0
VERTEX
  5
447
  8
LAYER_1
 62
   250
 10
540.3667
 20
100.9446
 30
0.0
  0
VERTEX
  5
448
  8
LAYER_1
 62
   250
 10
540.4693
 20
100.7865
 30
0.0
  0
VERTEX
  5
449
  8
LAYER_1
 62
   250
 10
540.5478
 20
100.6072
 30
0.0
  0
VERTEX
  5
44A
  8
LAYER_1
 62
   250
 10
540.6899
 20
100.7952
 30
0.0
  0
VERTEX
  5
44B
  8
LAYER_1
 62
   250
 10
540.8421
 20
100.9581
 30
0.0
  0
VERTEX
  5
44C
  8
LAYER_1
 62
   250
 10
541.0044
 20
101.0958
 30
0.0
  0
VERTEX
  5
44D
  8
LAYER_1
 62
   250
 10
541.177
 20
101.2085
 30
0.0
  0
VERTEX
  5
44E
  8
LAYER_1
 62
   250
 10
541.3597
 20
101.2961
 30
0.0
  0
VERTEX
  5
44F
  8
LAYER_1
 62
   250
 10
541.5527
 20
101.3587
 30
0.0
  0
VERTEX
  5
450
  8
LAYER_1
 62
   250
 10
541.756
 20
101.3962
 30
0.0
  0
VERTEX
  5
451
  8
LAYER_1
 62
   250
 10
541.9696
 20
101.4087
 30
0.0
  0
VERTEX
  5
452
  8
LAYER_1
 62
   250
 10
542.136
 20
101.4028
 30
0.0
  0
VERTEX
  5
453
  8
LAYER_1
 62
   250
 10
542.2925
 20
101.3852
 30
0.0
  0
VERTEX
  5
454
  8
LAYER_1
 62
   250
 10
542.4392
 20
101.3558
 30
0.0
  0
VERTEX
  5
455
  8
LAYER_1
 62
   250
 10
542.576
 20
101.3146
 30
0.0
  0
VERTEX
  5
456
  8
LAYER_1
 62
   250
 10
542.7028
 20
101.2616
 30
0.0
  0
VERTEX
  5
457
  8
LAYER_1
 62
   250
 10
542.8196
 20
101.1968
 30
0.0
  0
VERTEX
  5
458
  8
LAYER_1
 62
   250
 10
542.9264
 20
101.1201
 30
0.0
  0
VERTEX
  5
459
  8
LAYER_1
 62
   250
 10
543.0232
 20
101.0315
 30
0.0
  0
VERTEX
  5
45A
  8
LAYER_1
 62
   250
 10
543.1097
 20
100.9307
 30
0.0
  0
VERTEX
  5
45B
  8
LAYER_1
 62
   250
 10
543.1848
 20
100.8171
 30
0.0
  0
VERTEX
  5
45C
  8
LAYER_1
 62
   250
 10
543.2483
 20
100.6909
 30
0.0
  0
VERTEX
  5
45D
  8
LAYER_1
 62
   250
 10
543.3004
 20
100.5519
 30
0.0
  0
VERTEX
  5
45E
  8
LAYER_1
 62
   250
 10
543.3409
 20
100.4002
 30
0.0
  0
VERTEX
  5
45F
  8
LAYER_1
 62
   250
 10
543.3698
 20
100.2359
 30
0.0
  0
VERTEX
  5
460
  8
LAYER_1
 62
   250
 10
543.3872
 20
100.0588
 30
0.0
  0
VERTEX
  5
461
  8
LAYER_1
 62
   250
 10
543.393
 20
99.869
 30
0.0
  0
VERTEX
  5
462
  8
LAYER_1
 62
   250
 10
543.393
 20
96.7231
 30
0.0
  0
VERTEX
  5
463
  8
LAYER_1
 62
   250
 10
542.615
 20
96.7231
 30
0.0
  0
VERTEX
  5
464
  8
LAYER_1
 62
   250
 10
542.615
 20
99.6111
 30
0.0
  0
VERTEX
  5
465
  8
LAYER_1
 62
   250
 10
542.6101
 20
99.8271
 30
0.0
  0
VERTEX
  5
466
  8
LAYER_1
 62
   250
 10
542.5955
 20
100.011
 30
0.0
  0
VERTEX
  5
467
  8
LAYER_1
 62
   250
 10
542.5715
 20
100.1625
 30
0.0
  0
VERTEX
  5
468
  8
LAYER_1
 62
   250
 10
542.5384
 20
100.2815
 30
0.0
  0
VERTEX
  5
469
  8
LAYER_1
 62
   250
 10
542.4931
 20
100.3791
 30
0.0
  0
VERTEX
  5
46A
  8
LAYER_1
 62
   250
 10
542.4322
 20
100.4665
 30
0.0
  0
VERTEX
  5
46B
  8
LAYER_1
 62
   250
 10
542.3555
 20
100.5439
 30
0.0
  0
VERTEX
  5
46C
  8
LAYER_1
 62
   250
 10
542.2629
 20
100.6116
 30
0.0
  0
VERTEX
  5
46D
  8
LAYER_1
 62
   250
 10
542.159
 20
100.6666
 30
0.0
  0
VERTEX
  5
46E
  8
LAYER_1
 62
   250
 10
542.0465
 20
100.7057
 30
0.0
  0
VERTEX
  5
46F
  8
LAYER_1
 62
   250
 10
541.9254
 20
100.7291
 30
0.0
  0
VERTEX
  5
470
  8
LAYER_1
 62
   250
 10
541.7958
 20
100.7368
 30
0.0
  0
VERTEX
  5
471
  8
LAYER_1
 62
   250
 10
541.6768
 20
100.7318
 30
0.0
  0
VERTEX
  5
472
  8
LAYER_1
 62
   250
 10
541.5631
 20
100.7167
 30
0.0
  0
VERTEX
  5
473
  8
LAYER_1
 62
   250
 10
541.4546
 20
100.6915
 30
0.0
  0
VERTEX
  5
474
  8
LAYER_1
 62
   250
 10
541.3513
 20
100.6563
 30
0.0
  0
VERTEX
  5
475
  8
LAYER_1
 62
   250
 10
541.2532
 20
100.6111
 30
0.0
  0
VERTEX
  5
476
  8
LAYER_1
 62
   250
 10
541.1603
 20
100.5559
 30
0.0
  0
VERTEX
  5
477
  8
LAYER_1
 62
   250
 10
541.0725
 20
100.4908
 30
0.0
  0
VERTEX
  5
478
  8
LAYER_1
 62
   250
 10
540.9898
 20
100.4156
 30
0.0
  0
VERTEX
  5
479
  8
LAYER_1
 62
   250
 10
540.9147
 20
100.3289
 30
0.0
  0
VERTEX
  5
47A
  8
LAYER_1
 62
   250
 10
540.8497
 20
100.2302
 30
0.0
  0
VERTEX
  5
47B
  8
LAYER_1
 62
   250
 10
540.7947
 20
100.1195
 30
0.0
  0
VERTEX
  5
47C
  8
LAYER_1
 62
   250
 10
540.7498
 20
99.9968
 30
0.0
  0
VERTEX
  5
47D
  8
LAYER_1
 62
   250
 10
540.7148
 20
99.8621
 30
0.0
  0
VERTEX
  5
47E
  8
LAYER_1
 62
   250
 10
540.6899
 20
99.7153
 30
0.0
  0
VERTEX
  5
47F
  8
LAYER_1
 62
   250
 10
540.675
 20
99.5565
 30
0.0
  0
VERTEX
  5
480
  8
LAYER_1
 62
   250
 10
540.67
 20
99.3857
 30
0.0
  0
VERTEX
  5
481
  8
LAYER_1
 62
   250
 10
540.67
 20
96.7231
 30
0.0
  0
VERTEX
  5
482
  8
LAYER_1
 62
   250
 10
539.8921
 20
96.7231
 30
0.0
  0
VERTEX
  5
483
  8
LAYER_1
 62
   250
 10
539.8921
 20
99.701
 30
0.0
  0
VERTEX
  5
484
  8
LAYER_1
 62
   250
 10
539.8802
 20
99.9435
 30
0.0
  0
VERTEX
  5
485
  8
LAYER_1
 62
   250
 10
539.8446
 20
100.1539
 30
0.0
  0
VERTEX
  5
486
  8
LAYER_1
 62
   250
 10
539.7852
 20
100.3319
 30
0.0
  0
VERTEX
  5
487
  8
LAYER_1
 62
   250
 10
539.702
 20
100.4775
 30
0.0
  0
VERTEX
  5
488
  8
LAYER_1
 62
   250
 10
539.6507
 20
100.5381
 30
0.0
  0
VERTEX
  5
489
  8
LAYER_1
 62
   250
 10
539.5918
 20
100.5907
 30
0.0
  0
VERTEX
  5
48A
  8
LAYER_1
 62
   250
 10
539.5253
 20
100.6353
 30
0.0
  0
VERTEX
  5
48B
  8
LAYER_1
 62
   250
 10
539.4513
 20
100.6718
 30
0.0
  0
VERTEX
  5
48C
  8
LAYER_1
 62
   250
 10
539.2807
 20
100.7205
 30
0.0
  0
VERTEX
  5
48D
  8
LAYER_1
 62
   250
 10
539.0802
 20
100.7368
 30
0.0
  0
VERTEX
  5
48E
  8
LAYER_1
 62
   250
 10
538.9197
 20
100.726
 30
0.0
  0
VERTEX
  5
48F
  8
LAYER_1
 62
   250
 10
538.7652
 20
100.6937
 30
0.0
  0
VERTEX
  5
490
  8
LAYER_1
 62
   250
 10
538.6169
 20
100.6399
 30
0.0
  0
VERTEX
  5
491
  8
LAYER_1
 62
   250
 10
538.4746
 20
100.5644
 30
0.0
  0
VERTEX
  5
492
  8
LAYER_1
 62
   250
 10
538.345
 20
100.4682
 30
0.0
  0
VERTEX
  5
493
  8
LAYER_1
 62
   250
 10
538.2346
 20
100.3521
 30
0.0
  0
VERTEX
  5
494
  8
LAYER_1
 62
   250
 10
538.1433
 20
100.2157
 30
0.0
  0
VERTEX
  5
495
  8
LAYER_1
 62
   250
 10
538.0709
 20
100.059
 30
0.0
  0
VERTEX
  5
496
  8
LAYER_1
 62
   250
 10
538.0167
 20
99.8748
 30
0.0
  0
VERTEX
  5
497
  8
LAYER_1
 62
   250
 10
537.978
 20
99.6537
 30
0.0
  0
VERTEX
  5
498
  8
LAYER_1
 62
   250
 10
537.9548
 20
99.3958
 30
0.0
  0
VERTEX
  5
499
  8
LAYER_1
 62
   250
 10
537.9471
 20
99.1013
 30
0.0
  0
VERTEX
  5
49A
  8
LAYER_1
 62
   250
 10
537.9471
 20
96.7231
 30
0.0
  0
VERTEX
  5
49B
  8
LAYER_1
 62
   250
 10
537.1691
 20
96.7231
 30
0.0
  0
SEQEND
  5
517
  8
LAYER_1
 62
   250
  0
POLYLINE
  5
80
  8
LAYER_1
 62
   250
 66
     1
 10
0.0
 20
0.0
 30
0.0
 70
     1
  0
VERTEX
  5
49C
  8
LAYER_1
 62
   250
 10
544.5335
 20
96.7231
 30
0.0
  0
VERTEX
  5
49D
  8
LAYER_1
 62
   250
 10
544.5335
 20
101.3115
 30
0.0
  0
VERTEX
  5
49E
  8
LAYER_1
 62
   250
 10
545.2319
 20
101.3115
 30
0.0
  0
VERTEX
  5
49F
  8
LAYER_1
 62
   250
 10
545.2319
 20
100.6631
 30
0.0
  0
VERTEX
  5
4A0
  8
LAYER_1
 62
   250
 10
545.3482
 20
100.823
 30
0.0
  0
VERTEX
  5
4A1
  8
LAYER_1
 62
   250
 10
545.4826
 20
100.9667
 30
0.0
  0
VERTEX
  5
4A2
  8
LAYER_1
 62
   250
 10
545.6349
 20
101.0937
 30
0.0
  0
VERTEX
  5
4A3
  8
LAYER_1
 62
   250
 10
545.8051
 20
101.2039
 30
0.0
  0
VERTEX
  5
4A4
  8
LAYER_1
 62
   250
 10
545.9902
 20
101.2937
 30
0.0
  0
VERTEX
  5
4A5
  8
LAYER_1
 62
   250
 10
546.1876
 20
101.3577
 30
0.0
  0
VERTEX
  5
4A6
  8
LAYER_1
 62
   250
 10
546.3975
 20
101.396
 30
0.0
  0
VERTEX
  5
4A7
  8
LAYER_1
 62
   250
 10
546.6199
 20
101.4087
 30
0.0
  0
VERTEX
  5
4A8
  8
LAYER_1
 62
   250
 10
546.8627
 20
101.3955
 30
0.0
  0
VERTEX
  5
4A9
  8
LAYER_1
 62
   250
 10
547.0828
 20
101.3559
 30
0.0
  0
VERTEX
  5
4AA
  8
LAYER_1
 62
   250
 10
547.2799
 20
101.29
 30
0.0
  0
VERTEX
  5
4AB
  8
LAYER_1
 62
   250
 10
547.4539
 20
101.198
 30
0.0
  0
VERTEX
  5
4AC
  8
LAYER_1
 62
   250
 10
547.6044
 20
101.0817
 30
0.0
  0
VERTEX
  5
4AD
  8
LAYER_1
 62
   250
 10
547.7311
 20
100.9446
 30
0.0
  0
VERTEX
  5
4AE
  8
LAYER_1
 62
   250
 10
547.8337
 20
100.7865
 30
0.0
  0
VERTEX
  5
4AF
  8
LAYER_1
 62
   250
 10
547.9122
 20
100.6072
 30
0.0
  0
VERTEX
  5
4B0
  8
LAYER_1
 62
   250
 10
548.0543
 20
100.7952
 30
0.0
  0
VERTEX
  5
4B1
  8
LAYER_1
 62
   250
 10
548.2065
 20
100.9581
 30
0.0
  0
VERTEX
  5
4B2
  8
LAYER_1
 62
   250
 10
548.3688
 20
101.0958
 30
0.0
  0
VERTEX
  5
4B3
  8
LAYER_1
 62
   250
 10
548.5414
 20
101.2085
 30
0.0
  0
VERTEX
  5
4B4
  8
LAYER_1
 62
   250
 10
548.7241
 20
101.2961
 30
0.0
  0
VERTEX
  5
4B5
  8
LAYER_1
 62
   250
 10
548.9171
 20
101.3587
 30
0.0
  0
VERTEX
  5
4B6
  8
LAYER_1
 62
   250
 10
549.1204
 20
101.3962
 30
0.0
  0
VERTEX
  5
4B7
  8
LAYER_1
 62
   250
 10
549.334
 20
101.4087
 30
0.0
  0
VERTEX
  5
4B8
  8
LAYER_1
 62
   250
 10
549.5004
 20
101.4028
 30
0.0
  0
VERTEX
  5
4B9
  8
LAYER_1
 62
   250
 10
549.6569
 20
101.3852
 30
0.0
  0
VERTEX
  5
4BA
  8
LAYER_1
 62
   250
 10
549.8036
 20
101.3558
 30
0.0
  0
VERTEX
  5
4BB
  8
LAYER_1
 62
   250
 10
549.9404
 20
101.3146
 30
0.0
  0
VERTEX
  5
4BC
  8
LAYER_1
 62
   250
 10
550.0672
 20
101.2616
 30
0.0
  0
VERTEX
  5
4BD
  8
LAYER_1
 62
   250
 10
550.184
 20
101.1968
 30
0.0
  0
VERTEX
  5
4BE
  8
LAYER_1
 62
   250
 10
550.2908
 20
101.1201
 30
0.0
  0
VERTEX
  5
4BF
  8
LAYER_1
 62
   250
 10
550.3876
 20
101.0315
 30
0.0
  0
VERTEX
  5
4C0
  8
LAYER_1
 62
   250
 10
550.4741
 20
100.9307
 30
0.0
  0
VERTEX
  5
4C1
  8
LAYER_1
 62
   250
 10
550.5492
 20
100.8171
 30
0.0
  0
VERTEX
  5
4C2
  8
LAYER_1
 62
   250
 10
550.6127
 20
100.6909
 30
0.0
  0
VERTEX
  5
4C3
  8
LAYER_1
 62
   250
 10
550.6648
 20
100.5519
 30
0.0
  0
VERTEX
  5
4C4
  8
LAYER_1
 62
   250
 10
550.7053
 20
100.4002
 30
0.0
  0
VERTEX
  5
4C5
  8
LAYER_1
 62
   250
 10
550.7342
 20
100.2359
 30
0.0
  0
VERTEX
  5
4C6
  8
LAYER_1
 62
   250
 10
550.7516
 20
100.0588
 30
0.0
  0
VERTEX
  5
4C7
  8
LAYER_1
 62
   250
 10
550.7574
 20
99.869
 30
0.0
  0
VERTEX
  5
4C8
  8
LAYER_1
 62
   250
 10
550.7574
 20
96.7231
 30
0.0
  0
VERTEX
  5
4C9
  8
LAYER_1
 62
   250
 10
549.9794
 20
96.7231
 30
0.0
  0
VERTEX
  5
4CA
  8
LAYER_1
 62
   250
 10
549.9794
 20
99.6111
 30
0.0
  0
VERTEX
  5
4CB
  8
LAYER_1
 62
   250
 10
549.9745
 20
99.8271
 30
0.0
  0
VERTEX
  5
4CC
  8
LAYER_1
 62
   250
 10
549.9599
 20
100.011
 30
0.0
  0
VERTEX
  5
4CD
  8
LAYER_1
 62
   250
 10
549.9359
 20
100.1625
 30
0.0
  0
VERTEX
  5
4CE
  8
LAYER_1
 62
   250
 10
549.9028
 20
100.2815
 30
0.0
  0
VERTEX
  5
4CF
  8
LAYER_1
 62
   250
 10
549.8575
 20
100.3791
 30
0.0
  0
VERTEX
  5
4D0
  8
LAYER_1
 62
   250
 10
549.7966
 20
100.4665
 30
0.0
  0
VERTEX
  5
4D1
  8
LAYER_1
 62
   250
 10
549.7199
 20
100.5439
 30
0.0
  0
VERTEX
  5
4D2
  8
LAYER_1
 62
   250
 10
549.6273
 20
100.6116
 30
0.0
  0
VERTEX
  5
4D3
  8
LAYER_1
 62
   250
 10
549.5234
 20
100.6666
 30
0.0
  0
VERTEX
  5
4D4
  8
LAYER_1
 62
   250
 10
549.4109
 20
100.7057
 30
0.0
  0
VERTEX
  5
4D5
  8
LAYER_1
 62
   250
 10
549.2898
 20
100.7291
 30
0.0
  0
VERTEX
  5
4D6
  8
LAYER_1
 62
   250
 10
549.1602
 20
100.7368
 30
0.0
  0
VERTEX
  5
4D7
  8
LAYER_1
 62
   250
 10
549.0412
 20
100.7318
 30
0.0
  0
VERTEX
  5
4D8
  8
LAYER_1
 62
   250
 10
548.9275
 20
100.7167
 30
0.0
  0
VERTEX
  5
4D9
  8
LAYER_1
 62
   250
 10
548.819
 20
100.6915
 30
0.0
  0
VERTEX
  5
4DA
  8
LAYER_1
 62
   250
 10
548.7157
 20
100.6563
 30
0.0
  0
VERTEX
  5
4DB
  8
LAYER_1
 62
   250
 10
548.6176
 20
100.6111
 30
0.0
  0
VERTEX
  5
4DC
  8
LAYER_1
 62
   250
 10
548.5247
 20
100.5559
 30
0.0
  0
VERTEX
  5
4DD
  8
LAYER_1
 62
   250
 10
548.4369
 20
100.4908
 30
0.0
  0
VERTEX
  5
4DE
  8
LAYER_1
 62
   250
 10
548.3542
 20
100.4156
 30
0.0
  0
VERTEX
  5
4DF
  8
LAYER_1
 62
   250
 10
548.2791
 20
100.3289
 30
0.0
  0
VERTEX
  5
4E0
  8
LAYER_1
 62
   250
 10
548.2141
 20
100.2302
 30
0.0
  0
VERTEX
  5
4E1
  8
LAYER_1
 62
   250
 10
548.1591
 20
100.1195
 30
0.0
  0
VERTEX
  5
4E2
  8
LAYER_1
 62
   250
 10
548.1142
 20
99.9968
 30
0.0
  0
VERTEX
  5
4E3
  8
LAYER_1
 62
   250
 10
548.0792
 20
99.8621
 30
0.0
  0
VERTEX
  5
4E4
  8
LAYER_1
 62
   250
 10
548.0543
 20
99.7153
 30
0.0
  0
VERTEX
  5
4E5
  8
LAYER_1
 62
   250
 10
548.0394
 20
99.5565
 30
0.0
  0
VERTEX
  5
4E6
  8
LAYER_1
 62
   250
 10
548.0344
 20
99.3857
 30
0.0
  0
VERTEX
  5
4E7
  8
LAYER_1
 62
   250
 10
548.0344
 20
96.7231
 30
0.0
  0
VERTEX
  5
4E8
  8
LAYER_1
 62
   250
 10
547.2565
 20
96.7231
 30
0.0
  0
VERTEX
  5
4E9
  8
LAYER_1
 62
   250
 10
547.2565
 20
99.701
 30
0.0
  0
VERTEX
  5
4EA
  8
LAYER_1
 62
   250
 10
547.2446
 20
99.9435
 30
0.0
  0
VERTEX
  5
4EB
  8
LAYER_1
 62
   250
 10
547.209
 20
100.1539
 30
0.0
  0
VERTEX
  5
4EC
  8
LAYER_1
 62
   250
 10
547.1496
 20
100.3319
 30
0.0
  0
VERTEX
  5
4ED
  8
LAYER_1
 62
   250
 10
547.0664
 20
100.4775
 30
0.0
  0
VERTEX
  5
4EE
  8
LAYER_1
 62
   250
 10
547.0151
 20
100.5381
 30
0.0
  0
VERTEX
  5
4EF
  8
LAYER_1
 62
   250
 10
546.9562
 20
100.5907
 30
0.0
  0
VERTEX
  5
4F0
  8
LAYER_1
 62
   250
 10
546.8897
 20
100.6353
 30
0.0
  0
VERTEX
  5
4F1
  8
LAYER_1
 62
   250
 10
546.8157
 20
100.6718
 30
0.0
  0
VERTEX
  5
4F2
  8
LAYER_1
 62
   250
 10
546.6451
 20
100.7205
 30
0.0
  0
VERTEX
  5
4F3
  8
LAYER_1
 62
   250
 10
546.4446
 20
100.7368
 30
0.0
  0
VERTEX
  5
4F4
  8
LAYER_1
 62
   250
 10
546.2841
 20
100.726
 30
0.0
  0
VERTEX
  5
4F5
  8
LAYER_1
 62
   250
 10
546.1296
 20
100.6937
 30
0.0
  0
VERTEX
  5
4F6
  8
LAYER_1
 62
   250
 10
545.9813
 20
100.6399
 30
0.0
  0
VERTEX
  5
4F7
  8
LAYER_1
 62
   250
 10
545.839
 20
100.5644
 30
0.0
  0
VERTEX
  5
4F8
  8
LAYER_1
 62
   250
 10
545.7094
 20
100.4682
 30
0.0
  0
VERTEX
  5
4F9
  8
LAYER_1
 62
   250
 10
545.599
 20
100.3521
 30
0.0
  0
VERTEX
  5
4FA
  8
LAYER_1
 62
   250
 10
545.5077
 20
100.2157
 30
0.0
  0
VERTEX
  5
4FB
  8
LAYER_1
 62
   250
 10
545.4353
 20
100.059
 30
0.0
  0
VERTEX
  5
4FC
  8
LAYER_1
 62
   250
 10
545.3811
 20
99.8748
 30
0.0
  0
VERTEX
  5
4FD
  8
LAYER_1
 62
   250
 10
545.3424
 20
99.6537
 30
0.0
  0
VERTEX
  5
4FE
  8
LAYER_1
 62
   250
 10
545.3192
 20
99.3958
 30
0.0
  0
VERTEX
  5
4FF
  8
LAYER_1
 62
   250
 10
545.3115
 20
99.1013
 30
0.0
  0
VERTEX
  5
500
  8
LAYER_1
 62
   250
 10
545.3115
 20
96.7231
 30
0.0
  0
VERTEX
  5
501
  8
LAYER_1
 62
   250
 10
544.5335
 20
96.7231
 30
0.0
  0
SEQEND
  5
518
  8
LAYER_1
 62
   250
  0
ENDSEC
  0
EOF
