<?xml version="1.0" encoding="UTF-8" standalone="no"?>
<svg
   viewBox="0 0 151.1811 151.1811"
   width="40mm"
   height="40mm"
   version="1.1"
   id="svg170"
   sodipodi:docname="tslot-4040.svg"
   inkscape:version="1.2.2 (b0a8486541, 2022-12-01)"
   xmlns:inkscape="http://www.inkscape.org/namespaces/inkscape"
   xmlns:sodipodi="http://sodipodi.sourceforge.net/DTD/sodipodi-0.dtd"
   xmlns="http://www.w3.org/2000/svg"
   xmlns:svg="http://www.w3.org/2000/svg">
  <sodipodi:namedview
     id="namedview22"
     pagecolor="#ffffff"
     bordercolor="#666666"
     borderopacity="1.0"
     inkscape:showpageshadow="2"
     inkscape:pageopacity="0.0"
     inkscape:pagecheckerboard="0"
     inkscape:deskcolor="#d1d1d1"
     inkscape:document-units="mm"
     showgrid="false"
     inkscape:zoom="7.319248"
     inkscape:cx="-7.9926244"
     inkscape:cy="67.903151"
     inkscape:window-width="5054"
     inkscape:window-height="1371"
     inkscape:window-x="66"
     inkscape:window-y="32"
     inkscape:window-maximized="1"
     inkscape:current-layer="svg170" />
  <desc
     id="desc2">TSlot-2020.dxf - scale = 1.000000, origin = (0.000000, 0.000000), method = manual</desc>
  <defs
     id="defs24">
    <marker
       id="DistanceX"
       orient="auto"
       refX="0"
       refY="0"
       style="overflow:visible">
      <path
         d="M 3,-3 -3,3 M 0,-5 V 5"
         style="stroke:#000000;stroke-width:0.5"
         id="path4" />
    </marker>
    <pattern
       id="Hatch"
       patternUnits="userSpaceOnUse"
       width="8"
       height="8"
       x="0"
       y="0">
      <path
         d="M8 4 l-4,4"
         stroke="#000000"
         stroke-width="0.25"
         linecap="square"
         id="path7" />
      <path
         d="M6 2 l-4,4"
         stroke="#000000"
         stroke-width="0.25"
         linecap="square"
         id="path9" />
      <path
         d="M4 0 l-4,4"
         stroke="#000000"
         stroke-width="0.25"
         linecap="square"
         id="path11" />
    </pattern>
    <symbol
       id="*Model_Space" />
    <symbol
       id="*Paper_Space" />
    <symbol
       id="*Paper_Space0" />
    <symbol
       id="_OPEN30">
      <path
         style="fill:none;stroke:#000000;stroke-linecap:round"
         d="M -3.77953,1121.51 0,1122.52"
         id="path17" />
      <path
         style="fill:none;stroke:#000000;stroke-linecap:round"
         d="m 0,1122.52 -3.77953,1.01"
         id="path19" />
      <path
         style="fill:none;stroke:#000000;stroke-linecap:round"
         d="M 0,1122.52 H -3.77953"
         id="path21" />
    </symbol>
  </defs>
  <g
     id="g303"
     transform="matrix(0.98678004,0,0,0.98678004,113.38582,-1069.8827)"
     style="stroke-width:1.0134;stroke-dasharray:none;fill:none;fill-opacity:1">
    <path
       id="path301"
       style="fill:none;fill-opacity:1;stroke:#000000;stroke-width:1.0134;stroke-dasharray:none"
       d="M -110.61969 1084.7227 C -112.70709 1084.7227 -114.39815 1086.4158 -114.39816 1088.5012 L -114.39816 1110.0497 C -114.39815 1110.6746 -113.89222 1111.1804 -113.266 1111.1799 L -106.83925 1111.1799 L -106.83925 1099.8405 L -103.2884 1099.8405 L -91.719442 1111.4095 L -91.719442 1120.5597 L -90.587288 1122.5192 L -91.719442 1124.4807 L -91.719442 1133.631 L -103.2884 1145.1999 L -106.83925 1145.1999 L -106.83925 1133.8586 L -113.266 1133.8586 C -113.89222 1133.8577 -114.39815 1134.3655 -114.39816 1134.9907 L -114.39816 1160.8205 C -114.39815 1162.9056 -114.39816 1186.6522 -114.39816 1186.6522 C -114.39815 1187.2771 -113.89222 1187.7829 -113.266 1187.7824 L -106.83925 1187.7824 L -106.83925 1176.443 L -103.2884 1176.443 L -91.719442 1188.014 L -91.719442 1197.1642 L -90.587288 1199.1218 L -91.719442 1201.0832 L -91.719442 1210.2335 L -103.2884 1221.8025 L -106.83925 1221.8025 L -106.83925 1210.4631 L -113.266 1210.4631 C -113.89222 1210.4622 -114.39815 1210.9681 -114.39816 1211.5933 L -114.39816 1233.1398 C -114.39815 1235.2249 -112.70709 1236.9163 -110.61969 1236.9163 L -89.075109 1236.9163 C -88.44892 1236.9163 -87.940965 1236.4089 -87.940975 1235.7822 L -87.940975 1229.3633 L -99.280334 1229.3633 L -99.280334 1225.8145 L -87.713357 1214.2435 L -78.569032 1214.2435 L -76.603596 1213.1035 L -74.63816 1214.2435 L -65.493836 1214.2435 L -53.924879 1225.8145 L -53.924879 1229.3633 L -65.266217 1229.3633 L -65.266217 1235.7822 C -65.266227 1236.4089 -64.756293 1236.9163 -64.130104 1236.9163 L -38.302335 1236.9163 L -12.472586 1236.9163 C -11.846397 1236.9163 -11.338443 1236.4089 -11.338453 1235.7822 L -11.338453 1229.3633 L -22.677811 1229.3633 L -22.677811 1225.8145 L -11.108855 1214.2435 L -1.9645302 1214.2435 L 0.00090579905 1213.1035 L 1.9643625 1214.2435 L 11.108687 1214.2435 L 22.677644 1225.8145 L 22.677644 1229.3633 L 11.338285 1229.3633 L 11.338285 1235.7822 C 11.338275 1236.4089 11.846227 1236.9163 12.472419 1236.9163 L 34.015023 1236.9163 C 36.102415 1236.9163 37.795457 1235.2249 37.795469 1233.1398 L 37.795469 1211.5933 C 37.795458 1210.9681 37.287554 1210.4623 36.661335 1210.4631 L 30.236556 1210.4631 L 30.236556 1221.8025 L 26.685708 1221.8025 L 15.116752 1210.2335 L 15.116752 1201.0832 L 13.984597 1199.1218 L 15.116752 1197.1642 L 15.116752 1188.014 L 26.685708 1176.443 L 30.236556 1176.443 L 30.236556 1187.7824 L 36.661335 1187.7824 C 37.287554 1187.7829 37.795458 1187.2771 37.795469 1186.6522 L 37.795469 1160.8205 C 37.795457 1158.7351 37.795469 1134.9907 37.795469 1134.9907 C 37.795458 1134.3655 37.287554 1133.8578 36.661335 1133.8586 L 30.236556 1133.8586 L 30.236556 1145.1999 L 26.685708 1145.1999 L 15.116752 1133.631 L 15.116752 1124.4807 L 13.984597 1122.5192 L 15.116752 1120.5597 L 15.116752 1111.4095 L 26.685708 1099.8405 L 30.236556 1099.8405 L 30.236556 1111.1799 L 36.661335 1111.1799 C 37.287554 1111.1804 37.795458 1110.6746 37.795469 1110.0497 L 37.795469 1088.5012 C 37.795457 1086.4158 36.102415 1084.7249 34.015023 1084.7227 L 12.472419 1084.7227 C 11.846227 1084.7227 11.338275 1085.2318 11.338285 1085.8588 L 11.338285 1092.2796 L 22.677644 1092.2796 L 22.677644 1095.8305 L 11.108687 1107.3994 L 1.9643625 1107.3994 L 0.00090579905 1108.5395 L -1.9645302 1107.3994 L -11.108855 1107.3994 L -22.677811 1095.8305 L -22.677811 1092.2796 L -11.338453 1092.2796 L -11.338453 1085.8588 C -11.338443 1085.2317 -11.846397 1084.7227 -12.472586 1084.7227 L -38.302335 1084.7227 L -64.130104 1084.7227 C -64.756293 1084.7227 -65.266227 1085.2318 -65.266217 1085.8588 L -65.266217 1092.2796 L -53.924879 1092.2796 L -53.924879 1095.8305 L -65.493836 1107.3994 L -74.63816 1107.3994 L -76.603596 1108.5395 L -78.569032 1107.3994 L -87.713357 1107.3994 L -99.280334 1095.8305 L -99.280334 1092.2796 L -87.940975 1092.2796 L -87.940975 1085.8588 C -87.940965 1085.2317 -88.44892 1084.7227 -89.075109 1084.7227 L -110.61969 1084.7227 z M -49.916815 1099.8405 L -46.365967 1099.8405 L -46.365967 1111.1799 L -38.302335 1111.1799 C -37.676113 1111.1804 -30.236724 1111.1799 -30.236724 1111.1799 L -30.236724 1099.8405 L -26.685876 1099.8405 L -15.116919 1111.4095 L -15.116919 1120.5597 L -13.984765 1122.5192 L -15.116919 1124.4807 L -15.116919 1133.631 L -26.685876 1145.1999 L -30.236724 1145.1999 L -30.236724 1133.8586 L -38.302335 1133.8586 L -46.365967 1133.8586 L -46.365967 1145.1999 L -49.916815 1145.1999 L -61.485771 1133.631 L -61.485771 1124.4807 L -62.617926 1122.5192 L -61.485771 1120.5597 L -61.485771 1111.4095 L -49.916815 1099.8405 z M -76.767877 1114.5843 C -72.35153 1114.488 -68.667051 1118.0462 -68.666639 1122.5192 C -68.666639 1126.903 -72.219851 1130.4562 -76.603596 1130.4562 C -80.987344 1130.4562 -84.540553 1126.903 -84.540553 1122.5192 C -84.540133 1118.3662 -81.338789 1114.9164 -77.197384 1114.606 C -77.053497 1114.5952 -76.910341 1114.5874 -76.767877 1114.5843 z M -0.16337536 1114.5843 C 4.2529444 1114.4879 7.9374514 1118.0462 7.937863 1122.5192 C 7.937863 1126.903 4.3846527 1130.4562 0.00090579905 1130.4562 C -4.3828411 1130.4562 -7.9380307 1126.903 -7.9380307 1122.5192 C -7.9376099 1118.3662 -4.7342888 1114.9164 -0.59288152 1114.606 C -0.44899549 1114.5952 -0.30583729 1114.5874 -0.16337536 1114.5843 z M -76.603596 1136.5009 L -74.63816 1137.641 L -65.493836 1137.641 L -53.924879 1149.21 L -53.924879 1152.7588 L -65.266217 1152.7588 L -65.266217 1160.8205 C -65.266227 1161.4472 -65.266217 1168.8821 -65.266217 1168.8821 L -53.924879 1168.8821 L -53.924879 1172.433 L -65.493836 1184.0039 L -74.63816 1184.0039 L -76.603596 1185.142 L -78.569032 1184.0039 L -87.713357 1184.0039 L -99.280334 1172.433 L -99.280334 1168.8821 L -87.940975 1168.8821 L -87.940975 1160.8205 C -87.940965 1160.1934 -87.940975 1152.7588 -87.940975 1152.7588 L -99.280334 1152.7588 L -99.280334 1149.21 L -87.713357 1137.641 L -78.569032 1137.641 L -76.603596 1136.5009 z M 0.00090579905 1136.5009 L 1.9643625 1137.641 L 11.108687 1137.641 L 22.677644 1149.21 L 22.677644 1152.7588 L 11.338285 1152.7588 L 11.338285 1160.8205 C 11.338275 1161.4472 11.338285 1168.8821 11.338285 1168.8821 L 22.677644 1168.8821 L 22.677644 1172.433 L 11.108687 1184.0039 L 1.9643625 1184.0039 L 0.00090579905 1185.142 L -1.9645302 1184.0039 L -11.108855 1184.0039 L -22.677811 1172.433 L -22.677811 1168.8821 L -11.338453 1168.8821 L -11.338453 1160.8205 L -11.338453 1152.7588 L -22.677811 1152.7588 L -22.677811 1149.21 L -11.108855 1137.641 L -1.9645302 1137.641 L 0.00090579905 1136.5009 z M -49.916815 1176.443 L -46.365967 1176.443 L -46.365967 1187.7824 L -38.302335 1187.7824 L -30.236724 1187.7824 L -30.236724 1176.443 L -26.685876 1176.443 L -15.116919 1188.014 L -15.116919 1197.1642 L -13.984765 1199.1218 L -15.116919 1201.0832 L -15.116919 1210.2335 L -26.685876 1221.8025 L -30.236724 1221.8025 L -30.236724 1210.4631 L -38.302335 1210.4631 C -38.928554 1210.4622 -46.365967 1210.4631 -46.365967 1210.4631 L -46.365967 1221.8025 L -49.916815 1221.8025 L -61.485771 1210.2335 L -61.485771 1201.0832 L -62.617926 1199.1218 L -61.485771 1197.1642 L -61.485771 1188.014 L -49.916815 1176.443 z M -0.16337536 1191.1888 C 4.2529824 1191.0925 7.9374514 1194.6488 7.937863 1199.1218 C 7.937863 1203.5056 4.3846615 1207.0607 0.00090579905 1207.0607 C -4.3828499 1207.0607 -7.9380307 1203.5056 -7.9380307 1199.1218 C -7.9376099 1194.9688 -4.734297 1191.5189 -0.59288152 1191.2085 C -0.4489952 1191.1977 -0.30583851 1191.1919 -0.16337536 1191.1888 z M -77.197384 1191.2085 C -72.593025 1190.863 -68.667064 1194.5045 -68.666639 1199.1218 C -68.666639 1203.5056 -72.219846 1207.0607 -76.603596 1207.0607 C -80.987348 1207.0607 -84.540553 1203.5056 -84.540553 1199.1218 C -84.540133 1194.9688 -81.338794 1191.5189 -77.197384 1191.2085 z " />
  </g>
</svg>
