<?xml version="1.0" encoding="UTF-8" standalone="no"?>
<svg
   viewBox="0 0 75.59055 151.1811"
   width="20mm"
   height="40mm"
   version="1.1"
   id="svg170"
   sodipodi:docname="tslot-2040.svg"
   inkscape:version="1.2.2 (b0a8486541, 2022-12-01)"
   xmlns:inkscape="http://www.inkscape.org/namespaces/inkscape"
   xmlns:sodipodi="http://sodipodi.sourceforge.net/DTD/sodipodi-0.dtd"
   xmlns="http://www.w3.org/2000/svg"
   xmlns:svg="http://www.w3.org/2000/svg">
  <sodipodi:namedview
     id="namedview22"
     pagecolor="#ffffff"
     bordercolor="#666666"
     borderopacity="1.0"
     inkscape:showpageshadow="2"
     inkscape:pageopacity="0.0"
     inkscape:pagecheckerboard="0"
     inkscape:deskcolor="#d1d1d1"
     inkscape:document-units="mm"
     showgrid="false"
     inkscape:zoom="14.638496"
     inkscape:cx="48.160685"
     inkscape:cy="86.620921"
     inkscape:window-width="5054"
     inkscape:window-height="1371"
     inkscape:window-x="66"
     inkscape:window-y="32"
     inkscape:window-maximized="1"
     inkscape:current-layer="svg170" />
  <desc
     id="desc2">TSlot-2020.dxf - scale = 1.000000, origin = (0.000000, 0.000000), method = manual</desc>
  <defs
     id="defs24">
    <marker
       id="DistanceX"
       orient="auto"
       refX="0"
       refY="0"
       style="overflow:visible">
      <path
         d="M 3,-3 -3,3 M 0,-5 V 5"
         style="stroke:#000000;stroke-width:0.5"
         id="path4" />
    </marker>
    <pattern
       id="Hatch"
       patternUnits="userSpaceOnUse"
       width="8"
       height="8"
       x="0"
       y="0">
      <path
         d="M8 4 l-4,4"
         stroke="#000000"
         stroke-width="0.25"
         linecap="square"
         id="path7" />
      <path
         d="M6 2 l-4,4"
         stroke="#000000"
         stroke-width="0.25"
         linecap="square"
         id="path9" />
      <path
         d="M4 0 l-4,4"
         stroke="#000000"
         stroke-width="0.25"
         linecap="square"
         id="path11" />
    </pattern>
    <symbol
       id="*Model_Space" />
    <symbol
       id="*Paper_Space" />
    <symbol
       id="*Paper_Space0" />
    <symbol
       id="_OPEN30">
      <path
         style="fill:none;stroke:#000000;stroke-linecap:round"
         d="M -3.77953,1121.51 0,1122.52"
         id="path17" />
      <path
         style="fill:none;stroke:#000000;stroke-linecap:round"
         d="m 0,1122.52 -3.77953,1.01"
         id="path19" />
      <path
         style="fill:none;stroke:#000000;stroke-linecap:round"
         d="M 0,1122.52 H -3.77953"
         id="path21" />
    </symbol>
  </defs>
  <g
     id="g168"
     transform="matrix(0.98678004,0,0,0.98678004,37.795274,-1069.8827)"
     style="stroke-width:1.0134;stroke-dasharray:none">
    <path
       id="path90"
       style="fill:none;fill-opacity:1;stroke:#000000;stroke-width:1.0134;stroke-dasharray:none"
       d="m 37.794922,1134.9902 c -1.1e-5,-0.6252 -0.506591,-1.1316 -1.132813,-1.1308 h -6.425781 v 11.3398 h -3.550781 l -11.568359,-11.5683 v -9.1504 l -1.132813,-1.961 1.132813,-1.959 v -9.1503 l 11.568359,-11.5704 h 3.550781 v 11.3399 h 6.425781 c 0.626222,5e-4 1.132802,-0.506 1.132813,-1.1309 v -21.5468 c -1.2e-5,-2.0854 -1.691899,-3.7771 -3.779297,-3.7793 H 12.472656 c -0.626192,0 -1.134775,0.5097 -1.134765,1.1367 v 6.4199 h 11.339843 v 3.5508 l -11.568359,11.5703 H 1.9648438 L 0,1108.5391 l -1.9648438,-1.1387 h -9.1445312 l -11.568359,-11.5703 v -3.5508 h 11.339843 v -6.4199 c 1e-5,-0.6271 -0.508573,-1.1367 -1.134765,-1.1367 h -21.542969 c -2.087398,0 -3.779285,1.6939 -3.779297,3.7793 v 21.5468 c 1.1e-5,0.6249 0.506591,1.1314 1.132813,1.1309 h 6.425781 v -11.3399 h 3.550781 l 11.568359,11.5704 v 9.1503 l 1.132813,1.959 -1.132813,1.961 v 9.1504 l -11.568359,11.5683 h -3.550781 v -11.3398 h -6.425781 c -0.626222,-9e-4 -1.132802,0.5056 -1.132813,1.1308 v 25.831 c 1.2e-5,2.0851 0,25.8308 0,25.8308 1.1e-5,0.6249 0.506591,1.1314 1.132813,1.1309 h 6.425781 v -11.3399 h 3.550781 l 11.568359,11.5704 v 9.1503 l 1.132813,1.959 -1.132813,1.961 v 9.1504 l -11.568359,11.5683 h -3.550781 v -11.3398 h -6.425781 c -0.626222,-9e-4 -1.132802,0.5056 -1.132813,1.1308 v 21.5469 c 1.2e-5,2.0851 1.691899,3.7754 3.779297,3.7754 h 21.542969 c 0.626192,0 1.134775,-0.5061 1.134765,-1.1328 v -6.4199 h -11.339843 v -3.5489 l 11.568359,-11.5703 h 9.1445312 L 0,1213.1032 l 1.9648438,1.1406 h 9.1445312 l 11.568359,11.5703 v 3.5489 H 11.337891 v 6.4199 c -1e-5,0.6267 0.508573,1.1328 1.134765,1.1328 h 21.542969 c 2.087398,0 3.779285,-1.6903 3.779297,-3.7754 v -21.5469 c -1.1e-5,-0.6252 -0.506591,-1.1316 -1.132813,-1.1308 h -6.425781 v 11.3398 h -3.550781 l -11.568359,-11.5683 v -9.1504 l -1.132813,-1.961 1.132813,-1.959 v -9.1503 l 11.568359,-11.5704 h 3.550781 v 11.3399 h 6.425781 c 0.626222,5e-4 1.132802,-0.506 1.132813,-1.1309 v -25.8308 c -1.2e-5,-2.0854 0,-25.831 0,-25.831 z m -26.457031,33.8923 h 11.339843 v 3.5508 l -11.568359,11.5703 H 1.9648438 L 0,1185.1423 l -1.9648438,-1.1387 h -9.1445312 l -11.568359,-11.5703 v -3.5508 h 11.339843 v -8.0613 -8.0614 h -11.339843 v -3.5489 l 11.568359,-11.5703 h 9.1445312 L 0,1136.5 l 1.9648438,1.1406 h 9.1445312 l 11.568359,11.5703 v 3.5489 H 11.337891 v 8.0614 c -1e-5,0.6267 0,8.0613 0,8.0613 z m -11.931641,-54.277 c 4.6043667,-0.3457 8.5308252,3.2967 8.53125,7.914 0,4.3838 -3.5537399,7.9375 -7.9375,7.9375 -4.3837601,0 -7.9375,-3.5537 -7.9375,-7.9375 4.208e-4,-4.153 3.2023304,-7.6036 7.34375,-7.914 z"
       sodipodi:nodetypes="cccccccccccccccccscccccccccccccsscccccccccccccccccccccccccccccccccsscccccccccccccsscccccccccccccccccccccccccccccccccccccccccccccscc" />
  </g>
  <g
     id="g262"
     transform="matrix(0.98678004,0,0,0.98678004,37.795274,-994.29216)"
     style="stroke-width:1.0134;stroke-dasharray:none">
    <path
       id="path260"
       style="fill:none;fill-opacity:1;stroke:#000000;stroke-width:1.0134;stroke-dasharray:none"
       d="m -0.59375,1114.6055 c 4.6043667,-0.3457 8.5308252,3.2967 8.53125,7.914 0,4.3838 -3.5537399,7.9375 -7.9375,7.9375 -4.3837601,0 -7.9375,-3.5537 -7.9375,-7.9375 4.208e-4,-4.153 3.2023304,-7.6036 7.34375,-7.914 z"
       sodipodi:nodetypes="ccscc" />
  </g>
</svg>
