<?xml version="1.0" encoding="UTF-8" standalone="no"?>
<svg
   viewBox="0 0 75.59055 226.77166"
   width="20mm"
   height="60mm"
   version="1.1"
   id="svg170"
   sodipodi:docname="tslot-2060.svg"
   inkscape:version="1.2.2 (b0a8486541, 2022-12-01)"
   xmlns:inkscape="http://www.inkscape.org/namespaces/inkscape"
   xmlns:sodipodi="http://sodipodi.sourceforge.net/DTD/sodipodi-0.dtd"
   xmlns="http://www.w3.org/2000/svg"
   xmlns:svg="http://www.w3.org/2000/svg">
  <sodipodi:namedview
     id="namedview22"
     pagecolor="#ffffff"
     bordercolor="#666666"
     borderopacity="1.0"
     inkscape:showpageshadow="2"
     inkscape:pageopacity="0.0"
     inkscape:pagecheckerboard="0"
     inkscape:deskcolor="#d1d1d1"
     inkscape:document-units="mm"
     showgrid="false"
     inkscape:zoom="3.659624"
     inkscape:cx="-32.380376"
     inkscape:cy="93.725476"
     inkscape:window-width="5054"
     inkscape:window-height="1371"
     inkscape:window-x="66"
     inkscape:window-y="32"
     inkscape:window-maximized="1"
     inkscape:current-layer="svg170" />
  <desc
     id="desc2">TSlot-2020.dxf - scale = 1.000000, origin = (0.000000, 0.000000), method = manual</desc>
  <defs
     id="defs24">
    <marker
       id="DistanceX"
       orient="auto"
       refX="0"
       refY="0"
       style="overflow:visible">
      <path
         d="M 3,-3 -3,3 M 0,-5 V 5"
         style="stroke:#000000;stroke-width:0.5"
         id="path4" />
    </marker>
    <pattern
       id="Hatch"
       patternUnits="userSpaceOnUse"
       width="8"
       height="8"
       x="0"
       y="0">
      <path
         d="M8 4 l-4,4"
         stroke="#000000"
         stroke-width="0.25"
         linecap="square"
         id="path7" />
      <path
         d="M6 2 l-4,4"
         stroke="#000000"
         stroke-width="0.25"
         linecap="square"
         id="path9" />
      <path
         d="M4 0 l-4,4"
         stroke="#000000"
         stroke-width="0.25"
         linecap="square"
         id="path11" />
    </pattern>
    <symbol
       id="*Model_Space" />
    <symbol
       id="*Paper_Space" />
    <symbol
       id="*Paper_Space0" />
    <symbol
       id="_OPEN30">
      <path
         style="fill:none;stroke:#000000;stroke-linecap:round"
         d="M -3.77953,1121.51 0,1122.52"
         id="path17" />
      <path
         style="fill:none;stroke:#000000;stroke-linecap:round"
         d="m 0,1122.52 -3.77953,1.01"
         id="path19" />
      <path
         style="fill:none;stroke:#000000;stroke-linecap:round"
         d="M 0,1122.52 H -3.77953"
         id="path21" />
    </symbol>
  </defs>
  <g
     id="g316"
     transform="matrix(0.98678004,0,0,0.98678004,37.795274,-994.29216)"
     style="stroke-width:1.0134;stroke-dasharray:none">
    <path
       id="path314"
       style="fill:none;fill-opacity:1;stroke:#000000;stroke-width:1.0134;stroke-dasharray:none"
       d="M -34.016455 1008.1195 C -36.103847 1008.1195 -37.794909 1009.8125 -37.794921 1011.8979 L -37.794921 1033.4465 C -37.79491 1034.0714 -37.288987 1034.5771 -36.662767 1034.5766 L -30.236008 1034.5766 L -30.236008 1023.2373 L -26.68516 1023.2373 L -15.116203 1034.8062 L -15.116203 1043.9565 L -13.984049 1045.916 L -15.116203 1047.8775 L -15.116203 1057.0277 L -26.68516 1068.5967 L -30.236008 1068.5967 L -30.236008 1057.2554 L -36.662767 1057.2554 C -37.288987 1057.2545 -37.79491 1057.7623 -37.794921 1058.3875 L -37.794921 1084.2173 L -37.794921 1110.049 C -37.79491 1110.6739 -37.288987 1111.1797 -36.662767 1111.1792 L -30.236008 1111.1792 L -30.236008 1099.8398 L -26.68516 1099.8398 L -15.116203 1111.4107 L -15.116203 1120.561 L -13.984049 1122.5185 L -15.116203 1124.48 L -15.116203 1133.6303 L -26.68516 1145.1992 L -30.236008 1145.1992 L -30.236008 1133.8599 L -36.662767 1133.8599 C -37.288987 1133.859 -37.79491 1134.3648 -37.794921 1134.99 L -37.794921 1160.8218 L -37.794921 1186.6515 C -37.79491 1187.2764 -37.288987 1187.7842 -36.662767 1187.7837 L -30.236008 1187.7837 L -30.236008 1176.4423 L -26.68516 1176.4423 L -15.116203 1188.0133 L -15.116203 1197.1635 L -13.984049 1199.123 L -15.116203 1201.0845 L -15.116203 1210.2348 L -26.68516 1221.8018 L -30.236008 1221.8018 L -30.236008 1210.4624 L -36.662767 1210.4624 C -37.288987 1210.4615 -37.79491 1210.9674 -37.794921 1211.5926 L -37.794921 1233.1411 C -37.794909 1235.2262 -36.103847 1236.9156 -34.016455 1236.9156 L -12.47187 1236.9156 C -11.84568 1236.9156 -11.337727 1236.4102 -11.337737 1235.7835 L -11.337737 1229.3626 L -22.677096 1229.3626 L -22.677096 1225.8138 L -11.110118 1214.2428 L -1.9657931 1214.2428 L -0.00035701748 1213.1028 L 1.9650791 1214.2428 L 11.109404 1214.2428 L 22.678361 1225.8138 L 22.678361 1229.3626 L 11.337023 1229.3626 L 11.337023 1235.7835 C 11.337013 1236.4102 11.846944 1236.9156 12.473136 1236.9156 L 34.015741 1236.9156 C 36.103133 1236.9156 37.794195 1235.2262 37.794207 1233.1411 L 37.794207 1211.5926 C 37.794196 1210.9674 37.288273 1210.4616 36.662053 1210.4624 L 30.237274 1210.4624 L 30.237274 1221.8018 L 26.686425 1221.8018 L 15.117469 1210.2348 L 15.117469 1201.0845 L 13.985314 1199.123 L 15.117469 1197.1635 L 15.117469 1188.0133 L 26.686425 1176.4423 L 30.237274 1176.4423 L 30.237274 1187.7837 L 36.662053 1187.7837 C 37.288273 1187.7842 37.794196 1187.2764 37.794207 1186.6515 L 37.794207 1160.8218 L 37.794207 1134.99 C 37.794196 1134.3648 37.288273 1133.8591 36.662053 1133.8599 L 30.237274 1133.8599 L 30.237274 1145.1992 L 26.686425 1145.1992 L 15.117469 1133.6303 L 15.117469 1124.48 L 13.985314 1122.5185 L 15.117469 1120.561 L 15.117469 1111.4107 L 26.686425 1099.8398 L 30.237274 1099.8398 L 30.237274 1111.1792 L 36.662053 1111.1792 C 37.288273 1111.1797 37.794196 1110.6739 37.794207 1110.049 L 37.794207 1084.2173 C 37.794195 1082.1319 37.794207 1058.3875 37.794207 1058.3875 C 37.794196 1057.7623 37.288273 1057.2546 36.662053 1057.2554 L 30.237274 1057.2554 L 30.237274 1068.5967 L 26.686425 1068.5967 L 15.117469 1057.0277 L 15.117469 1047.8775 L 13.985314 1045.916 L 15.117469 1043.9565 L 15.117469 1034.8062 L 26.686425 1023.2373 L 30.237274 1023.2373 L 30.237274 1034.5766 L 36.662053 1034.5766 C 37.288273 1034.5771 37.794196 1034.0714 37.794207 1033.4465 L 37.794207 1011.8979 C 37.794195 1009.8125 36.103133 1008.1217 34.015741 1008.1195 L 12.473136 1008.1195 C 11.846944 1008.1195 11.337013 1008.6286 11.337023 1009.2556 L 11.337023 1015.6764 L 22.678361 1015.6764 L 22.678361 1019.2272 L 11.109404 1030.7982 L 1.9650791 1030.7982 L -0.00035701748 1031.9363 L -1.9657931 1030.7982 L -11.110118 1030.7982 L -22.677096 1019.2272 L -22.677096 1015.6764 L -11.337737 1015.6764 L -11.337737 1009.2556 C -11.337727 1008.6285 -11.84568 1008.1195 -12.47187 1008.1195 L -34.016455 1008.1195 z M -0.16463818 1037.981 C 4.2517195 1037.8847 7.9361889 1041.443 7.9366005 1045.916 C 7.9366005 1050.2998 4.3833987 1053.853 -0.00035701748 1053.853 C -4.3841127 1053.853 -7.9373145 1050.2998 -7.9373145 1045.916 C -7.9368937 1041.763 -4.7355598 1038.3132 -0.59414436 1038.0028 C -0.45025804 1037.992 -0.30710133 1037.9841 -0.16463818 1037.981 z M -0.00035701748 1059.8977 L 1.9650791 1061.0378 L 11.109404 1061.0378 L 22.678361 1072.6067 L 22.678361 1076.1556 L 11.337023 1076.1556 L 11.337023 1084.2173 C 11.337013 1084.844 11.337023 1092.2789 11.337023 1092.2789 L 22.678361 1092.2789 L 22.678361 1095.8298 L 11.109404 1107.4007 L 1.9650791 1107.4007 L -0.00035701748 1108.5388 L -1.9657931 1107.4007 L -11.110118 1107.4007 L -22.677096 1095.8298 L -22.677096 1092.2789 L -11.337737 1092.2789 L -11.337737 1084.2173 L -11.337737 1076.1556 L -22.677096 1076.1556 L -22.677096 1072.6067 L -11.110118 1061.0378 L -1.9657931 1061.0378 L -0.00035701748 1059.8977 z M 0.26090941 1114.5875 C 4.4861574 1114.7197 7.9362022 1118.1898 7.9366005 1122.5185 C 7.9366005 1126.9023 4.3833943 1130.4575 -0.00035701748 1130.4575 C -4.3841083 1130.4575 -7.9373145 1126.9023 -7.9373145 1122.5185 C -7.9368937 1118.3655 -4.7355557 1114.9157 -0.59414436 1114.6053 C -0.30637202 1114.5837 -0.020773782 1114.5787 0.26090941 1114.5875 z M -0.00035701748 1136.5002 L 1.9650791 1137.6403 L 11.109404 1137.6403 L 22.678361 1149.2112 L 22.678361 1152.7601 L 11.337023 1152.7601 L 11.337023 1160.8218 L 11.337023 1168.8834 L 22.678361 1168.8834 L 22.678361 1172.4343 L 11.109404 1184.0032 L 1.9650791 1184.0032 L -0.00035701748 1185.1433 L -1.9657931 1184.0032 L -11.110118 1184.0032 L -22.677096 1172.4343 L -22.677096 1168.8834 L -11.337737 1168.8834 L -11.337737 1160.8218 L -11.337737 1152.7601 L -22.677096 1152.7601 L -22.677096 1149.2112 L -11.110118 1137.6403 L -1.9657931 1137.6403 L -0.00035701748 1136.5002 z M -0.59414436 1191.2078 C 4.0102131 1190.8621 7.9361757 1194.5057 7.9366005 1199.123 C 7.9366005 1203.5068 4.3833943 1207.06 -0.00035701748 1207.06 C -4.3841083 1207.06 -7.9373145 1203.5068 -7.9373145 1199.123 C -7.9368937 1194.97 -4.7355557 1191.5182 -0.59414436 1191.2078 z " />
  </g>
</svg>
