<?xml version="1.0" encoding="UTF-8" standalone="no"?>
<svg
   height="16"
   viewBox="0 0 16 16"
   version="1.1"
   id="svg4"
   sodipodi:docname="scan.svg"
   inkscape:version="1.2.2 (b0a8486541, 2022-12-01)"
   width="16"
   xmlns:inkscape="http://www.inkscape.org/namespaces/inkscape"
   xmlns:sodipodi="http://sodipodi.sourceforge.net/DTD/sodipodi-0.dtd"
   xmlns="http://www.w3.org/2000/svg"
   xmlns:svg="http://www.w3.org/2000/svg">
  <defs
     id="defs8" />
  <sodipodi:namedview
     id="namedview6"
     pagecolor="#ffffff"
     bordercolor="#666666"
     borderopacity="1.0"
     inkscape:showpageshadow="2"
     inkscape:pageopacity="0.0"
     inkscape:pagecheckerboard="0"
     inkscape:deskcolor="#d1d1d1"
     showgrid="false"
     inkscape:zoom="2.0058594"
     inkscape:cx="262.48101"
     inkscape:cy="265.72152"
     inkscape:window-width="2114"
     inkscape:window-height="1311"
     inkscape:window-x="120"
     inkscape:window-y="77"
     inkscape:window-maximized="0"
     inkscape:current-layer="svg4" />
  <path
     d="m 7.9984378,0 c 0.553017,0 0.9998047,0.44678774 0.9998047,0.99980473 V 1.9996095 h 0.9998048 c 0.4030467,0 0.7685997,0.2437024 0.9248197,0.6186291 0.156219,0.3749268 0.06874,0.8029682 -0.215583,1.0904121 L 8.7076743,5.7082601 c -0.3905487,0.3905487 -1.0247999,0.3905487 -1.4153486,0 L 5.2927163,3.7086507 C 5.0052724,3.4212068 4.9209139,2.9931654 5.0771334,2.6182386 5.2333529,2.2433119 5.5957821,1.9996095 6.0019527,1.9996095 H 7.0017575 V 0.99980473 C 7.0017575,0.44678774 7.4485452,0 8.0015622,0 Z M 5.2927163,12.291349 7.2923257,10.29174 c 0.3905487,-0.3905488 1.0247999,-0.3905488 1.4153486,0 l 1.9996097,1.999609 c 0.287444,0.287444 0.371802,0.715486 0.215583,1.090412 -0.15622,0.374927 -0.518649,0.61863 -0.9248197,0.61863 H 8.9982425 v 0.999804 C 8.9982425,15.553212 8.5514548,16 7.9984378,16 7.4454208,16 6.9986331,15.553212 6.9986331,15.000195 V 13.997266 H 5.9988284 c -0.4030463,0 -0.7685999,-0.243702 -0.9248194,-0.618629 C 4.9177895,13.00371 5.0052724,12.575669 5.2895919,12.288225 Z M 0.99980473,6.9986331 H 1.9996095 V 5.9988284 c 0,-0.4030463 0.2437024,-0.7685999 0.6186291,-0.9248194 0.3749268,-0.1562195 0.8029682,-0.068737 1.0904121,0.2155829 l 1.9996094,1.9996094 c 0.3905487,0.3905487 0.3905487,1.0247999 0,1.4153486 L 3.7086507,10.704159 C 3.4212068,10.991603 2.9931654,11.075962 2.6182386,10.919742 2.2433119,10.763523 1.9996095,10.401094 1.9996095,9.9949229 V 8.9982425 H 0.99980473 C 0.44678774,8.9982425 0,8.5514548 0,7.9984378 0,7.4454208 0.44678774,6.9986331 0.99980473,6.9986331 Z M 10.29174,8.7045499 c -0.3905488,-0.3905487 -0.3905488,-1.0247999 0,-1.4153486 l 1.999609,-1.9996094 c 0.287444,-0.2874439 0.715486,-0.3718024 1.090412,-0.2155829 0.374927,0.1562195 0.61863,0.5186487 0.61863,0.9248194 v 0.9998047 h 0.999804 C 15.553212,6.9986331 16,7.4454208 16,7.9984378 c 0,0.553017 -0.446788,0.9998047 -0.999805,0.9998047 h -1.002929 v 0.9998048 c 0,0.4030467 -0.243702,0.7685997 -0.618629,0.9248197 -0.374927,0.156219 -0.802968,0.06874 -1.090412,-0.215583 L 10.288616,8.7076743 Z M 7.9984378,6.9986331 a 0.99980473,0.99980473 0 1 1 0,1.9996094 0.99980473,0.99980473 0 1 1 0,-1.9996094 z"
     id="path2"
     style="fill:#353a40;fill-opacity:1;stroke-width:0.0312439" />
</svg>
