<?xml version="1.0" encoding="UTF-8" standalone="no"?>
<svg
   height="16"
   viewBox="0 0 16 16"
   version="1.1"
   id="svg1944"
   sodipodi:docname="settings.svg"
   inkscape:version="1.2.2 (b0a8486541, 2022-12-01)"
   width="16"
   xmlns:inkscape="http://www.inkscape.org/namespaces/inkscape"
   xmlns:sodipodi="http://sodipodi.sourceforge.net/DTD/sodipodi-0.dtd"
   xmlns="http://www.w3.org/2000/svg"
   xmlns:svg="http://www.w3.org/2000/svg">
  <defs
     id="defs1948" />
  <sodipodi:namedview
     id="namedview1946"
     pagecolor="#ffffff"
     bordercolor="#666666"
     borderopacity="1.0"
     inkscape:showpageshadow="2"
     inkscape:pageopacity="0.0"
     inkscape:pagecheckerboard="0"
     inkscape:deskcolor="#d1d1d1"
     showgrid="false"
     inkscape:zoom="4.9301579"
     inkscape:cx="71.093057"
     inkscape:cy="10.851579"
     inkscape:window-width="1452"
     inkscape:window-height="1230"
     inkscape:window-x="3347"
     inkscape:window-y="69"
     inkscape:window-maximized="0"
     inkscape:current-layer="svg1944" />
  <path
     d="m 15.441188,5.207267 c 0.100016,0.2719282 0.01563,0.5751124 -0.200033,0.7689002 l -1.353352,1.2314905 c 0.03438,0.2594257 0.05314,0.5251026 0.05314,0.7939051 0,0.2688025 -0.01875,0.5344794 -0.05314,0.7939051 l 1.353352,1.2314901 c 0.215661,0.193788 0.300049,0.496972 0.200033,0.768901 -0.137523,0.371947 -0.303175,0.728267 -0.493833,1.072084 l -0.146899,0.253174 c -0.206285,0.343818 -0.437573,0.668881 -0.69074,0.975191 -0.184406,0.225044 -0.490707,0.300058 -0.765753,0.212541 l -1.740915,-0.553233 c -0.41882,0.321938 -0.881397,0.590741 -1.37523,0.793905 L 9.8371283,15.334245 C 9.7746201,15.618676 9.5558313,15.843719 9.2682836,15.890604 8.8369619,15.962493 8.3931376,16 7.9399375,16 7.4867365,16 7.0429122,15.962493 6.6115905,15.890604 6.3240428,15.843719 6.105256,15.618676 6.0427458,15.334245 L 5.652056,13.549521 C 5.1582231,13.346357 4.6956463,13.077554 4.2768263,12.755616 L 2.539037,13.311975 C 2.2639909,13.399495 1.9576896,13.321375 1.7732839,13.099433 1.5201171,12.793124 1.2888288,12.46806 1.0825437,12.124243 L 0.93564486,11.871069 C 0.74498731,11.527251 0.57933505,11.170932 0.44181198,10.798984 0.34179584,10.527056 0.42618243,10.223872 0.64184526,10.030084 L 1.9951956,8.7985935 C 1.9608165,8.5360422 1.9420571,8.2703653 1.9420571,8.0015628 c 0,-0.2688025 0.018749,-0.5344794 0.053138,-0.7939051 L 0.64184526,5.9761672 C 0.42618443,5.7823794 0.34179584,5.4791952 0.44181198,5.207267 0.57933505,4.8353194 0.74498731,4.4789998 0.93564486,4.1351827 L 1.0825437,3.8820082 C 1.2888288,3.5381911 1.5201171,3.2131276 1.7732839,2.9068177 1.9576896,2.6817738 2.2639909,2.6067591 2.539037,2.6942762 L 4.2799522,3.2475093 C 4.6987722,2.9255714 5.161349,2.6567689 5.6551809,2.4536042 L 6.0458717,0.66888064 C 6.1083819,0.38445009 6.3271687,0.15940613 6.6147164,0.11252198 7.0460381,0.03750733 7.4898624,0 7.9430625,0 8.3962635,0 8.8400868,0.03750733 9.2714095,0.10939637 9.5589572,0.15628047 9.777744,0.38132448 9.8402542,0.66575503 L 10.230944,2.4504786 c 0.493833,0.2031647 0.95641,0.4719672 1.37523,0.7939051 l 1.740915,-0.5532331 c 0.275045,-0.087517 0.581346,-0.00938 0.765752,0.2125415 0.253168,0.3063099 0.484456,0.6313733 0.69074,0.9751905 l 0.1469,0.2531744 c 0.190657,0.3438172 0.356309,0.7001368 0.493832,1.0720844 z m -7.4981255,5.294784 a 2.5004169,2.5004884 0 1 0 0,-5.0009766 2.5004169,2.5004884 0 1 0 0,5.0009766 z"
     id="path1942"
     style="fill:#afb1b3;fill-opacity:1;stroke-width:0.0312557" />
</svg>
