<?xml version="1.0" encoding="UTF-8" standalone="no"?>
<svg
   height="16"
   viewBox="0 0 16 16"
   version="1.1"
   id="svg2141"
   sodipodi:docname="transform.svg"
   width="16"
   inkscape:version="1.2.2 (b0a8486541, 2022-12-01)"
   xmlns:inkscape="http://www.inkscape.org/namespaces/inkscape"
   xmlns:sodipodi="http://sodipodi.sourceforge.net/DTD/sodipodi-0.dtd"
   xmlns="http://www.w3.org/2000/svg"
   xmlns:svg="http://www.w3.org/2000/svg">
  <defs
     id="defs2145" />
  <sodipodi:namedview
     id="namedview2143"
     pagecolor="#ffffff"
     bordercolor="#666666"
     borderopacity="1.0"
     inkscape:showpageshadow="2"
     inkscape:pageopacity="0.0"
     inkscape:pagecheckerboard="0"
     inkscape:deskcolor="#d1d1d1"
     showgrid="false"
     inkscape:zoom="17.206383"
     inkscape:cx="26.87956"
     inkscape:cy="8.9211079"
     inkscape:window-width="1452"
     inkscape:window-height="1230"
     inkscape:window-x="120"
     inkscape:window-y="77"
     inkscape:window-maximized="0"
     inkscape:current-layer="svg2141" />
  <!--! Font Awesome Free 6.4.2 by @fontawesome - https://fontawesome.com License - https://fontawesome.com/license (Commercial License) Copyright 2023 Fonticons, Inc. -->
  <path
     d="m 3.8166667,14.885417 c 0.3472222,0.347222 0.9111111,0.347222 1.2583333,0 L 7.7416667,12.21875 c 0.3472222,-0.347222 0.3472222,-0.911111 0,-1.258333 -0.3472223,-0.347223 -0.9111111,-0.347223 -1.2583334,0 l -1.15,1.15 V 8.9243056 H 15.111111 C 15.602778,8.9243056 16,8.5270833 16,8.0354167 16,7.54375 15.602778,7.1465278 15.111111,7.1465278 H 12.444444 V 3.9604167 l 1.15,1.15 c 0.347223,0.3472222 0.911112,0.3472222 1.258334,0 C 15.2,4.7631944 15.2,4.1993056 14.852778,3.8520833 L 12.186111,1.1854167 c -0.347222,-0.34722227 -0.911111,-0.34722227 -1.258333,0 L 8.2611111,3.8520833 c -0.3472222,0.3472223 -0.3472222,0.9111111 0,1.2583334 0.3472222,0.3472222 0.9111111,0.3472222 1.2583333,0 l 1.1472226,-1.15 V 7.1465278 H 5.3333333 3.5555556 0.88888889 C 0.39722222,7.1465278 0,7.54375 0,8.0354167 0,8.5270833 0.39722222,8.9243056 0.88888889,8.9243056 H 3.5555556 v 3.1861114 l -1.15,-1.147223 c -0.3472223,-0.347222 -0.9111112,-0.347222 -1.2583334,0 C 0.8,11.310417 0.8,11.874306 1.1472222,12.221528 l 2.6666667,2.666666 z M 3.5555556,6.2576389 H 5.3333333 V 2.7020833 c 0,-0.4916666 -0.3972222,-0.8888889 -0.8888889,-0.8888889 -0.4916666,0 -0.8888888,0.3972223 -0.8888888,0.8888889 z M 12.444444,9.8131944 H 10.666667 V 13.36875 c 0,0.491667 0.397222,0.888889 0.888889,0.888889 0.491666,0 0.888888,-0.397222 0.888888,-0.888889 z"
     id="path2139"
     style="stroke-width:0.0277778;fill:#afb1b3;fill-opacity:1" />
</svg>
