<?xml version="1.0" encoding="UTF-8" standalone="no"?>
<!-- Generator: Adobe Illustrator 19.0.0, SVG Export Plug-In . SVG Version: 6.00 Build 0)  -->

<svg
   xmlns:dc="http://purl.org/dc/elements/1.1/"
   xmlns:cc="http://creativecommons.org/ns#"
   xmlns:rdf="http://www.w3.org/1999/02/22-rdf-syntax-ns#"
   xmlns:svg="http://www.w3.org/2000/svg"
   xmlns="http://www.w3.org/2000/svg"
   xmlns:sodipodi="http://sodipodi.sourceforge.net/DTD/sodipodi-0.dtd"
   xmlns:inkscape="http://www.inkscape.org/namespaces/inkscape"
   version="1.1"
   id="Capa_1"
   x="0px"
   y="0px"
   viewBox="0 0 512 512"
   style="enable-background:new 0 0 512 512;"
   xml:space="preserve"
   sodipodi:docname="cloud-folder.svg"
   inkscape:version="0.92.3 (2405546, 2018-03-11)"><metadata
   id="metadata43"><rdf:RDF><cc:Work
       rdf:about=""><dc:format>image/svg+xml</dc:format><dc:type
         rdf:resource="http://purl.org/dc/dcmitype/StillImage" /><dc:title /></cc:Work></rdf:RDF></metadata><defs
   id="defs41" /><sodipodi:namedview
   pagecolor="#ffffff"
   bordercolor="#666666"
   borderopacity="1"
   objecttolerance="10"
   gridtolerance="10"
   guidetolerance="10"
   inkscape:pageopacity="0"
   inkscape:pageshadow="2"
   inkscape:window-width="1686"
   inkscape:window-height="995"
   id="namedview39"
   showgrid="false"
   inkscape:zoom="0.4609375"
   inkscape:cx="-124.74576"
   inkscape:cy="256"
   inkscape:window-x="436"
   inkscape:window-y="1063"
   inkscape:window-maximized="0"
   inkscape:current-layer="Capa_1" />
<g
   id="g6"
   style="fill:#353a40;fill-opacity:1">
	<g
   id="g4"
   style="fill:#353a40;fill-opacity:1">
		<path
   d="M490.603,82.688L480,61.483C470.891,43.285,452.629,32,432.299,32H314.389c-20.331,0-38.613,11.285-47.701,29.483    l-19.093,38.165c-5.461,10.901-16.448,17.685-28.629,17.685H74.667C33.493,117.333,0,150.827,0,192v213.333    C0,446.507,33.493,480,74.667,480h362.667C478.507,480,512,446.507,512,405.333v-232C512,142.016,504.597,110.677,490.603,82.688z     M330.667,394.667H160c-29.397,0-53.333-23.936-53.333-53.333c0-25.92,18.603-47.595,43.157-52.352    c4.864-48.405,45.845-86.315,95.509-86.315c31.936,0,61.781,16.277,79.552,42.944c1.899-0.171,3.84-0.277,5.781-0.277    c41.173,0,74.667,33.493,74.667,74.667S371.84,394.667,330.667,394.667z"
   id="path2"
   style="fill:#353a40;fill-opacity:1" />
	</g>
</g>
<g
   id="g8">
</g>
<g
   id="g10">
</g>
<g
   id="g12">
</g>
<g
   id="g14">
</g>
<g
   id="g16">
</g>
<g
   id="g18">
</g>
<g
   id="g20">
</g>
<g
   id="g22">
</g>
<g
   id="g24">
</g>
<g
   id="g26">
</g>
<g
   id="g28">
</g>
<g
   id="g30">
</g>
<g
   id="g32">
</g>
<g
   id="g34">
</g>
<g
   id="g36">
</g>
</svg>