<?xml version="1.0" encoding="iso-8859-1"?>
<!-- Generator: Adobe Illustrator 19.0.0, SVG Export Plug-In . SVG Version: 6.00 Build 0)  -->
<svg version="1.1" id="Capa_1" xmlns="http://www.w3.org/2000/svg" xmlns:xlink="http://www.w3.org/1999/xlink" x="0px" y="0px"
	 viewBox="0 0 512 512" style="enable-background:new 0 0 512 512;" xml:space="preserve">
<g>
	<g>
		<path d="M490.603,82.688L480,61.483C470.891,43.285,452.629,32,432.299,32H314.389c-20.331,0-38.613,11.285-47.701,29.483
			l-19.093,38.165c-5.461,10.901-16.448,17.685-28.629,17.685H74.667C33.493,117.333,0,150.827,0,192v213.333
			C0,446.507,33.493,480,74.667,480h362.667C478.507,480,512,446.507,512,405.333v-232C512,142.016,504.597,110.677,490.603,82.688z
			 M330.667,394.667H160c-29.397,0-53.333-23.936-53.333-53.333c0-25.92,18.603-47.595,43.157-52.352
			c4.864-48.405,45.845-86.315,95.509-86.315c31.936,0,61.781,16.277,79.552,42.944c1.899-0.171,3.84-0.277,5.781-0.277
			c41.173,0,74.667,33.493,74.667,74.667S371.84,394.667,330.667,394.667z"/>
	</g>
</g>
<g>
</g>
<g>
</g>
<g>
</g>
<g>
</g>
<g>
</g>
<g>
</g>
<g>
</g>
<g>
</g>
<g>
</g>
<g>
</g>
<g>
</g>
<g>
</g>
<g>
</g>
<g>
</g>
<g>
</g>
</svg>
