<?xml version="1.0" encoding="UTF-8" standalone="no"?>
<svg
   version="1.1"
   id="Capa_1"
   x="0px"
   y="0px"
   viewBox="0 0 32 32"
   xml:space="preserve"
   sodipodi:docname="cloud-folder32.svg"
   inkscape:version="1.2.2 (b0a8486541, 2022-12-01)"
   width="32"
   height="32"
   xmlns:inkscape="http://www.inkscape.org/namespaces/inkscape"
   xmlns:sodipodi="http://sodipodi.sourceforge.net/DTD/sodipodi-0.dtd"
   xmlns="http://www.w3.org/2000/svg"
   xmlns:svg="http://www.w3.org/2000/svg"
   xmlns:rdf="http://www.w3.org/1999/02/22-rdf-syntax-ns#"
   xmlns:cc="http://creativecommons.org/ns#"
   xmlns:dc="http://purl.org/dc/elements/1.1/"><metadata
   id="metadata43"><rdf:RDF><cc:Work
       rdf:about=""><dc:format>image/svg+xml</dc:format><dc:type
         rdf:resource="http://purl.org/dc/dcmitype/StillImage" /></cc:Work></rdf:RDF></metadata><defs
   id="defs41" /><sodipodi:namedview
   pagecolor="#ffffff"
   bordercolor="#666666"
   borderopacity="1"
   objecttolerance="10"
   gridtolerance="10"
   guidetolerance="10"
   inkscape:pageopacity="0"
   inkscape:pageshadow="2"
   inkscape:window-width="1680"
   inkscape:window-height="963"
   id="namedview39"
   showgrid="false"
   inkscape:zoom="4.1928652"
   inkscape:cx="39.233315"
   inkscape:cy="36.013559"
   inkscape:window-x="70"
   inkscape:window-y="27"
   inkscape:window-maximized="0"
   inkscape:current-layer="Capa_1"
   inkscape:document-rotation="0"
   inkscape:showpageshadow="2"
   inkscape:pagecheckerboard="0"
   inkscape:deskcolor="#d1d1d1" />
<g
   id="g6"
   style="fill:#afb1b3;fill-opacity:1;stroke-width:32"
   transform="scale(0.0625)">
	<g
   id="g4"
   style="fill:#afb1b3;fill-opacity:1;stroke-width:32">
		<path
   d="M 490.603,82.688 480,61.483 C 470.891,43.285 452.629,32 432.299,32 h -117.91 c -20.331,0 -38.613,11.285 -47.701,29.483 l -19.093,38.165 c -5.461,10.901 -16.448,17.685 -28.629,17.685 H 74.667 C 33.493,117.333 0,150.827 0,192 V 405.333 C 0,446.507 33.493,480 74.667,480 H 437.334 C 478.507,480 512,446.507 512,405.333 v -232 c 0,-31.317 -7.403,-62.656 -21.397,-90.645 z M 330.667,394.667 H 160 c -29.397,0 -53.333,-23.936 -53.333,-53.333 0,-25.92 18.603,-47.595 43.157,-52.352 4.864,-48.405 45.845,-86.315 95.509,-86.315 31.936,0 61.781,16.277 79.552,42.944 1.899,-0.171 3.84,-0.277 5.781,-0.277 41.173,0 74.667,33.493 74.667,74.667 0,41.174 -33.493,74.666 -74.666,74.666 z"
   id="path2"
   style="fill:#afb1b3;fill-opacity:1;stroke-width:32" />
	</g>
</g>
<g
   id="g8"
   transform="translate(0,0.1)">
</g>
<g
   id="g10"
   transform="translate(0,0.1)">
</g>
<g
   id="g12"
   transform="translate(0,0.1)">
</g>
<g
   id="g14"
   transform="translate(0,0.1)">
</g>
<g
   id="g16"
   transform="translate(0,0.1)">
</g>
<g
   id="g18"
   transform="translate(0,0.1)">
</g>
<g
   id="g20"
   transform="translate(0,0.1)">
</g>
<g
   id="g22"
   transform="translate(0,0.1)">
</g>
<g
   id="g24"
   transform="translate(0,0.1)">
</g>
<g
   id="g26"
   transform="translate(0,0.1)">
</g>
<g
   id="g28"
   transform="translate(0,0.1)">
</g>
<g
   id="g30"
   transform="translate(0,0.1)">
</g>
<g
   id="g32"
   transform="translate(0,0.1)">
</g>
<g
   id="g34"
   transform="translate(0,0.1)">
</g>
<g
   id="g36"
   transform="translate(0,0.1)">
</g>
</svg>
