<?xml version="1.0" encoding="UTF-8" standalone="no"?>
<svg
   height="24px"
   viewBox="0 -960 960 960"
   width="24px"
   fill="#5f6368"
   version="1.1"
   id="svg2774"
   sodipodi:docname="size24.svg"
   inkscape:version="1.2.2 (b0a8486541, 2022-12-01)"
   xmlns:inkscape="http://www.inkscape.org/namespaces/inkscape"
   xmlns:sodipodi="http://sodipodi.sourceforge.net/DTD/sodipodi-0.dtd"
   xmlns="http://www.w3.org/2000/svg"
   xmlns:svg="http://www.w3.org/2000/svg">
  <defs
     id="defs2778" />
  <sodipodi:namedview
     id="namedview2776"
     pagecolor="#ffffff"
     bordercolor="#666666"
     borderopacity="1.0"
     inkscape:showpageshadow="2"
     inkscape:pageopacity="0.0"
     inkscape:pagecheckerboard="0"
     inkscape:deskcolor="#d1d1d1"
     showgrid="false"
     inkscape:zoom="42.791667"
     inkscape:cx="11.941577"
     inkscape:cy="12.023369"
     inkscape:window-width="1452"
     inkscape:window-height="1230"
     inkscape:window-x="115"
     inkscape:window-y="81"
     inkscape:window-maximized="0"
     inkscape:current-layer="svg2774" />
  <path
     d="M160-240q-33 0-56.5-23.5T80-320v-320q0-33 23.5-56.5T160-720h640q33 0 56.5 23.5T880-640v320q0 33-23.5 56.5T800-240H160Zm0-80h640v-320H680v160h-80v-160h-80v160h-80v-160h-80v160h-80v-160H160v320Zm120-160h80-80Zm160 0h80-80Zm160 0h80-80Zm-120 0Z"
     id="path2772"
     style="fill:#afb1b3;fill-opacity:1" />
</svg>
