<?xml version="1.0" encoding="UTF-8" standalone="no"?>
<!-- Generator: Adobe Illustrator 19.1.0, SVG Export Plug-In . SVG Version: 6.00 Build 0)  -->

<svg
   xmlns:dc="http://purl.org/dc/elements/1.1/"
   xmlns:cc="http://creativecommons.org/ns#"
   xmlns:rdf="http://www.w3.org/1999/02/22-rdf-syntax-ns#"
   xmlns:svg="http://www.w3.org/2000/svg"
   xmlns="http://www.w3.org/2000/svg"
   xmlns:sodipodi="http://sodipodi.sourceforge.net/DTD/sodipodi-0.dtd"
   xmlns:inkscape="http://www.inkscape.org/namespaces/inkscape"
   version="1.1"
   id="Capa_1"
   x="0px"
   y="0px"
   viewBox="0 0 481.72 481.72"
   style="enable-background:new 0 0 481.72 481.72"
   xml:space="preserve"
   inkscape:version="0.91 r13725"
   sodipodi:docname="X.svg"><metadata
     id="metadata41"><rdf:RDF><cc:Work
         rdf:about=""><dc:format>image/svg+xml</dc:format><dc:type
           rdf:resource="http://purl.org/dc/dcmitype/StillImage" /><dc:title /></cc:Work></rdf:RDF></metadata><defs
     id="defs39" /><sodipodi:namedview
     pagecolor="#ffffff"
     bordercolor="#666666"
     borderopacity="1"
     objecttolerance="10"
     gridtolerance="10"
     guidetolerance="10"
     inkscape:pageopacity="0"
     inkscape:pageshadow="2"
     inkscape:window-width="1215"
     inkscape:window-height="738"
     id="namedview37"
     showgrid="false"
     inkscape:zoom="1.6792538"
     inkscape:cx="81.740078"
     inkscape:cy="175.28943"
     inkscape:window-x="1389"
     inkscape:window-y="36"
     inkscape:window-maximized="0"
     inkscape:current-layer="Capa_1" /><path
     inkscape:connector-curvature="0"
     id="path5"
     d="m 474.993,412.91 -83.7,-48.4 0.1,-151.2 c 0,-0.1 0,-0.1 0,-0.2 0,-0.1 0,-0.3 0,-0.4 0,-0.3 0,-0.5 -0.1,-0.8 0,-0.1 0,-0.2 0,-0.4 0,-0.4 -0.1,-0.7 -0.2,-1 0,-0.1 -0.1,-0.3 -0.1,-0.4 -0.1,-0.3 -0.1,-0.6 -0.2,-0.8 0,-0.1 -0.1,-0.2 -0.1,-0.3 -0.1,-0.4 -0.3,-0.7 -0.4,-1.1 0,-0.1 -0.1,-0.2 -0.1,-0.3 -0.2,-0.4 -0.3,-0.7 -0.5,-1.1 l 0,0 0,0 c -0.2,-0.3 -0.4,-0.7 -0.6,-1 -0.1,-0.1 -0.1,-0.2 -0.2,-0.3 -0.2,-0.3 -0.5,-0.6 -0.7,-0.9 -0.1,-0.1 -0.2,-0.2 -0.2,-0.2 -0.2,-0.2 -0.4,-0.4 -0.6,-0.6 -0.1,-0.1 -0.2,-0.2 -0.3,-0.3 -0.3,-0.2 -0.5,-0.5 -0.8,-0.7 -0.1,-0.1 -0.2,-0.2 -0.3,-0.2 -0.2,-0.1 -0.4,-0.3 -0.6,-0.4 -0.1,-0.1 -0.3,-0.2 -0.4,-0.2 l -0.1,-0.1 -131.5,-76 0,-95.9 c 0,-7.5 -6,-13.5 -13.5,-13.5 -7.5,0 -13.5,6 -13.5,13.5 l 0,96.7 -130.4,75.2 -0.1,0.1 c -0.1,0.1 -0.3,0.2 -0.4,0.2 -0.2,0.1 -0.4,0.3 -0.6,0.4 -0.1,0.1 -0.2,0.2 -0.3,0.2 -0.3,0.2 -0.5,0.4 -0.8,0.7 -0.1,0.1 -0.2,0.2 -0.3,0.3 -0.2,0.2 -0.4,0.4 -0.6,0.6 -0.1,0.1 -0.2,0.2 -0.2,0.2 -0.2,0.3 -0.5,0.6 -0.7,0.9 -0.1,0.1 -0.1,0.2 -0.2,0.3 -0.5,0.7 -0.9,1.4 -1.2,2.1 0,0.1 -0.1,0.2 -0.1,0.3 -0.2,0.3 -0.3,0.7 -0.4,1.1 0,0.1 -0.1,0.2 -0.1,0.3 -0.1,0.3 -0.2,0.6 -0.2,0.8 0,0.1 -0.1,0.3 -0.1,0.4 -0.1,0.3 -0.1,0.7 -0.2,1.1 0,0.1 0,0.2 0,0.4 0,0.3 0,0.5 -0.1,0.8 0,0.1 0,0.3 0,0.4 0,0.1 0,0.1 0,0.2 l -0.1,152.3 -82.5,47.6 c -6.5,3.7 -8.7,12 -5,18.4 2.5,4.3 7,6.8 11.7,6.8 2.3,0 4.6,-0.6 6.7,-1.8 l 83.4,-48.1 129.9,75.1 c 0,0 0.1,0 0.1,0.1 0.5,0.3 1,0.5 1.5,0.7 l 0.1,0 c 0.5,0.2 0.9,0.3 1.4,0.5 0.1,0 0.3,0.1 0.4,0.1 0.4,0.1 0.8,0.2 1.2,0.2 0.1,0 0.3,0 0.4,0.1 0.5,0.1 1.1,0.1 1.6,0.1 l 0,0 c 0.5,0 1.1,0 1.6,-0.1 0.1,0 0.3,0 0.4,-0.1 0.4,-0.1 0.8,-0.1 1.2,-0.2 0.1,0 0.3,-0.1 0.4,-0.1 0.5,-0.1 1,-0.3 1.4,-0.5 l 0.1,0 c 0.5,-0.2 1,-0.5 1.5,-0.7 0,0 0.1,0 0.1,-0.1 l 131,-75.5 83.7,48.4 c 2.1,1.2 4.5,1.8 6.7,1.8 4.7,0 9.2,-2.4 11.7,-6.7 3.6,-6.8 1.4,-15.1 -5,-18.8 z m -248.4,15.5 -110.6,-64 0.1,-127.8 110.6,64 -0.1,127.8 z m 13.5,-151.2 -110.6,-64 110.7,-63.8 110.6,64 -110.7,63.8 z m 124.2,87.3 -110.7,63.8 0.1,-127.8 110.6,-63.8 0,127.8 z"
     style="fill:#353a40;fill-opacity:1" /><g
     id="g7" /><g
     id="g9" /><g
     id="g11" /><g
     id="g13" /><g
     id="g15" /><g
     id="g17" /><g
     id="g19" /><g
     id="g21" /><g
     id="g23" /><g
     id="g25" /><g
     id="g27" /><g
     id="g29" /><g
     id="g31" /><g
     id="g33" /><g
     id="g35" /><g
     id="g4278"><path
       inkscape:connector-curvature="0"
       id="path4169"
       d="m 106.68642,341.47799 124.12696,66.39349"
       style="fill:none;fill-rule:evenodd;stroke:#353a40;stroke-width:10;stroke-linecap:butt;stroke-linejoin:miter;stroke-miterlimit:4;stroke-dasharray:none;stroke-opacity:1" /><path
       inkscape:connector-curvature="0"
       id="path4169-2"
       d="m 112.79176,317.14508 124.12696,66.39349"
       style="fill:none;fill-rule:evenodd;stroke:#353a40;stroke-width:10;stroke-linecap:butt;stroke-linejoin:miter;stroke-miterlimit:4;stroke-dasharray:none;stroke-opacity:1" /><path
       inkscape:connector-curvature="0"
       id="path4169-6"
       d="m 110.58093,285.98487 124.12696,66.39349"
       style="fill:none;fill-rule:evenodd;stroke:#353a40;stroke-width:10;stroke-linecap:butt;stroke-linejoin:miter;stroke-miterlimit:4;stroke-dasharray:none;stroke-opacity:1" /><path
       inkscape:connector-curvature="0"
       id="path4169-4"
       d="m 113.10743,259.87766 124.12696,66.39349"
       style="fill:none;fill-rule:evenodd;stroke:#353a40;stroke-width:10;stroke-linecap:butt;stroke-linejoin:miter;stroke-miterlimit:4;stroke-dasharray:none;stroke-opacity:1" /><path
       sodipodi:nodetypes="cc"
       inkscape:connector-curvature="0"
       id="path4240"
       d="m 133.57337,235.17793 -0.74876,155.05229"
       style="fill:none;fill-rule:evenodd;stroke:#353a40;stroke-width:10;stroke-linecap:butt;stroke-linejoin:miter;stroke-miterlimit:4;stroke-dasharray:none;stroke-opacity:1" /><path
       sodipodi:nodetypes="cc"
       inkscape:connector-curvature="0"
       id="path4240-0"
       d="m 155.20505,253.82945 -0.74876,155.0523"
       style="fill:none;fill-rule:evenodd;stroke:#353a40;stroke-width:10;stroke-linecap:butt;stroke-linejoin:miter;stroke-miterlimit:4;stroke-dasharray:none;stroke-opacity:1" /><path
       sodipodi:nodetypes="cc"
       inkscape:connector-curvature="0"
       id="path4240-0-2"
       d="m 178.42966,266.03725 -0.74876,155.0523"
       style="fill:none;fill-rule:evenodd;stroke:#353a40;stroke-width:10;stroke-linecap:butt;stroke-linejoin:miter;stroke-miterlimit:4;stroke-dasharray:none;stroke-opacity:1" /><path
       sodipodi:nodetypes="cc"
       inkscape:connector-curvature="0"
       id="path4240-0-9"
       d="m 204.33402,278.24505 -0.74876,155.05231"
       style="fill:none;fill-rule:evenodd;stroke:#353a40;stroke-width:10;stroke-linecap:butt;stroke-linejoin:miter;stroke-miterlimit:4;stroke-dasharray:none;stroke-opacity:1" /></g></svg>