<?xml version="1.0" encoding="UTF-8" standalone="no"?>
<!-- Generator: Adobe Illustrator 19.1.0, SVG Export Plug-In . SVG Version: 6.00 Build 0)  -->

<svg
   xmlns:dc="http://purl.org/dc/elements/1.1/"
   xmlns:cc="http://creativecommons.org/ns#"
   xmlns:rdf="http://www.w3.org/1999/02/22-rdf-syntax-ns#"
   xmlns:svg="http://www.w3.org/2000/svg"
   xmlns="http://www.w3.org/2000/svg"
   xmlns:sodipodi="http://sodipodi.sourceforge.net/DTD/sodipodi-0.dtd"
   xmlns:inkscape="http://www.inkscape.org/namespaces/inkscape"
   version="1.1"
   id="Capa_1"
   x="0px"
   y="0px"
   viewBox="0 0 16 16"
   xml:space="preserve"
   inkscape:version="0.91 r13725"
   sodipodi:docname="X.svg"
   width="16"
   height="16"><metadata
     id="metadata41"><rdf:RDF><cc:Work
         rdf:about=""><dc:format>image/svg+xml</dc:format><dc:type
           rdf:resource="http://purl.org/dc/dcmitype/StillImage" /><dc:title></dc:title></cc:Work></rdf:RDF></metadata><defs
     id="defs39" /><sodipodi:namedview
     pagecolor="#ffffff"
     bordercolor="#666666"
     borderopacity="1"
     objecttolerance="10"
     gridtolerance="10"
     guidetolerance="10"
     inkscape:pageopacity="0"
     inkscape:pageshadow="2"
     inkscape:window-width="1215"
     inkscape:window-height="738"
     id="namedview37"
     showgrid="false"
     inkscape:zoom="3.1244595"
     inkscape:cx="36.176487"
     inkscape:cy="36.249399"
     inkscape:window-x="-2"
     inkscape:window-y="0"
     inkscape:window-maximized="0"
     inkscape:current-layer="Capa_1" /><path
     inkscape:connector-curvature="0"
     id="path5"
     d="m 15.776542,14.252948 -2.780038,-1.607556 0.0033,-5.0219492 c 0,-0.00332 0,-0.00332 0,-0.00664 0,-0.00332 0,-0.00996 0,-0.013286 0,-0.00996 0,-0.016607 -0.0033,-0.026572 0,-0.00332 0,-0.00664 0,-0.013286 0,-0.013286 -0.0033,-0.02325 -0.0066,-0.033214 0,-0.00332 -0.0033,-0.00996 -0.0033,-0.013286 -0.0033,-0.00996 -0.0033,-0.019929 -0.0066,-0.026572 0,-0.00332 -0.0033,-0.00664 -0.0033,-0.00996 -0.0033,-0.013286 -0.01,-0.02325 -0.01329,-0.036536 0,-0.00332 -0.0033,-0.00664 -0.0033,-0.00996 -0.0066,-0.013286 -0.01,-0.02325 -0.01661,-0.036536 l 0,0 0,0 c -0.0066,-0.00996 -0.01328,-0.02325 -0.01993,-0.033214 -0.0033,-0.00332 -0.0033,-0.00664 -0.0066,-0.00996 -0.0066,-0.00996 -0.01661,-0.019929 -0.02325,-0.029893 -0.0033,-0.00332 -0.0066,-0.00664 -0.0066,-0.00664 -0.0066,-0.00664 -0.01329,-0.013286 -0.01993,-0.019929 -0.0033,-0.00332 -0.0066,-0.00664 -0.01,-0.00996 -0.01,-0.00664 -0.01661,-0.016607 -0.02657,-0.02325 -0.0033,-0.00332 -0.0066,-0.00664 -0.01,-0.00664 -0.0066,-0.00332 -0.01328,-0.00996 -0.01993,-0.013286 -0.0033,-0.00332 -0.01,-0.00664 -0.01329,-0.00664 l -0.0033,-0.00332 -4.3676822,-2.5242601 0,-3.1852187 C 8.4164218,1.2762839 8.2171359,1.077 7.9680286,1.077 7.7189213,1.077 7.5196354,1.2762839 7.5196354,1.5253882 l 0,3.2117894 -4.331146,2.4976894 -0.00332,0.00332 c -0.00332,0.00332 -0.00996,0.00664 -0.013286,0.00664 -0.00664,0.00332 -0.013286,0.00996 -0.019929,0.013286 -0.00332,0.00332 -0.00664,0.00664 -0.00996,0.00664 -0.00996,0.00664 -0.016607,0.013286 -0.026571,0.02325 -0.00332,0.00332 -0.00664,0.00664 -0.00996,0.00996 -0.00664,0.00664 -0.013286,0.013286 -0.019929,0.019929 -0.00332,0.00332 -0.00664,0.00664 -0.00664,0.00664 -0.00664,0.00996 -0.016607,0.019929 -0.02325,0.029893 -0.00332,0.00332 -0.00332,0.00664 -0.00664,0.00996 -0.016607,0.02325 -0.029893,0.0465 -0.039857,0.069749 0,0.00332 -0.00332,0.00664 -0.00332,0.00996 -0.00664,0.00996 -0.00996,0.02325 -0.013286,0.036536 0,0.00332 -0.00332,0.00664 -0.00332,0.00996 -0.00332,0.00996 -0.00664,0.019929 -0.00664,0.026572 0,0.00332 -0.00332,0.00996 -0.00332,0.013286 -0.00332,0.00996 -0.00332,0.02325 -0.00664,0.036536 0,0.00332 0,0.00664 0,0.013286 0,0.00996 0,0.016607 -0.00332,0.026571 0,0.00332 0,0.00996 0,0.013286 0,0.00332 0,0.00332 0,0.00664 l -0.00332,5.0584852 -2.74018061,1.580984 c -0.21589301,0.122891 -0.2889645,0.398567 -0.16607155,0.611137 0.08303578,0.14282 0.23250017,0.225854 0.38860743,0.225854 0.0763929,0 0.15278583,-0.01993 0.22253588,-0.05979 l 2.76987455,-1.59759 4.3145389,2.494367 c 0,0 0.00332,0 0.00332,0.0033 0.016607,0.01 0.033214,0.01661 0.049821,0.02325 l 0.00332,0 c 0.016607,0.0066 0.029893,0.01 0.0465,0.01661 0.00332,0 0.00996,0.0033 0.013286,0.0033 0.013286,0.0033 0.026572,0.0066 0.039857,0.0066 0.00332,0 0.00996,0 0.013286,0.0033 C 7.941283,16 7.961212,16 7.977819,16 l 0,0 c 0.016607,0 0.036536,0 0.053143,-0.0033 0.00332,0 0.00996,0 0.013286,-0.0033 0.013286,-0.0033 0.026571,-0.0033 0.039857,-0.0066 0.00332,0 0.00996,-0.0033 0.013286,-0.0033 0.016607,-0.0033 0.033214,-0.01 0.0465,-0.01661 l 0.00332,0 c 0.016607,-0.0066 0.033214,-0.01661 0.049822,-0.02325 0,0 0.00332,0 0.00332,-0.0033 l 4.351074,-2.507653 2.780038,1.607555 c 0.06975,0.03986 0.149465,0.05979 0.222536,0.05979 0.156107,0 0.305572,-0.07971 0.388608,-0.222534 0.119571,-0.225855 0.0465,-0.501531 -0.166072,-0.624422 z m -8.2504347,0.514816 -3.6735027,-2.125693 0.00332,-4.2447431 3.6735027,2.1256931 -0.00332,4.244743 z M 7.9745005,9.7458143 4.3009978,7.6201213 7.9778219,5.5010709 11.651325,7.6267642 7.9745005,9.7458143 Z m 4.1252175,2.8995777 -3.6768243,2.11905 0.00332,-4.244743 3.6735033,-2.1190498 0,4.2447428 z"
     style="fill:#353a40;fill-opacity:1" /><g
     id="g7"
     transform="matrix(0.03321431,0,0,0.03321395,-2.2915656e-5,0.5385743)"
     style="fill:#353a40;fill-opacity:1" /><g
     id="g9"
     transform="matrix(0.03321431,0,0,0.03321395,-2.2915656e-5,0.5385743)"
     style="fill:#353a40;fill-opacity:1" /><g
     id="g11"
     transform="matrix(0.03321431,0,0,0.03321395,-2.2915656e-5,0.5385743)"
     style="fill:#353a40;fill-opacity:1" /><g
     id="g13"
     transform="matrix(0.03321431,0,0,0.03321395,-2.2915656e-5,0.5385743)"
     style="fill:#353a40;fill-opacity:1" /><g
     id="g15"
     transform="matrix(0.03321431,0,0,0.03321395,-2.2915656e-5,0.5385743)"
     style="fill:#353a40;fill-opacity:1" /><g
     id="g17"
     transform="matrix(0.03321431,0,0,0.03321395,-2.2915656e-5,0.5385743)"
     style="fill:#353a40;fill-opacity:1" /><g
     id="g19"
     transform="matrix(0.03321431,0,0,0.03321395,-2.2915656e-5,0.5385743)"
     style="fill:#353a40;fill-opacity:1" /><g
     id="g21"
     transform="matrix(0.03321431,0,0,0.03321395,-2.2915656e-5,0.5385743)"
     style="fill:#353a40;fill-opacity:1" /><g
     id="g23"
     transform="matrix(0.03321431,0,0,0.03321395,-2.2915656e-5,0.5385743)"
     style="fill:#353a40;fill-opacity:1" /><g
     id="g25"
     transform="matrix(0.03321431,0,0,0.03321395,-2.2915656e-5,0.5385743)"
     style="fill:#353a40;fill-opacity:1" /><g
     id="g27"
     transform="matrix(0.03321431,0,0,0.03321395,-2.2915656e-5,0.5385743)"
     style="fill:#353a40;fill-opacity:1" /><g
     id="g29"
     transform="matrix(0.03321431,0,0,0.03321395,-2.2915656e-5,0.5385743)"
     style="fill:#353a40;fill-opacity:1" /><g
     id="g31"
     transform="matrix(0.03321431,0,0,0.03321395,-2.2915656e-5,0.5385743)"
     style="fill:#353a40;fill-opacity:1" /><g
     id="g33"
     transform="matrix(0.03321431,0,0,0.03321395,-2.2915656e-5,0.5385743)"
     style="fill:#353a40;fill-opacity:1" /><g
     id="g35"
     transform="matrix(0.03321431,0,0,0.03321395,-2.2915656e-5,0.5385743)"
     style="fill:#353a40;fill-opacity:1" /><g
     id="g4278"
     transform="matrix(0.03321431,0,0,0.03321395,-2.2915656e-5,0.5385743)"
     style="fill:#353a40;fill-opacity:1"><path
       inkscape:connector-curvature="0"
       id="path4169"
       d="m 106.68642,341.47799 124.12696,66.39349"
       style="fill:#353a40;fill-rule:evenodd;stroke:#353a40;stroke-width:10;stroke-linecap:butt;stroke-linejoin:miter;stroke-miterlimit:4;stroke-dasharray:none;stroke-opacity:1;fill-opacity:1" /><path
       inkscape:connector-curvature="0"
       id="path4169-2"
       d="m 112.79176,317.14508 124.12696,66.39349"
       style="fill:#353a40;fill-rule:evenodd;stroke:#353a40;stroke-width:10;stroke-linecap:butt;stroke-linejoin:miter;stroke-miterlimit:4;stroke-dasharray:none;stroke-opacity:1;fill-opacity:1" /><path
       inkscape:connector-curvature="0"
       id="path4169-6"
       d="m 110.58093,285.98487 124.12696,66.39349"
       style="fill:#353a40;fill-rule:evenodd;stroke:#353a40;stroke-width:10;stroke-linecap:butt;stroke-linejoin:miter;stroke-miterlimit:4;stroke-dasharray:none;stroke-opacity:1;fill-opacity:1" /><path
       inkscape:connector-curvature="0"
       id="path4169-4"
       d="m 113.10743,259.87766 124.12696,66.39349"
       style="fill:#353a40;fill-rule:evenodd;stroke:#353a40;stroke-width:10;stroke-linecap:butt;stroke-linejoin:miter;stroke-miterlimit:4;stroke-dasharray:none;stroke-opacity:1;fill-opacity:1" /><path
       sodipodi:nodetypes="cc"
       inkscape:connector-curvature="0"
       id="path4240"
       d="m 133.57337,235.17793 -0.74876,155.05229"
       style="fill:#353a40;fill-rule:evenodd;stroke:#353a40;stroke-width:10;stroke-linecap:butt;stroke-linejoin:miter;stroke-miterlimit:4;stroke-dasharray:none;stroke-opacity:1;fill-opacity:1" /><path
       sodipodi:nodetypes="cc"
       inkscape:connector-curvature="0"
       id="path4240-0"
       d="m 155.20505,253.82945 -0.74876,155.0523"
       style="fill:#353a40;fill-rule:evenodd;stroke:#353a40;stroke-width:10;stroke-linecap:butt;stroke-linejoin:miter;stroke-miterlimit:4;stroke-dasharray:none;stroke-opacity:1;fill-opacity:1" /><path
       sodipodi:nodetypes="cc"
       inkscape:connector-curvature="0"
       id="path4240-0-2"
       d="m 178.42966,266.03725 -0.74876,155.0523"
       style="fill:#353a40;fill-rule:evenodd;stroke:#353a40;stroke-width:10;stroke-linecap:butt;stroke-linejoin:miter;stroke-miterlimit:4;stroke-dasharray:none;stroke-opacity:1;fill-opacity:1" /><path
       sodipodi:nodetypes="cc"
       inkscape:connector-curvature="0"
       id="path4240-0-9"
       d="m 204.33402,278.24505 -0.74876,155.05231"
       style="fill:#353a40;fill-rule:evenodd;stroke:#353a40;stroke-width:10;stroke-linecap:butt;stroke-linejoin:miter;stroke-miterlimit:4;stroke-dasharray:none;stroke-opacity:1;fill-opacity:1" /></g></svg>
