<?xml version="1.0" encoding="UTF-8" standalone="no"?>
<!-- Generator: Adobe Illustrator 19.1.0, SVG Export Plug-In . SVG Version: 6.00 Build 0)  -->

<svg
   xmlns:dc="http://purl.org/dc/elements/1.1/"
   xmlns:cc="http://creativecommons.org/ns#"
   xmlns:rdf="http://www.w3.org/1999/02/22-rdf-syntax-ns#"
   xmlns:svg="http://www.w3.org/2000/svg"
   xmlns="http://www.w3.org/2000/svg"
   xmlns:sodipodi="http://sodipodi.sourceforge.net/DTD/sodipodi-0.dtd"
   xmlns:inkscape="http://www.inkscape.org/namespaces/inkscape"
   version="1.1"
   id="Capa_1"
   x="0px"
   y="0px"
   viewBox="0 0 24 24"
   xml:space="preserve"
   inkscape:version="0.91 r13725"
   sodipodi:docname="X24.svg"
   width="24"
   height="24"><metadata
     id="metadata41"><rdf:RDF><cc:Work
         rdf:about=""><dc:format>image/svg+xml</dc:format><dc:type
           rdf:resource="http://purl.org/dc/dcmitype/StillImage" /><dc:title></dc:title></cc:Work></rdf:RDF></metadata><defs
     id="defs39" /><sodipodi:namedview
     pagecolor="#ffffff"
     bordercolor="#666666"
     borderopacity="1"
     objecttolerance="10"
     gridtolerance="10"
     guidetolerance="10"
     inkscape:pageopacity="0"
     inkscape:pageshadow="2"
     inkscape:window-width="1215"
     inkscape:window-height="738"
     id="namedview37"
     showgrid="false"
     inkscape:zoom="3.1244595"
     inkscape:cx="36.176487"
     inkscape:cy="36.249399"
     inkscape:window-x="-2"
     inkscape:window-y="0"
     inkscape:window-maximized="0"
     inkscape:current-layer="Capa_1" /><path
     inkscape:connector-curvature="0"
     id="path5"
     d="m 23.664741,21.379418 -4.170063,-2.411338 0.0049,-7.532934 c 0,-0.005 0,-0.005 0,-0.0099 0,-0.0049 0,-0.015 0,-0.01993 0,-0.015 0,-0.02492 -0.0049,-0.03986 0,-0.0049 0,-0.0099 0,-0.01994 0,-0.01994 -0.005,-0.03487 -0.0099,-0.04982 0,-0.0049 -0.005,-0.015 -0.005,-0.01994 -0.005,-0.015 -0.005,-0.0299 -0.0099,-0.03986 0,-0.005 -0.0049,-0.0099 -0.0049,-0.015 -0.005,-0.01994 -0.015,-0.03488 -0.01994,-0.05481 0,-0.0049 -0.005,-0.0099 -0.005,-0.015 -0.0099,-0.01994 -0.015,-0.03488 -0.02492,-0.05481 l 0,0 0,0 c -0.0099,-0.015 -0.01992,-0.03487 -0.0299,-0.04982 -0.005,-0.0049 -0.005,-0.0099 -0.0099,-0.015 -0.0099,-0.015 -0.02492,-0.02989 -0.03488,-0.04483 -0.0049,-0.005 -0.0099,-0.0099 -0.0099,-0.0099 -0.0099,-0.0099 -0.01994,-0.01994 -0.02989,-0.0299 -0.005,-0.0049 -0.0099,-0.0099 -0.015,-0.015 -0.015,-0.0099 -0.02492,-0.02492 -0.03986,-0.03488 -0.0049,-0.0049 -0.0099,-0.0099 -0.015,-0.0099 -0.0099,-0.0049 -0.01992,-0.015 -0.02989,-0.01994 -0.005,-0.0049 -0.015,-0.0099 -0.01994,-0.0099 l -0.005,-0.0049 -6.551533,-3.7863954 0,-4.7778354 c 0,-0.3736661 -0.29893,-0.6725924 -0.672592,-0.6725924 -0.373661,0 -0.67259,0.2989263 -0.67259,0.6725834 l 0,4.817692 -6.4967293,3.7465388 -0.00498,0.0049 c -0.00498,0.005 -0.01494,0.0099 -0.019929,0.0099 -0.00996,0.005 -0.019929,0.015 -0.029893,0.01994 -0.00498,0.0049 -0.00996,0.0099 -0.01494,0.0099 -0.01494,0.0099 -0.024911,0.01993 -0.039856,0.03487 -0.00498,0.0049 -0.00996,0.0099 -0.01494,0.015 -0.00996,0.0099 -0.019929,0.01994 -0.029893,0.0299 -0.00498,0.005 -0.00996,0.0099 -0.00996,0.0099 -0.00996,0.015 -0.02491,0.02989 -0.034876,0.04484 -0.00498,0.0049 -0.00498,0.0099 -0.00996,0.015 -0.02491,0.03487 -0.044839,0.06975 -0.059785,0.104624 0,0.0049 -0.00498,0.0099 -0.00498,0.015 -0.00996,0.015 -0.01494,0.03488 -0.019929,0.05481 0,0.005 -0.00498,0.0099 -0.00498,0.015 -0.00498,0.015 -0.00996,0.02989 -0.00996,0.03986 0,0.0049 -0.00498,0.015 -0.00498,0.01993 -0.00498,0.015 -0.00498,0.03488 -0.00996,0.05481 0,0.005 0,0.0099 0,0.01994 0,0.015 0,0.02492 -0.00498,0.03985 0,0.005 0,0.015 0,0.01994 0,0.005 0,0.005 0,0.0099 l -0.00498,7.587739 -4.11027709,2.37148 C 0.0145764,21.583657 -0.095031,21.997172 0.0893087,22.316027 c 0.12455386,0.214231 0.34875078,0.338781 0.58291202,0.338781 0.11458951,0 0.22917908,-0.02989 0.33380428,-0.08969 l 4.1548182,-2.396387 6.4718178,3.741556 c 0,0 0.005,0 0.005,0.005 0.02491,0.015 0.04982,0.02492 0.07473,0.03487 l 0.005,0 c 0.02491,0.0099 0.04484,0.015 0.06975,0.02492 0.005,0 0.01494,0.005 0.01993,0.005 0.01993,0.0049 0.03986,0.0099 0.05979,0.0099 0.005,0 0.01494,0 0.01993,0.005 C 11.911834,24 11.941727,24 11.966638,24 l 0,0 c 0.02491,0 0.0548,0 0.07972,-0.005 0.005,0 0.01494,0 0.01993,-0.0049 0.01993,-0.005 0.03986,-0.005 0.05979,-0.0099 0.005,0 0.01494,-0.005 0.01993,-0.005 0.02491,-0.0049 0.04982,-0.015 0.06975,-0.02492 l 0.005,0 c 0.02491,-0.0099 0.04982,-0.02492 0.07473,-0.03488 0,0 0.005,0 0.005,-0.0049 l 6.526623,-3.761485 4.170062,2.411337 c 0.104626,0.05979 0.224198,0.08969 0.333805,0.08969 0.23416,0 0.458359,-0.119566 0.582912,-0.333802 0.179358,-0.338783 0.06975,-0.752298 -0.249108,-0.936634 z m -12.375672,0.772224 -5.5102617,-3.188543 0.00498,-6.367124 5.5102617,3.188544 -0.005,6.367123 z m 0.672591,-7.532935 -5.5102619,-3.188545 5.5152449,-3.1785795 5.510262,3.1885445 -5.515245,3.17858 z m 6.187836,4.349373 -5.515245,3.178579 0.005,-6.367123 5.510263,-3.17858 0,6.367124 z"
     style="fill:#0ac9f1;fill-opacity:1" /><g
     id="g7"
     transform="matrix(0.04982154,0,0,0.049821,-1.4272214e-4,0.80782624)"
     style="fill:#0ac9f1;fill-opacity:1" /><g
     id="g9"
     transform="matrix(0.04982154,0,0,0.049821,-1.4272214e-4,0.80782624)"
     style="fill:#0ac9f1;fill-opacity:1" /><g
     id="g11"
     transform="matrix(0.04982154,0,0,0.049821,-1.4272214e-4,0.80782624)"
     style="fill:#0ac9f1;fill-opacity:1" /><g
     id="g13"
     transform="matrix(0.04982154,0,0,0.049821,-1.4272214e-4,0.80782624)"
     style="fill:#0ac9f1;fill-opacity:1" /><g
     id="g15"
     transform="matrix(0.04982154,0,0,0.049821,-1.4272214e-4,0.80782624)"
     style="fill:#0ac9f1;fill-opacity:1" /><g
     id="g17"
     transform="matrix(0.04982154,0,0,0.049821,-1.4272214e-4,0.80782624)"
     style="fill:#0ac9f1;fill-opacity:1" /><g
     id="g19"
     transform="matrix(0.04982154,0,0,0.049821,-1.4272214e-4,0.80782624)"
     style="fill:#0ac9f1;fill-opacity:1" /><g
     id="g21"
     transform="matrix(0.04982154,0,0,0.049821,-1.4272214e-4,0.80782624)"
     style="fill:#0ac9f1;fill-opacity:1" /><g
     id="g23"
     transform="matrix(0.04982154,0,0,0.049821,-1.4272214e-4,0.80782624)"
     style="fill:#0ac9f1;fill-opacity:1" /><g
     id="g25"
     transform="matrix(0.04982154,0,0,0.049821,-1.4272214e-4,0.80782624)"
     style="fill:#0ac9f1;fill-opacity:1" /><g
     id="g27"
     transform="matrix(0.04982154,0,0,0.049821,-1.4272214e-4,0.80782624)"
     style="fill:#0ac9f1;fill-opacity:1" /><g
     id="g29"
     transform="matrix(0.04982154,0,0,0.049821,-1.4272214e-4,0.80782624)"
     style="fill:#0ac9f1;fill-opacity:1" /><g
     id="g31"
     transform="matrix(0.04982154,0,0,0.049821,-1.4272214e-4,0.80782624)"
     style="fill:#0ac9f1;fill-opacity:1" /><g
     id="g33"
     transform="matrix(0.04982154,0,0,0.049821,-1.4272214e-4,0.80782624)"
     style="fill:#0ac9f1;fill-opacity:1" /><g
     id="g35"
     transform="matrix(0.04982154,0,0,0.049821,-1.4272214e-4,0.80782624)"
     style="fill:#0ac9f1;fill-opacity:1" /><g
     id="g4278"
     transform="matrix(0.04982154,0,0,0.049821,-1.4272214e-4,0.80782624)"
     style="fill:#0ac9f1;fill-opacity:1"><path
       inkscape:connector-curvature="0"
       id="path4169"
       d="m 106.68642,341.47799 124.12696,66.39349"
       style="fill:#0ac9f1;fill-opacity:1;fill-rule:evenodd;stroke:#0ac9f1;stroke-width:10;stroke-linecap:butt;stroke-linejoin:miter;stroke-miterlimit:4;stroke-dasharray:none;stroke-opacity:1" /><path
       inkscape:connector-curvature="0"
       id="path4169-2"
       d="m 112.79176,317.14508 124.12696,66.39349"
       style="fill:#0ac9f1;fill-opacity:1;fill-rule:evenodd;stroke:#0ac9f1;stroke-width:10;stroke-linecap:butt;stroke-linejoin:miter;stroke-miterlimit:4;stroke-dasharray:none;stroke-opacity:1" /><path
       inkscape:connector-curvature="0"
       id="path4169-6"
       d="m 110.58093,285.98487 124.12696,66.39349"
       style="fill:#0ac9f1;fill-opacity:1;fill-rule:evenodd;stroke:#0ac9f1;stroke-width:10;stroke-linecap:butt;stroke-linejoin:miter;stroke-miterlimit:4;stroke-dasharray:none;stroke-opacity:1" /><path
       inkscape:connector-curvature="0"
       id="path4169-4"
       d="m 113.10743,259.87766 124.12696,66.39349"
       style="fill:#0ac9f1;fill-opacity:1;fill-rule:evenodd;stroke:#0ac9f1;stroke-width:10;stroke-linecap:butt;stroke-linejoin:miter;stroke-miterlimit:4;stroke-dasharray:none;stroke-opacity:1" /><path
       sodipodi:nodetypes="cc"
       inkscape:connector-curvature="0"
       id="path4240"
       d="m 133.57337,235.17793 -0.74876,155.05229"
       style="fill:#0ac9f1;fill-opacity:1;fill-rule:evenodd;stroke:#0ac9f1;stroke-width:10;stroke-linecap:butt;stroke-linejoin:miter;stroke-miterlimit:4;stroke-dasharray:none;stroke-opacity:1" /><path
       sodipodi:nodetypes="cc"
       inkscape:connector-curvature="0"
       id="path4240-0"
       d="m 155.20505,253.82945 -0.74876,155.0523"
       style="fill:#0ac9f1;fill-opacity:1;fill-rule:evenodd;stroke:#0ac9f1;stroke-width:10;stroke-linecap:butt;stroke-linejoin:miter;stroke-miterlimit:4;stroke-dasharray:none;stroke-opacity:1" /><path
       sodipodi:nodetypes="cc"
       inkscape:connector-curvature="0"
       id="path4240-0-2"
       d="m 178.42966,266.03725 -0.74876,155.0523"
       style="fill:#0ac9f1;fill-opacity:1;fill-rule:evenodd;stroke:#0ac9f1;stroke-width:10;stroke-linecap:butt;stroke-linejoin:miter;stroke-miterlimit:4;stroke-dasharray:none;stroke-opacity:1" /><path
       sodipodi:nodetypes="cc"
       inkscape:connector-curvature="0"
       id="path4240-0-9"
       d="m 204.33402,278.24505 -0.74876,155.05231"
       style="fill:#0ac9f1;fill-opacity:1;fill-rule:evenodd;stroke:#0ac9f1;stroke-width:10;stroke-linecap:butt;stroke-linejoin:miter;stroke-miterlimit:4;stroke-dasharray:none;stroke-opacity:1" /></g></svg>
