<?xml version="1.0" encoding="UTF-8" standalone="no"?>
<!-- Generator: Adobe Illustrator 19.1.0, SVG Export Plug-In . SVG Version: 6.00 Build 0)  -->

<svg
   xmlns:dc="http://purl.org/dc/elements/1.1/"
   xmlns:cc="http://creativecommons.org/ns#"
   xmlns:rdf="http://www.w3.org/1999/02/22-rdf-syntax-ns#"
   xmlns:svg="http://www.w3.org/2000/svg"
   xmlns="http://www.w3.org/2000/svg"
   xmlns:sodipodi="http://sodipodi.sourceforge.net/DTD/sodipodi-0.dtd"
   xmlns:inkscape="http://www.inkscape.org/namespaces/inkscape"
   version="1.1"
   id="Capa_1"
   x="0px"
   y="0px"
   viewBox="0 0 32 32"
   xml:space="preserve"
   inkscape:version="0.91 r13725"
   sodipodi:docname="X24.svg"
   width="32"
   height="32"><metadata
     id="metadata41"><rdf:RDF><cc:Work
         rdf:about=""><dc:format>image/svg+xml</dc:format><dc:type
           rdf:resource="http://purl.org/dc/dcmitype/StillImage" /><dc:title></dc:title></cc:Work></rdf:RDF></metadata><defs
     id="defs39" /><sodipodi:namedview
     pagecolor="#ffffff"
     bordercolor="#666666"
     borderopacity="1"
     objecttolerance="10"
     gridtolerance="10"
     guidetolerance="10"
     inkscape:pageopacity="0"
     inkscape:pageshadow="2"
     inkscape:window-width="1215"
     inkscape:window-height="738"
     id="namedview37"
     showgrid="false"
     inkscape:zoom="3.1244595"
     inkscape:cx="36.176487"
     inkscape:cy="36.249399"
     inkscape:window-x="-2"
     inkscape:window-y="0"
     inkscape:window-maximized="0"
     inkscape:current-layer="Capa_1" /><path
     inkscape:connector-curvature="0"
     id="path5"
     d="m 31.55314,28.505875 -5.56011,-3.215132 0.0065,-10.043958 c 0,-0.0067 0,-0.0067 0,-0.0132 0,-0.0065 0,-0.02 0,-0.02657 0,-0.02 0,-0.03323 -0.0065,-0.05315 0,-0.0065 0,-0.0132 0,-0.02659 0,-0.02659 -0.0067,-0.04649 -0.0132,-0.06643 0,-0.0065 -0.0067,-0.02 -0.0067,-0.02659 -0.0067,-0.02 -0.0067,-0.03987 -0.0132,-0.05315 0,-0.0067 -0.0065,-0.0132 -0.0065,-0.02 -0.0067,-0.02659 -0.02,-0.04651 -0.02659,-0.07308 0,-0.0065 -0.0067,-0.0132 -0.0067,-0.02 -0.0132,-0.02659 -0.02,-0.04651 -0.03323,-0.07308 l 0,0 0,0 c -0.0132,-0.02 -0.02656,-0.04649 -0.03987,-0.06643 -0.0067,-0.0065 -0.0067,-0.0132 -0.0132,-0.02 -0.0132,-0.02 -0.03323,-0.03985 -0.04651,-0.05977 -0.0065,-0.0067 -0.0132,-0.0132 -0.0132,-0.0132 -0.0132,-0.0132 -0.02659,-0.02659 -0.03985,-0.03987 -0.0067,-0.0065 -0.0132,-0.0132 -0.02,-0.02 -0.02,-0.0132 -0.03323,-0.03323 -0.05315,-0.04651 -0.0065,-0.0065 -0.0132,-0.0132 -0.02,-0.0132 -0.0132,-0.0065 -0.02656,-0.02 -0.03985,-0.02659 -0.0067,-0.0065 -0.02,-0.0132 -0.02659,-0.0132 l -0.0067,-0.0065 -8.735418,-5.0485508 0,-6.3704764 c 0,-0.4982237 -0.398575,-0.8967939 -0.896793,-0.8967939 -0.498217,0 -0.896791,0.3985702 -0.896791,0.8967819 l 0,6.4236187 -8.662345,4.9954085 -0.00664,0.0065 c -0.00664,0.0067 -0.01992,0.0132 -0.026572,0.0132 -0.01328,0.0067 -0.026572,0.02 -0.039858,0.02659 -0.00664,0.0065 -0.01328,0.0132 -0.01992,0.0132 -0.01992,0.0132 -0.033215,0.02657 -0.053142,0.04649 -0.00664,0.0065 -0.01328,0.0132 -0.01992,0.02 -0.01328,0.0132 -0.026572,0.02659 -0.039858,0.03987 -0.00664,0.0067 -0.01328,0.0132 -0.01328,0.0132 -0.01328,0.02 -0.033214,0.03985 -0.046501,0.05979 -0.00664,0.0065 -0.00664,0.0132 -0.01328,0.02 -0.033214,0.04649 -0.059786,0.093 -0.079714,0.1395 0,0.0065 -0.00664,0.0132 -0.00664,0.02 -0.01328,0.02 -0.01992,0.04651 -0.026572,0.07308 0,0.0067 -0.00664,0.0132 -0.00664,0.02 -0.00664,0.02 -0.01328,0.03985 -0.01328,0.05315 0,0.0065 -0.00664,0.02 -0.00664,0.02657 -0.00664,0.02 -0.00664,0.04651 -0.01328,0.07308 0,0.0067 0,0.0132 0,0.02659 0,0.02 0,0.03323 -0.00664,0.05313 0,0.0067 0,0.02 0,0.02659 0,0.0067 0,0.0067 0,0.0132 l -0.00664,10.117032 -5.48039456,3.161987 c -0.43178865,0.245783 -0.57793252,0.797138 -0.33214513,1.222281 0.16607258,0.285642 0.46500317,0.45171 0.77721959,0.45171 0.1527867,0 0.3055735,-0.03985 0.4450744,-0.119586 l 5.5397829,-3.195198 8.6291298,4.988764 c 0,0 0.0067,0 0.0067,0.0067 0.03321,0.02 0.06643,0.03323 0.09964,0.04649 l 0.0067,0 c 0.03321,0.0132 0.05979,0.02 0.093,0.03323 0.0067,0 0.01992,0.0067 0.02657,0.0067 0.02657,0.0065 0.05315,0.0132 0.07972,0.0132 0.0067,0 0.01992,0 0.02657,0.0067 C 15.882526,32 15.922383,32 15.955598,32 l 0,0 c 0.03321,0 0.07307,0 0.106293,-0.0067 0.0067,0 0.01992,0 0.02657,-0.0065 0.02657,-0.0067 0.05315,-0.0067 0.07972,-0.0132 0.0067,0 0.01992,-0.0067 0.02657,-0.0067 0.03321,-0.0065 0.06643,-0.02 0.093,-0.03323 l 0.0067,0 c 0.03321,-0.0132 0.06643,-0.03323 0.09964,-0.04651 0,0 0.0067,0 0.0067,-0.0065 l 8.702203,-5.015337 5.560109,3.215131 c 0.139501,0.07972 0.298932,0.119586 0.445075,0.119586 0.312215,0 0.611148,-0.159422 0.77722,-0.445071 0.239144,-0.451713 0.093,-1.003069 -0.332146,-1.248851 z m -16.500971,1.029637 -7.3470498,-4.251411 0.00664,-8.489537 7.3470498,4.251411 -0.0067,8.489537 z m 0.896792,-10.04396 -7.34705,-4.251413 7.353694,-4.238125 7.347049,4.251412 -7.353693,4.238126 z m 8.250485,5.799191 -7.353693,4.238125 0.0067,-8.489537 7.347051,-4.238126 0,8.489538 z"
     style="fill:#0ac9f1;fill-opacity:1" /><g
     id="g7"
     transform="matrix(0.06642903,0,0,0.06642831,-1.8279649e-4,1.0769602)"
     style="fill:#0ac9f1;fill-opacity:1" /><g
     id="g9"
     transform="matrix(0.06642903,0,0,0.06642831,-1.8279649e-4,1.0769602)"
     style="fill:#0ac9f1;fill-opacity:1" /><g
     id="g11"
     transform="matrix(0.06642903,0,0,0.06642831,-1.8279649e-4,1.0769602)"
     style="fill:#0ac9f1;fill-opacity:1" /><g
     id="g13"
     transform="matrix(0.06642903,0,0,0.06642831,-1.8279649e-4,1.0769602)"
     style="fill:#0ac9f1;fill-opacity:1" /><g
     id="g15"
     transform="matrix(0.06642903,0,0,0.06642831,-1.8279649e-4,1.0769602)"
     style="fill:#0ac9f1;fill-opacity:1" /><g
     id="g17"
     transform="matrix(0.06642903,0,0,0.06642831,-1.8279649e-4,1.0769602)"
     style="fill:#0ac9f1;fill-opacity:1" /><g
     id="g19"
     transform="matrix(0.06642903,0,0,0.06642831,-1.8279649e-4,1.0769602)"
     style="fill:#0ac9f1;fill-opacity:1" /><g
     id="g21"
     transform="matrix(0.06642903,0,0,0.06642831,-1.8279649e-4,1.0769602)"
     style="fill:#0ac9f1;fill-opacity:1" /><g
     id="g23"
     transform="matrix(0.06642903,0,0,0.06642831,-1.8279649e-4,1.0769602)"
     style="fill:#0ac9f1;fill-opacity:1" /><g
     id="g25"
     transform="matrix(0.06642903,0,0,0.06642831,-1.8279649e-4,1.0769602)"
     style="fill:#0ac9f1;fill-opacity:1" /><g
     id="g27"
     transform="matrix(0.06642903,0,0,0.06642831,-1.8279649e-4,1.0769602)"
     style="fill:#0ac9f1;fill-opacity:1" /><g
     id="g29"
     transform="matrix(0.06642903,0,0,0.06642831,-1.8279649e-4,1.0769602)"
     style="fill:#0ac9f1;fill-opacity:1" /><g
     id="g31"
     transform="matrix(0.06642903,0,0,0.06642831,-1.8279649e-4,1.0769602)"
     style="fill:#0ac9f1;fill-opacity:1" /><g
     id="g33"
     transform="matrix(0.06642903,0,0,0.06642831,-1.8279649e-4,1.0769602)"
     style="fill:#0ac9f1;fill-opacity:1" /><g
     id="g35"
     transform="matrix(0.06642903,0,0,0.06642831,-1.8279649e-4,1.0769602)"
     style="fill:#0ac9f1;fill-opacity:1" /><g
     id="g4278"
     transform="matrix(0.06642903,0,0,0.06642831,-1.8279649e-4,1.0769602)"
     style="fill:#0ac9f1;fill-opacity:1"><path
       inkscape:connector-curvature="0"
       id="path4169"
       d="m 106.68642,341.47799 124.12696,66.39349"
       style="fill:#0ac9f1;fill-opacity:1;fill-rule:evenodd;stroke:#0ac9f1;stroke-width:10;stroke-linecap:butt;stroke-linejoin:miter;stroke-miterlimit:4;stroke-dasharray:none;stroke-opacity:1" /><path
       inkscape:connector-curvature="0"
       id="path4169-2"
       d="m 112.79176,317.14508 124.12696,66.39349"
       style="fill:#0ac9f1;fill-opacity:1;fill-rule:evenodd;stroke:#0ac9f1;stroke-width:10;stroke-linecap:butt;stroke-linejoin:miter;stroke-miterlimit:4;stroke-dasharray:none;stroke-opacity:1" /><path
       inkscape:connector-curvature="0"
       id="path4169-6"
       d="m 110.58093,285.98487 124.12696,66.39349"
       style="fill:#0ac9f1;fill-opacity:1;fill-rule:evenodd;stroke:#0ac9f1;stroke-width:10;stroke-linecap:butt;stroke-linejoin:miter;stroke-miterlimit:4;stroke-dasharray:none;stroke-opacity:1" /><path
       inkscape:connector-curvature="0"
       id="path4169-4"
       d="m 113.10743,259.87766 124.12696,66.39349"
       style="fill:#0ac9f1;fill-opacity:1;fill-rule:evenodd;stroke:#0ac9f1;stroke-width:10;stroke-linecap:butt;stroke-linejoin:miter;stroke-miterlimit:4;stroke-dasharray:none;stroke-opacity:1" /><path
       sodipodi:nodetypes="cc"
       inkscape:connector-curvature="0"
       id="path4240"
       d="m 133.57337,235.17793 -0.74876,155.05229"
       style="fill:#0ac9f1;fill-opacity:1;fill-rule:evenodd;stroke:#0ac9f1;stroke-width:10;stroke-linecap:butt;stroke-linejoin:miter;stroke-miterlimit:4;stroke-dasharray:none;stroke-opacity:1" /><path
       sodipodi:nodetypes="cc"
       inkscape:connector-curvature="0"
       id="path4240-0"
       d="m 155.20505,253.82945 -0.74876,155.0523"
       style="fill:#0ac9f1;fill-opacity:1;fill-rule:evenodd;stroke:#0ac9f1;stroke-width:10;stroke-linecap:butt;stroke-linejoin:miter;stroke-miterlimit:4;stroke-dasharray:none;stroke-opacity:1" /><path
       sodipodi:nodetypes="cc"
       inkscape:connector-curvature="0"
       id="path4240-0-2"
       d="m 178.42966,266.03725 -0.74876,155.0523"
       style="fill:#0ac9f1;fill-opacity:1;fill-rule:evenodd;stroke:#0ac9f1;stroke-width:10;stroke-linecap:butt;stroke-linejoin:miter;stroke-miterlimit:4;stroke-dasharray:none;stroke-opacity:1" /><path
       sodipodi:nodetypes="cc"
       inkscape:connector-curvature="0"
       id="path4240-0-9"
       d="m 204.33402,278.24505 -0.74876,155.05231"
       style="fill:#0ac9f1;fill-opacity:1;fill-rule:evenodd;stroke:#0ac9f1;stroke-width:10;stroke-linecap:butt;stroke-linejoin:miter;stroke-miterlimit:4;stroke-dasharray:none;stroke-opacity:1" /></g></svg>
