<?xml version="1.0" encoding="UTF-8" standalone="no"?>
<!-- Generator: Adobe Illustrator 19.1.0, SVG Export Plug-In . SVG Version: 6.00 Build 0)  -->

<svg
   xmlns:dc="http://purl.org/dc/elements/1.1/"
   xmlns:cc="http://creativecommons.org/ns#"
   xmlns:rdf="http://www.w3.org/1999/02/22-rdf-syntax-ns#"
   xmlns:svg="http://www.w3.org/2000/svg"
   xmlns="http://www.w3.org/2000/svg"
   xmlns:sodipodi="http://sodipodi.sourceforge.net/DTD/sodipodi-0.dtd"
   xmlns:inkscape="http://www.inkscape.org/namespaces/inkscape"
   version="1.1"
   id="Capa_1"
   x="0px"
   y="0px"
   viewBox="0 0 32 32"
   xml:space="preserve"
   inkscape:version="0.91 r13725"
   sodipodi:docname="XYZ32.svg"
   width="32"
   height="32"><metadata
     id="metadata41"><rdf:RDF><cc:Work
         rdf:about=""><dc:format>image/svg+xml</dc:format><dc:type
           rdf:resource="http://purl.org/dc/dcmitype/StillImage" /><dc:title></dc:title></cc:Work></rdf:RDF></metadata><defs
     id="defs39" /><sodipodi:namedview
     pagecolor="#ffffff"
     bordercolor="#666666"
     borderopacity="1"
     objecttolerance="10"
     gridtolerance="10"
     guidetolerance="10"
     inkscape:pageopacity="0"
     inkscape:pageshadow="2"
     inkscape:window-width="1293"
     inkscape:window-height="850"
     id="namedview37"
     showgrid="false"
     inkscape:zoom="5.9113954"
     inkscape:cx="20.2401"
     inkscape:cy="37.337401"
     inkscape:window-x="0"
     inkscape:window-y="0"
     inkscape:window-maximized="0"
     inkscape:current-layer="Capa_1" /><g
     id="g3"
     style="fill:#353a40;fill-opacity:1"
     transform="matrix(0.06642862,0,0,0.06642862,-2.212838e-5,1.076815)"><path
       d="m 474.993,412.91 -83.7,-48.4 0.1,-151.2 c 0,-0.1 0,-0.1 0,-0.2 0,-0.1 0,-0.3 0,-0.4 0,-0.3 0,-0.5 -0.1,-0.8 0,-0.1 0,-0.2 0,-0.4 0,-0.4 -0.1,-0.7 -0.2,-1 0,-0.1 -0.1,-0.3 -0.1,-0.4 -0.1,-0.3 -0.1,-0.6 -0.2,-0.8 0,-0.1 -0.1,-0.2 -0.1,-0.3 -0.1,-0.4 -0.3,-0.7 -0.4,-1.1 0,-0.1 -0.1,-0.2 -0.1,-0.3 -0.2,-0.4 -0.3,-0.7 -0.5,-1.1 l 0,0 0,0 c -0.2,-0.3 -0.4,-0.7 -0.6,-1 -0.1,-0.1 -0.1,-0.2 -0.2,-0.3 -0.2,-0.3 -0.5,-0.6 -0.7,-0.9 -0.1,-0.1 -0.2,-0.2 -0.2,-0.2 -0.2,-0.2 -0.4,-0.4 -0.6,-0.6 -0.1,-0.1 -0.2,-0.2 -0.3,-0.3 -0.3,-0.2 -0.5,-0.5 -0.8,-0.7 -0.1,-0.1 -0.2,-0.2 -0.3,-0.2 -0.2,-0.1 -0.4,-0.3 -0.6,-0.4 -0.1,-0.1 -0.3,-0.2 -0.4,-0.2 l -0.1,-0.1 -131.5,-76 0,-95.9 c 0,-7.5 -6,-13.5 -13.5,-13.5 -7.5,0 -13.5,6 -13.5,13.5 l 0,96.7 -130.4,75.2 -0.1,0.1 c -0.1,0.1 -0.3,0.2 -0.4,0.2 -0.2,0.1 -0.4,0.3 -0.6,0.4 -0.1,0.1 -0.2,0.2 -0.3,0.2 -0.3,0.2 -0.5,0.4 -0.8,0.7 -0.1,0.1 -0.2,0.2 -0.3,0.3 -0.2,0.2 -0.4,0.4 -0.6,0.6 -0.1,0.1 -0.2,0.2 -0.2,0.2 -0.2,0.3 -0.5,0.6 -0.7,0.9 -0.1,0.1 -0.1,0.2 -0.2,0.3 -0.5,0.7 -0.9,1.4 -1.2,2.1 0,0.1 -0.1,0.2 -0.1,0.3 -0.2,0.3 -0.3,0.7 -0.4,1.1 0,0.1 -0.1,0.2 -0.1,0.3 -0.1,0.3 -0.2,0.6 -0.2,0.8 0,0.1 -0.1,0.3 -0.1,0.4 -0.1,0.3 -0.1,0.7 -0.2,1.1 0,0.1 0,0.2 0,0.4 0,0.3 0,0.5 -0.1,0.8 0,0.1 0,0.3 0,0.4 0,0.1 0,0.1 0,0.2 l -0.1,152.3 -82.5,47.6 c -6.5,3.7 -8.7,12 -5,18.4 2.5,4.3 7,6.8 11.7,6.8 2.3,0 4.6,-0.6 6.7,-1.8 l 83.4,-48.1 129.9,75.1 c 0,0 0.1,0 0.1,0.1 0.5,0.3 1,0.5 1.5,0.7 l 0.1,0 c 0.5,0.2 0.9,0.3 1.4,0.5 0.1,0 0.3,0.1 0.4,0.1 0.4,0.1 0.8,0.2 1.2,0.2 0.1,0 0.3,0 0.4,0.1 0.5,0.1 1.1,0.1 1.6,0.1 l 0,0 c 0.5,0 1.1,0 1.6,-0.1 0.1,0 0.3,0 0.4,-0.1 0.4,-0.1 0.8,-0.1 1.2,-0.2 0.1,0 0.3,-0.1 0.4,-0.1 0.5,-0.1 1,-0.3 1.4,-0.5 l 0.1,0 c 0.5,-0.2 1,-0.5 1.5,-0.7 0,0 0.1,0 0.1,-0.1 l 131,-75.5 83.7,48.4 c 2.1,1.2 4.5,1.8 6.7,1.8 4.7,0 9.2,-2.4 11.7,-6.7 3.6,-6.8 1.4,-15.1 -5,-18.8 z m -248.4,15.5 -110.6,-64 0.1,-127.8 110.6,64 -0.1,127.8 z m 13.5,-151.2 -110.6,-64 110.7,-63.8 110.6,64 -110.7,63.8 z m 124.2,87.3 -110.7,63.8 0.1,-127.8 110.6,-63.8 0,127.8 z"
       id="path5"
       style="fill:#353a40;fill-opacity:1"
       inkscape:connector-curvature="0" /></g><g
     id="g7"
     transform="matrix(0.06642862,0,0,0.06642862,-2.212838e-5,1.076815)"
     style="fill:#353a40;fill-opacity:1" /><g
     id="g9"
     transform="matrix(0.06642862,0,0,0.06642862,-2.212838e-5,1.076815)"
     style="fill:#353a40;fill-opacity:1" /><g
     id="g11"
     transform="matrix(0.06642862,0,0,0.06642862,-2.212838e-5,1.076815)"
     style="fill:#353a40;fill-opacity:1" /><g
     id="g13"
     transform="matrix(0.06642862,0,0,0.06642862,-2.212838e-5,1.076815)"
     style="fill:#353a40;fill-opacity:1" /><g
     id="g15"
     transform="matrix(0.06642862,0,0,0.06642862,-2.212838e-5,1.076815)"
     style="fill:#353a40;fill-opacity:1" /><g
     id="g17"
     transform="matrix(0.06642862,0,0,0.06642862,-2.212838e-5,1.076815)"
     style="fill:#353a40;fill-opacity:1" /><g
     id="g19"
     transform="matrix(0.06642862,0,0,0.06642862,-2.212838e-5,1.076815)"
     style="fill:#353a40;fill-opacity:1" /><g
     id="g21"
     transform="matrix(0.06642862,0,0,0.06642862,-2.212838e-5,1.076815)"
     style="fill:#353a40;fill-opacity:1" /><g
     id="g23"
     transform="matrix(0.06642862,0,0,0.06642862,-2.212838e-5,1.076815)"
     style="fill:#353a40;fill-opacity:1" /><g
     id="g25"
     transform="matrix(0.06642862,0,0,0.06642862,-2.212838e-5,1.076815)"
     style="fill:#353a40;fill-opacity:1" /><g
     id="g27"
     transform="matrix(0.06642862,0,0,0.06642862,-2.212838e-5,1.076815)"
     style="fill:#353a40;fill-opacity:1" /><g
     id="g29"
     transform="matrix(0.06642862,0,0,0.06642862,-2.212838e-5,1.076815)"
     style="fill:#353a40;fill-opacity:1" /><g
     id="g31"
     transform="matrix(0.06642862,0,0,0.06642862,-2.212838e-5,1.076815)"
     style="fill:#353a40;fill-opacity:1" /><g
     id="g33"
     transform="matrix(0.06642862,0,0,0.06642862,-2.212838e-5,1.076815)"
     style="fill:#353a40;fill-opacity:1" /><g
     id="g35"
     transform="matrix(0.06642862,0,0,0.06642862,-2.212838e-5,1.076815)"
     style="fill:#353a40;fill-opacity:1" /><g
     id="g4278"
     transform="matrix(0,-0.06642862,-0.06642862,0,39.045515,26.435144)"
     style="fill:#353a40;fill-opacity:1" /></svg>
