<?xml version="1.0" encoding="UTF-8" standalone="no"?>
<!-- Generator: Adobe Illustrator 19.1.0, SVG Export Plug-In . SVG Version: 6.00 Build 0)  -->

<svg
   xmlns:dc="http://purl.org/dc/elements/1.1/"
   xmlns:cc="http://creativecommons.org/ns#"
   xmlns:rdf="http://www.w3.org/1999/02/22-rdf-syntax-ns#"
   xmlns:svg="http://www.w3.org/2000/svg"
   xmlns="http://www.w3.org/2000/svg"
   xmlns:sodipodi="http://sodipodi.sourceforge.net/DTD/sodipodi-0.dtd"
   xmlns:inkscape="http://www.inkscape.org/namespaces/inkscape"
   version="1.1"
   id="Capa_1"
   x="0px"
   y="0px"
   viewBox="0 0 481.72 481.72"
   style="enable-background:new 0 0 481.72 481.72;"
   xml:space="preserve"
   inkscape:version="0.91 r13725"
   sodipodi:docname="XYZ.svg"><metadata
     id="metadata41"><rdf:RDF><cc:Work
         rdf:about=""><dc:format>image/svg+xml</dc:format><dc:type
           rdf:resource="http://purl.org/dc/dcmitype/StillImage" /><dc:title /></cc:Work></rdf:RDF></metadata><defs
     id="defs39" /><sodipodi:namedview
     pagecolor="#ffffff"
     bordercolor="#666666"
     borderopacity="1"
     objecttolerance="10"
     gridtolerance="10"
     guidetolerance="10"
     inkscape:pageopacity="0"
     inkscape:pageshadow="2"
     inkscape:window-width="1293"
     inkscape:window-height="850"
     id="namedview37"
     showgrid="false"
     inkscape:zoom="2.3748235"
     inkscape:cx="158.14356"
     inkscape:cy="274.94357"
     inkscape:window-x="1346"
     inkscape:window-y="22"
     inkscape:window-maximized="0"
     inkscape:current-layer="Capa_1" /><g
     id="g3"
     style="fill:#41818f;fill-opacity:1"><path
       d="M474.993,412.91l-83.7-48.4l0.1-151.2c0-0.1,0-0.1,0-0.2c0-0.1,0-0.3,0-0.4c0-0.3,0-0.5-0.1-0.8c0-0.1,0-0.2,0-0.4   c0-0.4-0.1-0.7-0.2-1c0-0.1-0.1-0.3-0.1-0.4c-0.1-0.3-0.1-0.6-0.2-0.8c0-0.1-0.1-0.2-0.1-0.3c-0.1-0.4-0.3-0.7-0.4-1.1   c0-0.1-0.1-0.2-0.1-0.3c-0.2-0.4-0.3-0.7-0.5-1.1l0,0l0,0c-0.2-0.3-0.4-0.7-0.6-1c-0.1-0.1-0.1-0.2-0.2-0.3   c-0.2-0.3-0.5-0.6-0.7-0.9c-0.1-0.1-0.2-0.2-0.2-0.2c-0.2-0.2-0.4-0.4-0.6-0.6c-0.1-0.1-0.2-0.2-0.3-0.3c-0.3-0.2-0.5-0.5-0.8-0.7   c-0.1-0.1-0.2-0.2-0.3-0.2c-0.2-0.1-0.4-0.3-0.6-0.4c-0.1-0.1-0.3-0.2-0.4-0.2l-0.1-0.1l-131.5-76v-95.9c0-7.5-6-13.5-13.5-13.5   s-13.5,6-13.5,13.5v96.7l-130.4,75.2l-0.1,0.1c-0.1,0.1-0.3,0.2-0.4,0.2c-0.2,0.1-0.4,0.3-0.6,0.4c-0.1,0.1-0.2,0.2-0.3,0.2   c-0.3,0.2-0.5,0.4-0.8,0.7c-0.1,0.1-0.2,0.2-0.3,0.3c-0.2,0.2-0.4,0.4-0.6,0.6c-0.1,0.1-0.2,0.2-0.2,0.2c-0.2,0.3-0.5,0.6-0.7,0.9   c-0.1,0.1-0.1,0.2-0.2,0.3c-0.5,0.7-0.9,1.4-1.2,2.1c0,0.1-0.1,0.2-0.1,0.3c-0.2,0.3-0.3,0.7-0.4,1.1c0,0.1-0.1,0.2-0.1,0.3   c-0.1,0.3-0.2,0.6-0.2,0.8c0,0.1-0.1,0.3-0.1,0.4c-0.1,0.3-0.1,0.7-0.2,1.1c0,0.1,0,0.2,0,0.4c0,0.3,0,0.5-0.1,0.8   c0,0.1,0,0.3,0,0.4c0,0.1,0,0.1,0,0.2l-0.1,152.3l-82.5,47.6c-6.5,3.7-8.7,12-5,18.4c2.5,4.3,7,6.8,11.7,6.8c2.3,0,4.6-0.6,6.7-1.8   l83.4-48.1l129.9,75.1c0,0,0.1,0,0.1,0.1c0.5,0.3,1,0.5,1.5,0.7h0.1c0.5,0.2,0.9,0.3,1.4,0.5c0.1,0,0.3,0.1,0.4,0.1   c0.4,0.1,0.8,0.2,1.2,0.2c0.1,0,0.3,0,0.4,0.1c0.5,0.1,1.1,0.1,1.6,0.1l0,0c0.5,0,1.1,0,1.6-0.1c0.1,0,0.3,0,0.4-0.1   c0.4-0.1,0.8-0.1,1.2-0.2c0.1,0,0.3-0.1,0.4-0.1c0.5-0.1,1-0.3,1.4-0.5h0.1c0.5-0.2,1-0.5,1.5-0.7c0,0,0.1,0,0.1-0.1l131-75.5   l83.7,48.4c2.1,1.2,4.5,1.8,6.7,1.8c4.7,0,9.2-2.4,11.7-6.7C483.593,424.91,481.393,416.61,474.993,412.91z M226.593,428.41   l-110.6-64l0.1-127.8l110.6,64L226.593,428.41z M240.093,277.21l-110.6-64l110.7-63.8l110.6,64L240.093,277.21z M364.293,364.51   l-110.7,63.8l0.1-127.8l110.6-63.8V364.51z"
       id="path5"
       style="fill:#41818f;fill-opacity:1" /></g><g
     id="g7" /><g
     id="g9" /><g
     id="g11" /><g
     id="g13" /><g
     id="g15" /><g
     id="g17" /><g
     id="g19" /><g
     id="g21" /><g
     id="g23" /><g
     id="g25" /><g
     id="g27" /><g
     id="g29" /><g
     id="g31" /><g
     id="g33" /><g
     id="g35" /><g
     id="g4278"
     transform="matrix(0,-1,-1,0,587.7819,381.73801)" /></svg>