<?xml version="1.0" encoding="UTF-8" standalone="no"?>
<!-- Generator: Adobe Illustrator 19.0.0, SVG Export Plug-In . SVG Version: 6.00 Build 0)  -->

<svg
   xmlns:dc="http://purl.org/dc/elements/1.1/"
   xmlns:cc="http://creativecommons.org/ns#"
   xmlns:rdf="http://www.w3.org/1999/02/22-rdf-syntax-ns#"
   xmlns:svg="http://www.w3.org/2000/svg"
   xmlns="http://www.w3.org/2000/svg"
   xmlns:sodipodi="http://sodipodi.sourceforge.net/DTD/sodipodi-0.dtd"
   xmlns:inkscape="http://www.inkscape.org/namespaces/inkscape"
   version="1.1"
   id="Capa_1"
   x="0px"
   y="0px"
   viewBox="0 0 32 32"
   xml:space="preserve"
   sodipodi:docname="fast-forward32.svg"
   inkscape:version="0.91 r13725"
   width="32"
   height="32"><metadata
     id="metadata49"><rdf:RDF><cc:Work
         rdf:about=""><dc:format>image/svg+xml</dc:format><dc:type
           rdf:resource="http://purl.org/dc/dcmitype/StillImage" /><dc:title></dc:title></cc:Work></rdf:RDF></metadata><defs
     id="defs47" /><sodipodi:namedview
     pagecolor="#ffffff"
     bordercolor="#666666"
     borderopacity="1"
     objecttolerance="10"
     gridtolerance="10"
     guidetolerance="10"
     inkscape:pageopacity="0"
     inkscape:pageshadow="2"
     inkscape:window-width="1286"
     inkscape:window-height="670"
     id="namedview45"
     showgrid="false"
     inkscape:zoom="12.838534"
     inkscape:cx="17.329024"
     inkscape:cy="17.735493"
     inkscape:window-x="39"
     inkscape:window-y="34"
     inkscape:window-maximized="0"
     inkscape:current-layer="Capa_1" /><g
     id="g6"
     style="fill:#41818f"
     transform="matrix(0.07142857,0,0,0.07142857,0,-0.05621367)"><g
       id="g4"
       style="fill:#41818f"><path
         d="m 250.4,211.873 -224,-192 C 21.696,15.777 15.04,14.849 9.312,17.473 3.648,20.065 0,25.761 0,32.001 l 0,384 c 0,6.24 3.648,11.936 9.312,14.528 2.144,0.992 4.416,1.472 6.688,1.472 3.744,0 7.456,-1.312 10.4,-3.84 l 224,-192 c 3.584,-3.04 5.6,-7.488 5.6,-12.16 0,-4.672 -2.016,-9.12 -5.6,-12.128 z"
         id="path2"
         style="fill:#41818f"
         inkscape:connector-curvature="0" /></g></g><g
     id="g12"
     style="fill:#41818f"
     transform="matrix(0.07142857,0,0,0.07142857,0,-0.05621367)"><g
       id="g10"
       style="fill:#41818f"><path
         d="m 442.4,211.873 -224,-192 c -4.704,-4.096 -11.36,-5.024 -17.088,-2.4 C 195.648,20.065 192,25.761 192,32.001 l 0,87.648 79.2,67.872 c 10.688,9.12 16.8,22.4 16.8,36.48 0,14.08 -6.144,27.392 -16.832,36.512 l -79.168,67.84 0,87.648 c 0,6.24 3.648,11.936 9.312,14.528 2.144,0.992 4.416,1.472 6.688,1.472 3.744,0 7.456,-1.312 10.4,-3.84 l 224,-192 c 3.584,-3.04 5.6,-7.488 5.6,-12.16 0,-4.672 -2.016,-9.12 -5.6,-12.128 z"
         id="path8"
         style="fill:#41818f"
         inkscape:connector-curvature="0" /></g></g><g
     id="g14"
     transform="matrix(0.07142857,0,0,0.07142857,0,-0.05621367)" /><g
     id="g16"
     transform="matrix(0.07142857,0,0,0.07142857,0,-0.05621367)" /><g
     id="g18"
     transform="matrix(0.07142857,0,0,0.07142857,0,-0.05621367)" /><g
     id="g20"
     transform="matrix(0.07142857,0,0,0.07142857,0,-0.05621367)" /><g
     id="g22"
     transform="matrix(0.07142857,0,0,0.07142857,0,-0.05621367)" /><g
     id="g24"
     transform="matrix(0.07142857,0,0,0.07142857,0,-0.05621367)" /><g
     id="g26"
     transform="matrix(0.07142857,0,0,0.07142857,0,-0.05621367)" /><g
     id="g28"
     transform="matrix(0.07142857,0,0,0.07142857,0,-0.05621367)" /><g
     id="g30"
     transform="matrix(0.07142857,0,0,0.07142857,0,-0.05621367)" /><g
     id="g32"
     transform="matrix(0.07142857,0,0,0.07142857,0,-0.05621367)" /><g
     id="g34"
     transform="matrix(0.07142857,0,0,0.07142857,0,-0.05621367)" /><g
     id="g36"
     transform="matrix(0.07142857,0,0,0.07142857,0,-0.05621367)" /><g
     id="g38"
     transform="matrix(0.07142857,0,0,0.07142857,0,-0.05621367)" /><g
     id="g40"
     transform="matrix(0.07142857,0,0,0.07142857,0,-0.05621367)" /><g
     id="g42"
     transform="matrix(0.07142857,0,0,0.07142857,0,-0.05621367)" /></svg>
