<?xml version="1.0" encoding="UTF-8" standalone="no"?>
<svg
   viewBox="0 0 16 16"
   version="1.1"
   id="svg960"
   sodipodi:docname="new.svg"
   width="16"
   height="16"
   inkscape:version="1.2.2 (b0a8486, 2022-12-01)"
   xmlns:inkscape="http://www.inkscape.org/namespaces/inkscape"
   xmlns:sodipodi="http://sodipodi.sourceforge.net/DTD/sodipodi-0.dtd"
   xmlns="http://www.w3.org/2000/svg"
   xmlns:svg="http://www.w3.org/2000/svg">
  <defs
     id="defs964" />
  <sodipodi:namedview
     pagecolor="#ffffff"
     bordercolor="#666666"
     borderopacity="1"
     objecttolerance="10"
     gridtolerance="10"
     guidetolerance="10"
     inkscape:pageopacity="0"
     inkscape:pageshadow="2"
     inkscape:window-width="1436"
     inkscape:window-height="1051"
     id="namedview962"
     showgrid="false"
     height="16px"
     inkscape:zoom="7.16"
     inkscape:cx="47.695531"
     inkscape:cy="9.5670391"
     inkscape:window-x="61"
     inkscape:window-y="25"
     inkscape:window-maximized="0"
     inkscape:current-layer="svg960"
     inkscape:showpageshadow="2"
     inkscape:pagecheckerboard="0"
     inkscape:deskcolor="#d1d1d1" />
  <!-- Font Awesome Free 5.15.2 by @fontawesome - https://fontawesome.com License - https://fontawesome.com/license/free (Icons: CC BY 4.0, Fonts: SIL OFL 1.1, Code: MIT License) -->
  <path
     d="M 13.856485,3.061902 11.235266,0.44053896 C 10.954087,0.15934388 10.572932,0 10.176156,0 H 3.7996251 C 2.971707,0.00312439 2.3,0.6748682 2.3,1.5028315 V 14.500293 C 2.3,15.328256 2.971707,16 3.7996251,16 H 12.797376 C 13.625293,16 14.297,15.328256 14.297,14.500293 V 4.1241945 C 14.297,3.727397 14.137664,3.3430971 13.856485,3.061902 Z M 12.675531,4.0023433 H 10.298 V 1.6246827 Z M 3.7996251,14.500293 V 1.5028315 h 4.9987498 v 3.2493654 c 0,0.4155441 0.3342921,0.7498536 0.7498131,0.7498536 h 3.249188 v 8.9982425 z"
     id="path958"
     style="fill:#353a40;fill-opacity:1;stroke-width:0.0312431"
     sodipodi:nodetypes="ssscssssssscccccccssccc" />
  <g
     aria-label="G0"
     id="text5885"
     style="font-size:12.8724px;line-height:1.25;font-family:'Courier New';-inkscape-font-specification:'Courier New';fill:#353a40;stroke-width:0.32181"
     transform="matrix(0.49997917,0,0,0.5,0.3000833,0)">
    <path
       d="m 14.920801,22.709926 q -1.087366,0.798239 -2.407289,0.798239 -1.728472,0 -2.6209921,-1.169075 Q 9,21.163729 9,18.907288 q 0,-2.181017 0.8610931,-3.39409 0.8673789,-1.213073 2.6524189,-1.213073 0.641105,0 1.269641,0.163419 0.628535,0.163419 1.011941,0.43369 l -0.339409,0.81081 q -0.886234,-0.502828 -1.942173,-0.502828 -1.219359,0 -1.822752,0.89252 -0.597109,0.89252 -0.597109,2.809552 0,3.695787 2.419861,3.695787 0.911376,0 1.376492,-0.383407 v -2.187302 h -1.59648 v -0.89252 h 2.627277 z"
       style="font-weight:bold;font-family:monospace;-inkscape-font-specification:'monospace Bold'"
       id="path5937" />
    <path
       d="m 19.773093,14.300125 q 1.407918,0 2.162161,1.213073 0.760527,1.206788 0.760527,3.39409 0,2.118163 -0.735386,3.362663 -0.735386,1.238214 -2.187302,1.238214 -1.401634,0 -2.162161,-1.206787 -0.760528,-1.206788 -0.760528,-3.39409 0,-2.124449 0.735386,-3.362663 0.741672,-1.2445 2.187303,-1.2445 z m 0,8.30295 q 0.930232,0 1.376492,-0.879949 0.452545,-0.886235 0.452545,-2.815838 0,-1.935888 -0.452545,-2.809552 -0.44626,-0.879949 -1.376492,-0.879949 -0.917662,0 -1.370207,0.898805 -0.452545,0.898805 -0.452545,2.790696 0,1.917032 0.44626,2.809552 0.452545,0.886235 1.376492,0.886235 z m -0.02514,-4.63859 q 0.395977,0 0.666248,0.276556 0.276555,0.27027 0.276555,0.666247 0,0.408548 -0.276555,0.703959 -0.276556,0.289127 -0.666248,0.289127 -0.383406,0 -0.659962,-0.289127 -0.27027,-0.295411 -0.27027,-0.703959 0,-0.402263 0.263985,-0.672533 0.27027,-0.27027 0.666247,-0.27027 z"
       style="font-weight:bold;font-family:monospace;-inkscape-font-specification:'monospace Bold'"
       id="path5939" />
  </g>
</svg>
