<?xml version="1.0" encoding="UTF-8" standalone="no"?>
<svg
   xmlns:dc="http://purl.org/dc/elements/1.1/"
   xmlns:cc="http://creativecommons.org/ns#"
   xmlns:rdf="http://www.w3.org/1999/02/22-rdf-syntax-ns#"
   xmlns:svg="http://www.w3.org/2000/svg"
   xmlns="http://www.w3.org/2000/svg"
   xmlns:sodipodi="http://sodipodi.sourceforge.net/DTD/sodipodi-0.dtd"
   xmlns:inkscape="http://www.inkscape.org/namespaces/inkscape"
   height="32"
   viewBox="0 0 24 24"
   width="32"
   version="1.1"
   id="svg844"
   sodipodi:docname="translate32.svg"
   inkscape:version="1.0.1 (c497b03c, 2020-09-10)">
  <metadata
     id="metadata850">
    <rdf:RDF>
      <cc:Work
         rdf:about="">
        <dc:format>image/svg+xml</dc:format>
        <dc:type
           rdf:resource="http://purl.org/dc/dcmitype/StillImage" />
        <dc:title></dc:title>
      </cc:Work>
    </rdf:RDF>
  </metadata>
  <defs
     id="defs848" />
  <sodipodi:namedview
     pagecolor="#ffffff"
     bordercolor="#666666"
     borderopacity="1"
     objecttolerance="10"
     gridtolerance="10"
     guidetolerance="10"
     inkscape:pageopacity="0"
     inkscape:pageshadow="2"
     inkscape:window-width="1262"
     inkscape:window-height="690"
     id="namedview846"
     showgrid="false"
     units="px"
     inkscape:zoom="18.789793"
     inkscape:cx="7.1189881"
     inkscape:cy="6.380101"
     inkscape:window-x="0"
     inkscape:window-y="23"
     inkscape:window-maximized="0"
     inkscape:current-layer="svg844" />
  <path
     d="M 7.4062497,2.8125 C 7.4062497,1.2615966 8.6678464,0 10.21875,0 H 21.1875 C 22.738401,0 24,1.2615966 24,2.8125 v 10.968749 c 0,1.550904 -1.261599,2.8125 -2.8125,2.8125 h -4.5 v 1.875 h -1.875 v -1.875 h -4.59375 c -1.5509036,0 -2.8125003,-1.261596 -2.8125003,-2.8125 V 9.2812497 H 5.5781248 v -1.875 h 1.8281249 z m 1.8750002,10.968749 c 0,0.516907 0.4205933,0.9375 0.9375001,0.9375 H 21.1875 c 0.516905,0 0.9375,-0.420593 0.9375,-0.9375 V 2.8125 C 22.125,2.2955932 21.704405,1.875 21.1875,1.875 H 10.21875 c -0.5169068,0 -0.9375001,0.4205932 -0.9375001,0.9375 z M 1.875,20.25 H 0 v 1.875 C 0,23.16046 0.83953855,24 1.875,24 H 3.7031248 V 22.125 H 1.875 Z m 9.328125,1.875 H 9.3281248 V 24 h 1.8750002 z m -3.7500002,0 h -1.875 V 24 h 1.875 z M 0,9.2812497 V 11.15625 H 1.875 V 9.2812497 h 1.8281248 v -1.875 H 1.875 c -1.03546145,0 -1.875,0.8395388 -1.875,1.875 z M 1.875,12.9375 H 0 v 1.875 h 1.875 z m 0,3.656249 H 0 v 1.875 H 1.875 Z M 14.8125,22.125 H 12.984375 V 24 H 14.8125 c 1.035461,0 1.875,-0.83954 1.875,-1.875 V 20.25 h -1.875 z M 13.078125,7.2187497 h -1.875 V 12.84375 h 5.624999 v -1.875 h -2.424132 l 3.344969,-3.3449712 -1.325866,-1.3256836 -3.34497,3.3447876 z m 0,0"
     id="path842"
     style="fill:#41818f;fill-opacity:1;stroke-width:0.0468749" />
</svg>
