<?xml version="1.0" encoding="UTF-8" standalone="no"?>
<!-- Generator: Adobe Illustrator 16.0.0, SVG Export Plug-In . SVG Version: 6.00 Build 0)  -->

<svg
   version="1.1"
   id="Capa_1"
   x="0px"
   y="0px"
   width="16"
   height="16"
   viewBox="0 0 16 16"
   xml:space="preserve"
   sodipodi:docname="add.svg"
   inkscape:version="1.2.2 (b0a8486541, 2022-12-01)"
   xmlns:inkscape="http://www.inkscape.org/namespaces/inkscape"
   xmlns:sodipodi="http://sodipodi.sourceforge.net/DTD/sodipodi-0.dtd"
   xmlns="http://www.w3.org/2000/svg"
   xmlns:svg="http://www.w3.org/2000/svg"><defs
   id="defs39">
	
</defs><sodipodi:namedview
   id="namedview37"
   pagecolor="#ffffff"
   bordercolor="#666666"
   borderopacity="1.0"
   inkscape:showpageshadow="2"
   inkscape:pageopacity="0.0"
   inkscape:pagecheckerboard="0"
   inkscape:deskcolor="#d1d1d1"
   showgrid="false"
   inkscape:zoom="40.876233"
   inkscape:cx="9.7000132"
   inkscape:cy="9.125107"
   inkscape:window-width="2014"
   inkscape:window-height="1229"
   inkscape:window-x="1581"
   inkscape:window-y="91"
   inkscape:window-maximized="0"
   inkscape:current-layer="Capa_1" />
<path
   d="M 15.681865,6.1364248 C 15.469682,5.9242818 15.211966,5.8182501 14.909035,5.8182501 H 10.181709 V 1.0908046 c 0,-0.30293067 -0.106111,-0.56056699 -0.3181746,-0.77270999 C 9.6514312,0.10611082 9.3939939,-4.8009916e-7 9.0906255,-4.8009916e-7 H 6.9090153 C 6.6060449,-4.8009916e-7 6.3484484,0.10599142 6.1363054,0.31813441 5.9241624,0.53027741 5.8181307,0.78791374 5.8181307,1.0908444 V 5.8182899 H 1.0908444 c -0.30293066,0 -0.56056699,0.1060317 -0.77270999,0.3181747 C 0.10599142,6.3486076 -4.8009916e-7,6.6060051 -4.8009916e-7,6.9091347 V 9.0910235 C -4.8009916e-7,9.3942327 0.10595161,9.65167 0.31809461,9.863614 c 0.212143,0.212223 0.46977932,0.318175 0.77270999,0.318175 h 4.7272863 v 4.727525 c 0,0.30293 0.1060317,0.560766 0.3181747,0.772829 0.212143,0.211944 0.4697395,0.317896 0.7727099,0.317896 h 2.1817694 c 0.3031694,0 0.5606465,-0.105952 0.7728293,-0.317896 0.2122228,-0.212183 0.3181748,-0.469899 0.3181748,-0.772829 v -4.727525 h 4.727246 c 0.30321,0 0.560766,-0.105952 0.77283,-0.318175 0.212103,-0.211944 0.318174,-0.4693813 0.318174,-0.7725905 V 6.9091347 C 15.99992,6.6060051 15.894087,6.3484484 15.681865,6.1364248 Z"
   style="fill:#353a40;fill-opacity:1;fill-rule:evenodd;stroke:#353a40;stroke-width:0pt;stroke-opacity:1"
   id="path2" />
<g
   id="g6">
</g>
<g
   id="g8">
</g>
<g
   id="g10">
</g>
<g
   id="g12">
</g>
<g
   id="g14">
</g>
<g
   id="g16">
</g>
<g
   id="g18">
</g>
<g
   id="g20">
</g>
<g
   id="g22">
</g>
<g
   id="g24">
</g>
<g
   id="g26">
</g>
<g
   id="g28">
</g>
<g
   id="g30">
</g>
<g
   id="g32">
</g>
<g
   id="g34">
</g>
</svg>
