<?xml version="1.0" encoding="UTF-8" standalone="no"?>
<svg
   viewBox="0 0 16 16"
   version="1.1"
   id="svg832"
   sodipodi:docname="clear-selection.svg"
   width="16"
   height="16"
   inkscape:version="1.1-dev (0486c1a, 2020-10-10)"
   xmlns:inkscape="http://www.inkscape.org/namespaces/inkscape"
   xmlns:sodipodi="http://sodipodi.sourceforge.net/DTD/sodipodi-0.dtd"
   xmlns="http://www.w3.org/2000/svg"
   xmlns:svg="http://www.w3.org/2000/svg">
  <defs
     id="defs836" />
  <sodipodi:namedview
     pagecolor="#ffffff"
     bordercolor="#666666"
     borderopacity="1"
     objecttolerance="10"
     gridtolerance="10"
     guidetolerance="10"
     inkscape:pageopacity="0"
     inkscape:pageshadow="2"
     inkscape:window-width="1460"
     inkscape:window-height="1053"
     id="namedview834"
     showgrid="false"
     width="16px"
     inkscape:zoom="21.375727"
     inkscape:cx="9.0757148"
     inkscape:cy="10.502567"
     inkscape:window-x="244"
     inkscape:window-y="23"
     inkscape:window-maximized="0"
     inkscape:current-layer="svg832" />
  <!-- Font Awesome Free 5.15.2 by @fontawesome - https://fontawesome.com License - https://fontawesome.com/license/free (Icons: CC BY 4.0, Fonts: SIL OFL 1.1, Code: MIT License) -->
  <path
     d="M 6.411742,6.9630232 8.5799895,9.69252 c 0,0 -0.4149995,2.558997 -1.9142478,3.752995 C 5.1664937,14.640014 0,14.298514 0,14.298514 c 0,0 0.09499988,-0.578499 0.27499967,-1.385748 L 2.6404968,10.108519 C 2.7397468,9.99102 2.6187468,9.81802 2.474247,9.871019 l -1.50999818,0.55225 C 1.3252484,9.38177 1.7822478,8.422271 2.3292471,7.986522 3.8284953,6.7925233 6.411742,6.9630232 6.411742,6.9630232 Z M 15.91323,2.319529 15.416731,1.6945304 c -0.13725,-0.1724997 -0.388,-0.2012496 -0.560249,-0.064 L 9.0444888,6.0755242 8.1909898,5.0012756 C 8.0637401,4.8410257 7.8124904,4.8710257 7.7262405,5.0565254 L 7.0929912,6.4202739 9.2612387,9.14977 10.731237,8.838521 c 0.2,-0.04225 0.285499,-0.28 0.158499,-0.44 L 10.037488,7.3255228 15.849481,2.8805282 C 16.02173,2.7435283 16.05048,2.4922787 15.91323,2.319529 Z"
     id="path830"
     style="fill:#353a40;fill-opacity:1;stroke-width:0.999995" />
</svg>
