<?xml version="1.0" encoding="UTF-8" standalone="no"?>
<!-- Generator: Adobe Illustrator 16.0.0, SVG Export Plug-In . SVG Version: 6.00 Build 0)  -->

<svg
   version="1.1"
   id="Capa_1"
   x="0px"
   y="0px"
   width="16"
   height="16"
   viewBox="0 0 16 16"
   xml:space="preserve"
   sodipodi:docname="remove.svg"
   inkscape:version="1.2.2 (b0a8486541, 2022-12-01)"
   xmlns:inkscape="http://www.inkscape.org/namespaces/inkscape"
   xmlns:sodipodi="http://sodipodi.sourceforge.net/DTD/sodipodi-0.dtd"
   xmlns="http://www.w3.org/2000/svg"
   xmlns:svg="http://www.w3.org/2000/svg"><defs
   id="defs3599">
	
</defs><sodipodi:namedview
   id="namedview3597"
   pagecolor="#ffffff"
   bordercolor="#666666"
   borderopacity="1.0"
   inkscape:showpageshadow="2"
   inkscape:pageopacity="0.0"
   inkscape:pagecheckerboard="0"
   inkscape:deskcolor="#d1d1d1"
   showgrid="false"
   inkscape:zoom="3.0279176"
   inkscape:cx="169.91876"
   inkscape:cy="169.91876"
   inkscape:window-width="1452"
   inkscape:window-height="1230"
   inkscape:window-x="218"
   inkscape:window-y="125"
   inkscape:window-maximized="0"
   inkscape:current-layer="Capa_1" />
<path
   d="m 11.663244,8.0000708 3.959608,-3.9596081 c 0.251526,-0.2512907 0.377101,-0.5565472 0.377101,-0.9158169 0,-0.3591753 -0.125905,-0.6643846 -0.377101,-0.9158168 L 13.791265,0.37705387 C 13.53988,0.12571607 13.234671,0 12.87559,0 12.516273,0 12.211158,0.12571607 11.959632,0.37705387 L 8.0000708,4.336662 4.0404155,0.37705387 C 3.789172,0.12571607 3.4839155,0 3.1245987,0 2.7655649,0 2.4602612,0.12571607 2.2087818,0.37705387 L 0.37710104,2.208829 C 0.12581042,2.4600725 0,2.7654705 0,3.1246458 0,3.4839155 0.1256689,3.7890305 0.37710104,4.0404627 L 4.336662,8.0000708 0.37710104,11.959679 C 0.12581042,12.211158 0,12.516273 0,12.875637 c 0,0.358987 0.1256689,0.664291 0.37710104,0.915628 L 2.208829,15.622899 C 2.4602612,15.874425 2.7656121,16 3.1246458,16 3.4839155,16 3.7890305,15.874095 4.0404627,15.622899 l 3.9596552,-3.959608 3.9598911,3.959608 C 12.211347,15.874425 12.51632,16 12.875967,16 c 0.359034,0 0.664291,-0.125905 0.915676,-0.377101 l 1.831256,-1.831634 C 15.874425,13.540116 16,13.234624 16,12.875637 16,12.516273 15.874425,12.211158 15.622899,11.959679 Z"
   style="fill:#afb1b3;fill-opacity:1;fill-rule:evenodd;stroke:#afb1b3;stroke-width:0pt;stroke-opacity:1"
   id="path3562" />
<g
   id="g3566">
</g>
<g
   id="g3568">
</g>
<g
   id="g3570">
</g>
<g
   id="g3572">
</g>
<g
   id="g3574">
</g>
<g
   id="g3576">
</g>
<g
   id="g3578">
</g>
<g
   id="g3580">
</g>
<g
   id="g3582">
</g>
<g
   id="g3584">
</g>
<g
   id="g3586">
</g>
<g
   id="g3588">
</g>
<g
   id="g3590">
</g>
<g
   id="g3592">
</g>
<g
   id="g3594">
</g>
</svg>
