<?xml version="1.0" encoding="UTF-8" standalone="no"?>
<!-- Generator: Adobe Illustrator 19.0.0, SVG Export Plug-In . SVG Version: 6.00 Build 0)  -->

<svg
   xmlns:dc="http://purl.org/dc/elements/1.1/"
   xmlns:cc="http://creativecommons.org/ns#"
   xmlns:rdf="http://www.w3.org/1999/02/22-rdf-syntax-ns#"
   xmlns:svg="http://www.w3.org/2000/svg"
   xmlns="http://www.w3.org/2000/svg"
   xmlns:sodipodi="http://sodipodi.sourceforge.net/DTD/sodipodi-0.dtd"
   xmlns:inkscape="http://www.inkscape.org/namespaces/inkscape"
   version="1.1"
   id="Layer_1"
   x="0px"
   y="0px"
   viewBox="0 0 426.667 426.667"
   style="enable-background:new 0 0 426.667 426.667;"
   xml:space="preserve"
   inkscape:version="0.91 r13725"
   sodipodi:docname="information.svg"
   inkscape:export-filename="/Users/zefal/Development/Universal-G-Code-Sender/ugs-platform/ugs-platform-plugin-setup-wizard/src/main/resources/icons/information32.png"
   inkscape:export-xdpi="6.7499948"
   inkscape:export-ydpi="6.7499948"><metadata
     id="metadata43"><rdf:RDF><cc:Work
         rdf:about=""><dc:format>image/svg+xml</dc:format><dc:type
           rdf:resource="http://purl.org/dc/dcmitype/StillImage" /></cc:Work></rdf:RDF></metadata><defs
     id="defs41" /><sodipodi:namedview
     pagecolor="#ffffff"
     bordercolor="#666666"
     borderopacity="1"
     objecttolerance="10"
     gridtolerance="10"
     guidetolerance="10"
     inkscape:pageopacity="0"
     inkscape:pageshadow="2"
     inkscape:window-width="928"
     inkscape:window-height="634"
     id="namedview39"
     showgrid="false"
     inkscape:zoom="0.55312458"
     inkscape:cx="213.3335"
     inkscape:cy="213.3335"
     inkscape:window-x="0"
     inkscape:window-y="0"
     inkscape:window-maximized="0"
     inkscape:current-layer="Layer_1" /><g
     id="g3"
     style="fill:#2f5d67;fill-opacity:1"><path
       style="fill:#2f5d67;fill-opacity:1"
       d="M213.338,0C95.509,0,0,95.497,0,213.325c0,117.854,95.509,213.342,213.338,213.342   c117.82,0,213.329-95.488,213.329-213.342C426.667,95.497,331.157,0,213.338,0z M213.333,99.49   c14.793,0,26.786,11.994,26.786,26.786s-11.998,26.782-26.786,26.782s-26.786-11.994-26.786-26.782   C186.547,111.484,198.541,99.49,213.333,99.49z M260.207,327.181H166.46v-40.183h20.087v-80.358H166.46V166.46h73.664v40.179   v80.358h20.087v40.183H260.207z"
       id="path5" /><polygon
       style="fill:#2f5d67;fill-opacity:1"
       points="325.935,394.449 419.55,419.529 394.466,325.918  "
       id="polygon7" /></g><g
     id="g9" /><g
     id="g11" /><g
     id="g13" /><g
     id="g15" /><g
     id="g17" /><g
     id="g19" /><g
     id="g21" /><g
     id="g23" /><g
     id="g25" /><g
     id="g27" /><g
     id="g29" /><g
     id="g31" /><g
     id="g33" /><g
     id="g35" /><g
     id="g37" /></svg>
