<?xml version="1.0" encoding="UTF-8" standalone="no"?>
<!-- Generator: Adobe Illustrator 19.0.0, SVG Export Plug-In . SVG Version: 6.00 Build 0)  -->

<svg
   xmlns:dc="http://purl.org/dc/elements/1.1/"
   xmlns:cc="http://creativecommons.org/ns#"
   xmlns:rdf="http://www.w3.org/1999/02/22-rdf-syntax-ns#"
   xmlns:svg="http://www.w3.org/2000/svg"
   xmlns="http://www.w3.org/2000/svg"
   xmlns:sodipodi="http://sodipodi.sourceforge.net/DTD/sodipodi-0.dtd"
   xmlns:inkscape="http://www.inkscape.org/namespaces/inkscape"
   version="1.1"
   id="Layer_1"
   x="0px"
   y="0px"
   viewBox="0 0 32 32"
   xml:space="preserve"
   inkscape:version="0.91 r13725"
   sodipodi:docname="wizard32.svg"
   inkscape:export-filename="/Users/zefal/Development/Universal-G-Code-Sender/ugs-platform/ugs-platform-plugin-setup-wizard/src/main/resources/icons/wizard32.png"
   inkscape:export-xdpi="5.625"
   inkscape:export-ydpi="5.625"
   width="32"
   height="32"><metadata
     id="metadata79"><rdf:RDF><cc:Work
         rdf:about=""><dc:format>image/svg+xml</dc:format><dc:type
           rdf:resource="http://purl.org/dc/dcmitype/StillImage" /><dc:title></dc:title></cc:Work></rdf:RDF></metadata><defs
     id="defs77" /><sodipodi:namedview
     pagecolor="#ffffff"
     bordercolor="#666666"
     borderopacity="1"
     objecttolerance="10"
     gridtolerance="10"
     guidetolerance="10"
     inkscape:pageopacity="0"
     inkscape:pageshadow="2"
     inkscape:window-width="1132"
     inkscape:window-height="784"
     id="namedview75"
     showgrid="false"
     inkscape:zoom="4.5028976"
     inkscape:cx="-16.44738"
     inkscape:cy="7.2712676"
     inkscape:window-x="0"
     inkscape:window-y="1"
     inkscape:window-maximized="0"
     inkscape:current-layer="Layer_1" /><g
     id="g3"
     style="fill:#0ac9f1;fill-opacity:1"
     transform="matrix(0.06250004,0,0,0.06250004,0.90796871,-4.9085902e-4)"><g
       id="g5"
       style="fill:#0ac9f1;fill-opacity:1"><path
         d="M 253.384,210.066 9.988,453.462 c -12.026,12.026 -12.026,31.526 0,43.553 l 5.965,5.965 c 12.026,12.026 31.526,12.026 43.553,0 L 302.902,259.584 253.384,210.066 Z"
         id="path7"
         style="fill:#0ac9f1;fill-opacity:1"
         inkscape:connector-curvature="0" /></g></g><g
     id="g9"
     style="fill:#0ac9f1;fill-opacity:1"
     transform="matrix(0.06250004,0,0,0.06250004,0.90796871,-4.9085902e-4)"><g
       id="g11"
       style="fill:#0ac9f1;fill-opacity:1"><path
         d="m 365.869,153.064 -5.965,-5.965 c -12.026,-12.026 -31.526,-12.026 -43.553,0 l -47.086,47.086 49.518,49.518 47.086,-47.086 c 12.026,-12.027 12.026,-31.527 0,-43.553 z"
         id="path13"
         style="fill:#0ac9f1;fill-opacity:1"
         inkscape:connector-curvature="0" /></g></g><g
     id="g15"
     style="fill:#0ac9f1;fill-opacity:1"
     transform="matrix(0.06250004,0,0,0.06250004,0.90796871,-4.9085902e-4)"><g
       id="g17"
       style="fill:#0ac9f1;fill-opacity:1"><path
         d="m 470.341,40.691 c -8.769,-8.77 -22.991,-8.77 -31.762,0 l -34.767,34.767 c -8.771,8.77 -8.771,22.991 0,31.762 4.385,4.385 10.133,6.579 15.882,6.579 5.748,0 11.496,-2.193 15.88,-6.579 l 34.767,-34.767 c 8.771,-8.77 8.771,-22.991 0,-31.762 z"
         id="path19"
         style="fill:#0ac9f1;fill-opacity:1"
         inkscape:connector-curvature="0" /></g></g><g
     id="g21"
     style="fill:#0ac9f1;fill-opacity:1"
     transform="matrix(0.06250004,0,0,0.06250004,0.90796871,-4.9085902e-4)"><g
       id="g23"
       style="fill:#0ac9f1;fill-opacity:1"><path
         d="M 365.779,77.766 356.532,18.973 C 354.605,6.719 343.108,-1.658 330.857,0.278 318.603,2.205 310.234,13.701 312.161,25.953 l 9.247,58.793 c 1.741,11.072 11.292,18.972 22.158,18.972 1.159,0 2.336,-0.09 3.517,-0.277 12.254,-1.927 20.623,-13.423 18.696,-25.675 z"
         id="path25"
         style="fill:#0ac9f1;fill-opacity:1"
         inkscape:connector-curvature="0" /></g></g><g
     id="g27"
     style="fill:#0ac9f1;fill-opacity:1"
     transform="matrix(0.06250004,0,0,0.06250004,0.90796871,-4.9085902e-4)"><g
       id="g29"
       style="fill:#0ac9f1;fill-opacity:1"><path
         d="m 492.059,154.501 -58.792,-9.249 c -12.26,-1.951 -23.75,6.444 -25.677,18.695 -1.927,12.254 6.443,23.748 18.696,25.675 l 58.792,9.249 c 1.183,0.187 2.358,0.277 3.519,0.277 10.864,0 20.417,-7.901 22.158,-18.972 1.927,-12.252 -6.442,-23.748 -18.696,-25.675 z"
         id="path31"
         style="fill:#0ac9f1;fill-opacity:1"
         inkscape:connector-curvature="0" /></g></g><g
     id="g33"
     style="fill:#0ac9f1;fill-opacity:1"
     transform="matrix(0.06250004,0,0,0.06250004,0.90796871,-4.9085902e-4)"><g
       id="g35"
       style="fill:#0ac9f1;fill-opacity:1"><path
         d="M 278.566,95.645 240.435,57.514 c -8.769,-8.769 -22.991,-8.769 -31.762,0 -8.771,8.77 -8.771,22.991 0,31.762 l 38.132,38.131 c 4.385,4.385 10.134,6.579 15.88,6.579 5.746,0 11.496,-2.193 15.88,-6.579 8.772,-8.77 8.772,-22.991 10e-4,-31.762 z"
         id="path37"
         style="fill:#0ac9f1;fill-opacity:1"
         inkscape:connector-curvature="0" /></g></g><g
     id="g39"
     style="fill:#0ac9f1;fill-opacity:1"
     transform="matrix(0.06250004,0,0,0.06250004,0.90796871,-4.9085902e-4)"><g
       id="g41"
       style="fill:#0ac9f1;fill-opacity:1"><path
         d="m 453.518,270.596 -38.129,-38.131 c -8.769,-8.77 -22.991,-8.77 -31.762,0 -8.771,8.769 -8.771,22.991 0,31.762 l 38.131,38.131 c 4.385,4.385 10.134,6.579 15.88,6.579 5.747,0 11.496,-2.194 15.88,-6.579 8.771,-8.769 8.771,-22.991 0,-31.762 z"
         id="path43"
         style="fill:#0ac9f1;fill-opacity:1"
         inkscape:connector-curvature="0" /></g></g><g
     id="g45"
     transform="matrix(0.06250004,0,0,0.06250004,0.90796871,-4.9085902e-4)" /><g
     id="g47"
     transform="matrix(0.06250004,0,0,0.06250004,0.90796871,-4.9085902e-4)" /><g
     id="g49"
     transform="matrix(0.06250004,0,0,0.06250004,0.90796871,-4.9085902e-4)" /><g
     id="g51"
     transform="matrix(0.06250004,0,0,0.06250004,0.90796871,-4.9085902e-4)" /><g
     id="g53"
     transform="matrix(0.06250004,0,0,0.06250004,0.90796871,-4.9085902e-4)" /><g
     id="g55"
     transform="matrix(0.06250004,0,0,0.06250004,0.90796871,-4.9085902e-4)" /><g
     id="g57"
     transform="matrix(0.06250004,0,0,0.06250004,0.90796871,-4.9085902e-4)" /><g
     id="g59"
     transform="matrix(0.06250004,0,0,0.06250004,0.90796871,-4.9085902e-4)" /><g
     id="g61"
     transform="matrix(0.06250004,0,0,0.06250004,0.90796871,-4.9085902e-4)" /><g
     id="g63"
     transform="matrix(0.06250004,0,0,0.06250004,0.90796871,-4.9085902e-4)" /><g
     id="g65"
     transform="matrix(0.06250004,0,0,0.06250004,0.90796871,-4.9085902e-4)" /><g
     id="g67"
     transform="matrix(0.06250004,0,0,0.06250004,0.90796871,-4.9085902e-4)" /><g
     id="g69"
     transform="matrix(0.06250004,0,0,0.06250004,0.90796871,-4.9085902e-4)" /><g
     id="g71"
     transform="matrix(0.06250004,0,0,0.06250004,0.90796871,-4.9085902e-4)" /><g
     id="g73"
     transform="matrix(0.06250004,0,0,0.06250004,0.90796871,-4.9085902e-4)" /></svg>
