<?xml version="1.0" encoding="UTF-8" standalone="no"?>
<svg
   viewBox="0 0 24 24"
   version="1.1"
   id="svg6519"
   sodipodi:docname="alignmiddle24.svg"
   width="24"
   height="24"
   inkscape:version="1.2.2 (b0a8486541, 2022-12-01)"
   xmlns:inkscape="http://www.inkscape.org/namespaces/inkscape"
   xmlns:sodipodi="http://sodipodi.sourceforge.net/DTD/sodipodi-0.dtd"
   xmlns="http://www.w3.org/2000/svg"
   xmlns:svg="http://www.w3.org/2000/svg">
  <defs
     id="defs6523" />
  <sodipodi:namedview
     id="namedview6521"
     pagecolor="#ffffff"
     bordercolor="#666666"
     borderopacity="1.0"
     inkscape:showpageshadow="2"
     inkscape:pageopacity="0.0"
     inkscape:pagecheckerboard="0"
     inkscape:deskcolor="#d1d1d1"
     showgrid="false"
     inkscape:zoom="2.0058594"
     inkscape:cx="90.734176"
     inkscape:cy="256.49854"
     inkscape:window-width="1452"
     inkscape:window-height="1230"
     inkscape:window-x="927"
     inkscape:window-y="93"
     inkscape:window-maximized="0"
     inkscape:current-layer="svg6519" />
  <!--!Font Awesome Free 6.6.0 by @fontawesome - https://fontawesome.com License - https://fontawesome.com/license/free Copyright 2024 Fonticons, Inc.-->
  <path
     d="m 21,18 c 0.829687,0 1.5,-0.670313 1.5,-1.5 v -9 C 22.5,6.6703125 21.829687,6 21,6 20.170313,6 19.5,6.6703125 19.5,7.5 v 9 c 0,0.829687 0.670313,1.5 1.5,1.5 z m -6,4.5 c 0.829687,0 1.5,-0.670313 1.5,-1.5 V 3 C 16.5,2.1703125 15.829687,1.5 15,1.5 14.170313,1.5 13.5,2.1703125 13.5,3 v 18 c 0,0.829687 0.670313,1.5 1.5,1.5 z M 3,1.5 C 2.1703125,1.5 1.5,2.1703125 1.5,3 v 18 c 0,0.829687 0.6703125,1.5 1.5,1.5 0.8296875,0 1.5,-0.670313 1.5,-1.5 V 3 C 4.5,2.1703125 3.8296875,1.5 3,1.5 Z M 9,18 c 0.8296875,0 1.5,-0.670313 1.5,-1.5 v -9 C 10.5,6.6703125 9.8296875,6 9,6 8.1703125,6 7.5,6.6703125 7.5,7.5 v 9 C 7.5,17.329687 8.1703125,18 9,18 Z"
     id="path6517"
     style="fill:#afb1b3;fill-opacity:1;stroke-width:0.046875" />
  <rect
     style="opacity:0;fill:#afb1b3;fill-opacity:1;stroke-width:0.428173;stroke-linecap:round;stroke-linejoin:round"
     id="rect7731"
     width="24"
     height="24"
     x="0"
     y="-24"
     transform="rotate(90)" />
</svg>
