<?xml version="1.0" encoding="UTF-8" standalone="no"?>
<svg
   viewBox="0 0 16 16"
   version="1.1"
   id="svg252"
   sodipodi:docname="alignleft.svg"
   inkscape:version="1.2.2 (b0a8486541, 2022-12-01)"
   width="16"
   height="16"
   xmlns:inkscape="http://www.inkscape.org/namespaces/inkscape"
   xmlns:sodipodi="http://sodipodi.sourceforge.net/DTD/sodipodi-0.dtd"
   xmlns="http://www.w3.org/2000/svg"
   xmlns:svg="http://www.w3.org/2000/svg">
  <defs
     id="defs256" />
  <sodipodi:namedview
     id="namedview254"
     pagecolor="#ffffff"
     bordercolor="#666666"
     borderopacity="1.0"
     inkscape:showpageshadow="2"
     inkscape:pageopacity="0.0"
     inkscape:pagecheckerboard="0"
     inkscape:deskcolor="#d1d1d1"
     showgrid="false"
     inkscape:zoom="11.346854"
     inkscape:cx="18.022616"
     inkscape:cy="41.112717"
     inkscape:window-width="2077"
     inkscape:window-height="1230"
     inkscape:window-x="2371"
     inkscape:window-y="98"
     inkscape:window-maximized="0"
     inkscape:current-layer="svg252" />
  <!--!Font Awesome Free 6.6.0 by @fontawesome - https://fontawesome.com License - https://fontawesome.com/license/free Copyright 2024 Fonticons, Inc.-->
  <path
     d="M 1,2 C 1,2.553125 1.446875,3 2,3 H 9 C 9.553125,3 10,2.553125 10,2 10,1.446875 9.553125,1 9,1 H 2 C 1.446875,1 1,1.446875 1,2 Z m 0,8 c 0,0.553125 0.446875,1 1,1 h 7 c 0.553125,0 1,-0.446875 1,-1 C 10,9.446875 9.553125,9 9,9 H 2 C 1.446875,9 1,9.446875 1,10 Z M 15,6 C 15,5.446875 14.553125,5 14,5 H 2 C 1.446875,5 1,5.446875 1,6 1,6.553125 1.446875,7 2,7 h 12 c 0.553125,0 1,-0.446875 1,-1 z M 1,14 c 0,0.553125 0.446875,1 1,1 h 12 c 0.553125,0 1,-0.446875 1,-1 0,-0.553125 -0.446875,-1 -1,-1 H 2 c -0.553125,0 -1,0.446875 -1,1 z"
     id="path250"
     style="fill:#353a40;fill-opacity:1;stroke-width:0.03125" />
  <rect
     style="fill:#353a40;fill-opacity:0;stroke-width:0.348238;stroke-linecap:round;stroke-linejoin:round"
     id="rect1711"
     width="16"
     height="16"
     x="0"
     y="0" />
</svg>
