<?xml version="1.0" encoding="UTF-8" standalone="no"?>
<svg
   viewBox="0 0 24 24"
   version="1.1"
   id="svg252"
   sodipodi:docname="aligntop24.svg"
   inkscape:version="1.2.2 (b0a8486541, 2022-12-01)"
   width="24"
   height="24"
   xmlns:inkscape="http://www.inkscape.org/namespaces/inkscape"
   xmlns:sodipodi="http://sodipodi.sourceforge.net/DTD/sodipodi-0.dtd"
   xmlns="http://www.w3.org/2000/svg"
   xmlns:svg="http://www.w3.org/2000/svg">
  <defs
     id="defs256" />
  <sodipodi:namedview
     id="namedview254"
     pagecolor="#ffffff"
     bordercolor="#666666"
     borderopacity="1.0"
     inkscape:showpageshadow="2"
     inkscape:pageopacity="0.0"
     inkscape:pagecheckerboard="0"
     inkscape:deskcolor="#d1d1d1"
     showgrid="false"
     inkscape:zoom="11.346854"
     inkscape:cx="4.8912236"
     inkscape:cy="41.200847"
     inkscape:window-width="2077"
     inkscape:window-height="1230"
     inkscape:window-x="2371"
     inkscape:window-y="98"
     inkscape:window-maximized="0"
     inkscape:current-layer="svg252" />
  <!--!Font Awesome Free 6.6.0 by @fontawesome - https://fontawesome.com License - https://fontawesome.com/license/free Copyright 2024 Fonticons, Inc.-->
  <path
     d="m 21,1.5 c -0.829687,0 -1.5,0.6703125 -1.5,1.5 v 10.5 c 0,0.829687 0.670313,1.5 1.5,1.5 0.829687,0 1.5,-0.670313 1.5,-1.5 V 3 C 22.5,2.1703125 21.829687,1.5 21,1.5 Z M 9,1.5 C 8.1703125,1.5 7.5,2.1703125 7.5,3 v 10.5 c 0,0.829687 0.6703125,1.5 1.5,1.5 0.8296875,0 1.5,-0.670313 1.5,-1.5 V 3 C 10.5,2.1703125 9.8296875,1.5 9,1.5 Z m 6,21 c 0.829687,0 1.5,-0.670313 1.5,-1.5 V 3 C 16.5,2.1703125 15.829687,1.5 15,1.5 14.170313,1.5 13.5,2.1703125 13.5,3 v 18 c 0,0.829687 0.670313,1.5 1.5,1.5 z M 3,1.5 C 2.1703125,1.5 1.5,2.1703125 1.5,3 v 18 c 0,0.829687 0.6703125,1.5 1.5,1.5 0.8296875,0 1.5,-0.670313 1.5,-1.5 V 3 C 4.5,2.1703125 3.8296875,1.5 3,1.5 Z"
     id="path250"
     style="fill:#afb1b3;fill-opacity:1;stroke-width:0.046875" />
  <rect
     style="fill:#afb1b3;fill-opacity:0;stroke-width:0.522357;stroke-linecap:round;stroke-linejoin:round"
     id="rect1711"
     width="24"
     height="24"
     x="0"
     y="0" />
</svg>
