<?xml version="1.0" encoding="UTF-8" standalone="no"?>
<svg
   viewBox="0 0 16 16"
   version="1.1"
   id="svg252"
   sodipodi:docname="alignbottom.svg"
   inkscape:version="1.2.2 (b0a8486541, 2022-12-01)"
   width="16"
   height="16"
   xmlns:inkscape="http://www.inkscape.org/namespaces/inkscape"
   xmlns:sodipodi="http://sodipodi.sourceforge.net/DTD/sodipodi-0.dtd"
   xmlns="http://www.w3.org/2000/svg"
   xmlns:svg="http://www.w3.org/2000/svg">
  <defs
     id="defs256" />
  <sodipodi:namedview
     id="namedview254"
     pagecolor="#ffffff"
     bordercolor="#666666"
     borderopacity="1.0"
     inkscape:showpageshadow="2"
     inkscape:pageopacity="0.0"
     inkscape:pagecheckerboard="0"
     inkscape:deskcolor="#d1d1d1"
     showgrid="false"
     inkscape:zoom="11.346854"
     inkscape:cx="4.8912236"
     inkscape:cy="41.200847"
     inkscape:window-width="2077"
     inkscape:window-height="1230"
     inkscape:window-x="2371"
     inkscape:window-y="98"
     inkscape:window-maximized="0"
     inkscape:current-layer="svg252" />
  <!--!Font Awesome Free 6.6.0 by @fontawesome - https://fontawesome.com License - https://fontawesome.com/license/free Copyright 2024 Fonticons, Inc.-->
  <path
     d="m 14,15 c -0.553125,0 -1,-0.446875 -1,-1 V 7 c 0,-0.553125 0.446875,-1 1,-1 0.553125,0 1,0.446875 1,1 v 7 c 0,0.553125 -0.446875,1 -1,1 z M 6,15 C 5.446875,15 5,14.553125 5,14 V 7 C 5,6.446875 5.446875,6 6,6 6.553125,6 7,6.446875 7,7 v 7 c 0,0.553125 -0.446875,1 -1,1 z M 10,1 c 0.553125,0 1,0.446875 1,1 v 12 c 0,0.553125 -0.446875,1 -1,1 C 9.446875,15 9,14.553125 9,14 V 2 C 9,1.446875 9.446875,1 10,1 Z M 2,15 C 1.446875,15 1,14.553125 1,14 V 2 C 1,1.446875 1.446875,1 2,1 2.553125,1 3,1.446875 3,2 v 12 c 0,0.553125 -0.446875,1 -1,1 z"
     id="path250"
     style="fill:#afb1b3;fill-opacity:1;stroke-width:0.03125" />
  <rect
     style="fill:#afb1b3;fill-opacity:0;stroke-width:0.348238;stroke-linecap:round;stroke-linejoin:round"
     id="rect1711"
     width="16"
     height="16"
     x="0"
     y="-16"
     transform="scale(1,-1)" />
</svg>
