<?xml version="1.0" encoding="UTF-8" standalone="no"?>
<svg
   viewBox="0 0 16 16"
   version="1.1"
   id="svg6519"
   sodipodi:docname="aligncenter.svg"
   width="16"
   height="16"
   inkscape:version="1.2.2 (b0a8486541, 2022-12-01)"
   xmlns:inkscape="http://www.inkscape.org/namespaces/inkscape"
   xmlns:sodipodi="http://sodipodi.sourceforge.net/DTD/sodipodi-0.dtd"
   xmlns="http://www.w3.org/2000/svg"
   xmlns:svg="http://www.w3.org/2000/svg">
  <defs
     id="defs6523" />
  <sodipodi:namedview
     id="namedview6521"
     pagecolor="#ffffff"
     bordercolor="#666666"
     borderopacity="1.0"
     inkscape:showpageshadow="2"
     inkscape:pageopacity="0.0"
     inkscape:pagecheckerboard="0"
     inkscape:deskcolor="#d1d1d1"
     showgrid="false"
     inkscape:zoom="2.0058594"
     inkscape:cx="156.54138"
     inkscape:cy="255.75073"
     inkscape:window-width="5050"
     inkscape:window-height="1371"
     inkscape:window-x="70"
     inkscape:window-y="32"
     inkscape:window-maximized="1"
     inkscape:current-layer="svg6519" />
  <!--!Font Awesome Free 6.6.0 by @fontawesome - https://fontawesome.com License - https://fontawesome.com/license/free Copyright 2024 Fonticons, Inc.-->
  <path
     d="M 12,2 C 12,1.446875 11.553125,1 11,1 H 5 C 4.446875,1 4,1.446875 4,2 4,2.553125 4.446875,3 5,3 h 6 c 0.553125,0 1,-0.446875 1,-1 z m 3,4 C 15,5.446875 14.553125,5 14,5 H 2 C 1.446875,5 1,5.446875 1,6 1,6.553125 1.446875,7 2,7 h 12 c 0.553125,0 1,-0.446875 1,-1 z M 1,14 c 0,0.553125 0.446875,1 1,1 h 12 c 0.553125,0 1,-0.446875 1,-1 0,-0.553125 -0.446875,-1 -1,-1 H 2 C 1.446875,13 1,13.446875 1,14 Z M 12,10 C 12,9.446875 11.553125,9 11,9 H 5 c -0.553125,0 -1,0.446875 -1,1 0,0.553125 0.446875,1 1,1 h 6 c 0.553125,0 1,-0.446875 1,-1 z"
     id="path6517"
     style="fill:#565656;fill-opacity:1;stroke-width:0.03125" />
  <rect
     style="opacity:0;fill:#565656;fill-opacity:1;stroke-width:0.285449;stroke-linecap:round;stroke-linejoin:round"
     id="rect7731"
     width="16"
     height="16"
     x="0"
     y="0" />
</svg>
