<?xml version="1.0" encoding="UTF-8" standalone="no"?>
<svg
   viewBox="0 0 16 16"
   version="1.1"
   id="svg252"
   sodipodi:docname="aligntop.svg"
   inkscape:version="1.2.2 (b0a8486541, 2022-12-01)"
   width="16"
   height="16"
   xmlns:inkscape="http://www.inkscape.org/namespaces/inkscape"
   xmlns:sodipodi="http://sodipodi.sourceforge.net/DTD/sodipodi-0.dtd"
   xmlns="http://www.w3.org/2000/svg"
   xmlns:svg="http://www.w3.org/2000/svg">
  <defs
     id="defs256" />
  <sodipodi:namedview
     id="namedview254"
     pagecolor="#ffffff"
     bordercolor="#666666"
     borderopacity="1.0"
     inkscape:showpageshadow="2"
     inkscape:pageopacity="0.0"
     inkscape:pagecheckerboard="0"
     inkscape:deskcolor="#d1d1d1"
     showgrid="false"
     inkscape:zoom="11.346854"
     inkscape:cx="16.392209"
     inkscape:cy="41.112717"
     inkscape:window-width="2077"
     inkscape:window-height="1230"
     inkscape:window-x="2371"
     inkscape:window-y="98"
     inkscape:window-maximized="0"
     inkscape:current-layer="svg252" />
  <!--!Font Awesome Free 6.6.0 by @fontawesome - https://fontawesome.com License - https://fontawesome.com/license/free Copyright 2024 Fonticons, Inc.-->
  <path
     d="m 14,1 c -0.553125,0 -1,0.446875 -1,1 v 7 c 0,0.553125 0.446875,1 1,1 0.553125,0 1,-0.446875 1,-1 V 2 C 15,1.446875 14.553125,1 14,1 Z M 6,1 C 5.446875,1 5,1.446875 5,2 v 7 c 0,0.553125 0.446875,1 1,1 0.553125,0 1,-0.446875 1,-1 V 2 C 7,1.446875 6.553125,1 6,1 Z m 4,14 c 0.553125,0 1,-0.446875 1,-1 V 2 C 11,1.446875 10.553125,1 10,1 9.446875,1 9,1.446875 9,2 v 12 c 0,0.553125 0.446875,1 1,1 z M 2,1 C 1.446875,1 1,1.446875 1,2 v 12 c 0,0.553125 0.446875,1 1,1 0.553125,0 1,-0.446875 1,-1 V 2 C 3,1.446875 2.553125,1 2,1 Z"
     id="path250"
     style="fill:#565656;fill-opacity:1;stroke-width:0.03125" />
  <rect
     style="fill:#565656;fill-opacity:0;stroke-width:0.348238;stroke-linecap:round;stroke-linejoin:round"
     id="rect1711"
     width="16"
     height="16"
     x="0"
     y="0" />
</svg>
