<?xml version="1.0" encoding="UTF-8" standalone="no"?>
<svg
   viewBox="0 0 24 24"
   version="1.1"
   id="svg252"
   sodipodi:docname="alignleft24.svg"
   inkscape:version="1.2.2 (b0a8486541, 2022-12-01)"
   width="24"
   height="24"
   xmlns:inkscape="http://www.inkscape.org/namespaces/inkscape"
   xmlns:sodipodi="http://sodipodi.sourceforge.net/DTD/sodipodi-0.dtd"
   xmlns="http://www.w3.org/2000/svg"
   xmlns:svg="http://www.w3.org/2000/svg">
  <defs
     id="defs256" />
  <sodipodi:namedview
     id="namedview254"
     pagecolor="#ffffff"
     bordercolor="#666666"
     borderopacity="1.0"
     inkscape:showpageshadow="2"
     inkscape:pageopacity="0.0"
     inkscape:pagecheckerboard="0"
     inkscape:deskcolor="#d1d1d1"
     showgrid="false"
     inkscape:zoom="11.346854"
     inkscape:cx="6.4775664"
     inkscape:cy="41.200847"
     inkscape:window-width="2077"
     inkscape:window-height="1230"
     inkscape:window-x="2371"
     inkscape:window-y="98"
     inkscape:window-maximized="0"
     inkscape:current-layer="svg252" />
  <!--!Font Awesome Free 6.6.0 by @fontawesome - https://fontawesome.com License - https://fontawesome.com/license/free Copyright 2024 Fonticons, Inc.-->
  <path
     d="M 1.5,3 C 1.5,3.8296875 2.1703125,4.5 3,4.5 H 13.5 C 14.329687,4.5 15,3.8296875 15,3 15,2.1703125 14.329687,1.5 13.5,1.5 H 3 C 2.1703125,1.5 1.5,2.1703125 1.5,3 Z m 0,12 c 0,0.829687 0.6703125,1.5 1.5,1.5 h 10.5 c 0.829687,0 1.5,-0.670313 1.5,-1.5 0,-0.829687 -0.670313,-1.5 -1.5,-1.5 H 3 c -0.8296875,0 -1.5,0.670313 -1.5,1.5 z m 21,-6 C 22.5,8.1703125 21.829687,7.5 21,7.5 H 3 C 2.1703125,7.5 1.5,8.1703125 1.5,9 c 0,0.8296875 0.6703125,1.5 1.5,1.5 h 18 c 0.829687,0 1.5,-0.6703125 1.5,-1.5 z m -21,12 c 0,0.829687 0.6703125,1.5 1.5,1.5 h 18 c 0.829687,0 1.5,-0.670313 1.5,-1.5 0,-0.829687 -0.670313,-1.5 -1.5,-1.5 H 3 c -0.8296875,0 -1.5,0.670313 -1.5,1.5 z"
     id="path250"
     style="fill:#353a40;fill-opacity:1;stroke-width:0.046875" />
  <rect
     style="fill:#353a40;fill-opacity:0;stroke-width:0.522357;stroke-linecap:round;stroke-linejoin:round"
     id="rect1711"
     width="24"
     height="24"
     x="0"
     y="0" />
</svg>
