<?xml version="1.0" encoding="UTF-8" standalone="no"?>
<svg
   viewBox="0 0 16 16"
   version="1.1"
   id="svg6519"
   sodipodi:docname="alignmiddle.svg"
   width="16"
   height="16"
   inkscape:version="1.2.2 (b0a8486541, 2022-12-01)"
   xmlns:inkscape="http://www.inkscape.org/namespaces/inkscape"
   xmlns:sodipodi="http://sodipodi.sourceforge.net/DTD/sodipodi-0.dtd"
   xmlns="http://www.w3.org/2000/svg"
   xmlns:svg="http://www.w3.org/2000/svg">
  <defs
     id="defs6523" />
  <sodipodi:namedview
     id="namedview6521"
     pagecolor="#ffffff"
     bordercolor="#666666"
     borderopacity="1.0"
     inkscape:showpageshadow="2"
     inkscape:pageopacity="0.0"
     inkscape:pagecheckerboard="0"
     inkscape:deskcolor="#d1d1d1"
     showgrid="false"
     inkscape:zoom="2.0058594"
     inkscape:cx="90.734176"
     inkscape:cy="256.49854"
     inkscape:window-width="1452"
     inkscape:window-height="1230"
     inkscape:window-x="927"
     inkscape:window-y="93"
     inkscape:window-maximized="0"
     inkscape:current-layer="svg6519" />
  <!--!Font Awesome Free 6.6.0 by @fontawesome - https://fontawesome.com License - https://fontawesome.com/license/free Copyright 2024 Fonticons, Inc.-->
  <path
     d="m 14,12 c 0.553125,0 1,-0.446875 1,-1 V 5 C 15,4.446875 14.553125,4 14,4 13.446875,4 13,4.446875 13,5 v 6 c 0,0.553125 0.446875,1 1,1 z m -4,3 c 0.553125,0 1,-0.446875 1,-1 V 2 C 11,1.446875 10.553125,1 10,1 9.4468753,1 9,1.446875 9,2 v 12 c 0,0.553125 0.4468753,1 1,1 z M 2,1 C 1.446875,1 1,1.446875 1,2 v 12 c 0,0.553125 0.446875,1 1,1 0.553125,0 1,-0.446875 1,-1 V 2 C 3,1.446875 2.553125,1 2,1 Z m 4,11 c 0.553125,0 1,-0.446875 1,-1 V 5 C 7,4.446875 6.553125,4 6,4 5.446875,4 5,4.446875 5,5 v 6 c 0,0.553125 0.446875,1 1,1 z"
     id="path6517"
     style="fill:#353a40;fill-opacity:1;stroke-width:0.03125" />
  <rect
     style="opacity:0;fill:#353a40;fill-opacity:1;stroke-width:0.285449;stroke-linecap:round;stroke-linejoin:round"
     id="rect7731"
     width="16"
     height="16"
     x="0"
     y="-16"
     transform="rotate(90)" />
</svg>
