<?xml version="1.0" encoding="UTF-8" standalone="no"?>
<svg
   viewBox="0 0 32 32"
   version="1.1"
   id="svg832"
   sodipodi:docname="clear-selection32.svg"
   width="32"
   height="32"
   inkscape:version="1.1-dev (0486c1a, 2020-10-10)"
   xmlns:inkscape="http://www.inkscape.org/namespaces/inkscape"
   xmlns:sodipodi="http://sodipodi.sourceforge.net/DTD/sodipodi-0.dtd"
   xmlns="http://www.w3.org/2000/svg"
   xmlns:svg="http://www.w3.org/2000/svg">
  <defs
     id="defs836" />
  <sodipodi:namedview
     pagecolor="#ffffff"
     bordercolor="#666666"
     borderopacity="1"
     objecttolerance="10"
     gridtolerance="10"
     guidetolerance="10"
     inkscape:pageopacity="0"
     inkscape:pageshadow="2"
     inkscape:window-width="1460"
     inkscape:window-height="1053"
     id="namedview834"
     showgrid="false"
     width="16px"
     inkscape:zoom="15.115134"
     inkscape:cx="9.0637632"
     inkscape:cy="10.486179"
     inkscape:window-x="244"
     inkscape:window-y="23"
     inkscape:window-maximized="0"
     inkscape:current-layer="svg832" />
  <!-- Font Awesome Free 5.15.2 by @fontawesome - https://fontawesome.com License - https://fontawesome.com/license/free (Icons: CC BY 4.0, Fonts: SIL OFL 1.1, Code: MIT License) -->
  <path
     d="m 12.823484,14.051471 4.336495,5.458994 c 0,0 -0.829999,5.117994 -3.828496,7.50599 C 10.332987,29.405453 0,28.722453 0,28.722453 c 0,0 0.18999976,-1.156998 0.54999934,-2.771496 L 5.2809936,20.342463 c 0.1985,-0.234998 -0.0435,-0.580998 -0.3324996,-0.475 l -3.0199964,1.1045 c 0.7219992,-2.082998 1.635998,-4.001996 2.7299966,-4.873494 2.9984964,-2.387997 8.1649898,-2.046998 8.1649898,-2.046998 z M 31.82646,4.7644835 30.833462,3.5144863 c -0.2745,-0.3449994 -0.776,-0.4024992 -1.120498,-0.128 L 18.088978,12.276473 16.38198,10.127976 c -0.2545,-0.3204997 -0.756999,-0.2604997 -0.929499,0.1105 l -1.266499,2.727497 4.336495,5.458992 2.939997,-0.622498 c 0.4,-0.0845 0.570998,-0.56 0.316998,-0.88 L 20.074976,14.776471 31.698962,5.8864819 C 32.04346,5.6124821 32.10096,5.1099829 31.82646,4.7644835 Z"
     id="path830"
     style="fill:#41818f;fill-opacity:1;stroke-width:0.999994" />
</svg>
