<?xml version="1.0" encoding="UTF-8" standalone="no"?>
<svg
   viewBox="0 0 16 16"
   version="1.1"
   id="svg832"
   sodipodi:docname="delete.svg"
   width="16"
   height="16"
   inkscape:version="1.1-dev (0486c1a, 2020-10-10)"
   xmlns:inkscape="http://www.inkscape.org/namespaces/inkscape"
   xmlns:sodipodi="http://sodipodi.sourceforge.net/DTD/sodipodi-0.dtd"
   xmlns="http://www.w3.org/2000/svg"
   xmlns:svg="http://www.w3.org/2000/svg">
  <defs
     id="defs836" />
  <sodipodi:namedview
     pagecolor="#ffffff"
     bordercolor="#666666"
     borderopacity="1"
     objecttolerance="10"
     gridtolerance="10"
     guidetolerance="10"
     inkscape:pageopacity="0"
     inkscape:pageshadow="2"
     inkscape:window-width="1944"
     inkscape:window-height="1183"
     id="namedview834"
     showgrid="false"
     height="16px"
     inkscape:zoom="2.4329258"
     inkscape:cx="224.01012"
     inkscape:cy="25.689234"
     inkscape:window-x="61"
     inkscape:window-y="23"
     inkscape:window-maximized="0"
     inkscape:current-layer="svg832" />
  <!-- Font Awesome Free 5.15.2 by @fontawesome - https://fontawesome.com License - https://fontawesome.com/license/free (Icons: CC BY 4.0, Fonts: SIL OFL 1.1, Code: MIT License) -->
  <path
     d="m 9.1970552,12.999994 h 0.7500001 a 0.37499999,0.37499999 0 0 0 0.3749997,-0.375 V 5.8749945 A 0.37499999,0.37499999 0 0 0 9.9470553,5.4999947 H 9.1970552 a 0.37499999,0.37499999 0 0 0 -0.375,0.3749998 v 6.7499995 a 0.37499999,0.37499999 0 0 0 0.375,0.375 z M 14.322056,2.4999947 h -2.575313 l -1.0625,-1.77187498 A 1.5,1.5 0 0 0 9.3973679,-5.2727135e-6 H 6.2467429 A 1.5,1.5 0 0 0 4.9604927,0.72811972 L 3.8973678,2.4999947 H 1.3220555 a 0.5,0.5 0 0 0 -0.5,0.5 v 0.5000001 a 0.5,0.5 0 0 0 0.5,0.4999998 H 1.8220554 V 14.499994 a 1.5,1.5 0 0 0 1.5,1.500001 h 9.0000006 a 1.5,1.5 0 0 0 1.5,-1.500001 V 3.9999946 h 0.5 a 0.5,0.5 0 0 0 0.5,-0.4999998 V 2.9999947 a 0.5,0.5 0 0 0 -0.5,-0.5 z M 6.1920554,1.5909322 a 0.1875,0.1875 0 0 1 0.16125,-0.090937 h 2.9374999 a 0.1875,0.1875 0 0 1 0.1609373,0.090937 L 9.9973677,2.4999947 H 5.6467428 Z M 12.322056,14.499994 H 3.3220554 V 3.9999946 h 9.0000006 z m -6.6250006,-1.5 h 0.7499998 a 0.37499999,0.37499999 0 0 0 0.3750001,-0.375 V 5.8749945 A 0.37499999,0.37499999 0 0 0 6.4470552,5.4999947 H 5.6970554 a 0.37499999,0.37499999 0 0 0 -0.375,0.3749998 v 6.7499995 a 0.37499999,0.37499999 0 0 0 0.375,0.375 z"
     id="path830"
     style="stroke-width:0.0312499;fill:#0ac9f1;fill-opacity:1" />
</svg>
