<?xml version="1.0" encoding="UTF-8" standalone="no"?>
<svg
   viewBox="0 0 32 32"
   version="1.1"
   id="svg832"
   sodipodi:docname="delete32.svg"
   width="32"
   height="32"
   inkscape:version="1.1-dev (0486c1a, 2020-10-10)"
   xmlns:inkscape="http://www.inkscape.org/namespaces/inkscape"
   xmlns:sodipodi="http://sodipodi.sourceforge.net/DTD/sodipodi-0.dtd"
   xmlns="http://www.w3.org/2000/svg"
   xmlns:svg="http://www.w3.org/2000/svg">
  <defs
     id="defs836" />
  <sodipodi:namedview
     pagecolor="#ffffff"
     bordercolor="#666666"
     borderopacity="1"
     objecttolerance="10"
     gridtolerance="10"
     guidetolerance="10"
     inkscape:pageopacity="0"
     inkscape:pageshadow="2"
     inkscape:window-width="1944"
     inkscape:window-height="1183"
     id="namedview834"
     showgrid="false"
     height="16px"
     inkscape:zoom="2.4329258"
     inkscape:cx="224.01012"
     inkscape:cy="25.689234"
     inkscape:window-x="61"
     inkscape:window-y="23"
     inkscape:window-maximized="0"
     inkscape:current-layer="svg832" />
  <!-- Font Awesome Free 5.15.2 by @fontawesome - https://fontawesome.com License - https://fontawesome.com/license/free (Icons: CC BY 4.0, Fonts: SIL OFL 1.1, Code: MIT License) -->
  <path
     d="m 19.161026,25.999993 h 1.500001 a 0.74999996,0.74999996 0 0 0 0.749999,-0.75 V 11.749994 a 0.74999996,0.74999996 0 0 0 -0.749999,-0.749999 h -1.500001 a 0.74999996,0.74999996 0 0 0 -0.75,0.749999 v 13.499999 a 0.74999996,0.74999996 0 0 0 0.75,0.75 z M 29.411028,4.9999947 h -5.150626 l -2.125,-3.5437499 A 2.9999999,2.9999999 0 0 0 19.561652,-5.1025706e-6 h -6.30125 A 2.9999999,2.9999999 0 0 0 10.687902,1.4562448 L 8.5616522,4.9999947 H 3.4110278 a 0.99999997,0.99999997 0 0 0 -1,1 v 1.0000001 a 0.99999997,0.99999997 0 0 0 1,0.9999996 H 4.4110275 V 28.999993 a 2.9999999,2.9999999 0 0 0 3,3.000002 H 25.411028 a 2.9999999,2.9999999 0 0 0 3,-3.000002 V 7.9999944 h 1 a 0.99999997,0.99999997 0 0 0 1,-0.9999996 V 5.9999947 a 0.99999997,0.99999997 0 0 0 -1,-1 z M 13.151027,3.1818698 a 0.37499999,0.37499999 0 0 1 0.3225,-0.181874 h 5.875 a 0.37499999,0.37499999 0 0 1 0.321874,0.181874 l 1.09125,1.8181249 H 12.060402 Z M 25.411028,28.999993 H 7.4110275 V 7.9999944 H 25.411028 Z m -13.250001,-3 h 1.5 a 0.74999996,0.74999996 0 0 0 0.75,-0.75 V 11.749994 a 0.74999996,0.74999996 0 0 0 -0.75,-0.749999 h -1.5 a 0.74999996,0.74999996 0 0 0 -0.75,0.749999 v 13.499999 a 0.74999996,0.74999996 0 0 0 0.75,0.75 z"
     id="path830"
     style="fill:#41818f;fill-opacity:1;stroke-width:0.0624998" />
</svg>
