<svg width="16" height="16" fill="#afb1b3" version="1.1" viewBox="0 0 256 256" xmlns="http://www.w3.org/2000/svg">
 <path d="m222.13 123.95c-9.5157-35.545-50.648-51.815-81.905-32.398l14.979-59.807c0.76201-3.047-0.5072-6.2402-3.153-7.9328-26.21-16.55-60.919-8.1014-76.589 18.645-15.671 26.746-6.0731 61.154 21.178 75.927l-59.286 16.935c-3.0202 0.86016-5.1538 3.5529-5.3007 6.6898-1.1592 25.718 15.728 48.779 40.596 55.438 4.6557 1.25 9.4544 1.886 14.275 1.8918 30.954-0.0819 55.72-25.725 54.725-56.663l44.307 42.881c2.2596 2.1861 5.6636 2.6829 8.4537 1.2338 22.839-11.85 34.367-37.985 27.719-62.841z"/>
 <path d="m255.59 224h-127.59c-55.734 0-112.57-10.34-112.48-96.025l-15.52 0.02484v128h256z"/>
</svg>
