<?xml version="1.0" encoding="UTF-8" standalone="no"?>
<svg
   viewBox="0 0 32 32"
   version="1.1"
   id="svg1076"
   sodipodi:docname="exit32.svg"
   width="32"
   height="32"
   inkscape:version="1.1-dev (0486c1a, 2020-10-10)"
   xmlns:inkscape="http://www.inkscape.org/namespaces/inkscape"
   xmlns:sodipodi="http://sodipodi.sourceforge.net/DTD/sodipodi-0.dtd"
   xmlns="http://www.w3.org/2000/svg"
   xmlns:svg="http://www.w3.org/2000/svg">
  <defs
     id="defs1080" />
  <sodipodi:namedview
     pagecolor="#ffffff"
     bordercolor="#666666"
     borderopacity="1"
     objecttolerance="10"
     gridtolerance="10"
     guidetolerance="10"
     inkscape:pageopacity="0"
     inkscape:pageshadow="2"
     inkscape:window-width="1539"
     inkscape:window-height="1172"
     id="namedview1078"
     showgrid="false"
     width="16px"
     inkscape:zoom="18.418071"
     inkscape:cx="8.877151"
     inkscape:cy="10.804606"
     inkscape:window-x="53"
     inkscape:window-y="23"
     inkscape:window-maximized="0"
     inkscape:current-layer="svg1076" />
  <!-- Font Awesome Free 5.15.2 by @fontawesome - https://fontawesome.com License - https://fontawesome.com/license/free (Icons: CC BY 4.0, Fonts: SIL OFL 1.1, Code: MIT License) -->
  <path
     d="m 31.2,25.682989 h -4 V 8.9554907 c 0,-1.363 -1.0765,-2.4725 -2.4,-2.4725 H 19.2 V 9.68299 H 24 v 19.199999 h 7.2 c 0.442,0 0.8,-0.358001 0.8,-0.800001 v -1.6 c 0,-0.442 -0.358,-0.8 -0.8,-0.799999 z M 15.612,3.3334909 6.012,5.8204907 c -0.7125,0.1845 -1.212,0.8475 -1.212,1.6085 V 25.682989 h -4 c -0.442,0 -0.8,0.358 -0.8,0.8 v 1.6 c 0,0.442 0.358,0.8 0.8,0.8 H 17.6 V 4.9419909 c 0,-1.079 -0.978,-1.8705002 -1.988,-1.6085 z M 13.2,17.682987 c -0.6625,0 -1.2,-0.7165 -1.2,-1.6 0,-0.8835 0.5375,-1.6 1.2,-1.6 0.6625,0 1.2,0.7165 1.2,1.6 0,0.8835 -0.5375,1.6 -1.2,1.6 z"
     id="path1074"
     style="fill:#353a40;fill-opacity:1;stroke-width:1" />
</svg>
