<?xml version="1.0" encoding="UTF-8" standalone="no"?>
<svg
   viewBox="0 0 16 16"
   version="1.1"
   id="svg988"
   sodipodi:docname="export.svg"
   width="16"
   height="16"
   inkscape:version="1.1-dev (0486c1a, 2020-10-10)"
   xmlns:inkscape="http://www.inkscape.org/namespaces/inkscape"
   xmlns:sodipodi="http://sodipodi.sourceforge.net/DTD/sodipodi-0.dtd"
   xmlns="http://www.w3.org/2000/svg"
   xmlns:svg="http://www.w3.org/2000/svg">
  <defs
     id="defs992" />
  <sodipodi:namedview
     pagecolor="#ffffff"
     bordercolor="#666666"
     borderopacity="1"
     objecttolerance="10"
     gridtolerance="10"
     guidetolerance="10"
     inkscape:pageopacity="0"
     inkscape:pageshadow="2"
     inkscape:window-width="1929"
     inkscape:window-height="1135"
     id="namedview990"
     showgrid="false"
     width="16px"
     inkscape:zoom="5.51"
     inkscape:cx="96.46098"
     inkscape:cy="17.513612"
     inkscape:window-x="53"
     inkscape:window-y="23"
     inkscape:window-maximized="0"
     inkscape:current-layer="svg988" />
  <!-- Font Awesome Free 5.15.2 by @fontawesome - https://fontawesome.com License - https://fontawesome.com/license/free (Icons: CC BY 4.0, Fonts: SIL OFL 1.1, Code: MIT License) -->
  <path
     d="m 10.66725,4.2973672 c 0,-0.1750096 -0.06945,-0.3444633 -0.194455,-0.4694701 L 7.7532019,1.1055259 C 7.6281951,0.980519 7.4587413,0.9110708 7.2809539,0.9110708 H 7.1115001 V 4.4668209 H 10.66725 Z M 15.861978,9.4670954 13.2035,6.7891701 C 12.922929,6.5085992 12.442347,6.7058318 12.442347,7.1030762 v 1.8084326 h -1.777875 v 1.7778762 h 1.777875 v 1.81121 c 0,0.397244 0.480582,0.594477 0.761153,0.313906 l 2.658478,-2.680702 c 0.183344,-0.1833442 0.183344,-0.4833604 0,-0.6667036 z M 5.3336251,10.244916 V 9.3559782 c 0,-0.2444582 0.2000109,-0.4444694 0.4444687,-0.4444694 H 10.66725 V 5.3557584 H 6.8892657 c -0.3666867,0 -0.666703,-0.3000165 -0.666703,-0.6667032 V 0.9110708 H 0.66670314 C 0.29723848,0.9110708 0,1.2083093 0,1.5777739 V 14.467369 c 0,0.369465 0.29723848,0.666703 0.66670314,0.666703 H 10.000547 c 0.369465,0 0.666703,-0.297238 0.666703,-0.666703 V 10.689385 H 5.7780938 c -0.2444578,0 -0.4444687,-0.200011 -0.4444687,-0.444469 z"
     id="path986"
     style="fill:#0ac9f1;fill-opacity:1;stroke-width:0.999998" />
</svg>
