<?xml version="1.0" encoding="UTF-8" standalone="no"?>
<svg
   viewBox="0 0 32 32"
   version="1.1"
   id="svg988"
   sodipodi:docname="export32.svg"
   width="32"
   height="32"
   inkscape:version="1.1-dev (0486c1a, 2020-10-10)"
   xmlns:inkscape="http://www.inkscape.org/namespaces/inkscape"
   xmlns:sodipodi="http://sodipodi.sourceforge.net/DTD/sodipodi-0.dtd"
   xmlns="http://www.w3.org/2000/svg"
   xmlns:svg="http://www.w3.org/2000/svg">
  <defs
     id="defs992" />
  <sodipodi:namedview
     pagecolor="#ffffff"
     bordercolor="#666666"
     borderopacity="1"
     objecttolerance="10"
     gridtolerance="10"
     guidetolerance="10"
     inkscape:pageopacity="0"
     inkscape:pageshadow="2"
     inkscape:window-width="1929"
     inkscape:window-height="1135"
     id="namedview990"
     showgrid="false"
     width="16px"
     inkscape:zoom="5.9"
     inkscape:cx="96.355932"
     inkscape:cy="17.542373"
     inkscape:window-x="53"
     inkscape:window-y="23"
     inkscape:window-maximized="0"
     inkscape:current-layer="svg988" />
  <!-- Font Awesome Free 5.15.2 by @fontawesome - https://fontawesome.com License - https://fontawesome.com/license/free (Icons: CC BY 4.0, Fonts: SIL OFL 1.1, Code: MIT License) -->
  <path
     d="m 21.335186,8.3618474 c 0,-0.3500305 -0.138905,-0.6889488 -0.388923,-0.9389704 L 15.506902,1.9779595 C 15.256881,1.7279377 14.917962,1.5890368 14.562376,1.5890368 H 14.223457 V 8.700766 h 7.111729 z m 10.38979,10.3397906 -5.317127,-5.356023 c -0.56116,-0.561159 -1.522355,-0.166682 -1.522355,0.627833 v 3.616981 H 21.32963 v 3.555867 h 3.555864 v 3.622536 c 0,0.794514 0.961195,1.188993 1.522355,0.627833 l 5.317127,-5.361577 c 0.3667,-0.3667 0.3667,-0.966752 0,-1.33345 z m -21.057383,1.555691 v -1.777932 c 0,-0.488932 0.400035,-0.888968 0.888966,-0.888968 h 9.778627 v -7.11173 h -7.556212 c -0.733397,0 -1.333448,-0.6000525 -1.333448,-1.33345 V 1.5890368 H 1.3334491 C 0.59449607,1.5890368 0,2.183533 0,2.9224859 V 28.702507 c 0,0.738954 0.59449607,1.333449 1.3334491,1.333449 H 20.001737 c 0.738954,0 1.333449,-0.594495 1.333449,-1.333449 v -7.556211 h -9.778627 c -0.488931,0 -0.888966,-0.400035 -0.888966,-0.888967 z"
     id="path986"
     style="fill:#353a40;fill-opacity:1;stroke-width:0.999998" />
</svg>
