<?xml version="1.0" encoding="UTF-8" standalone="no"?>
<svg
   class="ionicon"
   viewBox="0 0 16 16"
   version="1.1"
   id="svg836"
   sodipodi:docname="eye.svg"
   width="16"
   height="16"
   inkscape:version="1.1-dev (0486c1a, 2020-10-10)"
   xmlns:inkscape="http://www.inkscape.org/namespaces/inkscape"
   xmlns:sodipodi="http://sodipodi.sourceforge.net/DTD/sodipodi-0.dtd"
   xmlns="http://www.w3.org/2000/svg"
   xmlns:svg="http://www.w3.org/2000/svg"
   xmlns:rdf="http://www.w3.org/1999/02/22-rdf-syntax-ns#"
   xmlns:cc="http://creativecommons.org/ns#"
   xmlns:dc="http://purl.org/dc/elements/1.1/">
  <defs
     id="defs840" />
  <sodipodi:namedview
     pagecolor="#ffffff"
     bordercolor="#666666"
     borderopacity="1"
     objecttolerance="10"
     gridtolerance="10"
     guidetolerance="10"
     inkscape:pageopacity="0"
     inkscape:pageshadow="2"
     inkscape:window-width="1417"
     inkscape:window-height="940"
     id="namedview838"
     showgrid="false"
     inkscape:zoom="35.91244"
     inkscape:cx="8.0055825"
     inkscape:cy="7.9916597"
     inkscape:window-x="223"
     inkscape:window-y="148"
     inkscape:window-maximized="0"
     inkscape:current-layer="svg836" />
  <title
     id="title830">Eye</title>
  <circle
     cx="8"
     cy="8"
     r="2"
     id="circle832"
     style="stroke-width:0.03125;fill:#353a40;fill-opacity:1" />
  <path
     d="M 15.33875,7.45625 C 14.511875,6.1775 13.439062,5.09125 12.236563,4.3146875 10.90625,3.4546875 9.4375,3 7.989375,3 6.660625,3 5.3540625,3.3796875 4.1059375,4.1284375 2.833125,4.891875 1.68,6.0071875 0.6784375,7.443125 a 0.9975,0.9975 0 0 0 -0.02,1.110625 c 0.8253125,1.2915625 1.8875,2.379375 3.07125,3.145313 C 5.0625,12.5625 6.496875,13 7.989375,13 c 1.4596875,0 2.931563,-0.450937 4.25625,-1.30375 1.201875,-0.774062 2.2725,-1.864375 3.09625,-3.15375 A 1.00625,1.00625 0 0 0 15.33875,7.45625 Z M 8,11 a 3,3 0 1 1 3,-3 3.0034375,3.0034375 0 0 1 -3,3 z"
     id="path834"
     style="stroke-width:0.03125;fill:#353a40;fill-opacity:1" />
  <rect
     style="display:inline;fill:none;fill-rule:evenodd;stroke-width:0.0619916;stroke-linecap:round;stroke-linejoin:round"
     id="rect842"
     width="16"
     height="16"
     x="0"
     y="0" />
  <metadata
     id="metadata844">
    <rdf:RDF>
      <cc:Work
         rdf:about="">
        <dc:title>Eye</dc:title>
      </cc:Work>
    </rdf:RDF>
  </metadata>
</svg>
