<?xml version="1.0" encoding="UTF-8" standalone="no"?>
<svg
   class="ionicon"
   viewBox="0 0 24 24"
   version="1.1"
   id="svg836"
   sodipodi:docname="eye24.svg"
   width="24"
   height="24"
   inkscape:version="1.1-dev (0486c1a, 2020-10-10)"
   xmlns:inkscape="http://www.inkscape.org/namespaces/inkscape"
   xmlns:sodipodi="http://sodipodi.sourceforge.net/DTD/sodipodi-0.dtd"
   xmlns="http://www.w3.org/2000/svg"
   xmlns:svg="http://www.w3.org/2000/svg"
   xmlns:rdf="http://www.w3.org/1999/02/22-rdf-syntax-ns#"
   xmlns:cc="http://creativecommons.org/ns#"
   xmlns:dc="http://purl.org/dc/elements/1.1/">
  <defs
     id="defs840" />
  <sodipodi:namedview
     pagecolor="#ffffff"
     bordercolor="#666666"
     borderopacity="1"
     objecttolerance="10"
     gridtolerance="10"
     guidetolerance="10"
     inkscape:pageopacity="0"
     inkscape:pageshadow="2"
     inkscape:window-width="1417"
     inkscape:window-height="940"
     id="namedview838"
     showgrid="false"
     inkscape:zoom="31.583333"
     inkscape:cx="11.984169"
     inkscape:cy="12"
     inkscape:window-x="223"
     inkscape:window-y="148"
     inkscape:window-maximized="0"
     inkscape:current-layer="svg836" />
  <title
     id="title830">Eye</title>
  <circle
     cx="12"
     cy="12"
     r="3"
     id="circle832"
     style="fill:#353a40;fill-opacity:1;stroke-width:0.046875" />
  <path
     d="M 23.008125,11.184375 C 21.767812,9.26625 20.158593,7.636875 18.354844,6.4720312 16.359375,5.1820312 14.15625,4.5 11.984063,4.5 9.9909375,4.5 8.0310938,5.0695313 6.1589062,6.1926563 4.2496875,7.3378125 2.52,9.0107812 1.0176562,11.164687 a 1.49625,1.49625 0 0 0 -0.03,1.665938 c 1.2379688,1.937344 2.8312501,3.569062 4.606875,4.717969 C 7.59375,18.84375 9.7453125,19.5 11.984063,19.5 c 2.189531,0 4.397344,-0.676406 6.384374,-1.955625 1.802813,-1.161093 3.408751,-2.796562 4.644375,-4.730625 a 1.509375,1.509375 0 0 0 -0.0047,-1.629375 z M 12,16.5 A 4.5,4.5 0 1 1 16.5,12 4.5051562,4.5051562 0 0 1 12,16.5 Z"
     id="path834"
     style="fill:#353a40;fill-opacity:1;stroke-width:0.046875" />
  <rect
     style="display:inline;fill:none;fill-rule:evenodd;stroke-width:0.0929874;stroke-linecap:round;stroke-linejoin:round"
     id="rect842"
     width="24"
     height="24"
     x="0"
     y="0" />
  <metadata
     id="metadata844">
    <rdf:RDF>
      <cc:Work
         rdf:about="">
        <dc:title>Eye</dc:title>
      </cc:Work>
    </rdf:RDF>
  </metadata>
</svg>
