<?xml version="1.0" encoding="UTF-8" standalone="no"?>
<svg
   class="ionicon"
   viewBox="0 0 24 24"
   version="1.1"
   id="svg884"
   sodipodi:docname="eye-off24.svg"
   width="24"
   height="24"
   inkscape:version="1.1-dev (0486c1a, 2020-10-10)"
   xmlns:inkscape="http://www.inkscape.org/namespaces/inkscape"
   xmlns:sodipodi="http://sodipodi.sourceforge.net/DTD/sodipodi-0.dtd"
   xmlns="http://www.w3.org/2000/svg"
   xmlns:svg="http://www.w3.org/2000/svg"
   xmlns:rdf="http://www.w3.org/1999/02/22-rdf-syntax-ns#"
   xmlns:cc="http://creativecommons.org/ns#"
   xmlns:dc="http://purl.org/dc/elements/1.1/">
  <defs
     id="defs888" />
  <sodipodi:namedview
     pagecolor="#ffffff"
     bordercolor="#666666"
     borderopacity="1"
     objecttolerance="10"
     gridtolerance="10"
     guidetolerance="10"
     inkscape:pageopacity="0"
     inkscape:pageshadow="2"
     inkscape:window-width="1643"
     inkscape:window-height="841"
     id="namedview886"
     showgrid="false"
     inkscape:snap-page="true"
     width="16px"
     inkscape:zoom="1.1196396"
     inkscape:cx="255.88591"
     inkscape:cy="255.88591"
     inkscape:window-x="61"
     inkscape:window-y="25"
     inkscape:window-maximized="0"
     inkscape:current-layer="svg884" />
  <title
     id="title878">Eye Off</title>
  <path
     d="M 20.25,21 A 0.74625,0.74625 0 0 1 19.719844,20.780157 L 3.2198438,4.2801562 A 0.75,0.75 0 0 1 4.2801562,3.2198438 L 20.780157,19.719844 A 0.75,0.75 0 0 1 20.25,21 Z M 11.625,14.805469 9.1973438,12.377813 a 0.09375,0.09375 0 0 0 -0.1589063,0.07922 3.0051562,3.0051562 0 0 0 2.5073435,2.507344 0.09375,0.09375 0 0 0 0.07922,-0.158906 z M 12.375,9.1945313 14.806406,11.625 A 0.09375,0.09375 0 0 0 14.965781,11.545781 3.0060937,3.0060937 0 0 0 12.455625,9.035625 0.09375,0.09375 0 0 0 12.375,9.1945313 Z"
     id="path880"
     style="fill:#353a40;fill-opacity:1;stroke-width:0.046875" />
  <path
     d="m 23.015625,12.81375 a 1.509375,1.509375 0 0 0 -0.0047,-1.629375 C 21.770625,9.26625 20.161405,7.636875 18.357657,6.4720312 16.359375,5.1820312 14.15625,4.5 11.985,4.5 A 10.619063,10.619063 0 0 0 8.6184375,5.0526562 0.1875,0.1875 0 0 0 8.5453125,5.3634375 l 2.2143755,2.214375 a 0.1875,0.1875 0 0 0 0.179062,0.049219 4.5,4.5 0 0 1 5.4375,5.4375005 0.1875,0.1875 0 0 0 0.04922,0.178594 l 3.185156,3.187501 a 0.1875,0.1875 0 0 0 0.253124,0.01125 16.116095,16.116095 0 0 0 3.151875,-3.628125 z M 12,16.5 A 4.5,4.5 0 0 1 7.6265625,10.939219 0.1875,0.1875 0 0 0 7.5773438,10.760625 L 4.4442187,7.6260937 A 0.1875,0.1875 0 0 0 4.190625,7.6153125 C 3.0473438,8.5907813 1.9875,9.7776563 1.0185937,11.164687 a 1.49625,1.49625 0 0 0 -0.03,1.665938 c 1.2379688,1.937344 2.8307813,3.569062 4.606875,4.717969 C 7.5965625,18.84375 9.74625,19.5 11.985,19.5 a 11.166563,11.166563 0 0 0 3.405,-0.541406 0.1875,0.1875 0 0 0 0.07546,-0.311249 L 13.240312,16.422657 A 0.1875,0.1875 0 0 0 13.061719,16.373438 4.5,4.5 0 0 1 12,16.5 Z"
     id="path882"
     style="fill:#353a40;fill-opacity:1;stroke-width:0.046875" />
  <rect
     style="fill:none;fill-opacity:1;fill-rule:evenodd;stroke-width:0.0935471;stroke-linecap:round;stroke-linejoin:round"
     id="rect954"
     width="24"
     height="24"
     x="0"
     y="0" />
  <metadata
     id="metadata956">
    <rdf:RDF>
      <cc:Work
         rdf:about="">
        <dc:title>Eye Off</dc:title>
      </cc:Work>
    </rdf:RDF>
  </metadata>
</svg>
