<?xml version="1.0" encoding="UTF-8" standalone="no"?>
<svg
   class="ionicon"
   viewBox="0 0 24 24"
   version="1.1"
   id="svg848"
   sodipodi:docname="folder24.svg"
   inkscape:version="1.1-dev (0486c1a, 2020-10-10)"
   width="24"
   height="24"
   xmlns:inkscape="http://www.inkscape.org/namespaces/inkscape"
   xmlns:sodipodi="http://sodipodi.sourceforge.net/DTD/sodipodi-0.dtd"
   xmlns="http://www.w3.org/2000/svg"
   xmlns:svg="http://www.w3.org/2000/svg"
   xmlns:rdf="http://www.w3.org/1999/02/22-rdf-syntax-ns#"
   xmlns:cc="http://creativecommons.org/ns#"
   xmlns:dc="http://purl.org/dc/elements/1.1/">
  <defs
     id="defs852" />
  <sodipodi:namedview
     pagecolor="#ffffff"
     bordercolor="#666666"
     borderopacity="1"
     objecttolerance="10"
     gridtolerance="10"
     guidetolerance="10"
     inkscape:pageopacity="0"
     inkscape:pageshadow="2"
     inkscape:window-width="1562"
     inkscape:window-height="994"
     id="namedview850"
     showgrid="false"
     inkscape:snap-page="true"
     inkscape:zoom="1.3808888"
     inkscape:cx="256.35663"
     inkscape:cy="256.35663"
     inkscape:window-x="61"
     inkscape:window-y="25"
     inkscape:window-maximized="0"
     inkscape:current-layer="svg848"
     width="16px" />
  <title
     id="title844">Folder</title>
  <path
     d="M 23.25,7.125 A 2.625,2.625 0 0 0 20.625,4.5 H 10.317656 A 1.1198437,1.1198437 0 0 1 9.69375,4.3125 L 8.390625,3.4410937 A 2.6142188,2.6142188 0 0 0 6.9323438,3 H 3.375 A 2.625,2.625 0 0 0 0.75,5.625 v 2.25 A 0.375,0.375 0 0 0 1.125,8.25 h 21.75 A 0.375,0.375 0 0 0 23.25,7.875 Z M 0.75,18.375 A 2.625,2.625 0 0 0 3.375,21 h 17.25 a 2.625,2.625 0 0 0 2.625,-2.625 v -8.25 A 0.375,0.375 0 0 0 22.875,9.75 H 1.125 A 0.375,0.375 0 0 0 0.75,10.125 Z"
     id="path846"
     style="fill:#353a40;fill-opacity:1;stroke-width:0.046875" />
  <rect
     style="fill:none;fill-rule:evenodd;stroke-width:0.0966929;stroke-linecap:round;stroke-linejoin:round"
     id="rect918"
     width="24"
     height="24"
     x="-8.880805e-15"
     y="7.2386541e-14" />
  <metadata
     id="metadata920">
    <rdf:RDF>
      <cc:Work
         rdf:about="">
        <dc:title>Folder</dc:title>
      </cc:Work>
    </rdf:RDF>
  </metadata>
</svg>
