<?xml version="1.0" encoding="UTF-8" standalone="no"?>
<svg
   class="ionicon"
   viewBox="0 0 32 32"
   version="1.1"
   id="svg848"
   sodipodi:docname="folder32.svg"
   inkscape:version="1.1-dev (0486c1a, 2020-10-10)"
   width="32"
   height="32"
   xmlns:inkscape="http://www.inkscape.org/namespaces/inkscape"
   xmlns:sodipodi="http://sodipodi.sourceforge.net/DTD/sodipodi-0.dtd"
   xmlns="http://www.w3.org/2000/svg"
   xmlns:svg="http://www.w3.org/2000/svg"
   xmlns:rdf="http://www.w3.org/1999/02/22-rdf-syntax-ns#"
   xmlns:cc="http://creativecommons.org/ns#"
   xmlns:dc="http://purl.org/dc/elements/1.1/">
  <defs
     id="defs852" />
  <sodipodi:namedview
     pagecolor="#ffffff"
     bordercolor="#666666"
     borderopacity="1"
     objecttolerance="10"
     gridtolerance="10"
     guidetolerance="10"
     inkscape:pageopacity="0"
     inkscape:pageshadow="2"
     inkscape:window-width="1562"
     inkscape:window-height="994"
     id="namedview850"
     showgrid="false"
     inkscape:snap-page="true"
     inkscape:zoom="1.3808888"
     inkscape:cx="256.35663"
     inkscape:cy="256.35663"
     inkscape:window-x="61"
     inkscape:window-y="25"
     inkscape:window-maximized="0"
     inkscape:current-layer="svg848"
     width="16px" />
  <title
     id="title844">Folder</title>
  <path
     d="M 31,9.5 A 3.5,3.5 0 0 0 27.5,6 H 13.756875 A 1.4931249,1.4931249 0 0 1 12.925,5.75 L 11.1875,4.5881249 A 3.4856251,3.4856251 0 0 0 9.2431251,4 H 4.5 A 3.5,3.5 0 0 0 1,7.5 v 3 A 0.5,0.5 0 0 0 1.5,11 h 29 A 0.5,0.5 0 0 0 31,10.5 Z M 1,24.5 A 3.5,3.5 0 0 0 4.5,28 h 23 A 3.5,3.5 0 0 0 31,24.5 v -11 A 0.5,0.5 0 0 0 30.5,13 H 1.5 A 0.5,0.5 0 0 0 1,13.5 Z"
     id="path846"
     style="fill:#353a40;fill-opacity:1;stroke-width:0.0625" />
  <rect
     style="fill:none;fill-rule:evenodd;stroke-width:0.128924;stroke-linecap:round;stroke-linejoin:round"
     id="rect918"
     width="32"
     height="32"
     x="-8.880805e-15"
     y="7.2386541e-14" />
  <metadata
     id="metadata920">
    <rdf:RDF>
      <cc:Work
         rdf:about="">
        <dc:title>Folder</dc:title>
      </cc:Work>
    </rdf:RDF>
  </metadata>
</svg>
