<?xml version="1.0" encoding="UTF-8" standalone="no"?>
<svg
   class="ionicon"
   viewBox="0 0 16 16"
   version="1.1"
   id="svg848"
   sodipodi:docname="folder.svg"
   inkscape:version="1.1-dev (0486c1a, 2020-10-10)"
   width="16"
   height="16"
   xmlns:inkscape="http://www.inkscape.org/namespaces/inkscape"
   xmlns:sodipodi="http://sodipodi.sourceforge.net/DTD/sodipodi-0.dtd"
   xmlns="http://www.w3.org/2000/svg"
   xmlns:svg="http://www.w3.org/2000/svg"
   xmlns:rdf="http://www.w3.org/1999/02/22-rdf-syntax-ns#"
   xmlns:cc="http://creativecommons.org/ns#"
   xmlns:dc="http://purl.org/dc/elements/1.1/">
  <defs
     id="defs852" />
  <sodipodi:namedview
     pagecolor="#ffffff"
     bordercolor="#666666"
     borderopacity="1"
     objecttolerance="10"
     gridtolerance="10"
     guidetolerance="10"
     inkscape:pageopacity="0"
     inkscape:pageshadow="2"
     inkscape:window-width="1562"
     inkscape:window-height="994"
     id="namedview850"
     showgrid="false"
     inkscape:snap-page="true"
     inkscape:zoom="1.3808888"
     inkscape:cx="256.35663"
     inkscape:cy="256.35663"
     inkscape:window-x="61"
     inkscape:window-y="25"
     inkscape:window-maximized="0"
     inkscape:current-layer="svg848"
     width="16px" />
  <title
     id="title844">Folder</title>
  <path
     d="M 15.5,4.75 A 1.75,1.75 0 0 0 13.75,3 H 6.8784375 A 0.7465625,0.7465625 0 0 1 6.4625,2.875 L 5.59375,2.2940625 A 1.7428125,1.7428125 0 0 0 4.6215625,2 H 2.25 A 1.75,1.75 0 0 0 0.5,3.75 v 1.5 A 0.25,0.25 0 0 0 0.75,5.5 h 14.5 A 0.25,0.25 0 0 0 15.5,5.25 Z m -15,7.5 A 1.75,1.75 0 0 0 2.25,14 h 11.5 A 1.75,1.75 0 0 0 15.5,12.25 V 6.75 A 0.25,0.25 0 0 0 15.25,6.5 H 0.75 A 0.25,0.25 0 0 0 0.5,6.75 Z"
     id="path846"
     style="fill:#353a40;fill-opacity:1;stroke-width:0.03125" />
  <rect
     style="fill:none;fill-rule:evenodd;stroke-width:0.0644619;stroke-linecap:round;stroke-linejoin:round"
     id="rect918"
     width="16"
     height="16"
     x="-8.880805e-15"
     y="7.2386541e-14" />
  <metadata
     id="metadata920">
    <rdf:RDF>
      <cc:Work
         rdf:about="">
        <dc:title>Folder</dc:title>
      </cc:Work>
    </rdf:RDF>
  </metadata>
</svg>
