<?xml version="1.0" encoding="UTF-8" standalone="no"?>
<svg
   xmlns:dc="http://purl.org/dc/elements/1.1/"
   xmlns:cc="http://creativecommons.org/ns#"
   xmlns:rdf="http://www.w3.org/1999/02/22-rdf-syntax-ns#"
   xmlns:svg="http://www.w3.org/2000/svg"
   xmlns="http://www.w3.org/2000/svg"
   xmlns:sodipodi="http://sodipodi.sourceforge.net/DTD/sodipodi-0.dtd"
   xmlns:inkscape="http://www.inkscape.org/namespaces/inkscape"
   viewBox="0 0 32 32"
   version="1.1"
   id="svg839"
   sodipodi:docname="import32.svg"
   inkscape:version="1.0.1 (c497b03c, 2020-09-10)"
   width="32"
   height="32">
  <metadata
     id="metadata845">
    <rdf:RDF>
      <cc:Work
         rdf:about="">
        <dc:format>image/svg+xml</dc:format>
        <dc:type
           rdf:resource="http://purl.org/dc/dcmitype/StillImage" />
        <dc:title></dc:title>
      </cc:Work>
    </rdf:RDF>
  </metadata>
  <defs
     id="defs843" />
  <sodipodi:namedview
     pagecolor="#ffffff"
     bordercolor="#666666"
     borderopacity="1"
     objecttolerance="10"
     gridtolerance="10"
     guidetolerance="10"
     inkscape:pageopacity="0"
     inkscape:pageshadow="2"
     inkscape:window-width="1288"
     inkscape:window-height="772"
     id="namedview841"
     showgrid="false"
     inkscape:zoom="15.898882"
     inkscape:cx="12"
     inkscape:cy="12"
     inkscape:window-x="0"
     inkscape:window-y="23"
     inkscape:window-maximized="0"
     inkscape:current-layer="g837" />
  <g
     id="g837">
    <path
       id="rect847"
       style="fill:#fffffc;fill-opacity:1;fill-rule:evenodd;stroke-width:4.40316;stroke-linecap:round;paint-order:markers fill stroke"
       d="M 5.7027074,4.5286204 H 20.851354 l 4.48198,5.3333334 V 26.666666 H 5.7027074 Z"
       sodipodi:nodetypes="cccccc" />
    <path
       fill="none"
       d="M 0,0 H 32 V 32 H 0 Z"
       id="path833"
       style="stroke-width:1" />
    <path
       d="M 20,5.3333334 H 6.6666668 V 26.666666 H 25.333334 V 10.666667 H 20 Z m -16,-1.344 C 4,3.2586666 4.596,2.6666666 5.332,2.6666666 H 21.333334 L 28,9.3333334 V 27.990666 a 1.3333333,1.3333333 0 0 1 -1.324,1.342668 H 5.324 A 1.3333333,1.3333333 0 0 1 4,28.010666 Z M 14.666667,14.666667 v -4 h 2.666666 v 4 h 4.000001 v 2.666666 h -4.000001 v 4.000001 h -2.666666 v -4.000001 h -4 v -2.666666 z"
       id="path835"
       style="fill:#353a40;fill-opacity:1;stroke-width:1" />
  </g>
</svg>
