<?xml version="1.0" encoding="UTF-8" standalone="no"?>
<svg
   viewBox="0 0 16 16"
   version="1.1"
   id="svg839"
   width="16"
   height="16"
   xmlns="http://www.w3.org/2000/svg"
   xmlns:svg="http://www.w3.org/2000/svg">
  <defs
     id="defs843" />
  <g
     id="g837">
    <path
       id="rect847"
       style="fill:#fffffc;fill-opacity:1;fill-rule:evenodd;stroke-width:4.40315;stroke-linecap:round;paint-order:markers fill stroke"
       d="m 2.8513537,2.2643102 h 7.5743233 l 2.24099,2.6666667 V 13.333333 H 2.8513537 Z" />
    <path
       fill="none"
       d="M 0,0 H 16 V 16 H 0 Z"
       id="path833"
       style="stroke-width:1" />
    <path
       d="M 10,2.6666667 H 3.3333334 V 13.333333 H 12.666667 V 5.3333334 H 10 Z m -8,-0.672 C 2,1.6293333 2.298,1.3333333 2.666,1.3333333 h 8.000667 L 14,4.6666667 v 9.3286663 a 0.66666667,0.66666667 0 0 1 -0.662,0.671334 H 2.662 A 0.66666667,0.66666667 0 0 1 2,14.005333 Z m 5.3333334,5.3386667 v -2 h 1.3333333 v 2 H 10.666667 V 8.6666667 H 8.6666667 V 10.666667 H 7.3333334 V 8.6666667 h -2 V 7.3333334 Z"
       id="path835"
       style="fill:#565656;fill-opacity:1;stroke-width:1" />
  </g>
</svg>
