<?xml version="1.0" encoding="UTF-8" standalone="no"?>
<svg
   viewBox="0 0 16 16"
   version="1.1"
   id="svg832"
   sodipodi:docname="import.svg"
   width="16"
   height="16"
   inkscape:version="1.1-dev (0486c1a, 2020-10-10)"
   xmlns:inkscape="http://www.inkscape.org/namespaces/inkscape"
   xmlns:sodipodi="http://sodipodi.sourceforge.net/DTD/sodipodi-0.dtd"
   xmlns="http://www.w3.org/2000/svg"
   xmlns:svg="http://www.w3.org/2000/svg">
  <defs
     id="defs836" />
  <sodipodi:namedview
     pagecolor="#ffffff"
     bordercolor="#666666"
     borderopacity="1"
     objecttolerance="10"
     gridtolerance="10"
     guidetolerance="10"
     inkscape:pageopacity="0"
     inkscape:pageshadow="2"
     inkscape:window-width="1936"
     inkscape:window-height="1238"
     id="namedview834"
     showgrid="false"
     width="16px"
     inkscape:zoom="20.37227"
     inkscape:cx="20.469"
     inkscape:cy="5.6940145"
     inkscape:window-x="253"
     inkscape:window-y="23"
     inkscape:window-maximized="0"
     inkscape:current-layer="svg832" />
  <!-- Font Awesome Free 5.15.2 by @fontawesome - https://fontawesome.com License - https://fontawesome.com/license/free (Icons: CC BY 4.0, Fonts: SIL OFL 1.1, Code: MIT License) -->
  <path
     d="M 12.898948,0.93264027 H 3.1208351 c -0.1111149,0 -0.2166741,0.0555575 -0.2777873,0.15000503 L 0.06517479,5.1716739 c -0.08055832,0.1222264 -0.0722247,0.283343 0.01944511,0.394458 l 7.6669295,9.4669851 c 0.1333379,0.163895 0.3833465,0.163895 0.5166844,0 L 15.935163,5.5661319 c 0.09167,-0.1138928 0.100004,-0.2722316 0.01945,-0.394458 l -2.7751,-4.0890286 c -0.06389,-0.094448 -0.166672,-0.15000503 -0.280565,-0.15000503 z m -0.536129,1.33337843 1.758393,2.6667581 h -1.900065 l -1.43616,-2.6667581 z m -5.6140818,0 H 9.268268 l 1.43616,2.6667581 H 5.3153548 Z m -3.0917726,0 H 5.2347964 L 3.7986361,4.9327768 H 1.898571 Z M 2.4624792,6.2661559 h 1.4278267 l 1.8972873,4.4445931 z m 2.8584313,0 H 10.698873 L 8.0098916,13.024715 Z M 10.23219,10.710749 12.126699,6.2661559 h 1.427827 z"
     id="path830"
     style="fill:#353a40;fill-opacity:1;stroke-width:1" />
</svg>
