<?xml version="1.0" encoding="UTF-8" standalone="no"?>
<svg
   xmlns:dc="http://purl.org/dc/elements/1.1/"
   xmlns:cc="http://creativecommons.org/ns#"
   xmlns:rdf="http://www.w3.org/1999/02/22-rdf-syntax-ns#"
   xmlns:svg="http://www.w3.org/2000/svg"
   xmlns="http://www.w3.org/2000/svg"
   xmlns:sodipodi="http://sodipodi.sourceforge.net/DTD/sodipodi-0.dtd"
   xmlns:inkscape="http://www.inkscape.org/namespaces/inkscape"
   viewBox="0 0 24 24"
   version="1.1"
   id="svg839"
   sodipodi:docname="import24.svg"
   inkscape:version="1.0.1 (c497b03c, 2020-09-10)"
   width="24"
   height="24">
  <metadata
     id="metadata845">
    <rdf:RDF>
      <cc:Work
         rdf:about="">
        <dc:format>image/svg+xml</dc:format>
        <dc:type
           rdf:resource="http://purl.org/dc/dcmitype/StillImage" />
        <dc:title></dc:title>
      </cc:Work>
    </rdf:RDF>
  </metadata>
  <defs
     id="defs843" />
  <sodipodi:namedview
     pagecolor="#ffffff"
     bordercolor="#666666"
     borderopacity="1"
     objecttolerance="10"
     gridtolerance="10"
     guidetolerance="10"
     inkscape:pageopacity="0"
     inkscape:pageshadow="2"
     inkscape:window-width="1288"
     inkscape:window-height="772"
     id="namedview841"
     showgrid="false"
     inkscape:zoom="15.898882"
     inkscape:cx="12"
     inkscape:cy="12"
     inkscape:window-x="0"
     inkscape:window-y="23"
     inkscape:window-maximized="0"
     inkscape:current-layer="g837" />
  <g
     id="g837">
    <path
       id="rect847"
       style="fill:#fffffc;fill-opacity:1;fill-rule:evenodd;stroke-width:4.40315;stroke-linecap:round;paint-order:markers fill stroke"
       d="M 4.2770305,3.3964653 H 15.638515 l 3.361485,4 V 20 H 4.2770305 Z"
       sodipodi:nodetypes="cccccc" />
    <path
       fill="none"
       d="M0 0h24v24H0z"
       id="path833" />
    <path
       d="M15 4H5v16h14V8h-4V4zM3 2.992C3 2.444 3.447 2 3.999 2H16l5 5v13.993A1 1 0 0 1 20.007 22H3.993A1 1 0 0 1 3 21.008V2.992zM11 11V8h2v3h3v2h-3v3h-2v-3H8v-2h3z"
       id="path835"
       style="fill:#353a40;fill-opacity:1" />
  </g>
</svg>
