<?xml version="1.0" encoding="UTF-8" standalone="no"?>
<svg
   viewBox="0 0 24 24"
   version="1.1"
   id="svg832"
   sodipodi:docname="jog-to24.svg"
   width="24"
   height="24"
   inkscape:version="1.1-dev (0486c1a, 2020-10-10)"
   xmlns:inkscape="http://www.inkscape.org/namespaces/inkscape"
   xmlns:sodipodi="http://sodipodi.sourceforge.net/DTD/sodipodi-0.dtd"
   xmlns="http://www.w3.org/2000/svg"
   xmlns:svg="http://www.w3.org/2000/svg"
   xmlns:rdf="http://www.w3.org/1999/02/22-rdf-syntax-ns#"
   xmlns:cc="http://creativecommons.org/ns#"
   xmlns:dc="http://purl.org/dc/elements/1.1/">
  <metadata
     id="metadata5252">
    <rdf:RDF>
      <cc:Work
         rdf:about="">
        <dc:format>image/svg+xml</dc:format>
        <dc:type
           rdf:resource="http://purl.org/dc/dcmitype/StillImage" />
      </cc:Work>
    </rdf:RDF>
  </metadata>
  <defs
     id="defs836" />
  <sodipodi:namedview
     pagecolor="#ffffff"
     bordercolor="#666666"
     borderopacity="1"
     objecttolerance="10"
     gridtolerance="10"
     guidetolerance="10"
     inkscape:pageopacity="0"
     inkscape:pageshadow="2"
     inkscape:window-width="1680"
     inkscape:window-height="963"
     id="namedview834"
     showgrid="false"
     width="24px"
     inkscape:zoom="25.386234"
     inkscape:cx="14.653611"
     inkscape:cy="9.0797242"
     inkscape:window-x="219"
     inkscape:window-y="104"
     inkscape:window-maximized="0"
     inkscape:current-layer="svg832"
     inkscape:document-rotation="0" />
  <!-- Font Awesome Free 5.15.2 by @fontawesome - https://fontawesome.com License - https://fontawesome.com/license/free (Icons: CC BY 4.0, Fonts: SIL OFL 1.1, Code: MIT License) -->
  <path
     d="m 10.05,10.268177 c -2.0339094,0 -3.6818228,1.647895 -3.6818228,3.681823 0,2.033889 1.6479141,3.68184 3.6818228,3.68184 2.033908,0 3.681823,-1.647951 3.681823,-3.68184 0,-2.033928 -1.647915,-3.681823 -3.681823,-3.681823 z"
     id="path830-2"
     style="fill:none;fill-opacity:1;stroke:#353a40;stroke-width:1.70078;stroke-miterlimit:4;stroke-dasharray:none;stroke-opacity:1"
     sodipodi:nodetypes="sssss" />
  <path
     style="fill:none;stroke:#353a40;stroke-width:1.6292;stroke-linecap:round;stroke-linejoin:miter;stroke-miterlimit:4;stroke-dasharray:none;stroke-opacity:1"
     d="M 1.7937274,13.95 H 18.306273"
     id="path835"
     sodipodi:nodetypes="cc" />
  <path
     style="fill:none;stroke:#353a40;stroke-width:1.62898;stroke-linecap:round;stroke-linejoin:miter;stroke-miterlimit:4;stroke-dasharray:none;stroke-opacity:1"
     d="M 10.05,5.6937901 V 22.20621"
     id="path835-9"
     sodipodi:nodetypes="cc" />
  <path
     style="fill:#353a40;fill-opacity:1;stroke:none;stroke-width:1;stroke-opacity:1"
     id="path848"
     d="m 15.430652,9.3445096 5.499999,-4e-7 c 0.302998,1e-7 0.577002,-0.1830063 0.693001,-0.4630008 0.117,-0.2799996 0.05201,-0.6029969 -0.162999,-0.8170002 L 19.415721,6.0195766 23.187107,2.2475951 c 0,0 0.615376,-0.742147 -0.01275,-1.3703124 C 22.546194,0.2491205 21.744158,0.8036566 21.744158,0.8036566 L 18.012075,4.6159289 15.960653,2.564506 C 15.746667,2.3495045 15.423654,2.2864972 15.143651,2.4015053 c -0.279999,0.115995 -0.462999,0.388998 -0.462999,0.6929985 v 5.500001 c 0,0.4139996 0.336001,0.749999 0.75,0.7500074 z"
     inkscape:connector-curvature="0"
     sodipodi:nodetypes="cscccczccccsscc" />
</svg>
