<?xml version="1.0" encoding="UTF-8" standalone="no"?>
<svg
   aria-hidden="true"
   focusable="false"
   data-prefix="far"
   data-icon="object-entityGroup"
   class="svg-inline--fa fa-object-entityGroup fa-w-16"
   role="img"
   viewBox="0 0 16 16"
   version="1.1"
   id="svg832"
   sodipodi:docname="jog-to-top-right.svg"
   inkscape:version="1.2.2 (b0a8486541, 2022-12-01)"
   width="16"
   height="16"
   xmlns:inkscape="http://www.inkscape.org/namespaces/inkscape"
   xmlns:sodipodi="http://sodipodi.sourceforge.net/DTD/sodipodi-0.dtd"
   xmlns="http://www.w3.org/2000/svg"
   xmlns:svg="http://www.w3.org/2000/svg">
  <defs
     id="defs836" />
  <sodipodi:namedview
     pagecolor="#ffffff"
     bordercolor="#666666"
     borderopacity="1"
     objecttolerance="10"
     gridtolerance="10"
     guidetolerance="10"
     inkscape:pageopacity="0"
     inkscape:pageshadow="2"
     inkscape:window-width="2510"
     inkscape:window-height="1289"
     id="namedview834"
     showgrid="false"
     inkscape:zoom="13.94"
     inkscape:cx="-17.934003"
     inkscape:cy="1.3629842"
     inkscape:window-x="2516"
     inkscape:window-y="86"
     inkscape:window-maximized="0"
     inkscape:current-layer="svg832"
     width="16px"
     inkscape:showpageshadow="2"
     inkscape:pagecheckerboard="0"
     inkscape:deskcolor="#d1d1d1" />
  <path
     fill="currentColor"
     d="M 15.625,3.039211 C 15.832094,3.039211 16,2.8713051 16,2.664212 V 0.4142194 C 16,0.2071265 15.832094,0.0392208 15.625,0.0392208 h -2.25 C 13.167906,0.0392208 13,0.2071265 13,0.4142194 V 0.7892178 H 2.9999999 V 0.4142194 C 2.9999999,0.2071265 2.8320938,0.0392208 2.625,0.0392208 H 0.375 C 0.16790625,0.0392208 0,0.2071265 0,0.4142194 V 2.664212 C 0,2.8713051 0.16790625,3.039211 0.375,3.039211 H 0.75 v 9.999975 H 0.375 C 0.16790625,13.039186 0,13.207091 0,13.414184 v 2.249994 c 0,0.207093 0.16790625,0.374999 0.375,0.374999 h 2.25 c 0.2070938,0 0.3749999,-0.167906 0.3749999,-0.374999 V 15.289179 H 13 v 0.374999 c 0,0.207093 0.167906,0.374999 0.375,0.374999 h 2.25 c 0.207094,0 0.375,-0.167906 0.375,-0.374999 v -2.249994 c 0,-0.207093 -0.167906,-0.374998 -0.375,-0.374998 H 15.25 V 3.039211 Z M 14,1.0392167 h 1 v 0.999997 h -1 z m -13,0 h 1 v 0.999997 H 1 Z M 2,15.03918 H 1 v -0.999998 h 1 z m 13,0 h -1 v -0.999998 h 1 z m -1.25,-1.999994 h -0.375 c -0.207094,0 -0.375,0.167905 -0.375,0.374998 v 0.374999 H 2.9999999 v -0.374999 c 0,-0.207093 -0.1679061,-0.374998 -0.3749999,-0.374998 H 2.25 V 3.039211 h 0.375 c 0.2070938,0 0.3749999,-0.1679059 0.3749999,-0.374999 V 2.289213 H 13 v 0.374999 c 0,0.2070931 0.167906,0.374999 0.375,0.374999 h 0.375 z"
     id="path830"
     style="fill:#353a40;fill-opacity:1;stroke-width:0.499997"
     sodipodi:nodetypes="ssssssccssssssccssssssccssssssccscccccccccccccccccccccssccssccssccsscc" />
  <path
     style="fill:#353a40;fill-opacity:1;stroke:none;stroke-width:0.56972;stroke-opacity:1"
     id="path848-3"
     d="M 11.57271,4.0196154 H 8.4392435 c -0.172625,0 -0.3287305,0.104263 -0.394818,0.2637805 -0.066657,0.1595225 -0.029625,0.3435405 0.092865,0.465463 l 1.16504,1.165041 -2.1486375,2.1489775 c 0,0 -0.3505925,0.4228165 0.00725,0.7806955 0.357878,0.357878 0.814815,0.041945 0.814815,0.041945 l 2.126259,-2.1719325 1.168739,1.168739 c 0.121912,0.1224905 0.30594,0.1583865 0.465464,0.092863 C 11.895741,7.9091049 12,7.7535679 12,7.5803724 v -3.133468 c 0,-0.235864 -0.191427,-0.427289 -0.42729,-0.427294 z"
     inkscape:connector-curvature="0"
     sodipodi:nodetypes="cscccczccccsscc" />
</svg>
