<?xml version="1.0" encoding="UTF-8" standalone="no"?>
<svg
   viewBox="0 0 16 16"
   version="1.1"
   id="svg832"
   sodipodi:docname="jog-to.svg"
   width="16"
   height="16"
   inkscape:version="1.1-dev (0486c1a, 2020-10-10)"
   xmlns:inkscape="http://www.inkscape.org/namespaces/inkscape"
   xmlns:sodipodi="http://sodipodi.sourceforge.net/DTD/sodipodi-0.dtd"
   xmlns="http://www.w3.org/2000/svg"
   xmlns:svg="http://www.w3.org/2000/svg"
   xmlns:rdf="http://www.w3.org/1999/02/22-rdf-syntax-ns#"
   xmlns:cc="http://creativecommons.org/ns#"
   xmlns:dc="http://purl.org/dc/elements/1.1/">
  <metadata
     id="metadata5252">
    <rdf:RDF>
      <cc:Work
         rdf:about="">
        <dc:format>image/svg+xml</dc:format>
        <dc:type
           rdf:resource="http://purl.org/dc/dcmitype/StillImage" />
      </cc:Work>
    </rdf:RDF>
  </metadata>
  <defs
     id="defs836" />
  <sodipodi:namedview
     pagecolor="#ffffff"
     bordercolor="#666666"
     borderopacity="1"
     objecttolerance="10"
     gridtolerance="10"
     guidetolerance="10"
     inkscape:pageopacity="0"
     inkscape:pageshadow="2"
     inkscape:window-width="1680"
     inkscape:window-height="963"
     id="namedview834"
     showgrid="false"
     width="16px"
     inkscape:zoom="22.1"
     inkscape:cx="14.660633"
     inkscape:cy="4.0045249"
     inkscape:window-x="219"
     inkscape:window-y="104"
     inkscape:window-maximized="0"
     inkscape:current-layer="svg832"
     inkscape:document-rotation="0" />
  <!-- Font Awesome Free 5.15.2 by @fontawesome - https://fontawesome.com License - https://fontawesome.com/license/free (Icons: CC BY 4.0, Fonts: SIL OFL 1.1, Code: MIT License) -->
  <path
     d="m 6.7,6.8454514 c -1.3559397,0 -2.4545486,1.0985966 -2.4545486,2.4545486 0,1.355926 1.0986094,2.45456 2.4545486,2.45456 1.3559389,0 2.4545486,-1.098634 2.4545486,-2.45456 C 9.1545486,7.944048 8.0559389,6.8454514 6.7,6.8454514 Z"
     id="path830-2"
     style="fill:none;fill-opacity:1;stroke:#353a40;stroke-width:1.13385;stroke-miterlimit:4;stroke-dasharray:none;stroke-opacity:1"
     sodipodi:nodetypes="sssss" />
  <path
     style="fill:none;stroke:#353a40;stroke-width:1.08613;stroke-linecap:round;stroke-linejoin:miter;stroke-miterlimit:4;stroke-dasharray:none;stroke-opacity:1"
     d="M 1.1958182,9.3 H 12.204182"
     id="path835"
     sodipodi:nodetypes="cc" />
  <path
     style="fill:none;stroke:#353a40;stroke-width:1.08599;stroke-linecap:round;stroke-linejoin:miter;stroke-miterlimit:4;stroke-dasharray:none;stroke-opacity:1"
     d="M 6.7,3.79586 V 14.80414"
     id="path835-9"
     sodipodi:nodetypes="cc" />
  <path
     style="fill:#353a40;fill-opacity:1;stroke:none;stroke-width:0.666667;stroke-opacity:1"
     id="path848"
     d="m 10.287101,6.229673 3.666666,-3e-7 c 0.201999,1e-7 0.384668,-0.1220042 0.462001,-0.3086672 0.078,-0.1866664 0.03467,-0.4019979 -0.108666,-0.5446668 L 12.943814,4.013051 15.458071,1.4983967 c 0,0 0.410251,-0.4947647 -0.0085,-0.91354161 -0.418775,-0.4187748 -0.953466,-0.0490841 -0.953466,-0.0490841 L 12.00805,3.0772859 10.640435,1.7096706 C 10.497778,1.5663363 10.282436,1.5243314 10.095767,1.6010035 9.9091011,1.6783335 9.7871011,1.8603355 9.7871011,2.0630025 v 3.6666673 c 0,0.2759997 0.2240009,0.4999993 0.4999999,0.5000049 z"
     inkscape:connector-curvature="0"
     sodipodi:nodetypes="cscccczccccsscc" />
</svg>
