<?xml version="1.0" encoding="UTF-8" standalone="no"?>
<svg
   height="16"
   viewBox="0 0 16 16"
   width="16"
   id="svg2"
   version="1.1"
   style="fill:#565656"
   xmlns="http://www.w3.org/2000/svg"
   xmlns:svg="http://www.w3.org/2000/svg">
  <defs
     id="defs10" />
  <path
     d="M 16,0 16,16 0,16 0,0 16,0 Z"
     id="path4"
     style="fill:none" />
  <path
     d="m 8.0000001,2.6 c 1.14,0 2.0666669,0.926667 2.0666669,2.066667 l 0,2.666666 1.266666,0 0,-2.666666 c 0,-1.84 -1.4933329,-3.3333338 -3.3333329,-3.3333338 -1.84,0 -3.333333,1.4933338 -3.333333,3.3333338 l 0,2.666666 1.266666,0 0,-2.666666 c 0,-1.14 0.926667,-2.066667 2.066667,-2.066667 z m -0.666667,2.733333 0,5.333334 1.333334,0 0,-5.333334 -1.333334,0 z m 3.9999999,6 0,-2.666666 -1.266666,0 0,2.666666 c 0,1.14 -0.9266669,2.066667 -2.0666669,2.066667 -1.14,0 -2.066667,-0.926667 -2.066667,-2.066667 l 0,-2.666666 -1.266666,0 0,2.666666 c 0,1.84 1.493333,3.333334 3.333333,3.333334 1.84,0 3.3333329,-1.493334 3.3333329,-3.333334 z"
     id="path6"
     style="fill:#565656;fill-opacity:1" />
</svg>
