<?xml version="1.0" encoding="UTF-8" standalone="no"?>
<svg
   xmlns:dc="http://purl.org/dc/elements/1.1/"
   xmlns:cc="http://creativecommons.org/ns#"
   xmlns:rdf="http://www.w3.org/1999/02/22-rdf-syntax-ns#"
   xmlns:svg="http://www.w3.org/2000/svg"
   xmlns="http://www.w3.org/2000/svg"
   xmlns:sodipodi="http://sodipodi.sourceforge.net/DTD/sodipodi-0.dtd"
   xmlns:inkscape="http://www.inkscape.org/namespaces/inkscape"
   height="16"
   viewBox="0 0 16 16"
   width="16"
   id="svg2"
   version="1.1"
   inkscape:version="0.91 r13725"
   sodipodi:docname="link.svg"
   style="fill:#000000">
  <metadata
     id="metadata12">
    <rdf:RDF>
      <cc:Work
         rdf:about="">
        <dc:format>image/svg+xml</dc:format>
        <dc:type
           rdf:resource="http://purl.org/dc/dcmitype/StillImage" />
        <dc:title></dc:title>
      </cc:Work>
    </rdf:RDF>
  </metadata>
  <defs
     id="defs10" />
  <sodipodi:namedview
     pagecolor="#ffffff"
     bordercolor="#666666"
     borderopacity="1"
     objecttolerance="10"
     gridtolerance="10"
     guidetolerance="10"
     inkscape:pageopacity="0"
     inkscape:pageshadow="2"
     inkscape:window-width="1376"
     inkscape:window-height="671"
     id="namedview8"
     showgrid="false"
     inkscape:zoom="9.8333333"
     inkscape:cx="-1.5254237"
     inkscape:cy="12"
     inkscape:window-x="0"
     inkscape:window-y="0"
     inkscape:window-maximized="0"
     inkscape:current-layer="svg2" />
  <path
     d="M 16,0 16,16 0,16 0,0 16,0 Z"
     id="path4"
     inkscape:connector-curvature="0"
     style="fill:none" />
  <path
     d="m 8.0000001,2.6 c 1.14,0 2.0666669,0.926667 2.0666669,2.066667 l 0,2.666666 1.266666,0 0,-2.666666 c 0,-1.84 -1.4933329,-3.3333338 -3.3333329,-3.3333338 -1.84,0 -3.333333,1.4933338 -3.333333,3.3333338 l 0,2.666666 1.266666,0 0,-2.666666 c 0,-1.14 0.926667,-2.066667 2.066667,-2.066667 z m -0.666667,2.733333 0,5.333334 1.333334,0 0,-5.333334 -1.333334,0 z m 3.9999999,6 0,-2.666666 -1.266666,0 0,2.666666 c 0,1.14 -0.9266669,2.066667 -2.0666669,2.066667 -1.14,0 -2.066667,-0.926667 -2.066667,-2.066667 l 0,-2.666666 -1.266666,0 0,2.666666 c 0,1.84 1.493333,3.333334 3.333333,3.333334 1.84,0 3.3333329,-1.493334 3.3333329,-3.333334 z"
     id="path6"
     inkscape:connector-curvature="0"
     style="fill:#353a40;fill-opacity:1" />
</svg>
