<?xml version="1.0" encoding="UTF-8" standalone="no"?>
<svg
   viewBox="0 0 32 32"
   width="32"
   height="32"
   version="1.1"
   id="svg837"
   xmlns="http://www.w3.org/2000/svg"
   xmlns:svg="http://www.w3.org/2000/svg"
   xmlns:rdf="http://www.w3.org/1999/02/22-rdf-syntax-ns#"
   xmlns:cc="http://creativecommons.org/ns#"
   xmlns:dc="http://purl.org/dc/elements/1.1/">
  <metadata
     id="metadata843">
    <rdf:RDF>
      <cc:Work
         rdf:about="">
        <dc:format>image/svg+xml</dc:format>
        <dc:type
           rdf:resource="http://purl.org/dc/dcmitype/StillImage" />
      </cc:Work>
    </rdf:RDF>
  </metadata>
  <defs
     id="defs841" />
  <path
     fill="none"
     d="M 0,0 H 32 V 32 H 0 Z"
     id="path833"
     style="stroke-width:1.33333" />
  <path
     d="M 4,4 H 8 V 8 H 4 Z"
     id="path835"
     style="stroke-width:1.33333;fill:#353a40" />
  <path
     d="m 10.666667,4 h 4 v 4 h -4 z"
     id="path835-0"
     style="stroke-width:1.33333;fill:#353a40" />
  <path
     d="m 17.333335,4 h 3.999998 v 4 h -3.999998 z"
     id="path835-0-7"
     style="stroke-width:1.33333;fill:#353a40" />
  <path
     d="m 24,4 h 4 v 4 h -4 z"
     id="path835-0-2"
     style="stroke-width:1.33333;fill:#353a40" />
  <path
     d="m 4,10.666667 h 4 v 4 H 4 Z"
     id="path835-1"
     style="stroke-width:1.33333;fill:#353a40" />
  <path
     d="m 10.666667,10.666667 h 4 v 4 h -4 z"
     id="path835-0-3"
     style="stroke-width:1.33333;fill:#353a40" />
  <path
     d="m 17.333335,10.666667 h 3.999998 v 4 h -3.999998 z"
     id="path835-0-7-5"
     style="stroke-width:1.33333;fill:#353a40" />
  <path
     d="m 24,10.666667 h 4 v 4 h -4 z"
     id="path835-0-2-4"
     style="stroke-width:1.33333;fill:#353a40" />
  <path
     d="m 4,17.333333 h 4 v 4 H 4 Z"
     id="path835-5"
     style="stroke-width:1.33333;fill:#353a40" />
  <path
     d="m 10.666667,17.333333 h 4 v 4 h -4 z"
     id="path835-0-4"
     style="stroke-width:1.33333;fill:#353a40" />
  <path
     d="m 17.333335,17.333333 h 3.999998 v 4 h -3.999998 z"
     id="path835-0-7-0"
     style="stroke-width:1.33333;fill:#353a40" />
  <path
     d="m 24,17.333333 h 4 v 4 h -4 z"
     id="path835-0-2-47"
     style="stroke-width:1.33333;fill:#353a40" />
  <path
     d="m 4,24 h 4 v 4 H 4 Z"
     id="path835-4"
     style="stroke-width:1.33333;fill:#353a40" />
  <path
     d="m 10.666667,24 h 4.000001 v 4 h -4.000001 z"
     id="path835-0-5"
     style="stroke-width:1.33333;fill:#353a40" />
  <path
     d="m 17.333336,24 h 3.999999 v 4 h -3.999999 z"
     id="path835-0-7-1"
     style="stroke-width:1.33333;fill:#353a40" />
  <path
     d="m 24.000001,24 h 4 v 4 h -4 z"
     id="path835-0-2-8"
     style="stroke-width:1.33333;fill:#353a40" />
</svg>
