<?xml version="1.0" encoding="UTF-8" standalone="no"?>
<svg
   viewBox="0 0 24 24"
   width="24"
   height="24"
   version="1.1"
   id="svg837"
   xmlns="http://www.w3.org/2000/svg">
  <defs
     id="defs841" />
  <path
     fill="none"
     d="M0 0h24v24H0z"
     id="path833" />
  <path
     d="M 3,3 H 6 V 6 H 3 Z"
     id="path835"
     style="fill:#afb1b3" />
  <path
     d="m 8,3 h 3 V 6 H 8 Z"
     id="path835-0"
     style="fill:#afb1b3" />
  <path
     d="M 13.000001,3 H 16 v 3 h -2.999999 z"
     id="path835-0-7"
     style="fill:#afb1b3" />
  <path
     d="m 18,3 h 3 v 3 h -3 z"
     id="path835-0-2"
     style="fill:#afb1b3" />
  <path
     d="m 3,8 h 3 v 3 H 3 Z"
     id="path835-1"
     style="fill:#afb1b3" />
  <path
     d="m 8,8 h 3 v 3 H 8 Z"
     id="path835-0-3"
     style="fill:#afb1b3" />
  <path
     d="M 13.000001,8 H 16 v 3 h -2.999999 z"
     id="path835-0-7-5"
     style="fill:#afb1b3" />
  <path
     d="m 18,8 h 3 v 3 h -3 z"
     id="path835-0-2-4"
     style="fill:#afb1b3" />
  <path
     d="m 3,13 h 3 v 3 H 3 Z"
     id="path835-5"
     style="fill:#afb1b3" />
  <path
     d="m 8,13 h 3 v 3 H 8 Z"
     id="path835-0-4"
     style="fill:#afb1b3" />
  <path
     d="M 13.000001,13 H 16 v 3 h -2.999999 z"
     id="path835-0-7-0"
     style="fill:#afb1b3" />
  <path
     d="m 18,13 h 3 v 3 h -3 z"
     id="path835-0-2-47"
     style="fill:#afb1b3" />
  <path
     d="m 3,18 h 3 v 3 H 3 Z"
     id="path835-4"
     style="fill:#afb1b3" />
  <path
     d="m 8,18 h 3.000001 v 3 H 8 Z"
     id="path835-0-5"
     style="fill:#afb1b3" />
  <path
     d="m 13.000002,18 h 2.999999 v 3 h -2.999999 z"
     id="path835-0-7-1"
     style="fill:#afb1b3" />
  <path
     d="m 18.000001,18 h 3 v 3 h -3 z"
     id="path835-0-2-8"
     style="fill:#afb1b3" />
</svg>
