<?xml version="1.0" encoding="UTF-8" standalone="no"?>
<svg
   viewBox="0 0 16 16.000001"
   width="16"
   height="16"
   version="1.1"
   id="svg837"
   xmlns="http://www.w3.org/2000/svg"
   xmlns:svg="http://www.w3.org/2000/svg"
   xmlns:rdf="http://www.w3.org/1999/02/22-rdf-syntax-ns#"
   xmlns:cc="http://creativecommons.org/ns#"
   xmlns:dc="http://purl.org/dc/elements/1.1/">
  <metadata
     id="metadata843">
    <rdf:RDF>
      <cc:Work
         rdf:about="">
        <dc:format>image/svg+xml</dc:format>
        <dc:type
           rdf:resource="http://purl.org/dc/dcmitype/StillImage" />
      </cc:Work>
    </rdf:RDF>
  </metadata>
  <defs
     id="defs841" />
  <path
     fill="none"
     d="M 0,0 H 16 V 16 H 0 Z"
     id="path833"
     style="stroke-width:0.666665" />
  <path
     d="M 2,2 H 4 V 4 H 2 Z"
     id="path835"
     style="stroke-width:0.666665;fill:#353a40;fill-opacity:1" />
  <path
     d="m 5.3333335,2 h 2 v 2 h -2 z"
     id="path835-0"
     style="stroke-width:0.666665;fill:#353a40;fill-opacity:1" />
  <path
     d="M 8.6666675,2 H 10.666667 V 4 H 8.6666675 Z"
     id="path835-0-7"
     style="stroke-width:0.666665;fill:#353a40;fill-opacity:1" />
  <path
     d="m 12,2 h 2 v 2 h -2 z"
     id="path835-0-2"
     style="stroke-width:0.666665;fill:#353a40;fill-opacity:1" />
  <path
     d="m 2,5.3333335 h 2 v 2 H 2 Z"
     id="path835-1"
     style="stroke-width:0.666665;fill:#353a40;fill-opacity:1" />
  <path
     d="m 5.3333335,5.3333335 h 2 v 2 h -2 z"
     id="path835-0-3"
     style="stroke-width:0.666665;fill:#353a40;fill-opacity:1" />
  <path
     d="m 8.6666675,5.3333335 h 1.9999995 v 2 H 8.6666675 Z"
     id="path835-0-7-5"
     style="stroke-width:0.666665;fill:#353a40;fill-opacity:1" />
  <path
     d="m 12,5.3333335 h 2 v 2 h -2 z"
     id="path835-0-2-4"
     style="stroke-width:0.666665;fill:#353a40;fill-opacity:1" />
  <path
     d="M 2,8.6666665 H 4 V 10.666667 H 2 Z"
     id="path835-5"
     style="stroke-width:0.666665;fill:#353a40;fill-opacity:1" />
  <path
     d="m 5.3333335,8.6666665 h 2 v 2.0000005 h -2 z"
     id="path835-0-4"
     style="stroke-width:0.666665;fill:#353a40;fill-opacity:1" />
  <path
     d="M 8.6666675,8.6666665 H 10.666667 V 10.666667 H 8.6666675 Z"
     id="path835-0-7-0"
     style="stroke-width:0.666665;fill:#353a40;fill-opacity:1" />
  <path
     d="m 12,8.6666665 h 2 v 2.0000005 h -2 z"
     id="path835-0-2-47"
     style="stroke-width:0.666665;fill:#353a40;fill-opacity:1" />
  <path
     d="m 2,12 h 2 v 2 H 2 Z"
     id="path835-4"
     style="stroke-width:0.666665;fill:#353a40;fill-opacity:1" />
  <path
     d="M 5.3333335,12 H 7.333334 v 2 H 5.3333335 Z"
     id="path835-0-5"
     style="stroke-width:0.666665;fill:#353a40;fill-opacity:1" />
  <path
     d="m 8.666668,12 h 1.999999 v 2 H 8.666668 Z"
     id="path835-0-7-1"
     style="stroke-width:0.666665;fill:#353a40;fill-opacity:1" />
  <path
     d="m 12.000001,12 h 2 v 2 h -2 z"
     id="path835-0-2-8"
     style="stroke-width:0.666665;fill:#353a40;fill-opacity:1" />
</svg>
