<?xml version="1.0" encoding="iso-8859-1"?>
<!-- Uploaded to: SVG Repo, www.svgrepo.com, Generator: SVG Repo Mixer Tools -->
<svg height="16px" width="16px" version="1.1" id="Layer_1" xmlns="http://www.w3.org/2000/svg" xmlns:xlink="http://www.w3.org/1999/xlink"
	 viewBox="0 0 512 512" xml:space="preserve">
<path d="M512,422.4c0,4.693-3.84,8.533-8.533,8.533h-409.6c-2.475,0-4.779-1.024-6.4-2.901l-24.917-28.16
	c-1.451-1.536-2.219-3.499-2.219-5.547l-0.341-69.376c0-2.304,0.853-4.437,2.475-6.059l30.635-30.549
	c1.536-1.621,3.755-2.475,5.973-2.475H179.2V115.2c0-2.304,0.939-4.437,2.475-6.059l25.6-25.6c1.621-1.536,3.755-2.475,6.059-2.475
	H307.2c2.304,0,4.437,0.939,6.059,2.475l25.6,25.6c1.536,1.621,2.475,3.755,2.475,6.059v170.667h162.133
	c4.693,0,8.533,3.84,8.533,8.533s-3.84,8.533-8.533,8.533H332.8c-4.693,0-8.533-3.84-8.533-8.533V118.699l-20.565-20.565h-86.869
	l-20.565,20.565V294.4c0,4.693-3.84,8.533-8.533,8.533h-85.077l-25.6,25.515l0.341,62.549l20.309,22.869h405.76
	C508.16,413.867,512,417.707,512,422.4z"/>
<path d="M512,482.133c0,4.693-3.84,8.533-8.533,8.533h-435.2c-2.219,0-4.437-0.853-6.059-2.475L2.304,428.288
	C0.853,426.667,0,424.619,0,422.4v-128c0-2.304,0.939-4.437,2.475-6.059l59.733-59.733c1.621-1.536,3.755-2.475,6.059-2.475h51.2
	V98.816c0-2.304,0.853-4.437,2.475-6.059l68.949-68.949c1.621-1.536,3.755-2.475,6.059-2.475h128c2.219,0,4.437,0.939,6.059,2.56
	l67.584,68.267c1.621,1.536,2.475,3.755,2.475,5.973v128h102.4c4.693,0,8.533,3.84,8.533,8.533c0,4.693-3.84,8.533-8.533,8.533
	H392.533c-4.693,0-8.533-3.84-8.533-8.533V101.632L321.365,38.4H200.448l-63.915,63.915v132.352c0,2.304-0.939,4.437-2.475,6.059
	c-1.621,1.536-3.755,2.475-6.059,2.475H71.765l-54.699,54.699v121.088L71.765,473.6h431.701C508.16,473.6,512,477.44,512,482.133z"
	/>
<path style="fill:#9B0045;" d="M512,294.4v34.133H298.667V132.267h-102.4v-13.568l20.565-20.565h86.869l20.565,20.565V294.4
	c0,4.693,3.84,8.533,8.533,8.533h170.667C508.16,302.933,512,299.093,512,294.4z"/>
<path style="fill:#CC004E;" d="M512,328.533V422.4c0-4.693-3.84-8.533-8.533-8.533H97.707l-20.309-22.869l-0.341-62.549l25.6-25.515
	h85.077c4.693,0,8.533-3.84,8.533-8.533V132.267h102.4v196.267H512z"/>
<path style="fill:#7E939E;" d="M512,234.667v25.6H366.933v-153.6l-51.2-51.2H183.381L200.448,38.4h120.917L384,101.632v133.035
	c0,4.693,3.84,8.533,8.533,8.533h110.933C508.16,243.2,512,239.36,512,234.667z"/>
<path style="fill:#AFAFAF;" d="M341.333,285.867V115.2c0-2.304-0.939-4.437-2.475-6.059l-25.6-25.6
	c-1.621-1.536-3.755-2.475-6.059-2.475h-93.867c-2.304,0-4.437,0.939-6.059,2.475l-25.6,25.6c-1.536,1.621-2.475,3.755-2.475,6.059
	v170.667H99.072c-2.219,0-4.437,0.853-5.973,2.475l-30.635,30.549c-1.621,1.621-2.475,3.755-2.475,6.059l0.341,69.376
	c0,2.048,0.768,4.011,2.219,5.547l24.917,28.16c1.621,1.877,3.925,2.901,6.4,2.901h409.6c4.693,0,8.533-3.84,8.533-8.533v59.733
	c0-4.693-3.84-8.533-8.533-8.533H71.765l-54.699-54.613V297.899L71.765,243.2H128c2.304,0,4.437-0.939,6.059-2.475
	c1.536-1.621,2.475-3.755,2.475-6.059V102.315l46.848-46.848h132.352l51.2,51.2v153.6H512V294.4c0-4.693-3.84-8.533-8.533-8.533
	H341.333z"/>
</svg>