<?xml version="1.0" encoding="UTF-8" standalone="no"?>
<svg
   width="16"
   height="16"
   fill="#565656"
   viewBox="0 0 256 256"
   version="1.1"
   id="svg4"
   xmlns="http://www.w3.org/2000/svg"
   xmlns:svg="http://www.w3.org/2000/svg">
  <defs
     id="defs8" />
  <path
     d="M240,96v80a8,8,0,0,1-8,8H200v32a8,8,0,0,1-8,8H64a8,8,0,0,1-8-8V184H24a8,8,0,0,1-8-8V96c0-13.23,11.36-24,25.33-24H56V40a8,8,0,0,1,8-8H192a8,8,0,0,1,8,8V72h14.67C228.64,72,240,82.77,240,96ZM72,72H184V48H72Zm112,88H72v48H184Zm16-44a12,12,0,1,0-12,12A12,12,0,0,0,200,116Z"
     id="path2" />
</svg>
