<?xml version="1.0" encoding="UTF-8" standalone="no"?>
<svg
   width="16"
   height="16"
   viewBox="0 0 16 16"
   version="1.1"
   id="svg837"
   xmlns="http://www.w3.org/2000/svg"
   xmlns:svg="http://www.w3.org/2000/svg">
  <defs
     id="defs841" />
  <title
     id="title833">ionicons-v5-p</title>
  <path
     d="m 12.461774,0.90609203 a 1.1428539,1.1428539 0 0 0 -0.808212,-0.334642 H 2.22216 A 1.6503525,1.6503525 0 0 0 0.57145003,2.22216 V 13.777841 A 1.6503525,1.6503525 0 0 0 2.22216,15.428551 h 11.555681 a 1.6557096,1.6557096 0 0 0 1.65071,-1.65071 V 4.346439 A 1.1428539,1.1428539 0 0 0 15.093909,3.538227 Z M 8,13.71427 A 2.2857079,2.2857079 0 1 1 10.285708,11.428562 2.2828507,2.2828507 0 0 1 8,13.71427 Z M 9.714281,5.714293 H 2.857158 A 0.57142696,0.57142696 0 0 1 2.285731,5.142866 V 2.857158 A 0.57142696,0.57142696 0 0 1 2.857158,2.285731 h 6.857123 a 0.57142696,0.57142696 0 0 1 0.571427,0.571427 V 5.142866 A 0.57142696,0.57142696 0 0 1 9.714281,5.714293 Z"
     style="fill:none;stroke:#afb1b3;stroke-width:1.1429;stroke-linecap:round;stroke-linejoin:round;stroke-miterlimit:4;stroke-dasharray:none"
     id="path835" />
</svg>
