<?xml version="1.0" encoding="UTF-8" standalone="no"?>
<svg
   aria-hidden="true"
   focusable="false"
   data-prefix="far"
   data-icon="object-entityGroup"
   class="svg-inline--fa fa-object-entityGroup fa-w-16"
   role="img"
   viewBox="0 0 16 16"
   version="1.1"
   id="svg832"
   sodipodi:docname="select-all.svg"
   inkscape:version="1.1-dev (0486c1a, 2020-10-10)"
   width="16"
   height="16"
   xmlns:inkscape="http://www.inkscape.org/namespaces/inkscape"
   xmlns:sodipodi="http://sodipodi.sourceforge.net/DTD/sodipodi-0.dtd"
   xmlns="http://www.w3.org/2000/svg"
   xmlns:svg="http://www.w3.org/2000/svg">
  <defs
     id="defs836" />
  <sodipodi:namedview
     pagecolor="#ffffff"
     bordercolor="#666666"
     borderopacity="1"
     objecttolerance="10"
     gridtolerance="10"
     guidetolerance="10"
     inkscape:pageopacity="0"
     inkscape:pageshadow="2"
     inkscape:window-width="1620"
     inkscape:window-height="1187"
     id="namedview834"
     showgrid="false"
     inkscape:zoom="33.958008"
     inkscape:cx="12.220976"
     inkscape:cy="4.579185"
     inkscape:window-x="109"
     inkscape:window-y="27"
     inkscape:window-maximized="0"
     inkscape:current-layer="svg832"
     width="16px" />
  <path
     fill="currentColor"
     d="M 15.625,3.971779 C 15.832094,3.971779 16,3.8038731 16,3.59678 V 1.3467874 C 16,1.1396945 15.832094,0.97178881 15.625,0.97178881 h -2.25 C 13.167906,0.97178881 13,1.1396945 13,1.3467874 V 1.7217858 H 2.9999999 V 1.3467874 C 2.9999999,1.1396945 2.8320938,0.97178881 2.625,0.97178881 H 0.375 C 0.16790625,0.97178881 0,1.1396945 0,1.3467874 V 3.59678 C 0,3.8038731 0.16790625,3.971779 0.375,3.971779 H 0.75 v 7.999975 H 0.375 C 0.16790625,11.971754 0,12.139659 0,12.346752 v 2.249994 c 0,0.207093 0.16790625,0.374999 0.375,0.374999 h 2.25 c 0.2070938,0 0.3749999,-0.167906 0.3749999,-0.374999 V 14.221747 H 13 v 0.374999 c 0,0.207093 0.167906,0.374999 0.375,0.374999 h 2.25 c 0.207094,0 0.375,-0.167906 0.375,-0.374999 v -2.249994 c 0,-0.207093 -0.167906,-0.374998 -0.375,-0.374998 H 15.25 V 3.971779 Z M 14,1.9717847 h 1 v 0.999997 h -1 z m -13.00000001,0 H 2 v 0.999997 H 0.99999999 Z M 2,13.971748 H 0.99999999 V 12.97175 H 2 Z m 13,0 H 14 V 12.97175 h 1 z m -1.25,-1.999994 h -0.375 c -0.207094,0 -0.375,0.167905 -0.375,0.374998 v 0.374999 H 2.9999999 v -0.374999 c 0,-0.207093 -0.1679061,-0.374998 -0.3749999,-0.374998 H 2.25 V 3.971779 h 0.375 c 0.2070938,0 0.3749999,-0.1679059 0.3749999,-0.374999 V 3.221781 H 13 V 3.59678 c 0,0.2070931 0.167906,0.374999 0.375,0.374999 H 13.75 Z M 12.625,5.9717731 H 9.9999999 V 4.3467783 c 0,-0.2071249 -0.1679065,-0.3749993 -0.3750001,-0.3749993 H 3.375 c -0.2070939,0 -0.3750001,0.1678744 -0.3750001,0.3749993 v 5.2499855 c 0,0.207125 0.1679062,0.374999 0.3750001,0.374999 h 2.6249999 v 1.6249922 c 0,0.207124 0.1679061,0.374999 0.375,0.374999 H 12.625 c 0.207094,0 0.375,-0.167875 0.375,-0.374999 V 6.3467723 C 13,6.139648 12.832094,5.9717731 12.625,5.9717731 Z M 4.25,5.2217754 H 8.7499998 V 8.7217656 H 4.25 Z m 7.5,5.4999826 H 7.25 V 9.9717628 h 2.3749998 c 0.2070936,0 0.3750001,-0.167875 0.3750001,-0.374999 V 7.2217697 H 11.75 Z"
     id="path830"
     style="fill:#0ac9f1;fill-opacity:1;stroke-width:0.999995" />
</svg>
