<?xml version="1.0" encoding="UTF-8" standalone="no"?>
<svg
   xmlns:dc="http://purl.org/dc/elements/1.1/"
   xmlns:cc="http://creativecommons.org/ns#"
   xmlns:rdf="http://www.w3.org/1999/02/22-rdf-syntax-ns#"
   xmlns:svg="http://www.w3.org/2000/svg"
   xmlns="http://www.w3.org/2000/svg"
   xmlns:sodipodi="http://sodipodi.sourceforge.net/DTD/sodipodi-0.dtd"
   xmlns:inkscape="http://www.inkscape.org/namespaces/inkscape"
   height="32"
   width="32"
   id="svg2"
   version="1.1"
   inkscape:version="0.91 r13725"
   sodipodi:docname="trace32.svg">
  <metadata
     id="metadata10">
    <rdf:RDF>
      <cc:Work
         rdf:about="">
        <dc:format>image/svg+xml</dc:format>
        <dc:type
           rdf:resource="http://purl.org/dc/dcmitype/StillImage" />
        <dc:title />
      </cc:Work>
    </rdf:RDF>
  </metadata>
  <defs
     id="defs8" />
  <sodipodi:namedview
     pagecolor="#ffffff"
     bordercolor="#666666"
     borderopacity="1"
     objecttolerance="10"
     gridtolerance="10"
     guidetolerance="10"
     inkscape:pageopacity="0"
     inkscape:pageshadow="2"
     inkscape:window-width="1118"
     inkscape:window-height="760"
     id="namedview6"
     showgrid="false"
     inkscape:zoom="4.9166667"
     inkscape:cx="16.271186"
     inkscape:cy="24"
     inkscape:window-x="0"
     inkscape:window-y="0"
     inkscape:window-maximized="0"
     inkscape:current-layer="svg2" />
  <rect
     style="opacity:1;fill:#ffffff;fill-opacity:1;stroke:none;stroke-width:1;stroke-miterlimit:4;stroke-dasharray:none;stroke-dashoffset:5;stroke-opacity:1"
     id="rect4133"
     width="25.09322"
     height="25.09322"
     x="3.2457628"
     y="3.3050852" />
  <path
     d="m 6.5111111,23.894444 19.0166669,0 -5.716667,-7.622222 -5.133333,6.65 -3.616667,-4.938888 z M 4.3333334,30 Q 3.4,30 2.7,29.3 2,28.6 2,27.666666 L 2,4.3333336 Q 2,3.4 2.7,2.7 3.4,2 4.3333334,2 L 27.666666,2 Q 28.6,2 29.3,2.7 30,3.4 30,4.3333336 L 30,27.666666 Q 30,28.6 29.3,29.3 28.6,30 27.666666,30 Z m 0,-2.333334 23.3333326,0 q 0,0 0,0 0,0 0,0 l 0,-23.3333324 q 0,0 0,0 0,0 0,0 l -23.3333326,0 q 0,0 0,0 0,0 0,0 l 0,23.3333324 q 0,0 0,0 0,0 0,0 z m 0,-23.3333324 q 0,0 0,0 0,0 0,0 l 0,23.3333324 q 0,0 0,0 0,0 0,0 0,0 0,0 0,0 0,0 l 0,-23.3333324 q 0,0 0,0 0,0 0,0 z"
     id="path4"
     style="fill:#353a40;fill-opacity:1"
     inkscape:connector-curvature="0" />
</svg>
