<?xml version="1.0" encoding="UTF-8" standalone="no"?>
<svg
   height="24"
   width="24"
   id="svg2"
   version="1.1"
   xmlns="http://www.w3.org/2000/svg"
   xmlns:svg="http://www.w3.org/2000/svg">
  <defs
     id="defs8" />
  <rect
     style="opacity:1;fill:#ffffff;fill-opacity:1;stroke:none;stroke-width:1;stroke-miterlimit:4;stroke-dasharray:none;stroke-dashoffset:5;stroke-opacity:1"
     id="rect4133"
     width="17.79661"
     height="17.79661"
     x="3.1864407"
     y="3.0169492" />
  <path
     d="m 5.2222222,17.638888 13.5833338,0 -4.083334,-5.444444 -3.666666,4.75 -2.5833342,-3.527777 z M 3.6666667,22 Q 3,22 2.5,21.5 2,21 2,20.333333 L 2,3.6666667 Q 2,3 2.5,2.5 3,2 3.6666667,2 L 20.333333,2 Q 21,2 21.5,2.5 22,3 22,3.6666667 L 22,20.333333 Q 22,21 21.5,21.5 21,22 20.333333,22 Z m 0,-1.666667 16.6666663,0 q 0,0 0,0 0,0 0,0 l 0,-16.6666663 q 0,0 0,0 0,0 0,0 l -16.6666663,0 q 0,0 0,0 0,0 0,0 l 0,16.6666663 q 0,0 0,0 0,0 0,0 z m 0,-16.6666663 q 0,0 0,0 0,0 0,0 l 0,16.6666663 q 0,0 0,0 0,0 0,0 0,0 0,0 0,0 0,0 l 0,-16.6666663 q 0,0 0,0 0,0 0,0 z"
     id="path4"
     style="fill:#353a40;fill-opacity:1" />
</svg>
