<?xml version="1.0" encoding="UTF-8" standalone="no"?>
<svg
   height="32"
   width="32"
   id="svg2"
   version="1.1"
   xmlns="http://www.w3.org/2000/svg"
   xmlns:svg="http://www.w3.org/2000/svg">
  <defs
     id="defs8" />
  <rect
     style="opacity:1;fill:#ffffff;fill-opacity:1;stroke:none;stroke-width:1;stroke-miterlimit:4;stroke-dasharray:none;stroke-dashoffset:5;stroke-opacity:1"
     id="rect4133"
     width="25.09322"
     height="25.09322"
     x="3.2457628"
     y="3.3050852" />
  <path
     d="m 6.5111111,23.894444 19.0166669,0 -5.716667,-7.622222 -5.133333,6.65 -3.616667,-4.938888 z M 4.3333334,30 Q 3.4,30 2.7,29.3 2,28.6 2,27.666666 L 2,4.3333336 Q 2,3.4 2.7,2.7 3.4,2 4.3333334,2 L 27.666666,2 Q 28.6,2 29.3,2.7 30,3.4 30,4.3333336 L 30,27.666666 Q 30,28.6 29.3,29.3 28.6,30 27.666666,30 Z m 0,-2.333334 23.3333326,0 q 0,0 0,0 0,0 0,0 l 0,-23.3333324 q 0,0 0,0 0,0 0,0 l -23.3333326,0 q 0,0 0,0 0,0 0,0 l 0,23.3333324 q 0,0 0,0 0,0 0,0 z m 0,-23.3333324 q 0,0 0,0 0,0 0,0 l 0,23.3333324 q 0,0 0,0 0,0 0,0 0,0 0,0 0,0 0,0 l 0,-23.3333324 q 0,0 0,0 0,0 0,0 z"
     id="path4"
     style="fill:#afb1b3;fill-opacity:1" />
</svg>
