<?xml version="1.0" encoding="UTF-8" standalone="no"?>
<svg
   xmlns:dc="http://purl.org/dc/elements/1.1/"
   xmlns:cc="http://creativecommons.org/ns#"
   xmlns:rdf="http://www.w3.org/1999/02/22-rdf-syntax-ns#"
   xmlns:svg="http://www.w3.org/2000/svg"
   xmlns="http://www.w3.org/2000/svg"
   xmlns:sodipodi="http://sodipodi.sourceforge.net/DTD/sodipodi-0.dtd"
   xmlns:inkscape="http://www.inkscape.org/namespaces/inkscape"
   viewBox="0 0 16 16"
   version="1.1"
   id="svg839"
   sodipodi:docname="zoom-in.svg"
   inkscape:version="1.0.1 (c497b03c, 2020-09-10)"
   width="16"
   height="16">
  <metadata
     id="metadata845">
    <rdf:RDF>
      <cc:Work
         rdf:about="">
        <dc:format>image/svg+xml</dc:format>
        <dc:type
           rdf:resource="http://purl.org/dc/dcmitype/StillImage" />
        <dc:title></dc:title>
      </cc:Work>
    </rdf:RDF>
  </metadata>
  <defs
     id="defs843" />
  <sodipodi:namedview
     pagecolor="#ffffff"
     bordercolor="#666666"
     borderopacity="1"
     objecttolerance="10"
     gridtolerance="10"
     guidetolerance="10"
     inkscape:pageopacity="0"
     inkscape:pageshadow="2"
     inkscape:window-width="1397"
     inkscape:window-height="806"
     id="namedview841"
     showgrid="false"
     inkscape:zoom="22.486095"
     inkscape:cx="12"
     inkscape:cy="12"
     inkscape:window-x="0"
     inkscape:window-y="23"
     inkscape:window-maximized="0"
     inkscape:current-layer="svg839" />
  <g
     id="g837"
     transform="scale(0.66666667)"
     style="fill:#353a40;stroke-width:1.49999">
    <path
       fill="none"
       d="M 0,0 H 24 V 24 H 0 Z"
       id="path833"
       style="stroke-width:1.83712" />
    <path
       d="m 18.031,16.617 4.283,4.282 -1.415,1.415 -4.282,-4.283 A 8.96,8.96 0 0 1 11,20 C 6.032,20 2,15.968 2,11 2,6.032 6.032,2 11,2 c 4.968,0 9,4.032 9,9 a 8.96,8.96 0 0 1 -1.969,5.617 z M 10,10 H 7 v 2 h 3 v 3 h 2 v -3 h 3 V 10 H 12 V 7 h -2 z"
       id="path835"
       style="stroke-width:1.49999" />
  </g>
</svg>
