<?xml version="1.0" encoding="UTF-8" standalone="no"?>
<!-- Created with Inkscape (http://www.inkscape.org/) -->

<svg
   width="32mm"
   height="32mm"
   viewBox="0 0 32 32"
   version="1.1"
   id="svg5"
   xml:space="preserve"
   inkscape:version="1.2.2 (b0a8486541, 2022-12-01)"
   sodipodi:docname="cnc.svg"
   xmlns:inkscape="http://www.inkscape.org/namespaces/inkscape"
   xmlns:sodipodi="http://sodipodi.sourceforge.net/DTD/sodipodi-0.dtd"
   xmlns="http://www.w3.org/2000/svg"
   xmlns:svg="http://www.w3.org/2000/svg"><sodipodi:namedview
     id="namedview7"
     pagecolor="#ffffff"
     bordercolor="#666666"
     borderopacity="1.0"
     inkscape:showpageshadow="2"
     inkscape:pageopacity="0.0"
     inkscape:pagecheckerboard="0"
     inkscape:deskcolor="#d1d1d1"
     inkscape:document-units="mm"
     showgrid="false"
     inkscape:zoom="2"
     inkscape:cx="-165.75"
     inkscape:cy="79.75"
     inkscape:window-width="2279"
     inkscape:window-height="1230"
     inkscape:window-x="1248"
     inkscape:window-y="105"
     inkscape:window-maximized="0"
     inkscape:current-layer="layer1" /><defs
     id="defs2" /><g
     inkscape:label="Layer 1"
     inkscape:groupmode="layer"
     id="layer1"><path
       style="fill:#000000;stroke-width:1"
       d="m 3.4932168,31.992178 c -0.269654,-0.04056 -0.531885,-0.159156 -0.766767,-0.346786 -0.15099,-0.120614 -0.15906,-0.131396 -0.19925,-0.266357 -0.10052,-0.337524 -0.1252,-0.62433 -0.0714,-0.829897 0.016,-0.061 0.471242,-1.00217 1.011741,-2.091483 l 0.982729,-1.980569 -0.187823,-0.385957 C 2.6963998,22.873065 1.5746098,19.872511 0.84493981,16.950041 0.39397978,15.143861 0.14735978,13.626423 0.02618978,11.912283 c -0.0394,-0.55729 -0.0332,-1.97369 0.0109,-2.4884 0.22996,-2.6850798 1.01843002,-4.7332398 2.44982002,-6.3637298 1.105321,-1.25907 2.69603,-2.19414 4.530744,-2.66332 1.494579,-0.38220001 3.2904582,-0.49685001 4.8041492,-0.30670001 1.73831,0.21837001 2.727946,0.86066001 3.829277,1.84316001 1.113532,0.99339 1.895838,2.4429397 2.163633,4.00907 l 0.03512,0.20539 0.710008,0.0128 c 0.197322,0.014 0.42971,0.082 0.582757,0.17046 0.13925,0.0805 0.307924,0.26232 0.391721,0.42225 0.136312,0.26016 0.14253,0.3048 0.153423,1.10137 l 0.0098,0.71605 h 3.053894 3.053895 l 0.0069,-0.72621 c 0.0065,-0.68369 0.0095,-0.73394 0.05142,-0.85825 0.131466,-0.38975 0.415397,-0.67485 0.811935,-0.8153 0.16496,-0.0584 0.516978,-0.0736 0.701194,-0.0302 0.224191,0.0528 0.411374,0.16002 0.58543,0.33528 0.169265,0.17044 0.238839,0.28125 0.320306,0.51018 l 0.05421,0.15235 0.01016,8.0441608 0.01016,8.044157 1.703706,3.402517 c 0.937039,1.871383 1.728814,3.434509 1.759497,3.473613 0.09151,0.116617 0.140202,0.231689 0.16476,0.389353 0.04586,0.29439 -0.0151,0.645141 -0.156502,0.900556 -0.0917,0.165645 -0.338948,0.397889 -0.516565,0.485227 -0.294394,0.144756 0.958024,0.133111 -14.096866,0.131093 -7.4911222,-0.001 -13.6659262,-0.0087 -13.7217882,-0.0171 z m 2.175965,-7.094978 0.434323,-1.697122 v -6.494152 c 0,-5.981083 -0.0027,-6.508813 -0.03395,-6.679733 -0.0301,-0.16452 -0.03081,-0.20636 -0.0062,-0.36856 0.01975,-0.13034 0.03098,-0.51894 0.03905,-1.3509998 l 0.01132,-1.16803 0.0542,-0.15235 c 0.08155,-0.22923 0.151154,-0.33994 0.320292,-0.50948 0.265351,-0.26598 0.567246,-0.37847 0.96343,-0.359 0.260836,0.0128 0.439589,0.0708 0.642445,0.20841 0.249655,0.16935 0.431297,0.43122 0.50851,0.73312 0.03602,0.14084 0.04013,0.2262 0.04013,0.83415 v 0.67726 h 3.0571862 3.057187 v -0.60794 c 0,-0.64226 0.01731,-0.85119 0.08584,-1.03577 0.136358,-0.36729 0.452063,-0.62548 0.863821,-0.70643 0.09217,-0.0181 0.696724,-0.0429 0.696688,-0.0551 -4e-5,-0.0122 -0.03244,-0.14481 -0.07201,-0.29468 C 15.302131,3.0793766 14.357793,1.4940514 10.259969,1.4403926 0.1524524,2.5096847 1.0882644,9.9277875 2.6839868,17.703064 c 0.9711957,3.54846 1.9845545,5.651705 2.985195,7.194136 z M 25.807628,16.635181 v -5.525278 h -3.056449 -3.056447 l -0.006,2.56458 -0.006,2.564584 -0.05209,0.16579 c -0.06815,0.216904 -0.162309,0.369746 -0.31748,0.515364 -0.19604,0.18397 -0.490899,0.303016 -0.752348,0.303752 l -0.106646,3.07e-4 v 0.619563 0.619562 h -1.228969 -1.228968 v -0.619561 -0.619563 l -0.106646,-3.07e-4 c -0.499682,-0.0014 -0.935656,-0.347902 -1.085894,-0.863026 -0.03287,-0.112701 -0.03601,-0.315045 -0.04173,-2.686465 l -0.0062,-2.56458 H 11.699244 8.6427258 v 5.525278 5.52528 h 8.5824662 8.582465 z"
       id="path302"
       sodipodi:nodetypes="csccscsscccsccscccsccccscccsscccssssssccccsccccssccsscccscccccccccccccsscccccccccsccccccccc" /></g></svg>
