<?xml version="1.0" encoding="UTF-8" standalone="no"?>
<svg
   viewBox="0 0 16 16"
   xmlns="http://www.w3.org/2000/svg">
  <path
     d="m 9.1970552,12.999994 h 0.7500001 a 0.37499999,0.37499999 0 0 0 0.3749997,-0.375 V 5.8749945 A 0.37499999,0.37499999 0 0 0 9.9470553,5.4999947 H 9.1970552 a 0.37499999,0.37499999 0 0 0 -0.375,0.3749998 v 6.7499995 a 0.37499999,0.37499999 0 0 0 0.375,0.375 z M 14.322056,2.4999947 h -2.575313 l -1.0625,-1.77187498 A 1.5,1.5 0 0 0 9.3973679,-5.2727135e-6 H 6.2467429 A 1.5,1.5 0 0 0 4.9604927,0.72811972 L 3.8973678,2.4999947 H 1.3220555 a 0.5,0.5 0 0 0 -0.5,0.5 v 0.5000001 a 0.5,0.5 0 0 0 0.5,0.4999998 H 1.8220554 V 14.499994 a 1.5,1.5 0 0 0 1.5,1.500001 h 9.0000006 a 1.5,1.5 0 0 0 1.5,-1.500001 V 3.9999946 h 0.5 a 0.5,0.5 0 0 0 0.5,-0.4999998 V 2.9999947 a 0.5,0.5 0 0 0 -0.5,-0.5 z M 6.1920554,1.5909322 a 0.1875,0.1875 0 0 1 0.16125,-0.090937 h 2.9374999 a 0.1875,0.1875 0 0 1 0.1609373,0.090937 L 9.9973677,2.4999947 H 5.6467428 Z M 12.322056,14.499994 H 3.3220554 V 3.9999946 h 9.0000006 z m -6.6250006,-1.5 h 0.7499998 a 0.37499999,0.37499999 0 0 0 0.3750001,-0.375 V 5.8749945 A 0.37499999,0.37499999 0 0 0 6.4470552,5.4999947 H 5.6970554 a 0.37499999,0.37499999 0 0 0 -0.375,0.3749998 v 6.7499995 a 0.37499999,0.37499999 0 0 0 0.375,0.375 z"
     id="path830"
     style="fill:#353a40;" />
</svg>
