<svg version="1.1" viewBox="0 0 16 16" xmlns="http://www.w3.org/2000/svg">
 <g transform="matrix(.029825 0 0 .029824 0 .005432)" fill="#353a40">
  <g fill="#353a40">
   <path d="m144.75 263.52c19.603-9.038 38.354-13.559 56.243-13.559h237.55v-45.683c0-17.511-6.283-32.555-18.85-45.118-12.565-12.562-27.596-18.842-45.11-18.842h-155.32v-9.136c0-17.511-6.28-32.548-18.842-45.107-12.563-12.562-27.6-18.846-45.111-18.846h-91.36c-17.511 0-32.548 6.283-45.111 18.846-12.563 12.56-18.842 27.597-18.842 45.108v274.08c0 0.764 0.049 1.955 0.144 3.576 0.094 1.615 0.144 2.807 0.144 3.566l1.426-1.704 96.216-113.07c11.61-13.706 27.218-25.081 46.822-34.117z"/>
   <path d="m528.9 290.21c-5.041-2.478-10.797-3.72-17.272-3.72h-310.63c-12.562 0-26.219 3.381-40.968 10.14-14.75 6.766-26.219 14.986-34.401 24.701l-95.93 113.06c-5.902 6.662-8.853 12.945-8.853 18.849 0 5.708 2.523 9.802 7.566 12.272 5.043 2.478 10.8 3.716 17.273 3.716h310.64c12.56 0 26.21-3.381 40.963-10.136 14.75-6.756 26.214-14.989 34.399-24.701l95.931-113.06c5.899-6.663 8.846-12.939 8.846-18.849 4e-3 -5.707-2.515-9.797-7.563-12.272z"/>
  </g>
 </g>
</svg>
