<svg width="16" height="16" version="1.1" viewBox="0 0 4.2333 4.2333" xmlns="http://www.w3.org/2000/svg">
 <path d="m0.52916 0a0.1323 0.1323 0 0 0-0.13281 0.13281v0.66042a0.1323 0.1323 0 0 0 0.058911 0.1111l0.79478 0.52916a0.1323 0.1323 0 0 0 0.072346 0.021704h0.13281v1.3281 0.6599 0.65835a0.1323 0.1323 0 0 0 0 5.168e-4 0.13229 0.13229 0 0 0 0.013436 0.057877 0.13229 0.13229 0 0 0 0.062011 0.059944 0.13229 0.13229 0 0 0 0.066145 0.012402h1.0495a0.1323 0.1323 0 0 0 0.13126-0.13074v-0.52296a0.13229 0.13229 0 0 0 0-0.013436v-0.64647a0.13229 0.13229 0 0 0 0-0.013952v-0.64802a0.13229 0.13229 0 0 0 0-0.013952v-0.78754h0.13281a0.1323 0.1323 0 0 0 0.073897-0.021704c0.26458-0.17639 0.52865-0.35277 0.79323-0.52916a0.1323 0.1323 0 0 0 0.058394-0.1111v-0.66042a0.1323 0.1323 0 0 0-0.13074-0.13281h-3.176zm1.1916 1.4552h0.79271v0.71158l-0.79271 0.39739v-1.109zm0.79271 1.0077v0.36638l-0.79271 0.39532v-0.36535l0.79271-0.39636zm0 0.66197v0.36432l-0.79271 0.39739v-0.36535l0.79271-0.39636zm0 0.66042v0.18345h-0.3669l0.3669-0.18345z" color="#000000" fill="#353a40" style="-inkscape-stroke:none"/>
</svg>
