  0
SECTION
  2
HEADER
  9
$ACADVER
  1
AC1014
  9
$ACADMAINTVER
 70
     9
  9
$DWGCODEPAGE
  3
ANSI_1252
  9
$INSBASE
 10
0.0
 20
0.0
 30
0.0
  9
$EXTMIN
 10
482.3022
 20
54.355
 30
0.0
  9
$EXTMAX
 10
593.1218
 20
165.1746
 30
0.0
  9
$LIMMIN
 10
0.0
 20
0.0
  9
$LIMMAX
 10
12.0
 20
9.0
  9
$ORTHOMODE
 70
     0
  9
$REGENMODE
 70
     1
  9
$FILLMODE
 70
     1
  9
$QTEXTMODE
 70
     0
  9
$MIRRTEXT
 70
     1
  9
$DRAGMODE
 70
     2
  9
$LTSCALE
 40
1.0
  9
$OSMODE
 70
    37
  9
$ATTMODE
 70
     1
  9
$TEXTSIZE
 40
0.2
  9
$TRACEWID
 40
0.05
  9
$TEXTSTYLE
  7
STANDARD
  9
$CLAYER
  8
0
  9
$CELTYPE
  6
BYLAYER
  9
$CECOLOR
 62
   256
  9
$CELTSCALE
 40
1.0
  9
$DELOBJ
 70
     1
  9
$DISPSILH
 70
     0
  9
$DIMSCALE
 40
1.0
  9
$DIMASZ
 40
0.18
  9
$DIMEXO
 40
0.0625
  9
$DIMDLI
 40
0.38
  9
$DIMRND
 40
0.0
  9
$DIMDLE
 40
0.0
  9
$DIMEXE
 40
0.18
  9
$DIMTP
 40
0.0
  9
$DIMTM
 40
0.0
  9
$DIMTXT
 40
0.18
  9
$DIMCEN
 40
0.09
  9
$DIMTSZ
 40
0.0
  9
$DIMTOL
 70
     0
  9
$DIMLIM
 70
     0
  9
$DIMTIH
 70
     1
  9
$DIMTOH
 70
     1
  9
$DIMSE1
 70
     0
  9
$DIMSE2
 70
     0
  9
$DIMTAD
 70
     0
  9
$DIMZIN
 70
     0
  9
$DIMBLK
  1

  9
$DIMASO
 70
     1
  9
$DIMSHO
 70
     1
  9
$DIMPOST
  1

  9
$DIMAPOST
  1

  9
$DIMALT
 70
     0
  9
$DIMALTD
 70
     2
  9
$DIMALTF
 40
25.4
  9
$DIMLFAC
 40
1.0
  9
$DIMTOFL
 70
     0
  9
$DIMTVP
 40
0.0
  9
$DIMTIX
 70
     0
  9
$DIMSOXD
 70
     0
  9
$DIMSAH
 70
     0
  9
$DIMBLK1
  1

  9
$DIMBLK2
  1

  9
$DIMSTYLE
  2
STANDARD
  9
$DIMCLRD
 70
     0
  9
$DIMCLRE
 70
     0
  9
$DIMCLRT
 70
     0
  9
$DIMTFAC
 40
1.0
  9
$DIMGAP
 40
0.09
  9
$DIMJUST
 70
     0
  9
$DIMSD1
 70
     0
  9
$DIMSD2
 70
     0
  9
$DIMTOLJ
 70
     1
  9
$DIMTZIN
 70
     0
  9
$DIMALTZ
 70
     0
  9
$DIMALTTZ
 70
     0
  9
$DIMFIT
 70
     3
  9
$DIMUPT
 70
     0
  9
$DIMUNIT
 70
     2
  9
$DIMDEC
 70
     4
  9
$DIMTDEC
 70
     4
  9
$DIMALTU
 70
     2
  9
$DIMALTTD
 70
     2
  9
$DIMTXSTY
  7
STANDARD
  9
$DIMAUNIT
 70
     0
  9
$LUNITS
 70
     2
  9
$LUPREC
 70
     4
  9
$SKETCHINC
 40
0.1
  9
$FILLETRAD
 40
0.5
  9
$AUNITS
 70
     0
  9
$AUPREC
 70
     0
  9
$MENU
  1
.
  9
$ELEVATION
 40
0.0
  9
$PELEVATION
 40
0.0
  9
$THICKNESS
 40
0.0
  9
$LIMCHECK
 70
     0
  9
$CHAMFERA
 40
0.0
  9
$CHAMFERB
 40
0.0
  9
$CHAMFERC
 40
0.0
  9
$CHAMFERD
 40
0.0
  9
$SKPOLY
 70
     0
  9
$TDCREATE
 40
2460852.662642373
  9
$TDUPDATE
 40
2460852.662642488
  9
$TDINDWG
 40
0.0000000116
  9
$TDUSRTIMER
 40
0.0000000116
  9
$USRTIMER
 70
     1
  9
$ANGBASE
 50
0.0
  9
$ANGDIR
 70
     0
  9
$PDMODE
 70
     0
  9
$PDSIZE
 40
0.0
  9
$PLINEWID
 40
0.0
  9
$COORDS
 70
     1
  9
$SPLFRAME
 70
     0
  9
$SPLINETYPE
 70
     6
  9
$SPLINESEGS
 70
     8
  9
$ATTDIA
 70
     0
  9
$ATTREQ
 70
     1
  9
$HANDLING
 70
     1
  9
$HANDSEED
  5
B0
  9
$SURFTAB1
 70
     6
  9
$SURFTAB2
 70
     6
  9
$SURFTYPE
 70
     6
  9
$SURFU
 70
     6
  9
$SURFV
 70
     6
  9
$UCSNAME
  2

  9
$UCSORG
 10
0.0
 20
0.0
 30
0.0
  9
$UCSXDIR
 10
1.0
 20
0.0
 30
0.0
  9
$UCSYDIR
 10
0.0
 20
1.0
 30
0.0
  9
$PUCSNAME
  2

  9
$PUCSORG
 10
0.0
 20
0.0
 30
0.0
  9
$PUCSXDIR
 10
1.0
 20
0.0
 30
0.0
  9
$PUCSYDIR
 10
0.0
 20
1.0
 30
0.0
  9
$USERI1
 70
     0
  9
$USERI2
 70
     0
  9
$USERI3
 70
     0
  9
$USERI4
 70
     0
  9
$USERI5
 70
     0
  9
$USERR1
 40
0.0
  9
$USERR2
 40
0.0
  9
$USERR3
 40
0.0
  9
$USERR4
 40
0.0
  9
$USERR5
 40
0.0
  9
$WORLDVIEW
 70
     1
  9
$SHADEDGE
 70
     3
  9
$SHADEDIF
 70
    70
  9
$TILEMODE
 70
     1
  9
$MAXACTVP
 70
    64
  9
$PINSBASE
 10
0.0
 20
0.0
 30
0.0
  9
$PLIMCHECK
 70
     0
  9
$PEXTMIN
 10
1.000000000000000E+20
 20
1.000000000000000E+20
 30
1.000000000000000E+20
  9
$PEXTMAX
 10
-1.000000000000000E+20
 20
-1.000000000000000E+20
 30
-1.000000000000000E+20
  9
$PLIMMIN
 10
0.0
 20
0.0
  9
$PLIMMAX
 10
12.0
 20
9.0
  9
$UNITMODE
 70
     0
  9
$VISRETAIN
 70
     1
  9
$PLINEGEN
 70
     0
  9
$PSLTSCALE
 70
     1
  9
$TREEDEPTH
 70
  3020
  9
$PICKSTYLE
 70
     1
  9
$CMLSTYLE
  2
STANDARD
  9
$CMLJUST
 70
     0
  9
$CMLSCALE
 40
1.0
  9
$PROXYGRAPHICS
 70
     1
  9
$MEASUREMENT
 70
     0
  0
ENDSEC
  0
SECTION
  2
CLASSES
  0
CLASS
  1
ACDBDICTIONARYWDFLT
  2
AcDbDictionaryWithDefault
  3
ObjectDBX Classes
 90
        0
280
     0
281
     0
  0
CLASS
  1
VISUALSTYLE
  2
AcDbVisualStyle
  3
ObjectDBX Classes
 90
     4095
280
     0
281
     0
  0
CLASS
  1
MATERIAL
  2
AcDbMaterial
  3
ObjectDBX Classes
 90
     1153
280
     0
281
     0
  0
CLASS
  1
SCALE
  2
AcDbScale
  3
ObjectDBX Classes
 90
     1153
280
     0
281
     0
  0
CLASS
  1
SUN
  2
AcDbSun
  3
SCENEOE
 90
     1153
280
     0
281
     0
  0
CLASS
  1
DICTIONARYVAR
  2
AcDbDictionaryVar
  3
ObjectDBX Classes
 90
        0
280
     0
281
     0
  0
CLASS
  1
XRECORD
  2
AcDbXrecord
  3
ObjectDBX Classes
 90
        0
280
     0
281
     0
  0
CLASS
  1
LWPOLYLINE
  2
AcDbPolyline
  3
ObjectDBX Classes
 90
        0
280
     0
281
     1
  0
CLASS
  1
HATCH
  2
AcDbHatch
  3
ObjectDBX Classes
 90
        0
280
     0
281
     1
  0
CLASS
  1
ACDBPLACEHOLDER
  2
AcDbPlaceHolder
  3
ObjectDBX Classes
 90
        0
280
     0
281
     0
  0
CLASS
  1
LAYOUT
  2
AcDbLayout
  3
ObjectDBX Classes
 90
        0
280
     0
281
     0
  0
ENDSEC
  0
SECTION
  2
TABLES
  0
TABLE
  2
VPORT
  5
8
330
0
100
AcDbSymbolTable
 70
     1
  0
VPORT
  5
29
330
8
100
AcDbSymbolTableRecord
100
AcDbViewportTableRecord
  2
*ACTIVE
 70
     0
 10
0.0
 20
0.0
 11
1.0
 21
1.0
 12
10.42990654205607
 22
4.5
 13
0.0
 23
0.0
 14
0.5
 24
0.5
 15
0.5
 25
0.5
 16
0.0
 26
0.0
 36
1.0
 17
0.0
 27
0.0
 37
0.0
 40
9.0
 41
1.972972972850329
 42
50.0
 43
0.0
 44
0.0
 50
0.0
 51
0.0
 71
     0
 72
   100
 73
     1
 74
     3
 75
     0
 76
     0
 77
     0
 78
     0
  0
ENDTAB
  0
TABLE
  2
LTYPE
  5
5
330
0
100
AcDbSymbolTable
 70
     1
  0
LTYPE
  5
14
330
5
100
AcDbSymbolTableRecord
100
AcDbLinetypeTableRecord
  2
BYBLOCK
 70
     0
  3

 72
    65
 73
     0
 40
0.0
  0
LTYPE
  5
15
330
5
100
AcDbSymbolTableRecord
100
AcDbLinetypeTableRecord
  2
BYLAYER
 70
     0
  3

 72
    65
 73
     0
 40
0.0
  0
LTYPE
  5
16
330
5
100
AcDbSymbolTableRecord
100
AcDbLinetypeTableRecord
  2
CONTINUOUS
 70
     0
  3
Solid line
 72
    65
 73
     0
 40
0.0
  0
ENDTAB
  0
TABLE
  2
LAYER
  5
2
330
0
100
AcDbSymbolTable
 70
     2
  0
LAYER
  5
10
330
2
100
AcDbSymbolTableRecord
100
AcDbLayerTableRecord
  2
0
 70
     0
 62
     7
  6
CONTINUOUS
  0
LAYER
  5
6B
330
2
100
AcDbSymbolTableRecord
100
AcDbLayerTableRecord
  2
LAYER_1
 70
     0
 62
     7
  6
CONTINUOUS
  0
ENDTAB
  0
TABLE
  2
STYLE
  5
3
330
0
100
AcDbSymbolTable
 70
     1
  0
STYLE
  5
11
330
3
100
AcDbSymbolTableRecord
100
AcDbTextStyleTableRecord
  2
STANDARD
 70
     0
 40
0.0
 41
1.0
 50
0.0
 71
     0
 42
0.2
  3
txt
  4

  0
ENDTAB
  0
TABLE
  2
VIEW
  5
6
330
0
100
AcDbSymbolTable
 70
     0
  0
ENDTAB
  0
TABLE
  2
UCS
  5
7
330
0
100
AcDbSymbolTable
 70
     0
  0
ENDTAB
  0
TABLE
  2
APPID
  5
9
330
0
100
AcDbSymbolTable
 70
     2
  0
APPID
  5
12
330
9
100
AcDbSymbolTableRecord
100
AcDbRegAppTableRecord
  2
ACAD
 70
     0
  0
APPID
  5
6A
330
9
100
AcDbSymbolTableRecord
100
AcDbRegAppTableRecord
  2
ODA
 70
     0
  0
ENDTAB
  0
TABLE
  2
DIMSTYLE
  5
A
330
0
100
AcDbSymbolTable
 70
     1
  0
DIMSTYLE
105
27
330
A
100
AcDbSymbolTableRecord
100
AcDbDimStyleTableRecord
  2
STANDARD
 70
     0
  3

  4

  5

  6

  7

 40
1.0
 41
0.18
 42
0.0625
 43
0.38
 44
0.18
 45
0.0
 46
0.0
 47
0.0
 48
0.0
140
0.18
141
0.09
142
0.0
143
25.4
144
1.0
145
0.0
146
1.0
147
0.09
 71
     0
 72
     0
 73
     1
 74
     1
 75
     0
 76
     0
 77
     0
 78
     0
170
     0
171
     2
172
     0
173
     0
174
     0
175
     0
176
     0
177
     0
178
     0
270
     2
271
     4
272
     4
273
     2
274
     2
340
11
275
     0
280
     0
281
     0
282
     0
283
     1
284
     0
285
     0
286
     0
287
     3
288
     0
  0
ENDTAB
  0
TABLE
  2
BLOCK_RECORD
  5
1
330
0
100
AcDbSymbolTable
 70
     1
  0
BLOCK_RECORD
  5
1F
330
1
100
AcDbSymbolTableRecord
100
AcDbBlockTableRecord
  2
*MODEL_SPACE
  0
BLOCK_RECORD
  5
1B
330
1
100
AcDbSymbolTableRecord
100
AcDbBlockTableRecord
  2
*PAPER_SPACE
  0
ENDTAB
  0
ENDSEC
  0
SECTION
  2
BLOCKS
  0
BLOCK
  5
20
330
1F
100
AcDbEntity
  8
0
100
AcDbBlockBegin
  2
*MODEL_SPACE
 70
     0
 10
0.0
 20
0.0
 30
0.0
  3
*MODEL_SPACE
  1

  0
ENDBLK
  5
21
330
1F
100
AcDbEntity
  8
0
100
AcDbBlockEnd
  0
BLOCK
  5
1C
330
1B
100
AcDbEntity
 67
     1
  8
0
100
AcDbBlockBegin
  2
*PAPER_SPACE
 70
     0
 10
0.0
 20
0.0
 30
0.0
  3
*PAPER_SPACE
  1

  0
ENDBLK
  5
1D
330
1B
100
AcDbEntity
 67
     1
  8
0
100
AcDbBlockEnd
  0
ENDSEC
  0
SECTION
  2
ENTITIES
  0
ELLIPSE
  5
6C
330
1F
100
AcDbEntity
  8
LAYER_1
 62
   250
100
AcDbEllipse
 10
537.712
 20
109.7648
 30
0.0
 11
0.0
 21
26.0174
 31
0.0
210
0.0
220
0.0
230
1.0
 40
1.0
 41
0.0
 42
6.283185307179586
  0
ELLIPSE
  5
6D
330
1F
100
AcDbEntity
  8
LAYER_1
 62
   250
100
AcDbEllipse
 10
537.712
 20
109.7648
 30
0.0
 11
0.0
 21
55.3598
 31
0.0
210
0.0
220
0.0
230
1.0
 40
1.0
 41
0.0
 42
6.283185307179586
  0
SPLINE
  5
6E
330
1F
100
AcDbEntity
  8
LAYER_1
 62
   250
100
AcDbSpline
210
0.0
220
0.0
230
1.0
 70
    11
 71
     3
 72
    92
 73
    88
 74
     0
 42
0.000000001
 43
0.0000000001
 40
0.0
 40
0.0
 40
0.0
 40
0.0
 40
0.0434782608695652
 40
0.0434782608695652
 40
0.0434782608695652
 40
0.0434782608695652
 40
0.0869565217391304
 40
0.0869565217391304
 40
0.0869565217391304
 40
0.0869565217391304
 40
0.1304347826086956
 40
0.1304347826086956
 40
0.1304347826086956
 40
0.1304347826086956
 40
0.1739130434782609
 40
0.1739130434782609
 40
0.1739130434782609
 40
0.1739130434782609
 40
0.2173913043478261
 40
0.2173913043478261
 40
0.2173913043478261
 40
0.2173913043478261
 40
0.2608695652173913
 40
0.2608695652173913
 40
0.2608695652173913
 40
0.2608695652173913
 40
0.3043478260869565
 40
0.3043478260869565
 40
0.3043478260869565
 40
0.3043478260869565
 40
0.3478260869565217
 40
0.3478260869565217
 40
0.3478260869565217
 40
0.3478260869565217
 40
0.391304347826087
 40
0.391304347826087
 40
0.391304347826087
 40
0.391304347826087
 40
0.4347826086956522
 40
0.4347826086956522
 40
0.4347826086956522
 40
0.4347826086956522
 40
0.4782608695652174
 40
0.4782608695652174
 40
0.4782608695652174
 40
0.4782608695652174
 40
0.5217391304347826
 40
0.5217391304347826
 40
0.5217391304347826
 40
0.5217391304347826
 40
0.5652173913043478
 40
0.5652173913043478
 40
0.5652173913043478
 40
0.5652173913043478
 40
0.6086956521739131
 40
0.6086956521739131
 40
0.6086956521739131
 40
0.6086956521739131
 40
0.6521739130434783
 40
0.6521739130434783
 40
0.6521739130434783
 40
0.6521739130434783
 40
0.6956521739130435
 40
0.6956521739130435
 40
0.6956521739130435
 40
0.6956521739130435
 40
0.7391304347826086
 40
0.7391304347826086
 40
0.7391304347826086
 40
0.7391304347826086
 40
0.782608695652174
 40
0.782608695652174
 40
0.782608695652174
 40
0.782608695652174
 40
0.8260869565217391
 40
0.8260869565217391
 40
0.8260869565217391
 40
0.8260869565217391
 40
0.8695652173913043
 40
0.8695652173913043
 40
0.8695652173913043
 40
0.8695652173913043
 40
0.9130434782608695
 40
0.9130434782608695
 40
0.9130434782608695
 40
0.9130434782608695
 40
1.0
 40
1.0
 40
1.0
 40
1.0
 10
531.6973
 20
118.697
 30
0.0
 10
531.6973
 20
118.697
 30
0.0
 10
532.5372
 20
118.4848
 30
0.0
 10
532.5372
 20
118.4848
 30
0.0
 10
532.5372
 20
118.4848
 30
0.0
 10
532.3619
 20
117.7967
 30
0.0
 10
532.0466
 20
117.2736
 30
0.0
 10
531.5913
 20
116.9126
 30
0.0
 10
531.5913
 20
116.9126
 30
0.0
 10
531.136
 20
116.5516
 30
0.0
 10
530.579
 20
116.3704
 30
0.0
 10
529.9203
 20
116.3704
 30
0.0
 10
529.9203
 20
116.3704
 30
0.0
 10
529.2396
 20
116.3704
 30
0.0
 10
528.6856
 20
116.5089
 30
0.0
 10
528.2583
 20
116.7874
 30
0.0
 10
528.2583
 20
116.7874
 30
0.0
 10
527.831
 20
117.0644
 30
0.0
 10
527.5068
 20
117.4667
 30
0.0
 10
527.2843
 20
117.9927
 30
0.0
 10
527.2843
 20
117.9927
 30
0.0
 10
527.0618
 20
118.5202
 30
0.0
 10
526.9498
 20
119.0845
 30
0.0
 10
526.9498
 20
119.6887
 30
0.0
 10
526.9498
 20
119.6887
 30
0.0
 10
526.9498
 20
120.3473
 30
0.0
 10
527.0751
 20
120.9219
 30
0.0
 10
527.327
 20
121.4126
 30
0.0
 10
527.327
 20
121.4126
 30
0.0
 10
527.579
 20
121.9033
 30
0.0
 10
527.9371
 20
122.2761
 30
0.0
 10
528.4012
 20
122.531
 30
0.0
 10
528.4012
 20
122.531
 30
0.0
 10
528.8653
 20
122.7859
 30
0.0
 10
529.3766
 20
122.9126
 30
0.0
 10
529.9336
 20
122.9126
 30
0.0
 10
529.9336
 20
122.9126
 30
0.0
 10
530.5672
 20
122.9126
 30
0.0
 10
531.0991
 20
122.752
 30
0.0
 10
531.5294
 20
122.4293
 30
0.0
 10
531.5294
 20
122.4293
 30
0.0
 10
531.9611
 20
122.1066
 30
0.0
 10
532.2617
 20
121.6543
 30
0.0
 10
532.4311
 20
121.0708
 30
0.0
 10
532.4311
 20
121.0708
 30
0.0
 10
532.4311
 20
121.0708
 30
0.0
 10
531.6089
 20
120.8763
 30
0.0
 10
531.6089
 20
120.8763
 30
0.0
 10
531.6089
 20
120.8763
 30
0.0
 10
531.4631
 20
121.336
 30
0.0
 10
531.2494
 20
121.6719
 30
0.0
 10
530.9709
 20
121.8812
 30
0.0
 10
530.9709
 20
121.8812
 30
0.0
 10
530.6924
 20
122.0919
 30
0.0
 10
530.3418
 20
122.1965
 30
0.0
 10
529.9189
 20
122.1965
 30
0.0
 10
529.9189
 20
122.1965
 30
0.0
 10
529.4341
 20
122.1965
 30
0.0
 10
529.0274
 20
122.0801
 30
0.0
 10
528.7018
 20
121.8473
 30
0.0
 10
528.7018
 20
121.8473
 30
0.0
 10
528.3762
 20
121.6145
 30
0.0
 10
528.1463
 20
121.3006
 30
0.0
 10
528.0152
 20
120.9087
 30
0.0
 10
528.0152
 20
120.9087
 30
0.0
 10
527.8825
 20
120.5153
 30
0.0
 10
527.8162
 20
120.1101
 30
0.0
 10
527.8162
 20
119.6931
 30
0.0
 10
527.8162
 20
119.6931
 30
0.0
 10
527.8162
 20
119.1553
 30
0.0
 10
527.8943
 20
118.6852
 30
0.0
 10
528.0505
 20
118.2844
 30
0.0
 10
528.0505
 20
118.2844
 30
0.0
 10
528.2067
 20
117.8822
 30
0.0
 10
528.4498
 20
117.5831
 30
0.0
 10
528.7799
 20
117.3842
 30
0.0
 10
528.7799
 20
117.3842
 30
0.0
 10
529.1099
 20
117.1852
 30
0.0
 10
529.4665
 20
117.0865
 30
0.0
 10
529.8511
 20
117.0865
 30
0.0
 10
529.8511
 20
117.0865
 30
0.0
 10
530.3197
 20
117.0865
 30
0.0
 10
530.7145
 20
117.2221
 30
0.0
 10
531.0387
 20
117.4917
 30
0.0
 10
531.0387
 20
117.4917
 30
0.0
 10
531.3629
 20
117.7628
 30
0.0
 10
531.5824
 20
118.1636
 30
0.0
 10
531.6973
 20
118.697
 30
0.0
  0
SPLINE
  5
6F
330
1F
100
AcDbEntity
  8
LAYER_1
 62
   250
100
AcDbSpline
210
0.0
220
0.0
230
1.0
 70
    11
 71
     3
 72
    20
 73
    16
 74
     0
 42
0.000000001
 43
0.0000000001
 40
0.0
 40
0.0
 40
0.0
 40
0.0
 40
0.2
 40
0.2
 40
0.2
 40
0.2
 40
0.4
 40
0.4
 40
0.4
 40
0.4
 40
0.6
 40
0.6
 40
0.6
 40
0.6
 40
1.0
 40
1.0
 40
1.0
 40
1.0
 10
533.4758
 20
121.9224
 30
0.0
 10
533.4758
 20
121.9224
 30
0.0
 10
533.4758
 20
122.8065
 30
0.0
 10
533.4758
 20
122.8065
 30
0.0
 10
533.4758
 20
122.8065
 30
0.0
 10
533.4758
 20
122.8065
 30
0.0
 10
534.2538
 20
122.8065
 30
0.0
 10
534.2538
 20
122.8065
 30
0.0
 10
534.2538
 20
122.8065
 30
0.0
 10
534.2538
 20
122.8065
 30
0.0
 10
534.2538
 20
121.9224
 30
0.0
 10
534.2538
 20
121.9224
 30
0.0
 10
534.2538
 20
121.9224
 30
0.0
 10
534.2538
 20
121.9224
 30
0.0
 10
533.4758
 20
121.9224
 30
0.0
 10
533.4758
 20
121.9224
 30
0.0
  0
SPLINE
  5
70
330
1F
100
AcDbEntity
  8
LAYER_1
 62
   250
100
AcDbSpline
210
0.0
220
0.0
230
1.0
 70
    11
 71
     3
 72
    20
 73
    16
 74
     0
 42
0.000000001
 43
0.0000000001
 40
0.0
 40
0.0
 40
0.0
 40
0.0
 40
0.2
 40
0.2
 40
0.2
 40
0.2
 40
0.4
 40
0.4
 40
0.4
 40
0.4
 40
0.6
 40
0.6
 40
0.6
 40
0.6
 40
1.0
 40
1.0
 40
1.0
 40
1.0
 10
533.4758
 20
116.4765
 30
0.0
 10
533.4758
 20
116.4765
 30
0.0
 10
533.4758
 20
121.0649
 30
0.0
 10
533.4758
 20
121.0649
 30
0.0
 10
533.4758
 20
121.0649
 30
0.0
 10
533.4758
 20
121.0649
 30
0.0
 10
534.2538
 20
121.0649
 30
0.0
 10
534.2538
 20
121.0649
 30
0.0
 10
534.2538
 20
121.0649
 30
0.0
 10
534.2538
 20
121.0649
 30
0.0
 10
534.2538
 20
116.4765
 30
0.0
 10
534.2538
 20
116.4765
 30
0.0
 10
534.2538
 20
116.4765
 30
0.0
 10
534.2538
 20
116.4765
 30
0.0
 10
533.4758
 20
116.4765
 30
0.0
 10
533.4758
 20
116.4765
 30
0.0
  0
SPLINE
  5
71
330
1F
100
AcDbEntity
  8
LAYER_1
 62
   250
100
AcDbSpline
210
0.0
220
0.0
230
1.0
 70
    11
 71
     3
 72
    56
 73
    52
 74
     0
 42
0.000000001
 43
0.0000000001
 40
0.0
 40
0.0
 40
0.0
 40
0.0
 40
0.0714285714285714
 40
0.0714285714285714
 40
0.0714285714285714
 40
0.0714285714285714
 40
0.1428571428571428
 40
0.1428571428571428
 40
0.1428571428571428
 40
0.1428571428571428
 40
0.2142857142857143
 40
0.2142857142857143
 40
0.2142857142857143
 40
0.2142857142857143
 40
0.2857142857142857
 40
0.2857142857142857
 40
0.2857142857142857
 40
0.2857142857142857
 40
0.3571428571428572
 40
0.3571428571428572
 40
0.3571428571428572
 40
0.3571428571428572
 40
0.4285714285714285
 40
0.4285714285714285
 40
0.4285714285714285
 40
0.4285714285714285
 40
0.5
 40
0.5
 40
0.5
 40
0.5
 40
0.5714285714285714
 40
0.5714285714285714
 40
0.5714285714285714
 40
0.5714285714285714
 40
0.6428571428571429
 40
0.6428571428571429
 40
0.6428571428571429
 40
0.6428571428571429
 40
0.7142857142857143
 40
0.7142857142857143
 40
0.7142857142857143
 40
0.7142857142857143
 40
0.7857142857142857
 40
0.7857142857142857
 40
0.7857142857142857
 40
0.7857142857142857
 40
0.8571428571428571
 40
0.8571428571428571
 40
0.8571428571428571
 40
0.8571428571428571
 40
1.0
 40
1.0
 40
1.0
 40
1.0
 10
535.4311
 20
116.4765
 30
0.0
 10
535.4311
 20
116.4765
 30
0.0
 10
535.4311
 20
121.0649
 30
0.0
 10
535.4311
 20
121.0649
 30
0.0
 10
535.4311
 20
121.0649
 30
0.0
 10
535.4311
 20
121.0649
 30
0.0
 10
536.1295
 20
121.0649
 30
0.0
 10
536.1295
 20
121.0649
 30
0.0
 10
536.1295
 20
121.0649
 30
0.0
 10
536.1295
 20
121.0649
 30
0.0
 10
536.1295
 20
120.362
 30
0.0
 10
536.1295
 20
120.362
 30
0.0
 10
536.1295
 20
120.362
 30
0.0
 10
536.3078
 20
120.6877
 30
0.0
 10
536.4728
 20
120.9028
 30
0.0
 10
536.6246
 20
121.0059
 30
0.0
 10
536.6246
 20
121.0059
 30
0.0
 10
536.7763
 20
121.1106
 30
0.0
 10
536.9428
 20
121.1621
 30
0.0
 10
537.1241
 20
121.1621
 30
0.0
 10
537.1241
 20
121.1621
 30
0.0
 10
537.3863
 20
121.1621
 30
0.0
 10
537.653
 20
121.0796
 30
0.0
 10
537.9242
 20
120.9161
 30
0.0
 10
537.9242
 20
120.9161
 30
0.0
 10
537.9242
 20
120.9161
 30
0.0
 10
537.6471
 20
120.1985
 30
0.0
 10
537.6471
 20
120.1985
 30
0.0
 10
537.6471
 20
120.1985
 30
0.0
 10
537.4585
 20
120.3046
 30
0.0
 10
537.2699
 20
120.3576
 30
0.0
 10
537.0813
 20
120.3576
 30
0.0
 10
537.0813
 20
120.3576
 30
0.0
 10
536.9119
 20
120.3576
 30
0.0
 10
536.7601
 20
120.306
 30
0.0
 10
536.626
 20
120.2044
 30
0.0
 10
536.626
 20
120.2044
 30
0.0
 10
536.4919
 20
120.1027
 30
0.0
 10
536.3962
 20
119.9612
 30
0.0
 10
536.3387
 20
119.78
 30
0.0
 10
536.3387
 20
119.78
 30
0.0
 10
536.2518
 20
119.5045
 30
0.0
 10
536.209
 20
119.2024
 30
0.0
 10
536.209
 20
118.8738
 30
0.0
 10
536.209
 20
118.8738
 30
0.0
 10
536.209
 20
118.8738
 30
0.0
 10
536.209
 20
116.4765
 30
0.0
 10
536.209
 20
116.4765
 30
0.0
 10
536.209
 20
116.4765
 30
0.0
 10
536.209
 20
116.4765
 30
0.0
 10
535.4311
 20
116.4765
 30
0.0
 10
535.4311
 20
116.4765
 30
0.0
  0
SPLINE
  5
72
330
1F
100
AcDbEntity
  8
LAYER_1
 62
   250
100
AcDbSpline
210
0.0
220
0.0
230
1.0
 70
    11
 71
     3
 72
    80
 73
    76
 74
     0
 42
0.000000001
 43
0.0000000001
 40
0.0
 40
0.0
 40
0.0
 40
0.0
 40
0.05
 40
0.05
 40
0.05
 40
0.05
 40
0.1
 40
0.1
 40
0.1
 40
0.1
 40
0.15
 40
0.15
 40
0.15
 40
0.15
 40
0.2
 40
0.2
 40
0.2
 40
0.2
 40
0.25
 40
0.25
 40
0.25
 40
0.25
 40
0.3
 40
0.3
 40
0.3
 40
0.3
 40
0.35
 40
0.35
 40
0.35
 40
0.35
 40
0.4
 40
0.4
 40
0.4
 40
0.4
 40
0.45
 40
0.45
 40
0.45
 40
0.45
 40
0.5
 40
0.5
 40
0.5
 40
0.5
 40
0.55
 40
0.55
 40
0.55
 40
0.55
 40
0.6
 40
0.6
 40
0.6
 40
0.6
 40
0.65
 40
0.65
 40
0.65
 40
0.65
 40
0.7
 40
0.7
 40
0.7
 40
0.7
 40
0.75
 40
0.75
 40
0.75
 40
0.75
 40
0.8
 40
0.8
 40
0.8
 40
0.8
 40
0.85
 40
0.85
 40
0.85
 40
0.85
 40
0.9
 40
0.9
 40
0.9
 40
0.9
 40
1.0
 40
1.0
 40
1.0
 40
1.0
 10
541.3809
 20
118.1563
 30
0.0
 10
541.3809
 20
118.1563
 30
0.0
 10
542.1412
 20
118.0502
 30
0.0
 10
542.1412
 20
118.0502
 30
0.0
 10
542.1412
 20
118.0502
 30
0.0
 10
542.0572
 20
117.5271
 30
0.0
 10
541.8451
 20
117.1189
 30
0.0
 10
541.5017
 20
116.8228
 30
0.0
 10
541.5017
 20
116.8228
 30
0.0
 10
541.1584
 20
116.5266
 30
0.0
 10
540.7355
 20
116.3793
 30
0.0
 10
540.236
 20
116.3793
 30
0.0
 10
540.236
 20
116.3793
 30
0.0
 10
539.6098
 20
116.3793
 30
0.0
 10
539.1059
 20
116.5841
 30
0.0
 10
538.7257
 20
116.9937
 30
0.0
 10
538.7257
 20
116.9937
 30
0.0
 10
538.3441
 20
117.4033
 30
0.0
 10
538.154
 20
117.9898
 30
0.0
 10
538.154
 20
118.753
 30
0.0
 10
538.154
 20
118.753
 30
0.0
 10
538.154
 20
119.2481
 30
0.0
 10
538.2365
 20
119.6798
 30
0.0
 10
538.4001
 20
120.0511
 30
0.0
 10
538.4001
 20
120.0511
 30
0.0
 10
538.5637
 20
120.421
 30
0.0
 10
538.8127
 20
120.6995
 30
0.0
 10
539.1486
 20
120.8836
 30
0.0
 10
539.1486
 20
120.8836
 30
0.0
 10
539.4831
 20
121.0693
 30
0.0
 10
539.847
 20
121.1621
 30
0.0
 10
540.2419
 20
121.1621
 30
0.0
 10
540.2419
 20
121.1621
 30
0.0
 10
540.7385
 20
121.1621
 30
0.0
 10
541.1466
 20
121.0369
 30
0.0
 10
541.462
 20
120.7849
 30
0.0
 10
541.462
 20
120.7849
 30
0.0
 10
541.7788
 20
120.533
 30
0.0
 10
541.9821
 20
120.1749
 30
0.0
 10
542.0705
 20
119.7122
 30
0.0
 10
542.0705
 20
119.7122
 30
0.0
 10
542.0705
 20
119.7122
 30
0.0
 10
541.319
 20
119.5973
 30
0.0
 10
541.319
 20
119.5973
 30
0.0
 10
541.319
 20
119.5973
 30
0.0
 10
541.2468
 20
119.9053
 30
0.0
 10
541.1201
 20
120.1366
 30
0.0
 10
540.9359
 20
120.2928
 30
0.0
 10
540.9359
 20
120.2928
 30
0.0
 10
540.7532
 20
120.4475
 30
0.0
 10
540.5322
 20
120.5256
 30
0.0
 10
540.2729
 20
120.5256
 30
0.0
 10
540.2729
 20
120.5256
 30
0.0
 10
539.8809
 20
120.5256
 30
0.0
 10
539.5627
 20
120.3856
 30
0.0
 10
539.3166
 20
120.1056
 30
0.0
 10
539.3166
 20
120.1056
 30
0.0
 10
539.072
 20
119.8242
 30
0.0
 10
538.9497
 20
119.3822
 30
0.0
 10
538.9497
 20
118.7751
 30
0.0
 10
538.9497
 20
118.7751
 30
0.0
 10
538.9497
 20
118.1592
 30
0.0
 10
539.0676
 20
117.7127
 30
0.0
 10
539.3033
 20
117.4343
 30
0.0
 10
539.3033
 20
117.4343
 30
0.0
 10
539.5406
 20
117.1558
 30
0.0
 10
539.8485
 20
117.0158
 30
0.0
 10
540.2272
 20
117.0158
 30
0.0
 10
540.2272
 20
117.0158
 30
0.0
 10
540.5337
 20
117.0158
 30
0.0
 10
540.7886
 20
117.1086
 30
0.0
 10
540.9919
 20
117.2957
 30
0.0
 10
540.9919
 20
117.2957
 30
0.0
 10
541.1967
 20
117.4814
 30
0.0
 10
541.3264
 20
117.7687
 30
0.0
 10
541.3809
 20
118.1563
 30
0.0
  0
SPLINE
  5
73
330
1F
100
AcDbEntity
  8
LAYER_1
 62
   250
100
AcDbSpline
210
0.0
220
0.0
230
1.0
 70
    11
 71
     3
 72
    20
 73
    16
 74
     0
 42
0.000000001
 43
0.0000000001
 40
0.0
 40
0.0
 40
0.0
 40
0.0
 40
0.2
 40
0.2
 40
0.2
 40
0.2
 40
0.4
 40
0.4
 40
0.4
 40
0.4
 40
0.6
 40
0.6
 40
0.6
 40
0.6
 40
1.0
 40
1.0
 40
1.0
 40
1.0
 10
542.7866
 20
116.4765
 30
0.0
 10
542.7866
 20
116.4765
 30
0.0
 10
542.7866
 20
122.8065
 30
0.0
 10
542.7866
 20
122.8065
 30
0.0
 10
542.7866
 20
122.8065
 30
0.0
 10
542.7866
 20
122.8065
 30
0.0
 10
543.5646
 20
122.8065
 30
0.0
 10
543.5646
 20
122.8065
 30
0.0
 10
543.5646
 20
122.8065
 30
0.0
 10
543.5646
 20
122.8065
 30
0.0
 10
543.5646
 20
116.4765
 30
0.0
 10
543.5646
 20
116.4765
 30
0.0
 10
543.5646
 20
116.4765
 30
0.0
 10
543.5646
 20
116.4765
 30
0.0
 10
542.7866
 20
116.4765
 30
0.0
 10
542.7866
 20
116.4765
 30
0.0
  0
SPLINE
  5
74
330
1F
100
AcDbEntity
  8
LAYER_1
 62
   250
100
AcDbSpline
210
0.0
220
0.0
230
1.0
 70
    11
 71
     3
 72
    64
 73
    60
 74
     0
 42
0.000000001
 43
0.0000000001
 40
0.0
 40
0.0
 40
0.0
 40
0.0
 40
0.0625
 40
0.0625
 40
0.0625
 40
0.0625
 40
0.125
 40
0.125
 40
0.125
 40
0.125
 40
0.1875
 40
0.1875
 40
0.1875
 40
0.1875
 40
0.25
 40
0.25
 40
0.25
 40
0.25
 40
0.3125
 40
0.3125
 40
0.3125
 40
0.3125
 40
0.375
 40
0.375
 40
0.375
 40
0.375
 40
0.4375
 40
0.4375
 40
0.4375
 40
0.4375
 40
0.5
 40
0.5
 40
0.5
 40
0.5
 40
0.5625
 40
0.5625
 40
0.5625
 40
0.5625
 40
0.625
 40
0.625
 40
0.625
 40
0.625
 40
0.6875
 40
0.6875
 40
0.6875
 40
0.6875
 40
0.75
 40
0.75
 40
0.75
 40
0.75
 40
0.8125
 40
0.8125
 40
0.8125
 40
0.8125
 40
0.875
 40
0.875
 40
0.875
 40
0.875
 40
1.0
 40
1.0
 40
1.0
 40
1.0
 10
547.898
 20
117.9618
 30
0.0
 10
547.898
 20
117.9618
 30
0.0
 10
548.7025
 20
117.8557
 30
0.0
 10
548.7025
 20
117.8557
 30
0.0
 10
548.7025
 20
117.8557
 30
0.0
 10
548.5773
 20
117.3886
 30
0.0
 10
548.343
 20
117.0246
 30
0.0
 10
548.0012
 20
116.7668
 30
0.0
 10
548.0012
 20
116.7668
 30
0.0
 10
547.6593
 20
116.5089
 30
0.0
 10
547.2232
 20
116.3793
 30
0.0
 10
546.6913
 20
116.3793
 30
0.0
 10
546.6913
 20
116.3793
 30
0.0
 10
546.0223
 20
116.3793
 30
0.0
 10
545.4919
 20
116.5855
 30
0.0
 10
545.0999
 20
116.9981
 30
0.0
 10
545.0999
 20
116.9981
 30
0.0
 10
544.708
 20
117.4092
 30
0.0
 10
544.512
 20
117.9883
 30
0.0
 10
544.512
 20
118.7324
 30
0.0
 10
544.512
 20
118.7324
 30
0.0
 10
544.512
 20
119.5015
 30
0.0
 10
544.7095
 20
120.0998
 30
0.0
 10
545.1058
 20
120.5241
 30
0.0
 10
545.1058
 20
120.5241
 30
0.0
 10
545.5022
 20
120.9499
 30
0.0
 10
546.0164
 20
121.1621
 30
0.0
 10
546.6485
 20
121.1621
 30
0.0
 10
546.6485
 20
121.1621
 30
0.0
 10
547.26
 20
121.1621
 30
0.0
 10
547.7595
 20
120.9544
 30
0.0
 10
548.1471
 20
120.5374
 30
0.0
 10
548.1471
 20
120.5374
 30
0.0
 10
548.5346
 20
120.1204
 30
0.0
 10
548.7291
 20
119.5339
 30
0.0
 10
548.7291
 20
118.7781
 30
0.0
 10
548.7291
 20
118.7781
 30
0.0
 10
548.7291
 20
118.7324
 30
0.0
 10
548.7276
 20
118.6631
 30
0.0
 10
548.7247
 20
118.5718
 30
0.0
 10
548.7247
 20
118.5718
 30
0.0
 10
548.7247
 20
118.5718
 30
0.0
 10
545.3077
 20
118.5718
 30
0.0
 10
545.3077
 20
118.5718
 30
0.0
 10
545.3077
 20
118.5718
 30
0.0
 10
545.3372
 20
118.0693
 30
0.0
 10
545.4786
 20
117.6833
 30
0.0
 10
545.735
 20
117.4166
 30
0.0
 10
545.735
 20
117.4166
 30
0.0
 10
545.9899
 20
117.1499
 30
0.0
 10
546.3096
 20
117.0158
 30
0.0
 10
546.6913
 20
117.0158
 30
0.0
 10
546.6913
 20
117.0158
 30
0.0
 10
546.9756
 20
117.0158
 30
0.0
 10
547.2188
 20
117.0909
 30
0.0
 10
547.4192
 20
117.2412
 30
0.0
 10
547.4192
 20
117.2412
 30
0.0
 10
547.621
 20
117.3915
 30
0.0
 10
547.7802
 20
117.6317
 30
0.0
 10
547.898
 20
117.9618
 30
0.0
  0
SPLINE
  5
75
330
1F
100
AcDbEntity
  8
LAYER_1
 62
   250
100
AcDbSpline
210
0.0
220
0.0
230
1.0
 70
    11
 71
     3
 72
    24
 73
    20
 74
     0
 42
0.000000001
 43
0.0000000001
 40
0.0
 40
0.0
 40
0.0
 40
0.0
 40
0.1666666666666667
 40
0.1666666666666667
 40
0.1666666666666667
 40
0.1666666666666667
 40
0.3333333333333333
 40
0.3333333333333333
 40
0.3333333333333333
 40
0.3333333333333333
 40
0.5
 40
0.5
 40
0.5
 40
0.5
 40
0.6666666666666666
 40
0.6666666666666666
 40
0.6666666666666666
 40
0.6666666666666666
 40
1.0
 40
1.0
 40
1.0
 40
1.0
 10
545.3519
 20
119.2083
 30
0.0
 10
545.3519
 20
119.2083
 30
0.0
 10
547.9069
 20
119.2083
 30
0.0
 10
547.9069
 20
119.2083
 30
0.0
 10
547.9069
 20
119.2083
 30
0.0
 10
547.873
 20
119.5944
 30
0.0
 10
547.7743
 20
119.8832
 30
0.0
 10
547.6137
 20
120.0762
 30
0.0
 10
547.6137
 20
120.0762
 30
0.0
 10
547.3676
 20
120.3753
 30
0.0
 10
547.0464
 20
120.5256
 30
0.0
 10
546.653
 20
120.5256
 30
0.0
 10
546.653
 20
120.5256
 30
0.0
 10
546.2964
 20
120.5256
 30
0.0
 10
545.9973
 20
120.4062
 30
0.0
 10
545.7541
 20
120.1675
 30
0.0
 10
545.7541
 20
120.1675
 30
0.0
 10
545.5125
 20
119.9288
 30
0.0
 10
545.3784
 20
119.6091
 30
0.0
 10
545.3519
 20
119.2083
 30
0.0
  0
SPLINE
  5
76
330
1F
100
AcDbEntity
  8
LAYER_1
 62
   250
100
AcDbSpline
210
0.0
220
0.0
230
1.0
 70
    11
 71
     3
 72
    36
 73
    32
 74
     0
 42
0.000000001
 43
0.0000000001
 40
0.0
 40
0.0
 40
0.0
 40
0.0
 40
0.1111111111111111
 40
0.1111111111111111
 40
0.1111111111111111
 40
0.1111111111111111
 40
0.2222222222222222
 40
0.2222222222222222
 40
0.2222222222222222
 40
0.2222222222222222
 40
0.3333333333333333
 40
0.3333333333333333
 40
0.3333333333333333
 40
0.3333333333333333
 40
0.4444444444444444
 40
0.4444444444444444
 40
0.4444444444444444
 40
0.4444444444444444
 40
0.5555555555555556
 40
0.5555555555555556
 40
0.5555555555555556
 40
0.5555555555555556
 40
0.6666666666666666
 40
0.6666666666666666
 40
0.6666666666666666
 40
0.6666666666666666
 40
0.7777777777777778
 40
0.7777777777777778
 40
0.7777777777777778
 40
0.7777777777777778
 40
1.0
 40
1.0
 40
1.0
 40
1.0
 10
531.9876
 20
106.5998
 30
0.0
 10
531.9876
 20
106.5998
 30
0.0
 10
531.9876
 20
112.1872
 30
0.0
 10
531.9876
 20
112.1872
 30
0.0
 10
531.9876
 20
112.1872
 30
0.0
 10
531.9876
 20
112.1872
 30
0.0
 10
529.9011
 20
112.1872
 30
0.0
 10
529.9011
 20
112.1872
 30
0.0
 10
529.9011
 20
112.1872
 30
0.0
 10
529.9011
 20
112.1872
 30
0.0
 10
529.9011
 20
112.9298
 30
0.0
 10
529.9011
 20
112.9298
 30
0.0
 10
529.9011
 20
112.9298
 30
0.0
 10
529.9011
 20
112.9298
 30
0.0
 10
534.9139
 20
112.9298
 30
0.0
 10
534.9139
 20
112.9298
 30
0.0
 10
534.9139
 20
112.9298
 30
0.0
 10
534.9139
 20
112.9298
 30
0.0
 10
534.9139
 20
112.1872
 30
0.0
 10
534.9139
 20
112.1872
 30
0.0
 10
534.9139
 20
112.1872
 30
0.0
 10
534.9139
 20
112.1872
 30
0.0
 10
532.8274
 20
112.1872
 30
0.0
 10
532.8274
 20
112.1872
 30
0.0
 10
532.8274
 20
112.1872
 30
0.0
 10
532.8274
 20
112.1872
 30
0.0
 10
532.8274
 20
106.5998
 30
0.0
 10
532.8274
 20
106.5998
 30
0.0
 10
532.8274
 20
106.5998
 30
0.0
 10
532.8274
 20
106.5998
 30
0.0
 10
531.9876
 20
106.5998
 30
0.0
 10
531.9876
 20
106.5998
 30
0.0
  0
SPLINE
  5
77
330
1F
100
AcDbEntity
  8
LAYER_1
 62
   250
100
AcDbSpline
210
0.0
220
0.0
230
1.0
 70
    11
 71
     3
 72
    64
 73
    60
 74
     0
 42
0.000000001
 43
0.0000000001
 40
0.0
 40
0.0
 40
0.0
 40
0.0
 40
0.0625
 40
0.0625
 40
0.0625
 40
0.0625
 40
0.125
 40
0.125
 40
0.125
 40
0.125
 40
0.1875
 40
0.1875
 40
0.1875
 40
0.1875
 40
0.25
 40
0.25
 40
0.25
 40
0.25
 40
0.3125
 40
0.3125
 40
0.3125
 40
0.3125
 40
0.375
 40
0.375
 40
0.375
 40
0.375
 40
0.4375
 40
0.4375
 40
0.4375
 40
0.4375
 40
0.5
 40
0.5
 40
0.5
 40
0.5
 40
0.5625
 40
0.5625
 40
0.5625
 40
0.5625
 40
0.625
 40
0.625
 40
0.625
 40
0.625
 40
0.6875
 40
0.6875
 40
0.6875
 40
0.6875
 40
0.75
 40
0.75
 40
0.75
 40
0.75
 40
0.8125
 40
0.8125
 40
0.8125
 40
0.8125
 40
0.875
 40
0.875
 40
0.875
 40
0.875
 40
1.0
 40
1.0
 40
1.0
 40
1.0
 10
537.8313
 20
108.0851
 30
0.0
 10
537.8313
 20
108.0851
 30
0.0
 10
538.6358
 20
107.979
 30
0.0
 10
538.6358
 20
107.979
 30
0.0
 10
538.6358
 20
107.979
 30
0.0
 10
538.5106
 20
107.5119
 30
0.0
 10
538.2763
 20
107.1479
 30
0.0
 10
537.9345
 20
106.8901
 30
0.0
 10
537.9345
 20
106.8901
 30
0.0
 10
537.5926
 20
106.6322
 30
0.0
 10
537.1565
 20
106.5026
 30
0.0
 10
536.6246
 20
106.5026
 30
0.0
 10
536.6246
 20
106.5026
 30
0.0
 10
535.9556
 20
106.5026
 30
0.0
 10
535.4252
 20
106.7088
 30
0.0
 10
535.0332
 20
107.1214
 30
0.0
 10
535.0332
 20
107.1214
 30
0.0
 10
534.6413
 20
107.5325
 30
0.0
 10
534.4453
 20
108.1116
 30
0.0
 10
534.4453
 20
108.8557
 30
0.0
 10
534.4453
 20
108.8557
 30
0.0
 10
534.4453
 20
109.6248
 30
0.0
 10
534.6428
 20
110.2231
 30
0.0
 10
535.0391
 20
110.6474
 30
0.0
 10
535.0391
 20
110.6474
 30
0.0
 10
535.4355
 20
111.0732
 30
0.0
 10
535.9497
 20
111.2854
 30
0.0
 10
536.5818
 20
111.2854
 30
0.0
 10
536.5818
 20
111.2854
 30
0.0
 10
537.1933
 20
111.2854
 30
0.0
 10
537.6928
 20
111.0777
 30
0.0
 10
538.0804
 20
110.6607
 30
0.0
 10
538.0804
 20
110.6607
 30
0.0
 10
538.4679
 20
110.2437
 30
0.0
 10
538.6624
 20
109.6572
 30
0.0
 10
538.6624
 20
108.9014
 30
0.0
 10
538.6624
 20
108.9014
 30
0.0
 10
538.6624
 20
108.8557
 30
0.0
 10
538.6609
 20
108.7864
 30
0.0
 10
538.658
 20
108.6951
 30
0.0
 10
538.658
 20
108.6951
 30
0.0
 10
538.658
 20
108.6951
 30
0.0
 10
535.241
 20
108.6951
 30
0.0
 10
535.241
 20
108.6951
 30
0.0
 10
535.241
 20
108.6951
 30
0.0
 10
535.2705
 20
108.1926
 30
0.0
 10
535.4119
 20
107.8066
 30
0.0
 10
535.6683
 20
107.5399
 30
0.0
 10
535.6683
 20
107.5399
 30
0.0
 10
535.9232
 20
107.2732
 30
0.0
 10
536.2429
 20
107.1391
 30
0.0
 10
536.6246
 20
107.1391
 30
0.0
 10
536.6246
 20
107.1391
 30
0.0
 10
536.9089
 20
107.1391
 30
0.0
 10
537.1521
 20
107.2142
 30
0.0
 10
537.3525
 20
107.3645
 30
0.0
 10
537.3525
 20
107.3645
 30
0.0
 10
537.5543
 20
107.5148
 30
0.0
 10
537.7135
 20
107.755
 30
0.0
 10
537.8313
 20
108.0851
 30
0.0
  0
SPLINE
  5
78
330
1F
100
AcDbEntity
  8
LAYER_1
 62
   250
100
AcDbSpline
210
0.0
220
0.0
230
1.0
 70
    11
 71
     3
 72
    24
 73
    20
 74
     0
 42
0.000000001
 43
0.0000000001
 40
0.0
 40
0.0
 40
0.0
 40
0.0
 40
0.1666666666666667
 40
0.1666666666666667
 40
0.1666666666666667
 40
0.1666666666666667
 40
0.3333333333333333
 40
0.3333333333333333
 40
0.3333333333333333
 40
0.3333333333333333
 40
0.5
 40
0.5
 40
0.5
 40
0.5
 40
0.6666666666666666
 40
0.6666666666666666
 40
0.6666666666666666
 40
0.6666666666666666
 40
1.0
 40
1.0
 40
1.0
 40
1.0
 10
535.2852
 20
109.3316
 30
0.0
 10
535.2852
 20
109.3316
 30
0.0
 10
537.8402
 20
109.3316
 30
0.0
 10
537.8402
 20
109.3316
 30
0.0
 10
537.8402
 20
109.3316
 30
0.0
 10
537.8063
 20
109.7177
 30
0.0
 10
537.7076
 20
110.0065
 30
0.0
 10
537.547
 20
110.1995
 30
0.0
 10
537.547
 20
110.1995
 30
0.0
 10
537.3009
 20
110.4986
 30
0.0
 10
536.9797
 20
110.6489
 30
0.0
 10
536.5863
 20
110.6489
 30
0.0
 10
536.5863
 20
110.6489
 30
0.0
 10
536.2297
 20
110.6489
 30
0.0
 10
535.9306
 20
110.5295
 30
0.0
 10
535.6874
 20
110.2908
 30
0.0
 10
535.6874
 20
110.2908
 30
0.0
 10
535.4458
 20
110.0521
 30
0.0
 10
535.3117
 20
109.7324
 30
0.0
 10
535.2852
 20
109.3316
 30
0.0
  0
SPLINE
  5
79
330
1F
100
AcDbEntity
  8
LAYER_1
 62
   250
100
AcDbSpline
210
0.0
220
0.0
230
1.0
 70
    11
 71
     3
 72
   136
 73
   132
 74
     0
 42
0.000000001
 43
0.0000000001
 40
0.0
 40
0.0
 40
0.0
 40
0.0
 40
0.0294117647058824
 40
0.0294117647058824
 40
0.0294117647058824
 40
0.0294117647058824
 40
0.0588235294117647
 40
0.0588235294117647
 40
0.0588235294117647
 40
0.0588235294117647
 40
0.0882352941176471
 40
0.0882352941176471
 40
0.0882352941176471
 40
0.0882352941176471
 40
0.1176470588235294
 40
0.1176470588235294
 40
0.1176470588235294
 40
0.1176470588235294
 40
0.1470588235294118
 40
0.1470588235294118
 40
0.1470588235294118
 40
0.1470588235294118
 40
0.1764705882352941
 40
0.1764705882352941
 40
0.1764705882352941
 40
0.1764705882352941
 40
0.2058823529411765
 40
0.2058823529411765
 40
0.2058823529411765
 40
0.2058823529411765
 40
0.2352941176470588
 40
0.2352941176470588
 40
0.2352941176470588
 40
0.2352941176470588
 40
0.2647058823529412
 40
0.2647058823529412
 40
0.2647058823529412
 40
0.2647058823529412
 40
0.2941176470588235
 40
0.2941176470588235
 40
0.2941176470588235
 40
0.2941176470588235
 40
0.3235294117647059
 40
0.3235294117647059
 40
0.3235294117647059
 40
0.3235294117647059
 40
0.3529411764705883
 40
0.3529411764705883
 40
0.3529411764705883
 40
0.3529411764705883
 40
0.3823529411764706
 40
0.3823529411764706
 40
0.3823529411764706
 40
0.3823529411764706
 40
0.4117647058823529
 40
0.4117647058823529
 40
0.4117647058823529
 40
0.4117647058823529
 40
0.4411764705882353
 40
0.4411764705882353
 40
0.4411764705882353
 40
0.4411764705882353
 40
0.4705882352941176
 40
0.4705882352941176
 40
0.4705882352941176
 40
0.4705882352941176
 40
0.5
 40
0.5
 40
0.5
 40
0.5
 40
0.5294117647058824
 40
0.5294117647058824
 40
0.5294117647058824
 40
0.5294117647058824
 40
0.5588235294117647
 40
0.5588235294117647
 40
0.5588235294117647
 40
0.5588235294117647
 40
0.5882352941176471
 40
0.5882352941176471
 40
0.5882352941176471
 40
0.5882352941176471
 40
0.6176470588235294
 40
0.6176470588235294
 40
0.6176470588235294
 40
0.6176470588235294
 40
0.6470588235294118
 40
0.6470588235294118
 40
0.6470588235294118
 40
0.6470588235294118
 40
0.6764705882352942
 40
0.6764705882352942
 40
0.6764705882352942
 40
0.6764705882352942
 40
0.7058823529411765
 40
0.7058823529411765
 40
0.7058823529411765
 40
0.7058823529411765
 40
0.7352941176470589
 40
0.7352941176470589
 40
0.7352941176470589
 40
0.7352941176470589
 40
0.7647058823529411
 40
0.7647058823529411
 40
0.7647058823529411
 40
0.7647058823529411
 40
0.7941176470588235
 40
0.7941176470588235
 40
0.7941176470588235
 40
0.7941176470588235
 40
0.8235294117647058
 40
0.8235294117647058
 40
0.8235294117647058
 40
0.8235294117647058
 40
0.8529411764705882
 40
0.8529411764705882
 40
0.8529411764705882
 40
0.8529411764705882
 40
0.8823529411764706
 40
0.8823529411764706
 40
0.8823529411764706
 40
0.8823529411764706
 40
0.9117647058823529
 40
0.9117647058823529
 40
0.9117647058823529
 40
0.9117647058823529
 40
0.9411764705882353
 40
0.9411764705882353
 40
0.9411764705882353
 40
0.9411764705882353
 40
1.0
 40
1.0
 40
1.0
 40
1.0
 10
539.3093
 20
107.9701
 30
0.0
 10
539.3093
 20
107.9701
 30
0.0
 10
540.0784
 20
108.0939
 30
0.0
 10
540.0784
 20
108.0939
 30
0.0
 10
540.0784
 20
108.0939
 30
0.0
 10
540.1211
 20
107.7859
 30
0.0
 10
540.242
 20
107.5502
 30
0.0
 10
540.4394
 20
107.3852
 30
0.0
 10
540.4394
 20
107.3852
 30
0.0
 10
540.6369
 20
107.2216
 30
0.0
 10
540.9139
 20
107.1391
 30
0.0
 10
541.2675
 20
107.1391
 30
0.0
 10
541.2675
 20
107.1391
 30
0.0
 10
541.6256
 20
107.1391
 30
0.0
 10
541.8908
 20
107.2113
 30
0.0
 10
542.0646
 20
107.3572
 30
0.0
 10
542.0646
 20
107.3572
 30
0.0
 10
542.237
 20
107.5016
 30
0.0
 10
542.324
 20
107.6725
 30
0.0
 10
542.324
 20
107.8685
 30
0.0
 10
542.324
 20
107.8685
 30
0.0
 10
542.324
 20
108.0438
 30
0.0
 10
542.2459
 20
108.1823
 30
0.0
 10
542.0912
 20
108.2825
 30
0.0
 10
542.0912
 20
108.2825
 30
0.0
 10
541.9821
 20
108.3518
 30
0.0
 10
541.7169
 20
108.4387
 30
0.0
 10
541.2955
 20
108.5462
 30
0.0
 10
541.2955
 20
108.5462
 30
0.0
 10
540.7267
 20
108.6892
 30
0.0
 10
540.3333
 20
108.8129
 30
0.0
 10
540.1123
 20
108.9176
 30
0.0
 10
540.1123
 20
108.9176
 30
0.0
 10
539.8928
 20
109.0237
 30
0.0
 10
539.7263
 20
109.1681
 30
0.0
 10
539.6128
 20
109.3537
 30
0.0
 10
539.6128
 20
109.3537
 30
0.0
 10
539.4993
 20
109.5379
 30
0.0
 10
539.4419
 20
109.7427
 30
0.0
 10
539.4419
 20
109.9667
 30
0.0
 10
539.4419
 20
109.9667
 30
0.0
 10
539.4419
 20
110.1715
 30
0.0
 10
539.489
 20
110.3601
 30
0.0
 10
539.5819
 20
110.534
 30
0.0
 10
539.5819
 20
110.534
 30
0.0
 10
539.6762
 20
110.7078
 30
0.0
 10
539.8029
 20
110.8522
 30
0.0
 10
539.9635
 20
110.9672
 30
0.0
 10
539.9635
 20
110.9672
 30
0.0
 10
540.0843
 20
111.0556
 30
0.0
 10
540.2493
 20
111.1307
 30
0.0
 10
540.4571
 20
111.1926
 30
0.0
 10
540.4571
 20
111.1926
 30
0.0
 10
540.6663
 20
111.2545
 30
0.0
 10
540.8888
 20
111.2854
 30
0.0
 10
541.1275
 20
111.2854
 30
0.0
 10
541.1275
 20
111.2854
 30
0.0
 10
541.487
 20
111.2854
 30
0.0
 10
541.8024
 20
111.2339
 30
0.0
 10
542.0735
 20
111.1292
 30
0.0
 10
542.0735
 20
111.1292
 30
0.0
 10
542.3461
 20
111.0261
 30
0.0
 10
542.5465
 20
110.8846
 30
0.0
 10
542.6761
 20
110.7078
 30
0.0
 10
542.6761
 20
110.7078
 30
0.0
 10
542.8043
 20
110.5295
 30
0.0
 10
542.8942
 20
110.2923
 30
0.0
 10
542.9428
 20
109.9947
 30
0.0
 10
542.9428
 20
109.9947
 30
0.0
 10
542.9428
 20
109.9947
 30
0.0
 10
542.1825
 20
109.8886
 30
0.0
 10
542.1825
 20
109.8886
 30
0.0
 10
542.1825
 20
109.8886
 30
0.0
 10
542.1486
 20
110.1273
 30
0.0
 10
542.0484
 20
110.3144
 30
0.0
 10
541.8834
 20
110.4485
 30
0.0
 10
541.8834
 20
110.4485
 30
0.0
 10
541.7184
 20
110.5826
 30
0.0
 10
541.4856
 20
110.6489
 30
0.0
 10
541.1835
 20
110.6489
 30
0.0
 10
541.1835
 20
110.6489
 30
0.0
 10
540.8284
 20
110.6489
 30
0.0
 10
540.5735
 20
110.5899
 30
0.0
 10
540.4217
 20
110.4721
 30
0.0
 10
540.4217
 20
110.4721
 30
0.0
 10
540.27
 20
110.3542
 30
0.0
 10
540.1933
 20
110.2157
 30
0.0
 10
540.1933
 20
110.058
 30
0.0
 10
540.1933
 20
110.058
 30
0.0
 10
540.1933
 20
109.9578
 30
0.0
 10
540.2243
 20
109.8665
 30
0.0
 10
540.2876
 20
109.7854
 30
0.0
 10
540.2876
 20
109.7854
 30
0.0
 10
540.351
 20
109.7029
 30
0.0
 10
540.4497
 20
109.6337
 30
0.0
 10
540.5853
 20
109.5791
 30
0.0
 10
540.5853
 20
109.5791
 30
0.0
 10
540.6634
 20
109.5497
 30
0.0
 10
540.8903
 20
109.4834
 30
0.0
 10
541.2704
 20
109.3802
 30
0.0
 10
541.2704
 20
109.3802
 30
0.0
 10
541.8186
 20
109.2344
 30
0.0
 10
542.2017
 20
109.1135
 30
0.0
 10
542.4198
 20
109.0207
 30
0.0
 10
542.4198
 20
109.0207
 30
0.0
 10
542.6378
 20
108.9279
 30
0.0
 10
542.8087
 20
108.7908
 30
0.0
 10
542.9325
 20
108.614
 30
0.0
 10
542.9325
 20
108.614
 30
0.0
 10
543.0578
 20
108.4357
 30
0.0
 10
543.1196
 20
108.2147
 30
0.0
 10
543.1196
 20
107.9495
 30
0.0
 10
543.1196
 20
107.9495
 30
0.0
 10
543.1196
 20
107.6916
 30
0.0
 10
543.0445
 20
107.4485
 30
0.0
 10
542.8927
 20
107.2201
 30
0.0
 10
542.8927
 20
107.2201
 30
0.0
 10
542.741
 20
106.9917
 30
0.0
 10
542.5229
 20
106.8149
 30
0.0
 10
542.2385
 20
106.6897
 30
0.0
 10
542.2385
 20
106.6897
 30
0.0
 10
541.9527
 20
106.5644
 30
0.0
 10
541.63
 20
106.5026
 30
0.0
 10
541.2704
 20
106.5026
 30
0.0
 10
541.2704
 20
106.5026
 30
0.0
 10
540.6752
 20
106.5026
 30
0.0
 10
540.2199
 20
106.6263
 30
0.0
 10
539.9075
 20
106.8724
 30
0.0
 10
539.9075
 20
106.8724
 30
0.0
 10
539.5951
 20
107.1199
 30
0.0
 10
539.3962
 20
107.4854
 30
0.0
 10
539.3093
 20
107.9701
 30
0.0
  0
SPLINE
  5
7A
330
1F
100
AcDbEntity
  8
LAYER_1
 62
   250
100
AcDbSpline
210
0.0
220
0.0
230
1.0
 70
    11
 71
     3
 72
    84
 73
    80
 74
     0
 42
0.000000001
 43
0.0000000001
 40
0.0
 40
0.0
 40
0.0
 40
0.0
 40
0.0476190476190476
 40
0.0476190476190476
 40
0.0476190476190476
 40
0.0476190476190476
 40
0.0952380952380952
 40
0.0952380952380952
 40
0.0952380952380952
 40
0.0952380952380952
 40
0.1428571428571428
 40
0.1428571428571428
 40
0.1428571428571428
 40
0.1428571428571428
 40
0.1904761904761905
 40
0.1904761904761905
 40
0.1904761904761905
 40
0.1904761904761905
 40
0.2380952380952381
 40
0.2380952380952381
 40
0.2380952380952381
 40
0.2380952380952381
 40
0.2857142857142857
 40
0.2857142857142857
 40
0.2857142857142857
 40
0.2857142857142857
 40
0.3333333333333333
 40
0.3333333333333333
 40
0.3333333333333333
 40
0.3333333333333333
 40
0.3809523809523809
 40
0.3809523809523809
 40
0.3809523809523809
 40
0.3809523809523809
 40
0.4285714285714285
 40
0.4285714285714285
 40
0.4285714285714285
 40
0.4285714285714285
 40
0.4761904761904762
 40
0.4761904761904762
 40
0.4761904761904762
 40
0.4761904761904762
 40
0.5238095238095238
 40
0.5238095238095238
 40
0.5238095238095238
 40
0.5238095238095238
 40
0.5714285714285714
 40
0.5714285714285714
 40
0.5714285714285714
 40
0.5714285714285714
 40
0.6190476190476191
 40
0.6190476190476191
 40
0.6190476190476191
 40
0.6190476190476191
 40
0.6666666666666666
 40
0.6666666666666666
 40
0.6666666666666666
 40
0.6666666666666666
 40
0.7142857142857143
 40
0.7142857142857143
 40
0.7142857142857143
 40
0.7142857142857143
 40
0.7619047619047619
 40
0.7619047619047619
 40
0.7619047619047619
 40
0.7619047619047619
 40
0.8095238095238095
 40
0.8095238095238095
 40
0.8095238095238095
 40
0.8095238095238095
 40
0.8571428571428571
 40
0.8571428571428571
 40
0.8571428571428571
 40
0.8571428571428571
 40
0.9047619047619048
 40
0.9047619047619048
 40
0.9047619047619048
 40
0.9047619047619048
 40
1.0
 40
1.0
 40
1.0
 40
1.0
 10
545.7277
 20
107.2938
 30
0.0
 10
545.7277
 20
107.2938
 30
0.0
 10
545.8338
 20
106.6072
 30
0.0
 10
545.8338
 20
106.6072
 30
0.0
 10
545.8338
 20
106.6072
 30
0.0
 10
545.6157
 20
106.5615
 30
0.0
 10
545.4197
 20
106.5379
 30
0.0
 10
545.2488
 20
106.5379
 30
0.0
 10
545.2488
 20
106.5379
 30
0.0
 10
544.9674
 20
106.5379
 30
0.0
 10
544.7493
 20
106.5821
 30
0.0
 10
544.5931
 20
106.672
 30
0.0
 10
544.5931
 20
106.672
 30
0.0
 10
544.4384
 20
106.7619
 30
0.0
 10
544.3294
 20
106.8783
 30
0.0
 10
544.266
 20
107.0242
 30
0.0
 10
544.266
 20
107.0242
 30
0.0
 10
544.2026
 20
107.17
 30
0.0
 10
544.1717
 20
107.4765
 30
0.0
 10
544.1717
 20
107.9436
 30
0.0
 10
544.1717
 20
107.9436
 30
0.0
 10
544.1717
 20
107.9436
 30
0.0
 10
544.1717
 20
110.587
 30
0.0
 10
544.1717
 20
110.587
 30
0.0
 10
544.1717
 20
110.587
 30
0.0
 10
544.1717
 20
110.587
 30
0.0
 10
543.5971
 20
110.587
 30
0.0
 10
543.5971
 20
110.587
 30
0.0
 10
543.5971
 20
110.587
 30
0.0
 10
543.5971
 20
110.587
 30
0.0
 10
543.5971
 20
111.1882
 30
0.0
 10
543.5971
 20
111.1882
 30
0.0
 10
543.5971
 20
111.1882
 30
0.0
 10
543.5971
 20
111.1882
 30
0.0
 10
544.1717
 20
111.1882
 30
0.0
 10
544.1717
 20
111.1882
 30
0.0
 10
544.1717
 20
111.1882
 30
0.0
 10
544.1717
 20
111.1882
 30
0.0
 10
544.1717
 20
112.3227
 30
0.0
 10
544.1717
 20
112.3227
 30
0.0
 10
544.1717
 20
112.3227
 30
0.0
 10
544.1717
 20
112.3227
 30
0.0
 10
544.9497
 20
112.7898
 30
0.0
 10
544.9497
 20
112.7898
 30
0.0
 10
544.9497
 20
112.7898
 30
0.0
 10
544.9497
 20
112.7898
 30
0.0
 10
544.9497
 20
111.1882
 30
0.0
 10
544.9497
 20
111.1882
 30
0.0
 10
544.9497
 20
111.1882
 30
0.0
 10
544.9497
 20
111.1882
 30
0.0
 10
545.7277
 20
111.1882
 30
0.0
 10
545.7277
 20
111.1882
 30
0.0
 10
545.7277
 20
111.1882
 30
0.0
 10
545.7277
 20
111.1882
 30
0.0
 10
545.7277
 20
110.587
 30
0.0
 10
545.7277
 20
110.587
 30
0.0
 10
545.7277
 20
110.587
 30
0.0
 10
545.7277
 20
110.587
 30
0.0
 10
544.9497
 20
110.587
 30
0.0
 10
544.9497
 20
110.587
 30
0.0
 10
544.9497
 20
110.587
 30
0.0
 10
544.9497
 20
110.587
 30
0.0
 10
544.9497
 20
107.8994
 30
0.0
 10
544.9497
 20
107.8994
 30
0.0
 10
544.9497
 20
107.8994
 30
0.0
 10
544.9497
 20
107.6769
 30
0.0
 10
544.963
 20
107.534
 30
0.0
 10
544.991
 20
107.4706
 30
0.0
 10
544.991
 20
107.4706
 30
0.0
 10
545.0175
 20
107.4073
 30
0.0
 10
545.0617
 20
107.3572
 30
0.0
 10
545.1236
 20
107.3189
 30
0.0
 10
545.1236
 20
107.3189
 30
0.0
 10
545.1854
 20
107.282
 30
0.0
 10
545.2739
 20
107.2629
 30
0.0
 10
545.3888
 20
107.2629
 30
0.0
 10
545.3888
 20
107.2629
 30
0.0
 10
545.4742
 20
107.2629
 30
0.0
 10
545.5877
 20
107.2732
 30
0.0
 10
545.7277
 20
107.2938
 30
0.0
  0
SPLINE
  5
7B
330
1F
100
AcDbEntity
  8
LAYER_1
 62
   250
100
AcDbSpline
210
0.0
220
0.0
230
1.0
 70
    11
 71
     3
 72
    52
 73
    48
 74
     0
 42
0.000000001
 43
0.0000000001
 40
0.0
 40
0.0
 40
0.0
 40
0.0
 40
0.0769230769230769
 40
0.0769230769230769
 40
0.0769230769230769
 40
0.0769230769230769
 40
0.1538461538461539
 40
0.1538461538461539
 40
0.1538461538461539
 40
0.1538461538461539
 40
0.2307692307692308
 40
0.2307692307692308
 40
0.2307692307692308
 40
0.2307692307692308
 40
0.3076923076923077
 40
0.3076923076923077
 40
0.3076923076923077
 40
0.3076923076923077
 40
0.3846153846153846
 40
0.3846153846153846
 40
0.3846153846153846
 40
0.3846153846153846
 40
0.4615384615384616
 40
0.4615384615384616
 40
0.4615384615384616
 40
0.4615384615384616
 40
0.5384615384615384
 40
0.5384615384615384
 40
0.5384615384615384
 40
0.5384615384615384
 40
0.6153846153846154
 40
0.6153846153846154
 40
0.6153846153846154
 40
0.6153846153846154
 40
0.6923076923076923
 40
0.6923076923076923
 40
0.6923076923076923
 40
0.6923076923076923
 40
0.7692307692307693
 40
0.7692307692307693
 40
0.7692307692307693
 40
0.7692307692307693
 40
0.8461538461538461
 40
0.8461538461538461
 40
0.8461538461538461
 40
0.8461538461538461
 40
1.0
 40
1.0
 40
1.0
 40
1.0
 10
524.6666
 20
99.8468
 30
0.0
 10
524.6666
 20
100.5939
 30
0.0
 10
524.7432
 20
101.198
 30
0.0
 10
524.8965
 20
101.6548
 30
0.0
 10
524.8965
 20
101.6548
 30
0.0
 10
525.0512
 20
102.113
 30
0.0
 10
525.2796
 20
102.4652
 30
0.0
 10
525.5831
 20
102.7113
 30
0.0
 10
525.5831
 20
102.7113
 30
0.0
 10
525.8852
 20
102.9573
 30
0.0
 10
526.2668
 20
103.0796
 30
0.0
 10
526.7265
 20
103.0796
 30
0.0
 10
526.7265
 20
103.0796
 30
0.0
 10
527.0654
 20
103.0796
 30
0.0
 10
527.3631
 20
103.0119
 30
0.0
 10
527.6209
 20
102.8748
 30
0.0
 10
527.6209
 20
102.8748
 30
0.0
 10
527.8773
 20
102.7378
 30
0.0
 10
528.0895
 20
102.5403
 30
0.0
 10
528.2545
 20
102.2825
 30
0.0
 10
528.2545
 20
102.2825
 30
0.0
 10
528.4195
 20
102.0261
 30
0.0
 10
528.5492
 20
101.7123
 30
0.0
 10
528.6435
 20
101.3424
 30
0.0
 10
528.6435
 20
101.3424
 30
0.0
 10
528.7393
 20
100.9726
 30
0.0
 10
528.7864
 20
100.4731
 30
0.0
 10
528.7864
 20
99.8468
 30
0.0
 10
528.7864
 20
99.8468
 30
0.0
 10
528.7864
 20
99.1042
 30
0.0
 10
528.7098
 20
98.503
 30
0.0
 10
528.558
 20
98.0463
 30
0.0
 10
528.558
 20
98.0463
 30
0.0
 10
528.4063
 20
97.588
 30
0.0
 10
528.1779
 20
97.2359
 30
0.0
 10
527.8744
 20
96.9883
 30
0.0
 10
527.8744
 20
96.9883
 30
0.0
 10
527.5723
 20
96.7408
 30
0.0
 10
527.1892
 20
96.617
 30
0.0
 10
526.7265
 20
96.617
 30
0.0
 10
526.7265
 20
96.617
 30
0.0
 10
526.118
 20
96.617
 30
0.0
 10
525.6391
 20
96.8336
 30
0.0
 10
525.2914
 20
97.2683
 30
0.0
 10
525.2914
 20
97.2683
 30
0.0
 10
524.8744
 20
97.7987
 30
0.0
 10
524.6666
 20
98.6578
 30
0.0
 10
524.6666
 20
99.8468
 30
0.0
  0
SPLINE
  5
7C
330
1F
100
AcDbEntity
  8
LAYER_1
 62
   250
100
AcDbSpline
210
0.0
220
0.0
230
1.0
 70
    11
 71
     3
 72
    36
 73
    32
 74
     0
 42
0.000000001
 43
0.0000000001
 40
0.0
 40
0.0
 40
0.0
 40
0.0
 40
0.1111111111111111
 40
0.1111111111111111
 40
0.1111111111111111
 40
0.1111111111111111
 40
0.2222222222222222
 40
0.2222222222222222
 40
0.2222222222222222
 40
0.2222222222222222
 40
0.3333333333333333
 40
0.3333333333333333
 40
0.3333333333333333
 40
0.3333333333333333
 40
0.4444444444444444
 40
0.4444444444444444
 40
0.4444444444444444
 40
0.4444444444444444
 40
0.5555555555555556
 40
0.5555555555555556
 40
0.5555555555555556
 40
0.5555555555555556
 40
0.6666666666666666
 40
0.6666666666666666
 40
0.6666666666666666
 40
0.6666666666666666
 40
0.7777777777777778
 40
0.7777777777777778
 40
0.7777777777777778
 40
0.7777777777777778
 40
1.0
 40
1.0
 40
1.0
 40
1.0
 10
525.4623
 20
99.8439
 30
0.0
 10
525.4623
 20
98.8022
 30
0.0
 10
525.5831
 20
98.1096
 30
0.0
 10
525.8262
 20
97.7678
 30
0.0
 10
525.8262
 20
97.7678
 30
0.0
 10
526.0694
 20
97.4245
 30
0.0
 10
526.3699
 20
97.2535
 30
0.0
 10
526.7265
 20
97.2535
 30
0.0
 10
526.7265
 20
97.2535
 30
0.0
 10
527.0831
 20
97.2535
 30
0.0
 10
527.3837
 20
97.4259
 30
0.0
 10
527.6268
 20
97.7693
 30
0.0
 10
527.6268
 20
97.7693
 30
0.0
 10
527.8699
 20
98.1141
 30
0.0
 10
527.9908
 20
98.8051
 30
0.0
 10
527.9908
 20
99.8439
 30
0.0
 10
527.9908
 20
99.8439
 30
0.0
 10
527.9908
 20
100.8856
 30
0.0
 10
527.8699
 20
101.5782
 30
0.0
 10
527.6268
 20
101.92
 30
0.0
 10
527.6268
 20
101.92
 30
0.0
 10
527.3852
 20
102.2633
 30
0.0
 10
527.0816
 20
102.4343
 30
0.0
 10
526.7177
 20
102.4343
 30
0.0
 10
526.7177
 20
102.4343
 30
0.0
 10
526.3611
 20
102.4343
 30
0.0
 10
526.0752
 20
102.2825
 30
0.0
 10
525.8616
 20
101.9804
 30
0.0
 10
525.8616
 20
101.9804
 30
0.0
 10
525.5949
 20
101.5959
 30
0.0
 10
525.4623
 20
100.8827
 30
0.0
 10
525.4623
 20
99.8439
 30
0.0
  0
SPLINE
  5
7D
330
1F
100
AcDbEntity
  8
LAYER_1
 62
   250
100
AcDbSpline
210
0.0
220
0.0
230
1.0
 70
    11
 71
     3
 72
    20
 73
    16
 74
     0
 42
0.000000001
 43
0.0000000001
 40
0.0
 40
0.0
 40
0.0
 40
0.0
 40
0.2
 40
0.2
 40
0.2
 40
0.2
 40
0.4
 40
0.4
 40
0.4
 40
0.4
 40
0.6
 40
0.6
 40
0.6
 40
0.6
 40
1.0
 40
1.0
 40
1.0
 40
1.0
 10
530.0168
 20
96.7231
 30
0.0
 10
530.0168
 20
96.7231
 30
0.0
 10
530.0168
 20
97.6072
 30
0.0
 10
530.0168
 20
97.6072
 30
0.0
 10
530.0168
 20
97.6072
 30
0.0
 10
530.0168
 20
97.6072
 30
0.0
 10
530.9009
 20
97.6072
 30
0.0
 10
530.9009
 20
97.6072
 30
0.0
 10
530.9009
 20
97.6072
 30
0.0
 10
530.9009
 20
97.6072
 30
0.0
 10
530.9009
 20
96.7231
 30
0.0
 10
530.9009
 20
96.7231
 30
0.0
 10
530.9009
 20
96.7231
 30
0.0
 10
530.9009
 20
96.7231
 30
0.0
 10
530.0168
 20
96.7231
 30
0.0
 10
530.0168
 20
96.7231
 30
0.0
  0
SPLINE
  5
7E
330
1F
100
AcDbEntity
  8
LAYER_1
 62
   250
100
AcDbSpline
210
0.0
220
0.0
230
1.0
 70
    11
 71
     3
 72
    40
 73
    36
 74
     0
 42
0.000000001
 43
0.0000000001
 40
0.0
 40
0.0
 40
0.0
 40
0.0
 40
0.1
 40
0.1
 40
0.1
 40
0.1
 40
0.2
 40
0.2
 40
0.2
 40
0.2
 40
0.3
 40
0.3
 40
0.3
 40
0.3
 40
0.4
 40
0.4
 40
0.4
 40
0.4
 40
0.5
 40
0.5
 40
0.5
 40
0.5
 40
0.6
 40
0.6
 40
0.6
 40
0.6
 40
0.7
 40
0.7
 40
0.7
 40
0.7
 40
0.8
 40
0.8
 40
0.8
 40
0.8
 40
1.0
 40
1.0
 40
1.0
 40
1.0
 10
534.9574
 20
96.7231
 30
0.0
 10
534.9574
 20
96.7231
 30
0.0
 10
534.1794
 20
96.7231
 30
0.0
 10
534.1794
 20
96.7231
 30
0.0
 10
534.1794
 20
96.7231
 30
0.0
 10
534.1794
 20
96.7231
 30
0.0
 10
534.1794
 20
101.6769
 30
0.0
 10
534.1794
 20
101.6769
 30
0.0
 10
534.1794
 20
101.6769
 30
0.0
 10
533.9923
 20
101.4971
 30
0.0
 10
533.7462
 20
101.3188
 30
0.0
 10
533.4427
 20
101.1406
 30
0.0
 10
533.4427
 20
101.1406
 30
0.0
 10
533.1391
 20
100.9623
 30
0.0
 10
532.8651
 20
100.8282
 30
0.0
 10
532.6234
 20
100.7398
 30
0.0
 10
532.6234
 20
100.7398
 30
0.0
 10
532.6234
 20
100.7398
 30
0.0
 10
532.6234
 20
101.4912
 30
0.0
 10
532.6234
 20
101.4912
 30
0.0
 10
532.6234
 20
101.4912
 30
0.0
 10
533.0581
 20
101.6946
 30
0.0
 10
533.4382
 20
101.9421
 30
0.0
 10
533.7639
 20
102.2339
 30
0.0
 10
533.7639
 20
102.2339
 30
0.0
 10
534.0895
 20
102.5241
 30
0.0
 10
534.3208
 20
102.8056
 30
0.0
 10
534.4564
 20
103.0796
 30
0.0
 10
534.4564
 20
103.0796
 30
0.0
 10
534.4564
 20
103.0796
 30
0.0
 10
534.9574
 20
103.0796
 30
0.0
 10
534.9574
 20
103.0796
 30
0.0
 10
534.9574
 20
103.0796
 30
0.0
 10
534.9574
 20
103.0796
 30
0.0
 10
534.9574
 20
96.7231
 30
0.0
 10
534.9574
 20
96.7231
 30
0.0
  0
SPLINE
  5
7F
330
1F
100
AcDbEntity
  8
LAYER_1
 62
   250
100
AcDbSpline
210
0.0
220
0.0
230
1.0
 70
    11
 71
     3
 72
   116
 73
   112
 74
     0
 42
0.000000001
 43
0.0000000001
 40
0.0
 40
0.0
 40
0.0
 40
0.0
 40
0.0344827586206897
 40
0.0344827586206897
 40
0.0344827586206897
 40
0.0344827586206897
 40
0.0689655172413793
 40
0.0689655172413793
 40
0.0689655172413793
 40
0.0689655172413793
 40
0.103448275862069
 40
0.103448275862069
 40
0.103448275862069
 40
0.103448275862069
 40
0.1379310344827586
 40
0.1379310344827586
 40
0.1379310344827586
 40
0.1379310344827586
 40
0.1724137931034483
 40
0.1724137931034483
 40
0.1724137931034483
 40
0.1724137931034483
 40
0.2068965517241379
 40
0.2068965517241379
 40
0.2068965517241379
 40
0.2068965517241379
 40
0.2413793103448276
 40
0.2413793103448276
 40
0.2413793103448276
 40
0.2413793103448276
 40
0.2758620689655172
 40
0.2758620689655172
 40
0.2758620689655172
 40
0.2758620689655172
 40
0.3103448275862069
 40
0.3103448275862069
 40
0.3103448275862069
 40
0.3103448275862069
 40
0.3448275862068966
 40
0.3448275862068966
 40
0.3448275862068966
 40
0.3448275862068966
 40
0.3793103448275862
 40
0.3793103448275862
 40
0.3793103448275862
 40
0.3793103448275862
 40
0.4137931034482759
 40
0.4137931034482759
 40
0.4137931034482759
 40
0.4137931034482759
 40
0.4482758620689655
 40
0.4482758620689655
 40
0.4482758620689655
 40
0.4482758620689655
 40
0.4827586206896552
 40
0.4827586206896552
 40
0.4827586206896552
 40
0.4827586206896552
 40
0.5172413793103449
 40
0.5172413793103449
 40
0.5172413793103449
 40
0.5172413793103449
 40
0.5517241379310345
 40
0.5517241379310345
 40
0.5517241379310345
 40
0.5517241379310345
 40
0.5862068965517241
 40
0.5862068965517241
 40
0.5862068965517241
 40
0.5862068965517241
 40
0.6206896551724138
 40
0.6206896551724138
 40
0.6206896551724138
 40
0.6206896551724138
 40
0.6551724137931034
 40
0.6551724137931034
 40
0.6551724137931034
 40
0.6551724137931034
 40
0.6896551724137931
 40
0.6896551724137931
 40
0.6896551724137931
 40
0.6896551724137931
 40
0.7241379310344828
 40
0.7241379310344828
 40
0.7241379310344828
 40
0.7241379310344828
 40
0.7586206896551724
 40
0.7586206896551724
 40
0.7586206896551724
 40
0.7586206896551724
 40
0.7931034482758621
 40
0.7931034482758621
 40
0.7931034482758621
 40
0.7931034482758621
 40
0.8275862068965517
 40
0.8275862068965517
 40
0.8275862068965517
 40
0.8275862068965517
 40
0.8620689655172413
 40
0.8620689655172413
 40
0.8620689655172413
 40
0.8620689655172413
 40
0.896551724137931
 40
0.896551724137931
 40
0.896551724137931
 40
0.896551724137931
 40
0.9310344827586207
 40
0.9310344827586207
 40
0.9310344827586207
 40
0.9310344827586207
 40
1.0
 40
1.0
 40
1.0
 40
1.0
 10
537.1691
 20
96.7231
 30
0.0
 10
537.1691
 20
96.7231
 30
0.0
 10
537.1691
 20
101.3115
 30
0.0
 10
537.1691
 20
101.3115
 30
0.0
 10
537.1691
 20
101.3115
 30
0.0
 10
537.1691
 20
101.3115
 30
0.0
 10
537.8675
 20
101.3115
 30
0.0
 10
537.8675
 20
101.3115
 30
0.0
 10
537.8675
 20
101.3115
 30
0.0
 10
537.8675
 20
101.3115
 30
0.0
 10
537.8675
 20
100.6631
 30
0.0
 10
537.8675
 20
100.6631
 30
0.0
 10
537.8675
 20
100.6631
 30
0.0
 10
538.0104
 20
100.8871
 30
0.0
 10
538.202
 20
101.0684
 30
0.0
 10
538.4407
 20
101.2039
 30
0.0
 10
538.4407
 20
101.2039
 30
0.0
 10
538.6794
 20
101.3409
 30
0.0
 10
538.9505
 20
101.4087
 30
0.0
 10
539.2555
 20
101.4087
 30
0.0
 10
539.2555
 20
101.4087
 30
0.0
 10
539.5944
 20
101.4087
 30
0.0
 10
539.8729
 20
101.338
 30
0.0
 10
540.0895
 20
101.198
 30
0.0
 10
540.0895
 20
101.198
 30
0.0
 10
540.3061
 20
101.0566
 30
0.0
 10
540.4593
 20
100.8606
 30
0.0
 10
540.5478
 20
100.6072
 30
0.0
 10
540.5478
 20
100.6072
 30
0.0
 10
540.9132
 20
101.142
 30
0.0
 10
541.3862
 20
101.4087
 30
0.0
 10
541.9696
 20
101.4087
 30
0.0
 10
541.9696
 20
101.4087
 30
0.0
 10
542.4264
 20
101.4087
 30
0.0
 10
542.7786
 20
101.2835
 30
0.0
 10
543.0232
 20
101.0315
 30
0.0
 10
543.0232
 20
101.0315
 30
0.0
 10
543.2692
 20
100.7796
 30
0.0
 10
543.393
 20
100.392
 30
0.0
 10
543.393
 20
99.869
 30
0.0
 10
543.393
 20
99.869
 30
0.0
 10
543.393
 20
99.869
 30
0.0
 10
543.393
 20
96.7231
 30
0.0
 10
543.393
 20
96.7231
 30
0.0
 10
543.393
 20
96.7231
 30
0.0
 10
543.393
 20
96.7231
 30
0.0
 10
542.615
 20
96.7231
 30
0.0
 10
542.615
 20
96.7231
 30
0.0
 10
542.615
 20
96.7231
 30
0.0
 10
542.615
 20
96.7231
 30
0.0
 10
542.615
 20
99.6111
 30
0.0
 10
542.615
 20
99.6111
 30
0.0
 10
542.615
 20
99.6111
 30
0.0
 10
542.615
 20
99.9205
 30
0.0
 10
542.5885
 20
100.1445
 30
0.0
 10
542.5384
 20
100.2815
 30
0.0
 10
542.5384
 20
100.2815
 30
0.0
 10
542.4883
 20
100.4186
 30
0.0
 10
542.397
 20
100.5276
 30
0.0
 10
542.2629
 20
100.6116
 30
0.0
 10
542.2629
 20
100.6116
 30
0.0
 10
542.1303
 20
100.6956
 30
0.0
 10
541.9741
 20
100.7368
 30
0.0
 10
541.7958
 20
100.7368
 30
0.0
 10
541.7958
 20
100.7368
 30
0.0
 10
541.4716
 20
100.7368
 30
0.0
 10
541.2034
 20
100.6293
 30
0.0
 10
540.9898
 20
100.4156
 30
0.0
 10
540.9898
 20
100.4156
 30
0.0
 10
540.7761
 20
100.2005
 30
0.0
 10
540.67
 20
99.8572
 30
0.0
 10
540.67
 20
99.3857
 30
0.0
 10
540.67
 20
99.3857
 30
0.0
 10
540.67
 20
99.3857
 30
0.0
 10
540.67
 20
96.7231
 30
0.0
 10
540.67
 20
96.7231
 30
0.0
 10
540.67
 20
96.7231
 30
0.0
 10
540.67
 20
96.7231
 30
0.0
 10
539.8921
 20
96.7231
 30
0.0
 10
539.8921
 20
96.7231
 30
0.0
 10
539.8921
 20
96.7231
 30
0.0
 10
539.8921
 20
96.7231
 30
0.0
 10
539.8921
 20
99.701
 30
0.0
 10
539.8921
 20
99.701
 30
0.0
 10
539.8921
 20
99.701
 30
0.0
 10
539.8921
 20
100.0458
 30
0.0
 10
539.8287
 20
100.3051
 30
0.0
 10
539.702
 20
100.4775
 30
0.0
 10
539.702
 20
100.4775
 30
0.0
 10
539.5753
 20
100.6499
 30
0.0
 10
539.3675
 20
100.7368
 30
0.0
 10
539.0802
 20
100.7368
 30
0.0
 10
539.0802
 20
100.7368
 30
0.0
 10
538.8621
 20
100.7368
 30
0.0
 10
538.6602
 20
100.6794
 30
0.0
 10
538.4746
 20
100.5644
 30
0.0
 10
538.4746
 20
100.5644
 30
0.0
 10
538.2889
 20
100.4495
 30
0.0
 10
538.1548
 20
100.2815
 30
0.0
 10
538.0709
 20
100.059
 30
0.0
 10
538.0709
 20
100.059
 30
0.0
 10
537.9883
 20
99.838
 30
0.0
 10
537.9471
 20
99.5183
 30
0.0
 10
537.9471
 20
99.1013
 30
0.0
 10
537.9471
 20
99.1013
 30
0.0
 10
537.9471
 20
99.1013
 30
0.0
 10
537.9471
 20
96.7231
 30
0.0
 10
537.9471
 20
96.7231
 30
0.0
 10
537.9471
 20
96.7231
 30
0.0
 10
537.9471
 20
96.7231
 30
0.0
 10
537.1691
 20
96.7231
 30
0.0
 10
537.1691
 20
96.7231
 30
0.0
  0
SPLINE
  5
80
330
1F
100
AcDbEntity
  8
LAYER_1
 62
   250
100
AcDbSpline
210
0.0
220
0.0
230
1.0
 70
    11
 71
     3
 72
   116
 73
   112
 74
     0
 42
0.000000001
 43
0.0000000001
 40
0.0
 40
0.0
 40
0.0
 40
0.0
 40
0.0344827586206897
 40
0.0344827586206897
 40
0.0344827586206897
 40
0.0344827586206897
 40
0.0689655172413793
 40
0.0689655172413793
 40
0.0689655172413793
 40
0.0689655172413793
 40
0.103448275862069
 40
0.103448275862069
 40
0.103448275862069
 40
0.103448275862069
 40
0.1379310344827586
 40
0.1379310344827586
 40
0.1379310344827586
 40
0.1379310344827586
 40
0.1724137931034483
 40
0.1724137931034483
 40
0.1724137931034483
 40
0.1724137931034483
 40
0.2068965517241379
 40
0.2068965517241379
 40
0.2068965517241379
 40
0.2068965517241379
 40
0.2413793103448276
 40
0.2413793103448276
 40
0.2413793103448276
 40
0.2413793103448276
 40
0.2758620689655172
 40
0.2758620689655172
 40
0.2758620689655172
 40
0.2758620689655172
 40
0.3103448275862069
 40
0.3103448275862069
 40
0.3103448275862069
 40
0.3103448275862069
 40
0.3448275862068966
 40
0.3448275862068966
 40
0.3448275862068966
 40
0.3448275862068966
 40
0.3793103448275862
 40
0.3793103448275862
 40
0.3793103448275862
 40
0.3793103448275862
 40
0.4137931034482759
 40
0.4137931034482759
 40
0.4137931034482759
 40
0.4137931034482759
 40
0.4482758620689655
 40
0.4482758620689655
 40
0.4482758620689655
 40
0.4482758620689655
 40
0.4827586206896552
 40
0.4827586206896552
 40
0.4827586206896552
 40
0.4827586206896552
 40
0.5172413793103449
 40
0.5172413793103449
 40
0.5172413793103449
 40
0.5172413793103449
 40
0.5517241379310345
 40
0.5517241379310345
 40
0.5517241379310345
 40
0.5517241379310345
 40
0.5862068965517241
 40
0.5862068965517241
 40
0.5862068965517241
 40
0.5862068965517241
 40
0.6206896551724138
 40
0.6206896551724138
 40
0.6206896551724138
 40
0.6206896551724138
 40
0.6551724137931034
 40
0.6551724137931034
 40
0.6551724137931034
 40
0.6551724137931034
 40
0.6896551724137931
 40
0.6896551724137931
 40
0.6896551724137931
 40
0.6896551724137931
 40
0.7241379310344828
 40
0.7241379310344828
 40
0.7241379310344828
 40
0.7241379310344828
 40
0.7586206896551724
 40
0.7586206896551724
 40
0.7586206896551724
 40
0.7586206896551724
 40
0.7931034482758621
 40
0.7931034482758621
 40
0.7931034482758621
 40
0.7931034482758621
 40
0.8275862068965517
 40
0.8275862068965517
 40
0.8275862068965517
 40
0.8275862068965517
 40
0.8620689655172413
 40
0.8620689655172413
 40
0.8620689655172413
 40
0.8620689655172413
 40
0.896551724137931
 40
0.896551724137931
 40
0.896551724137931
 40
0.896551724137931
 40
0.9310344827586207
 40
0.9310344827586207
 40
0.9310344827586207
 40
0.9310344827586207
 40
1.0
 40
1.0
 40
1.0
 40
1.0
 10
544.5335
 20
96.7231
 30
0.0
 10
544.5335
 20
96.7231
 30
0.0
 10
544.5335
 20
101.3115
 30
0.0
 10
544.5335
 20
101.3115
 30
0.0
 10
544.5335
 20
101.3115
 30
0.0
 10
544.5335
 20
101.3115
 30
0.0
 10
545.2319
 20
101.3115
 30
0.0
 10
545.2319
 20
101.3115
 30
0.0
 10
545.2319
 20
101.3115
 30
0.0
 10
545.2319
 20
101.3115
 30
0.0
 10
545.2319
 20
100.6631
 30
0.0
 10
545.2319
 20
100.6631
 30
0.0
 10
545.2319
 20
100.6631
 30
0.0
 10
545.3748
 20
100.8871
 30
0.0
 10
545.5664
 20
101.0684
 30
0.0
 10
545.8051
 20
101.2039
 30
0.0
 10
545.8051
 20
101.2039
 30
0.0
 10
546.0438
 20
101.3409
 30
0.0
 10
546.3149
 20
101.4087
 30
0.0
 10
546.6199
 20
101.4087
 30
0.0
 10
546.6199
 20
101.4087
 30
0.0
 10
546.9588
 20
101.4087
 30
0.0
 10
547.2373
 20
101.338
 30
0.0
 10
547.4539
 20
101.198
 30
0.0
 10
547.4539
 20
101.198
 30
0.0
 10
547.6705
 20
101.0566
 30
0.0
 10
547.8237
 20
100.8606
 30
0.0
 10
547.9122
 20
100.6072
 30
0.0
 10
547.9122
 20
100.6072
 30
0.0
 10
548.2776
 20
101.142
 30
0.0
 10
548.7506
 20
101.4087
 30
0.0
 10
549.334
 20
101.4087
 30
0.0
 10
549.334
 20
101.4087
 30
0.0
 10
549.7908
 20
101.4087
 30
0.0
 10
550.143
 20
101.2835
 30
0.0
 10
550.3876
 20
101.0315
 30
0.0
 10
550.3876
 20
101.0315
 30
0.0
 10
550.6336
 20
100.7796
 30
0.0
 10
550.7574
 20
100.392
 30
0.0
 10
550.7574
 20
99.869
 30
0.0
 10
550.7574
 20
99.869
 30
0.0
 10
550.7574
 20
99.869
 30
0.0
 10
550.7574
 20
96.7231
 30
0.0
 10
550.7574
 20
96.7231
 30
0.0
 10
550.7574
 20
96.7231
 30
0.0
 10
550.7574
 20
96.7231
 30
0.0
 10
549.9794
 20
96.7231
 30
0.0
 10
549.9794
 20
96.7231
 30
0.0
 10
549.9794
 20
96.7231
 30
0.0
 10
549.9794
 20
96.7231
 30
0.0
 10
549.9794
 20
99.6111
 30
0.0
 10
549.9794
 20
99.6111
 30
0.0
 10
549.9794
 20
99.6111
 30
0.0
 10
549.9794
 20
99.9205
 30
0.0
 10
549.9529
 20
100.1445
 30
0.0
 10
549.9028
 20
100.2815
 30
0.0
 10
549.9028
 20
100.2815
 30
0.0
 10
549.8527
 20
100.4186
 30
0.0
 10
549.7614
 20
100.5276
 30
0.0
 10
549.6273
 20
100.6116
 30
0.0
 10
549.6273
 20
100.6116
 30
0.0
 10
549.4947
 20
100.6956
 30
0.0
 10
549.3385
 20
100.7368
 30
0.0
 10
549.1602
 20
100.7368
 30
0.0
 10
549.1602
 20
100.7368
 30
0.0
 10
548.836
 20
100.7368
 30
0.0
 10
548.5678
 20
100.6293
 30
0.0
 10
548.3542
 20
100.4156
 30
0.0
 10
548.3542
 20
100.4156
 30
0.0
 10
548.1405
 20
100.2005
 30
0.0
 10
548.0344
 20
99.8572
 30
0.0
 10
548.0344
 20
99.3857
 30
0.0
 10
548.0344
 20
99.3857
 30
0.0
 10
548.0344
 20
99.3857
 30
0.0
 10
548.0344
 20
96.7231
 30
0.0
 10
548.0344
 20
96.7231
 30
0.0
 10
548.0344
 20
96.7231
 30
0.0
 10
548.0344
 20
96.7231
 30
0.0
 10
547.2565
 20
96.7231
 30
0.0
 10
547.2565
 20
96.7231
 30
0.0
 10
547.2565
 20
96.7231
 30
0.0
 10
547.2565
 20
96.7231
 30
0.0
 10
547.2565
 20
99.701
 30
0.0
 10
547.2565
 20
99.701
 30
0.0
 10
547.2565
 20
99.701
 30
0.0
 10
547.2565
 20
100.0458
 30
0.0
 10
547.1931
 20
100.3051
 30
0.0
 10
547.0664
 20
100.4775
 30
0.0
 10
547.0664
 20
100.4775
 30
0.0
 10
546.9397
 20
100.6499
 30
0.0
 10
546.7319
 20
100.7368
 30
0.0
 10
546.4446
 20
100.7368
 30
0.0
 10
546.4446
 20
100.7368
 30
0.0
 10
546.2265
 20
100.7368
 30
0.0
 10
546.0246
 20
100.6794
 30
0.0
 10
545.839
 20
100.5644
 30
0.0
 10
545.839
 20
100.5644
 30
0.0
 10
545.6533
 20
100.4495
 30
0.0
 10
545.5192
 20
100.2815
 30
0.0
 10
545.4353
 20
100.059
 30
0.0
 10
545.4353
 20
100.059
 30
0.0
 10
545.3527
 20
99.838
 30
0.0
 10
545.3115
 20
99.5183
 30
0.0
 10
545.3115
 20
99.1013
 30
0.0
 10
545.3115
 20
99.1013
 30
0.0
 10
545.3115
 20
99.1013
 30
0.0
 10
545.3115
 20
96.7231
 30
0.0
 10
545.3115
 20
96.7231
 30
0.0
 10
545.3115
 20
96.7231
 30
0.0
 10
545.3115
 20
96.7231
 30
0.0
 10
544.5335
 20
96.7231
 30
0.0
 10
544.5335
 20
96.7231
 30
0.0
  0
ENDSEC
  0
SECTION
  2
OBJECTS
  0
DICTIONARY
  5
C
330
0
100
AcDbDictionary
  3
ACAD_GROUP
350
D
  3
ACAD_LAYOUT
350
1A
  3
ACAD_MATERIAL
350
43
  3
ACAD_MLEADERSTYLE
350
A3
  3
ACAD_MLINESTYLE
350
17
  3
ACAD_PLOTSETTINGS
350
19
  3
ACAD_SCALELIST
350
47
  3
ACAD_VISUALSTYLE
350
2A
  3
ACDBHEADERROUNDTRIPXREC
350
81
  3
ACDBVARIABLEDICTIONARY
350
A1
  0
DICTIONARY
  5
D
102
{ACAD_REACTORS
330
C
102
}
330
C
100
AcDbDictionary
  0
DICTIONARY
  5
1A
102
{ACAD_REACTORS
330
C
102
}
330
C
100
AcDbDictionary
  0
DICTIONARY
  5
43
102
{ACAD_REACTORS
330
C
102
}
330
C
100
AcDbDictionary
  3
BYBLOCK
350
45
  3
BYLAYER
350
44
  3
GLOBAL
350
46
  0
DICTIONARY
  5
A3
102
{ACAD_REACTORS
330
C
102
}
330
C
100
AcDbDictionary
  0
DICTIONARY
  5
17
102
{ACAD_REACTORS
330
C
102
}
330
C
100
AcDbDictionary
  3
STANDARD
350
18
  0
DICTIONARY
  5
19
102
{ACAD_REACTORS
330
C
102
}
330
C
100
AcDbDictionary
  0
DICTIONARY
  5
47
102
{ACAD_REACTORS
330
C
102
}
330
C
100
AcDbDictionary
  3
A0
350
48
  3
A1
350
49
  3
A2
350
4A
  3
A3
350
4B
  3
A4
350
4C
  3
A5
350
4D
  3
A6
350
4E
  3
A7
350
4F
  3
A8
350
50
  3
A9
350
51
  3
B0
350
52
  3
B1
350
53
  3
B2
350
54
  3
B3
350
55
  3
B4
350
56
  3
B5
350
57
  3
B6
350
58
  3
B7
350
59
  3
B8
350
5A
  3
B9
350
5B
  3
C0
350
5C
  3
C1
350
5D
  3
C2
350
5E
  3
C3
350
5F
  3
C4
350
60
  3
C5
350
61
  3
C6
350
62
  3
C7
350
63
  3
C8
350
64
  3
C9
350
65
  3
D0
350
66
  3
D1
350
67
  3
D2
350
68
  0
DICTIONARY
  5
2A
102
{ACAD_REACTORS
330
C
102
}
330
C
100
AcDbDictionary
  3
2DWIREFRAME
350
2F
  3
BASIC
350
32
  3
BRIGHTEN
350
36
  3
COLORCHANGE
350
3A
  3
CONCEPTUAL
350
34
  3
DIM
350
35
  3
EDGECOLOROFF
350
3D
  3
FACEPATTERN
350
39
  3
FLAT
350
2B
  3
FLATWITHEDGES
350
2C
  3
GOURAUD
350
2D
  3
GOURAUDWITHEDGES
350
2E
  3
HIDDEN
350
31
  3
JITTEROFF
350
3B
  3
LINEPATTERN
350
38
  3
OVERHANGOFF
350
3C
  3
REALISTIC
350
33
  3
SHADED
350
42
  3
SHADED_WITH_EDGES
350
41
  3
SHADES_OF_GRAY
350
3E
  3
SKETCHY
350
3F
  3
THICKEN
350
37
  3
WIREFRAME
350
30
  3
X-RAY
350
40
  0
DICTIONARY
  5
81
102
{ACAD_REACTORS
330
C
102
}
330
C
100
AcDbDictionary
  3
CEPSNTYPE
350
8A
  3
DIMSTYLEDATA
350
A0
  3
FINGERPRINTGUID
350
8B
  3
HYPERLINKBASE
350
84
  3
INSUNITS
350
89
  3
LAYOUTDICT
350
86
  3
LWETCUNION
350
88
  3
PLOTSETDICT
350
87
  3
PSVPSCALE
350
8D
  3
PUCSBASE
350
90
  3
PUCSORGBACK
350
96
  3
PUCSORGBOTTOM
350
92
  3
PUCSORGFRONT
350
95
  3
PUCSORGLEFT
350
93
  3
PUCSORGRIGHT
350
94
  3
PUCSORGTOP
350
91
  3
PUCSORTHOREF
350
8E
  3
PUCSORTHOVIEW
350
8F
  3
STYLESHEET
350
85
  3
TSTACKALIGN
350
82
  3
TSTACKSIZE
350
83
  3
UCSBASE
350
99
  3
UCSORGBACK
350
9F
  3
UCSORGBOTTOM
350
9B
  3
UCSORGFRONT
350
9E
  3
UCSORGLEFT
350
9C
  3
UCSORGRIGHT
350
9D
  3
UCSORGTOP
350
9A
  3
UCSORTHOREF
350
97
  3
UCSORTHOVIEW
350
98
  3
VERSIONGUID
350
8C
  0
DICTIONARY
  5
A1
102
{ACAD_REACTORS
330
C
102
}
330
C
100
AcDbDictionary
  3
CANNOSCALE
350
A8
  3
DIMASSOC
350
A6
  3
HIDETEXT
350
A7
  3
MSLTSCALE
350
A9
  0
MATERIAL
  5
45
102
{ACAD_REACTORS
330
43
102
}
102
{ACAD_XDICTIONARY
360
AC
102
}
330
43
100
AcDbMaterial
  1
BYBLOCK
  0
MATERIAL
  5
44
102
{ACAD_REACTORS
330
43
102
}
102
{ACAD_XDICTIONARY
360
AA
102
}
330
43
100
AcDbMaterial
  1
BYLAYER
  0
MATERIAL
  5
46
102
{ACAD_REACTORS
330
43
102
}
102
{ACAD_XDICTIONARY
360
AE
102
}
330
43
100
AcDbMaterial
  1
GLOBAL
  0
MLINESTYLE
  5
18
102
{ACAD_REACTORS
330
17
102
}
330
17
100
AcDbMlineStyle
  2
Standard
 70
     0
  3

 62
   256
 51
90.0
 52
90.0
 71
     2
 49
0.5
 62
   256
  6
BYLAYER
 49
-0.5
 62
   256
  6
BYLAYER
  0
ACAD_PROXY_OBJECT
  5
48
102
{ACAD_REACTORS
330
47
102
}
330
47
100
AcDbProxyObject
 90
      499
 91
      503
 93
       41
310
903313A31580
  0
ACAD_PROXY_OBJECT
  5
49
102
{ACAD_REACTORS
330
47
102
}
330
47
100
AcDbProxyObject
 90
      499
 91
      503
 93
      105
310
903313A324000000000000004000
  0
ACAD_PROXY_OBJECT
  5
4A
102
{ACAD_REACTORS
330
47
102
}
330
47
100
AcDbProxyObject
 90
      499
 91
      503
 93
      105
310
903313A344000000000000104000
  0
ACAD_PROXY_OBJECT
  5
4B
102
{ACAD_REACTORS
330
47
102
}
330
47
100
AcDbProxyObject
 90
      499
 91
      503
 93
      105
310
903313A354000000000000144000
  0
ACAD_PROXY_OBJECT
  5
4C
102
{ACAD_REACTORS
330
47
102
}
330
47
100
AcDbProxyObject
 90
      499
 91
      503
 93
      105
310
903313A384000000000000204000
  0
ACAD_PROXY_OBJECT
  5
4D
102
{ACAD_REACTORS
330
47
102
}
330
47
100
AcDbProxyObject
 90
      499
 91
      503
 93
      113
310
904313A31304000000000000244000
  0
ACAD_PROXY_OBJECT
  5
4E
102
{ACAD_REACTORS
330
47
102
}
330
47
100
AcDbProxyObject
 90
      499
 91
      503
 93
      113
310
904313A31364000000000000304000
  0
ACAD_PROXY_OBJECT
  5
4F
102
{ACAD_REACTORS
330
47
102
}
330
47
100
AcDbProxyObject
 90
      499
 91
      503
 93
      113
310
904313A32304000000000000344000
  0
ACAD_PROXY_OBJECT
  5
50
102
{ACAD_REACTORS
330
47
102
}
330
47
100
AcDbProxyObject
 90
      499
 91
      503
 93
      113
310
904313A333040000000000003E4000
  0
ACAD_PROXY_OBJECT
  5
51
102
{ACAD_REACTORS
330
47
102
}
330
47
100
AcDbProxyObject
 90
      499
 91
      503
 93
      113
310
904313A34304000000000000444000
  0
ACAD_PROXY_OBJECT
  5
52
102
{ACAD_REACTORS
330
47
102
}
330
47
100
AcDbProxyObject
 90
      499
 91
      503
 93
      113
310
904313A35304000000000000494000
  0
ACAD_PROXY_OBJECT
  5
53
102
{ACAD_REACTORS
330
47
102
}
330
47
100
AcDbProxyObject
 90
      499
 91
      503
 93
      121
310
905313A3130304000000000000594000
  0
ACAD_PROXY_OBJECT
  5
54
102
{ACAD_REACTORS
330
47
102
}
330
47
100
AcDbProxyObject
 90
      499
 91
      503
 93
      105
310
903323A310000000000000010100
  0
ACAD_PROXY_OBJECT
  5
55
102
{ACAD_REACTORS
330
47
102
}
330
47
100
AcDbProxyObject
 90
      499
 91
      503
 93
      105
310
903343A310000000000000410100
  0
ACAD_PROXY_OBJECT
  5
56
102
{ACAD_REACTORS
330
47
102
}
330
47
100
AcDbProxyObject
 90
      499
 91
      503
 93
      105
310
903383A310000000000000810100
  0
ACAD_PROXY_OBJECT
  5
57
102
{ACAD_REACTORS
330
47
102
}
330
47
100
AcDbProxyObject
 90
      499
 91
      503
 93
      113
310
90431303A310000000000000910100
  0
ACAD_PROXY_OBJECT
  5
58
102
{ACAD_REACTORS
330
47
102
}
330
47
100
AcDbProxyObject
 90
      499
 91
      503
 93
      121
310
9053130303A310000000000001650100
  0
ACAD_PROXY_OBJECT
  5
59
102
{ACAD_REACTORS
330
47
102
}
330
47
100
AcDbProxyObject
 90
      499
 91
      503
 93
      257
310
90E312F31323822203D2031272D3022000000000000200FC000000000000284000
  0
ACAD_PROXY_OBJECT
  5
5A
102
{ACAD_REACTORS
330
47
102
}
330
47
100
AcDbProxyObject
 90
      499
 91
      503
 93
      249
310
90D312F363422203D2031272D3022000000000000240FC000000000000284000
  0
ACAD_PROXY_OBJECT
  5
5B
102
{ACAD_REACTORS
330
47
102
}
330
47
100
AcDbProxyObject
 90
      499
 91
      503
 93
      249
310
90D312F333222203D2031272D3022000000000000280FC000000000000284000
  0
ACAD_PROXY_OBJECT
  5
5C
102
{ACAD_REACTORS
330
47
102
}
330
47
100
AcDbProxyObject
 90
      499
 91
      503
 93
      249
310
90D312F313622203D2031272D30220000000000002C0FC000000000000284000
  0
ACAD_PROXY_OBJECT
  5
5D
102
{ACAD_REACTORS
330
47
102
}
330
47
100
AcDbProxyObject
 90
      499
 91
      503
 93
      249
310
90D332F333222203D2031272D30220000000000002E0FC000000000000284000
  0
ACAD_PROXY_OBJECT
  5
5E
102
{ACAD_REACTORS
330
47
102
}
330
47
100
AcDbProxyObject
 90
      499
 91
      503
 93
      241
310
90C312F3822203D2031272D3022000000000000300FC000000000000284000
  0
ACAD_PROXY_OBJECT
  5
5F
102
{ACAD_REACTORS
330
47
102
}
330
47
100
AcDbProxyObject
 90
      499
 91
      503
 93
      249
310
90D332F313622203D2031272D3022000000000000320FC000000000000284000
  0
ACAD_PROXY_OBJECT
  5
60
102
{ACAD_REACTORS
330
47
102
}
330
47
100
AcDbProxyObject
 90
      499
 91
      503
 93
      241
310
90C312F3422203D2031272D3022000000000000340FC000000000000284000
  0
ACAD_PROXY_OBJECT
  5
61
102
{ACAD_REACTORS
330
47
102
}
330
47
100
AcDbProxyObject
 90
      499
 91
      503
 93
      241
310
90C332F3822203D2031272D3022000000000000360FC000000000000284000
  0
ACAD_PROXY_OBJECT
  5
62
102
{ACAD_REACTORS
330
47
102
}
330
47
100
AcDbProxyObject
 90
      499
 91
      503
 93
      241
310
90C312F3222203D2031272D3022000000000000380FC000000000000284000
  0
ACAD_PROXY_OBJECT
  5
63
102
{ACAD_REACTORS
330
47
102
}
330
47
100
AcDbProxyObject
 90
      499
 91
      503
 93
      241
310
90C332F3422203D2031272D30220000000000003A0FC000000000000284000
  0
ACAD_PROXY_OBJECT
  5
64
102
{ACAD_REACTORS
330
47
102
}
330
47
100
AcDbProxyObject
 90
      499
 91
      503
 93
      161
310
90A3122203D2031272D30224000000000000284000
  0
ACAD_PROXY_OBJECT
  5
65
102
{ACAD_REACTORS
330
47
102
}
330
47
100
AcDbProxyObject
 90
      499
 91
      503
 93
      257
310
90E312D312F3222203D2031272D30220000000000003E0FC000000000000284000
  0
ACAD_PROXY_OBJECT
  5
66
102
{ACAD_REACTORS
330
47
102
}
330
47
100
AcDbProxyObject
 90
      499
 91
      503
 93
      225
310
90A3322203D2031272D302200000000000002100000000000000284000
  0
ACAD_PROXY_OBJECT
  5
67
102
{ACAD_REACTORS
330
47
102
}
330
47
100
AcDbProxyObject
 90
      499
 91
      503
 93
      225
310
90A3622203D2031272D302200000000000006100000000000000284000
  0
ACAD_PROXY_OBJECT
  5
68
102
{ACAD_REACTORS
330
47
102
}
330
47
100
AcDbProxyObject
 90
      499
 91
      503
 93
      249
310
90D31272D3022203D2031272D30220000000000000A100000000000000284000
  0
ACAD_PROXY_OBJECT
  5
2F
102
{ACAD_REACTORS
330
2A
102
}
330
2A
100
AcDbProxyObject
 90
      499
 91
      501
 93
      436
310
42CC9915DA5C99599C985B595049028333333333333E33F0000000000000F90107901411070040501600405405064090741402480A0340
1001
ACAD
1000
AcDbSavedByObjectVersion
1070
     0
  0
ACAD_PROXY_OBJECT
  5
32
102
{ACAD_REACTORS
330
2A
102
}
330
2A
100
AcDbProxyObject
 90
      499
 91
      501
 93
      388
310
4150985CDA58D07406404333333333333E33F0000000000000F90107A41107004050150841D405064090741402480A0350
1001
ACAD
1000
AcDbSavedByObjectVersion
1070
     0
  0
ACAD_PROXY_OBJECT
  5
36
102
{ACAD_REACTORS
330
2A
102
}
330
2A
100
AcDbProxyObject
 90
      499
 91
      501
 93
      428
310
42109C9A59DA1D195B90C409028333333333333E33F0000000000000F9010790141107004050150841D405064090741402480A029950
1001
ACAD
1000
AcDbSavedByObjectVersion
1070
     0
  0
ACAD_PROXY_OBJECT
  5
3A
102
{ACAD_REACTORS
330
2A
102
}
330
2A
100
AcDbProxyObject
 90
      499
 91
      501
 93
      452
310
42D0DBDB1BDC90DA185B99D95104090240C333333333333E33F0000000000000F90108901411070040501508421405064090741402480A0350
1001
ACAD
1000
AcDbSavedByObjectVersion
1070
     0
  0
ACAD_PROXY_OBJECT
  5
34
102
{ACAD_REACTORS
330
2A
102
}
330
2A
100
AcDbProxyObject
 90
      499
 91
      501
 93
      500
310
4290DBDB98D95C1D1D585B10940D028333333333333E33F0000000000000F90107902409070040501000000000018199010841D405064090740C02480A0340
1001
ACAD
1000
AcDbSavedByObjectVersion
1070
     0
  0
ACAD_PROXY_OBJECT
  5
35
102
{ACAD_REACTORS
330
2A
102
}
330
2A
100
AcDbProxyObject
 90
      499
 91
      501
 93
      412
310
40D11A5B50B409028333333333333E33F0000000000000F9010790141107004050150841D405064090741402480A02677FFFFFD0
1001
ACAD
1000
AcDbSavedByObjectVersion
1070
     0
  0
ACAD_PROXY_OBJECT
  5
3D
102
{ACAD_REACTORS
330
2A
102
}
330
2A
100
AcDbProxyObject
 90
      499
 91
      501
 93
      452
310
43115919D950DBDB1BDC93D999916409028333333333333E33F0000000000000F9010790141107004050150841D405064090741402480A0350
1001
ACAD
1000
AcDbSavedByObjectVersion
1070
     0
  0
ACAD_PROXY_OBJECT
  5
39
102
{ACAD_REACTORS
330
2A
102
}
330
2A
100
AcDbProxyObject
 90
      499
 91
      501
 93
      444
310
42D19858D95C185D1D195C9B90F409028333333333333E33F0000000000000F9010790141107004050150841D405064090741402480A0350
1001
ACAD
1000
AcDbSavedByObjectVersion
1070
     0
  0
ACAD_PROXY_OBJECT
  5
2B
102
{ACAD_REACTORS
330
2A
102
}
330
2A
100
AcDbProxyObject
 90
      499
 91
      501
 93
      380
310
41119B185D240901404333333333333E33F0000000000000F9010740A907004050150841D405064090741402480A1B50
1001
ACAD
1000
AcDbSavedByObjectVersion
1070
     0
  0
ACAD_PROXY_OBJECT
  5
2C
102
{ACAD_REACTORS
330
2A
102
}
330
2A
100
AcDbProxyObject
 90
      499
 91
      501
 93
      468
310
43519B185D15DA5D1A115919D95CD0140901404333333333333E33F0000000000000F90107409019070040501600405405064090741402480A1B50
1001
ACAD
1000
AcDbSavedByObjectVersion
1070
     0
  0
ACAD_PROXY_OBJECT
  5
2D
102
{ACAD_REACTORS
330
2A
102
}
330
2A
100
AcDbProxyObject
 90
      499
 91
      501
 93
      404
310
41D1DBDD5C985D5910240902404333333333333E33F0000000000000F9010740A9070040501641D405064090741402480A1B50
1001
ACAD
1000
AcDbSavedByObjectVersion
1070
     0
  0
ACAD_PROXY_OBJECT
  5
2E
102
{ACAD_REACTORS
330
2A
102
}
330
2A
100
AcDbProxyObject
 90
      499
 91
      501
 93
      492
310
4411DBDD5C985D5915DA5D1A115919D95CD0340902404333333333333E33F0000000000000F90107409019070040501600405405064090741402480A1B50
1001
ACAD
1000
AcDbSavedByObjectVersion
1070
     0
  0
ACAD_PROXY_OBJECT
  5
31
102
{ACAD_REACTORS
330
2A
102
}
330
2A
100
AcDbProxyObject
 90
      499
 91
      501
 93
      476
310
41921A5919195B90640502408333333333333E33F0000000000000F901079024090700405020000000000001110200405405064090740C02480A0340
1001
ACAD
1000
AcDbSavedByObjectVersion
1070
     0
  0
ACAD_PROXY_OBJECT
  5
3B
102
{ACAD_REACTORS
330
2A
102
}
330
2A
100
AcDbProxyObject
 90
      499
 91
      501
 93
      428
310
42529A5D1D195C93D999914409028333333333333E33F0000000000000F9010790141107004050150A41D405064090741402480A0350
1001
ACAD
1000
AcDbSavedByObjectVersion
1070
     0
  0
ACAD_PROXY_OBJECT
  5
38
102
{ACAD_REACTORS
330
2A
102
}
330
2A
100
AcDbProxyObject
 90
      499
 91
      501
 93
      444
310
42D31A5B995C185D1D195C9B90E409028333333333333E33F0000000000000F9010790141107004050750841D405064090741402483A0350
1001
ACAD
1000
AcDbSavedByObjectVersion
1070
     0
  0
ACAD_PROXY_OBJECT
  5
3C
102
{ACAD_REACTORS
330
2A
102
}
330
2A
100
AcDbProxyObject
 90
      499
 91
      501
 93
      444
310
42D3DD995C9A185B99D3D999915409028333333333333E33F0000000000000F9010790141107004050150941D405064090741402480A0350
1001
ACAD
1000
AcDbSavedByObjectVersion
1070
     0
  0
ACAD_PROXY_OBJECT
  5
33
102
{ACAD_REACTORS
330
2A
102
}
330
2A
100
AcDbProxyObject
 90
      499
 91
      501
 93
      428
310
425499585B1A5CDD1A58D08409038333333333333E33F0000000000000F9010740A907004050150800405405064090740C02480A1B40
1001
ACAD
1000
AcDbSavedByObjectVersion
1070
     0
  0
ACAD_PROXY_OBJECT
  5
42
102
{ACAD_REACTORS
330
2A
102
}
330
2A
100
AcDbProxyObject
 90
      499
 91
      501
 93
      420
310
4194DA1859195911B40902404333333333333E33F0000000000000F9010740A41107004050150800405405064090840C02480A0B40
1001
ACAD
1000
AcDbSavedByObjectVersion
1070
     0
  0
ACAD_PROXY_OBJECT
  5
41
102
{ACAD_REACTORS
330
2A
102
}
330
2A
100
AcDbProxyObject
 90
      499
 91
      501
 93
      516
310
4454DA18591959081DDA5D1A08195919D95CD1A40902404333333333333E33F0000000000000F901074090142907004050250800405405064090740C02480A0B40
1001
ACAD
1000
AcDbSavedByObjectVersion
1070
     0
  0
ACAD_PROXY_OBJECT
  5
3E
102
{ACAD_REACTORS
330
2A
102
}
330
2A
100
AcDbProxyObject
 90
      499
 91
      501
 93
      532
310
4394DA1859195CC81BD98811DC985E5174090240C333333333333E33F0000000000000F901079024090741D01000000000000111010841D405064090740C02480A0340
1001
ACAD
1000
AcDbSavedByObjectVersion
1070
     0
  0
ACAD_PROXY_OBJECT
  5
3F
102
{ACAD_REACTORS
330
2A
102
}
330
2A
100
AcDbProxyObject
 90
      499
 91
      501
 93
      476
310
41D4DAD95D18DA1E51840502408333333333333E33F0000000000000F901079024090741D01000000000000111010B41D405064090741802480A0340
1001
ACAD
1000
AcDbSavedByObjectVersion
1070
     0
  0
ACAD_PROXY_OBJECT
  5
37
102
{ACAD_REACTORS
330
2A
102
}
330
2A
100
AcDbProxyObject
 90
      499
 91
      501
 93
      412
310
41D51A1A58DAD95B90D409028333333333333E33F0000000000000F9010790141107004050150C41D405064090741402480A0350
1001
ACAD
1000
AcDbSavedByObjectVersion
1070
     0
  0
ACAD_PROXY_OBJECT
  5
30
102
{ACAD_REACTORS
330
2A
102
}
330
2A
100
AcDbProxyObject
 90
      499
 91
      501
 93
      420
310
4255DA5C99599C985B595059028333333333333E33F0000000000000F90107901411070040501600405405064090740C02480A0340
1001
ACAD
1000
AcDbSavedByObjectVersion
1070
     0
  0
ACAD_PROXY_OBJECT
  5
40
102
{ACAD_REACTORS
330
2A
102
}
330
2A
100
AcDbProxyObject
 90
      499
 91
      501
 93
      404
310
41560B54985E51940902404000000000000E03F0000000000000F9010740501907004050150841D405064090740C02480A1B40
1001
ACAD
1000
AcDbSavedByObjectVersion
1070
     0
  0
XRECORD
  5
8A
102
{ACAD_REACTORS
330
81
102
}
330
81
100
AcDbXrecord
 90
        0
  0
XRECORD
  5
A0
102
{ACAD_REACTORS
330
81
102
}
330
81
100
AcDbXrecord
1000
DSTYLE
1002
{
1070
   340
340
11
1002
}
  0
XRECORD
  5
8B
102
{ACAD_REACTORS
330
81
102
}
330
81
100
AcDbXrecord
  1
{B17AE69F-B38E-4023-816F-3447BF9D4716}
  0
XRECORD
  5
84
102
{ACAD_REACTORS
330
81
102
}
330
81
100
AcDbXrecord
  1

  0
XRECORD
  5
89
102
{ACAD_REACTORS
330
81
102
}
330
81
100
AcDbXrecord
 90
        4
  0
XRECORD
  5
86
102
{ACAD_REACTORS
330
81
102
}
330
81
100
AcDbXrecord
340
1A
  0
XRECORD
  5
88
102
{ACAD_REACTORS
330
81
102
}
330
81
100
AcDbXrecord
 90
    10781
  0
XRECORD
  5
87
102
{ACAD_REACTORS
330
81
102
}
330
81
100
AcDbXrecord
340
19
  0
XRECORD
  5
8D
102
{ACAD_REACTORS
330
81
102
}
330
81
100
AcDbXrecord
 40
0.0
  0
XRECORD
  5
90
102
{ACAD_REACTORS
330
81
102
}
330
81
100
AcDbXrecord
340
0
  0
XRECORD
  5
96
102
{ACAD_REACTORS
330
81
102
}
330
81
100
AcDbXrecord
 10
0.0
 20
0.0
 30
0.0
  0
XRECORD
  5
92
102
{ACAD_REACTORS
330
81
102
}
330
81
100
AcDbXrecord
 10
0.0
 20
0.0
 30
0.0
  0
XRECORD
  5
95
102
{ACAD_REACTORS
330
81
102
}
330
81
100
AcDbXrecord
 10
0.0
 20
0.0
 30
0.0
  0
XRECORD
  5
93
102
{ACAD_REACTORS
330
81
102
}
330
81
100
AcDbXrecord
 10
0.0
 20
0.0
 30
0.0
  0
XRECORD
  5
94
102
{ACAD_REACTORS
330
81
102
}
330
81
100
AcDbXrecord
 10
0.0
 20
0.0
 30
0.0
  0
XRECORD
  5
91
102
{ACAD_REACTORS
330
81
102
}
330
81
100
AcDbXrecord
 10
0.0
 20
0.0
 30
0.0
  0
XRECORD
  5
8E
102
{ACAD_REACTORS
330
81
102
}
330
81
100
AcDbXrecord
340
0
  0
XRECORD
  5
8F
102
{ACAD_REACTORS
330
81
102
}
330
81
100
AcDbXrecord
 70
     0
  0
XRECORD
  5
85
102
{ACAD_REACTORS
330
81
102
}
330
81
100
AcDbXrecord
  1

  0
XRECORD
  5
82
102
{ACAD_REACTORS
330
81
102
}
330
81
100
AcDbXrecord
 90
        1
  0
XRECORD
  5
83
102
{ACAD_REACTORS
330
81
102
}
330
81
100
AcDbXrecord
 90
       70
  0
XRECORD
  5
99
102
{ACAD_REACTORS
330
81
102
}
330
81
100
AcDbXrecord
340
0
  0
XRECORD
  5
9F
102
{ACAD_REACTORS
330
81
102
}
330
81
100
AcDbXrecord
 10
0.0
 20
0.0
 30
0.0
  0
XRECORD
  5
9B
102
{ACAD_REACTORS
330
81
102
}
330
81
100
AcDbXrecord
 10
0.0
 20
0.0
 30
0.0
  0
XRECORD
  5
9E
102
{ACAD_REACTORS
330
81
102
}
330
81
100
AcDbXrecord
 10
0.0
 20
0.0
 30
0.0
  0
XRECORD
  5
9C
102
{ACAD_REACTORS
330
81
102
}
330
81
100
AcDbXrecord
 10
0.0
 20
0.0
 30
0.0
  0
XRECORD
  5
9D
102
{ACAD_REACTORS
330
81
102
}
330
81
100
AcDbXrecord
 10
0.0
 20
0.0
 30
0.0
  0
XRECORD
  5
9A
102
{ACAD_REACTORS
330
81
102
}
330
81
100
AcDbXrecord
 10
0.0
 20
0.0
 30
0.0
  0
XRECORD
  5
97
102
{ACAD_REACTORS
330
81
102
}
330
81
100
AcDbXrecord
340
0
  0
XRECORD
  5
98
102
{ACAD_REACTORS
330
81
102
}
330
81
100
AcDbXrecord
 70
     0
  0
XRECORD
  5
8C
102
{ACAD_REACTORS
330
81
102
}
330
81
100
AcDbXrecord
  1
{FAEB1C32-E019-11D5-929B-00C0DF256EC4}
  0
DICTIONARYVAR
  5
A8
102
{ACAD_REACTORS
330
A1
102
}
330
A1
100
DictionaryVariables
280
     0
  1
1:1
  0
DICTIONARYVAR
  5
A6
102
{ACAD_REACTORS
330
A1
102
}
330
A1
100
DictionaryVariables
280
     0
  1
2
  0
DICTIONARYVAR
  5
A7
102
{ACAD_REACTORS
330
A1
102
}
330
A1
100
DictionaryVariables
280
     0
  1
1
  0
DICTIONARYVAR
  5
A9
102
{ACAD_REACTORS
330
A1
102
}
330
A1
100
DictionaryVariables
280
     0
  1
1
  0
DICTIONARY
  5
AC
330
45
100
AcDbDictionary
280
     1
  3
ACAD_XREC_ROUNDTRIP
360
AD
  0
DICTIONARY
  5
AA
330
44
100
AcDbDictionary
280
     1
  3
ACAD_XREC_ROUNDTRIP
360
AB
  0
DICTIONARY
  5
AE
330
46
100
AcDbDictionary
280
     1
  3
ACAD_XREC_ROUNDTRIP
360
AF
  0
XRECORD
  5
AD
102
{ACAD_REACTORS
330
AC
102
}
330
AC
100
AcDbXrecord
102
MATERIAL
148
0.0
149
0.0
149
0.0
 93
        0
 94
      127
282
     0
 72
     1
 77
     1
171
     1
175
     1
179
     1
273
     0
  0
XRECORD
  5
AB
102
{ACAD_REACTORS
330
AA
102
}
330
AA
100
AcDbXrecord
102
MATERIAL
148
0.0
149
0.0
149
0.0
 93
        0
 94
      127
282
     0
 72
     1
 77
     1
171
     1
175
     1
179
     1
273
     0
  0
XRECORD
  5
AF
102
{ACAD_REACTORS
330
AE
102
}
330
AE
100
AcDbXrecord
102
MATERIAL
148
0.0
149
0.0
149
0.0
 93
        0
 94
      127
282
     0
 72
     1
 77
     1
171
     1
175
     1
179
     1
273
     0
  0
ENDSEC
  0
EOF
